<svg id="n0101" xmlns="http://www.w3.org/2000/svg" viewBox="0 0 361 513.21"><defs><style>.cls-1,.cls-9{fill:#68569d;}.cls-1,.cls-2,.cls-3,.cls-4,.cls-5,.cls-6,.cls-7{fill-rule:evenodd;}.cls-10,.cls-2{fill:#f8d63f;}.cls-3{fill:#e085ad;}.cls-4{fill:#fff;}.cls-6{fill:#81cece;}.cls-7{fill:#49b37e;}.cls-8{fill:none;stroke:#000;stroke-linecap:round;stroke-linejoin:round;stroke-width:8.5px;}</style></defs><title>01Poni</title><polygon class="cls-1" points="68.14 93.31 57.61 82.83 44.91 61.97 38.42 42.08 36.88 20.94 39.51 10.42 44.61 4.83 53.02 7.02 59.23 16.66 67.29 27.98 77.46 37.65 84.99 45.88 89.51 55.87 90.7 66.88 80.44 78.01 73.52 86.35 68.14 93.31"/><polygon class="cls-2" points="247.17 90.69 242.94 86.57 243.32 71.94 248.11 56.21 254.76 45.07 263.53 34.77 276.47 22.44 285.86 12.5 295.98 6.28 302.9 13.6 305.45 23.34 305.9 35.15 304.59 46.33 300.99 58.84 294.56 71.96 286.59 83.12 277.32 92.53 270.34 84.84 261.55 83.52 253.25 86.45 247.17 90.69"/><polygon class="cls-3" points="61.25 122.19 52.31 150.86 56.27 148.57 64.94 150.85 80.64 148.57 91.57 152.74 167.41 135.28 184.64 127.85 200.31 117.61 214.83 103.77 227.37 85.9 235.31 68.51 238.01 60.25 245.52 62.73 249.18 54.05 239.4 44.85 223.22 34.42 202.65 26.74 179.72 23.83 154.11 27.17 131.03 36.2 107.85 51.39 92.01 65.56 78.83 79.95 65.38 97.07 73.5 98.79 66.4 109.26 61.25 122.19"/><polygon class="cls-4" points="159.74 137.44 163.12 142.23 176 143.96 190.95 143.01 208.53 138.07 226.79 131.73 243.43 126.84 260.14 123.17 273.68 121.11 281.75 119.94 281.21 107.42 278.4 94.98 272.98 86.67 263.36 83.35 252.33 86.97 247.17 90.69 242.94 86.57 242.91 75.3 245.72 64.08 237.6 61.62 234.27 71.27 227.83 84.88 220.07 97.21 209.29 109.68 196.23 120.66 178.65 130.84 159.74 137.44"/><polygon class="cls-5" points="246.53 126.07 248.23 115.23 251.73 107.35 258.63 103.67 265.26 106.43 266.78 111.55 266.82 136.12 247.22 147.03 246.53 126.07"/><polygon class="cls-3" points="38.56 178.27 47 163.01 52.31 150.86 56.27 140.28 70.13 140.37 84.96 141.25 100.07 143.09 114.34 145.86 112.31 149.96 94.36 154.62 93.06 163.31 93.92 178.32 97.21 193.19 101.44 205.47 106.74 216.86 96.63 218.83 81.2 220.32 64.65 214.45 52.84 204.63 44.52 191.03 38.56 178.27"/><path class="cls-6" d="M123.29,231.56c1.09,1.07-10,2.78-10,2.78l-6.58-17.48-5.3-11.39-4.52-13.6-3.14-16-0.72-12.57,0.36-8.46,11.81-3.32,13.82-4.5L132.23,144l10.85-1.5L174.23,131v68.08l-31.15,17.81-7.85,10.69-5.94,4h-6Z" transform="translate(0 0)"/><polygon class="cls-5" points="109.09 150.85 108.85 160.5 108.64 172.31 108.63 182.07 112.06 187.77 118.33 187.45 124.16 182.66 124.52 175.33 123.97 168.03 116.74 162.06 109.09 150.85"/><polygon class="cls-4" points="210.5 155.57 212.31 164.42 216.66 173.14 223.24 180.13 232.6 186.98 238.3 196.24 243.83 205.67 251.78 210.31 261.86 212.3 270.5 212.94 267.55 201.53 268.44 189.69 272.65 173.97 276.51 160.39 279.44 147.73 281.05 137.47 267.02 138.98 247.22 147.03 231.85 147.1 219.45 151.59 210.5 155.57"/><polygon class="cls-5" points="246.22 150.04 252.03 155.76 257.84 161.47 256.62 168.84 253.34 179.29 245.35 178.72 240.81 173.99 240.18 166.09 241.92 155.86 246.22 150.04"/><path class="cls-7" d="M269,241.56l-1.5-41.31L269.17,186,274,169.52l4-15.46s1.9-16.51,3.08-16.59S292,137,292,137l4.87,9.47,5.56,11.09,5.39,11.18,8.21,17.5,12.62,33.35-12.62,11-11.37,3.78h-15.8Z" transform="translate(0 0)"/><polygon class="cls-3" points="109.09 212.94 97.21 193.19 87.49 181.95 80.64 187.77 69.99 185.74 57.88 185.44 43.23 178.46 32.22 217.69 32.21 235.48 35.83 255.62 44.71 274.3 55.2 289.37 67.09 306.78 73.3 326.2 74.59 349.34 72.03 369.76 66.82 390.36 63.93 399.25 68.27 398.64 76.57 388.36 83.44 377.16 88.34 364.59 90.97 351.03 92 331.56 85.48 322.06 79.04 307.18 76.47 289.51 78.56 272.25 86.09 256.8 117.08 247.06 109.09 212.94"/><polygon class="cls-1" points="92 331.56 80.08 312.78 116.47 307.81 129.29 328.06 139.23 338.56 150.5 335.06 164.29 339.74 176.08 342.74 195.66 381.12 197.36 408.22 196.53 426.19 195 440.79 192.66 471.12 159.66 472.62 146.66 475.12 134.73 484.47 124.43 496.21 117.59 493.64 104.59 478.01 99.2 470.93 94.91 466.68 92.67 455.37 82.65 451.64 73.01 445.98 64.5 432.66 61.23 418.95 61.57 406.39 68.64 398.22 76.57 388.36 83.44 377.16 88.34 364.59 90.97 351.03 91.48 341.29 92 331.56"/><polygon class="cls-3" points="210.5 360.06 220.75 352.06 235.36 344.99 249.01 342.06 260.57 334.56 289.38 282.62 298.78 315.04 292.17 347.47 287.81 356.87 282.69 367.43 276.4 380.22 270.65 392.55 265.79 407.04 265.11 423.16 269.44 439.9 270.06 453.64 272.32 463.1 273.11 471.62 271.25 471.01 274.42 474.74 274.74 473.12 274.42 477.97 271.44 487.31 231.18 472.81 219.37 473.72 180.5 471.67 187.53 428.03 186.48 416.26 185.97 401.05 185.94 365.29 210.5 360.06"/><polygon class="cls-3" points="185.94 365.29 129.29 353.96 77.42 310.56 73.8 250.34 187.08 250.34 185.94 365.29"/><polygon class="cls-7" points="265.55 353.96 186.3 365.29 186.5 250.34 299.79 250.34 319.23 310.43 265.55 353.96"/><polygon class="cls-7" points="269.63 238.69 269.73 233.97 282.61 233.33 295.82 230.25 310.75 223.64 324.22 211.05 328.62 219.56 332.45 234.13 335.84 251.74 337.69 269.66 337.62 287.67 335.32 305 330.1 322.73 323.66 336.06 312.74 351.25 299.58 364.47 289.26 376.36 280.58 390.42 273.24 387 276.4 380.22 281.9 369.04 287.81 356.87 294.99 341.06 300.83 326.36 302.87 315.43 307.03 298.81 308.73 282.1 302.67 266.47 293.72 254.17 220.75 352.06 269.63 238.69"/><path class="cls-8" d="M246.7,50.78c-13.5-15-105.85-69.34-178.87,48.28" transform="translate(0 0)"/><path class="cls-8" d="M50.38,24.32S80,57.57,75.51,83.88" transform="translate(0 0)"/><path class="cls-8" d="M58.31,14.69c10,22.83,35.4,25.21,31.45,53.15" transform="translate(0 0)"/><path class="cls-8" d="M68.14,93.31S34.63,62.19,36.88,20.94" transform="translate(0 0)"/><path class="cls-8" d="M153.53,139.79s66-11.6,85.1-81.72" transform="translate(0 0)"/><path class="cls-8" d="M239.38,101.19c3.75-13.12,43.12-40.5,42.37,18.75" transform="translate(0 0)"/><path class="cls-8" d="M261.55,83.52c-1.12-27.75,18.82-26,26.32-58.61" transform="translate(0 0)"/><path class="cls-8" d="M277.32,92.53s35.93-28.46,27.3-74.59" transform="translate(0 0)"/><path class="cls-8" d="M242.94,86.57c-3.15-34.33,21.94-52.88,34.31-64.87" transform="translate(0 0)"/><path class="cls-8" d="M61.25,122.19S70,97.07,99.71,75.94" transform="translate(0 0)"/><path class="cls-8" d="M113.32,128.06s63.06-24.61,86.68-67" transform="translate(0 0)"/><path class="cls-8" d="M87.49,123.43s19.89-18.49,63-39.86" transform="translate(0 0)"/><path class="cls-8" d="M95.75,142.46c-10.31,9.56-34,22.21-31.1,72" transform="translate(0 0)"/><path class="cls-8" d="M38.93,179.14s15.76-37.64,22.33-57" transform="translate(0 0)"/><path class="cls-8" d="M80.64,157.35s64.76-14.54,72.89-17.56" transform="translate(0 0)"/><path class="cls-8" d="M94.37,154.62c-4.5,16.69,2.54,44,12.37,62.24" transform="translate(0 0)"/><path class="cls-8" d="M284.23,128.06s38.63,70.94,41.22,81.33" transform="translate(0 0)"/><path class="cls-8" d="M325.45,209.38c12.56,38.07,27.19,105.37-19.79,149.16-52.53,48.94-19.76,73.35-16.87,76.5" transform="translate(0 0)"/><path class="cls-8" d="M282.06,122.19c-1,29.69-13,60.83-13.62,67.5" transform="translate(0 0)"/><path class="cls-8" d="M270.5,212.94s-5.06-7.5-2.06-23.25" transform="translate(0 0)"/><path class="cls-8" d="M313.62,252.88c1.87,61.88-29.39,107.75-43.87,141.75-17,39.94,9.55,48.59,2,89.84" transform="translate(0 0)"/><path class="cls-8" d="M157.26,455.33s-4,13.3-14.18,22.64-20.44,11.82-18.65,18.24C73.34,467.4,101.92,423.58,100,407.08" transform="translate(0 0)"/><path class="cls-8" d="M48.5,440.38C45.87,399.5,96.11,398.94,91.24,330.6" transform="translate(0 0)"/><path class="cls-8" d="M57.87,261.13c3.75,9,19,19.76,18.6,28.38" transform="translate(0 0)"/><path class="cls-8" d="M62.12,405.35s-7.43,36.11,31.19,50" transform="translate(0 0)"/><path class="cls-8" d="M38.93,179.14c-9.27,32.14-19.19,67.91,20.07,115,32.81,39.33,5.14,102.65,2.57,112.26" transform="translate(0 0)"/><path class="cls-8" d="M64.94,234.34a45.56,45.56,0,0,0,15.7,32" transform="translate(0 0)"/><path class="cls-8" d="M246.53,126.07s0.91-11.75,3.91-17,13.5-9,15.75-.37-2.24,28.77-2.24,28.77" transform="translate(0 0)"/><path class="cls-8" d="M246.53,126.07c-0.37,12.56-15.68,56,6.82,53.22" transform="translate(0 0)"/><path class="cls-8" d="M254.78,141.09c16-7.18,15-8.45-8.56,8.94l11.62,11.44" transform="translate(0 0)"/><path class="cls-8" d="M253.34,179.29a65.65,65.65,0,0,0,4.5-17.81" transform="translate(0 0)"/><path class="cls-8" d="M109.09,150.85s-0.87,31.81-.31,33.5" transform="translate(0 0)"/><path class="cls-8" d="M124.16,182.66c-0.56,3.19-12,9.75-15.37,1.69" transform="translate(0 0)"/><line class="cls-8" x1="111.03" y1="157.35" x2="123.97" y2="168.04"/><path class="cls-8" d="M124.16,182.66S125.1,171.6,124,168" transform="translate(0 0)"/><line class="cls-8" x1="111.03" y1="157.35" x2="114.34" y2="151.89"/><path class="cls-8" d="M36.88,20.94C38,5.19,48.93-4.06,58.31,14.69" transform="translate(0 0)"/><path class="cls-8" d="M304.63,17.94c-6.75-20.62-18-6.72-27.37,3.75" transform="translate(0 0)"/><path class="cls-8" d="M186.12,405.35s7.82,48.29-6.36,60.29S151,469.78,143.08,478" transform="translate(0 0)"/><path class="cls-8" d="M176.63,468s37.18-3.78,58.72,5.08" transform="translate(0 0)"/><path class="cls-8" d="M215.75,444.16c-0.23,2,7.38,20.48,22.6,31.81s33.09,11.33,33.09,11.33" transform="translate(0 0)"/><path class="cls-1" d="M134.53,206.26c0.67,1.31,15.22-38.14,15.22-38.14l0.75-9.8-12.27-5.89L122.45,147l-24.16-5.14-24.35-2.31-24.3,0-19.51,1.58,1.18,11.7,3.4,13.79,4.22,11.58L44.52,190l9.11,14.55,11,8.88,13.64,4.42,16.3,0.21,12.14-2.21,13.12-4,6.27-3L130.37,226l-13.95,5.2-17.14,3.89-16.89,1-19-3.29-15.58-8.15L36.47,213.18l-9.64-16.7-8.69-19.54L11.69,158.6,7,141.18l-2.7-14,11.69-2.08,15-2.06,19.29-1.52H71l19,1.77,21.13,3.52,19.48,5.06,18.15,5.68,14.43,3.67,16.23,1.83,14.27-1.8,18.57-5.46,19.06-6.38,18.47-5,24-4.35,27.18-1.58L324,120l18.73,3.46,14.06,4.44-3.12,16-4.26,15.48-5.84,16L338,187.53l-9.85,17L319,216.44l-11.92,8.93L290.69,231l-17.79,2-13.55-.26-19.59-3.52,2.82-7.18,0.43-8.89-1.24-7.71,11.58,4.3,11.44,1.74,15.42,0.71,14.87-2.51,10.06-7.89,8.6-12.64,7.07-14.35,6-16,3.73-12.35,1.82-7-15.79-2.46-19.11-1.16-21.11.92-21.58,3.23-22.92,6-14.05,5.16-7.3,3.31,1.81,8.86,4.35,8.71,25.13,33.34-5.45,13v14.83l-41.6-63.75-8.83-3.7-7.94.26-8.54,3.33-17.79,35.31-9.6.42Z" transform="translate(0 0)"/><polygon class="cls-9" points="227.23 205.52 241.79 205.48 251.23 218.51 247.17 231.5 227.23 223.05 227.23 205.52"/><polygon class="cls-9" points="119.73 221.06 134.47 198.82 145.23 194.56 154.73 194.56 146.54 214.1 130.37 226.02 119.73 221.06"/><path class="cls-8" d="M4.25,127.19C61.88,116,101,122,140.75,135.07s49.5,8.25,76.87-1.12" transform="translate(0 0)"/><path class="cls-8" d="M356.75,127.94s-56.25-24.75-139.12,6" transform="translate(0 0)"/><path class="cls-8" d="M30.13,141.07S101,130.94,150.5,158.32" transform="translate(0 0)"/><path class="cls-8" d="M30.13,141.07s-0.75,24.38,19.12,57.38" transform="translate(0 0)"/><path class="cls-8" d="M210.5,154.57s54.75-28.5,121.87-15" transform="translate(0 0)"/><path class="cls-8" d="M307.63,198.82s14.25-16.87,24.75-59.25" transform="translate(0 0)"/><path class="cls-8" d="M270.5,211.94c14.9,0.29,25.12,2.63,37.12-13.12" transform="translate(0 0)"/><path class="cls-8" d="M210.5,154.57s19.63,41.16,31.28,50.91c4.61,3.86,2.14,5.34,28.72,6.46" transform="translate(0 0)"/><path class="cls-8" d="M150.5,158.32s-7.27,40.13-24.37,50.63c0,0-54.37,27.38-76.87-10.5" transform="translate(0 0)"/><path class="cls-8" d="M32.28,206.79c30,51.94,98.09,19.23,98.09,19.23s16.36-7,24.84-24.41C162.33,187,167.91,167,182.67,167c17.33,0,19.62,16.08,32.79,38.49,10.91,18.55,15.46,23.15,23.73,24.58,0,0,58.78,13.24,81.84-16" transform="translate(0 0)"/><path class="cls-8" d="M4.25,127.19s5,38.53,28,79.59" transform="translate(0 0)"/><path class="cls-8" d="M321,214.1c11.91-14.34,29.06-43.87,35.72-86.16" transform="translate(0 0)"/><path class="cls-4" d="M167,455.21l7.94,4.1,10,2.16h12.54l10.9-2.51,7.87-3.54,2.56-6.27,8.25,3.38,11.8,4.09,11.48,5.3,9.47,7.26,6.15,8.89,3.82,5.3-11.13,8.22L243.92,499l-18.78,5.76-19.21,2.7H184.16l-22.44-2.78L143,500.54l-16-4.73L116.57,491l6.77-9.81L133.9,471l12-8.62s10.27-5.55,11.13-6,7.41-3.92,7.41-3.92Z" transform="translate(0 0)"/><polygon class="cls-2" points="173.17 361.86 173.54 377.16 173.5 390.47 172.97 421.32 171.79 437.6 169.67 452.19 167.12 459.58 174.96 463.86 187.91 466.29 204.21 464.75 217.18 459.38 214.41 444.07 213.03 430.8 212.47 416.6 212.54 385.79 213.17 366.36 173.17 361.86"/><path class="cls-8" d="M213.43,367.66s-4.13,53,3.75,87.17" transform="translate(0 0)"/><path class="cls-8" d="M173.41,363.75s1.78,79.45-6.85,92.2" transform="translate(0 0)"/><path class="cls-8" d="M214.77,457.39s-19.34,16.56-47.84,2.68" transform="translate(0 0)"/><path class="cls-8" d="M175.16,476.88c4,0.59,17.36,4.34,36-1.12" transform="translate(0 0)"/><path class="cls-8" d="M215.21,444.85c2,10,42.92,13.79,54.54,38.54" transform="translate(0 0)"/><path class="cls-8" d="M169.67,447.64c-3.11,8.31-35.74,12.44-53.74,44.31" transform="translate(0 0)"/><path class="cls-8" d="M269.76,483.38S231.81,534.71,115.93,492" transform="translate(0 0)"/><polygon class="cls-3" points="176.69 328.05 177.37 316.54 179.68 305.36 183.66 295.65 191.92 294.55 201.26 288.96 205.38 292.71 207.72 300.83 204.84 307.45 200.32 310.63 201.75 318.79 201.96 327.51 194.44 327.68 184.14 332.89 176.69 328.05"/><path class="cls-8" d="M190.38,313.52s24.94-2.62,15-20.81c0,0-2.83-4-11.33-3.12s-13.33,13.33-13.33,13.33" transform="translate(0 0)"/><path class="cls-8" d="M201.4,310.06s1.08,13.63.57,17.45" transform="translate(0 0)"/><path class="cls-8" d="M176.69,328.05s-1.13-16.31,6.53-30.13" transform="translate(0 0)"/><path class="cls-4" d="M123.89,335.16l4-6.74,4.18-9,5.23-4.65,9.22-.5,6.68,3.41,3.89,5.87,6-1.11,8.71,2.53,7.23,6.58,6.37-4.41,8.95-1.95,8.74,1.4s9.47,6.92,8.6,6.05,6.87-6.78,6.87-6.78l7.74-2.26,2.84-6.32,6.23-2.18,2.94-2.87,4.8-3.88,7.08-4.77,8.3,7.8,3.87,7,7.67,8.61L263.91,336,251.79,343l-21,7.45-19.3,2.93-24.4.2-23.39-3.11-18.73-5.18-12.06-5.07Z" transform="translate(0 0)"/><polygon class="cls-6" points="110.51 323.6 116.66 318.48 118.98 310.85 125.27 304.47 133.15 302.71 140.33 306.03 145.56 314.04 137.32 314.81 132.08 319.46 127.91 328.41 123.59 334.96 116.51 329.63 110.51 323.6"/><path class="cls-8" d="M163.63,176.63c2.62-7.31,26.62-18.75,37.87,2.44" transform="translate(0 0)"/><path class="cls-8" d="M240.13,200.82c-2.34-4.87-8.25-27.75-38.62-21.75" transform="translate(0 0)"/><path class="cls-8" d="M227.56,238.69s23.81-3.19,12.56-37.87" transform="translate(0 0)"/><path class="cls-8" d="M179.75,182.07s-24.75-13.69-40.69,5.44-19.69,43.13,10.5,52.5" transform="translate(0 0)"/><path class="cls-10" d="M302.67,266.73l-9-12.3-15-11.13-10.64-5-16.5-5-11.83-2.82,2.82-7.18,0.43-8.89-0.55-10.23-6.26-11.86-8.91-9.78-13.11-4.36-12.7.86-6.77-8.23-12.8-3.57-11.42,2.83-8.42,7.24L147.5,179,136,191.52l-7.16,13.42-1.6,14,5.2,11-14.2,5.84L101.89,243l-11.62,9.66-8.9,12.29L77,280.36l0.79,18.24,3.39,14.89L92,331.81l8.72,9.46,14,11L129.44,361l21.23,9,18.69,5.34,40,3.91,17.56-1.5,16-3.57,17.29-7.07,16.3-11.22,13-14.31,11.46-21,7.42-18.4,0.39-19.78Zm-32.48,67.21c-12.3,15.2-39.28,24.28-72.16,24.28h0c-23.09,0-45.67-4.45-63.6-12.53-20.81-9.37-33.61-22.86-37-39-3.91-18.51-1.9-32.81,6-42.51,8.91-11,22.86-13.29,33-13.29A60.57,60.57,0,0,1,152.61,253c2,0.58,4.06,1.29,6.21,2,7.35,2.55,16.5,5.73,31.76,5.73,12.89,0,28-2.19,46.08-6.69,20.47-4.78,37.7,2.76,45.5,19.1C290.67,291,286.08,314.29,270.19,333.94Z" transform="translate(0 0)"/><path class="cls-8" d="M134.81,232.33S69.92,237,77,297.38c5.25,44.81,59.52,76.69,114.73,81.27,46.3,3.84,99.42-8.53,111.67-64.87,16.6-76.4-46.39-81-64.21-82.43" transform="translate(0 0)"/><path class="cls-8" d="M146.66,330.85s16.31-19.31,32.44.75" transform="translate(0 0)"/><path class="cls-8" d="M211.72,332.73c-3.52-4.05-17.25-14.81-32.62-1.12" transform="translate(0 0)"/><path class="cls-8" d="M242.09,331.23s-16.69-18-30.37,1.5" transform="translate(0 0)"/><path class="cls-8" d="M255.31,327s-13.69-24.33-27.37-6.94" transform="translate(0 0)"/><path class="cls-8" d="M238.35,312.28s17-19.29,30.65,9.32" transform="translate(0 0)"/><path class="cls-8" d="M128,330.85s10.37-27.85,30.1-11.14" transform="translate(0 0)"/><path class="cls-8" d="M114.34,324.87c0-20.31,21-32.35,32.2-10.56" transform="translate(0 0)"/><path class="cls-8" d="M151.06,196.32c2.53,1.88-8.62,19.69-11.62,17.53" transform="translate(0 0)"/><path class="cls-8" d="M151.06,196.32c-3.47-2.44-15.66,14.53-11.62,17.53" transform="translate(0 0)"/><path class="cls-8" d="M218.75,194.63c-3.09,1.22,5.44,23.63,9.66,21.56" transform="translate(0 0)"/><path class="cls-8" d="M218.75,194.63c2.53-1.5,13.22,19.88,9.66,21.56" transform="translate(0 0)"/><path class="cls-8" d="M163.63,176.63c2.62-7.31,26.62-18.75,37.87,2.44" transform="translate(0 0)"/><path class="cls-8" d="M240.13,200.82c-2.34-4.87-8.25-27.75-38.62-21.75" transform="translate(0 0)"/><path class="cls-8" d="M227.56,238.69s23.81-3.19,12.56-37.87" transform="translate(0 0)"/><path class="cls-8" d="M179.75,182.07s-24.75-13.69-40.69,5.44-19.69,43.13,10.5,52.5" transform="translate(0 0)"/><path class="cls-8" d="M237.69,258.19c-55.87,13.88-72.22,2.91-86.25-1.12s-61.64-6.94-49.87,48.75c11.25,53.27,134.76,63.2,165.32,25.44s12-82.68-29.19-73.07" transform="translate(0 0)"/></svg>