<?xml version="1.0" encoding="iso-8859-1"?>
<!-- Generator: Adobe Illustrator 19.2.1, SVG Export Plug-In . SVG Version: 6.00 Build 0)  -->
<svg version="1.1" xmlns="http://www.w3.org/2000/svg" xmlns:xlink="http://www.w3.org/1999/xlink" x="0px" y="0px"
	 viewBox="0 0 384.223 512.962" style="enable-background:new 0 0 384.223 512.962;" xml:space="preserve">
<g id="n0101">
	<g>
		<g>
			<polygon style="fill-rule:evenodd;clip-rule:evenodd;fill:#68569D;" points="81.738,93.062 71.207,82.574 58.506,61.721 
				52.017,41.83 50.472,20.691 53.103,10.17 58.207,4.573 66.611,6.77 72.822,16.407 80.885,27.724 91.058,37.399 98.588,45.628 
				103.105,55.621 104.297,66.627 94.035,77.758 87.113,86.101 			"/>
			<polygon style="fill-rule:evenodd;clip-rule:evenodd;fill:#F8D63F;" points="260.767,90.434 256.534,86.315 256.915,71.689 
				261.71,55.959 268.359,44.819 277.128,34.518 290.066,22.191 299.46,12.247 309.574,6.031 316.499,13.344 319.042,23.083 
				319.497,34.898 318.182,46.08 314.581,58.583 308.154,71.705 300.188,82.866 290.917,92.278 283.934,84.589 275.145,83.263 
				266.843,86.198 			"/>
			<polygon style="fill-rule:evenodd;clip-rule:evenodd;fill:#E085AD;" points="74.848,121.94 89.316,122.527 108.702,124.601 
				129.378,128.653 150.636,134.616 168.884,140.149 181.007,135.027 198.236,127.602 213.906,117.353 228.427,103.517 
				240.962,85.644 248.908,68.261 251.607,59.999 259.115,62.475 262.775,53.8 252.994,44.602 236.814,34.168 216.242,26.484 
				193.32,23.578 167.704,26.915 144.63,35.953 121.447,51.139 105.603,65.312 92.423,79.699 78.973,96.815 87.093,98.536 
				79.994,109.008 			"/>
			<polygon style="fill-rule:evenodd;clip-rule:evenodd;fill:#FFFFFF;" points="173.34,137.185 176.71,141.977 189.592,143.709 
				204.546,142.761 222.126,137.818 240.389,131.475 257.023,126.589 273.739,122.915 287.271,120.858 295.348,119.69 
				294.807,107.173 291.997,94.731 286.577,86.418 276.954,83.094 265.926,86.722 260.767,90.434 256.534,86.315 256.508,75.048 
				259.314,63.824 251.2,61.372 247.868,71.013 241.428,84.625 233.671,96.956 222.891,109.43 209.823,120.408 192.242,130.592 			
				"/>
			<polygon style="fill-rule:evenodd;clip-rule:evenodd;" points="260.121,125.814 261.821,114.983 265.325,107.098 272.225,103.42 
				278.854,106.178 280.375,111.297 280.506,121.887 268.672,124.03 			"/>
			<polygon style="fill-rule:evenodd;clip-rule:evenodd;fill:#E085AD;" points="52.16,178.015 60.6,162.757 65.904,150.607 
				69.871,140.033 83.721,140.119 98.553,141.002 113.666,142.843 127.939,145.611 125.904,149.703 107.961,154.367 
				106.654,163.056 107.518,178.067 110.808,192.936 115.035,205.217 120.334,216.611 110.23,218.576 94.793,220.064 
				78.248,214.198 66.441,204.382 58.111,190.777 			"/>
			<path style="fill-rule:evenodd;clip-rule:evenodd;fill:#81CECE;" d="M139.723,209.69c1.094,1.066-9.02,3.748-9.02,3.748
				l-10.369,3.172l-5.298-11.395l-4.52-13.604l-3.139-15.986l-0.722-12.569l0.363-8.46l11.814-3.316l13.819-4.5l12.043,3.677
				l11.789,4.758l7.615,3.85l-0.521,7.996l-2.721,11.417l-6.487,6.631l-6.667,8.619l-3.836,6.999L139.723,209.69z"/>
			<polygon style="fill-rule:evenodd;clip-rule:evenodd;" points="122.683,150.596 122.449,160.253 122.236,172.06 122.22,181.821 
				125.658,187.52 131.921,187.196 137.751,182.408 138.111,175.08 137.566,167.783 130.335,161.811 			"/>
			<polygon style="fill-rule:evenodd;clip-rule:evenodd;fill:#FFFFFF;" points="224.098,155.315 225.904,164.172 230.251,172.887 
				236.835,179.88 246.193,186.726 251.894,195.991 257.43,205.417 265.378,210.063 275.456,212.044 284.098,212.69 
				281.148,201.279 282.034,189.44 286.249,173.72 290.103,160.135 293.034,147.475 294.645,137.213 280.611,138.726 
				264.06,141.764 245.45,146.851 233.05,151.334 			"/>
			<polygon style="fill-rule:evenodd;clip-rule:evenodd;" points="259.814,149.785 265.629,155.504 271.439,161.223 270.22,168.588 
				266.939,179.035 258.947,178.467 254.404,173.734 253.77,165.835 255.515,155.611 			"/>
			<path style="fill-rule:evenodd;clip-rule:evenodd;fill:#49B37E;" d="M284.098,212.69l-3.002-12.697l1.674-14.264l4.795-16.462
				l4.004-15.462c0,0,1.895-16.509,3.076-16.592c1.183-0.082,10.918-0.497,10.918-0.497l4.871,9.47l5.56,11.09l5.392,11.182
				l8.206,17.505l-4.456,7.934l-7.522,9.93l-8.913,6.635l-13.283,2.515L284.098,212.69z"/>
			<path style="fill-rule:evenodd;clip-rule:evenodd;fill:#68569D;" d="M160.855,178.478c0.672,1.315,2.492-9.61,2.492-9.61
				l0.75-9.803l-12.273-5.886l-15.776-5.467l-24.162-5.14l-24.347-2.307l-24.303-0.033l-19.514,1.583l1.18,11.699l3.398,13.795
				l4.221,11.581l5.59,11.887l9.111,14.546l11.025,8.875l13.645,4.419l16.303,0.208l12.138-2.215l13.118-3.957l6.271-2.963
				l4.244,17.074l-13.947,5.196l-17.143,3.893l-16.886,1.023l-19.02-3.287l-15.58-8.15l-11.326-11.511l-9.639-16.698l-8.691-19.542
				l-6.453-18.339l-4.731-17.417l-2.703-13.992l11.693-2.082l14.952-2.055l19.285-1.517l20.789-0.013l18.957,1.774l21.127,3.517
				l19.484,5.057l18.151,5.683l14.425,3.672l16.233,1.832l14.267-1.796l18.565-5.461l19.06-6.382l18.473-4.961l23.964-4.35
				l27.178-1.58l23.106,1.516l18.728,3.46l14.063,4.437l-3.125,15.969l-4.262,15.481l-5.841,15.999l-5.553,12.14l-9.847,16.998
				l-9.096,11.91l-11.921,8.926l-16.413,5.654l-17.787,2.015l-13.546-0.257l-19.592-3.524l2.822-7.183l0.432-8.887l-1.237-7.705
				l11.584,4.299l11.442,1.74l15.416,0.708l14.875-2.511l10.06-7.887l8.604-12.644l7.074-14.351l5.985-15.954l3.731-12.352
				l1.817-6.959l-15.795-2.464l-19.11-1.156l-21.113,0.915l-21.579,3.23l-22.925,6.011l-14.053,5.159l-7.3,3.305l1.808,8.857
				l4.347,8.715l2.715,5.684l-12.321-0.816l-5.548,0.81l-6.768-8.23l-8.834-3.696l-7.936,0.256l-8.541,3.329l-5.066,6.771
				l-9.602,0.424L160.855,178.478z"/>
			<polygon style="fill-rule:evenodd;clip-rule:evenodd;fill:#E085AD;" points="117.033,241.585 112.877,235.853 99.291,236.926 
				84.81,234.944 72.51,231.255 58.912,223.45 48.392,211.034 45.816,217.438 45.804,235.225 49.429,255.371 58.304,274.049 
				68.797,289.114 80.681,306.524 86.894,325.952 88.191,349.092 85.621,369.508 80.416,390.104 77.529,398.999 81.867,398.387 
				90.168,388.106 97.039,376.907 101.935,364.336 104.566,350.776 105.595,331.309 99.076,321.813 92.638,306.924 90.068,289.258 
				92.152,271.997 99.689,256.545 108.045,247.743 			"/>
			<polygon style="fill-rule:evenodd;clip-rule:evenodd;fill:#68569D;" points="105.596,331.309 112.616,339.118 122.82,348.01 
				133.91,355.596 147.594,362.93 157.366,367.116 171.152,371.801 182.945,374.799 209.251,380.866 210.952,407.965 
				210.122,425.934 208.6,440.534 206.251,470.866 173.25,472.366 160.25,474.866 148.322,484.219 138.03,495.963 131.186,493.389 
				118.182,477.762 112.8,470.676 108.503,466.43 106.262,455.118 96.246,451.389 86.609,445.725 78.091,432.411 74.829,418.702 
				75.165,406.143 82.234,397.965 90.167,388.106 97.038,376.907 101.935,364.336 104.566,350.776 105.079,341.042 			"/>
			<polygon style="fill-rule:evenodd;clip-rule:evenodd;fill:#E085AD;" points="222.973,378.706 232.135,378.206 244.794,376.485 
				260.15,372.461 273.781,366.577 288.792,356.473 300.247,344.733 305.767,347.217 301.409,356.618 296.286,367.174 
				289.997,379.967 284.245,392.299 279.385,406.792 278.702,422.905 283.036,439.649 283.659,453.385 285.921,462.848 
				286.7,471.372 284.846,470.754 288.016,474.492 288.339,472.865 288.016,477.72 285.035,487.053 244.772,472.561 232.97,473.469 
				194.097,471.418 201.129,427.778 200.075,416.004 199.567,400.793 199.75,380.866 			"/>
			<polygon style="fill-rule:evenodd;clip-rule:evenodd;fill:#FFFFFF;" points="139.137,255.698 138.593,265.918 139.382,273.36 
				144.538,281.659 152.001,282.721 156.57,280.922 166.421,286.313 175.915,286.008 180.501,284.221 184.607,288.852 
				191.746,292.491 201.726,291.686 211.064,286.096 219.656,289.846 230.264,291.444 239.796,287.44 243.122,283.317 
				251.132,283.668 257.466,280.082 260.581,271.652 260.493,263.336 259.407,256.464 246.445,258.853 234.63,261.336 
				213.407,264.163 196.064,264.197 178.318,260.93 160.55,255.555 147.762,254.686 			"/>
			<path style="fill-rule:evenodd;clip-rule:evenodd;fill:#FFFFFF;" d="M137.484,334.653l4.017-6.742l4.176-8.955l5.235-4.652
				l9.224-0.496l6.678,3.414l3.889,5.873l6.039-1.111l8.715,2.533l7.232,6.58l6.369-4.41l8.949-1.949l8.735,1.399
				c0,0,9.472,6.916,8.597,6.053c-0.873-0.865,6.866-6.779,6.866-6.779l7.738-2.26l2.836-6.322l6.228-2.184l-1.006-5.857
				l9.079-6.287l6.742,0.637l8.301,7.803l3.867,7.004l7.67,8.611l-6.149,8.916l-12.127,7.055l-21.045,7.453l-19.298,2.934
				l-24.395,0.195l-23.389-3.113l-18.732-5.176l-12.063-5.068L137.484,334.653z"/>
			<polygon style="fill-rule:evenodd;clip-rule:evenodd;fill:#81CECE;" points="124.105,323.092 130.251,317.973 132.58,310.348 
				138.865,303.963 146.744,302.207 153.929,305.524 159.152,313.534 150.912,314.305 145.677,318.956 141.501,327.911 
				137.188,334.457 130.107,329.128 			"/>
			<polygon style="fill-rule:evenodd;clip-rule:evenodd;fill:#49B37E;" points="215.361,287.973 224.959,290.645 233.611,290.038 
				242.181,284.485 249.705,283.858 257.466,280.081 260.397,272.993 260.494,263.336 260.168,256.421 271.231,257.454 
				282.882,263.095 289.779,270.663 294.645,282.474 295.565,294.764 293.649,305.985 289.445,316.872 283.66,326.553 
				277.627,321.723 272.123,310.938 266.207,304.506 263.832,308.061 259.371,308.061 249.007,314.643 242.779,316.827 
				241.957,323.276 233.048,324.924 225.927,331.375 219.681,327.643 211.767,324.651 183.372,325.911 190.372,293.577 
				210.372,286.577 213.705,287.911 			"/>
			<polyline style="fill-rule:evenodd;clip-rule:evenodd;fill:#68569D;" points="203.251,291.866 184.607,288.852 180.501,284.222 
				172.891,286.104 163.96,285.581 156.571,280.922 150.579,282.886 143.288,279.648 139.383,273.36 138.715,263.625 
				139.137,255.698 128.174,259.708 118.15,269.366 114.251,279.489 113.497,294.057 115.158,305.317 117.987,313.682 
				124.105,323.09 130.251,317.973 133.762,308.563 140.448,302.094 146.744,302.207 152.887,304.702 159.058,311.85 
				163.475,315.516 170.703,323.096 177.746,322.014 201.75,326.366 			"/>
			<polygon style="fill-rule:evenodd;clip-rule:evenodd;fill:#49B37E;" points="283.23,238.435 283.32,233.722 296.203,233.077 
				309.421,230.001 324.345,223.386 337.816,210.8 342.214,219.312 346.048,233.881 349.439,251.484 351.289,269.406 351.22,287.42 
				348.921,304.75 343.695,322.475 337.255,335.813 326.337,350.993 313.179,364.217 302.857,376.108 294.175,390.172 
				286.835,386.747 289.998,379.967 295.494,368.786 301.408,356.618 308.582,340.803 314.427,326.11 316.462,315.18 
				320.626,298.553 322.322,281.844 316.263,266.221 307.312,253.919 296.445,245.234 			"/>
			
				<path style="fill:none;stroke:#000000;stroke-width:8.504;stroke-linecap:round;stroke-linejoin:round;stroke-miterlimit:22.926;" d="
				M260.292,50.531c-13.5-15-105.853-69.341-178.873,48.284"/>
			
				<path style="fill:none;stroke:#000000;stroke-width:8.504;stroke-linecap:round;stroke-linejoin:round;stroke-miterlimit:22.926;" d="
				M63.973,24.066c0,0,29.643,33.25,25.133,59.563"/>
			
				<path style="fill:none;stroke:#000000;stroke-width:8.504;stroke-linecap:round;stroke-linejoin:round;stroke-miterlimit:22.926;" d="
				M71.902,14.436c9.951,22.83,35.396,25.212,31.455,53.15"/>
			
				<path style="fill:none;stroke:#000000;stroke-width:8.504;stroke-linecap:round;stroke-linejoin:round;stroke-miterlimit:22.926;" d="
				M81.738,93.062c0,0-33.516-31.122-31.266-72.372"/>
			
				<path style="fill:none;stroke:#000000;stroke-width:8.504;stroke-linecap:round;stroke-linejoin:round;stroke-miterlimit:22.926;" d="
				M167.126,139.536c0,0,65.97-11.596,85.095-81.721"/>
			
				<path style="fill:none;stroke:#000000;stroke-width:8.504;stroke-linecap:round;stroke-linejoin:round;stroke-miterlimit:22.926;" d="
				M252.973,100.94c3.75-13.125,43.125-40.5,42.375,18.75"/>
			
				<path style="fill:none;stroke:#000000;stroke-width:8.504;stroke-linecap:round;stroke-linejoin:round;stroke-miterlimit:22.926;" d="
				M275.145,83.263c-1.125-27.75,18.817-25.984,26.317-58.609"/>
			
				<path style="fill:none;stroke:#000000;stroke-width:8.504;stroke-linecap:round;stroke-linejoin:round;stroke-miterlimit:22.926;" d="
				M290.918,92.278c0,0,35.93-28.462,27.305-74.587"/>
			
				<path style="fill:none;stroke:#000000;stroke-width:8.504;stroke-linecap:round;stroke-linejoin:round;stroke-miterlimit:22.926;" d="
				M256.535,86.315c-3.154-34.332,21.938-52.875,34.312-64.875"/>
			
				<path style="fill:none;stroke:#000000;stroke-width:8.504;stroke-linecap:round;stroke-linejoin:round;stroke-miterlimit:22.926;" d="
				M74.848,121.94c0,0,8.735-25.125,38.46-46.25"/>
			
				<path style="fill:none;stroke:#000000;stroke-width:8.504;stroke-linecap:round;stroke-linejoin:round;stroke-miterlimit:22.926;" d="
				M17.848,127.94c57.625-11.213,96.752-5.183,136.5,7.875c39.748,13.058,49.5,8.25,76.875-1.125"/>
			
				<path style="fill:none;stroke:#000000;stroke-width:8.504;stroke-linecap:round;stroke-linejoin:round;stroke-miterlimit:22.926;" d="
				M370.348,128.69c0,0-56.25-24.75-139.125,6"/>
			
				<path style="fill:none;stroke:#000000;stroke-width:8.504;stroke-linecap:round;stroke-linejoin:round;stroke-miterlimit:22.926;" d="
				M126.914,127.803c0,0,63.059-24.613,86.684-66.988"/>
			
				<path style="fill:none;stroke:#000000;stroke-width:8.504;stroke-linecap:round;stroke-linejoin:round;stroke-miterlimit:22.926;" d="
				M101.086,123.179c0,0,19.887-18.489,63.012-39.864"/>
			
				<path style="fill:none;stroke:#000000;stroke-width:8.504;stroke-linecap:round;stroke-linejoin:round;stroke-miterlimit:22.926;" d="
				M43.723,141.815c0,0,70.875-10.125,120.375,17.25"/>
			
				<path style="fill:none;stroke:#000000;stroke-width:8.504;stroke-linecap:round;stroke-linejoin:round;stroke-miterlimit:22.926;" d="
				M139.723,209.69c0,0-54.375,27.375-76.875-10.5"/>
			
				<path style="fill:none;stroke:#000000;stroke-width:8.504;stroke-linecap:round;stroke-linejoin:round;stroke-miterlimit:22.926;" d="
				M43.723,141.815c0,0-0.75,24.375,19.125,57.375"/>
			
				<path style="fill:none;stroke:#000000;stroke-width:8.504;stroke-linecap:round;stroke-linejoin:round;stroke-miterlimit:22.926;" d="
				M224.098,155.315c0,0,54.75-28.5,121.875-15"/>
			
				<path style="fill:none;stroke:#000000;stroke-width:8.504;stroke-linecap:round;stroke-linejoin:round;stroke-miterlimit:22.926;" d="
				M321.223,199.565c0,0,14.25-16.875,24.75-59.25"/>
			
				<path style="fill:none;stroke:#000000;stroke-width:8.504;stroke-linecap:round;stroke-linejoin:round;stroke-miterlimit:22.926;" d="
				M284.098,212.69c14.901,0.294,25.125,2.625,37.125-13.125"/>
			
				<path style="fill:none;stroke:#000000;stroke-width:8.504;stroke-linecap:round;stroke-linejoin:round;stroke-miterlimit:22.926;" d="
				M253.723,200.315c3.78,4.679,3.803,11.254,30.375,12.375"/>
			
				<path style="fill:none;stroke:#000000;stroke-width:8.504;stroke-linecap:round;stroke-linejoin:round;stroke-miterlimit:22.926;" d="
				M224.098,155.315c0,0,0.768,18.091,15.289,25.546"/>
			
				<path style="fill:none;stroke:#000000;stroke-width:8.504;stroke-linecap:round;stroke-linejoin:round;stroke-miterlimit:22.926;" d="
				M164.098,159.065c0,0-0.117,17.836-5.297,22.335"/>
			
				<path style="fill:none;stroke:#000000;stroke-width:8.504;stroke-linecap:round;stroke-linejoin:round;stroke-miterlimit:22.926;" d="
				M143.967,226.764c0,0-68.09,32.708-98.09-19.229"/>
			
				<path style="fill:none;stroke:#000000;stroke-width:8.504;stroke-linecap:round;stroke-linejoin:round;stroke-miterlimit:22.926;" d="
				M252.785,230.854c0,0,58.778,13.243,81.842-16.007"/>
			
				<path style="fill:none;stroke:#000000;stroke-width:8.504;stroke-linecap:round;stroke-linejoin:round;stroke-miterlimit:22.926;" d="
				M109.348,142.211c-10.313,9.562-33.978,22.213-31.1,71.987"/>
			
				<path style="fill:none;stroke:#000000;stroke-width:8.504;stroke-linecap:round;stroke-linejoin:round;stroke-miterlimit:22.926;" d="
				M52.521,178.89c0,0,10.779-19.546,17.35-38.858"/>
			
				<path style="fill:none;stroke:#000000;stroke-width:8.504;stroke-linecap:round;stroke-linejoin:round;stroke-miterlimit:22.926;" d="
				M94.234,157.096c0,0,31.676-6.924,39.805-9.944"/>
			
				<path style="fill:none;stroke:#000000;stroke-width:8.504;stroke-linecap:round;stroke-linejoin:round;stroke-miterlimit:22.926;" d="
				M107.961,154.367c-4.5,16.687,2.545,43.988,12.373,62.243"/>
			
				<path style="fill:none;stroke:#000000;stroke-width:8.504;stroke-linecap:round;stroke-linejoin:round;stroke-miterlimit:22.926;" d="
				M305.562,136.716c0,0,20.897,39.913,23.481,50.303"/>
			
				<path style="fill:none;stroke:#000000;stroke-width:8.504;stroke-linecap:round;stroke-linejoin:round;stroke-miterlimit:22.926;" d="
				M339.045,209.129c12.559,38.071,27.194,105.373-19.793,149.156c-52.527,48.943-19.763,73.348-16.875,76.5"/>
			
				<path style="fill:none;stroke:#000000;stroke-width:8.504;stroke-linecap:round;stroke-linejoin:round;stroke-miterlimit:22.926;" d="
				M294.645,137.213c-2.439,21.563-11.966,45.56-12.611,52.227"/>
			
				<path style="fill:none;stroke:#000000;stroke-width:8.504;stroke-linecap:round;stroke-linejoin:round;stroke-miterlimit:22.926;" d="
				M284.098,212.69c0,0-5.064-7.499-2.064-23.25"/>
			
				<path style="fill:none;stroke:#000000;stroke-width:8.504;stroke-linecap:round;stroke-linejoin:round;stroke-miterlimit:22.926;" d="
				M148.406,231.822c0,0-64.887,4.63-57.81,65.058c5.25,44.811,59.519,76.693,114.728,81.273
				c46.303,3.842,99.421-8.525,111.668-64.873c16.604-76.403-46.393-80.951-64.207-82.426"/>
			
				<path style="fill:none;stroke:#000000;stroke-width:8.504;stroke-linecap:round;stroke-linejoin:round;stroke-miterlimit:22.926;" d="
				M327.221,252.628c1.875,61.876-29.392,107.753-43.875,141.751c-17.015,39.938,9.546,48.59,2.046,89.84"/>
			
				<path style="fill:none;stroke:#000000;stroke-width:8.504;stroke-linecap:round;stroke-linejoin:round;stroke-miterlimit:22.926;" d="
				M170.855,455.082c0,0-3.996,13.305-14.179,22.638c-10.183,9.333-20.444,11.82-18.647,18.243
				c-51.094-28.816-22.514-72.631-24.389-89.131"/>
			
				<path style="fill:none;stroke:#000000;stroke-width:8.504;stroke-linecap:round;stroke-linejoin:round;stroke-miterlimit:22.926;" d="
				M62.096,440.129c-2.625-40.877,47.607-41.443,42.742-109.785"/>
			
				<path style="fill:none;stroke:#000000;stroke-width:8.504;stroke-linecap:round;stroke-linejoin:round;stroke-miterlimit:22.926;" d="
				M71.471,260.878c3.752,9,18.973,19.756,18.598,28.381"/>
			
				<path style="fill:none;stroke:#000000;stroke-width:8.504;stroke-linecap:round;stroke-linejoin:round;stroke-miterlimit:22.926;" d="
				M75.711,405.096c0,0-7.43,36.109,31.187,49.986"/>
			
				<path style="fill:none;stroke:#000000;stroke-width:8.504;stroke-linecap:round;stroke-linejoin:round;stroke-miterlimit:22.926;" d="
				M45.877,207.534c0.375,29.787-5.711,46.707,26.719,86.345c32.431,39.637,5.142,102.652,2.57,112.264"/>
			
				<path style="fill:none;stroke:#000000;stroke-width:8.504;stroke-linecap:round;stroke-linejoin:round;stroke-miterlimit:22.926;" d="
				M78.533,234.087c0,0-0.16,18.071,15.701,31.994"/>
			<g>
				<g>
					
						<path style="fill:none;stroke:#000000;stroke-width:8.504;stroke-linecap:round;stroke-linejoin:round;stroke-miterlimit:22.926;" d="
						M177.223,176.128c2.625-7.312,26.625-18.75,37.875,2.438"/>
					
						<path style="fill:none;stroke:#000000;stroke-width:8.504;stroke-linecap:round;stroke-linejoin:round;stroke-miterlimit:22.926;" d="
						M253.723,200.315c-2.345-4.875-8.25-27.749-38.625-21.75"/>
					
						<path style="fill:none;stroke:#000000;stroke-width:8.504;stroke-linecap:round;stroke-linejoin:round;stroke-miterlimit:22.926;" d="
						M241.16,238.191c0,0,23.812-3.188,12.562-37.875"/>
					
						<path style="fill:none;stroke:#000000;stroke-width:8.504;stroke-linecap:round;stroke-linejoin:round;stroke-miterlimit:22.926;" d="
						M193.348,181.566c0,0-24.75-13.687-40.688,5.437c-15.937,19.125-19.687,43.126,10.5,52.501"/>
				</g>
				
					<path style="fill:none;stroke:#000000;stroke-width:8.504;stroke-linecap:round;stroke-linejoin:round;stroke-miterlimit:22.926;" d="
					M251.283,257.691c-55.873,13.875-72.215,2.914-86.25-1.125c-14.033-4.038-61.639-6.944-49.875,48.751
					c11.252,53.266,134.764,63.201,165.319,25.44C311.035,292.997,292.467,248.074,251.283,257.691"/>
			</g>
			
				<path style="fill:none;stroke:#000000;stroke-width:8.504;stroke-linecap:round;stroke-linejoin:round;stroke-miterlimit:22.926;" d="
				M260.121,125.814c0,0,0.911-11.749,3.911-16.999s13.5-9,15.75-0.375s-0.564,13.542-0.564,13.542"/>
			
				<path style="fill:none;stroke:#000000;stroke-width:8.504;stroke-linecap:round;stroke-linejoin:round;stroke-miterlimit:22.926;" d="
				M154.439,278.597c0,0,9.938,13.689,26.062,5.625"/>
			
				<path style="fill:none;stroke:#000000;stroke-width:8.504;stroke-linecap:round;stroke-linejoin:round;stroke-miterlimit:22.926;" d="
				M152.592,254.703c0,0-4.715,16.957,1.848,23.893"/>
			
				<path style="fill:none;stroke:#000000;stroke-width:8.504;stroke-linecap:round;stroke-linejoin:round;stroke-miterlimit:22.926;" d="
				M180.502,284.222c0,0,10.688,18.186,30.561,1.876"/>
			
				<path style="fill:none;stroke:#000000;stroke-width:8.504;stroke-linecap:round;stroke-linejoin:round;stroke-miterlimit:22.926;" d="
				M247.627,265.285c0,0,0.561,40.501-36.564,20.811"/>
			
				<path style="fill:none;stroke:#000000;stroke-width:8.504;stroke-linecap:round;stroke-linejoin:round;stroke-miterlimit:22.926;" d="
				M243.123,283.317c3.788,0.704,22.819,5.115,16.284-26.854"/>
			
				<path style="fill:none;stroke:#000000;stroke-width:8.504;stroke-linecap:round;stroke-linejoin:round;stroke-miterlimit:22.926;" d="
				M139.137,255.698c-0.387,5.635-3.822,29.648,12.865,27.023"/>
			
				<path style="fill:none;stroke:#000000;stroke-width:8.504;stroke-linecap:round;stroke-linejoin:round;stroke-miterlimit:22.926;" d="
				M160.252,330.348c0,0,16.312-19.312,32.437,0.75"/>
			
				<path style="fill:none;stroke:#000000;stroke-width:8.504;stroke-linecap:round;stroke-linejoin:round;stroke-miterlimit:22.926;" d="
				M225.314,332.223c-3.52-4.051-17.25-14.815-32.625-1.125"/>
			
				<path style="fill:none;stroke:#000000;stroke-width:8.504;stroke-linecap:round;stroke-linejoin:round;stroke-miterlimit:22.926;" d="
				M255.689,330.723c0,0-16.688-18-30.375,1.5"/>
			
				<path style="fill:none;stroke:#000000;stroke-width:8.504;stroke-linecap:round;stroke-linejoin:round;stroke-miterlimit:22.926;" d="
				M268.91,326.54c0,0-13.688-24.332-27.375-6.94"/>
			
				<path style="fill:none;stroke:#000000;stroke-width:8.504;stroke-linecap:round;stroke-linejoin:round;stroke-miterlimit:22.926;" d="
				M251.943,311.778c0,0,16.967-19.287,30.647,9.316"/>
			
				<path style="fill:none;stroke:#000000;stroke-width:8.504;stroke-linecap:round;stroke-linejoin:round;stroke-miterlimit:22.926;" d="
				M141.629,330.344c0,0,10.373-27.846,30.096-11.145"/>
			
				<path style="fill:none;stroke:#000000;stroke-width:8.504;stroke-linecap:round;stroke-linejoin:round;stroke-miterlimit:22.926;" d="
				M127.939,324.366c0-20.314,21.018-32.348,32.197-10.559"/>
			
				<path style="fill:none;stroke:#000000;stroke-width:8.504;stroke-linecap:round;stroke-linejoin:round;stroke-miterlimit:22.926;" d="
				M257.598,143.324c-0.375,12.563-13.158,38.523,9.342,35.71"/>
			
				<path style="fill:none;stroke:#000000;stroke-width:8.504;stroke-linecap:round;stroke-linejoin:round;stroke-miterlimit:22.926;" d="
				M268.375,140.84c0.25,1.199-8.562,8.944-8.562,8.944l11.625,11.438"/>
			
				<path style="fill:none;stroke:#000000;stroke-width:8.504;stroke-linecap:round;stroke-linejoin:round;stroke-miterlimit:22.926;" d="
				M266.939,179.034c2.812-6.375,4.314-15,4.5-17.812"/>
			
				<path style="fill:none;stroke:#000000;stroke-width:8.504;stroke-linecap:round;stroke-linejoin:round;stroke-miterlimit:22.926;" d="
				M122.683,150.596c0,0-0.867,31.812-0.305,33.5"/>
			
				<path style="fill:none;stroke:#000000;stroke-width:8.504;stroke-linecap:round;stroke-linejoin:round;stroke-miterlimit:22.926;" d="
				M137.752,182.409c-0.562,3.188-11.998,9.75-15.373,1.687"/>
			
				<line style="fill:none;stroke:#000000;stroke-width:8.504;stroke-linecap:round;stroke-linejoin:round;stroke-miterlimit:22.926;" x1="124.627" y1="157.096" x2="137.567" y2="167.784"/>
			
				<path style="fill:none;stroke:#000000;stroke-width:8.504;stroke-linecap:round;stroke-linejoin:round;stroke-miterlimit:22.926;" d="
				M137.752,182.409c0,0,0.94-11.062-0.185-14.625"/>
			
				<line style="fill:none;stroke:#000000;stroke-width:8.504;stroke-linecap:round;stroke-linejoin:round;stroke-miterlimit:22.926;" x1="124.627" y1="157.096" x2="130.264" y2="146.17"/>
			
				<path style="fill:none;stroke:#000000;stroke-width:8.504;stroke-linecap:round;stroke-linejoin:round;stroke-miterlimit:22.926;" d="
				M164.658,195.814c2.531,1.875-8.625,19.689-11.625,17.532"/>
			
				<path style="fill:none;stroke:#000000;stroke-width:8.504;stroke-linecap:round;stroke-linejoin:round;stroke-miterlimit:22.926;" d="
				M164.658,195.814c-3.469-2.436-15.656,14.532-11.625,17.532"/>
			
				<path style="fill:none;stroke:#000000;stroke-width:8.504;stroke-linecap:round;stroke-linejoin:round;stroke-miterlimit:22.926;" d="
				M232.346,194.127c-3.095,1.219,5.437,23.625,9.655,21.562"/>
			
				<path style="fill:none;stroke:#000000;stroke-width:8.504;stroke-linecap:round;stroke-linejoin:round;stroke-miterlimit:22.926;" d="
				M232.346,194.127c2.53-1.5,13.219,19.875,9.655,21.562"/>
			
				<path style="fill:none;stroke:#000000;stroke-width:8.504;stroke-linecap:round;stroke-linejoin:round;stroke-miterlimit:22.926;" d="
				M50.473,20.691c1.125-15.75,12.055-25.004,21.43-6.254"/>
			
				<path style="fill:none;stroke:#000000;stroke-width:8.504;stroke-linecap:round;stroke-linejoin:round;stroke-miterlimit:22.926;" d="
				M318.223,17.691c-6.75-20.625-18.035-6.717-27.375,3.75"/>
			
				<path style="fill:none;stroke:#000000;stroke-width:8.504;stroke-linecap:round;stroke-linejoin:round;stroke-miterlimit:22.926;" d="
				M199.711,405.096c0,0,7.823,48.29-6.363,60.29c-14.187,12-28.779,4.146-36.671,12.334"/>
		</g>
		
			<path style="fill:none;stroke:#000000;stroke-width:8.504;stroke-linecap:round;stroke-linejoin:round;stroke-miterlimit:22.926;" d="
			M190.228,467.785c0,0,37.18-3.775,58.723,5.08"/>
		
			<path style="fill:none;stroke:#000000;stroke-width:8.504;stroke-linecap:round;stroke-linejoin:round;stroke-miterlimit:22.926;" d="
			M229.341,443.909c-0.227,2,7.384,20.479,22.602,31.812c15.218,11.333,33.093,11.333,33.093,11.333"/>
		<g>
			
				<path style="fill:none;stroke:#000000;stroke-width:8.504;stroke-linecap:round;stroke-linejoin:round;stroke-miterlimit:22.926;" d="
				M153.5,16.567c1.446-0.774,27.441-14.067,55.125-7.875"/>
			
				<path style="fill:none;stroke:#000000;stroke-width:8.504;stroke-linecap:round;stroke-linejoin:round;stroke-miterlimit:22.926;" d="
				M4.252,157.284c0,0,3,24,20.25,51.375"/>
			
				<path style="fill:none;stroke:#000000;stroke-width:8.504;stroke-linecap:round;stroke-linejoin:round;stroke-miterlimit:22.926;" d="
				M359.596,205.075c0,0,13.534-12.119,20.375-47.395"/>
		</g>
		
			<path style="fill:none;stroke:#000000;stroke-width:8.504;stroke-linecap:round;stroke-linejoin:round;stroke-miterlimit:22.926;" d="
			M17.848,127.94c0,0,4.967,38.531,28.029,79.594"/>
		
			<path style="fill:none;stroke:#000000;stroke-width:8.504;stroke-linecap:round;stroke-linejoin:round;stroke-miterlimit:22.926;" d="
			M334.627,214.847c11.909-14.342,29.064-43.875,35.721-86.157"/>
	</g>
</g>
<g id="n0102">
	<g>
		<path style="fill-rule:evenodd;clip-rule:evenodd;fill:#FFFFFF;" d="M180.614,454.958l7.936,4.104l9.963,2.156l12.545-0.002
			l10.898-2.51l7.865-3.537l2.563-6.266l8.246,3.375l11.801,4.092l11.48,5.305l9.468,7.264l6.149,8.891l3.823,5.301l-11.127,8.217
			l-14.707,7.428l-18.78,5.76l-19.205,2.699l-21.776,0.008l-22.44-2.779l-18.759-4.176l-15.976-4.73l-10.416-4.818l6.767-9.814
			l10.562-10.139l11.972-8.623c0,0,10.269-5.547,11.129-5.98c0.856-0.436,7.412-3.924,7.412-3.924L180.614,454.958z"/>
		<polygon style="fill-rule:evenodd;clip-rule:evenodd;fill:#F8D63F;" points="186.764,361.611 187.139,376.906 187.091,390.216 
			186.562,421.064 185.387,437.349 183.267,451.937 180.714,459.326 188.552,463.607 201.505,466.035 217.807,464.496 
			230.777,459.126 228.007,443.818 226.626,430.55 226.068,416.347 226.139,385.539 226.764,366.111 		"/>
		
			<path style="fill:none;stroke:#000000;stroke-width:8.504;stroke-linecap:round;stroke-linejoin:round;stroke-miterlimit:22.926;" d="
			M227.03,367.406c0,0-4.127,53.049,3.748,87.174"/>
		
			<path style="fill:none;stroke:#000000;stroke-width:8.504;stroke-linecap:round;stroke-linejoin:round;stroke-miterlimit:22.926;" d="
			M187.003,363.501c0,0,1.775,79.453-6.85,92.203"/>
		
			<path style="fill:none;stroke:#000000;stroke-width:8.504;stroke-linecap:round;stroke-linejoin:round;stroke-miterlimit:22.926;" d="
			M228.364,457.142c0,0-19.336,16.559-47.836,2.684"/>
		
			<path style="fill:none;stroke:#000000;stroke-width:8.504;stroke-linecap:round;stroke-linejoin:round;stroke-miterlimit:22.926;" d="
			M188.759,476.632c3.964,0.594,17.358,4.338,36-1.125"/>
		
			<path style="fill:none;stroke:#000000;stroke-width:8.504;stroke-linecap:round;stroke-linejoin:round;stroke-miterlimit:22.926;" d="
			M228.809,444.593c1.969,9.986,42.92,13.785,54.543,38.537"/>
		
			<path style="fill:none;stroke:#000000;stroke-width:8.504;stroke-linecap:round;stroke-linejoin:round;stroke-miterlimit:22.926;" d="
			M183.267,447.392c-3.112,8.312-35.737,12.438-53.737,44.312"/>
		
			<path style="fill:none;stroke:#000000;stroke-width:8.504;stroke-linecap:round;stroke-linejoin:round;stroke-miterlimit:22.926;" d="
			M283.352,483.13c0,0-37.949,51.324-153.823,8.574"/>
	</g>
</g>
<g id="n0103">
	<g>
		<polygon style="fill-rule:evenodd;clip-rule:evenodd;fill:#E085AD;" points="190.287,327.798 190.963,316.285 193.272,305.109 
			197.258,295.398 205.517,294.296 214.852,288.707 218.977,292.457 221.313,300.583 218.436,307.203 213.918,310.378 
			215.344,318.533 215.558,327.259 208.037,327.431 197.739,332.634 		"/>
		
			<path style="fill:none;stroke:#000000;stroke-width:8.504;stroke-linecap:round;stroke-linejoin:round;stroke-miterlimit:22.926;" d="
			M203.978,313.269c0,0,24.937-2.625,15-20.812c0,0-2.833-3.951-11.333-3.119c-8.5,0.834-13.333,13.334-13.333,13.334"/>
		
			<path style="fill:none;stroke:#000000;stroke-width:8.504;stroke-linecap:round;stroke-linejoin:round;stroke-miterlimit:22.926;" d="
			M214.992,309.806c0,0,1.08,13.631,0.565,17.453"/>
		
			<path style="fill:none;stroke:#000000;stroke-width:8.504;stroke-linecap:round;stroke-linejoin:round;stroke-miterlimit:22.926;" d="
			M190.287,327.798c0,0-1.134-16.312,6.526-30.127"/>
	</g>
</g>
<g id="n0104">
	<g>
		<g style="display:none;">
			<polygon style="display:inline;fill-rule:evenodd;clip-rule:evenodd;fill:#FFFFFF;" points="139.137,255.95 138.593,266.17 
				139.382,273.612 144.538,281.911 152.001,282.973 156.57,281.174 166.421,286.565 175.915,286.26 180.501,284.473 
				184.607,289.104 191.746,292.743 201.726,291.938 211.064,286.348 219.656,290.098 230.264,291.696 239.796,287.692 
				243.122,283.569 251.132,283.92 257.466,280.335 260.581,271.904 260.493,263.588 259.407,256.716 246.445,259.105 
				234.63,261.588 213.407,264.415 196.064,264.449 178.318,261.182 160.55,255.807 147.762,254.938 			"/>
			
				<path style="display:inline;fill:none;stroke:#000000;stroke-width:8.504;stroke-linecap:round;stroke-linejoin:round;stroke-miterlimit:22.926;" d="
				M154.439,278.849c0,0,9.938,13.689,26.062,5.625"/>
			
				<path style="display:inline;fill:none;stroke:#000000;stroke-width:8.504;stroke-linecap:round;stroke-linejoin:round;stroke-miterlimit:22.926;" d="
				M152.592,254.955c0,0-4.715,16.957,1.848,23.894"/>
			
				<path style="display:inline;fill:none;stroke:#000000;stroke-width:8.504;stroke-linecap:round;stroke-linejoin:round;stroke-miterlimit:22.926;" d="
				M180.502,284.474c0,0,10.688,18.187,30.561,1.876"/>
			
				<path style="display:inline;fill:none;stroke:#000000;stroke-width:8.504;stroke-linecap:round;stroke-linejoin:round;stroke-miterlimit:22.926;" d="
				M247.627,265.537c0,0,0.561,40.501-36.564,20.812"/>
			
				<path style="display:inline;fill:none;stroke:#000000;stroke-width:8.504;stroke-linecap:round;stroke-linejoin:round;stroke-miterlimit:22.926;" d="
				M243.123,283.569c3.788,0.704,22.819,5.115,16.284-26.854"/>
			
				<path style="display:inline;fill:none;stroke:#000000;stroke-width:8.504;stroke-linecap:round;stroke-linejoin:round;stroke-miterlimit:22.926;" d="
				M139.137,255.95c-0.387,5.635-3.822,29.648,12.865,27.023"/>
		</g>
		<g>
			<path style="fill-rule:evenodd;clip-rule:evenodd;fill:#FFFFFF;" d="M137.484,334.905l4.017-6.742l4.176-8.955l5.235-4.652
				l9.224-0.496l6.678,3.414l3.889,5.873l6.039-1.111l8.715,2.533l7.232,6.58l6.369-4.41l8.949-1.949l8.735,1.398
				c0,0,9.472,6.916,8.597,6.053c-0.873-0.865,6.866-6.779,6.866-6.779l7.738-2.26l2.836-6.322l6.228-2.184l-1.006-5.857
				l9.079-6.287l6.742,0.637l8.301,7.803l3.867,7.004l7.67,8.611l-6.149,8.916l-12.127,7.055l-21.045,7.453l-19.298,2.934
				l-24.395,0.195l-23.389-3.113l-18.732-5.176L146.462,340L137.484,334.905z"/>
			<polygon style="fill-rule:evenodd;clip-rule:evenodd;fill:#81CECE;" points="124.105,323.344 130.251,318.225 132.58,310.6 
				138.865,304.215 146.744,302.46 153.929,305.776 159.152,313.786 150.912,314.557 145.677,319.207 141.501,328.163 
				137.188,334.71 130.107,329.379 			"/>
			
				<path style="fill:none;stroke:#000000;stroke-width:8.504;stroke-linecap:round;stroke-linejoin:round;stroke-miterlimit:22.926;" d="
				M177.223,176.38c2.625-7.311,26.625-18.75,37.875,2.439"/>
			
				<path style="fill:none;stroke:#000000;stroke-width:8.504;stroke-linecap:round;stroke-linejoin:round;stroke-miterlimit:22.926;" d="
				M253.723,200.567c-2.345-4.875-8.25-27.748-38.625-21.75"/>
			
				<path style="fill:none;stroke:#000000;stroke-width:8.504;stroke-linecap:round;stroke-linejoin:round;stroke-miterlimit:22.926;" d="
				M241.16,238.442c0,0,23.812-3.188,12.562-37.875"/>
			
				<path style="fill:none;stroke:#000000;stroke-width:8.504;stroke-linecap:round;stroke-linejoin:round;stroke-miterlimit:22.926;" d="
				M193.348,181.817c0,0-24.75-13.686-40.688,5.437c-15.937,19.125-19.687,43.127,10.5,52.502"/>
			<g>
				<path style="fill:#F8D63F;" d="M316.263,266.473l-8.951-12.303l-14.979-11.128l-10.637-4.973l-16.502-4.996l-11.828-2.82
					l2.821-7.184l0.433-8.886l-0.551-10.227l-6.259-11.86l-8.905-9.777l-13.107-4.364l-12.7,0.862l-6.768-8.229l-12.801-3.568
					l-11.424,2.833l-8.418,7.242l-14.59,1.679l-11.543,12.489l-7.164,13.418l-1.597,13.958l5.205,11.048l-14.196,5.839
					l-16.316,7.212l-11.617,9.657l-8.895,12.295l-4.412,15.414l0.793,18.24l3.391,14.895l10.851,18.322l8.723,9.461l14.047,11.033
					l14.666,8.68l21.229,8.977l18.685,5.34l40.026,3.906l17.562-1.496l15.955-3.566l17.293-7.066l16.305-11.217l12.968-14.314
					l11.459-21.029l7.418-18.396l0.392-19.775L316.263,266.473z M283.783,333.683c-12.302,15.202-39.278,24.277-72.164,24.277
					c-0.002,0-0.004,0-0.006,0c-23.087-0.001-45.674-4.449-63.602-12.527c-20.807-9.375-33.606-22.855-37.013-38.985
					c-3.909-18.508-1.903-32.811,5.963-42.513c8.905-10.982,22.858-13.288,32.996-13.288c8.129,0,14.074,1.458,16.252,2.085
					c2.033,0.585,4.062,1.29,6.211,2.037c7.351,2.555,16.499,5.733,31.76,5.733c12.891,0,27.963-2.187,46.079-6.686
					c20.474-4.784,37.699,2.757,45.497,19.099C304.267,290.754,299.68,314.039,283.783,333.683z"/>
			</g>
			
				<path style="fill:none;stroke:#000000;stroke-width:8.504;stroke-linecap:round;stroke-linejoin:round;stroke-miterlimit:22.926;" d="
				M148.406,232.074c0,0-64.887,4.63-57.81,65.058c5.25,44.81,59.519,76.693,114.728,81.273
				c46.303,3.842,99.421-8.525,111.668-64.873c16.604-76.403-46.393-80.951-64.207-82.426"/>
			
				<path style="fill:none;stroke:#000000;stroke-width:8.504;stroke-linecap:round;stroke-linejoin:round;stroke-miterlimit:22.926;" d="
				M160.252,330.6c0,0,16.312-19.312,32.437,0.75"/>
			
				<path style="fill:none;stroke:#000000;stroke-width:8.504;stroke-linecap:round;stroke-linejoin:round;stroke-miterlimit:22.926;" d="
				M225.314,332.475c-3.52-4.051-17.25-14.814-32.625-1.125"/>
			
				<path style="fill:none;stroke:#000000;stroke-width:8.504;stroke-linecap:round;stroke-linejoin:round;stroke-miterlimit:22.926;" d="
				M255.689,330.975c0,0-16.688-18-30.375,1.5"/>
			
				<path style="fill:none;stroke:#000000;stroke-width:8.504;stroke-linecap:round;stroke-linejoin:round;stroke-miterlimit:22.926;" d="
				M268.91,326.792c0,0-13.688-24.332-27.375-6.939"/>
			
				<path style="fill:none;stroke:#000000;stroke-width:8.504;stroke-linecap:round;stroke-linejoin:round;stroke-miterlimit:22.926;" d="
				M251.943,312.03c0,0,16.967-19.287,30.647,9.316"/>
			
				<path style="fill:none;stroke:#000000;stroke-width:8.504;stroke-linecap:round;stroke-linejoin:round;stroke-miterlimit:22.926;" d="
				M141.629,330.596c0,0,10.373-27.846,30.096-11.145"/>
			
				<path style="fill:none;stroke:#000000;stroke-width:8.504;stroke-linecap:round;stroke-linejoin:round;stroke-miterlimit:22.926;" d="
				M127.939,324.618c0-20.315,21.018-32.348,32.197-10.559"/>
			
				<path style="fill:none;stroke:#000000;stroke-width:8.504;stroke-linecap:round;stroke-linejoin:round;stroke-miterlimit:22.926;" d="
				M164.658,196.066c2.531,1.875-8.625,19.688-11.625,17.532"/>
			
				<path style="fill:none;stroke:#000000;stroke-width:8.504;stroke-linecap:round;stroke-linejoin:round;stroke-miterlimit:22.926;" d="
				M164.658,196.066c-3.469-2.437-15.656,14.532-11.625,17.532"/>
			
				<path style="fill:none;stroke:#000000;stroke-width:8.504;stroke-linecap:round;stroke-linejoin:round;stroke-miterlimit:22.926;" d="
				M232.346,194.379c-3.095,1.219,5.437,23.625,9.655,21.562"/>
			
				<path style="fill:none;stroke:#000000;stroke-width:8.504;stroke-linecap:round;stroke-linejoin:round;stroke-miterlimit:22.926;" d="
				M232.346,194.379c2.53-1.5,13.219,19.875,9.655,21.562"/>
			<g>
				<g>
					
						<path style="fill:none;stroke:#000000;stroke-width:8.504;stroke-linecap:round;stroke-linejoin:round;stroke-miterlimit:22.926;" d="
						M177.223,176.38c2.625-7.311,26.625-18.75,37.875,2.439"/>
					
						<path style="fill:none;stroke:#000000;stroke-width:8.504;stroke-linecap:round;stroke-linejoin:round;stroke-miterlimit:22.926;" d="
						M253.723,200.567c-2.345-4.875-8.25-27.748-38.625-21.75"/>
					
						<path style="fill:none;stroke:#000000;stroke-width:8.504;stroke-linecap:round;stroke-linejoin:round;stroke-miterlimit:22.926;" d="
						M241.16,238.442c0,0,23.812-3.188,12.562-37.875"/>
					
						<path style="fill:none;stroke:#000000;stroke-width:8.504;stroke-linecap:round;stroke-linejoin:round;stroke-miterlimit:22.926;" d="
						M193.348,181.817c0,0-24.75-13.686-40.688,5.437c-15.937,19.125-19.687,43.127,10.5,52.502"/>
				</g>
				
					<path style="fill:none;stroke:#000000;stroke-width:8.504;stroke-linecap:round;stroke-linejoin:round;stroke-miterlimit:22.926;" d="
					M251.283,257.943c-55.873,13.875-72.215,2.914-86.25-1.125c-14.033-4.039-61.639-6.944-49.875,48.751
					c11.252,53.266,134.764,63.201,165.319,25.439C311.035,293.249,292.467,248.326,251.283,257.943"/>
			</g>
		</g>
	</g>
</g>
</svg>
