<svg version="1.1" xmlns="http://www.w3.org/2000/svg" xmlns:xlink="http://www.w3.org/1999/xlink" x="0px" y="0px"
	 viewBox="0 0 373.578 409.735" style="enable-background:new 0 0 373.578 409.735;" xml:space="preserve">
<g id="n0201">
	<g>
		<polygon style="fill-rule:evenodd;clip-rule:evenodd;fill:#F8D63F;" points="148.96,283.696 164.515,286.863 186.074,289.704 
			208.594,290.082 227.401,288.461 228.49,325.249 229.937,338.356 232.806,356.448 217.621,362.158 194.115,364.574 
			172.826,361.776 156.296,355.995 149.84,351.907 150.181,332.506 149.318,319.164 148.96,283.696 		"/>
		<polygon style="fill-rule:evenodd;clip-rule:evenodd;fill:#49B37E;" points="79.618,375.77 91.819,368.536 111.413,359.427 
			134.858,350.321 138.302,341.64 150.128,335.454 152.44,348.985 150.374,352.246 161.381,357.773 175.542,362.385 
			191.137,364.451 207.809,363.954 222.88,360.637 233.945,355.836 231.001,350.349 230.177,340.683 239.132,341.449 
			246.487,345.29 252.749,354.863 268.18,356.828 283.904,359.004 302.048,362.861 296.299,368.821 284.415,377.423 
			266.868,387.662 245.676,396.643 221.733,402.994 197.704,405.867 175.536,405.764 152.998,403.182 130.318,398.19 
			109.209,391.382 93.094,384.657 79.618,375.77 		"/>
		
			<path style="fill:none;stroke:#000000;stroke-width:8.5039;stroke-linecap:round;stroke-linejoin:round;stroke-miterlimit:22.9256;" d="
			M148.96,283.696c0,0,0.301,50.851,3.48,65.289"/>
		
			<path style="fill:none;stroke:#000000;stroke-width:8.5039;stroke-linecap:round;stroke-linejoin:round;stroke-miterlimit:22.9256;" d="
			M227.072,289.086c0,0,3.745,55.264,3.93,61.264"/>
		
			<path style="fill:none;stroke:#000000;stroke-width:8.5039;stroke-linecap:round;stroke-linejoin:round;stroke-miterlimit:22.9256;" d="
			M147.19,348.607c4.118,10.315,55.482,27.224,89.996,5.309"/>
		
			<path style="fill:none;stroke:#000000;stroke-width:8.5039;stroke-linecap:round;stroke-linejoin:round;stroke-miterlimit:22.9256;" d="
			M135.373,355.537c0,0-3.929-12.753,9.387-18.368"/>
		
			<path style="fill:none;stroke:#000000;stroke-width:8.5039;stroke-linecap:round;stroke-linejoin:round;stroke-miterlimit:22.9256;" d="
			M230.177,340.683c0,0,16.956-2.512,22.571,14.18"/>
		
			<path style="fill:none;stroke:#000000;stroke-width:8.5039;stroke-linecap:round;stroke-linejoin:round;stroke-miterlimit:22.9256;" d="
			M78.171,376.875c0,0,11.909-10.423,56.687-26.554"/>
		
			<path style="fill:none;stroke:#000000;stroke-width:8.5039;stroke-linecap:round;stroke-linejoin:round;stroke-miterlimit:22.9256;" d="
			M247.873,356.172c0,0,20.439-1.862,55.309,6.973"/>
		
			<path style="fill:none;stroke:#000000;stroke-width:8.5039;stroke-linecap:round;stroke-linejoin:round;stroke-miterlimit:22.9256;" d="
			M78.171,376.875c30.559,18.186,137.21,62.152,225.01-13.73"/>
	</g>
</g>
<g id="n0202">
	<g>
		
			<path style="fill:none;stroke:#000000;stroke-width:8.5039;stroke-linecap:round;stroke-linejoin:round;stroke-miterlimit:22.9256;" d="
			M222.257,13.414c0,0,18.94-3.738,34.305,11.273"/>
		
			<path style="fill:none;stroke:#000000;stroke-width:8.5039;stroke-linecap:round;stroke-linejoin:round;stroke-miterlimit:22.9256;" d="
			M105.752,21.084c0,0,10.325-19.68,29.823-16.481"/>
		<g>
			<polygon style="fill-rule:evenodd;clip-rule:evenodd;fill:#F8D63F;" points="40.943,37.19 45.611,43.299 52.771,55.492 
				59.386,68.676 63.172,79.35 63.965,88.035 58.915,98.273 59.439,106.975 66.608,114.653 62.245,126.186 53.31,125.424 
				40.984,115.78 33.611,101.261 29.596,85.707 28.383,67.29 30.216,55.185 34.729,44.303 40.943,37.19 			"/>
			<polygon style="fill-rule:evenodd;clip-rule:evenodd;fill:#E085AD;" points="40.943,37.19 50.948,33.448 60.059,36.234 
				68.121,43.342 75.07,50.264 83.85,59.824 80.309,70.008 83.651,74.694 83.369,80.354 78.827,87.687 74.544,95.702 
				70.511,104.563 66.608,114.653 62.441,112.498 58.419,104.021 60.361,95.344 63.965,88.035 63.172,79.35 57.953,65.528 
				51.086,52.498 45.611,43.299 40.943,37.19 			"/>
			<polygon style="fill-rule:evenodd;clip-rule:evenodd;fill:#68569D;" points="41.315,173.637 53.017,150.12 58.571,138.06 
				63.806,122.791 70.511,104.563 77.448,90.135 83.369,80.354 92.975,73.384 109.956,62.888 127.643,57.812 144.133,58.195 
				159.977,63.999 169.825,71.999 176.604,83.883 177.607,94.679 174.436,105.021 167.878,114.198 160.967,120.43 167.903,125.502 
				161.917,131.347 158.46,137.786 156.865,161.573 146.393,157.573 129.219,153.989 114.825,153.577 98.644,155.631 
				80.898,160.583 66.594,166.332 57.374,170.733 40.519,181.847 			"/>
			<polygon style="fill-rule:evenodd;clip-rule:evenodd;" points="110.685,117.29 119.571,117.94 127.204,119.954 128.441,109.915 
				122.869,103.241 116.449,97.345 123.949,91.956 129.955,87.978 129.13,80.099 123.492,76.384 116.963,79.105 114.703,86.003 
				111.003,110.654 110.685,117.29 			"/>
			<polyline style="fill-rule:evenodd;clip-rule:evenodd;fill:#FFFFFF;" points="83.309,71.331 84.207,79.746 92.975,73.384 
				106.66,64.724 122.698,56.826 136.858,57.395 154.391,61.216 165.554,67.89 173.585,77.104 177.105,89.281 176.022,99.851 
				171.156,109.609 161.859,119.626 167.747,125.656 175.799,121.095 183.804,119.929 192.249,122.3 198.24,119.13 191.799,107.941 
				191.018,95.737 195.726,82.805 203.336,73.181 215.058,65.299 231.482,61.991 243.559,63.525 256.796,68.516 259.207,66.209 
				245.131,53.233 233.528,43.055 225.877,30.925 208.73,19.168 193.11,14.076 173.376,13.092 154.448,18.024 135.65,22.372 
				118.667,29.695 104.517,38.881 92.906,49.612 86.546,59.603 			"/>
			<polygon style="fill-rule:evenodd;clip-rule:evenodd;fill:#F8D63F;" points="239.331,48.145 255.588,44.219 270.464,51.778 
				279.088,66.3 283.035,76.949 283.052,86.108 277.386,89.648 269.713,78.444 259.207,66.209 249.109,56.898 239.331,48.145 			"/>
			<path style="fill-rule:evenodd;clip-rule:evenodd;fill:#49B37E;" d="M271.99,59.346l9.391-6.338c0,0,12.354-7.804,13.559-8.58
				c1.201-0.776,15.322-10.189,15.322-10.189l12.955-5.472l10.277,3.63l4.158,7.108l1.99,15.381l-1.526,19.921l-2.631,15.047
				l-5.078,15.365l-8.187,13.217l-10.717,9.3l-14.884,5.733l-5.129-15.279l-5.74-13.323l-8.364-15.219l5.666-3.54l-0.018-9.159
				l-3.33-8.986L271.99,59.346L271.99,59.346z"/>
			<polygon style="fill-rule:evenodd;clip-rule:evenodd;fill:#FFFFFF;" points="200.999,128.925 205.66,124.849 220.336,130.712 
				235.948,133.453 248.492,133.932 250.977,141.342 232.61,143.743 220.042,146.549 206.957,150.363 204.079,144.987 
				207.006,139.011 204.666,133.071 200.999,128.925 			"/>
			<polygon style="fill-rule:evenodd;clip-rule:evenodd;fill:#49B37E;" points="250.566,160.438 250.596,133.853 237.263,133.572 
				220.336,130.712 205.66,124.849 194.721,114.551 190.821,102.997 192.445,89.976 197.105,80.571 206.009,70.828 219.94,63.545 
				235.357,62.161 249.469,65.319 261.191,68.898 268.46,76.882 276.917,88.903 285.75,104.867 291.491,118.19 296.218,132.27 
				300.415,146.336 286.529,162.21 270.961,160.311 253.962,156.887 			"/>
			<path style="fill-rule:evenodd;clip-rule:evenodd;" d="M238.128,116.48l-3.565-10.907l-2.77-11.849l-0.596-9.941l7.244-4.714
				l7.753,2.852l2.824,4.447l-4.17,4.537l-5.69,5.373l1.117,3.473l7.538,3.756l4.566,4.238c0,0,0.062,8.33,1.016,8.469
				c0.953,0.138-6.536-0.449-6.536-0.449L238.128,116.48L238.128,116.48z"/>
			<polygon style="fill-rule:evenodd;clip-rule:evenodd;fill:#E085AD;" points="113.356,152.199 124.73,151.278 126.321,158.925 
				132.092,161.847 138.493,169.09 143.604,171.118 147.94,167.031 153.229,171.109 161.585,172.655 165.851,178.767 
				175.184,180.399 184.29,173.581 191.365,176.962 200.968,182.989 208.15,179.082 211.201,185.21 203.945,190.71 179.65,229.987 
				176.759,241.044 178.554,253.871 177.769,262.949 163.828,280.722 158.822,282.813 152.547,272.832 138.908,282.267 
				133.13,283.283 125.206,277.51 122.202,268.954 115.487,266.047 104.854,269.27 93.484,256.279 86.962,260.851 81.447,266.744 
				75.285,259.724 52.197,237.549 49.721,217.913 47.945,205.646 49.606,192.974 55.533,182.156 65.307,174.516 76.544,170.512 
				110.685,151.265 			"/>
			<polygon style="fill-rule:evenodd;clip-rule:evenodd;fill:#F8D63F;" points="271.842,155.824 281.98,160.182 308.924,185.434 
				314.605,192.84 318.921,205.105 318.71,218.235 314.918,230.169 309.792,239.08 283.77,280.896 278.096,271.152 270.102,262.41 
				259.188,259.601 250.86,265.003 248.104,268.753 237.014,274.35 228.352,274.933 220.892,279.708 213,289.73 206.477,284.436 
				177.607,266.139 175.957,249.062 176.658,234.73 179.155,228.73 209.105,180.999 211.706,185.672 220.872,182.808 
				224.609,181.016 233.717,175.093 244.082,176.489 253.424,176.226 262.766,173.145 266.354,176.218 270.151,165.202 
				271.842,155.824 			"/>
			
				<path style="fill:none;stroke:#000000;stroke-width:8.5039;stroke-linecap:round;stroke-linejoin:round;stroke-miterlimit:22.9256;" d="
				M83.309,71.331c2.416-48.45,119.031-91.601,154.3-24.533"/>
			
				<path style="fill:none;stroke:#000000;stroke-width:8.5039;stroke-linecap:round;stroke-linejoin:round;stroke-miterlimit:22.9256;" d="
				M83.85,59.824c0.998,0.597-21.546-23.827-26.983-25.517"/>
			
				<path style="fill:none;stroke:#000000;stroke-width:8.5039;stroke-linecap:round;stroke-linejoin:round;stroke-miterlimit:22.9256;" d="
				M62.245,126.186c0,0-21.379,5.611-31.103-33.208c-9.725-38.819,6.979-64.683,25.725-58.671"/>
			
				<path style="fill:none;stroke:#000000;stroke-width:8.5039;stroke-linecap:round;stroke-linejoin:round;stroke-miterlimit:22.9256;" d="
				M161.729,33.607c0,0,36.071,22.49,53.613,2.674"/>
			
				<path style="fill:none;stroke:#000000;stroke-width:8.5039;stroke-linecap:round;stroke-linejoin:round;stroke-miterlimit:22.9256;" d="
				M286.165,95.382c0,0-6.513-69.544-48.557-48.583"/>
			
				<path style="fill:none;stroke:#000000;stroke-width:8.5039;stroke-linecap:round;stroke-linejoin:round;stroke-miterlimit:22.9256;" d="
				M83.369,80.354c53.463-40.652,75.955-27.325,103.139-21.87c27.184,5.454,36.567-7.853,38.443-8.976"/>
			
				<path style="fill:none;stroke:#000000;stroke-width:8.5039;stroke-linecap:round;stroke-linejoin:round;stroke-miterlimit:22.9256;" d="
				M295.223,110.866c19.137-17.238-12.849-36.98,24.604-64.859"/>
			
				<path style="fill:none;stroke:#000000;stroke-width:8.5039;stroke-linecap:round;stroke-linejoin:round;stroke-miterlimit:22.9256;" d="
				M278.199,54.98c0,0,21.007-12.924,33.202-21.542c12.193-8.617,30.006-8.23,28.108,25.331
				c-1.898,33.562-8.668,63.182-37.737,73.664"/>
			
				<path style="fill:none;stroke:#000000;stroke-width:8.5039;stroke-linecap:round;stroke-linejoin:round;stroke-miterlimit:22.9256;" d="
				M224.951,49.508c20.044-2.731,57.342,25.439,74.002,92.673"/>
			
				<path style="fill:none;stroke:#000000;stroke-width:8.5039;stroke-linecap:round;stroke-linejoin:round;stroke-miterlimit:22.9256;" d="
				M256.96,133.154c-11.249,2.243-50.626,0.905-62.238-18.602c-11.61-19.507,5.463-38.059,5.463-38.059"/>
			
				<path style="fill:none;stroke:#000000;stroke-width:8.5039;stroke-linecap:round;stroke-linejoin:round;stroke-miterlimit:22.9256;" d="
				M270.034,78.94c-5.674-9.519-44.706-31.495-69.85-2.448"/>
			
				<path style="fill:none;stroke:#000000;stroke-width:8.5039;stroke-linecap:round;stroke-linejoin:round;stroke-miterlimit:22.9256;" d="
				M83.369,80.354c-24.023,36.172-26.502,74.664-38.105,89.997"/>
			
				<path style="fill:none;stroke:#000000;stroke-width:8.5039;stroke-linecap:round;stroke-linejoin:round;stroke-miterlimit:22.9256;" d="
				M105.792,65.225c48.206-27.157,100.199,21.958,54.05,56.054"/>
			
				<path style="fill:none;stroke:#000000;stroke-width:8.5039;stroke-linecap:round;stroke-linejoin:round;stroke-miterlimit:22.9256;" d="
				M227.718,119.448c0,0,17.817-8.426,38.249,0.212"/>
			
				<path style="fill:none;stroke:#000000;stroke-width:8.5039;stroke-linecap:round;stroke-linejoin:round;stroke-miterlimit:22.9256;" d="
				M93.28,120.674c0,0,21.006-9.174,41.061,2.651"/>
			
				<path style="fill:none;stroke:#000000;stroke-width:8.5039;stroke-linecap:round;stroke-linejoin:round;stroke-miterlimit:22.9256;" d="
				M170.79,298.475c0,0,23.06,3.015,36.938,0.586"/>
			
				<path style="fill:none;stroke:#000000;stroke-width:8.5039;stroke-linecap:round;stroke-linejoin:round;stroke-miterlimit:22.9256;" d="
				M45.611,43.299c39.896,64.713,0.16,42.75,16.831,69.199"/>
			
				<path style="fill:none;stroke:#000000;stroke-width:8.5039;stroke-linecap:round;stroke-linejoin:round;stroke-miterlimit:22.9256;" d="
				M231.019,84.856c0.194-6,13.509-9.929,18,1.512"/>
			
				<path style="fill:none;stroke:#000000;stroke-width:8.5039;stroke-linecap:round;stroke-linejoin:round;stroke-miterlimit:22.9256;" d="
				M236.066,109.609c0,0-4.681-10.316-5.047-24.753"/>
			
				<path style="fill:none;stroke:#000000;stroke-width:8.5039;stroke-linecap:round;stroke-linejoin:round;stroke-miterlimit:22.9256;" d="
				M236.824,98.36c0,0,8.819-7.681,12.195-11.992"/>
			
				<path style="fill:none;stroke:#000000;stroke-width:8.5039;stroke-linecap:round;stroke-linejoin:round;stroke-miterlimit:22.9256;" d="
				M253.396,116.214c0,0,0.294-4.343-1.016-8.469c-1.31-4.126-15.557-9.385-15.557-9.385"/>
			
				<path style="fill:none;stroke:#000000;stroke-width:8.5039;stroke-linecap:round;stroke-linejoin:round;stroke-miterlimit:22.9256;" d="
				M111.003,110.654c0.354-4.607,2.163-19.261,4.706-28.872"/>
			
				<path style="fill:none;stroke:#000000;stroke-width:8.5039;stroke-linecap:round;stroke-linejoin:round;stroke-miterlimit:22.9256;" d="
				M129.955,87.978c3.382-11.059-11.239-16.507-14.246-6.196"/>
			
				<path style="fill:none;stroke:#000000;stroke-width:8.5039;stroke-linecap:round;stroke-linejoin:round;stroke-miterlimit:22.9256;" d="
				M116.449,97.345c0,0,9.379-6.932,13.506-9.367"/>
			
				<path style="fill:none;stroke:#000000;stroke-width:8.5039;stroke-linecap:round;stroke-linejoin:round;stroke-miterlimit:22.9256;" d="
				M128.441,109.915c-2.7-4.437-7.369-8.391-11.992-12.57"/>
			
				<path style="fill:none;stroke:#000000;stroke-width:8.5039;stroke-linecap:round;stroke-linejoin:round;stroke-miterlimit:22.9256;" d="
				M127.204,119.954c0,0,2.546-4.975,1.237-10.039"/>
		</g>
	</g>
</g>
<g id="n0203">
	<g>
		<g>
			<polygon style="fill-rule:evenodd;clip-rule:evenodd;fill:#68569D;" points="172.412,253.884 173.327,243.05 175.362,231.148 
				179.157,218.955 188.462,211.76 202.79,207.922 211.922,209.985 216.026,213.576 211.24,219.943 206.477,222.794 
				205.716,232.651 205.753,243.165 206.283,257.405 196.83,256.573 186.357,262.745 178.488,256.825 172.412,253.884 			"/>
			
				<path style="fill:none;stroke:#000000;stroke-width:8.5039;stroke-linecap:round;stroke-linejoin:round;stroke-miterlimit:22.9256;" d="
				M187.516,229.121c0,0,26.628-5.421,28.51-15.545"/>
			
				<path style="fill:none;stroke:#000000;stroke-width:8.5039;stroke-linecap:round;stroke-linejoin:round;stroke-miterlimit:22.9256;" d="
				M173.066,247.486c1.8-51.622,42.588-39.909,42.96-33.91"/>
		</g>
		
			<path style="fill:none;stroke:#000000;stroke-width:8.5039;stroke-linecap:round;stroke-linejoin:round;stroke-miterlimit:22.9256;" d="
			M206.065,258.949c0,0-1.479-26.511,0.194-34.61"/>
	</g>
</g>
<g id="n0204">
	<g>
		<g>
			<polygon style="fill-rule:evenodd;clip-rule:evenodd;fill:#414141;" points="157.365,128.498 159.939,122.999 166.4,116.18 
				174.357,111.454 182.335,110.123 191.806,112.818 198.571,117.687 204.695,125.78 205.693,131.595 201.779,135.345 
				195.747,135.816 195.548,140.669 185.287,143.939 176.245,143.023 168.99,136.353 162.045,134.769 157.365,128.498 			"/>
			<path style="fill-rule:evenodd;clip-rule:evenodd;fill:#FFFFFF;" d="M365.982,199.586l-7.239-11.617l-7.134-10.382l16.863,3.767
				l-9.016-10.344l-12.33-11.616l-14.072-10.322l-15.459-8.381l-18.129-6.562l-17.062-3.462l-24.173-1.074l-21.159,2.294
				l-17.958,4.106l-13.003,4.082l-4.332-4.73l-4.637,0.605l-6.725,6.354l-9.651,1.177l-9.204-2.251l-2.572-4.877l-6.945-1.584
				l-2.587,1.742l-11.446-4.331l-15.688-3.504l-25.751,0.731l-27.371,7.14l-22.867,10.649l-17.404,9.979L19.74,168.763
				c0,0-14.153,7.256-15.516,7.784c-1.363,0.527,2.935,8.842,2.935,8.842l8.701,6.48l-6.043,11.196l9.215,12.472l15.435,17.579
				l22.88,20.611l23.703,16.421l27.155,14.113l25.914,9.607l27.565,6.562l26.894,2.982l27.184-0.394l31.172-4.892l26.854-8.46
				l24.576-11.818l21.717-14.446l16.385-14.062l14.196-15.04l10.657-13.551l8.303-12.283L365.982,199.586z M293.103,243.068
				c-11.186,11.622-38.463,38.407-107.349,32.493c-68.885-5.916-94.023-20.411-109.332-44.898
				c-15.308-24.486-10.471-45.664,12.107-59.892c22.578-14.227,66.991,3.282,82.194,7.644c15.202,4.36,14.203-9.625,14.203-9.625
				c1.751,6.539-0.02,12.764,25.365,5.6c25.388-7.165,39.312-8.169,73.291,0.827C317.56,184.213,304.29,231.444,293.103,243.068z"/>
			<polygon style="fill-rule:evenodd;clip-rule:evenodd;fill:#81CECE;" points="105.681,166.623 105.92,175.58 108.598,186.196 
				115.18,195.843 123.588,200.051 127.84,195.876 133.211,199.845 141.598,201.219 145.988,207.243 152.496,209.424 
				160.215,205.655 164.316,201.679 171.46,204.914 182.699,204.663 189.8,200.609 199.207,203.152 208.842,203.532 219.66,201.167 
				227.057,197.429 235.211,201.895 243.952,203.669 251.915,200.061 254.73,196.098 261.677,197.865 267.972,193.018 
				270.96,186.144 272.624,178.331 273.761,171.272 258.783,168.342 239.404,169.572 218.915,174.078 203.48,178.437 
				193.154,177.065 184.925,168.79 178.805,176.846 169.839,178.586 155.52,174.053 139.86,169.39 125.923,167.032 114.907,166.36 
				105.681,166.623 			"/>
			<polygon style="fill-rule:evenodd;clip-rule:evenodd;fill:#81CECE;" points="87.084,244.397 94.659,237.264 103.897,230.79 
				117.238,224.827 126.522,225.917 131.085,235.63 137.028,239.27 144.882,240.105 153.098,243.605 158.79,251.275 
				161.095,254.374 169.549,250.267 177.284,250.873 186.016,255.925 189.435,259.364 197.928,253.278 206.706,252.106 
				216.604,257.952 221.525,250.864 228.961,244.325 236.994,242.04 247.113,245.244 255.038,252.256 262.843,263.238 
				252.413,266.862 235.003,271.443 214.586,274.729 193.814,275.921 172.02,274.945 152.234,272.081 133.273,267.458 
				116.236,261.48 100.803,254.044 87.084,244.397 			"/>
			<polygon style="fill-rule:evenodd;clip-rule:evenodd;fill:#FFFFFF;" points="286.164,249.971 278.525,237.547 268.778,229.344 
				259.736,229.263 253.253,234.078 245.904,238.594 240.415,242.296 246.992,246.93 253.001,252.372 261.669,264.78 
				269.812,261.192 279.935,255.017 286.164,249.971 			"/>
			<polygon style="fill-rule:evenodd;clip-rule:evenodd;fill:#FFFFFF;" points="287.025,247.928 279.132,235.665 269.22,227.664 
				260.177,227.769 253.796,232.715 246.542,237.382 241.13,241.197 247.801,245.693 253.919,251.01 262.843,263.238 
				270.909,259.483 280.904,253.103 287.025,247.928 			"/>
			
				<path style="fill:none;stroke:#000000;stroke-width:8.5039;stroke-linecap:round;stroke-linejoin:round;stroke-miterlimit:22.9256;" d="
				M297.917,130.005"/>
			
				<path style="fill:none;stroke:#000000;stroke-width:8.5039;stroke-linecap:round;stroke-linejoin:round;stroke-miterlimit:22.9256;" d="
				M170.417,140.608c0,0,12.153,7.634,25.131,0.062"/>
			
				<path style="fill:none;stroke:#000000;stroke-width:8.5039;stroke-linecap:round;stroke-linejoin:round;stroke-miterlimit:22.9256;" d="
				M165.827,136.198c0,0,7.747,2.847,9.004-9.369"/>
			
				<path style="fill:none;stroke:#000000;stroke-width:8.5039;stroke-linecap:round;stroke-linejoin:round;stroke-miterlimit:22.9256;" d="
				M189.64,126.534c0,0-2.824,8.871,7.502,9.417"/>
			
				<path style="fill:none;stroke:#000000;stroke-width:8.5039;stroke-linecap:round;stroke-linejoin:round;stroke-miterlimit:22.9256;" d="
				M159.939,122.999c0,0,20.04-29.654,44.467,0.99"/>
			
				<path style="fill:none;stroke:#000000;stroke-width:8.5039;stroke-linecap:round;stroke-linejoin:round;stroke-miterlimit:22.9256;" d="
				M165.827,136.198c0,0-14.13-3.283-5.888-13.198"/>
			
				<path style="fill:none;stroke:#000000;stroke-width:8.5039;stroke-linecap:round;stroke-linejoin:round;stroke-miterlimit:22.9256;" d="
				M204.406,123.99c1.519,2.512,4.74,12.096-7.264,11.961"/>
			
				<path style="fill:none;stroke:#000000;stroke-width:8.5039;stroke-linecap:round;stroke-linejoin:round;stroke-miterlimit:22.9256;" d="
				M40.758,155.941"/>
			
				<path style="fill:none;stroke:#000000;stroke-width:8.5039;stroke-linecap:round;stroke-linejoin:round;stroke-miterlimit:22.9256;" d="
				M158.407,111.965"/>
			
				<path style="fill:none;stroke:#000000;stroke-width:8.5039;stroke-linecap:round;stroke-linejoin:round;stroke-miterlimit:22.9256;" d="
				M4.224,176.547c30.531-11.297,89.933-70.242,155.234-40.036"/>
			
				<path style="fill:none;stroke:#000000;stroke-width:8.5039;stroke-linecap:round;stroke-linejoin:round;stroke-miterlimit:22.9256;" d="
				M13.91,192.107c0,0-10.845-7.848-9.686-15.56"/>
			
				<path style="fill:none;stroke:#000000;stroke-width:8.5039;stroke-linecap:round;stroke-linejoin:round;stroke-miterlimit:22.9256;" d="
				M26.01,178.175c0,0-13.731,16.776-16.194,24.891"/>
			
				<path style="fill:none;stroke:#000000;stroke-width:8.5039;stroke-linecap:round;stroke-linejoin:round;stroke-miterlimit:22.9256;" d="
				M369.621,208.468C282.614,346.629,93.928,325.307,9.816,203.066"/>
			
				<path style="fill:none;stroke:#000000;stroke-width:8.5039;stroke-linecap:round;stroke-linejoin:round;stroke-miterlimit:22.9256;" d="
				M204.685,140.539c14.542-4.585,101.018-38.725,164.699,41.962"/>
			
				<path style="fill:none;stroke:#000000;stroke-width:8.5039;stroke-linecap:round;stroke-linejoin:round;stroke-miterlimit:22.9256;" d="
				M349.401,177.272c0,0,14.713,13.584,20.22,31.196"/>
			
				<path style="fill:none;stroke:#000000;stroke-width:8.5039;stroke-linecap:round;stroke-linejoin:round;stroke-miterlimit:22.9256;" d="
				M369.384,182.501c0,0-14.537-4.774-19.983-5.229"/>
			
				<path style="fill:none;stroke:#000000;stroke-width:8.5039;stroke-linecap:round;stroke-linejoin:round;stroke-miterlimit:22.9256;" d="
				M172.994,288.899c0,0,23.117,2.541,36.941-0.174"/>
			
				<path style="fill:none;stroke:#000000;stroke-width:8.5039;stroke-linecap:round;stroke-linejoin:round;stroke-miterlimit:22.9256;" d="
				M184.992,156.82c0,0,2.261,28.837-19.847,20.462"/>
			
				<path style="fill:none;stroke:#000000;stroke-width:8.5039;stroke-linecap:round;stroke-linejoin:round;stroke-miterlimit:22.9256;" d="
				M207.714,177.184c-11.733,4.173-23.568,3.096-22.722-20.364"/>
			
				<path style="fill:none;stroke:#000000;stroke-width:8.5039;stroke-linecap:round;stroke-linejoin:round;stroke-miterlimit:22.9256;" d="
				M165.145,177.282c-11.505-3.334-27.804-11.824-57.04-10.867c-54.87,3.905-43.513,55.63-22.29,76.771
				c21.224,21.143,97.256,48.772,174.268,21.1c52.779-18.965,66.496-84.078,4.312-95.267c-14.932-2.687-34.096,1.645-56.682,8.165"
				/>
			
				<path style="fill:none;stroke:#000000;stroke-width:8.5039;stroke-linecap:round;stroke-linejoin:round;stroke-miterlimit:22.9256;" d="
				M210.062,163.259c0,0,6.678-22.636,22.38-6.259"/>
			
				<path style="fill:none;stroke:#000000;stroke-width:8.5039;stroke-linecap:round;stroke-linejoin:round;stroke-miterlimit:22.9256;" d="
				M254.486,152.624c0,0-15.551-18.069-22.044,4.377"/>
			
				<path style="fill:none;stroke:#000000;stroke-width:8.5039;stroke-linecap:round;stroke-linejoin:round;stroke-miterlimit:22.9256;" d="
				M273.343,148.498c0,0-13.308-18.488-18.857,4.126"/>
			
				<path style="fill:none;stroke:#000000;stroke-width:8.5039;stroke-linecap:round;stroke-linejoin:round;stroke-miterlimit:22.9256;" d="
				M291.173,149.081c0,0-6.721-17.307-17.83-0.583"/>
			
				<path style="fill:none;stroke:#000000;stroke-width:8.5039;stroke-linecap:round;stroke-linejoin:round;stroke-miterlimit:22.9256;" d="
				M311.668,161.237c0,0-5.979-17.696-20.495-12.156"/>
			
				<path style="fill:none;stroke:#000000;stroke-width:8.5039;stroke-linecap:round;stroke-linejoin:round;stroke-miterlimit:22.9256;" d="
				M167.145,164.676c0,0,7.059-22.27-11.175-5.591"/>
			
				<path style="fill:none;stroke:#000000;stroke-width:8.5039;stroke-linecap:round;stroke-linejoin:round;stroke-miterlimit:22.9256;" d="
				M142.356,153.542c0,0,10.625-12.587,13.613,5.543"/>
			
				<path style="fill:none;stroke:#000000;stroke-width:8.5039;stroke-linecap:round;stroke-linejoin:round;stroke-miterlimit:22.9256;" d="
				M121.11,150.778c0,0,13.409-14.145,21.247,2.765"/>
			
				<path style="fill:none;stroke:#000000;stroke-width:8.5039;stroke-linecap:round;stroke-linejoin:round;stroke-miterlimit:22.9256;" d="
				M101.573,149.103c0,0,11.972-10.927,19.537,1.675"/>
			
				<path style="fill:none;stroke:#000000;stroke-width:8.5039;stroke-linecap:round;stroke-linejoin:round;stroke-miterlimit:22.9256;" d="
				M80.029,150.283c0,0,12.28-4.933,21.544-1.18"/>
			
				<path style="fill:none;stroke:#000000;stroke-width:8.5039;stroke-linecap:round;stroke-linejoin:round;stroke-miterlimit:22.9256;" d="
				M122.095,256.905c0,0,23.477-36.383,38.403-2.078"/>
			
				<path style="fill:none;stroke:#000000;stroke-width:8.5039;stroke-linecap:round;stroke-linejoin:round;stroke-miterlimit:22.9256;" d="
				M188.55,260.27c0,0-10.507-19.105-28.052-5.443"/>
			
				<path style="fill:none;stroke:#000000;stroke-width:8.5039;stroke-linecap:round;stroke-linejoin:round;stroke-miterlimit:22.9256;" d="
				M216.451,258.214c0,0-11.185-15.53-27.9,2.056"/>
			
				<path style="fill:none;stroke:#000000;stroke-width:8.5039;stroke-linecap:round;stroke-linejoin:round;stroke-miterlimit:22.9256;" d="
				M258.624,257c0,0-21.316-34.457-42.173,1.214"/>
			
				<path style="fill:none;stroke:#000000;stroke-width:8.5039;stroke-linecap:round;stroke-linejoin:round;stroke-miterlimit:22.9256;" d="
				M240.144,242.344c0,0,11.498-15.773,25.217,4.583"/>
			
				<path style="fill:none;stroke:#000000;stroke-width:8.5039;stroke-linecap:round;stroke-linejoin:round;stroke-miterlimit:22.9256;" d="
				M251.117,236.521c0,0,14.94-28.186,35.908,11.407"/>
			
				<path style="fill:none;stroke:#000000;stroke-width:8.5039;stroke-linecap:round;stroke-linejoin:round;stroke-miterlimit:22.9256;" d="
				M107.643,246.878c0,0,14.347-23.251,31.483-5.64"/>
			
				<path style="fill:none;stroke:#000000;stroke-width:8.5039;stroke-linecap:round;stroke-linejoin:round;stroke-miterlimit:22.9256;" d="
				M92.852,238.734c0,0,35.293-30.14,38.233-3.104"/>
			
				<path style="fill:none;stroke:#000000;stroke-width:8.5039;stroke-linecap:round;stroke-linejoin:round;stroke-miterlimit:22.9256;" d="
				M136.574,183.477c0,0,5.173,43.219,27.743,18.202"/>
			
				<path style="fill:none;stroke:#000000;stroke-width:8.5039;stroke-linecap:round;stroke-linejoin:round;stroke-miterlimit:22.9256;" d="
				M189.8,200.609c0,0-10.667,10.527-25.484,1.07"/>
			
				<path style="fill:none;stroke:#000000;stroke-width:8.5039;stroke-linecap:round;stroke-linejoin:round;stroke-miterlimit:22.9256;" d="
				M227.057,197.429c0,0-15.522,11.562-37.257,3.18"/>
			
				<path style="fill:none;stroke:#000000;stroke-width:8.5039;stroke-linecap:round;stroke-linejoin:round;stroke-miterlimit:22.9256;" d="
				M258.242,181.243c0,0-0.395,36.768-31.185,16.186"/>
			
				<path style="fill:none;stroke:#000000;stroke-width:8.5039;stroke-linecap:round;stroke-linejoin:round;stroke-miterlimit:22.9256;" d="
				M272.624,178.331c0,0-2.954,26.815-17.894,17.768"/>
			
				<path style="fill:none;stroke:#000000;stroke-width:8.5039;stroke-linecap:round;stroke-linejoin:round;stroke-miterlimit:22.9256;" d="
				M116.684,173.558c0,0,6.752,29.924,24.914,27.661"/>
			
				<path style="fill:none;stroke:#000000;stroke-width:8.5039;stroke-linecap:round;stroke-linejoin:round;stroke-miterlimit:22.9256;" d="
				M105.827,174.524c0,0,1.187,21.919,17.761,25.527"/>
		</g>
		<g>
			
				<path style="fill:none;stroke:#000000;stroke-width:8.5039;stroke-linecap:round;stroke-linejoin:round;stroke-miterlimit:22.9256;" d="
				M26.308,256.965c0,0,19.11,23.262,59.225,39.412"/>
			
				<path style="fill:none;stroke:#000000;stroke-width:8.5039;stroke-linecap:round;stroke-linejoin:round;stroke-miterlimit:22.9256;" d="
				M31.166,282.468c0,0,13.12,9.384,20.618,11.639"/>
			
				<path style="fill:none;stroke:#000000;stroke-width:8.5039;stroke-linecap:round;stroke-linejoin:round;stroke-miterlimit:22.9256;" d="
				M261.677,315.335c0,0,42.192-10.283,73.146-33.889"/>
			
				<path style="fill:none;stroke:#000000;stroke-width:8.5039;stroke-linecap:round;stroke-linejoin:round;stroke-miterlimit:22.9256;" d="
				M289.986,320.23c0,0,9.001-2.808,19.507-10.488"/>
			
				<path style="fill:none;stroke:#000000;stroke-width:8.5039;stroke-linecap:round;stroke-linejoin:round;stroke-miterlimit:22.9256;" d="
				M26.308,256.965c0,0,19.11,23.262,59.225,39.412"/>
			
				<path style="fill:none;stroke:#000000;stroke-width:8.5039;stroke-linecap:round;stroke-linejoin:round;stroke-miterlimit:22.9256;" d="
				M31.166,282.468c0,0,13.12,9.384,20.618,11.639"/>
			
				<path style="fill:none;stroke:#000000;stroke-width:8.5039;stroke-linecap:round;stroke-linejoin:round;stroke-miterlimit:22.9256;" d="
				M261.677,315.335c0,0,42.192-10.283,73.146-33.889"/>
			
				<path style="fill:none;stroke:#000000;stroke-width:8.5039;stroke-linecap:round;stroke-linejoin:round;stroke-miterlimit:22.9256;" d="
				M289.986,320.23c0,0,9.001-2.808,19.507-10.488"/>
		</g>
	</g>
</g>
</svg>
