<svg id="n0301" xmlns="http://www.w3.org/2000/svg" viewBox="0 0 354.16 545.83"><title>03Zayac</title><polygon points="108.97 33.9 116.62 36.73 115.62 51.5 112.75 73.63 109.4 93.01 104.65 116.36 98.9 141.37 93.3 163.63 87.67 184.43 81.69 204.82 76.87 204.73 72.7 190.78 68.32 169.19 67.18 147.7 69.11 128.63 74.01 108.34 81.11 88.65 89.34 70.32 99.13 51.34 108.97 33.9 108.97 33.9" style="fill:#e085ad;fill-rule:evenodd"/><polygon points="223.21 161.23 230.54 158.18 226.54 149.9 218.84 138.69 207.84 128.23 197.48 121.87 187.48 118 173.64 115.7 158.93 115.98 145.9 119.27 134.31 125.69 125.92 133.81 122.62 138.73 118.19 137.42 116.21 144.03 113.94 151.47 111.82 158.32 109.09 166.98 106.59 174.82 115 169.86 125.68 164.34 138.63 158.94 150.38 155.34 160.81 153.22 171.07 152.1 183.09 152.02 193.98 153.08 204.02 155.01 213.55 157.69 223.21 161.23 223.21 161.23" style="fill:#49b37e;fill-rule:evenodd"/><polygon points="109.89 33.13 117.09 36.73 116.59 44.11 115.12 59.01 113.5 71.82 109.87 93.01 106.55 109.31 102.63 127.54 98.34 145.62 94.08 162.46 88.94 181.56 83.3 201.06 80 211.68 76.6 225.26 75.69 242.57 76 258.9 75.95 274.44 74.66 290.18 73.96 294.73 84.52 289.85 96.97 286.44 112.51 285.56 130.66 289.82 145.34 296.32 158.83 303.01 164.95 300.18 160.71 292.41 160.82 284.03 165.26 274.97 172.55 270.87 171.09 265.86 172.68 253.56 172.06 240.31 170.21 224.2 167.21 205.17 164.15 188.66 160.46 170.8 156.07 154.28 142.12 157.89 128.62 163.31 115.47 169.86 107.06 174.82 110.92 162.65 116.2 145.63 122.64 123.76 128.63 102 134.43 79.08 139.39 57.26 142.99 39.5 145.51 25.51 146.07 13.72 141.69 7.43 132.23 9.63 124.8 14.88 116.34 23.32 109.89 33.13 109.89 33.13" style="fill:#f8d63f;fill-rule:evenodd"/><polygon points="250.47 4.56 245.97 11.32 244.12 23.87 243.78 41.01 244.7 59.81 246.41 76.45 249.21 95.36 253.08 115.36 256.49 130.19 260.99 147.36 266.6 163.04 272.96 182.67 278.58 198.18 283.87 208.86 291.09 204.51 296.74 196.84 301.11 185.26 303.55 172.03 304.46 158.75 304.1 141.49 302.15 122.51 298.81 103.44 293.72 82.79 286.9 61.79 278.9 42.38 270.07 25.15 261.99 12.08 254.91 5.09 250.47 4.56 250.47 4.56" style="fill:#fff;fill-rule:evenodd"/><path d="M156.69,153.94l11.76-1.65,9.36-.24,11.63,0.45,10.61,1.74,11.32,2.83s11.34,4.36,11.83,4.15l7.33-3.05,3.55,10.22,2.49,10.93,2.3,11.68,3.81,10.31,6.81,11.54,9.41,10.66,8.88,7.17,5.11,3.1L273,247.05l1.24,10.37,1.41,8.21,1.92,13.73-11.31-1.63-16.6,2.8s-14.67,7.27-14.9,6.77-14.88,6.44-14.88,6.44l-15.67,6.63-2.07-4.45,3.33-4.51-1.56-6.61-4.05-7.19-5.54-5.73-9.6-2.82-9.49.88-4.57-4.06,1.57-12.15-0.54-12.17L170.41,230l-1.74-13.85-3.19-17.82-3.26-18.74-3-14.37-2.56-11.29h0Z" style="fill:#fff;fill-rule:evenodd"/><polygon points="104.25 259.28 106.06 248.73 109.25 232.27 113.62 215.51 118.59 206.43 125.41 204.04 131.62 209.06 132.56 218.51 123.93 223.2 116.46 228.97 124.71 236.03 127.68 240.07 125.11 249.79 123.61 257.78 123.83 265.01 114.1 261.12 104.25 259.28 104.25 259.28" style="fill-rule:evenodd"/><polygon points="214.91 265.12 222.99 258.86 232.86 253.68 232.31 241.57 223.35 238.38 215.06 233.89 222.76 226.41 226.87 221.32 228.42 213.72 224.13 206.64 216.79 204.71 209.34 208.84 208.12 217.78 209.42 227.74 212.07 242.1 214.03 253.47 214.91 265.12 214.91 265.12" style="fill-rule:evenodd"/><polygon points="190.93 115.92 204.63 115.27 218.91 116.56 234.33 121.13 246.12 128.07 260.99 147.36 268.02 167.44 273.49 184.24 278.58 198.18 285.22 212.77 295.56 228.51 301.46 238.28 304.36 251.76 302.12 265.83 297.01 277.87 290.99 287.98 282.96 281.94 277.53 279.36 276.07 267.69 273.39 250.68 271.87 233.23 257.87 222.52 246.84 208.35 238.31 188.1 234.09 168.39 227.36 151.43 215.75 135.24 202.66 125.05 190.93 115.92 190.93 115.92" style="fill:#68569d;fill-rule:evenodd"/><polygon points="72.94 191.69 75.4 199.81 81.18 206.37 77.83 218.47 75.86 230.38 75.22 242.57 75.53 258.9 75.49 272.38 74.6 285.26 73.49 294.73 60.53 306.36 53.13 319.36 50.17 334.22 51.44 350.19 55.02 363.07 63.16 378.94 71.95 390.82 83.84 402.81 100.13 414.9 114.38 422.86 130.91 429.95 145.69 434.81 159.46 438.35 169.03 440.32 169.84 454.63 169.66 464.14 170.25 477.47 155.7 480.59 141.42 485.22 126.99 492.11 117.91 498.84 112.69 498.22 110.39 507.98 107.13 514.78 97.78 511.85 81.94 507.29 68.05 501.58 54.95 494.02 43.59 484.19 37.73 476.28 33.29 465.54 24.96 463.61 14.55 456.84 7.18 446.11 6.19 434.86 10.4 428.32 23.22 420.79 31.8 410.96 37.06 401.14 37.26 391.92 32.52 383.7 27.09 381.42 18.21 373.52 11.42 360.17 7.76 349.42 4.42 336.75 7.76 326.08 14.98 312.46 27.65 303.45 36.95 293.13 40.24 281.29 37.88 264.11 36.15 245.48 38.62 229.28 46.11 213.42 56.44 201.91 72.94 191.69 72.94 191.69" style="fill:#68569d;fill-rule:evenodd"/><path d="M303.33,243.75l5.08-2.41,5.83,6.1,4.92,8.91,0.45,8.83-3,10.07-4.58,8.6-2.89,8.35,1.83,12.89,5.23,9.55,8.46,9.68,12,11.26,8.31,12.47,3.6,9.83,1.8,15.09-2,14.45-3.5,9.42-8.25,10.35L333,412.09l-7.84-2-6.43,10.2-5.94,8.89L308,440.43l-1.92,11.67-6.39,7.24,3.07,14.13,0.89,12.95-1.84,11.15-5.18,9.23-12.3,7.69-16.21.6,8.31-9.51,4.71-9L272,491.21l-10.28,3.6-13.76.67-9.86-4.18-7.43-8.38-2.8-9.17-6.56-1.28-11.2-.59L209.76,459l0-9.56,0.12-7.66L223.65,438l11.79-4.78,10.24-5.5,11-7.52,11.85-8.94L279,401.1l9.48-11.27s5.2-8.14,6.32-10,7.64-11,7.64-11l3.33-11.38,4-13.74,0.3-16.6-3.37-14.27-5.5-11.94-9.08-11.4,2.4-7.45,6.4-12.77,3.32-13.88-0.91-11.66h0Z" style="fill:#49b37e;fill-rule:evenodd"/><path d="M145.59,22.2c-10.23,62.55-30,124.5-39,152.62" style="fill:none;stroke:#000;stroke-linecap:round;stroke-linejoin:round;stroke-width:8.50394px"/><path d="M110.34,31.57c5.25-12.19,39-42.56,35.25-9.37" style="fill:none;stroke:#000;stroke-linecap:round;stroke-linejoin:round;stroke-width:8.50394px"/><path d="M78,207.54c-17.62-53.62-15.19-95.25,32.34-176" style="fill:none;stroke:#000;stroke-linecap:round;stroke-linejoin:round;stroke-width:8.50394px"/><path d="M115.73,145.63S137.62,108.36,183,117" style="fill:none;stroke:#000;stroke-linecap:round;stroke-linejoin:round;stroke-width:8.50394px"/><path d="M261,147.36S247.87,106.48,183,117" style="fill:none;stroke:#000;stroke-linecap:round;stroke-linejoin:round;stroke-width:8.50394px"/><path d="M244.87,16.11s-7.5,46.5,16.12,131.25" style="fill:none;stroke:#000;stroke-linecap:round;stroke-linejoin:round;stroke-width:8.50394px"/><path d="M266.24,18.73S249.74-12,244.87,16.11" style="fill:none;stroke:#000;stroke-linecap:round;stroke-linejoin:round;stroke-width:8.50394px"/><path d="M289.09,213.49c30.75-11.87,19.15-127.26-22.85-194.76" style="fill:none;stroke:#000;stroke-linecap:round;stroke-linejoin:round;stroke-width:8.50394px"/><path d="M116.62,36.73C115.12,86.61,89.19,183.16,78,216.36" style="fill:none;stroke:#000;stroke-linecap:round;stroke-linejoin:round;stroke-width:8.50394px"/><path d="M73.49,294.73c5.25-30.37-1.72-57.22,4.5-78.38" style="fill:none;stroke:#000;stroke-linecap:round;stroke-linejoin:round;stroke-width:8.50394px"/><path d="M106.59,174.82c24.37-15,68.16-32.84,120.28-11.47" style="fill:none;stroke:#000;stroke-linecap:round;stroke-linejoin:round;stroke-width:8.50394px"/><path d="M156.37,133.86s-18.07,6.64-28.94,27.27" style="fill:none;stroke:#000;stroke-linecap:round;stroke-linejoin:round;stroke-width:8.50394px"/><path d="M270.37,60.36c-0.37,84.75,22.59,113,21.09,127.58" style="fill:none;stroke:#000;stroke-linecap:round;stroke-linejoin:round;stroke-width:8.50394px"/><path d="M82.12,138.6a4.25,4.25,0,1,1-4.25,4.25,4.25,4.25,0,0,1,4.25-4.25h0Z" style="fill-rule:evenodd"/><path d="M293.62,145.35a4.25,4.25,0,1,1-4.25,4.25,4.25,4.25,0,0,1,4.25-4.25h0Z" style="fill-rule:evenodd"/><path d="M201.05,181.43s13.88-1.87,27.75,11.63" style="fill:none;stroke:#000;stroke-linecap:round;stroke-linejoin:round;stroke-width:8.50394px"/><path d="M109.12,192.36s7.12-12,30.37-10.12" style="fill:none;stroke:#000;stroke-linecap:round;stroke-linejoin:round;stroke-width:8.50394px"/><path d="M183,117s45,6,54,64.87" style="fill:none;stroke:#000;stroke-linecap:round;stroke-linejoin:round;stroke-width:8.50394px"/><path d="M271.87,233.23s-30-15.75-34.87-51.37" style="fill:none;stroke:#000;stroke-linecap:round;stroke-linejoin:round;stroke-width:8.50394px"/><path d="M279.37,276.36s26.25-25.13-7.5-43.13" style="fill:none;stroke:#000;stroke-linecap:round;stroke-linejoin:round;stroke-width:8.50394px"/><path d="M295.56,228.51C277.18,206.76,270,169.11,261,147.36" style="fill:none;stroke:#000;stroke-linecap:round;stroke-linejoin:round;stroke-width:8.50394px"/><path d="M262.49,190.48c12,29.25,66.75,39.75,28.5,97.5" style="fill:none;stroke:#000;stroke-linecap:round;stroke-linejoin:round;stroke-width:8.50394px"/><path d="M307.49,240.36c6.83,7.69,21.37,16.13,4.5,43.5" style="fill:none;stroke:#000;stroke-linecap:round;stroke-linejoin:round;stroke-width:8.50394px"/><path d="M169.76,309.42c12-62.33-13.33-153.33-13.33-153.33" style="fill:none;stroke:#000;stroke-linecap:round;stroke-linejoin:round;stroke-width:8.50394px"/><path d="M271.87,233.23s1.87,36,7.5,43.13" style="fill:none;stroke:#000;stroke-linecap:round;stroke-linejoin:round;stroke-width:8.50394px"/><path d="M251.62,269.23s7.6,10.8,27.75,7.13" style="fill:none;stroke:#000;stroke-linecap:round;stroke-linejoin:round;stroke-width:8.50394px"/><path d="M93,259.48s24.75-4.5,43.87,15.37" style="fill:none;stroke:#000;stroke-linecap:round;stroke-linejoin:round;stroke-width:8.50394px"/><path d="M210.74,269.23s16.5-18.75,35.62-18" style="fill:none;stroke:#000;stroke-linecap:round;stroke-linejoin:round;stroke-width:8.50394px"/><path d="M72.94,191.69S25,208.95,38.52,267.08" style="fill:none;stroke:#000;stroke-linecap:round;stroke-linejoin:round;stroke-width:8.50394px"/><path d="M27.65,303.45S46,293,38.52,267.08" style="fill:none;stroke:#000;stroke-linecap:round;stroke-linejoin:round;stroke-width:8.50394px"/><path d="M30.59,383.17c-17.5-11.75-47.77-52.74-2.94-79.72" style="fill:none;stroke:#000;stroke-linecap:round;stroke-linejoin:round;stroke-width:8.50394px"/><path d="M30.59,383.17S53.9,402.45,10.4,428.33" style="fill:none;stroke:#000;stroke-linecap:round;stroke-linejoin:round;stroke-width:8.50394px"/><path d="M58.77,452.33C31.4,487.2-8,444.08,10.4,428.33" style="fill:none;stroke:#000;stroke-linecap:round;stroke-linejoin:round;stroke-width:8.50394px"/><path d="M38.52,357.83c18.57,18.93,21.23,40.93,1.87,68.25" style="fill:none;stroke:#000;stroke-linecap:round;stroke-linejoin:round;stroke-width:8.50394px"/><path d="M229,464c-5.62,12.75,6.37,43.13,41.25,28.13" style="fill:none;stroke:#000;stroke-linecap:round;stroke-linejoin:round;stroke-width:8.50394px"/><path d="M270.27,492.08s6.37,0.75,10.87,4.5" style="fill:none;stroke:#000;stroke-linecap:round;stroke-linejoin:round;stroke-width:8.50394px"/><path d="M284.15,416.7s-12.37,11.63-4.87,43.13" style="fill:none;stroke:#000;stroke-linecap:round;stroke-linejoin:round;stroke-width:8.50394px"/><path d="M312,283.86S298,302.42,329.9,329s21.86,71-3.48,85" style="fill:none;stroke:#000;stroke-linecap:round;stroke-linejoin:round;stroke-width:8.50394px"/><path d="M333.65,380.42c0.66,17.75-8.46,30.22-20.19,47.66-4.47,6.65-10.77,23.91-5.24,35.11a16.59,16.59,0,0,0,2,3.09" style="fill:none;stroke:#000;stroke-linecap:round;stroke-linejoin:round;stroke-width:8.50394px"/><path d="M310.77,360.17s4.12,26.63-7.87,52.5-2.65,46-1.12,55.5" style="fill:none;stroke:#000;stroke-linecap:round;stroke-linejoin:round;stroke-width:8.50394px"/><path d="M207.93,214c-0.56-10.12,15.56-13.69,20.06-2.25" style="fill:none;stroke:#000;stroke-linecap:round;stroke-linejoin:round;stroke-width:8.50394px"/><path d="M214.91,265.12c0.38-13.88-6.75-36.43-7-51.11" style="fill:none;stroke:#000;stroke-linecap:round;stroke-linejoin:round;stroke-width:8.50394px"/><path d="M232.31,241.57a100.54,100.54,0,0,1,.37,11.06" style="fill:none;stroke:#000;stroke-linecap:round;stroke-linejoin:round;stroke-width:8.50394px"/><path d="M226.87,221.32a11.53,11.53,0,0,0,1.13-9.56" style="fill:none;stroke:#000;stroke-linecap:round;stroke-linejoin:round;stroke-width:8.50394px"/><path d="M215.06,233.89s8.06-6.94,11.81-12.56" style="fill:none;stroke:#000;stroke-linecap:round;stroke-linejoin:round;stroke-width:8.50394px"/><path d="M232.31,241.57s-15.37-4.88-17.25-7.69" style="fill:none;stroke:#000;stroke-linecap:round;stroke-linejoin:round;stroke-width:8.50394px"/><path d="M132.56,218.51c3.37-12.94-12.56-23.63-18.94-3" style="fill:none;stroke:#000;stroke-linecap:round;stroke-linejoin:round;stroke-width:8.50394px"/><path d="M104.25,259.28s5.24-32.7,9.37-43.76" style="fill:none;stroke:#000;stroke-linecap:round;stroke-linejoin:round;stroke-width:8.50394px"/><path d="M127.68,240.07s-6.2,20.44-3.85,24.94" style="fill:none;stroke:#000;stroke-linecap:round;stroke-linejoin:round;stroke-width:8.50394px"/><path d="M115.31,227.89a117.07,117.07,0,0,1,17.25-9.37" style="fill:none;stroke:#000;stroke-linecap:round;stroke-linejoin:round;stroke-width:8.50394px"/><path d="M127.68,240.07c0.75-1.87-8.25-8.11-12.37-12.19" style="fill:none;stroke:#000;stroke-linecap:round;stroke-linejoin:round;stroke-width:8.50394px"/><path d="M172.55,270.87s18.55,97.22,18.38,99.22,0,61.33,0,61.33-99-48.66-101.27-51-24.9-35.81-21.73-59.67,7.39-37.26,18.44-43.63S172.55,270.87,172.55,270.87Z" style="fill:#f8d63f;fill-rule:evenodd"/><path d="M180.46,344.14c2.08-1.33-11.76,9.59-13.73,9.1S66.27,294.73,66.27,294.73s-17.31,22-17.85,34.69,5.33,43.33,18.67,59.33,46.68,63.33,47.84,65.33-13,47.33-13,47.33,6.36,14.14,8.27,15.07,44.28-3.17,55.1-3.79,35.78,0,35.78,0-12.84-158.56-13.39-161.56S180.46,344.14,180.46,344.14Z" style="fill:#68569d;fill-rule:evenodd"/><path d="M190.93,328.08c2.49,1.33,95.42-10,95.42-10l27.32,10.11-10,55.51-33.4,33S253.69,462.48,255.56,464s33.75,30.25,33.81,32.19-15.25,16.56-15.25,16.56H222l-31.06-5.53L172.68,341.42Z" style="fill:#49b37e;fill-rule:evenodd"/><path d="M279.27,459.83s8.62,24.38-9,32.25" style="fill:none;stroke:#000;stroke-linecap:round;stroke-linejoin:round;stroke-width:8.50394px"/><path d="M69.76,502.13c13.1,14.78,49.62-5,28.16-48.79" style="fill:none;stroke:#000;stroke-linecap:round;stroke-linejoin:round;stroke-width:8.50394px"/><path d="M190.93,468.17c-0.17,2.58-14.2,44.53,19.81,44.53s40.78,1.59,40.78,1.59c14,3.12,62.25,10.88,50.25-46.12" style="fill:none;stroke:#000;stroke-linecap:round;stroke-linejoin:round;stroke-width:8.50394px"/><path d="M40.4,426.08c-37.13,69.75,61.5,86.63,61.5,86.63s34.89,11.46,95.4-3.21" style="fill:none;stroke:#000;stroke-linecap:round;stroke-linejoin:round;stroke-width:8.50394px"/><path d="M53.52,308.7s-37.68,27-15,49.13" style="fill:none;stroke:#000;stroke-linecap:round;stroke-linejoin:round;stroke-width:8.50394px"/><polygon points="169.03 422.32 169.65 432.52 170.22 466.07 170.2 479.76 169.78 487.95 180.95 492.43 194.13 493.69 207.69 491.7 213.32 489.73 210.74 482.21 209.91 468.9 209.75 435.7 209.9 423.82 197.12 424.61 185.5 424.49 169.03 422.32 169.03 422.32" style="fill:#fff;fill-rule:evenodd"/><polygon points="116.73 498.7 127.87 491.6 139.86 485.84 151.36 481.82 162.98 479.03 170.25 477.47 169.78 487.95 178.97 492 191.26 493.42 200.91 492.7 212.27 490.1 210.47 477.93 211.75 471.86 227.86 473.75 237.76 477.47 247.76 482.42 256.76 487.95 263.42 490.45 270.27 492.07 281.15 496.57 278.47 502.69 274.4 508.5 268.12 515.1 257.67 523.32 245.64 530.28 227.57 537.3 205.91 541.26 185.46 540.87 170.38 537.97 155.14 532.67 139.45 524.49 127.85 516.49 119.16 508.16 116.73 498.7 116.73 498.7" style="fill:#f8d63f;fill-rule:evenodd"/><path d="M169,422.33s2.25,48,.75,65.63" style="fill:none;stroke:#000;stroke-linecap:round;stroke-linejoin:round;stroke-width:8.50394px"/><path d="M209.9,423.83s-0.75,49.5,1.13,60.38" style="fill:none;stroke:#000;stroke-linecap:round;stroke-linejoin:round;stroke-width:8.50394px"/><path d="M165.65,487.2s26.62,14.63,52.87,0" style="fill:none;stroke:#000;stroke-linecap:round;stroke-linejoin:round;stroke-width:8.50394px"/><path d="M170.26,477.47S143.52,481.2,124,494" style="fill:none;stroke:#000;stroke-linecap:round;stroke-linejoin:round;stroke-width:8.50394px"/><path d="M121.77,511.58S110,499.75,124,494" style="fill:none;stroke:#000;stroke-linecap:round;stroke-linejoin:round;stroke-width:8.50394px"/><path d="M281.15,496.58c-7.5,27-85.87,77.63-159.37,15" style="fill:none;stroke:#000;stroke-linecap:round;stroke-linejoin:round;stroke-width:8.50394px"/><path d="M178.4,506.33s15.37,6.75,34.87.75" style="fill:none;stroke:#000;stroke-linecap:round;stroke-linejoin:round;stroke-width:8.50394px"/><path d="M210,471.88a99.53,99.53,0,0,1,16.41,2.87s31.82,9.33,43,15.7c0,0,7.23,2.38,11.73,6.13" style="fill:none;stroke:#000;stroke-linecap:round;stroke-linejoin:round;stroke-width:8.50394px"/><path d="M169,422.33c16.66,2.65,25.12,3.38,40.87,1.5" style="fill:none;stroke:#000;stroke-linecap:round;stroke-linejoin:round;stroke-width:8.50394px"/><path d="M159.27,300.78l4.56,8.6a77.26,77.26,0,0,0,21-1.67,61.58,61.58,0,0,0,17.67-7.33l-0.27-13.68-3.59-10.2-7.57-9.32-12.68-2.86L170,265.78l-8.45,4.5-4.17,6.64-0.36,8.77,1,6-0.28,4.69,1.42,4.24A0.11,0.11,0,0,0,159.27,300.78Z" style="fill:#68569d;fill-rule:evenodd"/><path d="M157.28,278.32c1.88-14,30-20.61,38.81-6.19" style="fill:none;stroke:#000;stroke-linecap:round;stroke-linejoin:round;stroke-width:8.50394px"/><path d="M165.53,296.51s-11.11,1.53-8.25-18.19" style="fill:none;stroke:#000;stroke-linecap:round;stroke-linejoin:round;stroke-width:8.50394px"/><path d="M198.35,291.44c4.58-1.81,6.56-6.19-2.25-19.31" style="fill:none;stroke:#000;stroke-linecap:round;stroke-linejoin:round;stroke-width:8.50394px"/><path d="M173,283.19s0.75,12.75-7.5,13.31" style="fill:none;stroke:#000;stroke-linecap:round;stroke-linejoin:round;stroke-width:8.50394px"/><path d="M184.47,280.94s4.5,12.38,13.87,10.5" style="fill:none;stroke:#000;stroke-linecap:round;stroke-linejoin:round;stroke-width:8.50394px"/><path d="M160.16,296.38s0.33,13.67,16.67,12,20-2.67,22.33-5.33,1-12.18,1-12.18" style="fill:none;stroke:#000;stroke-linecap:round;stroke-linejoin:round;stroke-width:8.50394px"/><path d="M173.56,309.09s8.83-5.78,14.34-2.25l8.92-2.07,13-4.86L225.5,293l15.22-7,15.6-5.39,14.85-.63,13.37,5.52,9.65,8.58,8.39,12.6L309,325.95l0.59,17.42-3.41,13.92-7,16.6-10,16.32-11.81,14.3L265.9,415.43l-19.54,13.94-25.94,11.73-21,3.79-18.83-.67-28.58-5.47-29.93-10.18L91.46,411l-20-18L59.19,374.39l-7.45-19.07L50,332.5l4.37-15.06,9.46-13.08,11.66-8.6,16.47-6.31,19.57-1.7L129.67,292l18.28,8.07,13,6.12,12.63,2.91h0Z" style="fill:#e085ad;fill-rule:evenodd"/><polygon points="113.83 329.33 113.09 336.37 114.22 344.21 119.82 350.87 129.41 350.44 134.44 356.47 141.19 359.33 151.91 355.5 156.87 354.43 159.31 363.31 163.18 370.87 168.98 375.71 174.93 377.11 177.05 381.59 170.62 385.26 161.72 393.57 155.25 388.62 149.62 387.44 150.78 381.94 142.5 377.61 133.89 378.71 126.58 385.53 121.87 394.5 118.02 401.36 104.82 392.25 95.4 381.94 89.63 369.75 88.45 357.71 91.29 346.05 96.7 337.16 103.64 331.17 113.83 329.33 113.83 329.33" style="fill:#49b37e;fill-rule:evenodd"/><path d="M200.68,379l2-3.86,5.74-5.78,2.63-7.61,0.53-4,8,1,7.64-2.66,5.16-7.12,5,1.71,6.67-.33,3.84-4.46,1.89-6.16,6-3.27,1.84-6.45-1.79-11.45,8.61,0.8,6.13,4.78,4.23,8.35,1.76,7.39,0.66,12.95-2,12.13-3.77,10-3.38,6-4.07-4.83-7.93-6.85-7.9-1.72-8,4-4.33,5.06L234.78,384l-5.42,4.33-3.58,4.3-8.84-1.87-6.2-7L204,380.15s-3.07-1.56-3.29-1.12h0Z" style="fill:#68569d;fill-rule:evenodd"/><polygon points="161.31 393.14 170.62 385.26 178.11 381.1 186.92 378.38 198.58 378.52 208.38 382.32 217.89 390.75 205.16 394.19 198.45 398.82 192.68 397.7 181.42 393.4 170.54 395.75 165.9 398.89 161.31 393.14 161.31 393.14" style="fill:#f8d63f;fill-rule:evenodd"/><polygon points="118.02 401.36 121.53 395.44 126.14 386.37 132.61 379.45 141.54 377.43 150.78 381.94 149.62 387.44 158.49 391.1 163.6 396.01 166.92 398.2 174.29 394.15 185.25 394.13 196.34 400.69 204.09 394.79 216.94 390.76 225.78 392.63 232.07 386.16 235.65 376.62 241.7 368.78 253.19 368.08 261.76 373.84 268.44 380.13 261.36 389.4 251.39 398.26 238.95 405.83 224.06 411.87 205.74 416.25 186.95 418.04 170.8 417.61 155.92 415.56 141.81 411.96 130.5 407.61 118.02 401.36 118.02 401.36" style="fill:#81cece;fill-rule:evenodd"/><polygon points="182.75 331.09 174.92 334.81 160.9 337.25 144.82 336.19 129.22 333.13 113.83 330.33 113.09 337.37 114.22 345.21 120.8 352.2 129.41 351.44 134.44 357.47 141.19 360.33 151.91 356.5 156.87 355.43 158.83 362.57 163.18 371.87 170.44 377.29 184.88 376.55 199.52 377.41 208.38 370.38 211.28 360.76 219.54 359.72 228.57 355.89 232.34 349.94 240.65 351.49 245.91 349.09 249.71 340.7 256.49 336.29 257.51 330.98 256.53 327.25 255.72 319.53 245.19 323.32 232.11 329.02 217.28 333.65 203.82 335.73 193.52 335.24 182.75 331.09 182.75 331.09" style="fill:#fff;fill-rule:evenodd"/><path d="M253.77,281.3c35.69-12,62.2,34.36,55.07,66.61" style="fill:none;stroke:#000;stroke-linecap:round;stroke-linejoin:round;stroke-width:8.50394px"/><path d="M181.16,309.1c23.44-3.94,53.12-22.74,72.62-27.8" style="fill:none;stroke:#000;stroke-linecap:round;stroke-linejoin:round;stroke-width:8.50394px"/><path d="M272.1,303.28s18.91,5.82,18.37,23.15" style="fill:none;stroke:#000;stroke-linecap:round;stroke-linejoin:round;stroke-width:8.50394px"/><path d="M102.6,313.78S85,312.28,77.85,334.41" style="fill:none;stroke:#000;stroke-linecap:round;stroke-linejoin:round;stroke-width:8.50394px"/><path d="M209.38,444c43.87-9,88.31-48.19,99.47-96.09" style="fill:none;stroke:#000;stroke-linecap:round;stroke-linejoin:round;stroke-width:8.50394px"/><path d="M168.5,442.5c16.66,2.65,25.12,3.38,40.87,1.5" style="fill:none;stroke:#000;stroke-linecap:round;stroke-linejoin:round;stroke-width:8.50394px"/><path d="M54.5,365.25c6.75,16.88,30,61.5,114,77.25" style="fill:none;stroke:#000;stroke-linecap:round;stroke-linejoin:round;stroke-width:8.50394px"/><path d="M124.63,290.25c-31.87-10.88-92.74,11.4-70.12,75" style="fill:none;stroke:#000;stroke-linecap:round;stroke-linejoin:round;stroke-width:8.50394px"/><path d="M177,309.1c-17.72-1.78-26.73-10.41-52.42-18.85" style="fill:none;stroke:#000;stroke-linecap:round;stroke-linejoin:round;stroke-width:8.50394px"/><path d="M181,315.93c-0.36,7.94.55,13.36,1.77,14.17" style="fill:none;stroke:#000;stroke-linecap:round;stroke-linejoin:round;stroke-width:8.50394px"/><path d="M112.08,329.31c13.19-.49,47.42,15.41,70.67.79" style="fill:none;stroke:#000;stroke-linecap:round;stroke-linejoin:round;stroke-width:8.50394px"/><path d="M246.13,321.84s-42.37,22.5-63.37,8.25" style="fill:none;stroke:#000;stroke-linecap:round;stroke-linejoin:round;stroke-width:8.50394px"/><path d="M277.25,349.59s0.75-43.87-31.12-27.75" style="fill:none;stroke:#000;stroke-linecap:round;stroke-linejoin:round;stroke-width:8.50394px"/><path d="M126.13,405.47c52.22,27.27,149.7,11.14,151.12-55.87" style="fill:none;stroke:#000;stroke-linecap:round;stroke-linejoin:round;stroke-width:8.50394px"/><path d="M112.08,329.31c-17.25-3.37-49.7,46.91,14,76.16" style="fill:none;stroke:#000;stroke-linecap:round;stroke-linejoin:round;stroke-width:8.50394px"/><path d="M183.41,345.19s1.56,22.62,1.47,30.36" style="fill:none;stroke:#000;stroke-linecap:round;stroke-linejoin:round;stroke-width:8.50394px"/><path d="M210.78,343.5s8.42,41.95-25.9,32.05" style="fill:none;stroke:#000;stroke-linecap:round;stroke-linejoin:round;stroke-width:8.50394px"/><path d="M155.66,348.37c2.92,15,6.33,34.48,29.22,27.18" style="fill:none;stroke:#000;stroke-linecap:round;stroke-linejoin:round;stroke-width:8.50394px"/><path d="M211.54,357.75s15.37,5.44,20.8-8.81" style="fill:none;stroke:#000;stroke-linecap:round;stroke-linejoin:round;stroke-width:8.50394px"/><path d="M248.66,339.94s1.31,16.88-16.31,9" style="fill:none;stroke:#000;stroke-linecap:round;stroke-linejoin:round;stroke-width:8.50394px"/><path d="M256.53,326.25s5.25,11.06-7.87,13.69" style="fill:none;stroke:#000;stroke-linecap:round;stroke-linejoin:round;stroke-width:8.50394px"/><path d="M129.41,350.44s8.25,16.13,22.5,5.06" style="fill:none;stroke:#000;stroke-linecap:round;stroke-linejoin:round;stroke-width:8.50394px"/><path d="M113.1,336.37s-0.94,20.06,16.31,14.06" style="fill:none;stroke:#000;stroke-linecap:round;stroke-linejoin:round;stroke-width:8.50394px"/><path d="M118,393.33s11.39-26,33.89-8.15" style="fill:none;stroke:#000;stroke-linecap:round;stroke-linejoin:round;stroke-width:8.50394px"/><path d="M136,397.5s13.12-23.62,30,1.5" style="fill:none;stroke:#000;stroke-linecap:round;stroke-linejoin:round;stroke-width:8.50394px"/><path d="M196.35,400.69S181.53,385.31,166,399" style="fill:none;stroke:#000;stroke-linecap:round;stroke-linejoin:round;stroke-width:8.50394px"/><path d="M225.78,392.63s-12.56-7.69-29.44,8.06" style="fill:none;stroke:#000;stroke-linecap:round;stroke-linejoin:round;stroke-width:8.50394px"/><path d="M251.1,386.12s-18.37-16-25.31,6.51" style="fill:none;stroke:#000;stroke-linecap:round;stroke-linejoin:round;stroke-width:8.50394px"/><path d="M232.72,381.75s12.15-28,31.12-5.62" style="fill:none;stroke:#000;stroke-linecap:round;stroke-linejoin:round;stroke-width:8.50394px"/><path d="M161.31,393.14s28.84-32.69,57.53-2.35" style="fill:none;stroke:#000;stroke-linecap:round;stroke-linejoin:round;stroke-width:8.50394px"/></svg>