<svg version="1.1" xmlns="http://www.w3.org/2000/svg" xmlns:xlink="http://www.w3.org/1999/xlink" x="0px" y="0px"
	 viewBox="0 0 371.881 545.833" style="enable-background:new 0 0 371.881 545.833;" xml:space="preserve">
<g id="n0301">
	<g>
		<g>
			
				<path style="fill:none;stroke:#000000;stroke-width:8.5039;stroke-linecap:round;stroke-linejoin:round;stroke-miterlimit:22.9256;" d="
				M52.723,163.106c0,0-9.75-36.375,7.5-76.875"/>
			
				<path style="fill:none;stroke:#000000;stroke-width:8.5039;stroke-linecap:round;stroke-linejoin:round;stroke-miterlimit:22.9256;" d="
				M33.598,144.731c0,0-1.5-20.625,1.875-31.5"/>
			
				<path style="fill:none;stroke:#000000;stroke-width:8.5039;stroke-linecap:round;stroke-linejoin:round;stroke-miterlimit:22.9256;" d="
				M327.655,97.805c0,0,13.668,50.367,3.273,82.437"/>
			
				<path style="fill:none;stroke:#000000;stroke-width:8.5039;stroke-linecap:round;stroke-linejoin:round;stroke-miterlimit:22.9256;" d="
				M350.812,136.658c0,0,0.198,27.63-2.6,37.127"/>
		</g>
		<polygon style="fill-rule:evenodd;clip-rule:evenodd;fill:#E085AD;" points="114.449,33.904 122.098,36.73 121.104,51.497 
			118.232,73.634 114.881,93.01 110.131,116.355 104.383,141.374 98.783,163.628 93.145,184.432 87.17,204.817 82.348,204.731 
			78.176,190.779 73.799,169.19 72.658,147.699 74.594,128.628 79.492,108.344 86.588,88.652 94.822,70.317 104.605,51.338 
			114.449,33.904 		"/>
		<polygon style="fill-rule:evenodd;clip-rule:evenodd;fill:#49B37E;" points="228.691,161.231 236.02,158.177 232.016,149.902 
			224.324,138.693 213.314,128.233 202.955,121.871 192.959,118 179.119,115.697 164.404,115.978 151.375,119.266 139.789,125.688 
			131.395,133.811 128.098,138.731 123.674,137.417 121.693,144.028 119.424,151.466 117.295,158.325 114.566,166.984 
			112.066,174.825 120.484,169.863 131.158,164.335 144.105,158.938 155.863,155.344 166.287,153.218 176.551,152.1 
			188.572,152.017 199.457,153.079 209.5,155.012 219.025,157.686 228.691,161.231 		"/>
		<polygon style="fill-rule:evenodd;clip-rule:evenodd;fill:#F8D63F;" points="115.373,33.128 122.567,36.73 122.069,44.114 
			120.598,59.011 118.983,71.817 115.35,93.01 112.034,109.313 108.106,127.542 103.819,145.619 99.559,162.455 94.418,181.555 
			88.782,201.062 85.481,211.683 82.077,225.261 81.17,242.574 81.481,258.902 81.432,274.435 80.143,290.18 79.442,294.732 
			89.998,289.845 102.446,286.44 117.987,285.565 136.141,289.82 150.819,296.323 164.311,303.011 170.426,300.178 166.194,292.413 
			166.303,284.029 170.745,274.974 178.034,270.867 176.567,265.856 178.155,253.564 177.538,240.309 175.69,224.198 
			172.694,205.17 169.633,188.662 165.944,170.801 161.545,154.281 147.6,157.893 134.098,163.306 120.954,169.863 112.536,174.825 
			116.401,162.654 121.678,145.626 128.12,123.762 134.108,102.004 139.905,79.082 144.872,57.264 148.469,39.5 150.985,25.512 
			151.547,13.722 147.168,7.431 137.71,9.632 130.276,14.884 121.821,23.325 115.373,33.128 		"/>
		<polygon style="fill-rule:evenodd;clip-rule:evenodd;fill:#FFFFFF;" points="255.951,4.558 251.445,11.317 249.596,23.874 
			249.254,41.009 250.184,59.807 251.889,76.45 254.693,95.358 258.559,115.363 261.971,130.185 266.473,147.356 272.078,163.036 
			278.435,182.67 284.064,198.176 289.348,208.856 296.568,204.51 302.221,196.836 306.588,185.262 309.027,172.029 
			309.941,158.747 309.578,141.49 307.633,122.511 304.293,103.442 299.201,82.787 292.379,61.786 284.379,42.383 275.547,25.15 
			267.473,12.082 260.393,5.092 255.951,4.558 		"/>
		<path style="fill-rule:evenodd;clip-rule:evenodd;fill:#FFFFFF;" d="M162.174,153.938l11.764-1.645l9.357-0.239l11.633,0.453
			l10.607,1.742l11.322,2.828c0,0,11.34,4.36,11.834,4.154c0.494-0.206,7.328-3.054,7.328-3.054l3.551,10.217l2.488,10.932
			l2.305,11.684l3.811,10.31l6.807,11.541l9.412,10.659l8.883,7.175l5.105,3.1l0.055,13.259l1.244,10.369l1.412,8.212l1.916,13.727
			l-11.307-1.634l-16.598,2.796c0,0-14.666,7.273-14.902,6.767c-0.234-0.508-14.877,6.436-14.877,6.436l-15.672,6.632l-2.072-4.454
			l3.328-4.515l-1.561-6.605l-4.053-7.19l-5.543-5.729l-9.596-2.819l-9.492,0.875l-4.566-4.064l1.57-12.149l-0.543-12.168
			l-1.238-11.53l-1.738-13.853l-3.191-17.824l-3.26-18.735l-2.967-14.369L162.174,153.938L162.174,153.938z"/>
		<polygon style="fill-rule:evenodd;clip-rule:evenodd;" points="109.732,259.276 111.539,248.734 114.73,232.27 119.098,215.512 
			124.072,206.429 130.889,204.043 137.096,209.061 138.035,218.512 129.41,223.199 121.935,228.973 130.191,236.035 
			133.16,240.074 130.594,249.794 129.088,257.78 129.311,265.012 119.576,261.116 109.732,259.276 		"/>
		<polygon style="fill-rule:evenodd;clip-rule:evenodd;" points="220.391,265.122 228.465,258.856 238.336,253.679 237.785,241.574 
			228.83,238.381 220.535,233.887 228.24,226.411 232.348,221.324 233.9,213.724 229.611,206.638 222.273,204.708 214.818,208.836 
			213.6,217.781 214.896,227.741 217.555,242.099 219.508,253.469 220.391,265.122 		"/>
		<polygon style="fill-rule:evenodd;clip-rule:evenodd;fill:#68569D;" points="196.41,115.919 210.107,115.267 224.393,116.564 
			239.811,121.132 251.598,128.073 266.473,147.356 273.5,167.444 278.965,184.242 284.064,198.176 290.703,212.773 
			301.039,228.508 306.938,238.279 309.84,251.761 307.6,265.828 302.492,277.873 296.473,287.982 288.435,281.94 283.008,279.361 
			281.547,267.685 278.871,250.684 277.348,233.231 263.348,222.519 252.322,208.352 243.789,188.096 239.57,168.394 
			232.844,151.43 221.229,135.244 208.135,125.052 196.41,115.919 		"/>
		<polygon style="fill-rule:evenodd;clip-rule:evenodd;fill:#68569D;" points="78.42,191.691 80.877,199.814 86.662,206.373 
			83.311,218.472 81.34,230.376 80.701,242.574 81.012,258.902 80.969,272.385 80.076,285.264 78.973,294.732 66.006,306.354 
			58.613,319.358 55.654,334.223 56.918,350.193 60.504,363.075 68.639,378.942 77.428,390.823 89.322,402.815 105.609,414.901 
			119.863,422.855 136.393,429.948 151.166,434.815 164.938,438.351 174.504,440.325 175.32,454.629 175.137,464.138 
			175.734,477.471 161.178,480.589 146.9,485.222 132.469,492.11 123.385,498.842 118.172,498.216 115.869,507.978 112.607,514.784 
			103.256,511.849 87.424,507.292 73.529,501.581 60.43,494.021 49.072,484.19 43.213,476.279 38.766,465.536 30.435,463.612 
			20.033,456.843 12.656,446.104 11.674,434.862 15.879,428.325 28.701,420.79 37.279,410.963 42.543,401.145 42.734,391.92 
			38.002,383.7 30.635,386.161 24.025,374.771 13.629,364.337 5.652,350.696 4.846,336.679 9.656,324.651 20.465,312.463 
			33.129,303.45 42.434,293.125 45.723,281.286 43.359,264.107 41.631,245.481 44.102,229.281 51.592,213.424 61.918,201.913 
			78.42,191.691 		"/>
		<path style="fill-rule:evenodd;clip-rule:evenodd;fill:#49B37E;" d="M308.805,243.748l5.076-2.407l5.832,6.102l4.918,8.91
			l0.451,8.83l-3.025,10.071l-4.584,8.603l-2.891,8.346l1.832,12.893l5.228,9.546l8.461,9.68l12.008,11.258l8.312,12.474
			l3.604,9.831l1.803,15.095l-1.959,14.448l-3.502,9.416l-8.252,10.351l-3.631,4.892l-7.838-2.05l-6.434,10.202l-5.941,8.886
			l-4.807,11.308l-1.924,11.674l-6.387,7.243l3.074,14.135l0.891,12.949l-1.84,11.154l-5.176,9.226l-12.299,7.691l-16.207,0.602
			l8.315-9.509l4.715-9.02l-9.16-5.363l-10.281,3.597l-13.762,0.668l-9.859-4.184l-7.426-8.378l-2.799-9.167l-6.564-1.279
			l-11.201-0.593l-0.338-12.836l0.023-9.556l0.117-7.659l13.75-3.792l11.787-4.784l10.236-5.501l10.986-7.52l11.85-8.942
			l10.461-10.186l9.477-11.266c0,0,5.197-8.138,6.318-9.97c1.121-1.832,7.645-11.013,7.645-11.013l3.328-11.379l4.025-13.739
			l0.299-16.598l-3.365-14.272l-5.502-11.944l-9.076-11.404l2.398-7.451l6.398-12.773l3.32-13.881L308.805,243.748L308.805,243.748z
			"/>
		
			<path style="fill:none;stroke:#000000;stroke-width:8.5039;stroke-linecap:round;stroke-linejoin:round;stroke-miterlimit:22.9256;" d="
			M151.066,22.2c-10.232,62.548-30.008,124.499-39,152.625"/>
		
			<path style="fill:none;stroke:#000000;stroke-width:8.5039;stroke-linecap:round;stroke-linejoin:round;stroke-miterlimit:22.9256;" d="
			M115.816,31.575c5.25-12.188,39-42.562,35.25-9.375"/>
		
			<path style="fill:none;stroke:#000000;stroke-width:8.5039;stroke-linecap:round;stroke-linejoin:round;stroke-miterlimit:22.9256;" d="
			M83.473,207.544c-17.625-53.624-15.188-95.25,32.344-175.969"/>
		
			<path style="fill:none;stroke:#000000;stroke-width:8.5039;stroke-linecap:round;stroke-linejoin:round;stroke-miterlimit:22.9256;" d="
			M121.209,145.626c0,0,21.889-37.27,67.264-28.645"/>
		
			<path style="fill:none;stroke:#000000;stroke-width:8.5039;stroke-linecap:round;stroke-linejoin:round;stroke-miterlimit:22.9256;" d="
			M266.473,147.356c0,0-13.125-40.875-78-30.375"/>
		
			<path style="fill:none;stroke:#000000;stroke-width:8.5039;stroke-linecap:round;stroke-linejoin:round;stroke-miterlimit:22.9256;" d="
			M250.348,16.106c0,0-7.5,46.499,16.125,131.25"/>
		
			<path style="fill:none;stroke:#000000;stroke-width:8.5039;stroke-linecap:round;stroke-linejoin:round;stroke-miterlimit:22.9256;" d="
			M271.723,18.73c0,0-16.5-30.75-21.375-2.624"/>
		
			<path style="fill:none;stroke:#000000;stroke-width:8.5039;stroke-linecap:round;stroke-linejoin:round;stroke-miterlimit:22.9256;" d="
			M294.573,213.49c30.755-11.866,19.149-127.259-22.851-194.76"/>
		
			<path style="fill:none;stroke:#000000;stroke-width:8.5039;stroke-linecap:round;stroke-linejoin:round;stroke-miterlimit:22.9256;" d="
			M122.098,36.73c-1.5,49.876-27.428,146.433-38.625,179.626"/>
		
			<path style="fill:none;stroke:#000000;stroke-width:8.5039;stroke-linecap:round;stroke-linejoin:round;stroke-miterlimit:22.9256;" d="
			M78.973,294.732c5.25-30.375-1.719-57.22,4.5-78.376"/>
		
			<path style="fill:none;stroke:#000000;stroke-width:8.5039;stroke-linecap:round;stroke-linejoin:round;stroke-miterlimit:22.9256;" d="
			M112.066,174.825c24.375-15,68.156-32.842,120.281-11.467"/>
		
			<path style="fill:none;stroke:#000000;stroke-width:8.5039;stroke-linecap:round;stroke-linejoin:round;stroke-miterlimit:22.9256;" d="
			M161.848,133.856c0,0-18.068,6.643-28.943,27.268"/>
		
			<path style="fill:none;stroke:#000000;stroke-width:8.5039;stroke-linecap:round;stroke-linejoin:round;stroke-miterlimit:22.9256;" d="
			M275.848,60.356c-0.375,84.75,22.587,112.951,21.087,127.576"/>
		<path style="fill-rule:evenodd;clip-rule:evenodd;" d="M87.598,138.604c2.348,0,4.252,1.903,4.252,4.252
			c0,2.349-1.904,4.252-4.252,4.252c-2.35,0-4.252-1.903-4.252-4.252C83.346,140.507,85.248,138.604,87.598,138.604L87.598,138.604z
			"/>
		<path style="fill-rule:evenodd;clip-rule:evenodd;" d="M299.098,145.354c2.348,0,4.252,1.904,4.252,4.252
			c0,2.349-1.904,4.252-4.252,4.252c-2.348,0-4.252-1.903-4.252-4.252C294.846,147.258,296.75,145.354,299.098,145.354
			L299.098,145.354z"/>
		
			<path style="fill:none;stroke:#000000;stroke-width:8.5039;stroke-linecap:round;stroke-linejoin:round;stroke-miterlimit:22.9256;" d="
			M206.53,181.426c0,0,13.875-1.875,27.75,11.625"/>
		
			<path style="fill:none;stroke:#000000;stroke-width:8.5039;stroke-linecap:round;stroke-linejoin:round;stroke-miterlimit:22.9256;" d="
			M114.598,192.356c0,0,7.125-12,30.375-10.125"/>
		
			<path style="fill:none;stroke:#000000;stroke-width:8.5039;stroke-linecap:round;stroke-linejoin:round;stroke-miterlimit:22.9256;" d="
			M188.473,116.981c0,0,45,6,54,64.875"/>
		
			<path style="fill:none;stroke:#000000;stroke-width:8.5039;stroke-linecap:round;stroke-linejoin:round;stroke-miterlimit:22.9256;" d="
			M277.348,233.231c0,0-30-15.749-34.875-51.375"/>
		
			<path style="fill:none;stroke:#000000;stroke-width:8.5039;stroke-linecap:round;stroke-linejoin:round;stroke-miterlimit:22.9256;" d="
			M284.848,276.356c0,0,26.25-25.125-7.5-43.125"/>
		
			<path style="fill:none;stroke:#000000;stroke-width:8.5039;stroke-linecap:round;stroke-linejoin:round;stroke-miterlimit:22.9256;" d="
			M301.039,228.508c-18.375-21.75-25.566-59.402-34.566-81.152"/>
		
			<path style="fill:none;stroke:#000000;stroke-width:8.5039;stroke-linecap:round;stroke-linejoin:round;stroke-miterlimit:22.9256;" d="
			M267.973,190.481c12,29.251,66.75,39.75,28.5,97.501"/>
		
			<path style="fill:none;stroke:#000000;stroke-width:8.5039;stroke-linecap:round;stroke-linejoin:round;stroke-miterlimit:22.9256;" d="
			M312.973,240.356c6.834,7.688,21.375,16.125,4.5,43.501"/>
		
			<path style="fill:none;stroke:#000000;stroke-width:8.5039;stroke-linecap:round;stroke-linejoin:round;stroke-miterlimit:22.9256;" d="
			M176.098,265.856c7.125-18.375-12.262-104.731-12.262-104.731"/>
		
			<path style="fill:none;stroke:#000000;stroke-width:8.5039;stroke-linecap:round;stroke-linejoin:round;stroke-miterlimit:22.9256;" d="
			M277.348,233.231c0,0,1.875,36.001,7.5,43.125"/>
		
			<path style="fill:none;stroke:#000000;stroke-width:8.5039;stroke-linecap:round;stroke-linejoin:round;stroke-miterlimit:22.9256;" d="
			M257.098,269.231c0,0,7.598,10.797,27.75,7.125"/>
		
			<path style="fill:none;stroke:#000000;stroke-width:8.5039;stroke-linecap:round;stroke-linejoin:round;stroke-miterlimit:22.9256;" d="
			M98.473,259.482c0,0,24.75-4.501,43.875,15.374"/>
		
			<path style="fill:none;stroke:#000000;stroke-width:8.5039;stroke-linecap:round;stroke-linejoin:round;stroke-miterlimit:22.9256;" d="
			M216.223,269.231c0,0,16.5-18.75,35.625-18"/>
		
			<path style="fill:none;stroke:#000000;stroke-width:8.5039;stroke-linecap:round;stroke-linejoin:round;stroke-miterlimit:22.9256;" d="
			M78.42,191.691c0,0-47.916,17.258-34.416,75.384"/>
		
			<path style="fill:none;stroke:#000000;stroke-width:8.5039;stroke-linecap:round;stroke-linejoin:round;stroke-miterlimit:22.9256;" d="
			M33.129,303.45c0,0,18.375-10.5,10.875-36.375"/>
		
			<path style="fill:none;stroke:#000000;stroke-width:8.5039;stroke-linecap:round;stroke-linejoin:round;stroke-miterlimit:22.9256;" d="
			M15.129,365.7c-7.875-6.375-26.83-35.271,18-62.25"/>
		
			<path style="fill:none;stroke:#000000;stroke-width:8.5039;stroke-linecap:round;stroke-linejoin:round;stroke-miterlimit:22.9256;" d="
			M4.252,401.325c11.625,16.5,48.752-2.625,10.877-35.625"/>
		
			<path style="fill:none;stroke:#000000;stroke-width:8.5039;stroke-linecap:round;stroke-linejoin:round;stroke-miterlimit:22.9256;" d="
			M38.002,383.7c0,0,21.375,18.75-22.123,44.625"/>
		
			<path style="fill:none;stroke:#000000;stroke-width:8.5039;stroke-linecap:round;stroke-linejoin:round;stroke-miterlimit:22.9256;" d="
			M64.254,452.325c-27.375,34.875-66.75-8.25-48.375-24"/>
		
			<path style="fill:none;stroke:#000000;stroke-width:8.5039;stroke-linecap:round;stroke-linejoin:round;stroke-miterlimit:22.9256;" d="
			M44.004,357.825c0,0,18.418,31.178,1.875,68.25"/>
		
			<path style="fill:none;stroke:#000000;stroke-width:8.5039;stroke-linecap:round;stroke-linejoin:round;stroke-miterlimit:22.9256;" d="
			M59.004,308.7c0,0-30.75,13.5-15,49.125"/>
		
			<path style="fill:none;stroke:#000000;stroke-width:8.5039;stroke-linecap:round;stroke-linejoin:round;stroke-miterlimit:22.9256;" d="
			M234.504,463.95c-5.625,12.75,6.375,43.125,41.25,28.125"/>
		
			<path style="fill:none;stroke:#000000;stroke-width:8.5039;stroke-linecap:round;stroke-linejoin:round;stroke-miterlimit:22.9256;" d="
			M275.754,492.075c0,0,6.375,0.75,10.875,4.5"/>
		
			<path style="fill:none;stroke:#000000;stroke-width:8.5039;stroke-linecap:round;stroke-linejoin:round;stroke-miterlimit:22.9256;" d="
			M289.629,416.7c0,0-12.375,11.625-4.875,43.125"/>
		
			<path style="fill:none;stroke:#000000;stroke-width:8.5039;stroke-linecap:round;stroke-linejoin:round;stroke-miterlimit:22.9256;" d="
			M317.473,283.857c0,0-13.969,18.562,17.906,45.188s19.5,67.5,9.375,75.375"/>
		
			<path style="fill:none;stroke:#000000;stroke-width:8.5039;stroke-linecap:round;stroke-linejoin:round;stroke-miterlimit:22.9256;" d="
			M367.629,428.794c-15,25.875-49.875,1.875-22.875-24.375"/>
		
			<path style="fill:none;stroke:#000000;stroke-width:8.5039;stroke-linecap:round;stroke-linejoin:round;stroke-miterlimit:22.9256;" d="
			M339.129,380.419c0.664,17.753-8.457,30.225-20.19,47.66c-6.801,10.105-17.818,44.761,14.94,45.34"/>
		
			<path style="fill:none;stroke:#000000;stroke-width:8.5039;stroke-linecap:round;stroke-linejoin:round;stroke-miterlimit:22.9256;" d="
			M316.254,360.169c0,0,4.125,26.625-7.875,52.5s-2.65,45.972-1.125,55.5"/>
		
			<path style="fill:none;stroke:#000000;stroke-width:8.5039;stroke-linecap:round;stroke-linejoin:round;stroke-miterlimit:22.9256;" d="
			M213.41,214.012c-0.562-10.124,15.562-13.688,20.062-2.25"/>
		
			<path style="fill:none;stroke:#000000;stroke-width:8.5039;stroke-linecap:round;stroke-linejoin:round;stroke-miterlimit:22.9256;" d="
			M220.391,265.122c0.375-13.875-6.746-36.434-6.98-51.11"/>
		
			<path style="fill:none;stroke:#000000;stroke-width:8.5039;stroke-linecap:round;stroke-linejoin:round;stroke-miterlimit:22.9256;" d="
			M237.785,241.574c0,0,0.562,6,0.375,11.062"/>
		
			<path style="fill:none;stroke:#000000;stroke-width:8.5039;stroke-linecap:round;stroke-linejoin:round;stroke-miterlimit:22.9256;" d="
			M232.348,221.324c0,0,2.812-3.938,1.125-9.562"/>
		
			<path style="fill:none;stroke:#000000;stroke-width:8.5039;stroke-linecap:round;stroke-linejoin:round;stroke-miterlimit:22.9256;" d="
			M220.535,233.887c0,0,8.062-6.938,11.812-12.562"/>
		
			<path style="fill:none;stroke:#000000;stroke-width:8.5039;stroke-linecap:round;stroke-linejoin:round;stroke-miterlimit:22.9256;" d="
			M237.785,241.574c0,0-15.375-4.876-17.25-7.688"/>
		
			<path style="fill:none;stroke:#000000;stroke-width:8.5039;stroke-linecap:round;stroke-linejoin:round;stroke-miterlimit:22.9256;" d="
			M138.035,218.512c3.375-12.938-12.562-23.626-18.938-3"/>
		
			<path style="fill:none;stroke:#000000;stroke-width:8.5039;stroke-linecap:round;stroke-linejoin:round;stroke-miterlimit:22.9256;" d="
			M109.732,259.276c0,0,5.24-32.702,9.365-43.764"/>
		
			<path style="fill:none;stroke:#000000;stroke-width:8.5039;stroke-linecap:round;stroke-linejoin:round;stroke-miterlimit:22.9256;" d="
			M133.16,240.074c0,0-6.199,20.437-3.85,24.937"/>
		
			<path style="fill:none;stroke:#000000;stroke-width:8.5039;stroke-linecap:round;stroke-linejoin:round;stroke-miterlimit:22.9256;" d="
			M120.785,227.887c0,0,9-5.999,17.25-9.375"/>
		
			<path style="fill:none;stroke:#000000;stroke-width:8.5039;stroke-linecap:round;stroke-linejoin:round;stroke-miterlimit:22.9256;" d="
			M133.16,240.074c0.75-1.875-8.254-8.111-12.375-12.188"/>
		<path style="fill-rule:evenodd;clip-rule:evenodd;fill:#F8D63F;" d="M178.034,270.867c0,0,18.55,97.216,18.376,99.216
			c-0.174,2,0.001,61.334,0.001,61.334s-99.033-48.662-101.271-50.998c-2.237-2.336-24.896-35.807-21.735-59.669
			c3.162-23.862,7.39-37.265,18.444-43.632C102.903,270.75,178.034,270.867,178.034,270.867z"/>
		<path style="fill-rule:evenodd;clip-rule:evenodd;fill:#68569D;" d="M185.94,344.138c2.082-1.333-11.763,9.587-13.733,9.1
			S71.754,294.732,71.754,294.732s-18.441,17.352-18.979,30.018s2.795,54,16.128,70s50.347,57.333,51.507,59.333
			c1.16,2-13.031,47.334-13.031,47.334s6.356,14.137,8.273,15.068c1.917,0.932,44.285-3.168,55.101-3.785
			c10.816-0.617,35.777,0,35.777,0s-12.841-158.559-13.393-161.559C192.586,348.142,185.94,344.138,185.94,344.138z"/>
		<path style="fill-rule:evenodd;clip-rule:evenodd;fill:#49B37E;" d="M196.411,328.083c2.492,1.334,95.421-10,95.421-10
			l27.318,10.109l-9.998,55.508l-33.398,33c0,0-16.587,45.783-14.719,47.25c1.868,1.467,33.753,30.254,33.811,32.193
			c0.058,1.939-15.248,16.557-15.248,16.557h-52.125l-31.061-5.533l-18.256-165.75L196.411,328.083z"/>
		
			<path style="fill:none;stroke:#000000;stroke-width:8.5039;stroke-linecap:round;stroke-linejoin:round;stroke-miterlimit:22.9256;" d="
			M284.754,459.825c0,0,8.625,24.375-9,32.25"/>
		
			<path style="fill:none;stroke:#000000;stroke-width:8.5039;stroke-linecap:round;stroke-linejoin:round;stroke-miterlimit:22.9256;" d="
			M71.754,523.95c17.625,19.875,66.75-6.75,37.875-65.625"/>
		
			<path style="fill:none;stroke:#000000;stroke-width:8.5039;stroke-linecap:round;stroke-linejoin:round;stroke-miterlimit:22.9256;" d="
			M196.411,468.169c-0.175,2.581-14.202,44.531,19.811,44.531c34.014,0,40.781,1.594,40.781,1.594
			c13.977,3.12,62.25,10.875,50.25-46.125"/>
		
			<path style="fill:none;stroke:#000000;stroke-width:8.5039;stroke-linecap:round;stroke-linejoin:round;stroke-miterlimit:22.9256;" d="
			M45.879,426.075c-37.127,69.75,61.5,86.625,61.5,86.625s34.888,11.463,95.403-3.212"/>
	</g>
</g>
<g id="n0302">
	<g>
		<polygon style="fill-rule:evenodd;clip-rule:evenodd;fill:#FFFFFF;" points="174.504,422.325 175.125,432.523 175.695,466.069 
			175.684,479.761 175.254,487.95 186.426,492.433 199.611,493.691 213.172,491.703 218.795,489.732 216.215,482.206 
			215.393,468.903 215.234,435.698 215.379,423.825 202.602,424.614 190.979,424.49 174.504,422.325 		"/>
		<polygon style="fill-rule:evenodd;clip-rule:evenodd;fill:#F8D63F;" points="122.213,498.701 133.354,491.597 145.34,485.839 
			156.838,481.821 168.457,479.03 175.734,477.471 175.254,487.95 184.453,491.995 196.744,493.417 206.393,492.697 
			217.748,490.099 215.951,477.928 217.232,471.861 233.342,473.748 243.237,477.471 253.237,482.417 262.237,487.95 
			268.903,490.45 275.754,492.075 286.629,496.575 283.951,502.694 279.877,508.496 273.6,515.104 263.148,523.316 251.119,530.284 
			233.055,537.299 211.389,541.259 190.939,540.867 175.857,537.974 160.619,532.668 144.934,524.493 133.332,516.492 
			124.637,508.157 122.213,498.701 		"/>
		
			<path style="fill:none;stroke:#000000;stroke-width:8.5039;stroke-linecap:round;stroke-linejoin:round;stroke-miterlimit:22.9256;" d="
			M174.504,422.325c0,0,2.25,48,0.75,65.625"/>
		
			<path style="fill:none;stroke:#000000;stroke-width:8.5039;stroke-linecap:round;stroke-linejoin:round;stroke-miterlimit:22.9256;" d="
			M215.379,423.825c0,0-0.75,49.5,1.125,60.375"/>
		
			<path style="fill:none;stroke:#000000;stroke-width:8.5039;stroke-linecap:round;stroke-linejoin:round;stroke-miterlimit:22.9256;" d="
			M171.129,487.2c0,0,26.625,14.625,52.875,0"/>
		
			<path style="fill:none;stroke:#000000;stroke-width:8.5039;stroke-linecap:round;stroke-linejoin:round;stroke-miterlimit:22.9256;" d="
			M175.734,477.471c0,0-26.73,3.729-46.23,16.479"/>
		
			<path style="fill:none;stroke:#000000;stroke-width:8.5039;stroke-linecap:round;stroke-linejoin:round;stroke-miterlimit:22.9256;" d="
			M127.254,511.575c0,0-11.773-11.826,2.25-17.625"/>
		
			<path style="fill:none;stroke:#000000;stroke-width:8.5039;stroke-linecap:round;stroke-linejoin:round;stroke-miterlimit:22.9256;" d="
			M286.629,496.575c-7.5,27-85.875,77.625-159.375,15"/>
		
			<path style="fill:none;stroke:#000000;stroke-width:8.5039;stroke-linecap:round;stroke-linejoin:round;stroke-miterlimit:22.9256;" d="
			M183.879,506.325c0,0,15.375,6.75,34.875,0.75"/>
		
			<path style="fill:none;stroke:#000000;stroke-width:8.5039;stroke-linecap:round;stroke-linejoin:round;stroke-miterlimit:22.9256;" d="
			M215.49,471.878c0,0,8.503,0.67,16.413,2.872c0,0,31.816,9.335,43,15.7c0,0,7.226,2.375,11.726,6.125"/>
		
			<path style="fill:none;stroke:#000000;stroke-width:8.5039;stroke-linecap:round;stroke-linejoin:round;stroke-miterlimit:22.9256;" d="
			M174.504,422.325c16.664,2.648,25.125,3.375,40.875,1.5"/>
	</g>
</g>
<g id="n0303">
	<g>
		<path style="fill-rule:evenodd;clip-rule:evenodd;fill:#68569D;" d="M168.938,303.112l9.352,4.152c0,0,4.041,0.23,14.344-2.25
			c10.303-2.48,14.705-6.537,14.705-6.537l2.293-6.742l-3.586-10.201l-7.57-9.324l-12.678-2.862l-8.351,1.469l-8.447,4.503
			l-4.17,6.64l-0.355,8.77l1.043,6L168.938,303.112L168.938,303.112z"/>
		
			<path style="fill:none;stroke:#000000;stroke-width:8.5039;stroke-linecap:round;stroke-linejoin:round;stroke-miterlimit:22.9256;" d="
			M166.571,259.828c0,0,8.25-10.5,25.125-5.25"/>
		
			<path style="fill:none;stroke:#000000;stroke-width:8.5039;stroke-linecap:round;stroke-linejoin:round;stroke-miterlimit:22.9256;" d="
			M164.696,283.358c1.875-14.032,30.006-20.609,38.812-6.188"/>
		
			<path style="fill:none;stroke:#000000;stroke-width:8.5039;stroke-linecap:round;stroke-linejoin:round;stroke-miterlimit:22.9256;" d="
			M172.946,301.546c0,0-11.109,1.527-8.25-18.188"/>
		
			<path style="fill:none;stroke:#000000;stroke-width:8.5039;stroke-linecap:round;stroke-linejoin:round;stroke-miterlimit:22.9256;" d="
			M205.759,296.483c4.576-1.807,6.563-6.188-2.25-19.313"/>
		
			<path style="fill:none;stroke:#000000;stroke-width:8.5039;stroke-linecap:round;stroke-linejoin:round;stroke-miterlimit:22.9256;" d="
			M180.446,288.233c0,0,0.75,12.75-7.5,13.312"/>
		
			<path style="fill:none;stroke:#000000;stroke-width:8.5039;stroke-linecap:round;stroke-linejoin:round;stroke-miterlimit:22.9256;" d="
			M191.884,285.983c0,0,4.5,12.375,13.875,10.5"/>
	</g>
</g>
<g id="n0304">
	<g>
		<path style="fill-rule:evenodd;clip-rule:evenodd;fill:#E085AD;" d="M179.71,305.761c0,0,8.834-5.777,14.344-2.25l8.918-2.067
			l13.004-4.858l15.67-6.943l15.221-7.046l15.604-5.391l14.853-0.63l13.371,5.517l9.646,8.58l8.387,12.599l6.451,19.343
			l0.586,17.419l-3.41,13.916l-6.969,16.598l-9.996,16.324l-11.809,14.299l-11.531,10.934l-19.535,13.938l-25.943,11.733
			l-20.973,3.785l-18.826-0.666l-28.576-5.467l-29.926-10.182L97.608,407.7l-20.037-18.035L65.335,371.06l-7.451-19.073
			l-1.752-22.823l4.365-15.063l9.461-13.08l11.658-8.604l16.473-6.307l19.572-1.701l18.154,4.255l18.275,8.069l12.99,6.115
			L179.71,305.761L179.71,305.761z"/>
		<polygon style="fill-rule:evenodd;clip-rule:evenodd;fill:#49B37E;" points="119.974,325.996 119.241,333.041 120.362,340.873 
			125.966,347.539 135.554,347.103 140.583,353.133 147.335,355.998 158.054,352.166 163.02,351.094 165.452,359.982 
			169.325,367.532 175.124,372.373 181.073,373.775 183.194,378.253 176.77,381.927 167.87,390.24 161.397,385.284 155.768,384.109 
			156.929,378.604 148.651,374.28 140.032,375.38 132.731,382.194 128.015,391.17 124.167,398.025 110.964,388.919 101.544,378.603 
			95.776,366.415 94.593,354.376 97.437,342.714 102.845,333.83 109.786,327.841 119.974,325.996 		"/>
		<path style="fill-rule:evenodd;clip-rule:evenodd;fill:#68569D;" d="M206.823,375.696l1.961-3.861l5.738-5.783l2.633-7.605
			l0.531-4.029l7.998,0.968l7.645-2.661l5.162-7.12l4.967,1.715l6.674-0.334l3.838-4.459l1.889-6.16l5.959-3.274l1.84-6.447
			l-1.795-11.449l8.607,0.803l6.127,4.782l4.234,8.354l1.76,7.395l0.662,12.949l-2.035,12.131l-3.773,10.02l-3.379,5.996
			l-4.074-4.833l-7.928-6.851l-7.9-1.721l-8.035,4.003l-4.334,5.061l-0.869,7.378l-5.418,4.332l-3.578,4.299l-8.844-1.866
			l-6.195-6.955l-6.779-3.649C210.11,376.821,207.042,375.264,206.823,375.696L206.823,375.696z"/>
		<polygon style="fill-rule:evenodd;clip-rule:evenodd;fill:#F8D63F;" points="167.458,389.808 176.77,381.927 184.259,377.766 
			193.069,375.042 204.722,375.183 214.524,378.985 224.032,387.418 211.302,390.854 204.599,395.486 198.823,394.369 
			187.569,390.069 176.686,392.422 172.042,395.557 167.458,389.808 		"/>
		<polygon style="fill-rule:evenodd;clip-rule:evenodd;fill:#81CECE;" points="124.167,398.025 127.679,392.104 132.288,383.039 
			138.759,376.121 147.686,374.097 156.929,378.604 155.768,384.109 164.634,387.762 169.751,392.682 173.069,394.862 
			180.436,390.819 191.395,390.797 202.491,397.354 210.241,391.458 223.085,387.426 231.929,389.292 238.216,382.827 
			241.794,373.283 247.845,365.443 259.331,364.752 267.905,370.506 274.591,376.794 267.501,386.067 257.54,394.926 
			245.093,402.502 230.204,408.541 211.882,412.922 193.093,414.704 176.948,414.273 162.065,412.23 147.954,408.629 
			136.649,404.273 124.167,398.025 		"/>
		<polygon style="fill-rule:evenodd;clip-rule:evenodd;fill:#FFFFFF;" points="188.897,327.761 181.063,331.476 167.05,333.915 
			150.968,332.852 135.364,329.795 119.974,326.996 119.241,334.041 120.362,341.873 126.944,348.871 135.554,348.103 
			140.583,354.133 147.335,356.998 158.054,353.166 163.02,352.094 164.974,359.232 169.325,368.532 176.591,373.96 
			191.028,373.217 205.663,374.081 214.522,367.052 217.421,357.432 225.685,356.385 234.716,352.553 238.491,346.603 
			246.794,348.151 252.052,345.755 255.858,337.365 262.636,332.96 263.657,327.644 262.679,323.916 261.862,316.194 
			251.335,319.99 238.257,325.69 223.431,330.315 209.964,332.399 199.663,331.908 188.897,327.761 		"/>
		
			<path style="fill:none;stroke:#000000;stroke-width:8.5039;stroke-linecap:round;stroke-linejoin:round;stroke-miterlimit:22.9256;" d="
			M259.921,277.967c35.691-11.993,62.195,34.357,55.07,66.607"/>
		
			<path style="fill:none;stroke:#000000;stroke-width:8.5039;stroke-linecap:round;stroke-linejoin:round;stroke-miterlimit:22.9256;" d="
			M187.304,305.767c23.438-3.938,53.117-22.743,72.617-27.8"/>
		
			<path style="fill:none;stroke:#000000;stroke-width:8.5039;stroke-linecap:round;stroke-linejoin:round;stroke-miterlimit:22.9256;" d="
			M278.241,299.948c0,0,18.907,5.818,18.375,23.148"/>
		
			<path style="fill:none;stroke:#000000;stroke-width:8.5039;stroke-linecap:round;stroke-linejoin:round;stroke-miterlimit:22.9256;" d="
			M108.741,310.448c0,0-17.625-1.5-24.75,20.625"/>
		
			<path style="fill:none;stroke:#000000;stroke-width:8.5039;stroke-linecap:round;stroke-linejoin:round;stroke-miterlimit:22.9256;" d="
			M215.522,440.667c43.875-9,88.312-48.188,99.469-96.094"/>
		
			<path style="fill:none;stroke:#000000;stroke-width:8.5039;stroke-linecap:round;stroke-linejoin:round;stroke-miterlimit:22.9256;" d="
			M174.647,439.167c16.664,2.648,25.125,3.375,40.875,1.5"/>
		
			<path style="fill:none;stroke:#000000;stroke-width:8.5039;stroke-linecap:round;stroke-linejoin:round;stroke-miterlimit:22.9256;" d="
			M60.647,361.917c6.75,16.875,30,61.5,114,77.25"/>
		
			<path style="fill:none;stroke:#000000;stroke-width:8.5039;stroke-linecap:round;stroke-linejoin:round;stroke-miterlimit:22.9256;" d="
			M130.772,286.917c-31.875-10.875-92.736,11.403-70.125,75"/>
		
			<path style="fill:none;stroke:#000000;stroke-width:8.5039;stroke-linecap:round;stroke-linejoin:round;stroke-miterlimit:22.9256;" d="
			M183.194,305.767c-17.719-1.781-26.734-10.412-52.422-18.85"/>
		
			<path style="fill:none;stroke:#000000;stroke-width:8.5039;stroke-linecap:round;stroke-linejoin:round;stroke-miterlimit:22.9256;" d="
			M187.128,312.592c-0.361,7.944,0.551,13.357,1.77,14.169"/>
		
			<path style="fill:none;stroke:#000000;stroke-width:8.5039;stroke-linecap:round;stroke-linejoin:round;stroke-miterlimit:22.9256;" d="
			M118.224,325.975c13.191-0.485,47.424,15.411,70.674,0.786"/>
		
			<path style="fill:none;stroke:#000000;stroke-width:8.5039;stroke-linecap:round;stroke-linejoin:round;stroke-miterlimit:22.9256;" d="
			M252.272,318.511c0,0-42.375,22.5-63.375,8.25"/>
		
			<path style="fill:none;stroke:#000000;stroke-width:8.5039;stroke-linecap:round;stroke-linejoin:round;stroke-miterlimit:22.9256;" d="
			M283.397,346.261c0,0,0.75-43.875-31.125-27.75"/>
		
			<path style="fill:none;stroke:#000000;stroke-width:8.5039;stroke-linecap:round;stroke-linejoin:round;stroke-miterlimit:22.9256;" d="
			M132.272,402.136c52.221,27.271,149.699,11.143,151.125-55.875"/>
		
			<path style="fill:none;stroke:#000000;stroke-width:8.5039;stroke-linecap:round;stroke-linejoin:round;stroke-miterlimit:22.9256;" d="
			M118.224,325.975c-17.25-3.375-49.701,46.911,14.049,76.161"/>
		
			<path style="fill:none;stroke:#000000;stroke-width:8.5039;stroke-linecap:round;stroke-linejoin:round;stroke-miterlimit:22.9256;" d="
			M189.554,341.853c0,0,1.557,22.616,1.475,30.363"/>
		
			<path style="fill:none;stroke:#000000;stroke-width:8.5039;stroke-linecap:round;stroke-linejoin:round;stroke-miterlimit:22.9256;" d="
			M216.929,340.166c0,0,8.418,41.949-25.9,32.051"/>
		
			<path style="fill:none;stroke:#000000;stroke-width:8.5039;stroke-linecap:round;stroke-linejoin:round;stroke-miterlimit:22.9256;" d="
			M161.804,345.041c2.92,14.965,6.326,34.477,29.225,27.176"/>
		
			<path style="fill:none;stroke:#000000;stroke-width:8.5039;stroke-linecap:round;stroke-linejoin:round;stroke-miterlimit:22.9256;" d="
			M217.686,354.417c0,0,15.367,5.438,20.805-8.814"/>
		
			<path style="fill:none;stroke:#000000;stroke-width:8.5039;stroke-linecap:round;stroke-linejoin:round;stroke-miterlimit:22.9256;" d="
			M254.804,336.603c0,0,1.312,16.876-16.312,9"/>
		
			<path style="fill:none;stroke:#000000;stroke-width:8.5039;stroke-linecap:round;stroke-linejoin:round;stroke-miterlimit:22.9256;" d="
			M262.679,322.916c0,0,5.25,11.064-7.875,13.688"/>
		
			<path style="fill:none;stroke:#000000;stroke-width:8.5039;stroke-linecap:round;stroke-linejoin:round;stroke-miterlimit:22.9256;" d="
			M135.554,347.103c0,0,8.25,16.125,22.5,5.062"/>
		
			<path style="fill:none;stroke:#000000;stroke-width:8.5039;stroke-linecap:round;stroke-linejoin:round;stroke-miterlimit:22.9256;" d="
			M119.241,333.041c0,0-0.938,20.062,16.312,14.062"/>
		
			<path style="fill:none;stroke:#000000;stroke-width:8.5039;stroke-linecap:round;stroke-linejoin:round;stroke-miterlimit:22.9256;" d="
			M124.167,389.992c0,0,11.387-26.018,33.887-8.151"/>
		
			<path style="fill:none;stroke:#000000;stroke-width:8.5039;stroke-linecap:round;stroke-linejoin:round;stroke-miterlimit:22.9256;" d="
			M142.116,394.167c0,0,13.125-23.625,30,1.5"/>
		
			<path style="fill:none;stroke:#000000;stroke-width:8.5039;stroke-linecap:round;stroke-linejoin:round;stroke-miterlimit:22.9256;" d="
			M202.491,397.354c0,0-14.812-15.375-30.375-1.688"/>
		
			<path style="fill:none;stroke:#000000;stroke-width:8.5039;stroke-linecap:round;stroke-linejoin:round;stroke-miterlimit:22.9256;" d="
			M231.929,389.292c0,0-12.562-7.688-29.438,8.062"/>
		
			<path style="fill:none;stroke:#000000;stroke-width:8.5039;stroke-linecap:round;stroke-linejoin:round;stroke-miterlimit:22.9256;" d="
			M257.241,382.783c0,0-18.375-16.024-25.312,6.509"/>
		
			<path style="fill:none;stroke:#000000;stroke-width:8.5039;stroke-linecap:round;stroke-linejoin:round;stroke-miterlimit:22.9256;" d="
			M238.866,378.416c0,0,12.154-27.965,31.125-5.625"/>
		
			<path style="fill:none;stroke:#000000;stroke-width:8.5039;stroke-linecap:round;stroke-linejoin:round;stroke-miterlimit:22.9256;" d="
			M167.458,389.808c0,0,28.84-32.691,57.531-2.353"/>
	</g>
</g>
</svg>
