<svg version="1.1" xmlns="http://www.w3.org/2000/svg" xmlns:xlink="http://www.w3.org/1999/xlink" x="0px" y="0px"
	 viewBox="0 0 353.825 509.189" style="enable-background:new 0 0 353.825 509.189;" xml:space="preserve">
<g id="n0401">
	<g>
		<g>
			<path style="fill:#49B37E;" d="M56.816,437.815c-2.667-2-15.077-26.37-16.205-56.852c-1.128-30.481,1.128-60.242,0-64.695
				c-1.128-4.453,87.577,49.547,87.577,49.547l159.367-24l5.381,9.439c0,0-5.31,71.44-5.381,75.668
				c-0.071,4.228-2.191,36.227-22.465,38.893c-20.273,2.667-169.102,19.333-199.688,0C34.816,446.482,56.816,437.815,56.816,437.815
				z"/>
			
				<path style="fill:none;stroke:#000000;stroke-width:8.5039;stroke-linecap:round;stroke-linejoin:round;stroke-miterlimit:22.9256;" d="
				M38.31,333.923c0,0-1.715,57.761,12.454,88.255"/>
			
				<path style="fill:none;stroke:#000000;stroke-width:8.5039;stroke-linecap:round;stroke-linejoin:round;stroke-miterlimit:22.9256;" d="
				M292.935,348.923c0,0,1.586,68.708-3.713,77.342"/>
		</g>
		<g>
			<polygon style="fill-rule:evenodd;clip-rule:evenodd;fill:#3F3558;" points="292.933,378.16 299.894,379.088 303.595,384.225 
				303.119,390.913 299.173,397.985 291.251,403.235 291.91,393.127 292.443,384.965 292.933,378.16 			"/>
			<polygon style="fill-rule:evenodd;clip-rule:evenodd;fill:#FFFFFF;" points="172.559,438.923 186.208,460.274 199.183,482.048 
				226.681,469.927 251.453,459.041 276.371,446.246 302.316,434.281 319.558,422.423 313.357,406.093 306.505,384.824 
				301.796,394.024 283.908,406.714 254.808,417.184 231.949,424.176 204.96,431.354 187.041,435.78 172.559,438.923 			"/>
			<polygon style="fill-rule:evenodd;clip-rule:evenodd;fill:#F8D63F;" points="146.309,480.173 157.261,467.65 165.117,454.185 
				172.559,438.923 153.251,434.373 123.597,426.897 94.086,418.385 68.395,409.178 50.764,400.178 45.8,386.857 42.954,377.429 
				37.184,378.173 32.795,389.477 29.699,402.765 26.06,414.56 21.809,423.923 39.951,434.212 58.905,444.681 78.782,454.978 
				101.537,465.382 121.92,473.094 146.309,480.173 			"/>
			<polygon style="fill-rule:evenodd;clip-rule:evenodd;fill:#3F3558;" points="30.88,429.067 29.315,438.532 27.238,446.064 
				32.995,457.289 45.744,466.871 65.094,479.548 83.273,487.706 102.092,494.349 122.599,499.778 142.393,503.268 160.677,504.859 
				173.312,504.936 188.369,503.699 208.392,499.997 230.945,493.541 250.369,486.256 271.581,476.436 287.925,467.21 
				303.591,455.805 310.173,447.959 311.347,442.151 310.462,429.378 297.775,436.795 278.962,446.34 258.064,456.07 
				237.386,465.222 216.68,474.279 199.183,482.048 191.586,469.214 182.347,453.958 172.559,438.923 166.338,451.838 
				160.009,463.279 152.143,474.663 146.309,480.173 121.92,473.094 95.563,462.821 70.855,450.982 51.102,440.426 30.88,429.067 
							"/>
			
				<path style="fill:none;stroke:#000000;stroke-width:8.5039;stroke-linecap:round;stroke-linejoin:round;stroke-miterlimit:22.9256;" d="
				M39.566,377.429c-1.256,35.804,83.867,50.244,132.993,61.494"/>
			
				<path style="fill:none;stroke:#000000;stroke-width:8.5039;stroke-linecap:round;stroke-linejoin:round;stroke-miterlimit:22.9256;" d="
				M300.808,395.798c-5.25,12-83.913,34.074-128.25,43.125"/>
			
				<path style="fill:none;stroke:#000000;stroke-width:8.5039;stroke-linecap:round;stroke-linejoin:round;stroke-miterlimit:22.9256;" d="
				M199.183,482.048c0,0-20.625-35.25-26.624-43.125"/>
			
				<path style="fill:none;stroke:#000000;stroke-width:8.5039;stroke-linecap:round;stroke-linejoin:round;stroke-miterlimit:22.9256;" d="
				M146.309,480.173c0,0,9.375-4.125,26.25-41.25"/>
			
				<path style="fill:none;stroke:#000000;stroke-width:8.5039;stroke-linecap:round;stroke-linejoin:round;stroke-miterlimit:22.9256;" d="
				M38.31,375.489c-6,8.25-6.376,29.684-16.501,48.434"/>
			
				<path style="fill:none;stroke:#000000;stroke-width:8.5039;stroke-linecap:round;stroke-linejoin:round;stroke-miterlimit:22.9256;" d="
				M146.309,480.173c-44.625-10.875-78.695-30.166-124.5-56.25"/>
			
				<path style="fill:none;stroke:#000000;stroke-width:8.5039;stroke-linecap:round;stroke-linejoin:round;stroke-miterlimit:22.9256;" d="
				M319.558,422.423c-16.125,16.125-91.875,46.5-120.375,59.625"/>
			
				<path style="fill:none;stroke:#000000;stroke-width:8.5039;stroke-linecap:round;stroke-linejoin:round;stroke-miterlimit:22.9256;" d="
				M297.423,377.429c0,0,11.26,5.244,3.385,18.369"/>
			
				<path style="fill:none;stroke:#000000;stroke-width:8.5039;stroke-linecap:round;stroke-linejoin:round;stroke-miterlimit:22.9256;" d="
				M319.558,422.423c0,0-9.664-16.577-15.963-38.198"/>
			
				<path style="fill:none;stroke:#000000;stroke-width:8.5039;stroke-linecap:round;stroke-linejoin:round;stroke-miterlimit:22.9256;" d="
				M28.559,451.11c11.318,21.958,81.444,53.759,144.753,53.826c72.746,0.077,132.183-42.244,137.247-57.951"/>
			
				<path style="fill:none;stroke:#000000;stroke-width:8.5039;stroke-linecap:round;stroke-linejoin:round;stroke-miterlimit:22.9256;" d="
				M310.462,429.378c-1.353,9.742,2.469,10.272,0.098,17.607"/>
			
				<path style="fill:none;stroke:#000000;stroke-width:8.5039;stroke-linecap:round;stroke-linejoin:round;stroke-miterlimit:22.9256;" d="
				M29.279,428.173c3.375,12.376-5.184,13.562-0.72,22.938"/>
			
				<path style="fill:none;stroke:#000000;stroke-width:8.5039;stroke-linecap:round;stroke-linejoin:round;stroke-miterlimit:22.9256;" d="
				M173.312,504.936c0,0-0.455-33.974,0.33-52.889"/>
		</g>
	</g>
</g>
<g id="n0402_1_">
	<g>
		<polygon style="fill-rule:evenodd;clip-rule:evenodd;fill:#49B37E;" points="134.969,53.753 142.214,36.681 154.005,20.789 
			171.772,8.522 195.81,4.297 202.205,6.947 203.685,13.672 199.717,28.247 195.081,40.411 189.21,60.162 174.06,56.047 
			154.309,53.738 134.969,53.753 		"/>
		
			<path style="fill:none;stroke:#000000;stroke-width:8.5039;stroke-linecap:round;stroke-linejoin:round;stroke-miterlimit:22.9256;" d="
			M186.06,25.297c0,0-6.375,5.25-12,30.75"/>
		
			<path style="fill:none;stroke:#000000;stroke-width:8.5039;stroke-linecap:round;stroke-linejoin:round;stroke-miterlimit:22.9256;" d="
			M131.31,17.422c0,0-7.125,9.375-10.5,26.625"/>
		
			<path style="fill:none;stroke:#000000;stroke-width:8.5039;stroke-linecap:round;stroke-linejoin:round;stroke-miterlimit:22.9256;" d="
			M108.105,39.418c0,0,0.458-6.358,4.181-16.241"/>
		
			<path style="fill:none;stroke:#000000;stroke-width:8.5039;stroke-linecap:round;stroke-linejoin:round;stroke-miterlimit:22.9256;" d="
			M213.81,31.297c0,0-3.375,19.875-3,24.375"/>
		
			<path style="fill:none;stroke:#000000;stroke-width:8.5039;stroke-linecap:round;stroke-linejoin:round;stroke-miterlimit:22.9256;" d="
			M195.81,4.297c4.229,0.92,8.438,1.312,7.875,9.375"/>
		
			<path style="fill:none;stroke:#000000;stroke-width:8.5039;stroke-linecap:round;stroke-linejoin:round;stroke-miterlimit:22.9256;" d="
			M189.21,60.162c3-16.875,13.537-35.24,14.475-46.49"/>
		
			<path style="fill:none;stroke:#000000;stroke-width:8.5039;stroke-linecap:round;stroke-linejoin:round;stroke-miterlimit:22.9256;" d="
			M134.969,53.753c0,0,13.31-51.237,60.841-49.456"/>
	</g>
</g>
<g id="n0403">
	<g>
		<path style="fill-rule:evenodd;clip-rule:evenodd;fill:#E085AD;" d="M129.667,266.186c-1.242,16.184,8.322-10.764,2.848,0
			c-5.474,10.765-7.412,5.092,2.444,13.384c9.856,8.291,28.599,13.499,25.56,30.805c-3.038,17.307-11.508,45.436-34.273,42.148
			c-22.765-3.288-76.882-12.454-76.882-12.454s-18.511-52.458-11.055-79.059C39.552,256.577,130.909,250.003,129.667,266.186z"/>
		<path style="fill-rule:evenodd;clip-rule:evenodd;fill:#3F3558;" d="M292.737,345.714c0,0-138.187,19.718-164.054,8.163
			c-25.867-11.557,82.461-25.642-44.624-89.188c-2.211-1.105,196.876-2.202,196.876-2.202s10.287,11.906,8.287,27.773
			c-2,15.868,3.935,25.756,3.935,25.756L292.737,345.714"/>
		<g>
			<path style="fill-rule:evenodd;clip-rule:evenodd;fill:#F8D63F;" d="M198.046,325.562l-3.524-9.246l6.438-1.347l3.555-3.351
				l-3.278-3.962l-7.659-4.328l-6.499-0.404c0,0-10.013-8.942-36.524,2.658c-4.739,3.149-7.291,8.219-7.291,8.219l-3.24,5.759
				l-4.708,21.165l11.25,1.007l8,1.75l6.283-2.757l7.801-2.09l7.939,1.847l9.423,0.243l6.539-1.493l7.765-0.75L198.046,325.562z"/>
			
				<path style="fill:none;stroke:#000000;stroke-width:8.5039;stroke-linecap:round;stroke-linejoin:round;stroke-miterlimit:22.9256;" d="
				M189.069,301.298c44.636,19.126-21.574,15.562-21.574,15.562"/>
			
				<path style="fill:none;stroke:#000000;stroke-width:8.5039;stroke-linecap:round;stroke-linejoin:round;stroke-miterlimit:22.9256;" d="
				M194.522,316.316c0,0,5.794,9.246,5.794,22.166"/>
			
				<path style="fill:none;stroke:#000000;stroke-width:8.5039;stroke-linecap:round;stroke-linejoin:round;stroke-miterlimit:22.9256;" d="
				M135.316,340.726c0,0,0-26.243,17.777-35.162c0,0,11.855-9.648,35.976-4.266"/>
		</g>
		<g>
			<polygon style="fill-rule:evenodd;clip-rule:evenodd;fill:#F8D63F;" points="29.31,187.672 35.701,188.453 41.53,170.679 
				50.401,151.109 60.686,132.54 72.363,116.287 87.705,107.141 112.932,100.839 144.787,98.449 169.312,98.626 198.88,100.205 
				224.555,109.009 243.171,124.263 252.371,136.221 259.806,149.186 263.352,156.788 268.935,156.922 269.069,138.513 
				265.61,120.11 257.449,102.148 242.292,86.38 224.451,75.248 197.178,62.8 169.47,55.511 141.188,53.467 115.879,56.371 
				92.691,63.62 75.881,73.329 66,88.828 63.06,102.172 64.126,108.381 50.851,114.151 37.158,127.924 29.598,144.295 
				26.842,163.02 29.31,187.672 			"/>
			<polygon style="fill-rule:evenodd;clip-rule:evenodd;fill:#E085AD;" points="33.052,256.953 44.206,248.535 56.224,242.734 
				72.947,230.525 87.482,216.513 102.321,195.303 109.471,175.471 110.196,151.462 103.468,132.594 89.778,123.925 70.277,127.218 
				60.686,132.54 47.527,156.934 38.146,180.996 32.932,202.45 32.145,226.161 33.091,240.172 33.052,256.953 			"/>
			<polygon style="fill-rule:evenodd;clip-rule:evenodd;" points="65.496,210.549 73.572,209.229 80.153,209.593 82.371,195.547 
				75.63,186.623 68.063,178.395 76.747,171.511 83.684,168.171 84.808,158.047 80.766,152.84 76.55,152.439 68.901,157.604 
				67.775,166.291 65.922,198.343 65.496,210.549 			"/>
			<path style="fill-rule:evenodd;clip-rule:evenodd;fill:#FFFFFF;" d="M264.816,242.095c0.947-0.183-10.966-4.027-10.966-4.027
				l-11.796-12.061l-10.761-18.974l-5.16-21.07l1.045-13.978l6.644-13.885l11.414-6.432l18.106,5.097l6.012,15.79l6.091,21.524
				l3.134,14.559l2.705,15.703l2.182,16.072L264.816,242.095L264.816,242.095z"/>
			<polygon style="fill-rule:evenodd;clip-rule:evenodd;" points="249.243,216.57 255.475,216.757 259.72,217.21 259.746,204.547 
				251.316,196.906 252.373,191.143 259.371,183.546 259.962,174.373 258.162,168.246 251.736,167.102 247.933,173.046 
				247.813,187.308 248.478,203.792 249.243,216.57 			"/>
			<path style="fill-rule:evenodd;clip-rule:evenodd;fill:#49B37E;" d="M318.54,275.355l-12.215-22.79l-15.639-10.98l-29.034,2.161
				l-29.523,7.529l-29.989,4.893l-29.357,0.816l-29.839-2.199l-26.204-4.413l-25.344-4.896l-24.553-1.645l-18.794,2.996
				l-14.997,10.126l-7.039,10.257l-4.405,13.449l-0.53,17.004l4.968,18.256l12.263,18.004l6.676,6.073l-0.481-4.762l0.481,4.762
				l10.48,9.014l13.804,7.157l33.839,11.715l22.866,6.427l23.143,5.874l24.315,5.73l23.51-5.258l32.25-8.379l33.832-10.348
				l27.072-10.674l2.838-2.331l0,0h3.881h-3.881l10.002-8.207l9.533-11.987l6.797-15.727l2.26-19.581L318.54,275.355z
				 M271.353,325.411c-20.913,10.406-38.679,25.792-104.608,23.599c-65.929-2.193-108.596-34.213-108.596-34.213
				s-14.791-16.726-6.062-34.02c8.729-17.294,21.731-14.825,34.729-9.224c12.998,5.602,54.589,15.622,86.596,14.36
				c32.007-1.262,83.186-8.993,92.795-14.712c9.609-5.719,18.62,5.832,19.95,13.116
				C287.487,291.603,292.266,315.005,271.353,325.411z"/>
			<polygon style="fill-rule:evenodd;clip-rule:evenodd;fill:#3F3558;" points="60.686,133.011 68.177,121.18 78.844,111.977 
				97.219,104.48 112.932,101.309 128.859,100.114 152.996,98.979 176.998,99.507 198.88,100.676 214.827,104.733 228.297,112.545 
				239.257,121.526 251.288,135.283 259.392,148.833 263.341,157.235 248.431,151.911 236.149,156.258 229.31,167.999 
				226.011,183.562 228.809,200.53 234.388,214.21 243.359,227.811 251.517,236.153 264.816,242.565 246.891,247.981 
				225.871,253.202 198.523,256.912 173.809,257.426 147.369,255.582 121.796,251.694 95.935,246.712 73.863,244.236 
				56.224,243.204 68.106,234.886 82.066,222.692 93.407,209.793 103.355,193.708 109.471,175.941 110.849,158.621 107.576,141.081 
				100.737,129.885 88.445,124.211 76.587,125.389 68.486,128.54 60.686,133.011 			"/>
			<polygon style="fill-rule:evenodd;clip-rule:evenodd;fill:#FFFFFF;" points="75.433,269.542 74.793,277.065 76.128,285.938 
				83.284,291.141 90.895,294.445 99.395,294.716 106.863,292.365 111.862,298.02 120.197,301.545 128.657,298.935 132.989,297.034 
				140.96,302.606 150.555,305.583 160.426,303.434 166.745,299.797 172.562,303.696 180.518,305.333 188.074,302.173 
				192.621,296.984 199.419,300.792 208.787,303.735 217.642,301.906 222.857,295.615 231.142,301.31 238.802,302.239 
				246.615,295.131 254.222,293.331 261.162,288.64 262.451,280.802 261.257,271.823 250.259,274.847 238.207,278.3 222.478,281.89 
				207.294,284.408 193.921,285.882 183.778,286.545 168.396,286.817 147.376,285.772 127.517,283.271 109.272,279.614 
				96.403,276.166 75.433,269.542 			"/>
			<path style="fill-rule:evenodd;clip-rule:evenodd;fill:#FFFFFF;" d="M68.182,321.145l3.827-6.772l6.637-8.36l8.619-3.721
				l8.274,6.77l2.143,4.436l7.404,3.451l4.096,5.162l10.143-1.454l8.709,8.065l11.067-3.292l10.596,3.743l6.078,4.629l11.322-5.529
				l10.847,1.067l6.306,5.455l9.351-6.265l12.551,2.403c0,0,3.582,4.085,2.906,3.564c-0.678-0.522,9.998-7.695,9.998-7.695
				l11.252,1.496l6.43-9.611l5.945-2.014l5.23-7.637l6.582-2.676l5.223-5.652l7.455-0.592l5.732,7.003l6.197,10.909l-8.534,7.444
				l-14.567,8.053l-16.57,6.027l-15.98,4.017l-19.199,3.202l-19.864,1.815l-17.046,0.41l-18.75-0.925l-21.131-2.886l-21.915-5.416
				l-17.248-6.579l-11.457-6.052L68.182,321.145L68.182,321.145z"/>
			
				<path style="fill:none;stroke:#000000;stroke-width:8.5039;stroke-linecap:round;stroke-linejoin:round;stroke-miterlimit:22.9256;" d="
				M38.31,333.923c-27.75-28.125-22.125-77.626,12.75-88.125"/>
			
				<path style="fill:none;stroke:#000000;stroke-width:8.5039;stroke-linecap:round;stroke-linejoin:round;stroke-miterlimit:22.9256;" d="
				M292.935,348.923c-19.404,13.988-64.379,34.955-126.004,31.703c-40.798-2.153-97.104-15.335-128.621-46.703"/>
			
				<path style="fill:none;stroke:#000000;stroke-width:8.5039;stroke-linecap:round;stroke-linejoin:round;stroke-miterlimit:22.9256;" d="
				M280.935,240.547c34.125-3.75,65.25,72,12,108.375"/>
			
				<path style="fill:none;stroke:#000000;stroke-width:8.5039;stroke-linecap:round;stroke-linejoin:round;stroke-miterlimit:22.9256;" d="
				M51.06,245.797c40.5-8.25,63.891,10.874,126.375,11.25c62.482,0.376,71.916-16.622,103.5-16.5"/>
			
				<path style="fill:none;stroke:#000000;stroke-width:8.5039;stroke-linecap:round;stroke-linejoin:round;stroke-miterlimit:22.9256;" d="
				M110.924,245.797c-7.108-21.476,10.635-58.124,88.261-37.5"/>
			
				<path style="fill:none;stroke:#000000;stroke-width:8.5039;stroke-linecap:round;stroke-linejoin:round;stroke-miterlimit:22.9256;" d="
				M137.149,106.482c8.626,6.75,26.581,48.852,9.938,94.51"/>
			
				<path style="fill:none;stroke:#000000;stroke-width:8.5039;stroke-linecap:round;stroke-linejoin:round;stroke-miterlimit:22.9256;" d="
				M64.56,126.172c12-22.125,47.25-35.625,168.75-22.875"/>
			
				<path style="fill:none;stroke:#000000;stroke-width:8.5039;stroke-linecap:round;stroke-linejoin:round;stroke-miterlimit:22.9256;" d="
				M103.149,100.297c0,0,12.41-18.375,50.285-25.5"/>
			
				<path style="fill:none;stroke:#000000;stroke-width:8.5039;stroke-linecap:round;stroke-linejoin:round;stroke-miterlimit:22.9256;" d="
				M80.992,106.482c0,0-2.176-22.685,31.567-32.81"/>
			
				<path style="fill:none;stroke:#000000;stroke-width:8.5039;stroke-linecap:round;stroke-linejoin:round;stroke-miterlimit:22.9256;" d="
				M88.935,65.422c0,0,70.5-39,157.125,23.625"/>
			
				<path style="fill:none;stroke:#000000;stroke-width:8.5039;stroke-linecap:round;stroke-linejoin:round;stroke-miterlimit:22.9256;" d="
				M268.935,156.922c0,0,6-43.125-22.875-67.875"/>
			
				<path style="fill:none;stroke:#000000;stroke-width:8.5039;stroke-linecap:round;stroke-linejoin:round;stroke-miterlimit:22.9256;" d="
				M63.06,106.482c0,0,1.114-32.483,25.875-41.06"/>
			
				<path style="fill:none;stroke:#000000;stroke-width:8.5039;stroke-linecap:round;stroke-linejoin:round;stroke-miterlimit:22.9256;" d="
				M63.06,110.482c-17.84-1.327-45.661,23.576-32.91,84.326"/>
			
				<path style="fill:none;stroke:#000000;stroke-width:8.5039;stroke-linecap:round;stroke-linejoin:round;stroke-miterlimit:22.9256;" d="
				M63.06,145.238c0,0,12.814-13.416,29.531-2.66"/>
			
				<path style="fill:none;stroke:#000000;stroke-width:8.5039;stroke-linecap:round;stroke-linejoin:round;stroke-miterlimit:22.9256;" d="
				M226.133,146.764c6.637-11.654,19.879-11.642,28.75-6"/>
			
				<path style="fill:none;stroke:#000000;stroke-width:8.5039;stroke-linecap:round;stroke-linejoin:round;stroke-miterlimit:22.9256;" d="
				M202.56,100.48c40.125,9,69.651,45.768,80.904,139.933"/>
			
				<path style="fill:none;stroke:#000000;stroke-width:8.5039;stroke-linecap:round;stroke-linejoin:round;stroke-miterlimit:22.9256;" d="
				M33.052,256.953c3-31.875-15.441-55.15,31.507-130.781"/>
			
				<path style="fill:none;stroke:#000000;stroke-width:8.5039;stroke-linecap:round;stroke-linejoin:round;stroke-miterlimit:22.9256;" d="
				M59.455,134.624c3.498-5.842,45.765-30.144,51.136,19.955"/>
			
				<path style="fill:none;stroke:#000000;stroke-width:8.5039;stroke-linecap:round;stroke-linejoin:round;stroke-miterlimit:22.9256;" d="
				M51.06,245.797c0,0,65.062-34.688,59.531-91.219"/>
			
				<path style="fill:none;stroke:#000000;stroke-width:8.5039;stroke-linecap:round;stroke-linejoin:round;stroke-miterlimit:22.9256;" d="
				M55.466,214.953c0,0,13.125-9,28.5-4.5"/>
			
				<path style="fill:none;stroke:#000000;stroke-width:8.5039;stroke-linecap:round;stroke-linejoin:round;stroke-miterlimit:22.9256;" d="
				M265.763,241.913c-16.322,4.316-55.025-49.741-33.297-82.085"/>
			
				<path style="fill:none;stroke:#000000;stroke-width:8.5039;stroke-linecap:round;stroke-linejoin:round;stroke-miterlimit:22.9256;" d="
				M263.352,156.788c-0.956-2.157-19.823-12.449-30.886,3.04"/>
			
				<path style="fill:none;stroke:#000000;stroke-width:8.5039;stroke-linecap:round;stroke-linejoin:round;stroke-miterlimit:22.9256;" d="
				M123.622,389.423c0,0,54,18.058,108,0.75"/>
			
				<path style="fill:none;stroke:#000000;stroke-width:8.5039;stroke-linecap:round;stroke-linejoin:round;stroke-miterlimit:22.9256;" d="
				M327.247,253.297c0,0,13.688,15.938,7.5,45.75"/>
			
				<path style="fill:none;stroke:#000000;stroke-width:8.5039;stroke-linecap:round;stroke-linejoin:round;stroke-miterlimit:22.9256;" d="
				M347.329,262.75c0,0,2.555,8.065,2.213,12.985"/>
			
				<path style="fill:none;stroke:#000000;stroke-width:8.5039;stroke-linecap:round;stroke-linejoin:round;stroke-miterlimit:22.9256;" d="
				M11.816,259.822c0,0-14.194,15.976-3.694,55.351"/>
			
				<path style="fill:none;stroke:#000000;stroke-width:8.5039;stroke-linecap:round;stroke-linejoin:round;stroke-miterlimit:22.9256;" d="
				M199.747,232.673c0,0,1.875,9,11.625,9.375"/>
			
				<path style="fill:none;stroke:#000000;stroke-width:8.5039;stroke-linecap:round;stroke-linejoin:round;stroke-miterlimit:22.9256;" d="
				M132.247,231.172c0,0,3.75,11.626-6,12.001"/>
			
				<path style="fill:none;stroke:#000000;stroke-width:8.5039;stroke-linecap:round;stroke-linejoin:round;stroke-miterlimit:22.9256;" d="
				M199.747,232.673c0,0,15.75-1.126,11.625,9.375"/>
			
				<path style="fill:none;stroke:#000000;stroke-width:8.5039;stroke-linecap:round;stroke-linejoin:round;stroke-miterlimit:22.9256;" d="
				M132.247,231.172c0,0-13.126,7.876-6,12.001"/>
			
				<path style="fill:none;stroke:#000000;stroke-width:8.5039;stroke-linecap:round;stroke-linejoin:round;stroke-miterlimit:22.9256;" d="
				M241.746,216.922c0,0,18.375-1.875,27,3"/>
			
				<path style="fill:none;stroke:#000000;stroke-width:8.5039;stroke-linecap:round;stroke-linejoin:round;stroke-miterlimit:22.9256;" d="
				M247.933,173.046c-0.188-6.375,10.5-10.874,12-0.188"/>
			
				<path style="fill:none;stroke:#000000;stroke-width:8.5039;stroke-linecap:round;stroke-linejoin:round;stroke-miterlimit:22.9256;" d="
				M249.243,216.57c0,0-2.205-31.715-1.31-43.523"/>
			
				<path style="fill:none;stroke:#000000;stroke-width:8.5039;stroke-linecap:round;stroke-linejoin:round;stroke-miterlimit:22.9256;" d="
				M259.371,183.546c0,0,0.75-4.312,0.562-10.688"/>
			
				<path style="fill:none;stroke:#000000;stroke-width:8.5039;stroke-linecap:round;stroke-linejoin:round;stroke-miterlimit:22.9256;" d="
				M248.06,194.821c0,0,11.023-8.998,11.311-11.275"/>
			
				<path style="fill:none;stroke:#000000;stroke-width:8.5039;stroke-linecap:round;stroke-linejoin:round;stroke-miterlimit:22.9256;" d="
				M259.746,204.547c0,0,0.645,10.121-0.025,12.663"/>
			
				<path style="fill:none;stroke:#000000;stroke-width:8.5039;stroke-linecap:round;stroke-linejoin:round;stroke-miterlimit:22.9256;" d="
				M248.06,194.821c0,0,7.561,4.288,11.686,9.726"/>
			
				<path style="fill:none;stroke:#000000;stroke-width:8.5039;stroke-linecap:round;stroke-linejoin:round;stroke-miterlimit:22.9256;" d="
				M68.683,159.171c0-8.062,16.125-9.562,16.125-1.124"/>
			
				<path style="fill:none;stroke:#000000;stroke-width:8.5039;stroke-linecap:round;stroke-linejoin:round;stroke-miterlimit:22.9256;" d="
				M65.496,210.549c0,0,1.147-40.296,3.199-51.743"/>
			
				<path style="fill:none;stroke:#000000;stroke-width:8.5039;stroke-linecap:round;stroke-linejoin:round;stroke-miterlimit:22.9256;" d="
				M83.684,168.171c0,0,0.936-5.437,1.124-10.124"/>
			
				<path style="fill:none;stroke:#000000;stroke-width:8.5039;stroke-linecap:round;stroke-linejoin:round;stroke-miterlimit:22.9256;" d="
				M68.063,178.395c0,0,7.745-7.787,15.62-10.224"/>
			
				<path style="fill:none;stroke:#000000;stroke-width:8.5039;stroke-linecap:round;stroke-linejoin:round;stroke-miterlimit:22.9256;" d="
				M82.371,195.547c0,0-7.614-11.052-14.307-17.151"/>
			
				<path style="fill:none;stroke:#000000;stroke-width:8.5039;stroke-linecap:round;stroke-linejoin:round;stroke-miterlimit:22.9256;" d="
				M80.153,209.593c0,0,1.842-4.858,2.217-14.046"/>
			
				<path style="fill:none;stroke:#000000;stroke-width:8.5039;stroke-linecap:round;stroke-linejoin:round;stroke-miterlimit:22.9256;" d="
				M82.089,271.202c0,0,78.188,33.75,173.063,2.062"/>
			
				<path style="fill:none;stroke:#000000;stroke-width:8.5039;stroke-linecap:round;stroke-linejoin:round;stroke-miterlimit:22.9256;" d="
				M279.714,317.327c12-13.124,14.625-55.875-24.562-44.062"/>
			
				<path style="fill:none;stroke:#000000;stroke-width:8.5039;stroke-linecap:round;stroke-linejoin:round;stroke-miterlimit:22.9256;" d="
				M82.089,271.202c-18.375-8.25-53.25,13.689-16.688,47.626"/>
			
				<path style="fill:none;stroke:#000000;stroke-width:8.5039;stroke-linecap:round;stroke-linejoin:round;stroke-miterlimit:22.9256;" d="
				M279.714,317.327c-15.918,18.694-56.998,29.687-99.572,31.468c-47.11,1.971-91.736-9.774-114.741-29.967"/>
			
				<path style="fill:none;stroke:#000000;stroke-width:8.5039;stroke-linecap:round;stroke-linejoin:round;stroke-miterlimit:22.9256;" d="
				M166.745,299.797c0,0,14.625,14.25,25.875-2.812"/>
			
				<path style="fill:none;stroke:#000000;stroke-width:8.5039;stroke-linecap:round;stroke-linejoin:round;stroke-miterlimit:22.9256;" d="
				M222.246,295.109c0,0-12.43,19.688-29.625,1.875"/>
			
				<path style="fill:none;stroke:#000000;stroke-width:8.5039;stroke-linecap:round;stroke-linejoin:round;stroke-miterlimit:22.9256;" d="
				M247.813,286.409c0,0-5.13,23.723-25.567,8.7"/>
			
				<path style="fill:none;stroke:#000000;stroke-width:8.5039;stroke-linecap:round;stroke-linejoin:round;stroke-miterlimit:22.9256;" d="
				M247.326,293.703c0,0,18.423-0.28,15.235-17.53"/>
			
				<path style="fill:none;stroke:#000000;stroke-width:8.5039;stroke-linecap:round;stroke-linejoin:round;stroke-miterlimit:22.9256;" d="
				M254.496,306.359c0,0,10.594-15.188,23.422,8.438"/>
			
				<path style="fill:none;stroke:#000000;stroke-width:8.5039;stroke-linecap:round;stroke-linejoin:round;stroke-miterlimit:22.9256;" d="
				M242.683,316.672c0,0,6.56-20.625,22.406,0.655"/>
			
				<path style="fill:none;stroke:#000000;stroke-width:8.5039;stroke-linecap:round;stroke-linejoin:round;stroke-miterlimit:22.9256;" d="
				M230.308,328.297c0,0,6.175-22.733,22.602-5.693"/>
			
				<path style="fill:none;stroke:#000000;stroke-width:8.5039;stroke-linecap:round;stroke-linejoin:round;stroke-miterlimit:22.9256;" d="
				M132.058,296.047c0,0,15.938,18.75,34.688,3.75"/>
			
				<path style="fill:none;stroke:#000000;stroke-width:8.5039;stroke-linecap:round;stroke-linejoin:round;stroke-miterlimit:22.9256;" d="
				M105.808,291.172c0,0,11.626,19.688,26.25,4.875"/>
			
				<path style="fill:none;stroke:#000000;stroke-width:8.5039;stroke-linecap:round;stroke-linejoin:round;stroke-miterlimit:22.9256;" d="
				M88.387,284.318c0,0,1.507,20.124,18.75,9.189"/>
			
				<path style="fill:none;stroke:#000000;stroke-width:8.5039;stroke-linecap:round;stroke-linejoin:round;stroke-miterlimit:22.9256;" d="
				M74.722,271.554c0,0-5.006,23.114,14.307,20.761"/>
			
				<path style="fill:none;stroke:#000000;stroke-width:8.5039;stroke-linecap:round;stroke-linejoin:round;stroke-miterlimit:22.9256;" d="
				M69.716,317.174c0,0,16.78-29.003,28.029-4.627"/>
			
				<path style="fill:none;stroke:#000000;stroke-width:8.5039;stroke-linecap:round;stroke-linejoin:round;stroke-miterlimit:22.9256;" d="
				M86.816,322.018c0,0,10.929-19.449,22.367-2.707"/>
			
				<path style="fill:none;stroke:#000000;stroke-width:8.5039;stroke-linecap:round;stroke-linejoin:round;stroke-miterlimit:22.9256;" d="
				M102.483,327.721c0,0,13.262-20.237,26.2,2.075"/>
			
				<path style="fill:none;stroke:#000000;stroke-width:8.5039;stroke-linecap:round;stroke-linejoin:round;stroke-miterlimit:22.9256;" d="
				M154.745,334.672c0,0-10.552-17.054-26.062-4.876"/>
			
				<path style="fill:none;stroke:#000000;stroke-width:8.5039;stroke-linecap:round;stroke-linejoin:round;stroke-miterlimit:22.9256;" d="
				M184.558,335.234c0,0-10.875-17.064-29.813-0.562"/>
			
				<path style="fill:none;stroke:#000000;stroke-width:8.5039;stroke-linecap:round;stroke-linejoin:round;stroke-miterlimit:22.9256;" d="
				M207.996,334.484c0,0-8.062-15.75-23.438,0.75"/>
			
				<path style="fill:none;stroke:#000000;stroke-width:8.5039;stroke-linecap:round;stroke-linejoin:round;stroke-miterlimit:22.9256;" d="
				M230.308,328.297c0,0-12.492-11.123-22.312,6.188"/>
		</g>
	</g>
</g>
<g id="n0404">
	<g>
		
			<path style="fill:none;stroke:#000000;stroke-width:8.5039;stroke-linecap:round;stroke-linejoin:round;stroke-miterlimit:22.9256;" d="
			M330.997,82.11c5.488,0,9.938,4.449,9.938,9.938c0,5.488-4.449,9.937-9.938,9.937c-5.488,0-9.938-4.449-9.938-9.937
			C321.06,86.56,325.509,82.11,330.997,82.11L330.997,82.11z"/>
		
			<path style="fill:none;stroke:#000000;stroke-width:8.5041;stroke-linecap:round;stroke-linejoin:round;stroke-miterlimit:22.9256;" d="
			M304.841,156.36c9.785,0,17.719,7.933,17.719,17.718c0,9.786-7.934,17.719-17.719,17.719c-9.785,0-17.719-7.933-17.719-17.719
			C287.122,164.293,295.056,156.36,304.841,156.36L304.841,156.36z"/>
		
			<path style="fill:#FFFFFF;stroke:#000000;stroke-width:8.5039;stroke-linecap:round;stroke-linejoin:round;stroke-miterlimit:22.9256;" d="
			M313.372,200.235c4.246,0,7.688,3.442,7.688,7.687c0,4.246-3.441,7.688-7.688,7.688s-7.688-3.442-7.688-7.688
			C305.685,203.677,309.126,200.235,313.372,200.235L313.372,200.235z"/>
	</g>
</g>
</svg>
