<svg version="1.1" xmlns="http://www.w3.org/2000/svg" xmlns:xlink="http://www.w3.org/1999/xlink" x="0px" y="0px"
	 viewBox="0 0 382.447 556.787" style="enable-background:new 0 0 382.447 556.787;" xml:space="preserve">
<g id="n0601">
	<g>
		<g>
			
				<path style="fill:none;stroke:#000000;stroke-width:8.5039;stroke-linecap:round;stroke-linejoin:round;stroke-miterlimit:22.9256;" d="
				M16.904,261.773c0,0-5.25,36.375,13.5,64.125"/>
			
				<path style="fill:none;stroke:#000000;stroke-width:8.5039;stroke-linecap:round;stroke-linejoin:round;stroke-miterlimit:22.9256;" d="
				M4.529,292.898c0,0-1.875,12,4.125,22.125"/>
			
				<path style="fill:none;stroke:#000000;stroke-width:8.5039;stroke-linecap:round;stroke-linejoin:round;stroke-miterlimit:22.9256;" d="
				M369.404,244.898c0,0,7.5,13.125,5.625,57.75"/>
		</g>
		<g>
			<polygon style="fill-rule:evenodd;clip-rule:evenodd;fill:#E085AD;" points="67.743,113.294 60.075,97.214 48.712,77.212 
				41.55,56.046 39.361,35.786 40.682,20.393 48.861,9.137 62.372,4.407 72.113,13.219 75.397,28.694 77.262,43.916 80.126,59.058 
				83.897,73.291 88.274,85.915 79.94,96.946 71.254,108.022 67.743,113.294 			"/>
			<polygon style="fill-rule:evenodd;clip-rule:evenodd;fill:#F8D63F;" points="226.879,88.147 235.658,78.383 246.916,70.644 
				258.036,68.138 269.408,71.9 277.129,79.147 276.683,91.67 274.71,104.29 271.879,112.897 260.43,104.168 244.778,97.445 
				232.854,93.045 226.879,88.147 			"/>
			<polygon style="fill-rule:evenodd;clip-rule:evenodd;fill:#E085AD;" points="292.611,117.45 303.754,119.272 310.807,107.451 
				317.433,92.184 322.523,73.755 324.644,53.507 322.879,32.272 317.155,17.315 306.008,6.357 293.936,5.49 285.731,13.562 
				281.364,25.026 279.754,33.397 286.741,41.555 287.159,54.684 289.152,67.836 291.508,79.44 293.235,90.749 293.409,103.42 
				292.611,117.45 			"/>
			<polygon style="fill-rule:evenodd;clip-rule:evenodd;fill:#68569D;" points="221.817,89.46 226.879,88.147 233.712,80.547 
				240.78,74.243 233.604,64.817 219.383,51.307 203.549,41.384 186.29,35.35 166.58,33.668 148.254,36.571 128.275,44.253 
				112.195,56.159 98.984,71.665 88.274,85.915 75.597,102.484 63.353,120.371 52.939,139.99 44.636,160.131 38.337,180.741 
				33.706,203.609 31.481,225.612 31.879,250.148 36.661,251.989 43.232,238.422 55.15,224.004 67.749,215.829 78.517,212.11 
				77.067,205.335 85.08,199.61 90.826,195.015 88.3,180.126 84.005,165.386 78.998,148.237 77.741,137.117 80.996,123.799 
				88.762,114.421 100.914,110.074 114.004,111.022 122.941,101.819 134.537,93.199 152.413,84.637 169.246,80.736 187.553,80.413 
				204.194,83.314 221.817,89.46 			"/>
			<polygon style="fill-rule:evenodd;clip-rule:evenodd;fill:#F8D63F;" points="150.491,218.966 153.004,212.647 147.002,199.833 
				143.475,185.523 147.056,172.019 158.628,165.117 169.69,164.703 174.957,150.828 178.153,133.008 178.123,113.923 
				174.725,95.68 169.246,80.736 152.413,84.637 136.64,91.921 124.786,100.449 114.004,111.022 100.914,110.074 86.208,116.606 
				79.262,128.031 78.004,142.523 81.502,156.811 85.988,171.954 88.87,182.335 90.826,195.015 77.067,205.335 78.517,212.11 
				90.428,210.3 110.27,210.854 128.397,213.828 141.219,216.723 150.491,218.966 			"/>
			<polygon style="fill-rule:evenodd;clip-rule:evenodd;" points="104.983,191.133 122.952,191.183 122.528,180.384 
				119.971,173.275 108.555,167.93 99.363,165.644 107.587,157.028 116.442,149.086 113.666,139.097 104.667,134.76 97.818,139.888 
				95.916,148.741 96.898,156.609 102.275,176.256 104.983,191.133 			"/>
			<polygon style="fill-rule:evenodd;clip-rule:evenodd;fill:#FFFFFF;" points="169.246,80.736 174.725,95.68 178.123,113.923 
				178.153,133.008 174.638,150.763 169.69,164.703 178.582,169.759 183.942,175.335 190.381,173.698 198.093,165.816 
				207.208,160.888 220.011,159.983 231.567,166.606 237.399,175.651 237.741,189.434 234.753,197.302 231.004,203.647 
				232.438,209.058 243.846,206.39 258.6,204.12 273.78,203.456 286.984,204.61 295.212,206.35 298.879,200.085 291.434,194.168 
				295.66,184.798 301.344,173.595 306.596,162.721 312.954,148.781 314.573,137.845 312.145,127.798 303.754,119.272 
				292.611,117.45 293.176,107.503 293.322,97.086 292.124,82.767 289.152,67.836 287.159,54.684 286.741,41.555 288.004,28.522 
				280.559,29.212 278.993,42.675 278.542,52.781 278.153,65.484 277.129,79.147 276.683,91.67 274.71,104.29 271.879,112.897 
				262,105.366 249.965,99.241 238.817,95.245 226.879,88.147 217.074,87.506 204.194,83.314 187.553,80.413 169.246,80.736 			"/>
			<polygon style="fill-rule:evenodd;clip-rule:evenodd;" points="261.199,185.4 265.03,174.08 269.349,162.09 274.317,150.024 
				282.917,141.009 291.842,139.268 296.837,146.27 296.667,153.904 295.692,159.024 285.098,159.258 277.303,159.165 
				280.537,168.157 285.379,178.149 279.567,188.837 269.495,187.403 261.199,185.4 			"/>
			<polygon style="fill-rule:evenodd;clip-rule:evenodd;fill:#F8D63F;" points="312.032,148.991 316.879,151.898 322.969,162.611 
				327.696,176.77 330.073,190.149 334.299,205.913 341.638,220.879 350.047,237.067 357.571,255.398 362.028,273.257 
				363.614,291.363 362.748,307.456 363.643,320.249 369.003,335.422 375.713,350.974 379.774,364.04 379.797,379.678 
				374.54,391.703 367.129,400.522 360.09,398.88 361.99,387.992 362.673,375.351 361.379,359.24 358.325,344.711 353.554,329.939 
				348.754,318.397 342.838,314.465 347.771,302.196 349.045,287.228 347.319,269.219 344.269,255.451 337.306,240.277 
				328.18,226.307 313.467,214.679 295.212,206.35 298.879,200.085 291.434,194.168 295.66,184.798 301.193,173.523 
				306.596,162.721 312.032,148.991 			"/>
			<polygon style="fill-rule:evenodd;clip-rule:evenodd;fill:#68569D;" points="54.161,328.678 68.091,342.466 84.686,355.3 
				103.613,366.674 121.86,375.131 140.173,381.606 164.161,388.242 162.773,409.587 160.932,429.681 157.736,453.595 
				154.283,472.773 149.596,491.806 141.763,511.843 125.953,508.086 105.222,493.232 95.246,478.68 92.629,470.272 79.877,468.04 
				62.702,453.397 54.586,436.578 54.754,417.023 57.674,402.206 59.759,383.358 59.43,363.044 56.228,343.17 54.161,328.678 			"/>
			<polygon style="fill-rule:evenodd;clip-rule:evenodd;fill:#F8D63F;" points="231.287,389.742 248.041,385.595 265.601,379.264 
				284.507,369.89 302.942,357.833 317.735,345.373 331.985,330.275 343.161,314.679 348.754,318.397 353.554,329.939 
				359.426,349.099 362.026,367.295 361.99,387.992 357.852,406.915 349.941,425.1 336.698,444.592 321.643,460.977 
				322.879,476.647 315.766,493.053 303.102,503.486 289.278,509.862 273.315,512.147 261.145,508.168 255.338,501.56 
				245.354,509.012 240.776,496.409 236.708,481.443 233.961,466.829 232.336,452.631 231.053,432.8 230.83,418.017 230.84,403.172 
				231.287,389.742 			"/>
			
				<path style="fill:none;stroke:#000000;stroke-width:8.5039;stroke-linecap:round;stroke-linejoin:round;stroke-miterlimit:22.9256;" d="
				M131.629,493.523c0,0-32.625-12-13.5-81.75"/>
			
				<path style="fill:none;stroke:#000000;stroke-width:8.5039;stroke-linecap:round;stroke-linejoin:round;stroke-miterlimit:22.9256;" d="
				M237.825,485.554c-4.875-43.501,43.805-52.406,59.18-87.281"/>
			
				<path style="fill:none;stroke:#000000;stroke-width:8.5039;stroke-linecap:round;stroke-linejoin:round;stroke-miterlimit:22.9256;" d="
				M365.068,402.887c32.25-31.5-5.399-75.18-2.814-91.615"/>
			
				<path style="fill:none;stroke:#000000;stroke-width:8.5039;stroke-linecap:round;stroke-linejoin:round;stroke-miterlimit:22.9256;" d="
				M316.879,151.898c16.727,25.034,8.31,37.371,20.901,61.718c12.038,23.277,31.107,51.256,24.474,97.656"/>
			
				<path style="fill:none;stroke:#000000;stroke-width:8.5039;stroke-linecap:round;stroke-linejoin:round;stroke-miterlimit:22.9256;" d="
				M114.004,111.022c0,0,35.685-52.875,104.685-22.875"/>
			
				<path style="fill:none;stroke:#000000;stroke-width:8.5039;stroke-linecap:round;stroke-linejoin:round;stroke-miterlimit:22.9256;" d="
				M226.879,88.147c7.875,10.5,25.875,6.375,45,24.75"/>
			
				<path style="fill:none;stroke:#000000;stroke-width:8.5039;stroke-linecap:round;stroke-linejoin:round;stroke-miterlimit:22.9256;" d="
				M226.879,88.147c0,0,26.625-38.25,50.25-9"/>
			
				<path style="fill:none;stroke:#000000;stroke-width:8.5039;stroke-linecap:round;stroke-linejoin:round;stroke-miterlimit:22.9256;" d="
				M250.129,84.772c0,0,11.069-0.322,24.375,15.75"/>
			
				<path style="fill:none;stroke:#000000;stroke-width:8.5039;stroke-linecap:round;stroke-linejoin:round;stroke-miterlimit:22.9256;" d="
				M110.527,78.139c0,0,39.541-53.367,100.255-9.867"/>
			
				<path style="fill:none;stroke:#000000;stroke-width:8.5039;stroke-linecap:round;stroke-linejoin:round;stroke-miterlimit:22.9256;" d="
				M288.782,29.888c-5.812,37.125,9.206,55.333,3.956,85.333"/>
			
				<path style="fill:none;stroke:#000000;stroke-width:8.5039;stroke-linecap:round;stroke-linejoin:round;stroke-miterlimit:22.9256;" d="
				M60.379,28.522c5.905,39.75,15.75,58.875,10.875,79.5"/>
			
				<path style="fill:none;stroke:#000000;stroke-width:8.5039;stroke-linecap:round;stroke-linejoin:round;stroke-miterlimit:22.9256;" d="
				M240.78,74.243c-8.49-13.177-48.28-61.937-112.505-29.989c-19.766,9.833-30.085,30.208-57.021,63.769"/>
			
				<path style="fill:none;stroke:#000000;stroke-width:8.5039;stroke-linecap:round;stroke-linejoin:round;stroke-miterlimit:22.9256;" d="
				M39.754,24.772c0.75-15,30-37.125,35.25-0.75"/>
			
				<path style="fill:none;stroke:#000000;stroke-width:8.5039;stroke-linecap:round;stroke-linejoin:round;stroke-miterlimit:22.9256;" d="
				M67.743,113.294c-3-16.875-32.114-37.146-27.989-88.521"/>
			
				<path style="fill:none;stroke:#000000;stroke-width:8.5039;stroke-linecap:round;stroke-linejoin:round;stroke-miterlimit:22.9256;" d="
				M88.274,85.915c-8.625-22.125-11.934-44.245-13.27-61.893"/>
			
				<path style="fill:none;stroke:#000000;stroke-width:8.5039;stroke-linecap:round;stroke-linejoin:round;stroke-miterlimit:22.9256;" d="
				M271.879,112.897c7.875-16.5,5.25-56.25,7.875-79.5"/>
			
				<path style="fill:none;stroke:#000000;stroke-width:8.5039;stroke-linecap:round;stroke-linejoin:round;stroke-miterlimit:22.9256;" d="
				M322.879,32.272c-4.875-27.376-36.375-46.125-43.125,1.125"/>
			
				<path style="fill:none;stroke:#000000;stroke-width:8.5039;stroke-linecap:round;stroke-linejoin:round;stroke-miterlimit:22.9256;" d="
				M303.754,119.272c0,0,28.125-37.875,19.125-87.001"/>
			
				<path style="fill:none;stroke:#000000;stroke-width:8.5039;stroke-linecap:round;stroke-linejoin:round;stroke-miterlimit:22.9256;" d="
				M123.004,121.897c-4.5-10.125-14.932-14.445-28.078-10.61c-9.264,2.702-18.967,14.402-16.922,31.235"/>
			
				<path style="fill:none;stroke:#000000;stroke-width:8.5039;stroke-linecap:round;stroke-linejoin:round;stroke-miterlimit:22.9256;" d="
				M90.826,195.015c0.751-10.5-12.714-44.607-12.822-52.493"/>
			
				<path style="fill:none;stroke:#000000;stroke-width:8.5039;stroke-linecap:round;stroke-linejoin:round;stroke-miterlimit:22.9256;" d="
				M267.004,134.273c9-14.625,23.621-20.079,36.75-15c8.039,3.109,15.301,17.221,7.5,33.75"/>
			
				<path style="fill:none;stroke:#000000;stroke-width:8.5039;stroke-linecap:round;stroke-linejoin:round;stroke-miterlimit:22.9256;" d="
				M291.434,194.168c3.707-9.395,17.998-36.528,19.82-41.146"/>
			
				<path style="fill:none;stroke:#000000;stroke-width:8.5039;stroke-linecap:round;stroke-linejoin:round;stroke-miterlimit:22.9256;" d="
				M285.098,117.416c0,0-0.844,23.606-3.094,26.606"/>
			
				<path style="fill:none;stroke:#000000;stroke-width:8.5039;stroke-linecap:round;stroke-linejoin:round;stroke-miterlimit:22.9256;" d="
				M293.629,141.773c0,0,13.875-6,25.125-22.125"/>
			
				<path style="fill:none;stroke:#000000;stroke-width:8.5039;stroke-linecap:round;stroke-linejoin:round;stroke-miterlimit:22.9256;" d="
				M296.254,149.272c0,0,18.065,7.876,33.815-2.249"/>
			
				<path style="fill:none;stroke:#000000;stroke-width:8.5039;stroke-linecap:round;stroke-linejoin:round;stroke-miterlimit:22.9256;" d="
				M107.629,102.887c0,0-1.227,27.32,2.898,31.82"/>
			
				<path style="fill:none;stroke:#000000;stroke-width:8.5039;stroke-linecap:round;stroke-linejoin:round;stroke-miterlimit:22.9256;" d="
				M81.639,113.294c3,9,12.098,16.913,17.724,21.413"/>
			
				<path style="fill:none;stroke:#000000;stroke-width:8.5039;stroke-linecap:round;stroke-linejoin:round;stroke-miterlimit:22.9256;" d="
				M71.254,138.989c4.265,4.038,18.579,3.625,26.625,5.034"/>
			
				<path style="fill:none;stroke:#000000;stroke-width:8.5039;stroke-linecap:round;stroke-linejoin:round;stroke-miterlimit:22.9256;" d="
				M274.317,150.024c3.75-10.258,28.688-22.12,21.375,9"/>
			
				<path style="fill:none;stroke:#000000;stroke-width:8.5039;stroke-linecap:round;stroke-linejoin:round;stroke-miterlimit:22.9256;" d="
				M274.504,158.836c7.074,0.882,12.381,1.263,21.188,0.188"/>
			
				<path style="fill:none;stroke:#000000;stroke-width:8.5039;stroke-linecap:round;stroke-linejoin:round;stroke-miterlimit:22.9256;" d="
				M285.379,178.149c0,0-3.938-10.125-10.875-19.313"/>
			
				<path style="fill:none;stroke:#000000;stroke-width:8.5039;stroke-linecap:round;stroke-linejoin:round;stroke-miterlimit:22.9256;" d="
				M279.567,188.837c0,0,5.062-7.314,5.812-10.689"/>
			
				<path style="fill:none;stroke:#000000;stroke-width:8.5039;stroke-linecap:round;stroke-linejoin:round;stroke-miterlimit:22.9256;" d="
				M261.199,185.4c0,0,8.244-25.252,13.118-35.377"/>
			
				<path style="fill:none;stroke:#000000;stroke-width:8.5039;stroke-linecap:round;stroke-linejoin:round;stroke-miterlimit:22.9256;" d="
				M116.442,149.086c0.75-17.625-22.148-21.584-20.438,2.625"/>
			
				<path style="fill:none;stroke:#000000;stroke-width:8.5039;stroke-linecap:round;stroke-linejoin:round;stroke-miterlimit:22.9256;" d="
				M104.983,191.133c0-9.562-8.98-34.547-8.979-39.422"/>
			
				<path style="fill:none;stroke:#000000;stroke-width:8.5039;stroke-linecap:round;stroke-linejoin:round;stroke-miterlimit:22.9256;" d="
				M99.363,165.644c0,0,12.767-13.933,17.079-16.558"/>
			
				<path style="fill:none;stroke:#000000;stroke-width:8.5039;stroke-linecap:round;stroke-linejoin:round;stroke-miterlimit:22.9256;" d="
				M121.692,175.711c0,0-0.221-5.51-22.329-10.068"/>
			
				<path style="fill:none;stroke:#000000;stroke-width:8.5039;stroke-linecap:round;stroke-linejoin:round;stroke-miterlimit:22.9256;" d="
				M122.949,191.706c0,0,0.133-12.074-1.257-15.995"/>
			<path style="fill-rule:evenodd;clip-rule:evenodd;fill:#68569D;" d="M164.161,388.242c0,0,7.242,18.695-10.758-31.162
				S82.606,242.71,78.004,218.966c-4.602-23.744-0.937-36.645-0.937-36.645s-49.665,42.9-41.665,79.567s5.954,52.001,24.977,81.334
				C79.402,372.555,145.585,401.261,164.161,388.242z"/>
			<path style="fill-rule:evenodd;clip-rule:evenodd;fill:#F8D63F;" d="M72.567,214.165c0,0-16.282,17.651-1.29,60.783
				c14.993,43.132,34.88,80.239,66.326,98.391c31.445,18.151,61.334,15.648,60.667,18.528c-0.667,2.88,47.013-64.497,47.173-66.809
				c0.16-2.311-12.886-44.979-15.029-47.645c-2.143-2.666-16.097-20.602-16.097-20.602l-25.903-15.398l-6.726-58.901l-12.553-24.956
				l-26.471,10.348c0,0-1.261,28.365-0.595,30.169c0.667,1.804-65.002,7.262-65.002,7.262L72.567,214.165z"/>
			<path style="fill-rule:evenodd;clip-rule:evenodd;fill:#F8D63F;" d="M295.692,200.085c0,0-7.325,40.005-12.141,51.904
				c-4.815,11.899-3.462,5.481-22.353,41.899c-18.891,36.418-43.129,55.331-55.796,108.999
				c-12.667,53.668-8.338,66.333-6.836,82.667c1.502,16.334,22.809,28.435,25.502,31.909c2.693,3.474,50.204-12.306,50.436-11.94
				c0.232,0.365,61.111-170.968,61.111-170.968s19.121-25.334,17.787-38.667c-1.334-13.333-8.668-65.845-23.334-76.922
				C315.403,207.888,295.692,200.085,295.692,200.085z"/>
			<path style="fill-rule:evenodd;clip-rule:evenodd;fill:#68569D;" d="M133.157,505.523c3.387-0.968,2.842,12.366,30.319,11.699
				c27.478-0.667,48.778-5.379,48.778-5.379s-6.845-57.103-6.445-59.195c0.399-2.093,19.107-82.76,21.07-86.093
				c1.962-3.333-22.776-11.507-27.317-15.42c-4.541-3.913-26.336-19.247-30.316-19.247c-3.98,0-88.19-22.018-91.241-17.209
				c-3.051,4.809,59.597,67.643,63.39,76.093c3.794,8.45,2.777,99.719,2.777,102.751
				C144.171,496.555,133.157,505.523,133.157,505.523z"/>
			
				<path style="fill:none;stroke:#000000;stroke-width:8.5039;stroke-linecap:round;stroke-linejoin:round;stroke-miterlimit:22.9256;" d="
				M327.004,376.147c-22.5,73.5-80.149,75.826-75.375,129.376"/>
			
				<path style="fill:none;stroke:#000000;stroke-width:8.5039;stroke-linecap:round;stroke-linejoin:round;stroke-miterlimit:22.9256;" d="
				M322.261,468.812c9,36.375-65.951,65.49-70.167,21.288"/>
			
				<path style="fill:none;stroke:#000000;stroke-width:8.5039;stroke-linecap:round;stroke-linejoin:round;stroke-miterlimit:22.9256;" d="
				M284.254,496.898c19.875-28.125,113.814-76.344,62.48-183.044"/>
			
				<path style="fill:none;stroke:#000000;stroke-width:8.5039;stroke-linecap:round;stroke-linejoin:round;stroke-miterlimit:22.9256;" d="
				M90.004,373.147c16.875,24,0.013,80.434,2.625,97.125c2.611,16.691,23.138,38.361,46.5,41.626"/>
			
				<path style="fill:none;stroke:#000000;stroke-width:8.5039;stroke-linecap:round;stroke-linejoin:round;stroke-miterlimit:22.9256;" d="
				M237.474,485.554c-4.875-43.5,43.805-52.406,59.18-87.281"/>
			
				<path style="fill:none;stroke:#000000;stroke-width:8.5039;stroke-linecap:round;stroke-linejoin:round;stroke-miterlimit:22.9256;" d="
				M222.069,402.887c-4.714,0.51-17.814,20.32-16.666,39.636c1.147,19.315,3.89,44.242,5.084,54.375
				c1.194,10.133,8.099,22.349,23.338,20.349c15.239-2,24.667-11.724,24.667-11.724"/>
			
				<path style="fill:none;stroke:#000000;stroke-width:8.5039;stroke-linecap:round;stroke-linejoin:round;stroke-miterlimit:22.9256;" d="
				M139.129,468.812c0,0-6.731,21.012,5.104,36.711c11.835,15.699,24.813,11.994,49.703,9.336
				c24.89-2.658,20.498-3.016,20.498-3.016"/>
			
				<path style="fill:none;stroke:#000000;stroke-width:8.5039;stroke-linecap:round;stroke-linejoin:round;stroke-miterlimit:22.9256;" d="
				M249.379,190.267c0,0,24.938-12.118,49.5,9.818"/>
			
				<path style="fill:none;stroke:#000000;stroke-width:8.5039;stroke-linecap:round;stroke-linejoin:round;stroke-miterlimit:22.9256;" d="
				M77.067,205.335c0,0,25.687-23.062,53.812-11.062"/>
			
				<path style="fill:none;stroke:#000000;stroke-width:8.5039;stroke-linecap:round;stroke-linejoin:round;stroke-miterlimit:22.9256;" d="
				M171.379,87.397c5.25,9,8.226,59.626-3.774,90.751"/>
			
				<path style="fill:none;stroke:#000000;stroke-width:8.5039;stroke-linecap:round;stroke-linejoin:round;stroke-miterlimit:22.9256;" d="
				M71.254,108.022c-48.375,70.5-38.33,148.598-38.33,148.598l12.311,62.934c-5.874,34.959,5.769,53.218,2.019,71.218"/>
			
				<path style="fill:none;stroke:#000000;stroke-width:8.5039;stroke-linecap:round;stroke-linejoin:round;stroke-miterlimit:22.9256;" d="
				M50.911,324.867c10.875,31.5,11.719,57.656,3.844,92.156c-7.875,34.499,25.166,52.963,33.375,54.374"/>
		</g>
		<g>
			<path style="fill-rule:evenodd;clip-rule:evenodd;fill:#68569D;" d="M112.171,236.485c2.044-0.017,11.397,3.131,36.246,9.942
				c24.849,6.811,32.138,10.954,36.655,4.357c4.518-6.597,5.901-14.299,5.901-14.299s1.616,21.212,18.656,18.913
				c17.04-2.3,61.308-21.841,76.781-17.844c15.474,3.997,35.465,13.686,32.395,41.094c-3.07,27.407-15.406,45.636-32.238,58.021
				c-16.832,12.386-81.728,26.45-136.28,11.168c-54.552-15.282-65.92-24.893-78.986-52.338
				C58.235,268.054,59.608,236.915,112.171,236.485z"/>
			<g>
				<defs>
					<path id="SVGID_1_" d="M102.988,221.551c2.281-0.021,12.722,3.994,40.46,12.682c27.738,8.688,35.875,13.972,40.918,5.558
						c5.043-8.415,6.587-18.239,6.587-18.239s1.804,27.058,20.826,24.124c19.021-2.934,68.437-27.86,85.709-22.761
						c17.273,5.098,39.589,17.458,36.161,52.418c-3.428,34.961-17.197,58.212-35.986,74.011
						c-18.789,15.799-91.23,33.74-152.127,14.246c-60.895-19.494-73.586-31.754-88.171-66.762
						C42.78,261.821,44.312,222.101,102.988,221.551z"/>
				</defs>
				<clipPath id="SVGID_2_">
					<use xlink:href="#SVGID_1_"  style="overflow:visible;"/>
				</clipPath>
				
					<rect x="-0.198" y="129.064" style="clip-path:url(#SVGID_2_);fill-rule:evenodd;clip-rule:evenodd;fill:#49B37E;" width="191.15" height="327.284"/>
			</g>
		</g>
	</g>
</g>
<g id="n0602">
	<g>
		<polygon style="fill-rule:evenodd;clip-rule:evenodd;fill:#81CECE;" points="231.287,389.742 230.727,406.577 230.932,429.457 
			232.336,452.631 234.817,472.478 238.596,490.409 245.354,509.012 253.411,520.992 239.245,536.421 218.075,548.984 
			192.907,552.366 164.958,544.373 148.67,533.312 138.661,518.367 146.935,500.968 152.258,482.644 156.308,462.902 
			159.164,444.289 161.504,424.201 163.134,405.432 164.161,388.242 183.105,390.446 202.993,391.765 231.287,389.742 		"/>
		
			<path style="fill:none;stroke:#000000;stroke-width:8.5039;stroke-linecap:round;stroke-linejoin:round;stroke-miterlimit:22.9256;" d="
			M231.287,389.742c0,0-6.375,101.25,22.124,131.25"/>
		
			<path style="fill:none;stroke:#000000;stroke-width:8.5039;stroke-linecap:round;stroke-linejoin:round;stroke-miterlimit:22.9256;" d="
			M138.661,518.367c0.75,16.5,67.501,66.375,114.749,2.625"/>
		
			<path style="fill:none;stroke:#000000;stroke-width:8.5039;stroke-linecap:round;stroke-linejoin:round;stroke-miterlimit:22.9256;" d="
			M164.161,388.242c0,0-3.749,97.875-25.499,130.125"/>
	</g>
</g>
<g id="n0602_1_">
	<g>
		<polygon style="fill-rule:evenodd;clip-rule:evenodd;fill:#F8D63F;" points="175.432,334.407 173.536,327.866 174.655,306.716 
			179.394,297.521 187.184,292.144 200.168,290.95 210.057,293.687 213.848,299.553 209.01,306.737 207.418,315.194 
			207.063,335.759 195.554,342.762 188.592,335.853 182.376,333.802 175.432,334.407 		"/>
		
			<path style="fill:none;stroke:#000000;stroke-width:8.5039;stroke-linecap:round;stroke-linejoin:round;stroke-miterlimit:22.9256;" d="
			M196.223,282.303"/>
		
			<path style="fill:none;stroke:#000000;stroke-width:8.5039;stroke-linecap:round;stroke-linejoin:round;stroke-miterlimit:22.9256;" d="
			M196.223,282.303"/>
		
			<path style="fill:none;stroke:#000000;stroke-width:8.5039;stroke-linecap:round;stroke-linejoin:round;stroke-miterlimit:22.9256;" d="
			M187.408,309.842c0,0,24.003,4.148,26.44-10.289"/>
		
			<path style="fill:none;stroke:#000000;stroke-width:8.5039;stroke-linecap:round;stroke-linejoin:round;stroke-miterlimit:22.9256;" d="
			M173.834,332.726c0,0-1.498-37.06,15.886-41.368c5.93-1.469,24.208-0.807,24.128,8.195"/>
		
			<path style="fill:none;stroke:#000000;stroke-width:8.5039;stroke-linecap:round;stroke-linejoin:round;stroke-miterlimit:22.9256;" d="
			M209.01,306.737c0,0-2.921,24.541-1.947,29.023"/>
	</g>
</g>
<g id="n0602_2_">
	<g>
		<polygon style="fill-rule:evenodd;clip-rule:evenodd;fill:#FFFFFF;" points="118.774,240.126 116.867,253.765 117.92,264.907 
			123.182,271.008 131.453,272.148 136.637,280.133 145.408,283.418 158.348,280.866 165.86,287.088 174.626,290.512 
			185.931,289.619 196.223,283.303 203.029,286.992 212.321,288.939 221.267,286.007 226.411,280.304 235.288,282.964 
			244.036,281.278 250.103,273.771 258.59,273.72 264.494,267.363 266.9,258.543 267.474,248.483 265.706,240.761 250.479,245.249 
			233.088,251.924 215.481,256.31 202.887,255.108 195.281,246.426 189.59,245.187 185.072,251.784 173.266,254.237 
			156.954,251.199 142.501,246.856 131.079,243.224 118.774,240.126 		"/>
		<polygon style="fill-rule:evenodd;clip-rule:evenodd;fill:#E085AD;" points="107.747,333.116 109.282,316.809 110.372,304.179 
			115.506,295.996 125.667,291.618 134.77,293.075 140.196,299.698 140.52,306.268 145.957,311.013 148.417,318.792 
			158.498,322.111 166.036,327.929 175.432,323.407 188.592,324.853 195.554,331.762 204.784,325.43 216.116,325.303 
			224.536,329.617 235.213,322.271 239.893,314.415 248.186,309.554 249.366,303.268 255.6,298.472 263.946,296.15 275,301.918 
			280.104,310.14 283.772,320.12 285.464,326.651 286.567,337.668 266.816,346.83 243.307,351.624 220.038,354.319 200.67,355 
			176.156,353.461 150.287,348.836 129.001,342.83 107.747,333.116 		"/>
		<path style="fill-rule:evenodd;clip-rule:evenodd;fill:#F8D63F;" d="M347.102,267.695l-5.404-18.378l-8.781-16.08l-12.333-13.179
			l-14.232-8.757l-15.253-4.821l-17.318-2.023l-15.18,0.663l-14.754,2.271l-11.408,2.667l-1.434-5.411l5.242-10.279l2.34-10.896
			l-4.104-11.343l-10.443-9.819l-14.275-1.158l-11.671,5.666l-7.712,7.881l-7.099,0.95l-11.83-9.389l-12.824-0.142l-11.573,6.901
			l-3.581,13.504l3.528,14.311l6.002,12.814l-2.514,6.319l-28.508-6.19l-29.38-2.604l-24.854,5.657l-16.728,12.188l-11.074,17.189
			l-7.023,18.768l0.351,26.268l9.107,22.895l18.519,22.651L84.686,356.3l28.43,16.051l28.879,10.801l32.015,7.075l31.441,2.754
			l32.182-3.655l25.976-8.232l20.9-10.204l18.435-12.057l16.369-13.788l13.917-15.121l12.193-18.347l3.601-21.45L347.102,267.695z
			 M314.384,296.721c-3.145,9.811-8.692,51.821-79.171,57.077c-70.479,5.256-70.768,1.205-145.3-30.49
			c0,0-31.984-31.475-22.984-65.688c9-34.213,62.169-17.494,66.866-13.566c4.696,3.928,35.163,16.737,45.479,8.935
			c10.316-7.802,9.375-16.248,14.418-11.591c5.043,4.657,11.996,18.322,25.696,14.424c13.7-3.898,47.859-21.899,79.359-13.471
			C330.248,250.779,317.529,286.911,314.384,296.721z"/>
		
			<path style="fill:none;stroke:#000000;stroke-width:8.5039;stroke-linecap:round;stroke-linejoin:round;stroke-miterlimit:22.9256;" d="
			M178.401,405.609c0,0,19.375,2.752,36.999,0.877"/>
		
			<path style="fill:none;stroke:#000000;stroke-width:8.5039;stroke-linecap:round;stroke-linejoin:round;stroke-miterlimit:22.9256;" d="
			M50.911,325.867c18.75,22.875,64.004,61.405,145.869,66.822c62.549,4.14,122.9-36.537,147.007-78.072"/>
		
			<path style="fill:none;stroke:#000000;stroke-width:8.5039;stroke-linecap:round;stroke-linejoin:round;stroke-miterlimit:22.9256;" d="
			M169.411,223.866c-36.909-5.047-111.517-41.257-135.304,36.553c-8.545,27.955,7.319,55.344,16.804,65.447"/>
		
			<path style="fill:none;stroke:#000000;stroke-width:8.5039;stroke-linecap:round;stroke-linejoin:round;stroke-miterlimit:22.9256;" d="
			M343.787,314.617c13.124-18.375,11.811-147.563-127.688-99.563"/>
		
			<path style="fill:none;stroke:#000000;stroke-width:8.5039;stroke-linecap:round;stroke-linejoin:round;stroke-miterlimit:22.9256;" d="
			M30.754,326.898"/>
		
			<path style="fill:none;stroke:#000000;stroke-width:8.5039;stroke-linecap:round;stroke-linejoin:round;stroke-miterlimit:22.9256;" d="
			M362.254,312.272"/>
		
			<path style="fill:none;stroke:#000000;stroke-width:8.5039;stroke-linecap:round;stroke-linejoin:round;stroke-miterlimit:22.9256;" d="
			M157.879,151.773c0,0,14.625-3.376,27,3.749"/>
		
			<path style="fill:none;stroke:#000000;stroke-width:8.5039;stroke-linecap:round;stroke-linejoin:round;stroke-miterlimit:22.9256;" d="
			M212.254,148.023c0,0-18.75,1.125-27.375,7.499"/>
		
			<path style="fill:none;stroke:#000000;stroke-width:8.5039;stroke-linecap:round;stroke-linejoin:round;stroke-miterlimit:22.9256;" d="
			M188.985,175.554c9.152-12.505,26.571-19.695,38.723-11.158c9.379,6.589,18.36,22.004,0.694,43.824"/>
		
			<path style="fill:none;stroke:#000000;stroke-width:8.5039;stroke-linecap:round;stroke-linejoin:round;stroke-miterlimit:22.9256;" d="
			M186.719,175.188c-4.099-4.086-14.59-14.79-31.075-8.014c-7.131,2.933-26.576,20.371,0.373,50.379"/>
		
			<path style="fill:none;stroke:#000000;stroke-width:8.5039;stroke-linecap:round;stroke-linejoin:round;stroke-miterlimit:22.9256;" d="
			M171.379,209.898c1.342-2.367-2.852-20.017-7.801-20.321"/>
		
			<path style="fill:none;stroke:#000000;stroke-width:8.5039;stroke-linecap:round;stroke-linejoin:round;stroke-miterlimit:22.9256;" d="
			M208.129,205.773c-4.5-1.875,0.835-22.71,6.98-23.355"/>
		
			<path style="fill:none;stroke:#000000;stroke-width:8.5039;stroke-linecap:round;stroke-linejoin:round;stroke-miterlimit:22.9256;" d="
			M163.578,189.577c-3.75,1.874,1.051,20.696,7.801,20.321"/>
		
			<path style="fill:none;stroke:#000000;stroke-width:8.5039;stroke-linecap:round;stroke-linejoin:round;stroke-miterlimit:22.9256;" d="
			M215.11,182.417c3.749,1.5-0.23,23.73-6.98,23.355"/>
		
			<path style="fill:none;stroke:#000000;stroke-width:8.5039;stroke-linecap:round;stroke-linejoin:round;stroke-miterlimit:22.9256;" d="
			M191.254,228.273c0,0,3.375,26.249-14.625,26.25"/>
		
			<path style="fill:none;stroke:#000000;stroke-width:8.5039;stroke-linecap:round;stroke-linejoin:round;stroke-miterlimit:22.9256;" d="
			M176.629,254.523c-34.125-2.251-55.875-23.251-91.875-13.125"/>
		
			<path style="fill:none;stroke:#000000;stroke-width:8.5039;stroke-linecap:round;stroke-linejoin:round;stroke-miterlimit:22.9256;" d="
			M191.254,228.273c0,0,0.75,29.25,18.375,28.125"/>
		
			<path style="fill:none;stroke:#000000;stroke-width:8.5039;stroke-linecap:round;stroke-linejoin:round;stroke-miterlimit:22.9256;" d="
			M279.754,238.398c-34.125,3.75-48.375,19.125-70.125,18"/>
		
			<path style="fill:none;stroke:#000000;stroke-width:8.5039;stroke-linecap:round;stroke-linejoin:round;stroke-miterlimit:22.9256;" d="
			M317.629,273.272c0,0,4.125-36-37.875-34.875"/>
		
			<path style="fill:none;stroke:#000000;stroke-width:8.5039;stroke-linecap:round;stroke-linejoin:round;stroke-miterlimit:22.9256;" d="
			M258.754,349.023c12.934-3.315,56.438-12.751,58.875-75.751"/>
		
			<path style="fill:none;stroke:#000000;stroke-width:8.5039;stroke-linecap:round;stroke-linejoin:round;stroke-miterlimit:22.9256;" d="
			M84.754,241.398c-39.375,16.125-10.838,63.848-0.375,76.499"/>
		
			<path style="fill:none;stroke:#000000;stroke-width:8.5039;stroke-linecap:round;stroke-linejoin:round;stroke-miterlimit:22.9256;" d="
			M258.754,349.023c-16.021,2.775-47.012,8.811-82.599,4.438c-38.203-4.696-78.467-19.483-91.776-35.564"/>
		
			<path style="fill:none;stroke:#000000;stroke-width:8.5039;stroke-linecap:round;stroke-linejoin:round;stroke-miterlimit:22.9256;" d="
			M130.692,252.989c-1.5,4.125-0.657,35.954,27.656,27.877"/>
		
			<path style="fill:none;stroke:#000000;stroke-width:8.5039;stroke-linecap:round;stroke-linejoin:round;stroke-miterlimit:22.9256;" d="
			M116.168,243.741c0,0-7.007,27.767,12.93,27.759"/>
		
			<path style="fill:none;stroke:#000000;stroke-width:8.5039;stroke-linecap:round;stroke-linejoin:round;stroke-miterlimit:22.9256;" d="
			M158.348,280.866c0,0,17.25,20.812,37.875,2.438"/>
		
			<path style="fill:none;stroke:#000000;stroke-width:8.5039;stroke-linecap:round;stroke-linejoin:round;stroke-miterlimit:22.9256;" d="
			M226.411,280.304c0,0-8.625,17.249-30.188,2.999"/>
		
			<path style="fill:none;stroke:#000000;stroke-width:8.5039;stroke-linecap:round;stroke-linejoin:round;stroke-miterlimit:22.9256;" d="
			M254.156,254.523c0,0,2.63,39.656-27.745,25.781"/>
		
			<path style="fill:none;stroke:#000000;stroke-width:8.5039;stroke-linecap:round;stroke-linejoin:round;stroke-miterlimit:22.9256;" d="
			M270.735,243.741c0,0,5.25,33.325-17.75,32.016"/>
		
			<path style="fill:none;stroke:#000000;stroke-width:8.5039;stroke-linecap:round;stroke-linejoin:round;stroke-miterlimit:22.9256;" d="
			M129.098,332.241c0,0,12.75-27.186,36.938-4.311"/>
		
			<path style="fill:none;stroke:#000000;stroke-width:8.5039;stroke-linecap:round;stroke-linejoin:round;stroke-miterlimit:22.9256;" d="
			M196.036,332.616c0,0-9.188-18.749-30-4.686"/>
		
			<path style="fill:none;stroke:#000000;stroke-width:8.5039;stroke-linecap:round;stroke-linejoin:round;stroke-miterlimit:22.9256;" d="
			M224.536,329.617c0,0-16.688-13.501-28.5,2.999"/>
		
			<path style="fill:none;stroke:#000000;stroke-width:8.5039;stroke-linecap:round;stroke-linejoin:round;stroke-miterlimit:22.9256;" d="
			M257.723,333.553c-2.438-16.5-28.313-14.249-33.188-3.936"/>
		
			<path style="fill:none;stroke:#000000;stroke-width:8.5039;stroke-linecap:round;stroke-linejoin:round;stroke-miterlimit:22.9256;" d="
			M114.286,325.867c4.35-12.861,6.043-18.204,11.21-20.623c7.689-3.6,22.599,0.743,22.921,13.548"/>
		
			<path style="fill:none;stroke:#000000;stroke-width:8.5039;stroke-linecap:round;stroke-linejoin:round;stroke-miterlimit:22.9256;" d="
			M140.52,306.268c2.625-18.375-21.584-18.903-28.894-5.541c-2.729,4.987-1.234,10.727-3.878,32.389"/>
		
			<path style="fill:none;stroke:#000000;stroke-width:8.5039;stroke-linecap:round;stroke-linejoin:round;stroke-miterlimit:22.9256;" d="
			M235.213,322.271c0.75-10.501,30.76-29.03,37.885,10.533"/>
		
			<path style="fill:none;stroke:#000000;stroke-width:8.5039;stroke-linecap:round;stroke-linejoin:round;stroke-miterlimit:22.9256;" d="
			M247.973,306.24c4.125-5.438,31.781-22.991,38.437,24.877"/>
	</g>
</g>
</svg>
