<svg version="1.1" xmlns="http://www.w3.org/2000/svg" xmlns:xlink="http://www.w3.org/1999/xlink" x="0px" y="0px"
	 viewBox="0 0 448.962 486.244" style="enable-background:new 0 0 448.962 486.244;" xml:space="preserve">
<g id="n0701">
	<g>
		<polygon style="fill-rule:evenodd;clip-rule:evenodd;fill:#F8D63F;" points="214.964,343.161 216.629,413.027 233.129,423.902 
			249.629,410.402 246.992,398.474 245.331,385.539 245.572,343.051 231.76,343.977 221.269,343.709 214.964,343.161 		"/>
		<polygon style="fill-rule:evenodd;clip-rule:evenodd;fill:#FFFFFF;" points="217.19,399.141 216.629,413.027 233.129,423.902 
			215.879,436.277 190.379,420.152 196.346,411.969 205.115,403.521 217.19,399.141 		"/>
		<path style="fill-rule:evenodd;clip-rule:evenodd;fill:#FFFFFF;" d="M233.129,423.902c0,0,10.137,7.529,8.922,6.561
			c-1.215-0.969,8.328,7.314,8.328,7.314l7.214-7.629l7.526-9.015l4.385-5.856l-5.208-8.145l-6.049-5.751l-11.256-2.908
			l2.638,11.929l-6.871,7.97L233.129,423.902L233.129,423.902z"/>
		<polygon style="fill-rule:evenodd;clip-rule:evenodd;fill:#81CECE;" points="191.548,422.474 202.713,428.893 215.879,436.277 
			233.129,423.902 250.379,437.777 259.942,426.527 266.471,419.384 281.022,428.292 292.172,436.134 300.254,440.027 
			289.283,454.026 273.999,466.959 254.192,477.224 231.758,481.95 210.163,478.763 191.608,469.55 177.535,456.849 
			166.754,441.152 177.629,431.74 191.548,422.474 		"/>
		
			<path style="fill:none;stroke:#000000;stroke-width:8.5039;stroke-linecap:round;stroke-linejoin:round;stroke-miterlimit:22.9256;" d="
			M249.629,410.402c0,0-5.864-55.702-4.058-67.352"/>
		
			<path style="fill:none;stroke:#000000;stroke-width:8.5039;stroke-linecap:round;stroke-linejoin:round;stroke-miterlimit:22.9256;" d="
			M214.964,343.161c0,0,4.29,66.491,1.665,69.866"/>
		
			<path style="fill:none;stroke:#000000;stroke-width:8.5039;stroke-linecap:round;stroke-linejoin:round;stroke-miterlimit:22.9256;" d="
			M190.379,420.152c0,0,11.264-23.435,26.811-21.012"/>
		
			<path style="fill:none;stroke:#000000;stroke-width:8.5039;stroke-linecap:round;stroke-linejoin:round;stroke-miterlimit:22.9256;" d="
			M250.379,398.474c0,0,13.484-5.696,23.984,14.554"/>
		
			<path style="fill:none;stroke:#000000;stroke-width:8.5039;stroke-linecap:round;stroke-linejoin:round;stroke-miterlimit:22.9256;" d="
			M211.708,410.402c0,0,17.671,13.875,21.421,13.5"/>
		
			<path style="fill:none;stroke:#000000;stroke-width:8.5039;stroke-linecap:round;stroke-linejoin:round;stroke-miterlimit:22.9256;" d="
			M251.317,409.637c0,0-12.188,14.266-18.188,14.266"/>
		
			<path style="fill:none;stroke:#000000;stroke-width:8.5039;stroke-linecap:round;stroke-linejoin:round;stroke-miterlimit:22.9256;" d="
			M229.137,472.389c0,0-1.754-22.236,1.996-36.111"/>
		
			<path style="fill:none;stroke:#000000;stroke-width:8.5039;stroke-linecap:round;stroke-linejoin:round;stroke-miterlimit:22.9256;" d="
			M166.754,441.152c4.559,8.852,21.987,36.957,57.817,40.591c23.439,2.378,57.041-12.354,75.684-41.716"/>
		
			<path style="fill:none;stroke:#000000;stroke-width:8.5039;stroke-linecap:round;stroke-linejoin:round;stroke-miterlimit:22.9256;" d="
			M190.379,420.152c0,0,17.249,13.125,25.499,16.125"/>
		
			<path style="fill:none;stroke:#000000;stroke-width:8.5039;stroke-linecap:round;stroke-linejoin:round;stroke-miterlimit:22.9256;" d="
			M250.379,437.777c0,0,9.75-9.375,19.125-22.5"/>
		
			<path style="fill:none;stroke:#000000;stroke-width:8.5039;stroke-linecap:round;stroke-linejoin:round;stroke-miterlimit:22.9256;" d="
			M192.659,421.852c0,0-14.28,7.676-25.905,19.301"/>
		
			<path style="fill:none;stroke:#000000;stroke-width:8.5039;stroke-linecap:round;stroke-linejoin:round;stroke-miterlimit:22.9256;" d="
			M266.471,419.384c14.062,5.625,22.505,10.321,33.783,20.644"/>
		
			<path style="fill:none;stroke:#000000;stroke-width:8.5039;stroke-linecap:round;stroke-linejoin:round;stroke-miterlimit:22.9256;" d="
			M233.129,423.902c0,0,8.25,5.25,17.25,13.875"/>
		
			<path style="fill:none;stroke:#000000;stroke-width:8.5039;stroke-linecap:round;stroke-linejoin:round;stroke-miterlimit:22.9256;" d="
			M215.879,436.277c0,0,10.692-9.252,17.251-12.375"/>
	</g>
</g>
<g id="n0702">
	<g>
		<g>
			
				<path style="fill:none;stroke:#000000;stroke-width:8.5039;stroke-linecap:round;stroke-linejoin:round;stroke-miterlimit:22.9256;" d="
				M166.661,25.559c0,0,39-14.625,78.375-0.75"/>
			
				<path style="fill:none;stroke:#000000;stroke-width:8.5039;stroke-linecap:round;stroke-linejoin:round;stroke-miterlimit:22.9256;" d="
				M193.765,5.906c0,0,9.375-2.251,15.75-1.501"/>
		</g>
		<g>
			<polygon style="fill-rule:evenodd;clip-rule:evenodd;fill:#49B37E;" points="98.99,109.637 86.192,99.885 70.194,87.945 
				50.187,76.791 30.562,70.673 13.984,76.05 5.824,90.183 4.331,106.362 6.407,126.646 11.777,146.266 21.527,166.004 
				35.462,183.584 49.416,195.39 64.566,201.987 68.263,181.138 74.011,160.988 81.998,140.706 89.902,124.847 98.99,109.637 			"/>
			<polygon style="fill-rule:evenodd;clip-rule:evenodd;fill:#F8D63F;" points="84.755,98.696 99.873,82.065 126.012,61.416 
				155.083,46.238 182.823,38.031 212.081,35.855 240.19,40.383 263.668,49.645 279.911,59.309 292.975,74.743 259.701,64.556 
				236.643,63.131 210.232,65.066 181.948,71.436 157.933,81.089 136.148,94.461 115.118,113.739 99.814,135.997 87.04,167.34 
				79.577,198.143 75.454,231.378 74.849,265.713 77.55,297.826 83.277,328.459 92.093,357.827 96.161,368.309 76.026,367.241 
				56.278,359.205 42.16,349.56 38.654,325.559 35.991,298.918 34.835,275.442 35.063,249.028 36.903,225.469 40.222,204.631 
				43.746,191.117 57.536,200.309 64.641,201.569 67.932,182.585 73.436,163.007 81.998,140.706 91.703,121.617 98.99,109.637 
				84.755,98.696 			"/>
			<polygon style="fill-rule:evenodd;clip-rule:evenodd;fill:#68569D;" points="339.086,116.799 367.208,99.736 393.139,87.741 
				415.661,81.434 433.383,84.936 441.186,96.946 444.703,116.362 441.583,135.426 434.383,153.388 421.963,172.125 
				406.176,188.022 392.131,198.098 375.383,205.35 371.548,184.465 364.373,161.597 354.313,140.202 345.951,126.485 
				339.086,116.799 			"/>
			<polygon style="fill-rule:evenodd;clip-rule:evenodd;fill:#E085AD;" points="307.661,99.809 315.161,99.809 328.497,103.153 
				337.923,110.028 341.239,115.493 339.233,116.995 350.131,133.344 360.78,153.956 368.982,176.286 374.297,199.439 
				377.094,225.2 377.168,252.397 375.428,280.906 372.795,309.446 370.194,336.41 367.661,368.309 358.456,379.12 350.786,381.81 
				347.036,378.81 348.499,368.329 350.765,351.24 352.639,335.928 354.325,320.65 356.474,296.972 357.888,273.354 
				358.331,248.636 357.352,223.571 354.058,195.788 347.621,167.612 340.325,147.41 326.235,123.685 316.297,112.725 
				305.042,103.66 307.661,99.809 			"/>
			<polygon style="fill-rule:evenodd;clip-rule:evenodd;fill:#49B37E;" points="301.004,355.652 316.038,354.444 331.587,356.284 
				349.34,362.13 351.354,346.567 353.621,327.262 355.772,305.525 357.396,281.572 358.17,265.033 358.282,251.36 351.872,251.485 
				346.346,264.725 338.317,277.527 324.901,291.044 327.818,304.091 326.702,317.491 321.125,331.489 312.458,343.928 
				301.004,355.652 			"/>
			<polygon style="fill-rule:evenodd;clip-rule:evenodd;fill:#FFFFFF;" points="287.786,73.559 292.975,74.743 299.784,82.891 
				305.729,94.008 307.661,99.809 306.678,104.801 318.542,115.2 329.897,128.692 340.708,148.272 347.621,167.612 353.167,191.879 
				356.848,217.461 357.841,236.104 358.136,251.363 351.872,251.485 346.346,264.725 337.632,278.414 324.901,291.044 
				327.941,307.048 325.167,322.637 315.594,339.427 301.792,354.846 283.729,365.947 260.026,374.422 235.062,377.891 
				211.987,376.794 188.698,371.48 167.79,363.368 146.802,351.485 128.395,332.331 118.304,311.595 117.993,293.483 
				120.254,285.527 109.592,272.378 97.325,259.899 88.052,249.104 82.004,239.777 75.309,239.659 76.695,217.826 79.912,196.324 
				85.541,173.527 92.243,152.533 103.629,129.272 119.425,109.102 139.478,92.06 161.129,79.535 186.101,70.194 211.253,64.922 
				236.643,63.131 259.701,64.556 274.941,67.582 287.786,73.559 			"/>
			<polygon style="fill-rule:evenodd;clip-rule:evenodd;fill:#F8D63F;" points="211.739,283.814 217.856,289.029 225.395,290.68 
				232.754,289.652 235.581,283.997 241.665,285.237 245.342,279.383 243.497,270.156 239.506,264.173 233.293,261.742 
				225.305,266.146 219.225,262.303 210.531,266.78 205.14,274.634 206.127,283.122 211.739,283.814 			"/>
			<polygon style="fill-rule:evenodd;clip-rule:evenodd;" points="277.469,247.812 292.916,242.067 307.239,241.538 321.03,245.195 
				322.379,228.152 309.411,220.869 291.629,210.902 297.947,198.574 308.928,186.577 317.504,179.027 314.577,172.269 
				301.168,166.622 287.251,167.493 275.962,174.812 270.647,186.801 270.031,200.561 271.174,215.331 273.821,231.66 
				277.469,247.812 			"/>
			<polygon style="fill-rule:evenodd;clip-rule:evenodd;" points="166.226,241.508 154.891,239.783 141.794,241.518 131.278,245.72 
				123.803,233.128 118.541,216.555 116.112,195.483 118.613,178.336 126.37,166.184 139.895,160.657 154.252,163.581 
				163.184,170.829 164.879,176.027 152.774,184.918 141.951,195.429 135.629,203.027 145.676,210.348 157.379,216.152 
				170.504,221.777 168.499,231.689 166.226,241.508 			"/>
			<polygon style="fill-rule:evenodd;clip-rule:evenodd;fill:#E085AD;" points="88.619,346.254 101.157,344.965 116.173,344.497 
				129.259,344.758 138.254,345.152 130.876,335.872 123.326,323.933 122.376,311.74 122.376,298.215 120.861,286.999 
				111.49,274.319 100.489,263.201 89.643,250.956 82.004,239.777 74.988,239.46 74.653,254.17 75.271,270.728 76.735,288.137 
				79.356,307.485 82.425,323.902 85.124,334.613 88.619,346.254 			"/>
			<polygon style="fill-rule:evenodd;clip-rule:evenodd;fill:#81CECE;" points="176.129,291.964 183.629,297.621 192.434,303.48 
				201.803,308.044 211.487,308.642 222.254,301.652 231.151,306.224 240.961,305.192 250.565,299.237 259.419,293.56 
				270.793,288.18 278.606,285.872 280.506,293.629 279.106,303.071 273.067,307.97 267.91,309.434 262.077,315.742 
				253.358,317.302 249.16,316.371 240.717,322.451 232.542,322.471 227.972,320.31 220.28,325.241 210.109,323.569 
				203.972,319.934 196.45,321.81 188.588,318.418 184.097,313.934 176.556,312.829 171.833,305.317 176.129,291.964 			"/>
			<polygon style="fill-rule:evenodd;clip-rule:evenodd;fill:#F8D63F;" points="213.17,338.279 217.259,333.78 220.28,325.241 
				210.109,323.569 203.972,319.934 196.45,321.81 189.536,325.682 194.759,334.304 200.77,336.17 213.17,338.279 			"/>
			<polygon style="fill-rule:evenodd;clip-rule:evenodd;fill:#49B37E;" points="226.754,343.652 234.374,339.608 242.095,339.014 
				242.85,334.175 236.863,329.471 229.317,327.866 220.379,331.286 215.214,336.03 221.617,340.08 226.754,343.652 			"/>
			<polygon style="fill-rule:evenodd;clip-rule:evenodd;fill:#FFFFFF;" points="162.629,344.027 168.073,337.177 173.677,329.386 
				179.236,324.241 186.671,323.752 192.147,329.993 196.201,334.751 203.535,338.481 211.29,338.429 220.152,339.456 
				226.754,343.652 235.469,339.308 243.486,339.303 248.129,341.402 255.444,335.104 262.67,334.022 269.691,328.325 
				277.612,327.125 284.354,330.622 288.722,333.92 295.645,339.413 288.235,344.955 278.11,350.588 262.899,356.277 
				248.086,359.592 234.61,361.123 216.922,361.122 199.52,358.595 184.963,354.487 172.666,349.479 162.629,344.027 			"/>
			<polygon style="fill-rule:evenodd;clip-rule:evenodd;fill:#E085AD;" points="237.545,323.063 236.863,329.471 247.137,339.794 
				253.956,335.854 262.67,334.022 268.256,329.172 276.523,326.924 284.354,330.622 290.316,335.027 295.645,339.413 
				304.333,329.73 310.131,318.23 311.62,307.587 308.086,296.318 298.364,287.507 287.458,284.989 277.264,286.177 
				280.842,296.907 279.106,303.071 273.067,307.97 267.19,310.786 259.991,316.673 252.304,317.15 244.938,319.411 
				237.545,323.063 			"/>
			<polygon style="fill-rule:evenodd;clip-rule:evenodd;fill:#F8D63F;" points="162.629,344.027 168.073,337.177 173.677,329.386 
				179.236,324.241 185.523,323.315 188.588,318.418 184.097,313.934 177.772,313.007 172.944,307.082 171.91,298.56 175.94,291.85 
				163.996,286.98 150.066,288.381 142.771,297.213 140.545,309.305 143.373,321.031 148.604,330.423 155.289,338.156 
				162.629,344.027 			"/>
			
				<path style="fill:none;stroke:#000000;stroke-width:8.5039;stroke-linecap:round;stroke-linejoin:round;stroke-miterlimit:22.9256;" d="
				M95.8,107.185c-3.65-3.239-30.765-27.626-61.514-36.251"/>
			
				<path style="fill:none;stroke:#000000;stroke-width:8.5039;stroke-linecap:round;stroke-linejoin:round;stroke-miterlimit:22.9256;" d="
				M4.286,103.934c0,0-2.25-36.75,30-33"/>
			
				<path style="fill:none;stroke:#000000;stroke-width:8.5039;stroke-linecap:round;stroke-linejoin:round;stroke-miterlimit:22.9256;" d="
				M60.643,203.027c0,0-55.607-27.468-56.357-99.093"/>
			
				<path style="fill:none;stroke:#000000;stroke-width:8.5039;stroke-linecap:round;stroke-linejoin:round;stroke-miterlimit:22.9256;" d="
				M63.536,219.059c0,0-2.625-65.625,51.75-131.625"/>
			
				<path style="fill:none;stroke:#000000;stroke-width:8.5039;stroke-linecap:round;stroke-linejoin:round;stroke-miterlimit:22.9256;" d="
				M87.535,95.684c26.251-34.125,111.233-91.263,194.108-34.638"/>
			
				<path style="fill:none;stroke:#000000;stroke-width:8.5039;stroke-linecap:round;stroke-linejoin:round;stroke-miterlimit:22.9256;" d="
				M35.036,85.559c0,0,39.049,27.718,33.049,48.344c-6,20.625-27.05,17.656-12.05,43.906"/>
			
				<path style="fill:none;stroke:#000000;stroke-width:8.5039;stroke-linecap:round;stroke-linejoin:round;stroke-miterlimit:22.9256;" d="
				M288.976,78.379c-12.375-12.75-118.005-31.528-176.543,38.476C75.02,161.596,58.064,276.23,96.161,368.309"/>
			
				<path style="fill:none;stroke:#000000;stroke-width:8.5039;stroke-linecap:round;stroke-linejoin:round;stroke-miterlimit:22.9256;" d="
				M42.16,349.56c0,0,26.625,23.249,54,18.749"/>
			
				<path style="fill:none;stroke:#000000;stroke-width:8.5039;stroke-linecap:round;stroke-linejoin:round;stroke-miterlimit:22.9256;" d="
				M43.746,191.117c0,0-19.211,52.692-1.585,158.442"/>
			
				<path style="fill:none;stroke:#000000;stroke-width:8.5039;stroke-linecap:round;stroke-linejoin:round;stroke-miterlimit:22.9256;" d="
				M281.643,61.046c0,0,19.268,14.013,26.018,38.763"/>
			
				<path style="fill:none;stroke:#000000;stroke-width:8.5039;stroke-linecap:round;stroke-linejoin:round;stroke-miterlimit:22.9256;" d="
				M307.661,97.046c0,0,25.315-3.667,35.25,18.138"/>
			
				<path style="fill:none;stroke:#000000;stroke-width:8.5039;stroke-linecap:round;stroke-linejoin:round;stroke-miterlimit:22.9256;" d="
				M269.786,90.059c0,0,53.681,3.046,75.942,71.44c18.71,57.482,13.533,130.45,0.415,222.884"/>
			
				<path style="fill:none;stroke:#000000;stroke-width:8.5039;stroke-linecap:round;stroke-linejoin:round;stroke-miterlimit:22.9256;" d="
				M367.661,368.309c6.629-103.212,29.25-176.625-30.375-253.875"/>
			
				<path style="fill:none;stroke:#000000;stroke-width:8.5039;stroke-linecap:round;stroke-linejoin:round;stroke-miterlimit:22.9256;" d="
				M347.393,384.383c0,0,13.518-2.574,20.268-16.074"/>
			
				<path style="fill:none;stroke:#000000;stroke-width:8.5039;stroke-linecap:round;stroke-linejoin:round;stroke-miterlimit:22.9256;" d="
				M342.911,115.184c0,0,35.25-27,72.75-33.75"/>
			
				<path style="fill:none;stroke:#000000;stroke-width:8.5039;stroke-linecap:round;stroke-linejoin:round;stroke-miterlimit:22.9256;" d="
				M444.161,123.809c2.25-10.5-1.5-49.125-28.5-42.375"/>
			
				<path style="fill:none;stroke:#000000;stroke-width:8.5039;stroke-linecap:round;stroke-linejoin:round;stroke-miterlimit:22.9256;" d="
				M375.383,205.35c13.125-1.874,60.715-30.166,68.777-81.541"/>
			
				<path style="fill:none;stroke:#000000;stroke-width:8.5039;stroke-linecap:round;stroke-linejoin:round;stroke-miterlimit:22.9256;" d="
				M385.143,177.885c3.188-5.251,6.977-21.22-7.975-31.595c-17.972-12.47,10.975-47.981,42.898-43.763"/>
			
				<path style="fill:none;stroke:#000000;stroke-width:8.5039;stroke-linecap:round;stroke-linejoin:round;stroke-miterlimit:22.9256;" d="
				M156.629,375.059c0,0,55.08,35.344,119.626,8.719"/>
			
				<path style="fill:none;stroke:#000000;stroke-width:8.5039;stroke-linecap:round;stroke-linejoin:round;stroke-miterlimit:22.9256;" d="
				M88.209,346.314c18.804-2.774,38.721-1.685,50.045-1.162"/>
			
				<path style="fill:none;stroke:#000000;stroke-width:8.5039;stroke-linecap:round;stroke-linejoin:round;stroke-miterlimit:22.9256;" d="
				M301.004,355.652c0,0,22.046-5.419,48.336,6.477"/>
			
				<path style="fill:none;stroke:#000000;stroke-width:8.5039;stroke-linecap:round;stroke-linejoin:round;stroke-miterlimit:22.9256;" d="
				M301.004,355.652c0,0,22.046-5.419,48.336,6.477"/>
			
				<path style="fill:none;stroke:#000000;stroke-width:8.5039;stroke-linecap:round;stroke-linejoin:round;stroke-miterlimit:22.9256;" d="
				M287.879,269.402c17.625-10.5,72.578,33.037,13.125,86.25"/>
			
				<path style="fill:none;stroke:#000000;stroke-width:8.5039;stroke-linecap:round;stroke-linejoin:round;stroke-miterlimit:22.9256;" d="
				M324.901,291.044c0,0,26.778-18.618,32.445-49.673"/>
			
				<path style="fill:none;stroke:#000000;stroke-width:8.5039;stroke-linecap:round;stroke-linejoin:round;stroke-miterlimit:22.9256;" d="
				M78.143,234.715c21.486,38,29.408,35.623,45.552,52.266"/>
			
				<path style="fill:none;stroke:#000000;stroke-width:8.5039;stroke-linecap:round;stroke-linejoin:round;stroke-miterlimit:22.9256;" d="
				M165.254,269.777c-15-11.062-69.454,15.212-27,75.375"/>
			
				<path style="fill:none;stroke:#000000;stroke-width:8.5039;stroke-linecap:round;stroke-linejoin:round;stroke-miterlimit:22.9256;" d="
				M301.004,355.652c-11.312,8.274-41.238,26.413-86.04,21.509c-22.034-2.412-52.975-12.846-76.71-32.009"/>
			
				<path style="fill:none;stroke:#000000;stroke-width:8.5039;stroke-linecap:round;stroke-linejoin:round;stroke-miterlimit:22.9256;" d="
				M99.629,151.652c10.125-6.75,47.591-20.349,80.048,2.728c26.304,18.701,33.953,68.897,32.077,111.273"/>
			
				<path style="fill:none;stroke:#000000;stroke-width:8.5039;stroke-linecap:round;stroke-linejoin:round;stroke-miterlimit:22.9256;" d="
				M234.254,261.902c-0.661-27.6-7.882-63.752,15.611-91.784c20.156-24.049,58.92-41.06,92.625-17.585"/>
			
				<path style="fill:none;stroke:#000000;stroke-width:8.5039;stroke-linecap:round;stroke-linejoin:round;stroke-miterlimit:22.9256;" d="
				M118.379,254.777c0,0,33.75-33.75,70.124,0"/>
			
				<path style="fill:none;stroke:#000000;stroke-width:8.5039;stroke-linecap:round;stroke-linejoin:round;stroke-miterlimit:22.9256;" d="
				M265.754,256.652c0,0,28.875-31.5,67.875-4.5"/>
			
				<path style="fill:none;stroke:#000000;stroke-width:8.5039;stroke-linecap:round;stroke-linejoin:round;stroke-miterlimit:22.9256;" d="
				M164.879,176.027c0.375-13.5-40.058-30.197-48,8.624"/>
			
				<path style="fill:none;stroke:#000000;stroke-width:8.5039;stroke-linecap:round;stroke-linejoin:round;stroke-miterlimit:22.9256;" d="
				M131.278,245.72c-9.375-10.5-17.791-38.56-14.4-61.068"/>
			
				<path style="fill:none;stroke:#000000;stroke-width:8.5039;stroke-linecap:round;stroke-linejoin:round;stroke-miterlimit:22.9256;" d="
				M170.504,221.777c0,0-2.546,15.315-5.21,19.471"/>
			
				<path style="fill:none;stroke:#000000;stroke-width:8.5039;stroke-linecap:round;stroke-linejoin:round;stroke-miterlimit:22.9256;" d="
				M135.629,203.027c0,0,11.625-16.125,29.25-27"/>
			
				<path style="fill:none;stroke:#000000;stroke-width:8.5039;stroke-linecap:round;stroke-linejoin:round;stroke-miterlimit:22.9256;" d="
				M170.504,221.777c0,0-30.375-12-34.875-18.75"/>
			
				<path style="fill:none;stroke:#000000;stroke-width:8.5039;stroke-linecap:round;stroke-linejoin:round;stroke-miterlimit:22.9256;" d="
				M317.504,179.027c2.25-13.5-43.561-24.095-47.25,10.5"/>
			
				<path style="fill:none;stroke:#000000;stroke-width:8.5039;stroke-linecap:round;stroke-linejoin:round;stroke-miterlimit:22.9256;" d="
				M277.469,247.812c-2.279-9.409-8.893-35.432-7.215-58.285 M322.379,228.152c0,0,1.051,10.086-1.35,17.043 M291.629,210.902
				c0,0,18.75,10.499,30.75,17.25 M317.504,179.027c0,0-23.626,18.75-25.875,31.875 M327.254,152.027
				c0,0-5.527,13.929-15.154,18.387 M299.692,141.314c0,0-0.358,21.729-6.273,25.034 M274.241,153.246c0,0,7.057,12.039,7.16,16.848
				 M262.004,164.777c2.243,3.988,7.527,10.415,11.982,12.84 M100.753,163.277c0,0,4.219,10.243,17.86,15.059 M110.879,155.027
				c0,0,6.187,11.29,12.281,14.645 M129.629,147.527c0,0,1.913,10.925,8.269,13.337 M149.504,149.777c0,0-1.332,6.326,2.709,12.913
				 M214.754,287.027c0,0,6,6,18.001,2.625 M225.629,266.777c0,0,1.501-6.375,8.626-4.875 M211.754,265.652
				c0,0,9.375-8.25,13.875,1.125 M234.254,261.902c11.906,2.25,16.781,29.155,0,21.375 M215.129,279.902
				c-6,11.625-18.749-0.75-3.375-14.25 M163.905,339.794c4.261-4.478,14.071-24.29,31.724-5.892 M223.385,290.554
				c0,0-0.227,8.391,0.898,12.141 M247.379,301.652c0,0-13.125,10.875-25.125,0 M198.629,306.902c0,0,14.626,7.124,23.626-5.25
				 M247.379,301.652c0,0,36.9-30.496,58.125-9 M301.004,334.277c5.064-6.491,18.441-24.568,4.5-41.625 M183.643,339.794
				c0,0,12.735-11.517,21.361,0.483 M226.754,343.652c0,0-8.626-9.375-21.751-3.375 M248.129,341.402c0,0-9-7.125-21.375,2.25
				 M271.754,337.277c0,0-13.875-9.75-23.625,4.125 M292.975,338.279c-3.999-10.413-17.262-18.199-30.305-4.257 M162.629,344.027
				c0,0,25.381,17.016,61.495,17.391c22.616,0.234,56.568-5.307,76.881-27.141 M140.879,312.527
				c-1.52-6.676,1.124-33.75,27.749-24.188 M162.629,344.027c-8.545-5.55-19.184-16.922-21.749-31.5 M198.629,306.902
				c-17.812-9.188-16.781-13.407-30-18.562 M171.833,292.857c0,0-6.54,19.534,12.264,21.076 M203.972,319.934
				c0,0-9.188,7.125-19.875-6 M227.972,320.31c0,0-7.125,11.812-24-0.376 M249.16,316.371c0,0-8.625,12.001-21.188,3.938
				 M267.91,309.434c0,0-4.688,11.438-18.75,6.938 M280.506,288.715c0,0,7.088,23.025-12.597,20.719 M213.17,338.279
				c0,0,17.991-25.472,34.959,3.123"/>
		</g>
	</g>
</g>
<g id="n0703">
	<g>
		
			<path style="fill:none;stroke:#000000;stroke-width:8.5039;stroke-linecap:round;stroke-linejoin:round;stroke-miterlimit:22.9256;" d="
			M131.081,113.584c0,0,36.44-15.585,59.488,10.317"/>
		
			<path style="fill:none;stroke:#000000;stroke-width:8.5039;stroke-linecap:round;stroke-linejoin:round;stroke-miterlimit:22.9256;" d="
			M253.394,130.761c0,0,20.785-23.991,52.32-9.918"/>
	</g>
</g>
</svg>
