<svg version="1.1" xmlns="http://www.w3.org/2000/svg" xmlns:xlink="http://www.w3.org/1999/xlink" x="0px" y="0px"
	 viewBox="0 0 391.004 525.75" style="enable-background:new 0 0 391.004 525.75;" xml:space="preserve">
<g id="n0801">
	<g>
		<polygon style="fill-rule:evenodd;clip-rule:evenodd;fill:#49B37E;" points="53.002,382.735 59.377,381.985 68.953,393.024 
			83.749,407.053 100.415,419.274 119.747,429.68 140.072,437.26 160.519,442.803 172.74,448.583 156.049,455.422 141.703,468.792 
			131.375,480.643 122.959,486.301 110.152,472.024 93.589,458.581 76.691,441.905 61.161,426.321 48.404,410.944 39.127,396.61 
			48.251,389.268 53.002,382.735 		"/>
		<path style="fill-rule:evenodd;clip-rule:evenodd;fill:#49B37E;" d="M40.325,398.713l-8.82,5.918l-10.982,5.088l-7.646,2.641
			l3.151,11.988l8.482,14.707l12.446,14.859l16.736,15.451l17.969,13.381l20.648,12.496l22.223,10.611l25.042,8.725l22.979,4.992
			l23.096,1.918l10.236-0.207l-1.831-16.58l1.161-13.684l-2.688-10.674l-2.273-8.359l-6.999-3.852l-7.192-9.613
			c0,0-3.328-8.807-3.965-9.674c-0.636-0.869-12.115,4.068-12.115,4.068l-10.895,8.312l-10.461,11.096l-9.097,10.408l-5.651,5.004
			l-13.725-15.711l-17.102-15.371L77.924,443.12l-16.763-16.799l-11.36-13.512L40.325,398.713L40.325,398.713z"/>
		<polygon style="fill-rule:evenodd;clip-rule:evenodd;fill:#68569D;" points="338.371,395.088 345.063,401.911 354.424,406.221 
			357.643,409.696 349.312,421.249 334.834,433.03 317.638,444.456 301.873,453.948 282.305,465.253 264.482,475.655 
			249.556,484.975 241.252,490.735 233.98,481.532 229.492,466.721 223.783,456.057 214.547,448.141 222.877,441.985 
			237.166,439.055 255.729,434.407 275.809,428.297 294.119,421.493 312.18,413.122 325.963,404.948 338.371,395.088 		"/>
		<polygon style="fill-rule:evenodd;clip-rule:evenodd;fill:#81CECE;" points="214.547,448.141 223.783,456.057 229.602,469.489 
			233.98,481.532 241.252,490.735 254.572,481.737 268.793,473.096 283.836,464.368 301.873,453.948 320.651,442.454 
			341.172,428.26 354.167,416.165 357.877,411.235 369.926,414.672 379.252,416.86 370.549,433.653 355.057,452.307 
			334.079,470.612 312.801,484.995 286.723,498.725 259.744,509.29 231.822,516.741 208.367,520.352 195.885,521.282 
			194.054,504.702 193.839,489.149 191.39,476.165 190.253,471.985 199.188,462.547 207.238,454.657 214.547,448.141 		"/>
		<polygon style="fill-rule:evenodd;clip-rule:evenodd;fill:#FFFFFF;" points="41.82,258.354 55.117,267.038 64.27,282.628 
			77.674,297.547 93.955,310.549 112.74,321.71 130.502,329.28 154.354,337.647 180.315,343.174 204.566,345.717 227.313,345.821 
			252.045,343.223 276.572,337.352 301.119,327.124 325.938,309.823 342.273,291.139 344.441,310.297 344.379,366.45 
			342.477,386.296 338.371,395.088 322.398,407.063 300.303,418.628 278.549,427.278 252.888,435.118 222.877,441.985 
			207.238,454.657 190.253,471.985 179.658,463.327 173.378,450.985 166.629,445.694 150.296,440.032 127.229,432.471 
			104.026,421.497 83.749,407.053 68.953,393.024 59.377,381.985 53.002,382.735 46.87,370.071 41.723,355.077 42.07,296.86 
			42.063,276.53 41.82,258.354 		"/>
		
			<path style="fill:none;stroke:#000000;stroke-width:8.5039;stroke-linecap:round;stroke-linejoin:round;stroke-miterlimit:22.9256;" d="
			M343.57,289.202c0,0,3.807,93.533-3.693,104.408"/>
		
			<path style="fill:none;stroke:#000000;stroke-width:8.5039;stroke-linecap:round;stroke-linejoin:round;stroke-miterlimit:22.9256;" d="
			M12.877,412.36c2.756,38.201,91.755,111.182,178.121,109.096c91.787-2.219,173.406-62.043,188.254-104.596"/>
		
			<path style="fill:none;stroke:#000000;stroke-width:8.5039;stroke-linecap:round;stroke-linejoin:round;stroke-miterlimit:22.9256;" d="
			M222.877,441.985c0,0,83.25-14.25,117-48.375"/>
		
			<path style="fill:none;stroke:#000000;stroke-width:8.5039;stroke-linecap:round;stroke-linejoin:round;stroke-miterlimit:22.9256;" d="
			M241.252,490.735c32.625-24,99.75-53.25,116.625-79.5"/>
		
			<path style="fill:none;stroke:#000000;stroke-width:8.5039;stroke-linecap:round;stroke-linejoin:round;stroke-miterlimit:22.9256;" d="
			M220.601,453.331c11.25,10.125,10.901,35.904,20.651,37.404"/>
		
			<path style="fill:none;stroke:#000000;stroke-width:8.5039;stroke-linecap:round;stroke-linejoin:round;stroke-miterlimit:22.9256;" d="
			M190.253,471.985c0,0,20.249-22.5,32.624-30"/>
		
			<path style="fill:none;stroke:#000000;stroke-width:8.5039;stroke-linecap:round;stroke-linejoin:round;stroke-miterlimit:22.9256;" d="
			M195.885,521.282c-4.125-13.875,0.742-26.422-4.132-44.047"/>
		
			<path style="fill:none;stroke:#000000;stroke-width:8.5039;stroke-linecap:round;stroke-linejoin:round;stroke-miterlimit:22.9256;" d="
			M173.378,450.985c0.375-14.25-60.375-2.25-114.001-69"/>
		
			<path style="fill:none;stroke:#000000;stroke-width:8.5039;stroke-linecap:round;stroke-linejoin:round;stroke-miterlimit:22.9256;" d="
			M39.127,396.61c23.045,41.438,72,70.125,84.75,91.125"/>
		
			<path style="fill:none;stroke:#000000;stroke-width:8.5039;stroke-linecap:round;stroke-linejoin:round;stroke-miterlimit:22.9256;" d="
			M165.503,450.61c-16.876,4.5-36.001,35.25-41.626,37.125"/>
		
			<path style="fill:none;stroke:#000000;stroke-width:8.5039;stroke-linecap:round;stroke-linejoin:round;stroke-miterlimit:22.9256;" d="
			M12.877,412.36c0,0,23.281-6.855,26.642-15.053"/>
		
			<path style="fill:none;stroke:#000000;stroke-width:8.5039;stroke-linecap:round;stroke-linejoin:round;stroke-miterlimit:22.9256;" d="
			M53.002,382.735c-0.75,8.25-12.75,7.5-13.875,13.875"/>
		
			<path style="fill:none;stroke:#000000;stroke-width:8.5039;stroke-linecap:round;stroke-linejoin:round;stroke-miterlimit:22.9256;" d="
			M174.878,456.61c0,0,4.125,7.125,10.5,13.875"/>
		<path style="fill-rule:evenodd;clip-rule:evenodd;" d="M183.503,479.358c2.349,0,4.251,1.904,4.251,4.252
			c0,2.35-1.902,4.252-4.251,4.252c-2.35,0-4.253-1.902-4.253-4.252C179.25,481.262,181.153,479.358,183.503,479.358
			L183.503,479.358z"/>
		
			<path style="fill:none;stroke:#000000;stroke-width:8.5039;stroke-linecap:round;stroke-linejoin:round;stroke-miterlimit:22.9256;" d="
			M40.627,266.485c6.375,45.75-8.25,84,11.625,112.125"/>
		
			<path style="fill:none;stroke:#000000;stroke-width:8.5039;stroke-linecap:round;stroke-linejoin:round;stroke-miterlimit:22.9256;" d="
			M339.877,393.61c4.875,15.375,17.506,8.59,18,17.625"/>
		
			<path style="fill:none;stroke:#000000;stroke-width:8.5039;stroke-linecap:round;stroke-linejoin:round;stroke-miterlimit:22.9256;" d="
			M379.252,416.86c0,0-12.375-2.625-21.375-5.625"/>
	</g>
</g>
<g id="n0802">
	<g>
		<path style="fill-rule:evenodd;clip-rule:evenodd;fill:#49B37E;" d="M94.315,313.767c0,0-17.494-30.727,3.278-51.358
			c20.771-20.631,32.106-7.203,45.058-2.299c12.951,4.904,46.417,14.47,52.852,8.81c6.435-5.66,8.083-13.591,8.083-13.591
			s3.254,17.119,33.635,10.402c30.381-6.717,57.048-33.693,78.048-12.372s12.882,53.508,2.107,71.082
			c-10.774,17.573-48.265,50.42-115.686,40.33C134.268,354.681,113.695,334.853,94.315,313.767z"/>
		<g>
			<defs>
				<rect id="SVGID_1_" x="53.002" y="164.398" width="150.583" height="234.314"/>
			</defs>
			<clipPath id="SVGID_2_">
				<use xlink:href="#SVGID_1_"  style="overflow:visible;"/>
			</clipPath>
			<path style="clip-path:url(#SVGID_2_);fill-rule:evenodd;clip-rule:evenodd;fill:#E085AD;" d="M94.315,313.767
				c0,0-17.494-30.727,3.278-51.358c20.771-20.631,32.106-7.203,45.058-2.299c12.951,4.904,46.417,14.47,52.852,8.81
				c6.435-5.66,8.083-13.591,8.083-13.591s3.254,17.119,33.635,10.402c30.381-6.717,57.048-33.693,78.048-12.372
				s12.882,53.508,2.107,71.082c-10.774,17.573-48.265,50.42-115.686,40.33C134.268,354.681,113.695,334.853,94.315,313.767z"/>
		</g>
	</g>
</g>
<g id="n0803">
	<g>
		<polygon style="fill-rule:evenodd;clip-rule:evenodd;fill:#F8D63F;" points="184.352,321.014 188.223,309.428 195.982,299.569 
			204.122,294.821 218.743,288.991 231.373,293.928 229.355,304.178 225.227,311.809 220.963,315.385 223.084,325.405 
			226.352,349.514 217.102,355.264 207.677,357.264 197.102,357.264 184.352,355.514 184.352,321.014 		"/>
		
			<path style="fill:none;stroke:#000000;stroke-width:8.5039;stroke-linecap:round;stroke-linejoin:round;stroke-miterlimit:22.9256;" d="
			M221.852,317.014c0,0,4.576,26.635,3.076,33.385"/>
		
			<path style="fill:none;stroke:#000000;stroke-width:8.5039;stroke-linecap:round;stroke-linejoin:round;stroke-miterlimit:22.9256;" d="
			M201.407,319.643c0,0,35.001,1.857,28.874-21.375c-1.93-8.254-18.531-5.496-25.855-3.625c-7.324,1.871-19.074,9.371-20.074,26.371
			c0,10,0,34.5,0,34.5"/>
	</g>
</g>
<g id="n0804">
	<g>
		<polygon style="fill-rule:evenodd;clip-rule:evenodd;fill:#68569D;" points="69.127,82.734 51.337,66.804 46.758,43.487 
			57.832,24.491 84.306,15.019 105.774,24.876 113.002,46.734 120.877,48.609 120.879,56.438 92.287,68.17 69.127,82.734 		"/>
		<path style="fill-rule:evenodd;clip-rule:evenodd;fill:#49B37E;" d="M356.377,253.359l-9.709-16.344
			c0,0-20.925-13.384-20.531-14.411c0.396-1.027-19.834-5.958-19.834-5.958l-20.289-0.734l-18.764,5.151l-16.486,7.259
			l-13.773,4.845l-4.172-5.128l-10.874,2.295l-11.411-0.145l-3.5,6.202l-6.375,2.062l-10.768-8.331l-6.095,3.846l-9.663-1.499
			l-9.08-5.731l-5.552,3.933l-17.158-7.805l-22.026-4.684l-27.249,3.954L71.21,236.512l-12.916,18.373l-6.188,22.661l3.012,26.492
			l12.515,19.879l24.095,22.074l26.269,15.314l25.012,9.949l27.584,7.197l26.152,3.715l27.789,0.764l25.648-2.404l26.391-6.174
			l24.547-10.229l20.478-13.555l16.136-16.305l12.049-19.051l6.582-18.4l2.849-22.076L356.377,253.359z M317.376,324.441
			c-10.774,17.573-48.265,50.42-115.686,40.33c-67.421-10.09-87.995-29.918-107.375-51.004c0,0-17.494-30.727,3.278-51.358
			c20.771-20.631,32.106-7.203,45.058-2.299c12.951,4.904,46.417,14.47,52.852,8.81c6.435-5.66,8.083-13.591,8.083-13.591
			s3.254,17.119,33.635,10.402c30.381-6.717,57.048-33.693,78.048-12.372S328.15,306.868,317.376,324.441z"/>
		<polygon style="fill-rule:evenodd;clip-rule:evenodd;fill:#F8D63F;" points="225.381,26.862 220.996,39.803 210.728,53.081 
			192.867,59.978 169.703,54.65 160.75,49.806 143.805,51.456 120.879,56.438 120.877,48.609 136.889,37.616 158.062,26.834 
			183.313,19.57 207.425,19.901 225.381,26.862 		"/>
		<polygon style="fill-rule:evenodd;clip-rule:evenodd;fill:#49B37E;" points="295.199,72.455 293.616,54.12 303.938,37.713 
			325.056,30.921 346.314,37.281 358.502,57.355 359.184,77.673 347.002,92.38 329.916,99.046 314.008,85.457 295.199,72.455 		"/>
		<polygon style="fill-rule:evenodd;clip-rule:evenodd;fill:#E085AD;" points="176.048,194.672 174.656,189.537 181.595,165.484 
			187.715,136.516 190.914,106.241 189.63,81.166 185.384,59.602 205.736,56.431 217.293,46.017 225.381,26.862 237.354,36.379 
			243.986,47.951 262.764,55.477 285.772,66.9 311.37,83.633 337.066,106.189 363.887,142.645 376.688,171.775 382.883,195.26 
			386.02,218.023 386.752,233.109 379.34,233.864 385.354,252.701 384.487,267.329 371.354,287.02 354.928,301.934 359.076,279.153 
			357.762,258.784 350.721,241.916 333.892,226.762 307.441,216.601 276.932,217.835 253.785,226.986 234.049,233.866 
			232.725,227.598 240.559,218.75 239.885,208.68 232.674,197.158 216.707,190.436 197.084,189.449 176.048,194.672 		"/>
		<polygon style="fill-rule:evenodd;clip-rule:evenodd;fill:#FFFFFF;" points="159.612,49.1 171.123,54.976 185.384,59.602 
			188.378,74.806 190.272,93.703 190.604,112.309 188.187,132.049 184.628,152.593 179.771,171.806 173.735,195.911 165.18,206.094 
			162.529,218.684 164.504,225.897 159.501,230.672 146.758,224.542 130.192,219.503 113.188,218.075 95.766,221.173 78.43,230.224 
			66.027,242.414 57.266,257.116 52.172,274.698 51.811,290.266 52.624,302.934 31.017,287.774 14.497,274.399 8.377,265.735 
			13,252.138 16.459,239.501 13.398,234.924 5.37,235.162 6.912,222.656 10.372,207.822 11.752,202.734 4.288,205.01 8.12,184.113 
			13.735,165.73 20.774,148.289 29.025,132.065 39.881,115.046 53.651,98.188 72.8,80.768 91.063,68.836 113.704,59.382 
			136.741,52.991 159.612,49.1 		"/>
		<polygon style="fill-rule:evenodd;clip-rule:evenodd;fill:#404041;" points="86.696,201.231 77.396,193.708 68.824,181.312 
			65.435,166.715 69.809,153.598 82.544,140.958 98.273,127.668 113.031,111.927 121.984,98.017 130.284,83.885 142.049,76.507 
			154.245,79.548 159.456,93.059 159.876,108.543 157.283,126.288 153.344,143.583 147.851,161.359 140.978,177.542 
			132.986,190.054 125.002,196.734 122.582,203.827 107.855,200.246 96.121,199.758 86.696,201.231 		"/>
		<polygon style="fill-rule:evenodd;clip-rule:evenodd;fill:#404041;" points="268.342,204.064 259.211,192.447 247.789,172.251 
			240.16,150.555 236.674,125.671 239.061,104.398 247.779,90.758 262.383,84.081 274.251,92.672 283.553,108.649 293.063,124.5 
			307.328,140.194 323.418,153.726 334.281,168.005 337.638,184.532 331.914,204.963 312.371,198.792 290.035,198.726 
			268.342,204.064 		"/>
		<polygon style="fill-rule:evenodd;clip-rule:evenodd;fill:#68569D;" points="184.908,234.141 187.888,228.942 200.658,238.454 
			207.033,236.392 211.365,228.716 220.062,230.914 233.436,226.794 240.559,218.75 239.885,208.68 233.922,198.249 
			221.173,191.519 203.934,189.196 187.382,190.878 170.23,198.386 163.524,211.061 164.068,225.105 172.49,232.214 
			184.908,234.141 		"/>
		<polygon style="fill-rule:evenodd;clip-rule:evenodd;" points="121.574,177.971 129.032,160.266 122.312,152.135 117.595,142.641 
			126.716,136.068 135.22,132.891 137.296,123.543 135.986,115.691 125.875,115.983 119.419,121.857 114.868,134.673 
			110.064,152.411 107.003,164.908 104.515,175.65 113.641,175.901 121.574,177.971 		"/>
		<polygon style="fill-rule:evenodd;clip-rule:evenodd;" points="267.066,181.898 275.799,179.332 284.1,177.737 284.18,167.486 
			282.134,159.971 274.989,154.07 262.142,146.165 271.924,138.8 279.032,133.829 278.057,123.104 274.967,114.935 266.725,112.784 
			260.657,118.829 260.595,128.9 261.298,138.085 263.268,155.451 264.74,166.353 267.066,181.898 		"/>
		<polygon style="fill-rule:evenodd;clip-rule:evenodd;fill:#81CECE;" points="112.701,253.131 129.739,253.162 148.419,260.243 
			168.386,266.917 189.315,269.766 198.308,267.133 206.029,256.854 213.437,265.899 223.434,267.999 238.361,266.309 
			255.951,261.473 273.041,254.783 288.112,248.458 290.213,247.942 291.781,255.893 293.642,267.237 291.615,275.381 
			282.486,278.799 276.6,290.676 267.836,299.378 258.588,300.223 251.993,292.53 249.782,286.643 241.98,293.397 231.373,293.928 
			222.184,290.768 217.907,288.518 210.972,293.379 199.779,294.428 189.511,291.758 181.157,287.768 176.691,294.176 
			166.992,299.092 156.126,297.335 149.374,288.237 147.995,283.186 140.282,284.018 134.224,280.165 131.254,275.202 
			129.926,270.811 123.407,272.768 115.663,267.34 113.01,261.086 112.701,253.131 		"/>
		<polygon style="fill-rule:evenodd;clip-rule:evenodd;fill:#FFFFFF;" points="106.103,327.024 111.656,317.409 119.715,307.723 
			128.735,303.585 134.995,307.413 138.431,314.53 144.559,316.53 150.047,324.309 161.219,327.598 169.079,320.04 178.829,317.965 
			188.549,325.817 194.441,337.448 196.532,342.518 207.297,336.854 218.982,339.706 224.656,343.643 232.898,337.008 
			242.173,335.918 246.406,337.268 249.27,327.159 253.701,317.918 259.48,313.799 268.751,319.737 272.384,323.28 279.917,318.786 
			285.496,316.549 289.818,309.286 293.961,307.024 296.936,297.87 303.699,294.34 312.82,299.19 322.94,306.594 317.54,319.079 
			308.613,332.188 297.328,343.202 283.109,351.901 265.262,358.915 247.539,362.905 226.607,364.772 201.854,363.78 
			176.947,359.698 153.533,353.03 134.313,345.137 119.102,336.715 106.103,327.024 		"/>
		
			<path style="fill:none;stroke:#000000;stroke-width:8.5039;stroke-linecap:round;stroke-linejoin:round;stroke-miterlimit:22.9256;" d="
			M295.252,71.109c-11.809-37.854,31.27-46.413,47.686-36.303c18.578,11.441,30.148,53.17-10.936,64.428"/>
		
			<path style="fill:none;stroke:#000000;stroke-width:8.5039;stroke-linecap:round;stroke-linejoin:round;stroke-miterlimit:22.9256;" d="
			M315.127,45.984c0,0-16.125,15.374-2.25,34.875"/>
		
			<path style="fill:none;stroke:#000000;stroke-width:8.5039;stroke-linecap:round;stroke-linejoin:round;stroke-miterlimit:22.9256;" d="
			M113.002,46.734C111.235,8.087,72.993,9.046,55.245,26.85c-12.39,12.428-15.562,39.797,13.882,55.884"/>
		
			<path style="fill:none;stroke:#000000;stroke-width:8.5039;stroke-linecap:round;stroke-linejoin:round;stroke-miterlimit:22.9256;" d="
			M88.627,30.984c0,0,18.375,13.5,5.25,34.125"/>
		
			<path style="fill:none;stroke:#000000;stroke-width:8.5039;stroke-linecap:round;stroke-linejoin:round;stroke-miterlimit:22.9256;" d="
			M120.877,48.609c0,0,78.751-64.5,123.375-4.124"/>
		
			<path style="fill:none;stroke:#000000;stroke-width:8.5039;stroke-linecap:round;stroke-linejoin:round;stroke-miterlimit:22.9256;" d="
			M147.502,45.984c22.126-7.126,44.251,3.75,55.501-2.251"/>
		
			<path style="fill:none;stroke:#000000;stroke-width:8.5039;stroke-linecap:round;stroke-linejoin:round;stroke-miterlimit:22.9256;" d="
			M236.752,45.234c17.355,7.163,147.75,44.625,150,187.874"/>
		
			<path style="fill:none;stroke:#000000;stroke-width:8.5039;stroke-linecap:round;stroke-linejoin:round;stroke-miterlimit:22.9256;" d="
			M222.502,36.234c0,0-15.412,47.439-69.581,8.344"/>
		
			<path style="fill:none;stroke:#000000;stroke-width:8.5039;stroke-linecap:round;stroke-linejoin:round;stroke-miterlimit:22.9256;" d="
			M4.252,206.109c0-14.25,24.811-149.491,156.498-156.303"/>
		
			<path style="fill:none;stroke:#000000;stroke-width:8.5039;stroke-linecap:round;stroke-linejoin:round;stroke-miterlimit:22.9256;" d="
			M174.128,191.109c0,0,28.316-81.502,11.625-124.876"/>
		
			<path style="fill:none;stroke:#000000;stroke-width:8.5039;stroke-linecap:round;stroke-linejoin:round;stroke-miterlimit:22.9256;" d="
			M11.752,202.734c0,0-6.749,23.625-6.375,32.625"/>
		
			<path style="fill:none;stroke:#000000;stroke-width:8.5039;stroke-linecap:round;stroke-linejoin:round;stroke-miterlimit:22.9256;" d="
			M8.377,265.735c0.942-10.161,19.501-36-3-30.375"/>
		
			<path style="fill:none;stroke:#000000;stroke-width:8.5039;stroke-linecap:round;stroke-linejoin:round;stroke-miterlimit:22.9256;" d="
			M56.377,306.985c-7.125-10.5-40.125-24-48-41.25"/>
		
			<path style="fill:none;stroke:#000000;stroke-width:8.5039;stroke-linecap:round;stroke-linejoin:round;stroke-miterlimit:22.9256;" d="
			M42.127,260.11c1.528-17.242,24-88.5,98.25-48.375"/>
		
			<path style="fill:none;stroke:#000000;stroke-width:8.5039;stroke-linecap:round;stroke-linejoin:round;stroke-miterlimit:22.9256;" d="
			M114.128,378.985c16.499,15,86.25,63,170.249,13.5"/>
		
			<path style="fill:none;stroke:#000000;stroke-width:8.5039;stroke-linecap:round;stroke-linejoin:round;stroke-miterlimit:22.9256;" d="
			M56.377,306.985c43.5,84.75,238.125,112.5,292.125,10.875"/>
		
			<path style="fill:none;stroke:#000000;stroke-width:8.5039;stroke-linecap:round;stroke-linejoin:round;stroke-miterlimit:22.9256;" d="
			M356.377,253.359c0,0,10.125,28.5-7.875,64.5"/>
		
			<path style="fill:none;stroke:#000000;stroke-width:8.5039;stroke-linecap:round;stroke-linejoin:round;stroke-miterlimit:22.9256;" d="
			M376.627,218.109c4.125,44.25,29.276,33.818-23.424,88.911"/>
		
			<path style="fill:none;stroke:#000000;stroke-width:8.5039;stroke-linecap:round;stroke-linejoin:round;stroke-miterlimit:22.9256;" d="
			M253.627,210.609c0,0,68.25-39.749,107.25,21.751"/>
		
			<path style="fill:none;stroke:#000000;stroke-width:8.5039;stroke-linecap:round;stroke-linejoin:round;stroke-miterlimit:22.9256;" d="
			M264.502,182.859c0,0,25.125-10.501,45.375-3.375"/>
		
			<path style="fill:none;stroke:#000000;stroke-width:8.5039;stroke-linecap:round;stroke-linejoin:round;stroke-miterlimit:22.9256;" d="
			M87.128,180.234c0,0,21.374-10.876,39.749,0.375"/>
		
			<path style="fill:none;stroke:#000000;stroke-width:8.5039;stroke-linecap:round;stroke-linejoin:round;stroke-miterlimit:22.9256;" d="
			M159.877,94.734c3.188,16.5-12,90.75-34.875,102"/>
		
			<path style="fill:none;stroke:#000000;stroke-width:8.5039;stroke-linecap:round;stroke-linejoin:round;stroke-miterlimit:22.9256;" d="
			M125.377,90.984c4.875-10.875,26.813-28.687,34.5,3.75"/>
		
			<path style="fill:none;stroke:#000000;stroke-width:8.5039;stroke-linecap:round;stroke-linejoin:round;stroke-miterlimit:22.9256;" d="
			M69.809,153.598c13.312-17.25,40.287-27.645,55.568-62.613"/>
		
			<path style="fill:none;stroke:#000000;stroke-width:8.5039;stroke-linecap:round;stroke-linejoin:round;stroke-miterlimit:22.9256;" d="
			M82.908,197.578c-5.25-0.75-26.543-25.091-13.1-43.98"/>
		
			<path style="fill:none;stroke:#000000;stroke-width:8.5039;stroke-linecap:round;stroke-linejoin:round;stroke-miterlimit:22.9256;" d="
			M159.501,230.672C83.188,188.297,35.565,262.36,56.377,306.985"/>
		
			<path style="fill:none;stroke:#000000;stroke-width:8.5039;stroke-linecap:round;stroke-linejoin:round;stroke-miterlimit:22.9256;" d="
			M232.252,234.234c19.951-3.85,29.457-13.585,50.598-17.789c29.247-5.817,66.554,12.278,73.527,36.914"/>
		
			<path style="fill:none;stroke:#000000;stroke-width:8.5039;stroke-linecap:round;stroke-linejoin:round;stroke-miterlimit:22.9256;" d="
			M205.659,238.454c0,0,4.935-1.69,16.186-21.188"/>
		
			<path style="fill:none;stroke:#000000;stroke-width:8.5039;stroke-linecap:round;stroke-linejoin:round;stroke-miterlimit:22.9256;" d="
			M181.157,221.264c0,0,16.397,19.5,21.282,18.033"/>
		
			<path style="fill:none;stroke:#000000;stroke-width:8.5039;stroke-linecap:round;stroke-linejoin:round;stroke-miterlimit:22.9256;" d="
			M166.158,203.766c6.938-17.25,60.188-21,71.062-1.312"/>
		
			<path style="fill:none;stroke:#000000;stroke-width:8.5039;stroke-linecap:round;stroke-linejoin:round;stroke-miterlimit:22.9256;" d="
			M184.908,234.141c0,0-33.188,2.063-18.75-30.375"/>
		
			<path style="fill:none;stroke:#000000;stroke-width:8.5039;stroke-linecap:round;stroke-linejoin:round;stroke-miterlimit:22.9256;" d="
			M220.062,230.914c0,0,32.721,1.165,17.158-28.46"/>
		<path style="fill-rule:evenodd;clip-rule:evenodd;" d="M248.002,243.671c2.348,0,4.251,1.903,4.251,4.252
			c0,2.349-1.903,4.252-4.251,4.252c-2.35,0-4.253-1.903-4.253-4.252C243.749,245.574,245.652,243.671,248.002,243.671
			L248.002,243.671z"/>
		<path style="fill-rule:evenodd;clip-rule:evenodd;" d="M254.564,234.108c2.348,0,4.251,1.904,4.251,4.252
			c0,2.349-1.903,4.252-4.251,4.252c-2.35,0-4.253-1.903-4.253-4.252C250.312,236.012,252.215,234.108,254.564,234.108
			L254.564,234.108z"/>
		<path style="fill-rule:evenodd;clip-rule:evenodd;" d="M280.438,230.733c2.349,0,4.252,1.904,4.252,4.252
			c0,2.348-1.903,4.251-4.252,4.251c-2.349,0-4.252-1.903-4.252-4.251C276.187,232.637,278.09,230.733,280.438,230.733
			L280.438,230.733z"/>
		<path style="fill-rule:evenodd;clip-rule:evenodd;" d="M141.876,230.546c2.349,0,4.252,1.903,4.252,4.252
			c0,2.349-1.903,4.252-4.252,4.252s-4.252-1.903-4.252-4.252C137.624,232.449,139.527,230.546,141.876,230.546L141.876,230.546z"/>
		<path style="fill-rule:evenodd;clip-rule:evenodd;" d="M121.813,235.046c2.349,0,4.252,1.903,4.252,4.252
			c0,2.349-1.903,4.252-4.252,4.252c-2.349,0-4.252-1.903-4.252-4.252C117.562,236.949,119.465,235.046,121.813,235.046
			L121.813,235.046z"/>
		
			<path style="fill:none;stroke:#000000;stroke-width:8.5039;stroke-linecap:round;stroke-linejoin:round;stroke-miterlimit:22.9256;" d="
			M191.938,269.672c11.438-1.312,12.069-9.916,11.507-22.479"/>
		
			<path style="fill:none;stroke:#000000;stroke-width:8.5039;stroke-linecap:round;stroke-linejoin:round;stroke-miterlimit:22.9256;" d="
			M214.439,266.485c-4.34-2.447-9.377-6.188-11.439-22.312"/>
		
			<path style="fill:none;stroke:#000000;stroke-width:8.5039;stroke-linecap:round;stroke-linejoin:round;stroke-miterlimit:22.9256;" d="
			M136.251,255.047c0,0-35.812-15-48.562,24.188"/>
		
			<path style="fill:none;stroke:#000000;stroke-width:8.5039;stroke-linecap:round;stroke-linejoin:round;stroke-miterlimit:22.9256;" d="
			M214.439,266.485c6.562,3.375,30,2.25,66.562-15.375"/>
		
			<path style="fill:none;stroke:#000000;stroke-width:8.5039;stroke-linecap:round;stroke-linejoin:round;stroke-miterlimit:22.9256;" d="
			M136.251,255.047c8.456,3.611,34.125,15.94,55.688,14.625"/>
		
			<path style="fill:none;stroke:#000000;stroke-width:8.5039;stroke-linecap:round;stroke-linejoin:round;stroke-miterlimit:22.9256;" d="
			M114.501,333.61c42.375,30.188,134.219,48.162,185.063,7.875"/>
		
			<path style="fill:none;stroke:#000000;stroke-width:8.5039;stroke-linecap:round;stroke-linejoin:round;stroke-miterlimit:22.9256;" d="
			M281.002,251.11c45.499-21.233,65.47,48.863,18.562,90.375"/>
		
			<path style="fill:none;stroke:#000000;stroke-width:8.5039;stroke-linecap:round;stroke-linejoin:round;stroke-miterlimit:22.9256;" d="
			M87.688,279.235c-1.601,5.557-7.125,30.562,26.812,54.375"/>
		
			<path style="fill:none;stroke:#000000;stroke-width:8.5039;stroke-linecap:round;stroke-linejoin:round;stroke-miterlimit:22.9256;" d="
			M237.126,113.297c-0.495-12.574,20.626-44.625,37.125-20.625"/>
		
			<path style="fill:none;stroke:#000000;stroke-width:8.5039;stroke-linecap:round;stroke-linejoin:round;stroke-miterlimit:22.9256;" d="
			M317.376,148.922c-28.501-23.625-26.243-28.983-43.125-56.25"/>
		
			<path style="fill:none;stroke:#000000;stroke-width:8.5039;stroke-linecap:round;stroke-linejoin:round;stroke-miterlimit:22.9256;" d="
			M331.914,204.963c5.25-9.75,14.711-35.416-14.538-56.041"/>
		
			<path style="fill:none;stroke:#000000;stroke-width:8.5039;stroke-linecap:round;stroke-linejoin:round;stroke-miterlimit:22.9256;" d="
			M268.342,204.064c-19.907-22.218-34.591-57.017-31.216-90.767"/>
		
			<path style="fill:none;stroke:#000000;stroke-width:8.5039;stroke-linecap:round;stroke-linejoin:round;stroke-miterlimit:22.9256;" d="
			M120.22,120.516c1.5-3.938,15.375-10.125,17.25-2.25"/>
		
			<path style="fill:none;stroke:#000000;stroke-width:8.5039;stroke-linecap:round;stroke-linejoin:round;stroke-miterlimit:22.9256;" d="
			M135.22,132.891c0,0,2.625-7.125,2.25-14.625"/>
		
			<path style="fill:none;stroke:#000000;stroke-width:8.5039;stroke-linecap:round;stroke-linejoin:round;stroke-miterlimit:22.9256;" d="
			M104.515,175.65c0,0,10.83-48.571,15.705-55.133"/>
		
			<path style="fill:none;stroke:#000000;stroke-width:8.5039;stroke-linecap:round;stroke-linejoin:round;stroke-miterlimit:22.9256;" d="
			M117.595,142.641c0,0,5.062,12.938,11.437,17.625"/>
		
			<path style="fill:none;stroke:#000000;stroke-width:8.5039;stroke-linecap:round;stroke-linejoin:round;stroke-miterlimit:22.9256;" d="
			M121.574,177.971c0,0,5.208-10.205,7.458-17.705"/>
		
			<path style="fill:none;stroke:#000000;stroke-width:8.5039;stroke-linecap:round;stroke-linejoin:round;stroke-miterlimit:22.9256;" d="
			M117.595,142.641c0,0,7.312-7.5,17.625-9.75"/>
		
			<path style="fill:none;stroke:#000000;stroke-width:8.5039;stroke-linecap:round;stroke-linejoin:round;stroke-miterlimit:22.9256;" d="
			M260.657,118.829c0.749-8.812,14.812-7.5,16.875-0.188"/>
		
			<path style="fill:none;stroke:#000000;stroke-width:8.5039;stroke-linecap:round;stroke-linejoin:round;stroke-miterlimit:22.9256;" d="
			M267.066,181.898c0,0-8.097-50.319-6.409-63.069"/>
		
			<path style="fill:none;stroke:#000000;stroke-width:8.5039;stroke-linecap:round;stroke-linejoin:round;stroke-miterlimit:22.9256;" d="
			M279.032,133.829c0,0-0.376-6.188-1.5-15.188"/>
		
			<path style="fill:none;stroke:#000000;stroke-width:8.5039;stroke-linecap:round;stroke-linejoin:round;stroke-miterlimit:22.9256;" d="
			M263.845,146.579c-1.634,0.188,11.161-10.919,15.188-12.75"/>
		
			<path style="fill:none;stroke:#000000;stroke-width:8.5039;stroke-linecap:round;stroke-linejoin:round;stroke-miterlimit:22.9256;" d="
			M282.782,160.641c-5.812-6.188-15.862-11.641-18.938-14.062"/>
		
			<path style="fill:none;stroke:#000000;stroke-width:8.5039;stroke-linecap:round;stroke-linejoin:round;stroke-miterlimit:22.9256;" d="
			M284.1,177.737c0,0,0.932-13.534-1.317-17.096"/>
		
			<path style="fill:none;stroke:#000000;stroke-width:8.5039;stroke-linecap:round;stroke-linejoin:round;stroke-miterlimit:22.9256;" d="
			M181.157,287.768c0,0,20.25,15.166,36.75,0.75"/>
		
			<path style="fill:none;stroke:#000000;stroke-width:8.5039;stroke-linecap:round;stroke-linejoin:round;stroke-miterlimit:22.9256;" d="
			M249.782,286.643c0,0-7.125,16.125-31.875,1.875"/>
		
			<path style="fill:none;stroke:#000000;stroke-width:8.5039;stroke-linecap:round;stroke-linejoin:round;stroke-miterlimit:22.9256;" d="
			M280.438,266.485c5.352,16.568-18.282,53.242-30.656,20.158"/>
		
			<path style="fill:none;stroke:#000000;stroke-width:8.5039;stroke-linecap:round;stroke-linejoin:round;stroke-miterlimit:22.9256;" d="
			M295.579,253.162c0,0,4.237,27.171-13.093,25.637"/>
		
			<path style="fill:none;stroke:#000000;stroke-width:8.5039;stroke-linecap:round;stroke-linejoin:round;stroke-miterlimit:22.9256;" d="
			M181.157,287.768c-7.777,11.654-40.78,24.711-32.846-24.16"/>
		
			<path style="fill:none;stroke:#000000;stroke-width:8.5039;stroke-linecap:round;stroke-linejoin:round;stroke-miterlimit:22.9256;" d="
			M144.352,284.018c0,0-18.633,2.748-15.427-21.609"/>
		
			<path style="fill:none;stroke:#000000;stroke-width:8.5039;stroke-linecap:round;stroke-linejoin:round;stroke-miterlimit:22.9256;" d="
			M126.065,274.083c0,0-16.664-1.318-11.564-20.951"/>
		
			<path style="fill:none;stroke:#000000;stroke-width:8.5039;stroke-linecap:round;stroke-linejoin:round;stroke-miterlimit:22.9256;" d="
			M152.657,341.768c0,0,24.375-54.75,43.875,0.75"/>
		
			<path style="fill:none;stroke:#000000;stroke-width:8.5039;stroke-linecap:round;stroke-linejoin:round;stroke-miterlimit:22.9256;" d="
			M224.656,343.643c0,0-15.75-14.625-28.124-1.125"/>
		
			<path style="fill:none;stroke:#000000;stroke-width:8.5039;stroke-linecap:round;stroke-linejoin:round;stroke-miterlimit:22.9256;" d="
			M246.406,337.268c0,0-11.625-6.375-21.75,6.375"/>
		
			<path style="fill:none;stroke:#000000;stroke-width:8.5039;stroke-linecap:round;stroke-linejoin:round;stroke-miterlimit:22.9256;" d="
			M136.251,335.674c0,0,4.46-19.654,24.121-6.967"/>
		
			<path style="fill:none;stroke:#000000;stroke-width:8.5039;stroke-linecap:round;stroke-linejoin:round;stroke-miterlimit:22.9256;" d="
			M150.047,324.309c0,0-12.423-24.865-31.747,4.398"/>
		
			<path style="fill:none;stroke:#000000;stroke-width:8.5039;stroke-linecap:round;stroke-linejoin:round;stroke-miterlimit:22.9256;" d="
			M138.431,314.53c0,0-11.079-24.01-32.328,3.721"/>
		
			<path style="fill:none;stroke:#000000;stroke-width:8.5039;stroke-linecap:round;stroke-linejoin:round;stroke-miterlimit:22.9256;" d="
			M277.906,337.268c0,0-19.125-52.875-31.5,0"/>
		
			<path style="fill:none;stroke:#000000;stroke-width:8.5039;stroke-linecap:round;stroke-linejoin:round;stroke-miterlimit:22.9256;" d="
			M296.656,321.893c0,0-14.756-9.521-25.002,2.176"/>
		
			<path style="fill:none;stroke:#000000;stroke-width:8.5039;stroke-linecap:round;stroke-linejoin:round;stroke-miterlimit:22.9256;" d="
			M283.627,318.25c0,0,8.53-22.232,23.904-4.982"/>
		
			<path style="fill:none;stroke:#000000;stroke-width:8.5039;stroke-linecap:round;stroke-linejoin:round;stroke-miterlimit:22.9256;" d="
			M318.032,303.143c0,0-21.893-19.99-24.071,3.881"/>
	</g>
</g>
<g id="n0805">
	<g>
		
			<path style="fill:none;stroke:#000000;stroke-width:8.5039;stroke-linecap:round;stroke-linejoin:round;stroke-miterlimit:22.9256;" d="
			M153.502,5.109c0,0-6.374-4.875-30.75,8.625"/>
		
			<path style="fill:none;stroke:#000000;stroke-width:8.5039;stroke-linecap:round;stroke-linejoin:round;stroke-miterlimit:22.9256;" d="
			M232.627,8.484c0,0,24,4.5,36.375,14.625"/>
	</g>
</g>
</svg>
