<svg version="1.1" xmlns="http://www.w3.org/2000/svg" xmlns:xlink="http://www.w3.org/1999/xlink" x="0px" y="0px"
	 viewBox="0 0 373.807 529.708" style="enable-background:new 0 0 373.807 529.708;" xml:space="preserve">
<g id="n0901">
	<g>
		<g>
			
				<path style="fill:none;stroke:#000000;stroke-width:8.5039;stroke-linecap:round;stroke-linejoin:round;stroke-miterlimit:22.9256;" d="
				M169.109,28.788c0,0-3.149,11.881-2.322,23.866"/>
			
				<path style="fill:none;stroke:#000000;stroke-width:8.5039;stroke-linecap:round;stroke-linejoin:round;stroke-miterlimit:22.9256;" d="
				M229.011,25.988c0,0,5.763,15.662,4.248,30.59"/>
			
				<path style="fill:none;stroke:#000000;stroke-width:8.5039;stroke-linecap:round;stroke-linejoin:round;stroke-miterlimit:22.9256;" d="
				M320.292,144.127c0,0,14.438,29.438,3.562,73.501"/>
			
				<path style="fill:none;stroke:#000000;stroke-width:8.5039;stroke-linecap:round;stroke-linejoin:round;stroke-miterlimit:22.9256;" d="
				M26.948,282.034c0,0-33.75,22.5-18.938,52.312"/>
		</g>
		<g>
			<polygon style="fill-rule:evenodd;clip-rule:evenodd;fill:#E085AD;" points="108.229,119.377 104.104,112.252 99.84,98.796 
				97.584,81.176 98.92,65.338 103.17,52.017 108.745,41.428 112.006,41.138 115.354,43.439 116.967,49.019 121.778,57.059 
				115.541,62.002 118.178,68.201 119.707,75.193 120.586,82.75 120.956,89.446 121.041,97.3 120.856,104.457 120.538,110.009 
				115.561,114.613 108.229,119.377 			"/>
			<polygon style="fill-rule:evenodd;clip-rule:evenodd;fill:#FFFFFF;" points="139.315,103.744 137.291,96.314 137.631,88.702 
				136.331,80.444 132.879,72.23 128.026,65.032 121.778,57.059 116.178,63.501 118.178,68.201 119.707,75.193 120.784,85.623 
				121.016,94.864 120.905,102.562 120.53,111.877 128.331,108.137 139.315,103.744 			"/>
			<polygon style="fill-rule:evenodd;clip-rule:evenodd;fill:#49B87D;" points="184.528,80.638 173.006,80.8 156.795,83.633 
				146.788,86.557 137.631,88.702 137.291,96.314 139.868,103.546 148.901,100.597 158.969,97.945 169.077,96.062 181.752,95.709 
				185.502,88.934 188.551,86.51 184.528,80.638 			"/>
			<path style="fill-rule:evenodd;clip-rule:evenodd;fill:#FFFFFF;" d="M198.979,4.252l-3.797,10.611l-3.945,11.32l-1.916,8.601
				l2.533,9.969l-5.127,6.222l-1.057,7.398l2.371,8.547l-3.322,5.618c0,0-0.699,9.177-0.541,8.077
				c0.158-1.101,2.85,7.108,2.85,7.108l-5.275,7.987l-0.789,11.242l0.766,9.051l-4.5,10.5l9.443-0.438l9.418-1.662l11.818-3.823
				l6.883-5.646l3.57-8.432l-0.338-8.585l-2.567-11.203l-2.416-10.274l-1.916-5.457l2.602-6.247l-1.135-6.573l-4.848-5.401
				l3.766-7.526l-2.84-9.405l-1.885-9.138l-2.73-9.097l-2.939-8.118L198.979,4.252L198.979,4.252z"/>
			<polygon style="fill-rule:evenodd;clip-rule:evenodd;fill:#4AB47F;" points="218.192,102.209 226.204,102.297 236.448,106.729 
				248.305,113.144 258.34,119.965 268.172,128.727 275.819,138.657 280.7,150.264 283.731,163.966 284.971,176.372 
				285.151,191.326 284.372,204.789 282.799,218.651 280.557,232.167 277.444,246.802 273.872,262.93 272.854,279.503 
				266.848,351.552 290.553,334.628 294.368,341.802 295.963,348.315 295.963,348.315 304.065,339.608 310.364,347.211 
				310.159,357.733 304.932,369.961 311.536,374.758 319.422,366.862 328.264,358.049 333.44,346.636 335.28,331.938 
				335.579,316.968 334.463,301.338 328.793,285.136 319.159,272.35 308.971,262.875 299.317,254.921 293.707,247.093 
				293.313,236.654 298.028,225.713 303.508,215.46 306.581,202.599 306.95,184.441 303.21,162.05 297.26,143.974 289.596,128.998 
				280.303,119.58 268.391,109.409 260.03,104.162 262.454,96.402 252.313,94.682 239.34,95.175 233.479,96.127 229.916,89.002 
				225.163,85.976 219.124,83.151 215.225,83.723 216.741,92.315 218.192,102.209 			"/>
			<polygon style="fill-rule:evenodd;clip-rule:evenodd;fill:#F9D740;" points="278.901,60.132 285.792,64.814 283.594,73.927 
				282.223,85.018 282.165,97.756 283.338,108.062 285.637,118.104 282.075,121.427 274.346,114.495 264.211,106.785 
				258.979,103.627 263.854,96.877 264.309,87.97 267.086,78.216 272.563,68.604 278.901,60.132 			"/>
			<path style="fill-rule:evenodd;clip-rule:evenodd;fill:#E085AD;" d="M289.596,128.998l5.945-2.496l4.936-4.403l4.971-10.629
				l1.672-8.898l0.467-12.88l-0.938-11.396l-2.896-14.803l-4.318-12.492l-5.018-8.5l-3.594-2.871l-2.969,3.245l-2.172,6.432
				l-3.527,6.26l-3.254,4.564l6.891,4.682l-2.197,9.112l-1.108,8.966c0,0-0.297,9.424-0.293,8.495
				c0.004-0.929,0.363,11.048,0.363,11.048l1.27,8.264l2.338,9.154L289.596,128.998L289.596,128.998z"/>
			<polygon style="fill-rule:evenodd;clip-rule:evenodd;fill:#67559E;" points="181.752,95.709 181.229,103.184 181.51,112.486 
				180.567,117.566 176.875,127.135 188.924,125.667 202,122.491 212.473,116.835 216.358,112.527 222.791,114.502 220.856,122.407 
				213.565,133.313 203.081,140.756 183.176,146.601 167.709,147.565 152.338,147.055 138.114,148.177 124.704,151.943 
				111.622,160.037 103.374,170.02 97.971,183.877 97.188,197.712 102.776,210.275 113.116,222.378 119.747,232.278 
				122.403,245.267 127.231,254.695 125.44,267.915 123.75,277.115 122.573,282.972 304.065,339.608 303.935,356.643 
				261.14,400.357 261.203,417.607 261.251,433.729 261.251,511.029 241.346,511.36 187.525,487.296 168.047,490.685 
				157.35,493.672 147.981,496.33 140.457,493.804 128.739,493.193 118.198,494.54 106.686,491.478 96.522,484.694 84.784,474.873 
				79.979,463.795 80.354,458.151 73.356,453.858 66.258,445.853 64.213,441.816 69.532,438.123 73.848,432.238 75.229,424.628 
				74.221,411.315 74.282,400.822 77.926,388.774 70.26,388.347 60.877,376.512 52.547,362.446 46.858,348.094 44.182,333.434 
				44.983,319.707 48.668,308.053 54.512,298.06 61.627,289.815 69.774,281.353 72.819,273.673 70.26,261.597 63.372,247.557 
				60.299,232.01 61.405,216.236 65.159,203.411 71.741,190.077 77.663,181.473 82.332,179.321 81.7,166.96 82.961,153.31 
				87.196,141.518 94.131,131.825 104.52,122.189 115.561,114.613 129.325,107.74 143.383,102.335 158.969,97.945 171.161,95.799 
				181.752,95.709 			"/>
			<polygon style="fill-rule:evenodd;clip-rule:evenodd;fill:#4AB47F;" points="116.096,156.559 118.731,162.091 116.596,170.589 
				115.987,182.521 116.823,192.332 119.116,205.058 121.772,217.063 125.262,229.986 119.747,232.278 115.161,225.43 
				106.776,214.958 100.743,207.424 97.188,197.712 98.266,182.596 102.25,172.02 109.717,161.837 116.096,156.559 			"/>
			<path style="fill-rule:evenodd;clip-rule:evenodd;fill:#F9D740;" d="M175.444,147.083l0.861,7.897l0.504,14.978l-0.166,14.42
				l-1.223,14.571l-2.387,13.05l-2.303,13.43l0.619,5.865l-8.414,2.145l-9.322,6.886l-5.357,8.778l-2.27,11.789l0.68,8.483
				l1.235,35.933l-9.695,2.357l-9.557,3.785l-6.077-28.477l1.717-8.798l2.045-12.869l1.182-10.733l-0.205-9.456l-2.43-12.637
				l-4.498-17.69l-3.252-16.303l-0.961-15.555l1.494-12.592l0.498-10.35l6.541-4.047l10.992-3.317l16.643-1.571l10.75,0.409
				C163.088,147.464,175.473,147.36,175.444,147.083L175.444,147.083z"/>
			<polygon style="fill-rule:evenodd;clip-rule:evenodd;" points="136.061,228.124 149.01,227.466 149.252,214.773 148.911,205.624 
				140.737,198.799 135.049,192.642 141.803,185.367 149.573,178.534 149.694,168.063 147.899,163.872 143.016,161.126 
				137.069,163.111 134.385,171.034 134.385,179.708 136.061,228.124 			"/>
			<path style="fill-rule:evenodd;clip-rule:evenodd;fill:#FFFFFF;" d="M148.327,279.294l-1.281-7.655l-1.059-10.747l2.27-11.789
				c0,0,4.248-7.535,5.357-8.778c1.111-1.243,9.322-6.886,9.322-6.886l7.545-3.015l1.4-11.71l2.346-13.24l2.129-15.859l0.484-14.499
				l-0.324-15.559l-0.65-12.193l13.029-1.769l12.148-4.242l12.522-8.041l7.291-10.906l1.935-7.905l-6.215-3.785
				c0,0,1.027-8.514,2.004-8.503c0.977,0.01,6.648-0.274,6.648-0.274l11.219,4.789l9.568,5.057l10.377,6.726l11.779,10.215
				l8.996,12.335l5.047,16.053l2.135,13.054l0.875,16.008l-0.537,14.566l-2.068,19.168l-3.016,16.842l-3.947,18.114l-2.371,11.497
				l-0.432,13.14l-11.488-0.962l-14.809,1.211l-11.334,2.715l-12.48,5.899l-9.715,3.447l-10.143,2.529l-11.695-3.266l-9.094-4.939
				l-12.553-5.762l-11.482-1.833L148.327,279.294L148.327,279.294z"/>
			<polygon style="fill-rule:evenodd;clip-rule:evenodd;" points="255.946,230.751 263.561,231.843 267.608,219.098 269.84,207.649 
				267.743,200.241 260.204,193.709 257.012,188.517 265.905,182.299 272.172,177.605 273.008,168.373 271.223,161.61 
				267.1,160.059 261.385,164.692 259.415,171.886 258.305,178.939 255.42,205.132 255.006,218.794 255.946,230.751 			"/>
			<path style="fill-rule:evenodd;clip-rule:evenodd;fill:#5FF2E5;" d="M217.174,83.437l7.988,2.539l4.754,3.026l3.563,7.125
				l8.611-1.243l12.27-0.045l8.094,1.563l-2.424,7.76l9.248,6.478l11.129,9.045l9.189,9.312l5.883,11.327l-7.916,4.177l-7.021,5.25
				l-4.723-11.095l-6.84-9.065l-8.605-8.029l-10.682-7.565l-10.051-5.684l-11.348-5.199l-3.064-1.175l-6.598,0.274l-1.383-6.43
				l-1.266-7.765C215.983,88.019,217.415,83.513,217.174,83.437L217.174,83.437z"/>
			<polygon style="fill-rule:evenodd;clip-rule:evenodd;fill:#E085AD;" points="301.514,219.191 307.188,222.66 306.221,233.991 
				307.303,244.292 314.649,254.784 326.567,263.176 338.038,273.729 346.344,286.549 350.321,298.663 351.329,308.803 
				350.006,317.604 343.079,329.108 335.424,328.808 335.579,316.968 334.043,300.139 330.135,287.561 320.942,274.717 
				313.207,266.536 301.299,256.624 294.514,248.218 293.313,236.654 298.028,225.713 301.514,219.191 			"/>
			<path style="fill-rule:evenodd;clip-rule:evenodd;fill:#67559E;" d="M232.346,399.823l12.439-2.764l12.844-4.717l14.838-8.835
				l11.984-10.943l8.693-10.972l6.365-10.802l4.555-11.183l5.234,1.159l1.025,8.441l0.062,6.938l-2.842,7.7l-5.521,9.596
				l-8.252,7.884c0,0-7.93,5.929-6.998,6.509c0.934,0.581-3.701,11.145-3.701,11.145l-2.875,11.354l-0.643,16.223l1.543,12.945
				l2.545,12.49l3.098,11.901l1.979,7.122l1.629,9.684l0.016,8.295l-4.312,12.279l-9.15,7.217l-11.488,2.703l-9.381-0.059
				l-6.664-0.959l5.205-5.825l2.531-3.408l-2.4-6.934l-7.566-9.781l-8.047-10.902l-3.756-14.745l-1.652-16.409l-0.547-13.828
				l-0.359-13.502L232.346,399.823L232.346,399.823z"/>
			<path style="fill-rule:evenodd;clip-rule:evenodd;fill:#5FF2E5;" d="M304.786,368.645l7.172,5.549l-2.902,6.031l2.641,7.473
				l7.15,7.791l5.053,7.644l3.588,9.166l0.98,10.031l-1.514,8.417l-3.369,7.81l-8.32,11.135l-8.959,7.689l-9.254,4.169l-10.65,1.284
				l-2.758-10.842l-2.953-15.047l-1.287-14.05l1.305-15.386l5.193-15.575l6.541-9.306l8.033-7.707
				C300.475,374.921,305.485,369.187,304.786,368.645L304.786,368.645z"/>
			
				<path style="fill:none;stroke:#000000;stroke-width:8.5039;stroke-linecap:round;stroke-linejoin:round;stroke-miterlimit:22.9256;" d="
				M137.291,96.314c3.563-28.312-19.125-35.062-21.937-52.875"/>
			
				<path style="fill:none;stroke:#000000;stroke-width:8.5039;stroke-linecap:round;stroke-linejoin:round;stroke-miterlimit:22.9256;" d="
				M105.313,119.377c0,0-21.333-42.938,2.728-76.126"/>
			
				<path style="fill:none;stroke:#000000;stroke-width:8.5039;stroke-linecap:round;stroke-linejoin:round;stroke-miterlimit:22.9256;" d="
				M115.354,43.439c-0.188-2.25-3.75-3.75-7.312-0.188"/>
			
				<path style="fill:none;stroke:#000000;stroke-width:8.5039;stroke-linecap:round;stroke-linejoin:round;stroke-miterlimit:22.9256;" d="
				M120.538,110.009c0,0,2.879-35.444-4.996-48.007"/>
			
				<path style="fill:none;stroke:#000000;stroke-width:8.5039;stroke-linecap:round;stroke-linejoin:round;stroke-miterlimit:22.9256;" d="
				M185.104,82.814c0,0-4.5-12.188,6-18.188s16.125-11.438,16.125-11.438s9.187-6.562,0.75-18.375"/>
			
				<path style="fill:none;stroke:#000000;stroke-width:8.5039;stroke-linecap:round;stroke-linejoin:round;stroke-miterlimit:22.9256;" d="
				M186.041,61.814c0,0-2.625-12.188,5.813-17.062c8.437-4.875,14.062-8.625,16.125-9.938"/>
			
				<path style="fill:none;stroke:#000000;stroke-width:8.5039;stroke-linecap:round;stroke-linejoin:round;stroke-miterlimit:22.9256;" d="
				M193.325,43.897c-7.312-7.312-4.203-11.667,5.654-39.645"/>
			
				<path style="fill:none;stroke:#000000;stroke-width:8.5039;stroke-linecap:round;stroke-linejoin:round;stroke-miterlimit:22.9256;" d="
				M207.979,34.814c0.562-5.25-5.25-21.938-9-30.562"/>
			
				<path style="fill:none;stroke:#000000;stroke-width:8.5039;stroke-linecap:round;stroke-linejoin:round;stroke-miterlimit:22.9256;" d="
				M209.291,53.564c-1.158-1.168,13.152,10.749-3.937,22.875c-5.781,4.102-7.932,4.796-12.75,7.688
				c-4.818,2.892-11.438,5.251-11.625,17.812c-0.188,12.562,0.75,14.062,0.75,14.062"/>
			
				<path style="fill:none;stroke:#000000;stroke-width:8.5039;stroke-linecap:round;stroke-linejoin:round;stroke-miterlimit:22.9256;" d="
				M177.229,126.502c0,0-0.188-9.938,11.062-14.625s15.938-7.5,20.063-10.5s10.687-11.438,4.687-24.938"/>
			
				<path style="fill:none;stroke:#000000;stroke-width:8.5039;stroke-linecap:round;stroke-linejoin:round;stroke-miterlimit:22.9256;" d="
				M237.98,92.092c0,0-13.323-7.365-23.161-10.478"/>
			
				<path style="fill:none;stroke:#000000;stroke-width:8.5039;stroke-linecap:round;stroke-linejoin:round;stroke-miterlimit:22.9256;" d="
				M137.786,89.943c0,0,24.605-10.919,46.742-9.305"/>
			
				<path style="fill:none;stroke:#000000;stroke-width:8.5039;stroke-linecap:round;stroke-linejoin:round;stroke-miterlimit:22.9256;" d="
				M236.052,95.709c0,0,15.052-3.52,27.802,1.168"/>
			
				<path style="fill:none;stroke:#000000;stroke-width:8.5039;stroke-linecap:round;stroke-linejoin:round;stroke-miterlimit:22.9256;" d="
				M287.854,42.876c-4.312,19.313-25.125,26.625-24,54"/>
			
				<path style="fill:none;stroke:#000000;stroke-width:8.5039;stroke-linecap:round;stroke-linejoin:round;stroke-miterlimit:22.9256;" d="
				M294.417,42.502c13.312,16.125,19.826,76.569-0.049,88.007"/>
			
				<path style="fill:none;stroke:#000000;stroke-width:8.5039;stroke-linecap:round;stroke-linejoin:round;stroke-miterlimit:22.9256;" d="
				M287.854,42.876c0.375-2.438,3.146-5.701,6.562-0.375"/>
			
				<path style="fill:none;stroke:#000000;stroke-width:8.5039;stroke-linecap:round;stroke-linejoin:round;stroke-miterlimit:22.9256;" d="
				M215.229,89.844c7.111,15.005,2.506,26.705-9.307,31.669c-6.619,2.78-18.377,4.68-26.699,5.41
				c-13.844,1.214-24.172,2.671-34.807,8.204"/>
			
				<path style="fill:none;stroke:#000000;stroke-width:8.5039;stroke-linecap:round;stroke-linejoin:round;stroke-miterlimit:22.9256;" d="
				M181.752,95.709c-13.312-2.25-52.148,8.105-73.523,23.668c-21.375,15.562-24.344,28.047-25.807,36.876
				s-1.568,35.499,8.182,49.749"/>
			
				<path style="fill:none;stroke:#000000;stroke-width:8.5039;stroke-linecap:round;stroke-linejoin:round;stroke-miterlimit:22.9256;" d="
				M285.792,64.814c0,0-12.799,37.444,8.576,73.444"/>
			
				<path style="fill:none;stroke:#000000;stroke-width:8.5039;stroke-linecap:round;stroke-linejoin:round;stroke-miterlimit:22.9256;" d="
				M258.979,103.627c0,0,35.062,16.5,43.875,57.188"/>
			
				<path style="fill:none;stroke:#000000;stroke-width:8.5039;stroke-linecap:round;stroke-linejoin:round;stroke-miterlimit:22.9256;" d="
				M302.854,160.814c0,0,8.062,25.875,2.25,50.063"/>
			
				<path style="fill:none;stroke:#000000;stroke-width:8.5039;stroke-linecap:round;stroke-linejoin:round;stroke-miterlimit:22.9256;" d="
				M222.791,101.471c0,0,49.688,16.969,57.75,48.281"/>
			
				<path style="fill:none;stroke:#000000;stroke-width:8.5039;stroke-linecap:round;stroke-linejoin:round;stroke-miterlimit:22.9256;" d="
				M245.479,132.689c0,0,16.096-9.796,26.143-0.023"/>
			
				<path style="fill:none;stroke:#000000;stroke-width:8.5039;stroke-linecap:round;stroke-linejoin:round;stroke-miterlimit:22.9256;" d="
				M279.604,236.753c0,0,12-51.75,0.938-87.001"/>
			
				<path style="fill:none;stroke:#000000;stroke-width:8.5039;stroke-linecap:round;stroke-linejoin:round;stroke-miterlimit:22.9256;" d="
				M288.604,143.939c-6.188,3.188-11.438,8.625-16.688,19.312"/>
			
				<path style="fill:none;stroke:#000000;stroke-width:8.5039;stroke-linecap:round;stroke-linejoin:round;stroke-miterlimit:22.9256;" d="
				M272.854,279.503c-0.562-14.625,0.949-14.926,6.75-42.75"/>
			
				<path style="fill:none;stroke:#000000;stroke-width:8.5039;stroke-linecap:round;stroke-linejoin:round;stroke-miterlimit:22.9256;" d="
				M213.979,231.878c0,0,47.812-24.751,44.438,46.688"/>
			
				<path style="fill:none;stroke:#000000;stroke-width:8.5039;stroke-linecap:round;stroke-linejoin:round;stroke-miterlimit:22.9256;" d="
				M186.229,233.565c-5.957-3.404-22.887-4.902-32.615,6.759c-5.275,6.325-10.133,15.817-6.197,32.804"/>
			
				<path style="fill:none;stroke:#000000;stroke-width:8.5039;stroke-linecap:round;stroke-linejoin:round;stroke-miterlimit:22.9256;" d="
				M222.791,114.502c0,0-0.988,36.669-63.416,32.775c-58.57-3.653-64.834,38.663-61.834,52.538"/>
			
				<path style="fill:none;stroke:#000000;stroke-width:8.5039;stroke-linecap:round;stroke-linejoin:round;stroke-miterlimit:22.9256;" d="
				M122.104,247.628c3.75-21.375-22.307-33.348-24.562-47.813"/>
			
				<path style="fill:none;stroke:#000000;stroke-width:8.5039;stroke-linecap:round;stroke-linejoin:round;stroke-miterlimit:22.9256;" d="
				M86.479,248.565c-1.855,9.088,1.664,18.2,10.838,21.088c8.775,2.762,21.578-0.761,24.787-22.026"/>
			
				<path style="fill:none;stroke:#000000;stroke-width:8.5039;stroke-linecap:round;stroke-linejoin:round;stroke-miterlimit:22.9256;" d="
				M175.866,147.364c3.938,60.938-5.309,61.524-5.395,84.035"/>
			
				<path style="fill:none;stroke:#000000;stroke-width:8.5039;stroke-linecap:round;stroke-linejoin:round;stroke-miterlimit:22.9256;" d="
				M126.715,151.155c0,0-16.518,8.253-8.643,48.754s14.438,34.875,4.5,83.063"/>
			
				<path style="fill:none;stroke:#000000;stroke-width:8.5039;stroke-linecap:round;stroke-linejoin:round;stroke-miterlimit:22.9256;" d="
				M157.26,227.846c0,0-15.996-1.721-31.998,2.14"/>
			
				<path style="fill:none;stroke:#000000;stroke-width:8.5039;stroke-linecap:round;stroke-linejoin:round;stroke-miterlimit:22.9256;" d="
				M147.51,164.284c0,0,8.812-9.375,11.062-10.312"/>
			
				<path style="fill:none;stroke:#000000;stroke-width:8.5039;stroke-linecap:round;stroke-linejoin:round;stroke-miterlimit:22.9256;" d="
				M139.893,147.9c0,0,1.242,12.633,1.242,14.696"/>
			
				<path style="fill:none;stroke:#000000;stroke-width:8.5039;stroke-linecap:round;stroke-linejoin:round;stroke-miterlimit:22.9256;" d="
				M124.448,159.034c0,0,8.813,6.75,10.125,8.062"/>
			
				<path style="fill:none;stroke:#000000;stroke-width:8.5039;stroke-linecap:round;stroke-linejoin:round;stroke-miterlimit:22.9256;" d="
				M149.76,169.534c0.32-10.168-15.188-12.938-15.375,1.5"/>
			
				<path style="fill:none;stroke:#000000;stroke-width:8.5039;stroke-linecap:round;stroke-linejoin:round;stroke-miterlimit:22.9256;" d="
				M134.76,192.971c0,0,10.125-11.625,14.812-14.438"/>
			
				<line style="fill:none;stroke:#000000;stroke-width:8.5039;stroke-linecap:round;stroke-linejoin:round;stroke-miterlimit:22.9256;" x1="149.76" y1="169.534" x2="149.573" y2="178.534"/>
			
				<path style="fill:none;stroke:#000000;stroke-width:8.5039;stroke-linecap:round;stroke-linejoin:round;stroke-miterlimit:22.9256;" d="
				M134.385,171.034c0,0-0.209,47.056,1.676,57.09"/>
			
				<path style="fill:none;stroke:#000000;stroke-width:8.5039;stroke-linecap:round;stroke-linejoin:round;stroke-miterlimit:22.9256;" d="
				M148.823,204.784c0,0-11.609-7.597-13.773-12.142"/>
			
				<path style="fill:none;stroke:#000000;stroke-width:8.5039;stroke-linecap:round;stroke-linejoin:round;stroke-miterlimit:22.9256;" d="
				M149.01,227.466c0,0,0.658-15.379-0.188-22.683"/>
			
				<path style="fill:none;stroke:#000000;stroke-width:8.5039;stroke-linecap:round;stroke-linejoin:round;stroke-miterlimit:22.9256;" d="
				M259.823,169.534c1.875-12.001,14.25-13.312,13.125-0.188"/>
			
				<path style="fill:none;stroke:#000000;stroke-width:8.5039;stroke-linecap:round;stroke-linejoin:round;stroke-miterlimit:22.9256;" d="
				M249.885,230.284c0,0,17.812,0.562,29.719,6.469"/>
			
				<path style="fill:none;stroke:#000000;stroke-width:8.5039;stroke-linecap:round;stroke-linejoin:round;stroke-miterlimit:22.9256;" d="
				M259.823,169.534c0,0-7.398,40.515-3.877,61.218"/>
			
				<path style="fill:none;stroke:#000000;stroke-width:8.5039;stroke-linecap:round;stroke-linejoin:round;stroke-miterlimit:22.9256;" d="
				M270.135,205.909c0,0-3.584,22.057-6.574,25.935"/>
			
				<path style="fill:none;stroke:#000000;stroke-width:8.5039;stroke-linecap:round;stroke-linejoin:round;stroke-miterlimit:22.9256;" d="
				M257.012,188.517c0,0,10.498-8.108,14.623-9.046"/>
			
				<path style="fill:none;stroke:#000000;stroke-width:8.5039;stroke-linecap:round;stroke-linejoin:round;stroke-miterlimit:22.9256;" d="
				M272.948,169.346c0,0-0.043,6.9-1.312,10.125"/>
			
				<path style="fill:none;stroke:#000000;stroke-width:8.5039;stroke-linecap:round;stroke-linejoin:round;stroke-miterlimit:22.9256;" d="
				M259.448,142.533c0,0,0.654,12.565,6.514,17.814"/>
			
				<path style="fill:none;stroke:#000000;stroke-width:8.5039;stroke-linecap:round;stroke-linejoin:round;stroke-miterlimit:22.9256;" d="
				M245.198,152.658c0,0,4.566,8.337,16.188,12.034"/>
			
				<path style="fill:none;stroke:#000000;stroke-width:8.5039;stroke-linecap:round;stroke-linejoin:round;stroke-miterlimit:22.9256;" d="
				M256.803,190.268c0,0,9.957,9.641,13.332,15.641"/>
			
				<path style="fill:none;stroke:#000000;stroke-width:8.5039;stroke-linecap:round;stroke-linejoin:round;stroke-miterlimit:22.9256;" d="
				M33.885,334.722c1.875-7.125-9.426-21.381,2.953-35.655c9.928-11.448,28.068-14.515,30.047-31.47"/>
			
				<path style="fill:none;stroke:#000000;stroke-width:8.5039;stroke-linecap:round;stroke-linejoin:round;stroke-miterlimit:22.9256;" d="
				M78.698,180.221c0,0-35.25,39.938-8.438,81.376"/>
			
				<path style="fill:none;stroke:#000000;stroke-width:8.5039;stroke-linecap:round;stroke-linejoin:round;stroke-miterlimit:22.9256;" d="
				M65.573,286.159c0,0,12.938-10.312,4.688-24.562"/>
			
				<path style="fill:none;stroke:#000000;stroke-width:8.5039;stroke-linecap:round;stroke-linejoin:round;stroke-miterlimit:22.9256;" d="
				M75.416,393.977c0,0-63.436-61.798-9.844-107.817"/>
			
				<path style="fill:none;stroke:#000000;stroke-width:8.5039;stroke-linecap:round;stroke-linejoin:round;stroke-miterlimit:22.9256;" d="
				M35.291,427.254c1.332,8.815,9.129,15.844,20.613,16.655c6.643,0.47,20.141-6.774,19.324-19.281"/>
			
				<path style="fill:none;stroke:#000000;stroke-width:8.5039;stroke-linecap:round;stroke-linejoin:round;stroke-miterlimit:22.9256;" d="
				M84.229,282.128c0,14.626,12.188,40.688-6.938,52.5"/>
			
				<path style="fill:none;stroke:#000000;stroke-width:8.5039;stroke-linecap:round;stroke-linejoin:round;stroke-miterlimit:22.9256;" d="
				M70.916,362.003c0,0-10.687-16.125,6.375-27.375"/>
			
				<path style="fill:none;stroke:#000000;stroke-width:8.5039;stroke-linecap:round;stroke-linejoin:round;stroke-miterlimit:22.9256;" d="
				M75.416,398.003c0,0,8.25-13.312-4.5-36"/>
			
				<path style="fill:none;stroke:#000000;stroke-width:8.5039;stroke-linecap:round;stroke-linejoin:round;stroke-miterlimit:22.9256;" d="
				M75.229,424.628c-1.32-10.835-4.312-16.875,0.188-26.625"/>
			
				<path style="fill:none;stroke:#000000;stroke-width:8.5039;stroke-linecap:round;stroke-linejoin:round;stroke-miterlimit:22.9256;" d="
				M174.885,241.16c-4.5,0.187-14.812,9.376-11.812,12.188"/>
			
				<path style="fill:none;stroke:#000000;stroke-width:8.5039;stroke-linecap:round;stroke-linejoin:round;stroke-miterlimit:22.9256;" d="
				M174.885,241.16c-4.117,3.294-7.875,15.938-11.812,12.188"/>
			
				<path style="fill:none;stroke:#000000;stroke-width:8.5039;stroke-linecap:round;stroke-linejoin:round;stroke-miterlimit:22.9256;" d="
				M235.073,242.66c2.625-2.251,13.312,12.75,9,15.937"/>
			
				<path style="fill:none;stroke:#000000;stroke-width:8.5039;stroke-linecap:round;stroke-linejoin:round;stroke-miterlimit:22.9256;" d="
				M244.073,258.598c-4.688,2.438-6.75-12.75-9-15.937"/>
			
				<path style="fill:none;stroke:#000000;stroke-width:8.5039;stroke-linecap:round;stroke-linejoin:round;stroke-miterlimit:22.9256;" d="
				M136.354,492.879c6.209,0.775,8.254,3.534,11.627,3.451c8.691-0.214,14.578-7.033,21.738-8.248c0,0,18.104-5.637,37.183,6.462
				c19.078,12.099,31.854,16.496,42.466,15.631c0,0,56.721,13.033,37.033-47.342"/>
			
				<path style="fill:none;stroke:#000000;stroke-width:8.5039;stroke-linecap:round;stroke-linejoin:round;stroke-miterlimit:22.9256;" d="
				M98.854,486.504c0,0,6.861,6.162,16.67,7.795c7.027,1.169,13.281-2.268,20.83-1.42"/>
			
				<path style="fill:none;stroke:#000000;stroke-width:8.5039;stroke-linecap:round;stroke-linejoin:round;stroke-miterlimit:22.9256;" d="
				M64.438,441.701c0,0,0.9,7.257,15.713,17.382"/>
			
				<path style="fill:none;stroke:#000000;stroke-width:8.5039;stroke-linecap:round;stroke-linejoin:round;stroke-miterlimit:22.9256;" d="
				M112.401,414.646c0,0-3.375,20.438,6.938,36.75"/>
			
				<path style="fill:none;stroke:#000000;stroke-width:8.5039;stroke-linecap:round;stroke-linejoin:round;stroke-miterlimit:22.9256;" d="
				M119.338,451.396c0,0,7.312,9.75-2.438,22.125"/>
			
				<path style="fill:none;stroke:#000000;stroke-width:8.5039;stroke-linecap:round;stroke-linejoin:round;stroke-miterlimit:22.9256;" d="
				M138.276,510.646c-16.875,3.75-34.656-20.792-21.375-37.125"/>
			
				<path style="fill:none;stroke:#000000;stroke-width:8.5039;stroke-linecap:round;stroke-linejoin:round;stroke-miterlimit:22.9256;" d="
				M80.151,459.083c-1.086,4.737,0.826,10.542,4.633,15.79c3.424,4.721,6.932,5.922,14.07,11.631"/>
			
				<path style="fill:none;stroke:#000000;stroke-width:8.5039;stroke-linecap:round;stroke-linejoin:round;stroke-miterlimit:22.9256;" d="
				M95.151,420.271c-0.842,5.272-2.395,12.556-6.055,19.406c-2.969,5.552-7.26,11.137-8.945,19.406"/>
			
				<path style="fill:none;stroke:#000000;stroke-width:8.5039;stroke-linecap:round;stroke-linejoin:round;stroke-miterlimit:22.9256;" d="
				M91.588,371.521c-8.625,22.688,6.188,34.875,3.562,48.75"/>
			
				<path style="fill:none;stroke:#000000;stroke-width:8.5039;stroke-linecap:round;stroke-linejoin:round;stroke-miterlimit:22.9256;" d="
				M286.471,390.685c-8.438,18.188-10.383,34.273-0.07,72.148"/>
			
				<path style="fill:none;stroke:#000000;stroke-width:8.5039;stroke-linecap:round;stroke-linejoin:round;stroke-miterlimit:22.9256;" d="
				M278.526,464.521c0,0,22.5,0.375,34.5-12.562"/>
			
				<path style="fill:none;stroke:#000000;stroke-width:8.5039;stroke-linecap:round;stroke-linejoin:round;stroke-miterlimit:22.9256;" d="
				M323.151,401.708c1.797,3.671,15.75,25.125-10.125,50.25"/>
			
				<path style="fill:none;stroke:#000000;stroke-width:8.5039;stroke-linecap:round;stroke-linejoin:round;stroke-miterlimit:22.9256;" d="
				M309.088,339.833c7.688,33-15.607,35.891-22.617,50.852"/>
			
				<path style="fill:none;stroke:#000000;stroke-width:8.5039;stroke-linecap:round;stroke-linejoin:round;stroke-miterlimit:22.9256;" d="
				M295.963,251.333c-10.125-14.438,6.281-28.223,9.141-40.455"/>
			
				<path style="fill:none;stroke:#000000;stroke-width:8.5039;stroke-linecap:round;stroke-linejoin:round;stroke-miterlimit:22.9256;" d="
				M331.588,290.521c-10.125-22.125-30.938-32.25-35.625-39.188"/>
			
				<path style="fill:none;stroke:#000000;stroke-width:8.5039;stroke-linecap:round;stroke-linejoin:round;stroke-miterlimit:22.9256;" d="
				M334.963,336.833c0,0,2.812-33.188-3.375-46.312"/>
			
				<path style="fill:none;stroke:#000000;stroke-width:8.5039;stroke-linecap:round;stroke-linejoin:round;stroke-miterlimit:22.9256;" d="
				M320.151,366.271c9.938-8.812,13.125-13.125,14.812-29.438"/>
			
				<path style="fill:none;stroke:#000000;stroke-width:8.5039;stroke-linecap:round;stroke-linejoin:round;stroke-miterlimit:22.9256;" d="
				M323.151,401.708c-7.459-14.432-26.062-16.875-3-35.438"/>
			
				<path style="fill:none;stroke:#000000;stroke-width:8.5039;stroke-linecap:round;stroke-linejoin:round;stroke-miterlimit:22.9256;" d="
				M307.586,216.125c0,0-3.463,18.354,0.344,30.468c1.783,5.68,9.029,9.818,15.502,14.396"/>
			
				<path style="fill:none;stroke:#000000;stroke-width:8.5039;stroke-linecap:round;stroke-linejoin:round;stroke-miterlimit:22.9256;" d="
				M350.821,315.227c0,0,6.549-31.737-27.389-54.238"/>
			
				<path style="fill:none;stroke:#000000;stroke-width:8.5039;stroke-linecap:round;stroke-linejoin:round;stroke-miterlimit:22.9256;" d="
				M351.932,341.802c-18.213-14.274-3.137-17.09-1.111-26.575"/>
			
				<path style="fill:none;stroke:#000000;stroke-width:8.5039;stroke-linecap:round;stroke-linejoin:round;stroke-miterlimit:22.9256;" d="
				M349.307,359.989c0,0,12.938-10.125,2.625-18.188"/>
			
				<path style="fill:none;stroke:#000000;stroke-width:8.5039;stroke-linecap:round;stroke-linejoin:round;stroke-miterlimit:22.9256;" d="
				M369.555,401.542c-2.314,6-19.744,10.017-29.346-1.523c-5.965-7.17-13.092-20.879,9.098-40.029"/>
		</g>
	</g>
</g>
<g id="n0902">
	<g>
		<polygon style="fill-rule:evenodd;clip-rule:evenodd;fill:#F9D740;" points="179.684,371.024 189.407,372.476 200.895,373.155 
			215.944,372.648 232.346,370.823 232.704,412.01 233.024,424.761 233.34,434.874 224.291,431.191 216.604,438.504 
			207.229,429.691 197.147,436.622 190.725,429.017 179.786,436.021 179.77,425.336 179.729,414.085 179.684,371.024 		"/>
		<polygon style="fill-rule:evenodd;clip-rule:evenodd;fill:#FFFFFF;" points="162.229,500.191 167.143,492.008 172.68,482.011 
			177.573,467.995 178.893,456.509 179.581,444.465 179.786,436.021 190.725,429.017 197.666,437.379 207.229,429.691 
			216.604,438.504 224.291,431.191 233.51,438.877 234.237,449.935 235.694,461.414 239.471,474.661 247.137,484.227 
			253.184,491.671 257.292,498.691 251.034,508.466 239.573,517.854 227.854,523.058 214.989,525.316 199.106,524.254 
			182.573,518.01 171.061,510.265 162.229,500.191 		"/>
		
			<path style="fill:none;stroke:#000000;stroke-width:8.5039;stroke-linecap:round;stroke-linejoin:round;stroke-miterlimit:22.9256;" d="
			M179.684,371.024c0.039,59.653,2.42,102.542-16.705,126.542"/>
		
			<path style="fill:none;stroke:#000000;stroke-width:8.5039;stroke-linecap:round;stroke-linejoin:round;stroke-miterlimit:22.9256;" d="
			M232.346,370.823c1.061,31.428,0.482,81.424,5.129,98.787c3.068,11.459,12.092,13.498,19.816,29.081"/>
		
			<path style="fill:none;stroke:#000000;stroke-width:8.5039;stroke-linecap:round;stroke-linejoin:round;stroke-miterlimit:22.9256;" d="
			M162.229,500.191c1.687,5.438,22.025,24.62,46.478,25.24c19.199,0.487,35.783-6.442,48.397-24.49"/>
		
			<polyline style="fill:none;stroke:#000000;stroke-width:8.5039;stroke-linecap:round;stroke-linejoin:round;stroke-miterlimit:22.9256;" points="
			183.041,435.504 191.479,428.379 197.666,437.379 207.229,429.691 216.604,438.504 224.291,431.191 233.51,438.877 		"/>
		
			<path style="fill:none;stroke:#000000;stroke-width:8.5039;stroke-linecap:round;stroke-linejoin:round;stroke-miterlimit:22.9256;" d="
			M208.12,509.802c0,0,0.826,13.078,0.588,15.63"/>
	</g>
</g>
<g id="n0903">
	<g>
		<polygon style="fill-rule:evenodd;clip-rule:evenodd;fill:#E085AD;" points="201.258,292.255 192.323,289.394 182.096,284.139 
			169.543,278.377 153.194,276.919 138.631,279.651 123.446,286.788 112.161,298.361 106.786,311.818 103.545,327.344 
			106.456,345.166 114.118,361.065 126.315,374.509 140.379,383.681 156.866,391.32 173.614,396.716 190.413,399.58 
			210.666,399.826 226.223,398.505 244.786,395.06 261.085,388.656 273.665,380.414 284.452,370.565 293.145,359.593 301.788,343.2 
			306.219,328.946 306.45,313.986 300.237,299.094 290.524,286.272 278.561,279.881 262.585,276.583 246.557,277.752 
			228.032,282.881 215.415,288.967 201.258,292.255 		"/>
		<path style="fill-rule:evenodd;clip-rule:evenodd;fill:#4AB47F;" d="M160.149,310.663l-10.434-3.082l-10.369,3.002l-5.807,11.584
			l0.547,12.197l7.154,11.763l9.072,7.399c0,0,8.039,2.025,7.551,3.012c-0.486,0.985,4.15-6.592,4.15-6.592l9.621-3.827l9.113,4.188
			l4.217,2.353l7.012-7.168l6.945-4.284l-1.492-5.392l-8.156-0.23l-8.024-0.623l-4.949-4.477l-6.611-0.12l-7.033-4.243l-2.684-7.241
			L160.149,310.663L160.149,310.663z"/>
		<polygon style="fill-rule:evenodd;clip-rule:evenodd;fill:#67559E;" points="212.625,337.235 219.135,332.535 229.403,333.796 
			238.801,330.835 245.516,328.597 251.934,326.599 254.487,319.982 253.907,313.434 252.272,307.565 261.274,305.452 
			270.125,309.279 273.854,314.767 275.073,325.828 273.45,334.082 270.293,342.055 265.479,348.4 255.926,354.905 253.385,349.878 
			247.586,345.71 240.666,347.215 233.76,352.598 227.512,351.843 222.87,344.91 216.809,340.728 212.625,337.235 		"/>
		<polygon style="fill-rule:evenodd;clip-rule:evenodd;fill:#60F3E6;" points="160.149,310.663 159.973,318.881 162.657,326.122 
			169.69,330.365 177.29,330.301 181.25,334.962 189.27,337.084 197.76,335.723 209.102,338.112 219.135,332.535 229.403,333.796 
			238.801,330.835 247.024,328.127 254.071,322.794 254.135,314.68 252.454,307.522 242.065,312.385 228.469,317.068 
			213.813,319.566 198.081,319.74 185.266,318.165 171.278,314.759 160.149,310.663 		"/>
		<polygon style="fill-rule:evenodd;clip-rule:evenodd;fill:#E085AD;" points="188.754,351.739 190.338,346.827 197.581,341.866 
			206.538,338.22 213.815,339.599 222.87,344.91 227.512,351.843 219.52,353.043 212.793,355.628 203.036,352.648 195.268,351.118 
			188.754,351.739 		"/>
		<path style="fill-rule:evenodd;clip-rule:evenodd;fill:#FFFFFF;" d="M157.877,356.507l4.137-6.561l7.822-3.818l8.043,2.012
			l5.98,3.903c0,0,8.289-0.973,8.221-0.794c-0.07,0.18,8.791,0.974,8.791,0.974l8.117,3.566c0,0,5.94-0.829,7.168-1.454
			c1.229-0.624,11.355-2.492,11.355-2.492l6.248,0.755l6.906-5.383l8.561-1.174l6.699,8.864l-7.777,4.68l-14.879,3.836l-13.74,2.679
			l-17.318,1.062l-12.219-0.728l-14.201-2.418l-8.969-2.605L157.877,356.507L157.877,356.507z"/>
		
			<path style="fill:none;stroke:#000000;stroke-width:8.5039;stroke-linecap:round;stroke-linejoin:round;stroke-miterlimit:22.9256;" d="
			M189.51,288.285c-12.059-6.069-24.043-17.988-53.572-7.745c-16.002,5.55-31.328,18.357-32.49,48.808"/>
		
			<path style="fill:none;stroke:#000000;stroke-width:8.5039;stroke-linecap:round;stroke-linejoin:round;stroke-miterlimit:22.9256;" d="
			M216.135,288.098c0,0,31.781-17.235,58.385-9.643c18.684,5.332,32.879,26.705,32.553,41.893"/>
		
			<path style="fill:none;stroke:#000000;stroke-width:8.5039;stroke-linecap:round;stroke-linejoin:round;stroke-miterlimit:22.9256;" d="
			M189.51,288.285c7.875,3.749,15,6.938,26.625-0.188"/>
		
			<path style="fill:none;stroke:#000000;stroke-width:8.5039;stroke-linecap:round;stroke-linejoin:round;stroke-miterlimit:22.9256;" d="
			M127.448,375.473c5.137,4.443,36.566,25.617,77.234,24.657c30.059-0.71,55.938-5.176,77.641-27.282"/>
		
			<path style="fill:none;stroke:#000000;stroke-width:8.5039;stroke-linecap:round;stroke-linejoin:round;stroke-miterlimit:22.9256;" d="
			M307.073,320.348c-0.188,13.124-6.15,33.105-24.75,52.5"/>
		
			<path style="fill:none;stroke:#000000;stroke-width:8.5039;stroke-linecap:round;stroke-linejoin:round;stroke-miterlimit:22.9256;" d="
			M103.448,329.348c0.467,12.314,4.895,30.141,24,46.125"/>
		
			<path style="fill:none;stroke:#000000;stroke-width:8.5039;stroke-linecap:round;stroke-linejoin:round;stroke-miterlimit:22.9256;" d="
			M158.385,309.848c0,0,46.312,23.25,90.375-0.75"/>
		
			<path style="fill:none;stroke:#000000;stroke-width:8.5039;stroke-linecap:round;stroke-linejoin:round;stroke-miterlimit:22.9256;" d="
			M274.823,327.848c0,0,2.154-11.708-3.928-17.823c-5.215-5.243-10.225-6.528-22.135-0.927"/>
		
			<path style="fill:none;stroke:#000000;stroke-width:8.5039;stroke-linecap:round;stroke-linejoin:round;stroke-miterlimit:22.9256;" d="
			M158.385,309.848c-5.291-2.88-25.5-7.688-25.312,19.125"/>
		
			<path style="fill:none;stroke:#000000;stroke-width:8.5039;stroke-linecap:round;stroke-linejoin:round;stroke-miterlimit:22.9256;" d="
			M166.823,361.41c0,0-32.062-9.75-33.75-32.438"/>
		
			<path style="fill:none;stroke:#000000;stroke-width:8.5039;stroke-linecap:round;stroke-linejoin:round;stroke-miterlimit:22.9256;" d="
			M251.01,357.285c12.617-5.844,20.625-10.688,23.812-29.438"/>
		
			<path style="fill:none;stroke:#000000;stroke-width:8.5039;stroke-linecap:round;stroke-linejoin:round;stroke-miterlimit:22.9256;" d="
			M166.823,361.41c0,0,39.75,15.375,84.187-4.125"/>
		
			<path style="fill:none;stroke:#000000;stroke-width:8.5039;stroke-linecap:round;stroke-linejoin:round;stroke-miterlimit:22.9256;" d="
			M177.29,325.81c0,0,3.107,13.078,20.471,9.913"/>
		
			<path style="fill:none;stroke:#000000;stroke-width:8.5039;stroke-linecap:round;stroke-linejoin:round;stroke-miterlimit:22.9256;" d="
			M219.135,332.535c0,0-7.5,10.312-21.375,3.188"/>
		
			<path style="fill:none;stroke:#000000;stroke-width:8.5039;stroke-linecap:round;stroke-linejoin:round;stroke-miterlimit:22.9256;" d="
			M242.139,322.817c0,0-0.793,14.791-23.004,9.718"/>
		
			<path style="fill:none;stroke:#000000;stroke-width:8.5039;stroke-linecap:round;stroke-linejoin:round;stroke-miterlimit:22.9256;" d="
			M252.272,307.565c0,0,9.596,25.134-10.926,20.458"/>
		
			<path style="fill:none;stroke:#000000;stroke-width:8.5039;stroke-linecap:round;stroke-linejoin:round;stroke-miterlimit:22.9256;" d="
			M177.29,330.301c0,0-20.439,4.989-17.141-19.638"/>
		
			<path style="fill:none;stroke:#000000;stroke-width:8.5039;stroke-linecap:round;stroke-linejoin:round;stroke-miterlimit:22.9256;" d="
			M187.073,349.973c0,0,22.125-25.312,40.687,0.562"/>
		
			<path style="fill:none;stroke:#000000;stroke-width:8.5039;stroke-linecap:round;stroke-linejoin:round;stroke-miterlimit:22.9256;" d="
			M157.487,357.578c0,0,2.15-7.104,7.785-10.138c4.619-2.486,12.137-2.053,18.051,5.72"/>
		
			<path style="fill:none;stroke:#000000;stroke-width:8.5039;stroke-linecap:round;stroke-linejoin:round;stroke-miterlimit:22.9256;" d="
			M210.698,356.723c-5.271-2.604-11.775-11.035-27.375-3.562"/>
		
			<path style="fill:none;stroke:#000000;stroke-width:8.5039;stroke-linecap:round;stroke-linejoin:round;stroke-miterlimit:22.9256;" d="
			M233.76,352.598c0,0-13.113-6.91-23.062,4.125"/>
		
			<path style="fill:none;stroke:#000000;stroke-width:8.5039;stroke-linecap:round;stroke-linejoin:round;stroke-miterlimit:22.9256;" d="
			M258.587,353.094c0,0-3.968-4.977-9.36-7.053c-2.957-1.138-10.387,0.326-15.467,6.557"/>
	</g>
</g>
</svg>
