<svg version="1.1" xmlns="http://www.w3.org/2000/svg" xmlns:xlink="http://www.w3.org/1999/xlink" x="0px" y="0px"
	 viewBox="0 0 308.552 460.363" style="enable-background:new 0 0 308.552 460.363;" xml:space="preserve">
<g id="n1001">
	<g>
		<g>
			
				<path style="fill:none;stroke:#000000;stroke-width:8.5039;stroke-linecap:round;stroke-linejoin:round;stroke-miterlimit:22.9256;" d="
				M205.383,348.122c0,0,0.44,18.135,1.988,21.494"/>
			
				<path style="fill:none;stroke:#000000;stroke-width:8.5039;stroke-linecap:round;stroke-linejoin:round;stroke-miterlimit:22.9256;" d="
				M114.192,345.525c0,0-1.54,16.795-4.107,21.438"/>
		</g>
		<g>
			<path style="fill-rule:evenodd;clip-rule:evenodd;fill:#E085AD;" d="M131.899,304.937l12.423,3.802l13.455,3.483l10.048,2.398
				l10.946-4.239l8.646-3.57l-0.049,13.402l1.065,46.066l2.065,11.02l6.951,9.414l-3.041,7.794l-12.256,8.469l-15.615,3.255
				l-16.868-0.465l-15.15-3.739l-11.138-6.681l-3.933-5.819l4.942-3.782l5.41-10.216l2.179-14.891c0,0,0.375-43.252,0.358-44.374
				C132.323,315.143,131.899,304.937,131.899,304.937L131.899,304.937z"/>
			<polygon style="fill-rule:evenodd;clip-rule:evenodd;fill:#67559E;" points="68.263,417.277 75.444,411.777 86.878,403.404 
				100.614,394.016 116.075,385.588 119.45,389.527 123.383,395.346 128.952,398.686 142.096,403.896 153.365,406.169 
				166.539,406.231 177.797,404.361 188.283,398.742 195.105,393.484 198.951,384.276 209.519,386.587 221.145,391.785 
				234.205,398.82 245.729,405.415 255.389,410.902 257.639,416.902 252.326,424.278 241.887,434.014 228.177,442.5 
				215.893,447.779 197.98,452.831 179.213,455.542 160.464,456.031 143.917,454.378 130.462,451.467 115.536,446.583 
				100.694,439.935 87.671,432.479 77.687,425.51 68.263,417.277 			"/>
			
				<path style="fill:none;stroke:#000000;stroke-width:8.5039;stroke-linecap:round;stroke-linejoin:round;stroke-miterlimit:22.9256;" d="
				M187.418,306.811c0,0-1.968,78.59,10.033,79.902"/>
			
				<path style="fill:none;stroke:#000000;stroke-width:8.5039;stroke-linecap:round;stroke-linejoin:round;stroke-miterlimit:22.9256;" d="
				M131.899,304.937c0,0,3.676,78.401-9.824,81.964"/>
			
				<path style="fill:none;stroke:#000000;stroke-width:8.5039;stroke-linecap:round;stroke-linejoin:round;stroke-miterlimit:22.9256;" d="
				M198.951,384.276c11.812-0.375,42.162,18.296,61.1,28.796"/>
			
				<path style="fill:none;stroke:#000000;stroke-width:8.5039;stroke-linecap:round;stroke-linejoin:round;stroke-miterlimit:22.9256;" d="
				M197.451,386.713c-3.001,27.375-70.126,24.376-78.001,2.814"/>
			
				<path style="fill:none;stroke:#000000;stroke-width:8.5039;stroke-linecap:round;stroke-linejoin:round;stroke-miterlimit:22.9256;" d="
				M116.075,385.588c-8.812,2.625-34.875,21.564-47.812,31.689"/>
			
				<path style="fill:none;stroke:#000000;stroke-width:8.5039;stroke-linecap:round;stroke-linejoin:round;stroke-miterlimit:22.9256;" d="
				M140.075,418.618c0,0,20.814,5.409,40.314,1.659"/>
			
				<path style="fill:none;stroke:#000000;stroke-width:8.5039;stroke-linecap:round;stroke-linejoin:round;stroke-miterlimit:22.9256;" d="
				M68.263,417.277c9,9.562,46.617,38.434,95.639,38.829c44.272,0.357,82.538-20.046,96.149-43.034"/>
		</g>
	</g>
</g>
<g id="n1002">
	<g>
		<polygon style="fill-rule:evenodd;clip-rule:evenodd;fill:#FFFFFF;" points="159.92,135.651 164.545,145.468 165.54,156.125 
			171.697,174.742 181.513,187.786 194.826,195.381 209.985,199.307 235.325,191.073 248.827,191.406 259.793,185.18 
			259.811,169.997 257.811,150.668 254.622,133.82 250.791,109.765 240.201,111.257 219.106,101.24 181.513,108.498 
			160.592,121.322 		"/>
		<polygon style="fill-rule:evenodd;clip-rule:evenodd;fill:#60F3E6;" points="56.053,113.924 70.021,109.147 89.826,104.74 
			105.052,104.74 125.565,110.08 143.917,116.615 140.476,153.579 126.291,179.106 112.72,190.439 106.231,208.495 78.033,194.747 
			51.465,194.747 50.447,183.399 49.693,173.848 49.236,160.193 50.143,143.739 51.888,133.129 52.704,126.011 		"/>
		<path style="fill-rule:evenodd;clip-rule:evenodd;fill:#F9D740;" d="M65.598,104.081l2.781-11.515l5.616-9.369l11.54-7.058
			l11.533-0.893l7.447-2.153l5.173,7.009l5.225,8.003l5.391,10.13l1.774,4.32l9.373,14.057c0,0-20.499-1.165-31.59-2.432
			c-11.091-1.267-23.044,1.353-23.044,1.353l-2.983-5.347l-8.582,0.391L65.598,104.081L65.598,104.081z"/>
		<polygon style="fill-rule:evenodd;clip-rule:evenodd;fill:#67559E;" points="48.02,141.463 51.715,95.952 48.286,82.676 
			47.711,76.082 54.44,74.817 53.1,63.504 54.41,50.595 60.332,36.793 67.957,32.905 69.996,24.994 74.163,18.318 82.178,17.092 
			88.025,20.802 94.704,14.451 102.514,10.019 109.061,11.42 111.696,16.536 122.677,14.858 136.975,9.51 153.887,5.269 
			169.467,4.252 181.704,5.058 188.57,10.673 197.784,17.493 211.281,19.002 224.859,21.191 231.6,28.507 235.262,35.556 
			239.385,41.661 248.74,46.43 258.977,52.737 262.176,59.979 260.339,68.466 256.48,75.336 261.921,77.879 259.66,85.773 
			256.627,93.446 253.197,100.874 248.827,109.308 237.342,109.982 236.264,102.933 233.117,89.26 228.557,80.923 223.01,74.21 
			210.674,77.087 200.15,81.906 191.121,88.744 184.078,97.255 180.764,103.683 181.229,111.257 170.936,114.981 159.141,124.902 
			155.811,125.765 142.889,125.765 135.575,121.322 126.508,111.008 121.518,110.62 122.077,102.558 117.607,93.172 110.689,81.638 
			104.514,73.094 97.067,75.247 85.535,76.141 75.21,81.94 68.378,92.567 66.478,100.439 57.325,121.322 50.249,140.397 		"/>
		<path style="fill-rule:evenodd;clip-rule:evenodd;fill:#E085AD;" d="M179.92,117.558l0.844-13.875l6.836-10.683l8.037-7.674
			l11.161-6.767l13.343-3.893l4.861-0.705l-0.176,4.597l5.827,5.094l3.345,8.509l1.537,6.664l3.85,15.359
			c0,0-6.135,4.042-21.517,3.375c-24.382-1.333-33.649,0-33.649,0H179.92z"/>
		<polygon style="fill-rule:evenodd;clip-rule:evenodd;fill:#E085AD;" points="136.297,162.442 144.156,159.82 152.962,158.425 
			165.172,160.741 161.073,149.812 159.141,124.902 150.734,124.902 142.889,125.765 140.434,150.954 136.297,162.442 		"/>
		<polygon style="fill-rule:evenodd;clip-rule:evenodd;" points="80.255,162.712 88.991,160.558 98.131,160.456 100.423,153.844 
			90.813,149.083 84.389,144.147 86.426,137.917 93.696,133.76 99.243,130.824 99.314,124.946 80.209,124.902 79.61,132.327 
			79.819,153.714 80.255,162.712 		"/>
		<polygon style="fill-rule:evenodd;clip-rule:evenodd;" points="208.604,126.763 218.41,126.37 227.031,126.209 233.404,126.171 
			234.295,133.026 226.184,137.668 217.689,143.066 211.232,148.213 219.67,152.845 227.193,157.731 229.627,164.573 
			221.428,163.874 214.232,164.018 207.043,164.766 206.826,156.69 206.811,140.385 208.604,126.763 		"/>
		
			<path style="fill:none;stroke:#000000;stroke-width:8.5039;stroke-linecap:round;stroke-linejoin:round;stroke-miterlimit:22.9256;" d="
			M75.577,64.871c0,0-3.562-27.375,19.312-15"/>
		
			<path style="fill:none;stroke:#000000;stroke-width:8.5039;stroke-linecap:round;stroke-linejoin:round;stroke-miterlimit:22.9256;" d="
			M128.452,57.746c-11.812-6.375-33.75-48-33.563-7.875"/>
		
			<path style="fill:none;stroke:#000000;stroke-width:8.5039;stroke-linecap:round;stroke-linejoin:round;stroke-miterlimit:22.9256;" d="
			M239.385,41.661c7.125,6.375,36.067,7.647,15.63,35.772"/>
		
			<path style="fill:none;stroke:#000000;stroke-width:8.5039;stroke-linecap:round;stroke-linejoin:round;stroke-miterlimit:22.9256;" d="
			M248.827,109.308c0,0,11.251-20.063,13.313-32.625"/>
		
			<path style="fill:none;stroke:#000000;stroke-width:8.5039;stroke-linecap:round;stroke-linejoin:round;stroke-miterlimit:22.9256;" d="
			M128.452,57.746c7.778-6.989,19.688-25.876,37.312,7.875"/>
		
			<path style="fill:none;stroke:#000000;stroke-width:8.5039;stroke-linecap:round;stroke-linejoin:round;stroke-miterlimit:22.9256;" d="
			M208.702,56.996c-8.625-3-0.75-29.438-42.938,8.625"/>
		
			<path style="fill:none;stroke:#000000;stroke-width:8.5039;stroke-linecap:round;stroke-linejoin:round;stroke-miterlimit:22.9256;" d="
			M233.827,55.495c0,0-10.687-2.062-25.125,1.501"/>
		
			<path style="fill:none;stroke:#000000;stroke-width:8.5039;stroke-linecap:round;stroke-linejoin:round;stroke-miterlimit:22.9256;" d="
			M65.252,110.579c0,0,0.731-41.21,38.232-35.022"/>
		
			<path style="fill:none;stroke:#000000;stroke-width:8.5039;stroke-linecap:round;stroke-linejoin:round;stroke-miterlimit:22.9256;" d="
			M99.952,67.495c0,0,24.104,28.585,29.011,48.041"/>
		
			<path style="fill:none;stroke:#000000;stroke-width:8.5039;stroke-linecap:round;stroke-linejoin:round;stroke-miterlimit:22.9256;" d="
			M174.053,116.615c0,0,18.431-45.542,57.523-43.12"/>
		
			<path style="fill:none;stroke:#000000;stroke-width:8.5039;stroke-linecap:round;stroke-linejoin:round;stroke-miterlimit:22.9256;" d="
			M221.265,77.433c2.93,1.535,14.345,7.036,17.907,28.973"/>
		
			<path style="fill:none;stroke:#000000;stroke-width:8.5039;stroke-linecap:round;stroke-linejoin:round;stroke-miterlimit:22.9256;" d="
			M142.889,95.62c0,0,6.188-36.751,22.125-0.75"/>
		
			<path style="fill:none;stroke:#000000;stroke-width:8.5039;stroke-linecap:round;stroke-linejoin:round;stroke-miterlimit:22.9256;" d="
			M194.826,75.557c-13.688,5.062-24.375,15.563-29.812,19.313"/>
		
			<path style="fill:none;stroke:#000000;stroke-width:8.5039;stroke-linecap:round;stroke-linejoin:round;stroke-miterlimit:22.9256;" d="
			M207.576,94.683c0,0,9.941,4.629,15.752,15.252"/>
		
			<path style="fill:none;stroke:#000000;stroke-width:8.5039;stroke-linecap:round;stroke-linejoin:round;stroke-miterlimit:22.9256;" d="
			M96.577,92.433c0,0-13.325,7.855-18.756,17.615"/>
		
			<path style="fill:none;stroke:#000000;stroke-width:8.5039;stroke-linecap:round;stroke-linejoin:round;stroke-miterlimit:22.9256;" d="
			M198.67,168.401c0,0,24.094-10.72,45,2.438"/>
		
			<path style="fill:none;stroke:#000000;stroke-width:8.5039;stroke-linecap:round;stroke-linejoin:round;stroke-miterlimit:22.9256;" d="
			M208.822,126.691"/>
		
			<path style="fill:none;stroke:#000000;stroke-width:8.5039;stroke-linecap:round;stroke-linejoin:round;stroke-miterlimit:22.9256;" d="
			M207.043,164.766"/>
		
			<path style="fill:none;stroke:#000000;stroke-width:8.5039;stroke-linecap:round;stroke-linejoin:round;stroke-miterlimit:22.9256;" d="
			M211.232,148.213c0,0,17.437,8.812,20.062,13.5"/>
		
			<path style="fill:none;stroke:#000000;stroke-width:8.5039;stroke-linecap:round;stroke-linejoin:round;stroke-miterlimit:22.9256;" d="
			M234.295,133.026c0,0-17.654,9.553-23.062,15.188"/>
		
			<path style="fill:none;stroke:#000000;stroke-width:8.5039;stroke-linecap:round;stroke-linejoin:round;stroke-miterlimit:22.9256;" d="
			M54.837,114.558c-12.687,30.91-10.2,67.03-4.575,84.128"/>
		
			<path style="fill:none;stroke:#000000;stroke-width:8.5039;stroke-linecap:round;stroke-linejoin:round;stroke-miterlimit:22.9256;" d="
			M108.388,164.766c0,0-14.718-10.927-39.843,3.323"/>
		
			<path style="fill:none;stroke:#000000;stroke-width:8.5039;stroke-linecap:round;stroke-linejoin:round;stroke-miterlimit:22.9256;" d="
			M79.607,129.651c0,0-0.016,29.186,0.649,33.062"/>
		
			<path style="fill:none;stroke:#000000;stroke-width:8.5039;stroke-linecap:round;stroke-linejoin:round;stroke-miterlimit:22.9256;" d="
			M101.17,129.838c0,0-17.508,8.815-19.5,11.625"/>
		
			<path style="fill:none;stroke:#000000;stroke-width:8.5039;stroke-linecap:round;stroke-linejoin:round;stroke-miterlimit:22.9256;" d="
			M81.669,141.463c0,0,7.875,9,19.875,12.75"/>
		
			<path style="fill:none;stroke:#000000;stroke-width:8.5039;stroke-linecap:round;stroke-linejoin:round;stroke-miterlimit:22.9256;" d="
			M54.837,110.99c-0.375-12.751-7.5-21-7.125-37.313"/>
		
			<path style="fill:none;stroke:#000000;stroke-width:8.5039;stroke-linecap:round;stroke-linejoin:round;stroke-miterlimit:22.9256;" d="
			M61.587,33.177c-2.625,10.312-12.938,16.125-6.375,45.375"/>
		
			<path style="fill:none;stroke:#000000;stroke-width:8.5039;stroke-linecap:round;stroke-linejoin:round;stroke-miterlimit:22.9256;" d="
			M67.587,35.708c0,0,2.531-30.281,20.437-14.906"/>
		
			<path style="fill:none;stroke:#000000;stroke-width:8.5039;stroke-linecap:round;stroke-linejoin:round;stroke-miterlimit:22.9256;" d="
			M111.696,16.536c0,0-3.092-17.904-23.671,4.267"/>
		
			<path style="fill:none;stroke:#000000;stroke-width:8.5039;stroke-linecap:round;stroke-linejoin:round;stroke-miterlimit:22.9256;" d="
			M206.586,18.959c-17.625,0-18.002-13.732-27.08-14.344c-42.283-2.849-48.764,12.012-67.81,11.92"/>
		
			<path style="fill:none;stroke:#000000;stroke-width:8.5039;stroke-linecap:round;stroke-linejoin:round;stroke-miterlimit:22.9256;" d="
			M171.697,37.723c0,0,6.576-18.577,34.889-18.764c28.313-0.187,20.423,6.764,32.799,22.702"/>
		
			<path style="fill:none;stroke:#000000;stroke-width:8.5039;stroke-linecap:round;stroke-linejoin:round;stroke-miterlimit:22.9256;" d="
			M248.827,108.498c12.687,30.91,10.2,67.03,4.575,84.129"/>
		<path style="fill-rule:evenodd;clip-rule:evenodd;" d="M208.822,126.691c0,0,2.35-9.086,13.339-10.019
			c10.989-0.933,16.279,9.721,16.322,16.354C238.526,139.659,208.822,126.691,208.822,126.691z"/>
		<path style="fill-rule:evenodd;clip-rule:evenodd;" d="M75.376,128.245c0,0,1.731-12.063,14.45-15.239
			c12.719-3.176,18.078,15.631,13.748,16.725C99.243,130.824,75.376,128.245,75.376,128.245z"/>
	</g>
</g>
<g id="n1003">
	<g>
		<path style="fill-rule:evenodd;clip-rule:evenodd;fill:#46B77E;" d="M4.889,111.246l-0.558,8.973l0.089,7.058l3,4.312l1.779,9.982
			l1.231,10.533l1.945,12.421l3.771,11.789l6.271,9.001l11.543,6.416l10.021,1.358l2.695,3.833l8.087-4.212l12.896-2.316
			l11.73,1.023l10.436,2.141l13.535-1.253l13.135-6.788l10.326-10.915l6.633-10.998l7.445-19.234l2.738-8.051l7.987-2.636
			l6.825,2.312l3.479,11.103l6.286,15.349l8.559,14.195l11.84,11.074l16.711,2.842l2.946,6.043l14.907-5.696l19.256-2.4
			l15.172,3.472l7.678,3.469l10.77-1.667l8.915-5.153l6.97-10.396l3.784-17.504l0.95-20.092l1.989-9.247l5.17-9.479l0.308-12.349
			l-22.867-2.582l-22.182-1.398l-23.666-0.618l-25.46,0.2l-22.866,0.769l-16.012,1.556l-8.138,5.976l-8.776,4.286l-11.201-1.565
			l-8.098-7.23l-8.367-2.943l-23.963-1.178l-24.725,0.218c0,0-23.975,0.796-22.983,0.942c0.992,0.146-23.341,2.146-23.341,2.146
			l-15.371,1.664L4.889,111.246L4.889,111.246z M180.357,127.573l5.318-4.034l11.742-1.243l16.09-0.73l16.711-0.377l17.793,0.229
			l16.471,1.358l11.647,6.609l4.565,11.576l0.209,15.38l-1.135,10.396l-4.026,8.931l-11.073,4.296l-17.405-0.098l-24.585-1.896
			l-14.291-1.928l-12.276-4.627l-6.339-8.043l-8.237-21.424L180.357,127.573L180.357,127.573z M34.564,124.358l7.5-1.706
			l12.027-1.204l13.377-1.012l17.811-0.523l21.93,0.244l15.805,1.212l-0.207,9.508l-1.609,12.333l-3.747,12.77l-6.729,11.894
			l-12.238,9.105l-15.268,1.507l-19.875,0.479l-19.867-0.479l-11.35-7.779l-4.668-12.092l-2.036-15.217l2.776-12.231L34.564,124.358
			L34.564,124.358z"/>
		
			<path style="fill:none;stroke:#000000;stroke-width:8.5039;stroke-linecap:round;stroke-linejoin:round;stroke-miterlimit:22.9256;" d="
			M4.889,111.246c0,0,69.562-10.125,123.563-5.062"/>
		
			<path style="fill:none;stroke:#000000;stroke-width:8.5039;stroke-linecap:round;stroke-linejoin:round;stroke-miterlimit:22.9256;" d="
			M174.202,106.746c21.003-1.669,82.313-4.125,129.938,2.812"/>
		
			<path style="fill:none;stroke:#000000;stroke-width:8.5039;stroke-linecap:round;stroke-linejoin:round;stroke-miterlimit:22.9256;" d="
			M128.452,106.183c9.307,0.481,8.783,11.561,22.259,11.83c11.967,0.24,15.701-10.928,23.491-11.268"/>
		
			<path style="fill:none;stroke:#000000;stroke-width:8.5039;stroke-linecap:round;stroke-linejoin:round;stroke-miterlimit:22.9256;" d="
			M142.701,137.12c0,0-11.25,59.812-52.875,56.438"/>
		
			<path style="fill:none;stroke:#000000;stroke-width:8.5039;stroke-linecap:round;stroke-linejoin:round;stroke-miterlimit:22.9256;" d="
			M158.451,135.995c0,0,13.124,61.688,51.534,58.312"/>
		
			<path style="fill:none;stroke:#000000;stroke-width:8.5039;stroke-linecap:round;stroke-linejoin:round;stroke-miterlimit:22.9256;" d="
			M142.701,137.12c0,0,6.75-6.938,15.75-1.125"/>
		
			<path style="fill:none;stroke:#000000;stroke-width:8.5039;stroke-linecap:round;stroke-linejoin:round;stroke-miterlimit:22.9256;" d="
			M4.889,111.246c0,0-1.031,12.093-0.469,16.03"/>
		
			<path style="fill:none;stroke:#000000;stroke-width:8.5039;stroke-linecap:round;stroke-linejoin:round;stroke-miterlimit:22.9256;" d="
			M7.42,131.588c0,21.924,0,62.719,40.124,62.107"/>
		
			<path style="fill:none;stroke:#000000;stroke-width:8.5039;stroke-linecap:round;stroke-linejoin:round;stroke-miterlimit:22.9256;" d="
			M297.951,132.62c3.77-7.034,7.127-4.685,6.189-23.062"/>
		
			<path style="fill:none;stroke:#000000;stroke-width:8.5039;stroke-linecap:round;stroke-linejoin:round;stroke-miterlimit:22.9256;" d="
			M264.256,195.449c42.001,1.125,33.035-51.12,34.407-64.063"/>
		
			<path style="fill:none;stroke:#000000;stroke-width:8.5039;stroke-linecap:round;stroke-linejoin:round;stroke-miterlimit:22.9256;" d="
			M37.514,123.245c0,0,43.311-6.375,85.5-1.875"/>
		
			<path style="fill:none;stroke:#000000;stroke-width:8.5039;stroke-linecap:round;stroke-linejoin:round;stroke-miterlimit:22.9256;" d="
			M187.02,123.282c10.875-1.688,58.899-3.506,77.462-0.506"/>
		
			<path style="fill:none;stroke:#000000;stroke-width:8.5039;stroke-linecap:round;stroke-linejoin:round;stroke-miterlimit:22.9256;" d="
			M209.545,176.588c0,0,39,4.688,55.125,3.376"/>
		
			<path style="fill:none;stroke:#000000;stroke-width:8.5039;stroke-linecap:round;stroke-linejoin:round;stroke-miterlimit:22.9256;" d="
			M264.482,122.776c0,0,12.75,2.062,15.562,14.438s-0.562,31.312-0.562,31.312s-1.312,10.876-14.812,11.438"/>
		
			<path style="fill:none;stroke:#000000;stroke-width:8.5039;stroke-linecap:round;stroke-linejoin:round;stroke-miterlimit:22.9256;" d="
			M187.02,123.282c-4.149,0.58-8.976,3.057-7.101,12.432c1.875,9.375,8.635,25.531,9.854,27.658
			c1.218,2.127,4.959,11.342,19.771,13.217"/>
		
			<path style="fill:none;stroke:#000000;stroke-width:8.5039;stroke-linecap:round;stroke-linejoin:round;stroke-miterlimit:22.9256;" d="
			M208.822,121.691"/>
		
			<path style="fill:none;stroke:#000000;stroke-width:8.5039;stroke-linecap:round;stroke-linejoin:round;stroke-miterlimit:22.9256;" d="
			M207.043,159.766"/>
		
			<path style="fill:none;stroke:#000000;stroke-width:8.5039;stroke-linecap:round;stroke-linejoin:round;stroke-miterlimit:22.9256;" d="
			M123.014,121.37c0,0,1.08,22.541-7.545,38.854s-15.98,16.758-21.987,17.678"/>
		
			<path style="fill:none;stroke:#000000;stroke-width:8.5039;stroke-linecap:round;stroke-linejoin:round;stroke-miterlimit:22.9256;" d="
			M47.544,179.026c0,0,29.438,0.188,45.938-1.125"/>
		
			<path style="fill:none;stroke:#000000;stroke-width:8.5039;stroke-linecap:round;stroke-linejoin:round;stroke-miterlimit:22.9256;" d="
			M37.514,123.245c-12.281,3.094-12.095,20.156-12.095,20.156s1.559,17.102,3.996,22.727s8.752,12.71,18.129,12.898"/>
		<path style="fill-rule:evenodd;clip-rule:evenodd;fill:#46B77E;" d="M4.889,111.246l-0.558,8.973l0.089,7.058l3,4.312l1.779,9.982
			l1.231,10.533l1.945,12.421l3.771,11.789l6.271,9.001l11.543,6.416l10.021,1.358l2.695,3.833l8.087-4.212l12.896-2.316
			l11.73,1.023l10.436,2.141l13.535-1.253l13.135-6.788l10.326-10.915l6.633-10.998l7.445-19.234l2.738-8.051l7.987-2.636
			l6.825,2.312l3.479,11.103l6.286,15.349l8.559,14.195l11.84,11.074l16.711,2.842l2.946,6.043l14.378,0.321l20.5-1.676l16,1.676
			l6.135-1.477l10.77-1.667l8.915-5.153l6.97-10.396l3.784-17.504l0.95-20.092l1.989-9.247l5.17-9.479l0.308-12.349l-22.867-2.582
			l-22.182-1.398l-23.666-0.618l-25.46,0.2l-22.866,0.769l-16.012,1.556l-8.138,5.976l-8.776,4.286l-11.201-1.565l-8.098-7.23
			l-8.367-2.943l-23.963-1.178l-24.725,0.218c0,0-23.975,0.796-22.983,0.942c0.992,0.146-23.341,2.146-23.341,2.146l-15.371,1.664
			L4.889,111.246L4.889,111.246z M180.357,127.573l5.318-4.034l11.742-1.243l16.09-0.73l16.711-0.377l17.793,0.229l16.471,1.358
			l11.647,6.609l4.565,11.576l0.209,15.38l-1.135,10.396l-4.026,8.931l-11.073,4.296l-17.405-0.098l-24.585-1.896l-14.291-1.928
			l-12.276-4.627l-6.339-8.043l-8.237-21.424L180.357,127.573L180.357,127.573z M34.564,124.358l7.5-1.706l12.027-1.204
			l13.377-1.012l17.811-0.523l21.93,0.244l15.805,1.212l-0.207,9.508l-1.609,12.333l-3.747,12.77l-6.729,11.894l-12.238,9.105
			l-15.268,1.507l-19.875,0.479l-19.867-0.479l-11.35-7.779l-4.668-12.092l-2.036-15.217l2.776-12.231L34.564,124.358
			L34.564,124.358z"/>
		
			<path style="fill:none;stroke:#000000;stroke-width:8.5039;stroke-linecap:round;stroke-linejoin:round;stroke-miterlimit:22.9256;" d="
			M4.889,111.246c0,0,69.562-10.125,123.563-5.062"/>
		
			<path style="fill:none;stroke:#000000;stroke-width:8.5039;stroke-linecap:round;stroke-linejoin:round;stroke-miterlimit:22.9256;" d="
			M174.202,106.746c21.003-1.669,82.313-4.125,129.938,2.812"/>
		
			<path style="fill:none;stroke:#000000;stroke-width:8.5039;stroke-linecap:round;stroke-linejoin:round;stroke-miterlimit:22.9256;" d="
			M128.452,106.183c9.307,0.481,8.783,11.561,22.259,11.83c11.967,0.24,15.701-10.928,23.491-11.268"/>
		
			<path style="fill:none;stroke:#000000;stroke-width:8.5039;stroke-linecap:round;stroke-linejoin:round;stroke-miterlimit:22.9256;" d="
			M142.701,137.12c0,0-11.25,59.812-52.875,56.438l-42.282,0.138C7.42,194.307,7.42,153.513,7.42,131.588"/>
		
			<path style="fill:none;stroke:#000000;stroke-width:8.5039;stroke-linecap:round;stroke-linejoin:round;stroke-miterlimit:22.9256;" d="
			M158.451,136.616c0,0,13.124,61.688,51.534,58.312l54.27,0.521c42.001,1.125,33.035-51.12,34.407-64.063"/>
		
			<path style="fill:none;stroke:#000000;stroke-width:8.5039;stroke-linecap:round;stroke-linejoin:round;stroke-miterlimit:22.9256;" d="
			M142.701,137.12c0,0,6.75-6.938,15.75-1.125"/>
		
			<path style="fill:none;stroke:#000000;stroke-width:8.5039;stroke-linecap:round;stroke-linejoin:round;stroke-miterlimit:22.9256;" d="
			M4.889,111.246c0,0-1.031,12.093-0.469,16.03"/>
		
			<path style="fill:none;stroke:#000000;stroke-width:8.5039;stroke-linecap:round;stroke-linejoin:round;stroke-miterlimit:22.9256;" d="
			M297.951,132.62c3.77-7.034,7.127-4.685,6.189-23.062"/>
		
			<path style="fill:none;stroke:#000000;stroke-width:8.5039;stroke-linecap:round;stroke-linejoin:round;stroke-miterlimit:22.9256;" d="
			M37.514,123.245c0,0,43.311-6.375,85.5-1.875"/>
		
			<path style="fill:none;stroke:#000000;stroke-width:8.5039;stroke-linecap:round;stroke-linejoin:round;stroke-miterlimit:22.9256;" d="
			M187.02,123.282c10.875-1.688,58.899-3.506,77.462-0.506"/>
		
			<path style="fill:none;stroke:#000000;stroke-width:8.5039;stroke-linecap:round;stroke-linejoin:round;stroke-miterlimit:22.9256;" d="
			M209.545,176.588c0,0,39,4.688,55.125,3.376"/>
		
			<path style="fill:none;stroke:#000000;stroke-width:8.5039;stroke-linecap:round;stroke-linejoin:round;stroke-miterlimit:22.9256;" d="
			M264.482,122.776c0,0,12.75,2.062,15.562,14.438s-0.562,31.312-0.562,31.312s-1.312,10.876-14.812,11.438"/>
		
			<path style="fill:none;stroke:#000000;stroke-width:8.5039;stroke-linecap:round;stroke-linejoin:round;stroke-miterlimit:22.9256;" d="
			M187.02,123.282c-4.149,0.58-8.976,3.057-7.101,12.432c1.875,9.375,8.635,25.531,9.854,27.658
			c1.218,2.127,4.959,11.342,19.771,13.217"/>
		
			<path style="fill:none;stroke:#000000;stroke-width:8.5039;stroke-linecap:round;stroke-linejoin:round;stroke-miterlimit:22.9256;" d="
			M208.822,121.691"/>
		
			<path style="fill:none;stroke:#000000;stroke-width:8.5039;stroke-linecap:round;stroke-linejoin:round;stroke-miterlimit:22.9256;" d="
			M207.043,159.766"/>
		
			<path style="fill:none;stroke:#000000;stroke-width:8.5039;stroke-linecap:round;stroke-linejoin:round;stroke-miterlimit:22.9256;" d="
			M123.014,121.37c0,0,1.08,22.541-7.545,38.854s-15.98,16.758-21.987,17.678"/>
		
			<path style="fill:none;stroke:#000000;stroke-width:8.5039;stroke-linecap:round;stroke-linejoin:round;stroke-miterlimit:22.9256;" d="
			M47.544,179.026c0,0,29.438,0.188,45.938-1.125"/>
		
			<path style="fill:none;stroke:#000000;stroke-width:8.5039;stroke-linecap:round;stroke-linejoin:round;stroke-miterlimit:22.9256;" d="
			M37.514,123.245c-12.281,3.094-12.095,20.156-12.095,20.156s1.559,17.102,3.996,22.727s8.752,12.71,18.129,12.898"/>
	</g>
</g>
<g id="n1004">
	<g>
		<g>
			<path style="fill-rule:evenodd;clip-rule:evenodd;fill:#F9D740;" d="M135.434,164.432l7.355-4.118l7.594-1.802l14.79,2.228
				l8.428,8.098l6.039,7.75l8.976,11.128l5.909,9.206l5.738,9.135l6.923-3.918l14.09-5.681l18.691-3.005l19.789,4.495l13.541,10.385
				l5.262,9.13l2.072,15l-0.326,13.598l-3.32,17.9l-9.241,17.146l-14.333,15.008l-20.858,16.148l-25.687,15.209l-24.641,11.57
				l-14.399,5.576l-16.319-3.895c0,0-19.676-6.826-19.606-5.789c0.069,1.037-18.169-6.469-18.169-6.469l-20.227-8.777l-22.45-12.656
				L51.211,290.91l-15.244-21.522l-7.324-22.98l2.091-22.502l8.84-15.411l16.805-11.329l17.146-1.261l16.301,2.652l18.187,5.062
				l8.483-18.103l8.58-13.203L135.434,164.432L135.434,164.432z"/>
			<polygon style="fill-rule:evenodd;clip-rule:evenodd;fill:#FFFFFF;" points="81.511,223.352 79.936,229.361 79.483,235.982 
				83.328,242.329 87.2,244.025 94.844,241.365 100.399,249.048 108.163,251.652 113.263,251.525 120.121,256.525 128.421,258.728 
				136.889,256.587 142.751,259.796 151.452,262.367 162.006,261.65 171.389,256.4 180.369,258.486 189.137,257.367 
				198.201,250.962 206.729,252.14 213.899,248.412 219.389,243.462 227.588,241.72 231.217,235.497 232.139,225.838 
				231.521,220.942 220.309,222.676 205.988,225.723 192.738,229.26 176.95,234.304 166.769,238.044 159.067,239.892 
				149.93,240.179 138.107,237.287 120.114,232.23 102.126,227.824 90.882,225.309 81.511,223.352 			"/>
			<polygon style="fill-rule:evenodd;clip-rule:evenodd;fill:#60F3E6;" points="82.076,287.732 84.576,282.275 86.769,275.595 
				94.647,269.716 102.356,270.957 108.013,274.025 117.11,276.562 125.97,281.332 136.099,280.957 143.033,283.283 149.451,287.9 
				156.568,283.929 168.068,283.439 178.049,288.128 187.615,282.078 197.977,279.07 205.453,272.734 213.522,269.433 
				222.129,273.898 226.701,280.4 230.858,286.378 221.568,292.347 205.927,300.871 187.326,309.437 166.995,315.894 
				145.43,314.517 125.722,307.917 105.915,299.876 88.44,291.375 82.076,287.732 			"/>
			<polygon style="fill-rule:evenodd;clip-rule:evenodd;fill:#F9D740;" points="169.652,284.183 171.201,278.525 165.74,269.513 
				156.729,262.009 150.404,267.333 146.556,274.326 143.033,283.283 149.451,287.9 156.568,283.929 163.279,283.644 
				169.652,284.183 			"/>
			<polygon style="fill-rule:evenodd;clip-rule:evenodd;fill:#67559D;" points="57.488,218.975 65.311,220.29 73.86,221.853 
				81.387,223.827 79.936,229.361 79.976,237.954 85.264,243.177 94.844,241.365 99.585,247.921 106.195,251.392 114.047,252.097 
				121.325,257.095 131.098,258.579 138.158,257.382 147.102,261.082 152.959,262.535 148.48,270.829 145.423,277.207 
				142.492,283.001 133.176,280.837 125.97,281.332 119.729,277.972 111.403,276.044 102.356,270.957 94.647,269.716 
				88.837,272.767 85.672,278.935 82.076,287.732 72.187,280.927 64.822,273.941 56.542,262.935 50.872,249.964 49.611,240.146 
				51.909,228.59 57.488,218.975 			"/>
			<path style="fill-rule:evenodd;clip-rule:evenodd;fill:#49B47E;" d="M231.521,220.942l12.639-1.119l6.955,5.608l5.324,6.773
				l3.611,9.678l-0.659,11.096l-5.072,10.854l-8.259,9.963l-15.202,12.584l-4.157-5.978l-6.624-8.367l-6.555-2.6l-6.578,2.158
				l-7.001,7.684c0,0-6.904,2.098-7.147,1.299c-0.243-0.799-7.246,2.959-7.246,2.959l-5.264,5.096l-8.867-4.145l-0.78-7.049
				l-3.962-6.373l-6.758-8.904l11.469-5.758l8.98,2.086l10.189-2.123l7.643-5.4l8.527,1.178l7.171-3.729l3.597-5.635l8.19,0.148
				l4.933-5.664l1.519-11.423L231.521,220.942L231.521,220.942z"/>
			
				<path style="fill:none;stroke:#000000;stroke-width:8.5039;stroke-linecap:round;stroke-linejoin:round;stroke-miterlimit:22.9256;" d="
				M280.139,224.245c-2.093-18.68-20.83-29.413-35.995-30.632c-22.589-1.816-43.881,12.445-43.881,12.445
				c-5.726-19.666-32.046-43.611-32.046-43.611c-15.993-10.066-31.92-0.004-31.92-0.004s-25.172,16.307-27.909,45.302
				c0,0-44.438-28.312-68.813,0.751"/>
			
				<path style="fill:none;stroke:#000000;stroke-width:8.5039;stroke-linecap:round;stroke-linejoin:round;stroke-miterlimit:22.9256;" d="
				M149.465,168.838c0,0,3.145,39.359,1.27,50.984"/>
			
				<path style="fill:none;stroke:#000000;stroke-width:8.5039;stroke-linecap:round;stroke-linejoin:round;stroke-miterlimit:22.9256;" d="
				M50.263,217.871c37.5,5.436,79.124,16.311,90.938,20.436c11.812,4.125,22.605,0.979,27.938-1.125
				c5.333-2.104,51.938-19.874,89.064-17.249"/>
			
				<path style="fill:none;stroke:#000000;stroke-width:8.5039;stroke-linecap:round;stroke-linejoin:round;stroke-miterlimit:22.9256;" d="
				M270.388,277.683c0,0,13.126-15.002,9.751-53.439"/>
			
				<path style="fill:none;stroke:#000000;stroke-width:8.5039;stroke-linecap:round;stroke-linejoin:round;stroke-miterlimit:22.9256;" d="
				M167.825,344.621c0,0,70.688-23.812,102.562-66.938"/>
			
				<path style="fill:none;stroke:#000000;stroke-width:8.5039;stroke-linecap:round;stroke-linejoin:round;stroke-miterlimit:22.9256;" d="
				M44.638,283.308c0,0-33.375-40.877-5.063-74.813"/>
			
				<path style="fill:none;stroke:#000000;stroke-width:8.5039;stroke-linecap:round;stroke-linejoin:round;stroke-miterlimit:22.9256;" d="
				M167.825,344.621c0,0-90-17.625-123.188-61.312"/>
			
				<path style="fill:none;stroke:#000000;stroke-width:8.5039;stroke-linecap:round;stroke-linejoin:round;stroke-miterlimit:22.9256;" d="
				M70.325,279.371c-2.532-2.16-35.424-31.354-12.837-60.396"/>
			
				<path style="fill:none;stroke:#000000;stroke-width:8.5039;stroke-linecap:round;stroke-linejoin:round;stroke-miterlimit:22.9256;" d="
				M135.575,311.433c0,0-45.938-15.19-65.25-32.062"/>
			
				<path style="fill:none;stroke:#000000;stroke-width:8.5039;stroke-linecap:round;stroke-linejoin:round;stroke-miterlimit:22.9256;" d="
				M244.16,219.823c0,0,41.79,24.483-8.835,63.298"/>
			
				<path style="fill:none;stroke:#000000;stroke-width:8.5039;stroke-linecap:round;stroke-linejoin:round;stroke-miterlimit:22.9256;" d="
				M181.513,311.808c0,0,32.905-12.635,53.812-28.688"/>
			
				<path style="fill:none;stroke:#000000;stroke-width:8.5039;stroke-linecap:round;stroke-linejoin:round;stroke-miterlimit:22.9256;" d="
				M135.575,311.433c16.188,4.963,22.284,8.701,45.938,0.375"/>
			
				<path style="fill:none;stroke:#000000;stroke-width:8.5039;stroke-linecap:round;stroke-linejoin:round;stroke-miterlimit:22.9256;" d="
				M127.7,202.683c4.5,0.375,5.064,9.938,3.75,9.75"/>
			
				<path style="fill:none;stroke:#000000;stroke-width:8.5039;stroke-linecap:round;stroke-linejoin:round;stroke-miterlimit:22.9256;" d="
				M176.263,203.62c-2.344-1.5-7.031,4.781-4.688,6.938"/>
			
				<path style="fill:none;stroke:#000000;stroke-width:8.5039;stroke-linecap:round;stroke-linejoin:round;stroke-miterlimit:22.9256;" d="
				M131.45,212.433c-3.75,1.593-6.75-8.344-3.75-9.75"/>
			
				<path style="fill:none;stroke:#000000;stroke-width:8.5039;stroke-linecap:round;stroke-linejoin:round;stroke-miterlimit:22.9256;" d="
				M171.575,210.558c2.72,1.218,5.907-6.094,4.688-6.938"/>
			
				<path style="fill:none;stroke:#000000;stroke-width:8.5039;stroke-linecap:round;stroke-linejoin:round;stroke-miterlimit:22.9256;" d="
				M118.138,289.962c0,0,12.376-19.123,31.314-2.062"/>
			
				<path style="fill:none;stroke:#000000;stroke-width:8.5039;stroke-linecap:round;stroke-linejoin:round;stroke-miterlimit:22.9256;" d="
				M179.639,289.4c0,0-14.812-13.686-30.188-1.5"/>
			
				<path style="fill:none;stroke:#000000;stroke-width:8.5039;stroke-linecap:round;stroke-linejoin:round;stroke-miterlimit:22.9256;" d="
				M211.232,287.732c0,0-13.406-20.457-31.594,1.668"/>
			
				<path style="fill:none;stroke:#000000;stroke-width:8.5039;stroke-linecap:round;stroke-linejoin:round;stroke-miterlimit:22.9256;" d="
				M228.593,283.121c0,0-12.767-25.408-27.579-5.533"/>
			
				<path style="fill:none;stroke:#000000;stroke-width:8.5039;stroke-linecap:round;stroke-linejoin:round;stroke-miterlimit:22.9256;" d="
				M100.423,285.39c0,0,7.47-19.359,26.749-3.08"/>
			
				<path style="fill:none;stroke:#000000;stroke-width:8.5039;stroke-linecap:round;stroke-linejoin:round;stroke-miterlimit:22.9256;" d="
				M83.497,284.257c0.17-2.9,5.579-22.795,24.516-10.232"/>
			
				<path style="fill:none;stroke:#000000;stroke-width:8.5039;stroke-linecap:round;stroke-linejoin:round;stroke-miterlimit:22.9256;" d="
				M76.817,228.684c1.272-3.188-4.068,15.34,16.665,15.34"/>
			
				<path style="fill:none;stroke:#000000;stroke-width:8.5039;stroke-linecap:round;stroke-linejoin:round;stroke-miterlimit:22.9256;" d="
				M93.651,237.765c0,0-1.201,16.197,19.611,13.76"/>
			
				<path style="fill:none;stroke:#000000;stroke-width:8.5039;stroke-linecap:round;stroke-linejoin:round;stroke-miterlimit:22.9256;" d="
				M136.889,256.587c0,0-10.689,7.312-23.626-5.062"/>
			
				<path style="fill:none;stroke:#000000;stroke-width:8.5039;stroke-linecap:round;stroke-linejoin:round;stroke-miterlimit:22.9256;" d="
				M171.389,256.4c0,0-13.312,13.875-34.5,0.188"/>
			
				<path style="fill:none;stroke:#000000;stroke-width:8.5039;stroke-linecap:round;stroke-linejoin:round;stroke-miterlimit:22.9256;" d="
				M198.201,250.962c-3.374,4.314-12.188,11.062-26.812,5.438"/>
			
				<path style="fill:none;stroke:#000000;stroke-width:8.5039;stroke-linecap:round;stroke-linejoin:round;stroke-miterlimit:22.9256;" d="
				M219.865,234.65c0,0,0.273,24.188-21.664,16.312"/>
			
				<path style="fill:none;stroke:#000000;stroke-width:8.5039;stroke-linecap:round;stroke-linejoin:round;stroke-miterlimit:22.9256;" d="
				M232.139,225.838c0,0,4.969,17.415-12.75,17.624"/>
			
				<path style="fill:none;stroke:#000000;stroke-width:8.5039;stroke-linecap:round;stroke-linejoin:round;stroke-miterlimit:22.9256;" d="
				M144.201,281.525c0,0,10.436-41.494,29.851,1.783"/>
			
				<path style="fill:none;stroke:#000000;stroke-width:8.5039;stroke-linecap:round;stroke-linejoin:round;stroke-miterlimit:22.9256;" d="
				M146.139,305.158c0,0,15.75,2.25,27.562-1.125"/>
		</g>
		
			<path style="fill:none;stroke:#000000;stroke-width:8.5039;stroke-linecap:round;stroke-linejoin:round;stroke-miterlimit:22.9256;" d="
			M13.981,217.026c0,0-20.578,27.534,6.836,62.089"/>
		
			<path style="fill:none;stroke:#000000;stroke-width:8.5039;stroke-linecap:round;stroke-linejoin:round;stroke-miterlimit:22.9256;" d="
			M298.78,228.275c0,0,8.909,30.458-14.625,60"/>
	</g>
</g>
</svg>
