<svg version="1.1" xmlns="http://www.w3.org/2000/svg" xmlns:xlink="http://www.w3.org/1999/xlink" x="0px" y="0px"
	 viewBox="0 0 361.004 513.215" style="enable-background:new 0 0 361.004 513.215;" xml:space="preserve">
<g id="n0101">
	<g>
		<polygon style="fill-rule:evenodd;clip-rule:evenodd;fill:#68569D;" points="68.143,93.314 57.611,82.826 44.91,61.973 
			38.421,42.082 36.876,20.942 39.507,10.422 44.611,4.825 53.016,7.022 59.226,16.659 67.289,27.976 77.462,37.651 84.992,45.88 
			89.509,55.873 90.701,66.879 80.439,78.01 73.518,86.353 		"/>
		<polygon style="fill-rule:evenodd;clip-rule:evenodd;fill:#F8D63F;" points="247.172,90.686 242.938,86.567 243.319,71.941 
			248.114,56.211 254.764,45.071 263.532,34.77 276.471,22.442 285.864,12.499 295.978,6.283 302.903,13.596 305.446,23.335 
			305.901,35.15 304.586,46.332 300.985,58.835 294.559,71.957 286.592,83.118 277.321,92.53 270.338,84.841 261.549,83.515 
			253.247,86.45 		"/>
		<polygon style="fill-rule:evenodd;clip-rule:evenodd;fill:#E085AD;" points="61.252,122.192 52.308,150.859 56.275,148.568 
			64.938,150.848 80.639,148.568 91.574,152.742 167.412,135.279 184.641,127.854 200.311,117.605 214.831,103.769 227.366,85.896 
			235.312,68.513 238.012,60.251 245.52,62.727 249.18,54.052 239.398,44.854 223.219,34.42 202.646,26.736 179.725,23.83 
			154.109,27.167 131.035,36.205 107.851,51.391 92.008,65.564 78.828,79.951 65.377,97.067 73.497,98.788 66.398,109.26 		"/>
		<polygon style="fill-rule:evenodd;clip-rule:evenodd;fill:#FFFFFF;" points="159.744,137.437 163.115,142.229 175.996,143.961 
			190.95,143.013 208.53,138.07 226.793,131.727 243.428,126.841 260.143,123.167 273.676,121.11 281.752,119.942 281.211,107.425 
			278.401,94.983 272.981,86.67 263.358,83.346 252.33,86.974 247.172,90.686 242.938,86.567 242.912,75.3 245.719,64.076 
			237.604,61.624 234.272,71.265 227.832,84.877 220.075,97.208 209.295,109.682 196.227,120.66 178.646,130.844 		"/>
		<polygon style="fill-rule:evenodd;clip-rule:evenodd;" points="246.525,126.066 248.225,115.235 251.729,107.35 258.629,103.672 
			265.259,106.43 266.779,111.549 266.817,136.116 247.219,147.032 		"/>
		<polygon style="fill-rule:evenodd;clip-rule:evenodd;fill:#E085AD;" points="38.564,178.267 47.004,163.009 52.308,150.859 
			56.275,140.285 70.125,140.371 84.957,141.254 100.07,143.095 114.343,145.863 112.308,149.955 94.365,154.619 93.058,163.308 
			93.922,178.319 97.212,193.188 101.439,205.469 106.738,216.863 96.634,218.828 81.197,220.316 64.652,214.45 52.845,204.634 
			44.515,191.029 		"/>
		<path style="fill-rule:evenodd;clip-rule:evenodd;fill:#81CECE;" d="M123.295,231.557c1.094,1.066-9.977,2.782-9.977,2.782
			l-6.581-17.477l-5.298-11.395l-4.52-13.604l-3.139-15.986l-0.722-12.569l0.363-8.46l11.814-3.316l13.819-4.5l13.177-3.071
			l10.85-1.498l31.15-11.49v23.791v44.294l-31.15,17.805l-7.85,10.695l-5.937,4H123.295z"/>
		<polygon style="fill-rule:evenodd;clip-rule:evenodd;" points="109.088,150.848 108.854,160.504 108.641,172.311 108.624,182.073 
			112.062,187.772 118.326,187.448 124.156,182.66 124.516,175.332 123.971,168.035 116.74,162.063 		"/>
		<polygon style="fill-rule:evenodd;clip-rule:evenodd;fill:#FFFFFF;" points="210.502,155.567 212.309,164.424 216.655,173.139 
			223.239,180.132 232.598,186.978 238.299,196.243 243.834,205.669 251.782,210.315 261.86,212.296 270.502,212.942 
			267.553,201.531 268.438,189.692 272.653,173.972 276.508,160.387 279.438,147.727 281.049,137.465 267.016,138.978 
			247.219,147.032 231.854,147.103 219.454,151.586 		"/>
		<polygon style="fill-rule:evenodd;clip-rule:evenodd;" points="246.219,150.037 252.033,155.756 257.844,161.475 256.624,168.84 
			253.344,179.287 245.351,178.719 240.808,173.986 240.175,166.087 241.919,155.863 		"/>
		<path style="fill-rule:evenodd;clip-rule:evenodd;fill:#49B37E;" d="M268.995,241.557l-1.495-41.312l1.674-14.264l4.795-16.462
			l4.004-15.462c0,0,1.896-16.509,3.076-16.592c1.183-0.082,10.918-0.497,10.918-0.497l4.871,9.47l5.56,11.09l5.392,11.182
			l8.206,17.505l12.623,33.35l-12.623,10.993l-11.368,3.782h-15.801L268.995,241.557z"/>
		<polygon style="fill-rule:evenodd;clip-rule:evenodd;fill:#E085AD;" points="109.088,212.942 97.212,193.188 87.49,181.947 
			80.639,187.772 69.987,185.741 57.875,185.436 43.231,178.456 32.22,217.69 32.208,235.477 35.833,255.623 44.708,274.301 
			55.201,289.366 67.085,306.776 73.298,326.204 74.595,349.344 72.025,369.76 66.82,390.356 63.933,399.25 68.271,398.639 
			76.572,388.358 83.443,377.159 88.339,364.588 90.97,351.028 91.999,331.561 85.48,322.065 79.042,307.176 76.472,289.51 
			78.556,272.249 86.093,256.797 117.085,247.057 		"/>
		<polygon style="fill-rule:evenodd;clip-rule:evenodd;fill:#68569D;" points="92,331.561 80.081,312.782 116.47,307.812 
			129.295,328.057 139.231,338.557 150.502,335.057 164.288,339.743 176.081,342.741 195.655,381.118 197.356,408.217 
			196.526,426.186 195.005,440.786 192.655,471.118 159.655,472.618 146.655,475.118 134.727,484.471 124.434,496.215 
			117.591,493.641 104.586,478.014 99.204,470.928 94.908,466.682 92.666,455.37 82.65,451.641 73.014,445.977 64.496,432.663 
			61.234,418.954 61.57,406.395 68.639,398.217 76.572,388.358 83.443,377.159 88.34,364.588 90.971,351.028 91.484,341.293 		"/>
		<polygon style="fill-rule:evenodd;clip-rule:evenodd;fill:#E085AD;" points="210.502,360.057 220.748,352.057 235.355,344.985 
			249.009,342.057 260.569,334.557 289.381,282.615 298.78,315.043 292.172,347.469 287.813,356.87 282.69,367.426 276.401,380.219 
			270.649,392.551 265.789,407.043 265.106,423.157 269.44,439.901 270.063,453.637 272.325,463.1 273.104,471.624 271.25,471.006 
			274.42,474.744 274.743,473.117 274.42,477.972 271.439,487.305 231.177,472.813 219.374,473.721 180.501,471.67 187.534,428.03 
			186.479,416.256 185.972,401.045 185.936,365.289 		"/>
		<polygon style="fill-rule:evenodd;clip-rule:evenodd;fill:#E085AD;" points="185.936,365.289 129.295,353.96 77.422,310.557 
			73.801,250.335 187.083,250.335 		"/>
		<polygon style="fill-rule:evenodd;clip-rule:evenodd;fill:#49B37E;" points="265.55,353.96 186.298,365.289 186.505,250.335 
			299.787,250.335 319.231,310.427 		"/>
		<polygon style="fill-rule:evenodd;clip-rule:evenodd;fill:#49B37E;" points="269.635,238.686 269.725,233.974 282.607,233.329 
			295.825,230.252 310.749,223.638 324.221,211.052 328.618,219.564 332.452,234.133 335.844,251.736 337.693,269.658 
			337.624,287.672 335.325,305.002 330.1,322.727 323.659,336.065 312.741,351.245 299.583,364.469 289.262,376.36 280.579,390.424 
			273.239,386.999 276.402,380.219 281.898,369.038 287.812,356.87 294.986,341.055 300.831,326.362 302.866,315.432 
			307.03,298.805 308.727,282.096 302.667,266.473 293.717,254.17 220.748,352.057 		"/>
		
			<path style="fill:none;stroke:#000000;stroke-width:8.504;stroke-linecap:round;stroke-linejoin:round;stroke-miterlimit:22.926;" d="
			M246.696,50.783c-13.5-15-105.853-69.341-178.873,48.284"/>
		
			<path style="fill:none;stroke:#000000;stroke-width:8.504;stroke-linecap:round;stroke-linejoin:round;stroke-miterlimit:22.926;" d="
			M50.377,24.317c0,0,29.643,33.25,25.133,59.563"/>
		
			<path style="fill:none;stroke:#000000;stroke-width:8.504;stroke-linecap:round;stroke-linejoin:round;stroke-miterlimit:22.926;" d="
			M58.307,14.688c9.951,22.83,35.396,25.212,31.455,53.15"/>
		
			<path style="fill:none;stroke:#000000;stroke-width:8.504;stroke-linecap:round;stroke-linejoin:round;stroke-miterlimit:22.926;" d="
			M68.143,93.314c0,0-33.516-31.122-31.266-72.372"/>
		
			<path style="fill:none;stroke:#000000;stroke-width:8.504;stroke-linecap:round;stroke-linejoin:round;stroke-miterlimit:22.926;" d="
			M153.531,139.788c0,0,65.97-11.596,85.095-81.721"/>
		
			<path style="fill:none;stroke:#000000;stroke-width:8.504;stroke-linecap:round;stroke-linejoin:round;stroke-miterlimit:22.926;" d="
			M239.377,101.192c3.75-13.125,43.125-40.5,42.375,18.75"/>
		
			<path style="fill:none;stroke:#000000;stroke-width:8.504;stroke-linecap:round;stroke-linejoin:round;stroke-miterlimit:22.926;" d="
			M261.549,83.515c-1.125-27.75,18.817-25.984,26.317-58.609"/>
		
			<path style="fill:none;stroke:#000000;stroke-width:8.504;stroke-linecap:round;stroke-linejoin:round;stroke-miterlimit:22.926;" d="
			M277.322,92.53c0,0,35.93-28.462,27.305-74.587"/>
		
			<path style="fill:none;stroke:#000000;stroke-width:8.504;stroke-linecap:round;stroke-linejoin:round;stroke-miterlimit:22.926;" d="
			M242.939,86.567c-3.154-34.332,21.937-52.875,34.312-64.875"/>
		
			<path style="fill:none;stroke:#000000;stroke-width:8.504;stroke-linecap:round;stroke-linejoin:round;stroke-miterlimit:22.926;" d="
			M61.252,122.192c0,0,8.735-25.125,38.46-46.25"/>
		
			<path style="fill:none;stroke:#000000;stroke-width:8.504;stroke-linecap:round;stroke-linejoin:round;stroke-miterlimit:22.926;" d="
			M113.318,128.055c0,0,63.059-24.613,86.684-66.988"/>
		
			<path style="fill:none;stroke:#000000;stroke-width:8.504;stroke-linecap:round;stroke-linejoin:round;stroke-miterlimit:22.926;" d="
			M87.49,123.431c0,0,19.887-18.489,63.012-39.864"/>
		
			<path style="fill:none;stroke:#000000;stroke-width:8.504;stroke-linecap:round;stroke-linejoin:round;stroke-miterlimit:22.926;" d="
			M95.752,142.463c-10.313,9.562-33.978,22.213-31.1,71.987"/>
		
			<path style="fill:none;stroke:#000000;stroke-width:8.504;stroke-linecap:round;stroke-linejoin:round;stroke-miterlimit:22.926;" d="
			M38.926,179.142c0,0,15.755-37.638,22.326-56.95"/>
		
			<path style="fill:none;stroke:#000000;stroke-width:8.504;stroke-linecap:round;stroke-linejoin:round;stroke-miterlimit:22.926;" d="
			M80.639,157.348c0,0,64.763-14.54,72.892-17.56"/>
		
			<path style="fill:none;stroke:#000000;stroke-width:8.504;stroke-linecap:round;stroke-linejoin:round;stroke-miterlimit:22.926;" d="
			M94.365,154.619c-4.5,16.687,2.545,43.988,12.372,62.243"/>
		
			<path style="fill:none;stroke:#000000;stroke-width:8.504;stroke-linecap:round;stroke-linejoin:round;stroke-miterlimit:22.926;" d="
			M284.231,128.055c0,0,38.634,70.936,41.218,81.326"/>
		
			<path style="fill:none;stroke:#000000;stroke-width:8.504;stroke-linecap:round;stroke-linejoin:round;stroke-miterlimit:22.926;" d="
			M325.449,209.381c12.559,38.071,27.194,105.373-19.793,149.156c-52.527,48.943-19.763,73.348-16.875,76.5"/>
		
			<path style="fill:none;stroke:#000000;stroke-width:8.504;stroke-linecap:round;stroke-linejoin:round;stroke-miterlimit:22.926;" d="
			M282.057,122.192c-1.008,29.693-12.974,60.834-13.619,67.5"/>
		
			<path style="fill:none;stroke:#000000;stroke-width:8.504;stroke-linecap:round;stroke-linejoin:round;stroke-miterlimit:22.926;" d="
			M270.502,212.942c0,0-5.063-7.499-2.063-23.25"/>
		
			<path style="fill:none;stroke:#000000;stroke-width:8.504;stroke-linecap:round;stroke-linejoin:round;stroke-miterlimit:22.926;" d="
			M313.625,252.88c1.875,61.876-29.392,107.753-43.875,141.751c-17.015,39.938,9.546,48.59,2.046,89.84"/>
		
			<path style="fill:none;stroke:#000000;stroke-width:8.504;stroke-linecap:round;stroke-linejoin:round;stroke-miterlimit:22.926;" d="
			M157.26,455.334c0,0-3.996,13.305-14.179,22.638c-10.183,9.333-20.444,11.82-18.647,18.243
			c-51.094-28.816-22.514-72.631-24.389-89.131"/>
		
			<path style="fill:none;stroke:#000000;stroke-width:8.504;stroke-linecap:round;stroke-linejoin:round;stroke-miterlimit:22.926;" d="
			M48.5,440.381c-2.625-40.877,47.607-41.443,42.742-109.785"/>
		
			<path style="fill:none;stroke:#000000;stroke-width:8.504;stroke-linecap:round;stroke-linejoin:round;stroke-miterlimit:22.926;" d="
			M57.875,261.129c3.752,9,18.973,19.756,18.598,28.381"/>
		
			<path style="fill:none;stroke:#000000;stroke-width:8.504;stroke-linecap:round;stroke-linejoin:round;stroke-miterlimit:22.926;" d="
			M62.116,405.348c0,0-7.43,36.109,31.187,49.986"/>
		
			<path style="fill:none;stroke:#000000;stroke-width:8.504;stroke-linecap:round;stroke-linejoin:round;stroke-miterlimit:22.926;" d="
			M38.926,179.142C29.652,211.286,19.731,247.057,59,294.131c32.806,39.327,5.142,102.652,2.57,112.264"/>
		
			<path style="fill:none;stroke:#000000;stroke-width:8.504;stroke-linecap:round;stroke-linejoin:round;stroke-miterlimit:22.926;" d="
			M64.938,234.339c0,0-0.16,18.071,15.701,31.994"/>
		
			<path style="fill:none;stroke:#000000;stroke-width:8.504;stroke-linecap:round;stroke-linejoin:round;stroke-miterlimit:22.926;" d="
			M246.525,126.066c0,0,0.911-11.749,3.911-16.999s13.5-9,15.75-0.375s-2.24,28.773-2.24,28.773"/>
		
			<path style="fill:none;stroke:#000000;stroke-width:8.504;stroke-linecap:round;stroke-linejoin:round;stroke-miterlimit:22.926;" d="
			M246.525,126.066c-0.375,12.563-15.682,56.032,6.818,53.22"/>
		
			<path style="fill:none;stroke:#000000;stroke-width:8.504;stroke-linecap:round;stroke-linejoin:round;stroke-miterlimit:22.926;" d="
			M254.779,141.092c15.968-7.184,15.035-8.451-8.562,8.944l11.625,11.438"/>
		
			<path style="fill:none;stroke:#000000;stroke-width:8.504;stroke-linecap:round;stroke-linejoin:round;stroke-miterlimit:22.926;" d="
			M253.344,179.286c2.812-6.375,4.315-15,4.5-17.812"/>
		
			<path style="fill:none;stroke:#000000;stroke-width:8.504;stroke-linecap:round;stroke-linejoin:round;stroke-miterlimit:22.926;" d="
			M109.088,150.848c0,0-0.867,31.812-0.305,33.5"/>
		
			<path style="fill:none;stroke:#000000;stroke-width:8.504;stroke-linecap:round;stroke-linejoin:round;stroke-miterlimit:22.926;" d="
			M124.156,182.661c-0.562,3.188-11.998,9.75-15.373,1.687"/>
		
			<line style="fill:none;stroke:#000000;stroke-width:8.504;stroke-linecap:round;stroke-linejoin:round;stroke-miterlimit:22.926;" x1="111.031" y1="157.348" x2="123.971" y2="168.036"/>
		
			<path style="fill:none;stroke:#000000;stroke-width:8.504;stroke-linecap:round;stroke-linejoin:round;stroke-miterlimit:22.926;" d="
			M124.156,182.661c0,0,0.94-11.062-0.185-14.625"/>
		
			<line style="fill:none;stroke:#000000;stroke-width:8.504;stroke-linecap:round;stroke-linejoin:round;stroke-miterlimit:22.926;" x1="111.031" y1="157.348" x2="114.343" y2="151.885"/>
		
			<path style="fill:none;stroke:#000000;stroke-width:8.504;stroke-linecap:round;stroke-linejoin:round;stroke-miterlimit:22.926;" d="
			M36.877,20.942c1.125-15.75,12.055-25.004,21.43-6.254"/>
		
			<path style="fill:none;stroke:#000000;stroke-width:8.504;stroke-linecap:round;stroke-linejoin:round;stroke-miterlimit:22.926;" d="
			M304.627,17.942c-6.75-20.625-18.035-6.717-27.375,3.75"/>
		
			<path style="fill:none;stroke:#000000;stroke-width:8.504;stroke-linecap:round;stroke-linejoin:round;stroke-miterlimit:22.926;" d="
			M186.115,405.348c0,0,7.823,48.29-6.363,60.29c-14.187,12-28.779,4.145-36.671,12.334"/>
		
			<path style="fill:none;stroke:#000000;stroke-width:8.504;stroke-linecap:round;stroke-linejoin:round;stroke-miterlimit:22.926;" d="
			M176.632,468.037c0,0,37.18-3.775,58.723,5.08"/>
		
			<path style="fill:none;stroke:#000000;stroke-width:8.504;stroke-linecap:round;stroke-linejoin:round;stroke-miterlimit:22.926;" d="
			M215.745,444.161c-0.227,2,7.384,20.478,22.601,31.811c15.218,11.333,33.093,11.333,33.093,11.333"/>
	</g>
</g>
<g id="n0102">
	<g>
		<g>
			<path style="fill-rule:evenodd;clip-rule:evenodd;fill:#68569D;" d="M134.533,206.265c0.672,1.315,15.218-38.145,15.218-38.145
				l0.75-9.803l-12.273-5.886l-15.776-5.467l-24.162-5.14l-24.347-2.307l-24.303-0.033l-19.514,1.583l1.18,11.699l3.398,13.795
				l4.221,11.581l5.59,11.887l9.111,14.546l11.025,8.875l13.645,4.419l16.303,0.208l12.138-2.215l13.118-3.957l6.271-2.963
				l4.244,17.074l-13.947,5.196l-17.143,3.893l-16.886,1.023l-19.02-3.287l-15.58-8.15L36.469,213.18l-9.639-16.698l-8.691-19.542
				l-6.453-18.339l-4.731-17.417l-2.703-13.992l11.693-2.082l14.952-2.055l19.285-1.517l20.789-0.013l18.957,1.774l21.127,3.517
				l19.484,5.057l18.151,5.683l14.425,3.672l16.233,1.832l14.267-1.796l18.565-5.461l19.06-6.382l18.473-4.961l23.964-4.35
				l27.178-1.58l23.106,1.516l18.728,3.46l14.063,4.437l-3.125,15.969l-4.262,15.481l-5.841,15.999l-5.553,12.14l-9.847,16.998
				l-9.096,11.91l-11.921,8.926l-16.413,5.654l-17.787,2.015l-13.546-0.257l-19.592-3.524l2.822-7.183l0.432-8.887l-1.237-7.705
				l11.584,4.299l11.442,1.74l15.416,0.708l14.875-2.511l10.06-7.887l8.604-12.644l7.074-14.351l5.985-15.954l3.731-12.352
				l1.817-6.959l-15.795-2.464l-19.11-1.156l-21.113,0.915l-21.579,3.23l-22.925,6.011l-14.053,5.159l-7.3,3.305l1.808,8.857
				l4.347,8.715l25.131,33.339l-5.449,13.028v14.833l-41.604-63.751l-8.834-3.696l-7.936,0.256l-8.541,3.329l-17.792,35.306
				l-9.602,0.424L134.533,206.265z"/>
			<polygon style="fill:#68569D;" points="227.231,205.524 241.786,205.478 251.231,218.506 247.168,231.499 227.231,223.051 			"/>
			<polygon style="fill:#68569D;" points="119.731,221.057 134.473,198.817 145.231,194.557 154.731,194.557 146.544,214.099 
				130.371,226.016 			"/>
			
				<path style="fill:none;stroke:#000000;stroke-width:8.504;stroke-linecap:round;stroke-linejoin:round;stroke-miterlimit:22.926;" d="
				M4.252,127.192c57.625-11.213,96.752-5.183,136.5,7.875c39.748,13.058,49.5,8.25,76.875-1.125"/>
			
				<path style="fill:none;stroke:#000000;stroke-width:8.504;stroke-linecap:round;stroke-linejoin:round;stroke-miterlimit:22.926;" d="
				M356.752,127.942c0,0-56.25-24.75-139.125,6"/>
			
				<path style="fill:none;stroke:#000000;stroke-width:8.504;stroke-linecap:round;stroke-linejoin:round;stroke-miterlimit:22.926;" d="
				M30.127,141.067c0,0,70.875-10.125,120.375,17.25"/>
			
				<path style="fill:none;stroke:#000000;stroke-width:8.504;stroke-linecap:round;stroke-linejoin:round;stroke-miterlimit:22.926;" d="
				M30.127,141.067c0,0-0.75,24.375,19.125,57.375"/>
			
				<path style="fill:none;stroke:#000000;stroke-width:8.504;stroke-linecap:round;stroke-linejoin:round;stroke-miterlimit:22.926;" d="
				M210.502,154.567c0,0,54.75-28.5,121.875-15"/>
			
				<path style="fill:none;stroke:#000000;stroke-width:8.504;stroke-linecap:round;stroke-linejoin:round;stroke-miterlimit:22.926;" d="
				M307.627,198.817c0,0,14.25-16.875,24.75-59.25"/>
			
				<path style="fill:none;stroke:#000000;stroke-width:8.504;stroke-linecap:round;stroke-linejoin:round;stroke-miterlimit:22.926;" d="
				M270.502,211.942c14.901,0.294,25.125,2.625,37.125-13.125"/>
			
				<path style="fill:none;stroke:#000000;stroke-width:8.504;stroke-linecap:round;stroke-linejoin:round;stroke-miterlimit:22.926;" d="
				M210.502,154.567c0,0,19.629,41.163,31.284,50.911c4.614,3.859,2.144,5.343,28.716,6.464"/>
			
				<path style="fill:none;stroke:#000000;stroke-width:8.504;stroke-linecap:round;stroke-linejoin:round;stroke-miterlimit:22.926;" d="
				M150.502,158.317c0,0-7.27,40.125-24.375,50.625c0,0-54.375,27.375-76.875-10.5"/>
			
				<path style="fill:none;stroke:#000000;stroke-width:8.504;stroke-linecap:round;stroke-linejoin:round;stroke-miterlimit:22.926;" d="
				M32.281,206.787c30,51.937,98.09,19.229,98.09,19.229s16.36-6.988,24.845-24.408c7.115-14.608,12.69-34.571,27.453-34.571
				c17.333,0,19.618,16.078,32.795,38.488c10.908,18.552,15.465,23.147,23.726,24.581c0,0,58.778,13.243,81.842-16.007"/>
		</g>
		
			<path style="fill:none;stroke:#000000;stroke-width:8.504;stroke-linecap:round;stroke-linejoin:round;stroke-miterlimit:22.926;" d="
			M4.252,127.192c0,0,4.967,38.531,28.029,79.594"/>
		
			<path style="fill:none;stroke:#000000;stroke-width:8.504;stroke-linecap:round;stroke-linejoin:round;stroke-miterlimit:22.926;" d="
			M321.031,214.099c11.909-14.342,29.065-43.875,35.721-86.157"/>
	</g>
</g>
<g id="n0103">
	<g>
		<path style="fill-rule:evenodd;clip-rule:evenodd;fill:#FFFFFF;" d="M167.018,455.21l7.937,4.104l9.963,2.156l12.545-0.002
			l10.897-2.51l7.865-3.537l2.564-6.266l8.246,3.375l11.801,4.092l11.48,5.305l9.468,7.264l6.149,8.891l3.823,5.301l-11.127,8.217
			l-14.707,7.428l-18.78,5.76l-19.205,2.699l-21.776,0.008l-22.44-2.779l-18.759-4.176l-15.976-4.73l-10.416-4.818l6.767-9.814
			l10.562-10.139l11.972-8.623c0,0,10.269-5.547,11.129-5.98c0.856-0.436,7.412-3.924,7.412-3.924L167.018,455.21z"/>
		<polygon style="fill-rule:evenodd;clip-rule:evenodd;fill:#F8D63F;" points="173.168,361.863 173.543,377.158 173.495,390.468 
			172.967,421.316 171.791,437.601 169.672,452.189 167.118,459.578 174.956,463.859 187.909,466.287 204.211,464.747 
			217.182,459.378 214.411,444.07 213.03,430.802 212.473,416.599 212.543,385.79 213.168,366.363 		"/>
		
			<path style="fill:none;stroke:#000000;stroke-width:8.504;stroke-linecap:round;stroke-linejoin:round;stroke-miterlimit:22.926;" d="
			M213.434,367.658c0,0-4.127,53.049,3.748,87.174"/>
		
			<path style="fill:none;stroke:#000000;stroke-width:8.504;stroke-linecap:round;stroke-linejoin:round;stroke-miterlimit:22.926;" d="
			M173.407,363.753c0,0,1.775,79.453-6.85,92.203"/>
		
			<path style="fill:none;stroke:#000000;stroke-width:8.504;stroke-linecap:round;stroke-linejoin:round;stroke-miterlimit:22.926;" d="
			M214.768,457.394c0,0-19.336,16.559-47.836,2.684"/>
		
			<path style="fill:none;stroke:#000000;stroke-width:8.504;stroke-linecap:round;stroke-linejoin:round;stroke-miterlimit:22.926;" d="
			M175.163,476.884c3.964,0.594,17.358,4.338,36-1.125"/>
		
			<path style="fill:none;stroke:#000000;stroke-width:8.504;stroke-linecap:round;stroke-linejoin:round;stroke-miterlimit:22.926;" d="
			M215.214,444.845c1.969,9.986,42.92,13.785,54.543,38.537"/>
		
			<path style="fill:none;stroke:#000000;stroke-width:8.504;stroke-linecap:round;stroke-linejoin:round;stroke-miterlimit:22.926;" d="
			M169.671,447.644c-3.112,8.312-35.737,12.438-53.737,44.312"/>
		
			<path style="fill:none;stroke:#000000;stroke-width:8.504;stroke-linecap:round;stroke-linejoin:round;stroke-miterlimit:22.926;" d="
			M269.757,483.382c0,0-37.949,51.324-153.823,8.574"/>
	</g>
</g>
<g id="n0104">
	<g>
		<polygon style="fill-rule:evenodd;clip-rule:evenodd;fill:#E085AD;" points="176.691,340.552 177.367,311.037 179.677,299.861 
			183.662,290.15 191.921,289.049 201.257,283.459 205.382,287.209 207.718,295.336 204.841,301.955 200.322,305.131 
			201.748,313.285 201.962,340.013 194.441,340.185 184.143,345.388 		"/>
		
			<path style="fill:none;stroke:#000000;stroke-width:8.504;stroke-linecap:round;stroke-linejoin:round;stroke-miterlimit:22.926;" d="
			M190.383,308.022c0,0,24.936-2.625,15-20.812c0,0-2.833-3.951-11.333-3.119c-8.5,0.834-13.333,13.334-13.333,13.334"/>
		
			<path style="fill:none;stroke:#000000;stroke-width:8.504;stroke-linecap:round;stroke-linejoin:round;stroke-miterlimit:22.926;" d="
			M201.396,304.559c0,0,1.08,31.632,0.565,35.454"/>
		
			<path style="fill:none;stroke:#000000;stroke-width:8.504;stroke-linecap:round;stroke-linejoin:round;stroke-miterlimit:22.926;" d="
			M176.691,340.552c0,0-1.134-34.314,6.526-48.128"/>
	</g>
</g>
<g id="n0105">
	<g>
		<path style="fill-rule:evenodd;clip-rule:evenodd;fill:#FFFFFF;" d="M123.889,335.157l4.017-6.742l4.176-8.955l5.235-4.652
			l9.224-0.496l6.678,3.414l3.889,5.873l6.039-1.111l8.715,2.533l7.232,6.58l6.369-4.41l8.949-1.949l8.735,1.398
			c0,0,9.472,6.916,8.597,6.053c-0.873-0.865,6.866-6.779,6.866-6.779l7.738-2.26l2.836-6.322l6.228-2.184l2.937-2.865l4.799-3.876
			l7.08-4.767l8.301,7.803l3.867,7.004l7.67,8.611l-6.149,8.916l-12.127,7.055l-21.045,7.453l-19.298,2.934l-24.395,0.195
			l-23.389-3.113l-18.732-5.176l-12.063-5.068L123.889,335.157z"/>
		<polygon style="fill-rule:evenodd;clip-rule:evenodd;fill:#81CECE;" points="110.51,323.596 116.656,318.477 118.984,310.852 
			125.269,304.467 133.148,302.711 140.333,306.028 145.557,314.038 137.316,314.809 132.081,319.459 127.906,328.414 
			123.592,334.961 116.512,329.631 		"/>
		<g>
			<polygon style="fill-rule:evenodd;clip-rule:evenodd;fill:#FFFFFF;" points="130.312,258.8 129.769,269.02 130.558,276.462 
				135.714,284.761 143.177,285.824 147.745,284.025 157.597,289.415 167.091,289.11 171.677,287.324 175.783,291.954 
				182.921,295.592 192.902,294.789 202.24,289.199 210.831,292.949 221.439,294.545 230.972,290.542 234.298,286.419 
				242.308,286.77 248.642,283.184 251.757,274.754 251.669,266.439 250.583,259.566 237.62,261.956 225.806,264.439 
				204.583,267.264 187.24,267.299 169.494,264.032 151.726,258.656 138.937,257.788 130.312,258.8 			"/>
			
				<path style="fill:none;stroke:#000000;stroke-width:8.5039;stroke-linecap:round;stroke-linejoin:round;stroke-miterlimit:22.9256;" d="
				M145.615,281.699c0,0,9.938,13.688,26.062,5.625"/>
			
				<path style="fill:none;stroke:#000000;stroke-width:8.5039;stroke-linecap:round;stroke-linejoin:round;stroke-miterlimit:22.9256;" d="
				M143.767,257.805c0,0-4.715,16.957,1.848,23.895"/>
			
				<path style="fill:none;stroke:#000000;stroke-width:8.5039;stroke-linecap:round;stroke-linejoin:round;stroke-miterlimit:22.9256;" d="
				M171.677,287.324c0,0,10.688,18.188,30.562,1.875"/>
			
				<path style="fill:none;stroke:#000000;stroke-width:8.5039;stroke-linecap:round;stroke-linejoin:round;stroke-miterlimit:22.9256;" d="
				M238.802,268.387c0,0,0.562,40.5-36.562,20.812"/>
			
				<path style="fill:none;stroke:#000000;stroke-width:8.5039;stroke-linecap:round;stroke-linejoin:round;stroke-miterlimit:22.9256;" d="
				M234.298,286.419c3.789,0.704,22.82,5.115,16.285-26.854"/>
			
				<path style="fill:none;stroke:#000000;stroke-width:8.5039;stroke-linecap:round;stroke-linejoin:round;stroke-miterlimit:22.9256;" d="
				M130.312,258.8c-0.387,5.635-3.822,29.649,12.865,27.024"/>
		</g>
		
			<path style="fill:none;stroke:#000000;stroke-width:8.504;stroke-linecap:round;stroke-linejoin:round;stroke-miterlimit:22.926;" d="
			M163.627,176.632c2.625-7.312,26.625-18.75,37.875,2.438"/>
		
			<path style="fill:none;stroke:#000000;stroke-width:8.504;stroke-linecap:round;stroke-linejoin:round;stroke-miterlimit:22.926;" d="
			M240.127,200.819c-2.345-4.875-8.25-27.749-38.625-21.75"/>
		
			<path style="fill:none;stroke:#000000;stroke-width:8.504;stroke-linecap:round;stroke-linejoin:round;stroke-miterlimit:22.926;" d="
			M227.564,238.694c0,0,23.812-3.188,12.562-37.875"/>
		
			<path style="fill:none;stroke:#000000;stroke-width:8.504;stroke-linecap:round;stroke-linejoin:round;stroke-miterlimit:22.926;" d="
			M179.752,182.069c0,0-24.75-13.687-40.688,5.437c-15.937,19.125-19.687,43.126,10.5,52.501"/>
		<g>
			<path style="fill:#F8D63F;" d="M302.667,266.725l-8.951-12.303l-14.979-11.128l-10.637-4.973l-16.502-4.996l-11.828-2.82
				l2.821-7.184l0.433-8.886l-0.551-10.227l-6.259-11.86l-8.905-9.777l-13.107-4.364l-12.7,0.862l-6.768-8.229l-12.801-3.568
				l-11.424,2.833l-8.418,7.242l-14.59,1.679l-11.543,12.489l-7.164,13.418l-1.597,13.958l5.205,11.048l-14.196,5.839l-16.316,7.212
				l-11.617,9.657l-8.895,12.294l-4.412,15.414l0.793,18.24l3.391,14.895l10.851,18.322l8.723,9.461l14.047,11.033l14.666,8.68
				l21.229,8.977l18.685,5.34l40.026,3.906l17.562-1.496l15.955-3.566l17.293-7.066l16.305-11.217l12.968-14.314l11.459-21.029
				l7.418-18.396l0.392-19.775L302.667,266.725z M270.188,333.935c-12.302,15.202-39.278,24.277-72.164,24.277
				c-0.002,0-0.004,0-0.006,0c-23.087-0.001-45.674-4.449-63.602-12.527c-20.807-9.375-33.606-22.855-37.013-38.985
				c-3.909-18.508-1.903-32.811,5.963-42.513c8.905-10.982,22.858-13.288,32.996-13.288c8.129,0,14.074,1.458,16.252,2.085
				c2.033,0.585,4.062,1.29,6.211,2.037c7.351,2.555,16.498,5.733,31.76,5.733c12.891,0,27.963-2.187,46.079-6.686
				c20.474-4.784,37.699,2.757,45.497,19.099C290.672,291.006,286.084,314.29,270.188,333.935z"/>
		</g>
		
			<path style="fill:none;stroke:#000000;stroke-width:8.504;stroke-linecap:round;stroke-linejoin:round;stroke-miterlimit:22.926;" d="
			M134.811,232.326c0,0-64.887,4.63-57.81,65.058c5.25,44.81,59.519,76.693,114.728,81.273
			c46.303,3.842,99.421-8.525,111.668-64.873c16.604-76.403-46.393-80.951-64.207-82.426"/>
		<g style="display:none;">
			<polygon style="display:inline;fill-rule:evenodd;clip-rule:evenodd;fill:#FFFFFF;" points="125.541,256.202 124.997,266.422 
				125.787,273.864 130.943,282.163 138.406,283.225 142.975,281.426 152.826,286.817 162.32,286.512 166.906,284.725 
				171.012,289.356 178.15,292.995 188.131,292.19 197.469,286.6 206.061,290.35 216.668,291.948 226.2,287.944 229.526,283.821 
				237.536,284.172 243.87,280.586 246.985,272.156 246.897,263.84 245.811,256.968 232.85,259.357 221.034,261.84 199.811,264.667 
				182.469,264.701 164.723,261.434 146.954,256.059 134.166,255.189 			"/>
			
				<path style="display:inline;fill:none;stroke:#000000;stroke-width:8.504;stroke-linecap:round;stroke-linejoin:round;stroke-miterlimit:22.926;" d="
				M140.844,279.101c0,0,9.938,13.688,26.062,5.625"/>
			
				<path style="display:inline;fill:none;stroke:#000000;stroke-width:8.504;stroke-linecap:round;stroke-linejoin:round;stroke-miterlimit:22.926;" d="
				M138.996,255.206c0,0-4.715,16.957,1.848,23.894"/>
			
				<path style="display:inline;fill:none;stroke:#000000;stroke-width:8.504;stroke-linecap:round;stroke-linejoin:round;stroke-miterlimit:22.926;" d="
				M166.906,284.726c0,0,10.688,18.187,30.562,1.876"/>
			
				<path style="display:inline;fill:none;stroke:#000000;stroke-width:8.504;stroke-linecap:round;stroke-linejoin:round;stroke-miterlimit:22.926;" d="
				M234.031,265.789c0,0,0.562,40.501-36.563,20.812"/>
			
				<path style="display:inline;fill:none;stroke:#000000;stroke-width:8.504;stroke-linecap:round;stroke-linejoin:round;stroke-miterlimit:22.926;" d="
				M229.527,283.821c3.788,0.704,22.819,5.115,16.284-26.854"/>
			
				<path style="display:inline;fill:none;stroke:#000000;stroke-width:8.504;stroke-linecap:round;stroke-linejoin:round;stroke-miterlimit:22.926;" d="
				M125.541,256.202c-0.387,5.635-3.822,29.648,12.865,27.023"/>
		</g>
		
			<path style="fill:none;stroke:#000000;stroke-width:8.504;stroke-linecap:round;stroke-linejoin:round;stroke-miterlimit:22.926;" d="
			M146.656,330.852c0,0,16.312-19.312,32.437,0.75"/>
		
			<path style="fill:none;stroke:#000000;stroke-width:8.504;stroke-linecap:round;stroke-linejoin:round;stroke-miterlimit:22.926;" d="
			M211.719,332.727c-3.52-4.051-17.25-14.814-32.625-1.125"/>
		
			<path style="fill:none;stroke:#000000;stroke-width:8.504;stroke-linecap:round;stroke-linejoin:round;stroke-miterlimit:22.926;" d="
			M242.094,331.227c0,0-16.688-18-30.375,1.5"/>
		
			<path style="fill:none;stroke:#000000;stroke-width:8.504;stroke-linecap:round;stroke-linejoin:round;stroke-miterlimit:22.926;" d="
			M255.314,327.043c0,0-13.688-24.332-27.375-6.939"/>
		
			<path style="fill:none;stroke:#000000;stroke-width:8.504;stroke-linecap:round;stroke-linejoin:round;stroke-miterlimit:22.926;" d="
			M238.348,312.282c0,0,16.967-19.287,30.647,9.316"/>
		
			<path style="fill:none;stroke:#000000;stroke-width:8.504;stroke-linecap:round;stroke-linejoin:round;stroke-miterlimit:22.926;" d="
			M128.033,330.848c0,0,10.373-27.846,30.096-11.145"/>
		
			<path style="fill:none;stroke:#000000;stroke-width:8.504;stroke-linecap:round;stroke-linejoin:round;stroke-miterlimit:22.926;" d="
			M114.344,324.87c0-20.314,21.018-32.348,32.197-10.559"/>
		
			<path style="fill:none;stroke:#000000;stroke-width:8.504;stroke-linecap:round;stroke-linejoin:round;stroke-miterlimit:22.926;" d="
			M151.062,196.318c2.531,1.875-8.625,19.689-11.625,17.532"/>
		
			<path style="fill:none;stroke:#000000;stroke-width:8.504;stroke-linecap:round;stroke-linejoin:round;stroke-miterlimit:22.926;" d="
			M151.062,196.318c-3.469-2.436-15.656,14.532-11.625,17.532"/>
		
			<path style="fill:none;stroke:#000000;stroke-width:8.504;stroke-linecap:round;stroke-linejoin:round;stroke-miterlimit:22.926;" d="
			M218.75,194.631c-3.095,1.219,5.436,23.625,9.655,21.562"/>
		
			<path style="fill:none;stroke:#000000;stroke-width:8.504;stroke-linecap:round;stroke-linejoin:round;stroke-miterlimit:22.926;" d="
			M218.75,194.631c2.53-1.5,13.219,19.875,9.655,21.562"/>
		<g>
			<g>
				
					<path style="fill:none;stroke:#000000;stroke-width:8.504;stroke-linecap:round;stroke-linejoin:round;stroke-miterlimit:22.926;" d="
					M163.627,176.632c2.625-7.312,26.625-18.75,37.875,2.438"/>
				
					<path style="fill:none;stroke:#000000;stroke-width:8.504;stroke-linecap:round;stroke-linejoin:round;stroke-miterlimit:22.926;" d="
					M240.127,200.819c-2.345-4.875-8.25-27.749-38.625-21.75"/>
				
					<path style="fill:none;stroke:#000000;stroke-width:8.504;stroke-linecap:round;stroke-linejoin:round;stroke-miterlimit:22.926;" d="
					M227.564,238.694c0,0,23.812-3.188,12.562-37.875"/>
				
					<path style="fill:none;stroke:#000000;stroke-width:8.504;stroke-linecap:round;stroke-linejoin:round;stroke-miterlimit:22.926;" d="
					M179.752,182.069c0,0-24.75-13.687-40.688,5.437c-15.937,19.125-19.687,43.126,10.5,52.501"/>
			</g>
			
				<path style="fill:none;stroke:#000000;stroke-width:8.504;stroke-linecap:round;stroke-linejoin:round;stroke-miterlimit:22.926;" d="
				M237.688,258.195c-55.873,13.875-72.215,2.914-86.25-1.125c-14.033-4.039-61.639-6.944-49.875,48.751
				c11.252,53.266,134.764,63.201,165.319,25.439C297.439,293.5,278.871,248.578,237.688,258.195"/>
		</g>
	</g>
</g>
</svg>
