<svg version="1.1" xmlns="http://www.w3.org/2000/svg" xmlns:xlink="http://www.w3.org/1999/xlink" x="0px" y="0px"
	 viewBox="0 0 373.987 402.331" style="enable-background:new 0 0 373.987 402.331;" xml:space="preserve">
<g id="n0201">
	<g>
		<polygon style="fill-rule:evenodd;clip-rule:evenodd;fill:#F8D63F;" points="149.075,275.643 164.63,278.81 186.188,281.651 
			208.709,282.03 227.516,280.409 228.605,317.196 230.052,330.303 232.921,348.395 217.735,354.105 194.23,356.521 172.94,353.723 
			156.411,347.942 149.955,343.854 150.295,324.453 149.433,311.111 149.075,275.643 		"/>
		<polygon style="fill-rule:evenodd;clip-rule:evenodd;fill:#49B37E;" points="79.732,367.717 91.934,360.483 111.528,351.374 
			134.973,342.268 138.417,333.587 150.243,327.401 152.555,340.932 150.489,344.193 161.496,349.72 175.657,354.332 
			191.252,356.398 207.924,355.901 222.995,352.584 234.06,347.783 231.116,342.296 230.292,332.63 239.247,333.396 
			246.602,337.237 252.863,346.81 268.295,348.775 284.018,350.952 302.163,354.808 296.414,360.768 284.529,369.371 
			266.982,379.609 245.791,388.59 221.848,394.941 197.818,397.814 175.65,397.711 153.113,395.129 130.433,390.137 
			109.324,383.329 93.209,376.604 79.732,367.717 		"/>
		
			<path style="fill:none;stroke:#000000;stroke-width:8.5039;stroke-linecap:round;stroke-linejoin:round;stroke-miterlimit:22.9256;" d="
			M149.075,275.643c0,0,0.301,50.851,3.48,65.289"/>
		
			<path style="fill:none;stroke:#000000;stroke-width:8.5039;stroke-linecap:round;stroke-linejoin:round;stroke-miterlimit:22.9256;" d="
			M227.187,281.033c0,0,3.745,55.264,3.93,61.264"/>
		
			<path style="fill:none;stroke:#000000;stroke-width:8.5039;stroke-linecap:round;stroke-linejoin:round;stroke-miterlimit:22.9256;" d="
			M147.305,340.554c4.118,10.315,55.482,27.224,89.996,5.309"/>
		
			<path style="fill:none;stroke:#000000;stroke-width:8.5039;stroke-linecap:round;stroke-linejoin:round;stroke-miterlimit:22.9256;" d="
			M135.488,347.484c0,0-3.929-12.753,9.387-18.368"/>
		
			<path style="fill:none;stroke:#000000;stroke-width:8.5039;stroke-linecap:round;stroke-linejoin:round;stroke-miterlimit:22.9256;" d="
			M230.292,332.63c0,0,16.956-2.512,22.571,14.18"/>
		
			<path style="fill:none;stroke:#000000;stroke-width:8.5039;stroke-linecap:round;stroke-linejoin:round;stroke-miterlimit:22.9256;" d="
			M78.286,368.822c0,0,11.909-10.423,56.687-26.554"/>
		
			<path style="fill:none;stroke:#000000;stroke-width:8.5039;stroke-linecap:round;stroke-linejoin:round;stroke-miterlimit:22.9256;" d="
			M247.987,348.12c0,0,20.438-1.862,55.309,6.973"/>
		
			<path style="fill:none;stroke:#000000;stroke-width:8.5039;stroke-linecap:round;stroke-linejoin:round;stroke-miterlimit:22.9256;" d="
			M78.286,368.822c30.559,18.186,137.21,62.152,225.01-13.729"/>
	</g>
</g>
<g id="n0202">
	<g>
		<polygon style="fill-rule:evenodd;clip-rule:evenodd;fill:#F8D63F;" points="41.058,29.137 45.726,35.246 52.886,47.439 
			59.501,60.623 63.287,71.297 64.08,79.982 59.03,90.22 59.554,98.922 66.723,106.6 62.36,118.133 53.425,117.371 41.099,107.727 
			33.726,93.208 29.71,77.654 28.498,59.238 30.331,47.132 34.844,36.25 41.058,29.137 		"/>
		<polygon style="fill-rule:evenodd;clip-rule:evenodd;fill:#E085AD;" points="41.058,29.137 51.063,25.395 60.174,28.181 
			68.235,35.289 75.185,42.211 83.965,51.771 80.423,61.955 83.766,66.642 83.483,72.301 78.941,79.634 74.659,87.649 
			70.626,96.511 66.723,106.6 62.556,104.445 58.534,95.969 60.476,87.291 64.08,79.982 63.287,71.297 58.067,57.475 51.201,44.445 
			45.726,35.246 41.058,29.137 		"/>
		<polygon style="fill-rule:evenodd;clip-rule:evenodd;fill:#68569D;" points="41.43,165.584 53.132,142.067 58.686,130.007 
			63.92,114.738 70.626,96.511 77.563,82.082 83.483,72.301 93.089,65.331 110.07,54.835 127.757,49.759 144.247,50.142 
			160.091,55.946 169.94,63.946 176.719,75.83 177.722,86.626 174.551,96.969 167.993,106.145 161.082,112.377 168.018,117.449 
			162.032,123.294 158.575,129.733 156.98,153.52 146.507,149.52 129.333,145.936 114.939,145.524 98.758,147.579 81.013,152.53 
			66.709,158.279 57.489,162.68 40.634,173.794 		"/>
		<polygon style="fill-rule:evenodd;clip-rule:evenodd;" points="110.799,109.238 119.686,109.887 127.319,111.901 128.556,101.862 
			122.984,95.188 116.564,89.292 124.063,83.903 130.07,79.925 129.245,72.046 123.607,68.331 117.078,71.052 114.817,77.951 
			111.118,102.601 110.799,109.238 		"/>
		<polyline style="fill-rule:evenodd;clip-rule:evenodd;fill:#FFFFFF;" points="83.423,63.278 84.322,71.693 93.089,65.331 
			106.775,56.671 122.813,48.773 136.973,49.342 154.505,53.163 165.669,59.837 173.7,69.051 177.22,81.228 176.137,91.798 
			171.271,101.557 161.974,111.573 167.862,117.603 175.914,113.042 183.918,111.876 192.364,114.247 198.355,111.077 
			191.914,99.888 191.133,87.684 195.841,74.752 203.451,65.128 215.173,57.246 231.597,53.938 243.674,55.472 256.911,60.463 
			259.322,58.156 245.246,45.181 233.643,35.002 225.992,22.872 208.845,11.115 193.225,6.023 173.491,5.039 154.562,9.971 
			135.765,14.319 118.782,21.642 104.631,30.829 93.021,41.559 86.661,51.55 		"/>
		<polygon style="fill-rule:evenodd;clip-rule:evenodd;fill:#F8D63F;" points="239.445,40.092 255.703,36.166 270.579,43.725 
			279.203,58.247 283.149,68.896 283.167,78.055 277.501,81.595 269.828,70.392 259.322,58.156 249.224,48.846 239.445,40.092 		"/>
		<path style="fill-rule:evenodd;clip-rule:evenodd;fill:#49B37E;" d="M272.104,51.293l9.391-6.338c0,0,12.354-7.804,13.559-8.579
			c1.201-0.776,15.322-10.19,15.322-10.19l12.955-5.472l10.277,3.63l4.158,7.108l1.99,15.381l-1.526,19.921L335.6,81.801
			l-5.078,15.365l-8.187,13.217l-10.717,9.3l-14.884,5.733l-5.129-15.279l-5.74-13.323l-8.364-15.219l5.666-3.54l-0.018-9.159
			l-3.33-8.986L272.104,51.293L272.104,51.293z"/>
		<polygon style="fill-rule:evenodd;clip-rule:evenodd;fill:#FFFFFF;" points="201.114,120.872 205.774,116.796 220.451,122.66 
			236.062,125.4 248.606,125.879 251.092,133.289 232.725,135.69 220.157,138.496 207.072,142.31 204.193,136.934 207.121,130.958 
			204.781,125.018 201.114,120.872 		"/>
		<polygon style="fill-rule:evenodd;clip-rule:evenodd;fill:#49B37E;" points="250.681,152.385 250.711,125.8 237.378,125.519 
			220.451,122.66 205.774,116.796 194.836,106.498 190.936,94.944 192.56,81.923 197.22,72.518 206.124,62.775 220.055,55.492 
			235.472,54.108 249.584,57.266 261.306,60.845 268.575,68.829 277.032,80.85 285.865,96.814 291.605,110.137 296.333,124.217 
			300.53,138.283 286.643,154.157 271.076,152.258 254.077,148.834 		"/>
		<path style="fill-rule:evenodd;clip-rule:evenodd;" d="M238.243,108.428l-3.565-10.907l-2.77-11.849l-0.596-9.941l7.244-4.714
			l7.753,2.851l2.824,4.447l-4.17,4.537l-5.69,5.373l1.117,3.473l7.538,3.756l4.566,4.238c0,0,0.062,8.33,1.016,8.469
			c0.953,0.138-6.536-0.449-6.536-0.449L238.243,108.428L238.243,108.428z"/>
		<polygon style="fill-rule:evenodd;clip-rule:evenodd;fill:#E085AD;" points="113.471,144.146 124.845,143.225 126.436,150.872 
			132.206,153.794 138.608,161.037 143.718,163.065 148.055,158.978 153.343,163.056 161.699,164.602 165.965,170.714 
			175.298,172.346 184.404,165.528 191.48,168.91 201.083,174.936 208.265,171.029 211.315,177.158 204.06,182.657 179.765,221.934 
			176.874,232.992 178.668,245.818 177.883,254.896 163.942,272.669 158.937,274.76 152.662,264.779 139.022,274.214 
			133.245,275.23 125.321,269.457 122.316,260.901 115.602,257.995 104.969,261.217 93.599,248.226 87.077,252.798 81.562,258.691 
			75.4,251.671 52.312,229.496 49.835,209.86 48.06,197.594 49.721,184.921 55.648,174.103 65.422,166.463 76.659,162.459 
			110.799,143.212 		"/>
		<polygon style="fill-rule:evenodd;clip-rule:evenodd;fill:#F8D63F;" points="271.957,147.771 282.095,152.129 309.039,177.381 
			314.72,184.787 319.036,197.052 318.824,210.182 315.033,222.116 309.907,231.027 283.885,272.843 278.211,263.099 
			270.217,254.357 259.303,251.548 250.975,256.951 248.219,260.701 237.129,266.297 228.467,266.88 221.007,271.656 
			213.115,281.677 206.592,276.383 177.722,258.086 176.072,241.009 176.772,226.677 179.27,220.677 209.22,172.946 211.82,177.62 
			220.986,174.755 224.724,172.963 233.832,167.04 244.197,168.436 253.539,168.173 262.881,165.092 266.469,168.165 
			270.266,157.149 271.957,147.771 		"/>
		
			<path style="fill:none;stroke:#000000;stroke-width:8.5039;stroke-linecap:round;stroke-linejoin:round;stroke-miterlimit:22.9256;" d="
			M83.423,63.278c2.416-48.45,119.031-91.601,154.3-24.533"/>
		
			<path style="fill:none;stroke:#000000;stroke-width:8.5039;stroke-linecap:round;stroke-linejoin:round;stroke-miterlimit:22.9256;" d="
			M83.965,51.771c0.998,0.597-21.546-23.827-26.983-25.517"/>
		
			<path style="fill:none;stroke:#000000;stroke-width:8.5039;stroke-linecap:round;stroke-linejoin:round;stroke-miterlimit:22.9256;" d="
			M62.36,118.133c0,0-21.379,5.611-31.103-33.208c-9.725-38.819,6.979-64.683,25.725-58.67"/>
		
			<path style="fill:none;stroke:#000000;stroke-width:8.5039;stroke-linecap:round;stroke-linejoin:round;stroke-miterlimit:22.9256;" d="
			M161.843,25.554c0,0,36.071,22.49,53.613,2.674"/>
		
			<path style="fill:none;stroke:#000000;stroke-width:8.5039;stroke-linecap:round;stroke-linejoin:round;stroke-miterlimit:22.9256;" d="
			M286.28,87.329c0,0-6.513-69.544-48.557-48.584"/>
		
			<path style="fill:none;stroke:#000000;stroke-width:8.5039;stroke-linecap:round;stroke-linejoin:round;stroke-miterlimit:22.9256;" d="
			M83.483,72.301c53.463-40.652,75.955-27.325,103.139-21.87c27.184,5.454,36.567-7.853,38.443-8.976"/>
		
			<path style="fill:none;stroke:#000000;stroke-width:8.5039;stroke-linecap:round;stroke-linejoin:round;stroke-miterlimit:22.9256;" d="
			M295.338,102.813c19.137-17.238-12.849-36.98,24.604-64.859"/>
		
			<path style="fill:none;stroke:#000000;stroke-width:8.5039;stroke-linecap:round;stroke-linejoin:round;stroke-miterlimit:22.9256;" d="
			M278.313,46.928c0,0,21.007-12.924,33.202-21.542c12.193-8.617,30.006-8.231,28.108,25.331
			c-1.898,33.561-8.668,63.182-37.737,73.663"/>
		
			<path style="fill:none;stroke:#000000;stroke-width:8.5039;stroke-linecap:round;stroke-linejoin:round;stroke-miterlimit:22.9256;" d="
			M225.065,41.455c20.044-2.731,57.342,25.439,74.002,92.673"/>
		
			<path style="fill:none;stroke:#000000;stroke-width:8.5039;stroke-linecap:round;stroke-linejoin:round;stroke-miterlimit:22.9256;" d="
			M257.074,125.101c-11.249,2.243-50.626,0.905-62.238-18.603c-11.61-19.507,5.463-38.059,5.463-38.059"/>
		
			<path style="fill:none;stroke:#000000;stroke-width:8.5039;stroke-linecap:round;stroke-linejoin:round;stroke-miterlimit:22.9256;" d="
			M270.148,70.887c-5.674-9.518-44.706-31.495-69.85-2.448"/>
		
			<path style="fill:none;stroke:#000000;stroke-width:8.5039;stroke-linecap:round;stroke-linejoin:round;stroke-miterlimit:22.9256;" d="
			M83.483,72.301c-24.023,36.172-26.502,74.664-38.105,89.997"/>
		
			<path style="fill:none;stroke:#000000;stroke-width:8.5039;stroke-linecap:round;stroke-linejoin:round;stroke-miterlimit:22.9256;" d="
			M105.907,57.172c48.206-27.157,100.199,21.958,54.05,56.054"/>
		
			<path style="fill:none;stroke:#000000;stroke-width:8.5039;stroke-linecap:round;stroke-linejoin:round;stroke-miterlimit:22.9256;" d="
			M227.833,111.395c0,0,17.817-8.426,38.249,0.212"/>
		
			<path style="fill:none;stroke:#000000;stroke-width:8.5039;stroke-linecap:round;stroke-linejoin:round;stroke-miterlimit:22.9256;" d="
			M93.395,112.621c0,0,21.006-9.174,41.061,2.651"/>
		
			<path style="fill:none;stroke:#000000;stroke-width:8.5039;stroke-linecap:round;stroke-linejoin:round;stroke-miterlimit:22.9256;" d="
			M45.726,35.246c39.896,64.713,0.16,42.75,16.831,69.199"/>
		
			<path style="fill:none;stroke:#000000;stroke-width:8.5039;stroke-linecap:round;stroke-linejoin:round;stroke-miterlimit:22.9256;" d="
			M231.134,76.803c0.194-6,13.509-9.929,18,1.512"/>
		
			<path style="fill:none;stroke:#000000;stroke-width:8.5039;stroke-linecap:round;stroke-linejoin:round;stroke-miterlimit:22.9256;" d="
			M236.181,101.557c0,0-4.681-10.316-5.047-24.753"/>
		
			<path style="fill:none;stroke:#000000;stroke-width:8.5039;stroke-linecap:round;stroke-linejoin:round;stroke-miterlimit:22.9256;" d="
			M236.938,90.307c0,0,8.819-7.681,12.195-11.992"/>
		
			<path style="fill:none;stroke:#000000;stroke-width:8.5039;stroke-linecap:round;stroke-linejoin:round;stroke-miterlimit:22.9256;" d="
			M253.511,108.161c0,0,0.294-4.343-1.016-8.469c-1.31-4.126-15.557-9.385-15.557-9.385"/>
		
			<path style="fill:none;stroke:#000000;stroke-width:8.5039;stroke-linecap:round;stroke-linejoin:round;stroke-miterlimit:22.9256;" d="
			M111.118,102.601c0.354-4.607,2.163-19.261,4.706-28.872"/>
		
			<path style="fill:none;stroke:#000000;stroke-width:8.5039;stroke-linecap:round;stroke-linejoin:round;stroke-miterlimit:22.9256;" d="
			M130.07,79.925c3.382-11.06-11.239-16.507-14.246-6.196"/>
		
			<path style="fill:none;stroke:#000000;stroke-width:8.5039;stroke-linecap:round;stroke-linejoin:round;stroke-miterlimit:22.9256;" d="
			M116.564,89.292c0,0,9.379-6.932,13.506-9.367"/>
		
			<path style="fill:none;stroke:#000000;stroke-width:8.5039;stroke-linecap:round;stroke-linejoin:round;stroke-miterlimit:22.9256;" d="
			M128.556,101.862c-2.7-4.437-7.369-8.391-11.992-12.57"/>
		
			<path style="fill:none;stroke:#000000;stroke-width:8.5039;stroke-linecap:round;stroke-linejoin:round;stroke-miterlimit:22.9256;" d="
			M127.319,111.901c0,0,2.546-4.975,1.237-10.039"/>
	</g>
</g>
<g id="n0203">
	<g>
		<g>
			<polygon style="fill-rule:evenodd;clip-rule:evenodd;fill:#68569D;" points="172.526,255.832 173.441,244.998 175.477,233.096 
				179.271,220.902 188.577,213.708 202.904,209.87 212.037,211.933 216.141,215.523 211.355,221.891 206.592,224.742 
				205.831,234.599 205.868,245.112 206.397,259.353 196.944,258.521 186.472,264.692 178.603,258.772 172.526,255.832 			"/>
			
				<path style="fill:none;stroke:#000000;stroke-width:8.5039;stroke-linecap:round;stroke-linejoin:round;stroke-miterlimit:22.9256;" d="
				M187.631,231.068c0,0,26.628-5.421,28.51-15.545"/>
			
				<path style="fill:none;stroke:#000000;stroke-width:8.5039;stroke-linecap:round;stroke-linejoin:round;stroke-miterlimit:22.9256;" d="
				M173.181,249.434c1.8-51.622,42.588-39.909,42.96-33.91"/>
		</g>
		
			<path style="fill:none;stroke:#000000;stroke-width:8.5039;stroke-linecap:round;stroke-linejoin:round;stroke-miterlimit:22.9256;" d="
			M206.18,260.897c0,0-1.479-26.511,0.194-34.61"/>
	</g>
</g>
<g id="n0204">
	<g>
		<polygon style="fill-rule:evenodd;clip-rule:evenodd;fill:#414141;" points="157.48,120.445 160.054,114.947 166.515,108.127 
			174.472,103.401 182.45,102.07 191.921,104.765 198.686,109.634 204.81,117.727 205.808,123.542 201.894,127.292 195.861,127.763 
			195.663,132.617 185.401,135.886 176.36,134.97 169.105,128.3 162.16,126.716 157.48,120.445 		"/>
		<path style="fill-rule:evenodd;clip-rule:evenodd;fill:#FFFFFF;" d="M366.097,191.533l-7.239-11.617l-7.134-10.382l16.863,3.767
			l-9.016-10.344l-12.33-11.616l-14.072-10.322l-15.459-8.381l-18.129-6.562l-17.062-3.462l-24.173-1.074l-21.159,2.294
			l-17.958,4.107l-13.003,4.082l-4.332-4.73l-4.637,0.605l-6.725,6.354l-9.651,1.177l-9.204-2.251l-2.572-4.877l-6.945-1.584
			l-2.587,1.742l-11.446-4.331l-15.688-3.504l-25.751,0.731l-27.371,7.14l-22.867,10.649l-17.404,9.979L19.855,160.71
			c0,0-14.153,7.256-15.516,7.784c-1.363,0.527,2.935,8.842,2.935,8.842l8.701,6.48l-6.043,11.196l9.215,12.472l15.435,17.579
			l22.88,20.611l23.703,16.421l27.155,14.113l25.914,9.607l27.565,6.562l26.894,2.981l27.184-0.394l31.172-4.892l26.854-8.46
			l24.576-11.818l21.717-14.446l16.385-14.062l14.196-15.04l10.657-13.551l8.303-12.283L366.097,191.533z M293.218,235.015
			c-11.185,11.622-38.463,38.407-107.349,32.493c-68.885-5.916-94.023-20.411-109.332-44.899
			c-15.308-24.486-10.471-45.664,12.107-59.892c22.578-14.227,66.991,3.282,82.194,7.644c15.202,4.36,14.203-9.625,14.203-9.625
			c1.751,6.539-0.02,12.764,25.365,5.6c25.388-7.165,39.312-8.169,73.291,0.827C317.675,176.161,304.404,223.391,293.218,235.015z"
			/>
		<polygon style="fill-rule:evenodd;clip-rule:evenodd;fill:#81CECE;" points="105.796,158.57 106.035,167.527 108.712,178.143 
			115.295,187.79 123.703,191.998 127.955,187.824 133.326,191.792 141.712,193.166 146.103,199.19 152.611,201.371 160.33,197.602 
			164.431,193.626 171.575,196.861 182.814,196.61 189.915,192.556 199.322,195.099 208.957,195.479 219.774,193.114 
			227.172,189.376 235.326,193.842 244.066,195.616 252.03,192.008 254.845,188.045 261.792,189.812 268.087,184.965 
			271.075,178.091 272.738,170.278 273.876,163.219 258.897,160.289 239.519,161.519 219.03,166.025 203.595,170.384 
			193.269,169.012 185.04,160.737 178.92,168.793 169.954,170.533 155.635,166 139.975,161.337 126.038,158.979 115.021,158.307 
			105.796,158.57 		"/>
		<polygon style="fill-rule:evenodd;clip-rule:evenodd;fill:#81CECE;" points="87.199,236.344 94.774,229.211 104.012,222.738 
			117.353,216.774 126.637,217.864 131.199,227.577 137.143,231.217 144.997,232.052 153.212,235.552 158.905,243.222 
			161.21,246.321 169.664,242.214 177.399,242.82 186.13,247.872 189.55,251.311 198.043,245.225 206.82,244.053 216.719,249.899 
			221.64,242.811 229.076,236.272 237.108,233.987 247.228,237.191 255.152,244.204 262.958,255.185 252.527,258.809 
			235.118,263.39 214.701,266.676 193.929,267.868 172.135,266.892 152.349,264.028 133.388,259.406 116.351,253.427 
			100.918,245.991 87.199,236.344 		"/>
		<polygon style="fill-rule:evenodd;clip-rule:evenodd;fill:#FFFFFF;" points="286.278,241.918 278.64,229.495 268.893,221.291 
			259.851,221.21 253.368,226.025 246.019,230.541 240.53,234.243 247.106,238.877 253.116,244.319 261.784,256.727 
			269.927,253.139 280.05,246.964 286.278,241.918 		"/>
		<polygon style="fill-rule:evenodd;clip-rule:evenodd;fill:#FFFFFF;" points="287.14,239.875 279.247,227.613 269.335,219.611 
			260.292,219.716 253.911,224.663 246.657,229.329 241.245,233.144 247.916,237.64 254.034,242.957 262.958,255.185 
			271.023,251.43 281.018,245.05 287.14,239.875 		"/>
		
			<path style="fill:none;stroke:#000000;stroke-width:8.5039;stroke-linecap:round;stroke-linejoin:round;stroke-miterlimit:22.9256;" d="
			M298.032,121.952"/>
		
			<path style="fill:none;stroke:#000000;stroke-width:8.5039;stroke-linecap:round;stroke-linejoin:round;stroke-miterlimit:22.9256;" d="
			M170.532,132.555c0,0,12.153,7.634,25.131,0.062"/>
		
			<path style="fill:none;stroke:#000000;stroke-width:8.5039;stroke-linecap:round;stroke-linejoin:round;stroke-miterlimit:22.9256;" d="
			M165.942,128.145c0,0,7.747,2.847,9.004-9.369"/>
		
			<path style="fill:none;stroke:#000000;stroke-width:8.5039;stroke-linecap:round;stroke-linejoin:round;stroke-miterlimit:22.9256;" d="
			M189.755,118.481c0,0-2.824,8.871,7.502,9.417"/>
		
			<path style="fill:none;stroke:#000000;stroke-width:8.5039;stroke-linecap:round;stroke-linejoin:round;stroke-miterlimit:22.9256;" d="
			M160.054,114.947c0,0,20.04-29.654,44.467,0.99"/>
		
			<path style="fill:none;stroke:#000000;stroke-width:8.5039;stroke-linecap:round;stroke-linejoin:round;stroke-miterlimit:22.9256;" d="
			M165.942,128.145c0,0-14.13-3.283-5.888-13.198"/>
		
			<path style="fill:none;stroke:#000000;stroke-width:8.5039;stroke-linecap:round;stroke-linejoin:round;stroke-miterlimit:22.9256;" d="
			M204.521,115.937c1.519,2.512,4.74,12.096-7.264,11.961"/>
		
			<path style="fill:none;stroke:#000000;stroke-width:8.5039;stroke-linecap:round;stroke-linejoin:round;stroke-miterlimit:22.9256;" d="
			M40.873,147.888"/>
		
			<path style="fill:none;stroke:#000000;stroke-width:8.5039;stroke-linecap:round;stroke-linejoin:round;stroke-miterlimit:22.9256;" d="
			M158.522,103.912"/>
		
			<path style="fill:none;stroke:#000000;stroke-width:8.5039;stroke-linecap:round;stroke-linejoin:round;stroke-miterlimit:22.9256;" d="
			M4.339,168.495c30.531-11.297,89.933-70.242,155.234-40.036"/>
		
			<path style="fill:none;stroke:#000000;stroke-width:8.5039;stroke-linecap:round;stroke-linejoin:round;stroke-miterlimit:22.9256;" d="
			M14.024,184.054c0,0-10.845-7.848-9.686-15.56"/>
		
			<path style="fill:none;stroke:#000000;stroke-width:8.5039;stroke-linecap:round;stroke-linejoin:round;stroke-miterlimit:22.9256;" d="
			M26.125,170.122c0,0-13.731,16.776-16.194,24.891"/>
		
			<path style="fill:none;stroke:#000000;stroke-width:8.5039;stroke-linecap:round;stroke-linejoin:round;stroke-miterlimit:22.9256;" d="
			M369.735,200.415C282.729,338.577,94.042,317.254,9.931,195.013"/>
		
			<path style="fill:none;stroke:#000000;stroke-width:8.5039;stroke-linecap:round;stroke-linejoin:round;stroke-miterlimit:22.9256;" d="
			M204.8,132.486c14.542-4.585,101.018-38.725,164.699,41.962"/>
		
			<path style="fill:none;stroke:#000000;stroke-width:8.5039;stroke-linecap:round;stroke-linejoin:round;stroke-miterlimit:22.9256;" d="
			M349.516,169.219c0,0,14.713,13.584,20.22,31.196"/>
		
			<path style="fill:none;stroke:#000000;stroke-width:8.5039;stroke-linecap:round;stroke-linejoin:round;stroke-miterlimit:22.9256;" d="
			M369.499,174.448c0,0-14.537-4.774-19.983-5.229"/>
		
			<path style="fill:none;stroke:#000000;stroke-width:8.5039;stroke-linecap:round;stroke-linejoin:round;stroke-miterlimit:22.9256;" d="
			M173.109,280.846c0,0,23.117,2.541,36.941-0.174"/>
		
			<path style="fill:none;stroke:#000000;stroke-width:8.5039;stroke-linecap:round;stroke-linejoin:round;stroke-miterlimit:22.9256;" d="
			M185.107,148.767c0,0,2.261,28.837-19.847,20.462"/>
		
			<path style="fill:none;stroke:#000000;stroke-width:8.5039;stroke-linecap:round;stroke-linejoin:round;stroke-miterlimit:22.9256;" d="
			M207.829,169.131c-11.733,4.173-23.568,3.096-22.722-20.364"/>
		
			<path style="fill:none;stroke:#000000;stroke-width:8.5039;stroke-linecap:round;stroke-linejoin:round;stroke-miterlimit:22.9256;" d="
			M165.26,169.229c-11.505-3.334-27.804-11.824-57.04-10.867c-54.87,3.905-43.513,55.63-22.29,76.771
			c21.224,21.143,97.256,48.772,174.268,21.1c52.779-18.965,66.496-84.078,4.312-95.267c-14.932-2.687-34.096,1.645-56.682,8.165"/>
		
			<path style="fill:none;stroke:#000000;stroke-width:8.5039;stroke-linecap:round;stroke-linejoin:round;stroke-miterlimit:22.9256;" d="
			M210.177,155.206c0,0,6.678-22.636,22.38-6.259"/>
		
			<path style="fill:none;stroke:#000000;stroke-width:8.5039;stroke-linecap:round;stroke-linejoin:round;stroke-miterlimit:22.9256;" d="
			M254.601,144.571c0,0-15.551-18.069-22.044,4.377"/>
		
			<path style="fill:none;stroke:#000000;stroke-width:8.5039;stroke-linecap:round;stroke-linejoin:round;stroke-miterlimit:22.9256;" d="
			M273.458,140.445c0,0-13.308-18.488-18.857,4.126"/>
		
			<path style="fill:none;stroke:#000000;stroke-width:8.5039;stroke-linecap:round;stroke-linejoin:round;stroke-miterlimit:22.9256;" d="
			M291.288,141.028c0,0-6.721-17.307-17.83-0.583"/>
		
			<path style="fill:none;stroke:#000000;stroke-width:8.5039;stroke-linecap:round;stroke-linejoin:round;stroke-miterlimit:22.9256;" d="
			M311.783,153.184c0,0-5.98-17.696-20.495-12.156"/>
		
			<path style="fill:none;stroke:#000000;stroke-width:8.5039;stroke-linecap:round;stroke-linejoin:round;stroke-miterlimit:22.9256;" d="
			M167.259,156.623c0,0,7.059-22.27-11.175-5.591"/>
		
			<path style="fill:none;stroke:#000000;stroke-width:8.5039;stroke-linecap:round;stroke-linejoin:round;stroke-miterlimit:22.9256;" d="
			M142.471,145.49c0,0,10.625-12.587,13.613,5.543"/>
		
			<path style="fill:none;stroke:#000000;stroke-width:8.5039;stroke-linecap:round;stroke-linejoin:round;stroke-miterlimit:22.9256;" d="
			M121.225,142.725c0,0,13.409-14.145,21.247,2.765"/>
		
			<path style="fill:none;stroke:#000000;stroke-width:8.5039;stroke-linecap:round;stroke-linejoin:round;stroke-miterlimit:22.9256;" d="
			M101.688,141.05c0,0,11.972-10.927,19.537,1.675"/>
		
			<path style="fill:none;stroke:#000000;stroke-width:8.5039;stroke-linecap:round;stroke-linejoin:round;stroke-miterlimit:22.9256;" d="
			M80.144,142.23c0,0,12.28-4.933,21.544-1.18"/>
		
			<path style="fill:none;stroke:#000000;stroke-width:8.5039;stroke-linecap:round;stroke-linejoin:round;stroke-miterlimit:22.9256;" d="
			M122.209,248.852c0,0,23.477-36.383,38.403-2.078"/>
		
			<path style="fill:none;stroke:#000000;stroke-width:8.5039;stroke-linecap:round;stroke-linejoin:round;stroke-miterlimit:22.9256;" d="
			M188.665,252.217c0,0-10.507-19.105-28.052-5.443"/>
		
			<path style="fill:none;stroke:#000000;stroke-width:8.5039;stroke-linecap:round;stroke-linejoin:round;stroke-miterlimit:22.9256;" d="
			M216.565,250.161c0,0-11.185-15.53-27.9,2.056"/>
		
			<path style="fill:none;stroke:#000000;stroke-width:8.5039;stroke-linecap:round;stroke-linejoin:round;stroke-miterlimit:22.9256;" d="
			M258.738,248.948c0,0-21.315-34.457-42.173,1.214"/>
		
			<path style="fill:none;stroke:#000000;stroke-width:8.5039;stroke-linecap:round;stroke-linejoin:round;stroke-miterlimit:22.9256;" d="
			M240.259,234.291c0,0,11.498-15.772,25.217,4.583"/>
		
			<path style="fill:none;stroke:#000000;stroke-width:8.5039;stroke-linecap:round;stroke-linejoin:round;stroke-miterlimit:22.9256;" d="
			M251.231,228.468c0,0,14.94-28.186,35.908,11.407"/>
		
			<path style="fill:none;stroke:#000000;stroke-width:8.5039;stroke-linecap:round;stroke-linejoin:round;stroke-miterlimit:22.9256;" d="
			M107.757,238.826c0,0,14.347-23.251,31.483-5.64"/>
		
			<path style="fill:none;stroke:#000000;stroke-width:8.5039;stroke-linecap:round;stroke-linejoin:round;stroke-miterlimit:22.9256;" d="
			M92.966,230.681c0,0,35.293-30.14,38.233-3.104"/>
		
			<path style="fill:none;stroke:#000000;stroke-width:8.5039;stroke-linecap:round;stroke-linejoin:round;stroke-miterlimit:22.9256;" d="
			M136.688,175.424c0,0,5.173,43.219,27.743,18.202"/>
		
			<path style="fill:none;stroke:#000000;stroke-width:8.5039;stroke-linecap:round;stroke-linejoin:round;stroke-miterlimit:22.9256;" d="
			M189.915,192.556c0,0-10.667,10.527-25.484,1.07"/>
		
			<path style="fill:none;stroke:#000000;stroke-width:8.5039;stroke-linecap:round;stroke-linejoin:round;stroke-miterlimit:22.9256;" d="
			M227.172,189.376c0,0-15.522,11.562-37.257,3.18"/>
		
			<path style="fill:none;stroke:#000000;stroke-width:8.5039;stroke-linecap:round;stroke-linejoin:round;stroke-miterlimit:22.9256;" d="
			M258.356,173.19c0,0-0.395,36.768-31.185,16.186"/>
		
			<path style="fill:none;stroke:#000000;stroke-width:8.5039;stroke-linecap:round;stroke-linejoin:round;stroke-miterlimit:22.9256;" d="
			M272.738,170.278c0,0-2.954,26.815-17.894,17.768"/>
		
			<path style="fill:none;stroke:#000000;stroke-width:8.5039;stroke-linecap:round;stroke-linejoin:round;stroke-miterlimit:22.9256;" d="
			M116.799,165.505c0,0,6.752,29.924,24.914,27.661"/>
		
			<path style="fill:none;stroke:#000000;stroke-width:8.5039;stroke-linecap:round;stroke-linejoin:round;stroke-miterlimit:22.9256;" d="
			M105.941,166.471c0,0,1.187,21.919,17.761,25.527"/>
	</g>
</g>
</svg>
