<?xml version="1.0" encoding="utf-8"?>
<!-- Generator: Adobe Illustrator 19.2.1, SVG Export Plug-In . SVG Version: 6.00 Build 0)  -->
<svg version="1.1" xmlns="http://www.w3.org/2000/svg" xmlns:xlink="http://www.w3.org/1999/xlink" x="0px" y="0px"
	 viewBox="0 0 354.16 545.833" style="enable-background:new 0 0 354.16 545.833;" xml:space="preserve">
<g id="n0301">
	<g>
		<polygon style="fill-rule:evenodd;clip-rule:evenodd;fill:#E085AD;" points="108.97,33.904 116.618,36.73 115.624,51.497 
			112.753,73.634 109.401,93.01 104.651,116.355 98.903,141.374 93.304,163.628 87.665,184.432 81.691,204.817 76.868,204.731 
			72.696,190.779 68.319,169.19 67.179,147.699 69.114,128.628 74.013,108.344 81.109,88.652 89.343,70.317 99.126,51.338 
			108.97,33.904 		"/>
		<polygon style="fill-rule:evenodd;clip-rule:evenodd;fill:#49B37E;" points="223.212,161.231 230.54,158.177 226.536,149.902 
			218.845,138.693 207.835,128.233 197.476,121.871 187.48,118 173.64,115.697 158.925,115.978 145.896,119.266 134.31,125.688 
			125.915,133.811 122.618,138.731 118.194,137.417 116.214,144.028 113.944,151.466 111.816,158.325 109.087,166.984 
			106.587,174.825 115.005,169.863 125.679,164.335 138.626,158.938 150.384,155.344 160.808,153.218 171.071,152.1 
			183.093,152.017 193.978,153.079 204.021,155.012 213.546,157.686 223.212,161.231 		"/>
		<polygon style="fill-rule:evenodd;clip-rule:evenodd;fill:#F8D63F;" points="109.894,33.128 117.088,36.73 116.589,44.114 
			115.119,59.011 113.504,71.817 109.871,93.01 106.554,109.313 102.627,127.542 98.339,145.619 94.08,162.455 88.939,181.555 
			83.302,201.062 80.002,211.683 76.597,225.261 75.691,242.574 76.002,258.902 75.953,274.435 74.664,290.18 73.963,294.732 
			84.519,289.845 96.966,286.44 112.507,285.565 130.662,289.82 145.339,296.323 158.832,303.011 164.947,300.178 160.714,292.413 
			160.824,284.029 165.265,274.974 172.554,270.867 171.088,265.856 172.675,253.564 172.058,240.309 170.211,224.198 
			167.214,205.17 164.154,188.662 160.464,170.801 156.066,154.281 142.121,157.893 128.619,163.306 115.474,169.863 
			107.056,174.825 110.922,162.654 116.199,145.626 122.64,123.762 128.629,102.004 134.425,79.082 139.392,57.264 142.99,39.5 
			145.506,25.512 146.068,13.722 141.689,7.431 132.23,9.632 124.797,14.884 116.341,23.325 109.894,33.128 		"/>
		<polygon style="fill-rule:evenodd;clip-rule:evenodd;fill:#FFFFFF;" points="250.472,4.558 245.966,11.317 244.116,23.874 
			243.775,41.009 244.704,59.807 246.409,76.45 249.214,95.358 253.079,115.363 256.491,130.185 260.993,147.356 266.599,163.036 
			272.956,182.67 278.585,198.176 283.868,208.856 291.089,204.51 296.741,196.836 301.109,185.262 303.548,172.029 
			304.462,158.747 304.099,141.49 302.154,122.511 298.814,103.442 293.722,82.787 286.9,61.786 278.9,42.383 270.068,25.15 
			261.993,12.082 254.913,5.092 250.472,4.558 		"/>
		<path style="fill-rule:evenodd;clip-rule:evenodd;fill:#FFFFFF;" d="M156.694,153.938l11.764-1.645l9.357-0.239l11.633,0.453
			l10.607,1.742l11.322,2.828c0,0,11.34,4.36,11.834,4.154c0.494-0.206,7.328-3.054,7.328-3.054l3.551,10.217l2.488,10.932
			l2.305,11.684l3.81,10.31l6.807,11.541l9.412,10.659l8.883,7.175l5.105,3.1l0.055,13.259l1.244,10.369l1.412,8.212l1.916,13.727
			l-11.307-1.634l-16.598,2.796c0,0-14.666,7.273-14.902,6.767c-0.234-0.508-14.877,6.436-14.877,6.436l-15.672,6.632l-2.072-4.454
			l3.328-4.515l-1.561-6.605l-4.053-7.19l-5.543-5.729l-9.596-2.819l-9.492,0.875l-4.567-4.064l1.57-12.149l-0.543-12.168
			l-1.238-11.53l-1.738-13.853l-3.191-17.824l-3.26-18.735l-2.967-14.369L156.694,153.938L156.694,153.938z"/>
		<polygon style="fill-rule:evenodd;clip-rule:evenodd;" points="104.253,259.276 106.06,248.734 109.251,232.27 113.618,215.512 
			118.593,206.429 125.409,204.043 131.616,209.061 132.556,218.512 123.931,223.199 116.456,228.973 124.712,236.035 
			127.681,240.074 125.114,249.794 123.609,257.78 123.831,265.012 114.097,261.116 104.253,259.276 		"/>
		<polygon style="fill-rule:evenodd;clip-rule:evenodd;" points="214.911,265.122 222.985,258.856 232.857,253.679 232.306,241.574 
			223.351,238.381 215.056,233.887 222.761,226.411 226.868,221.324 228.421,213.724 224.132,206.638 216.794,204.708 
			209.339,208.836 208.12,217.781 209.417,227.741 212.075,242.099 214.028,253.469 214.911,265.122 		"/>
		<polygon style="fill-rule:evenodd;clip-rule:evenodd;fill:#68569D;" points="190.931,115.919 204.628,115.267 218.913,116.564 
			234.331,121.132 246.118,128.073 260.993,147.356 268.021,167.444 273.486,184.242 278.585,198.176 285.224,212.773 
			295.56,228.508 301.458,238.279 304.361,251.761 302.12,265.828 297.013,277.873 290.993,287.982 282.956,281.94 277.529,279.361 
			276.068,267.685 273.392,250.684 271.868,233.231 257.868,222.519 246.843,208.352 238.31,188.096 234.091,168.394 
			227.364,151.43 215.749,135.244 202.655,125.052 190.931,115.919 		"/>
		<polygon style="fill-rule:evenodd;clip-rule:evenodd;fill:#68569D;" points="72.941,191.691 75.398,199.814 81.183,206.373 
			77.831,218.472 75.86,230.376 75.222,242.574 75.532,258.902 75.489,272.385 74.597,285.264 73.493,294.732 60.526,306.354 
			53.134,319.358 50.175,334.223 51.439,350.193 55.025,363.075 63.159,378.942 71.948,390.823 83.843,402.815 100.13,414.901 
			114.384,422.855 130.913,429.948 145.687,434.815 159.458,438.351 169.025,440.325 169.841,454.629 169.657,464.138 
			170.255,477.471 155.698,480.589 141.421,485.222 126.989,492.11 117.905,498.842 112.693,498.216 110.39,507.978 
			107.128,514.784 97.776,511.849 81.944,507.292 68.05,501.581 54.95,494.021 43.593,484.19 37.734,476.279 33.286,465.536 
			24.956,463.612 14.554,456.843 7.177,446.104 6.194,434.862 10.4,428.325 23.222,420.79 31.8,410.963 37.064,401.145 
			37.255,391.92 32.523,383.7 27.091,381.417 18.213,373.521 11.424,360.167 7.758,349.417 4.424,336.75 7.758,326.084 
			14.985,312.463 27.65,303.45 36.954,293.125 40.243,281.286 37.88,264.107 36.151,245.481 38.622,229.281 46.112,213.424 
			56.439,201.913 72.941,191.691 		"/>
		<path style="fill-rule:evenodd;clip-rule:evenodd;fill:#49B37E;" d="M303.325,243.748l5.076-2.407l5.832,6.102l4.918,8.91
			l0.451,8.83l-3.025,10.071l-4.584,8.603l-2.891,8.346l1.832,12.893l5.229,9.546l8.461,9.68l12.008,11.258l8.312,12.474
			l3.604,9.831l1.803,15.095l-1.959,14.448l-3.502,9.416l-8.252,10.351l-3.631,4.892l-7.838-2.05l-6.434,10.202l-5.941,8.886
			l-4.807,11.308l-1.924,11.674l-6.387,7.243l3.074,14.135l0.891,12.949l-1.84,11.154l-5.176,9.226l-12.299,7.691l-16.207,0.602
			l8.314-9.509l4.715-9.02l-9.16-5.363l-10.281,3.597l-13.762,0.668l-9.859-4.184l-7.426-8.378l-2.799-9.167l-6.564-1.279
			l-11.201-0.593l-0.338-12.836l0.023-9.556l0.117-7.659l13.75-3.792l11.787-4.784l10.236-5.501l10.986-7.52l11.85-8.942
			l10.461-10.186l9.477-11.266c0,0,5.197-8.138,6.318-9.97c1.121-1.832,7.645-11.013,7.645-11.013l3.328-11.379l4.025-13.739
			l0.299-16.598l-3.365-14.272l-5.502-11.944l-9.076-11.404l2.398-7.451l6.398-12.773l3.32-13.881L303.325,243.748L303.325,243.748z
			"/>
		
			<path style="fill:none;stroke:#000000;stroke-width:8.5039;stroke-linecap:round;stroke-linejoin:round;stroke-miterlimit:22.9256;" d="
			M145.587,22.2c-10.232,62.548-30.008,124.499-39,152.625"/>
		
			<path style="fill:none;stroke:#000000;stroke-width:8.5039;stroke-linecap:round;stroke-linejoin:round;stroke-miterlimit:22.9256;" d="
			M110.337,31.575c5.25-12.188,39-42.562,35.25-9.375"/>
		
			<path style="fill:none;stroke:#000000;stroke-width:8.5039;stroke-linecap:round;stroke-linejoin:round;stroke-miterlimit:22.9256;" d="
			M77.993,207.544c-17.625-53.624-15.188-95.25,32.344-175.969"/>
		
			<path style="fill:none;stroke:#000000;stroke-width:8.5039;stroke-linecap:round;stroke-linejoin:round;stroke-miterlimit:22.9256;" d="
			M115.73,145.626c0,0,21.889-37.27,67.264-28.645"/>
		
			<path style="fill:none;stroke:#000000;stroke-width:8.5039;stroke-linecap:round;stroke-linejoin:round;stroke-miterlimit:22.9256;" d="
			M260.993,147.356c0,0-13.125-40.875-78-30.375"/>
		
			<path style="fill:none;stroke:#000000;stroke-width:8.5039;stroke-linecap:round;stroke-linejoin:round;stroke-miterlimit:22.9256;" d="
			M244.868,16.106c0,0-7.5,46.499,16.125,131.25"/>
		
			<path style="fill:none;stroke:#000000;stroke-width:8.5039;stroke-linecap:round;stroke-linejoin:round;stroke-miterlimit:22.9256;" d="
			M266.243,18.73c0,0-16.5-30.75-21.375-2.624"/>
		
			<path style="fill:none;stroke:#000000;stroke-width:8.5039;stroke-linecap:round;stroke-linejoin:round;stroke-miterlimit:22.9256;" d="
			M289.094,213.49c30.755-11.866,19.149-127.259-22.851-194.76"/>
		
			<path style="fill:none;stroke:#000000;stroke-width:8.5039;stroke-linecap:round;stroke-linejoin:round;stroke-miterlimit:22.9256;" d="
			M116.618,36.73c-1.5,49.876-27.428,146.433-38.625,179.626"/>
		
			<path style="fill:none;stroke:#000000;stroke-width:8.5039;stroke-linecap:round;stroke-linejoin:round;stroke-miterlimit:22.9256;" d="
			M73.493,294.732c5.25-30.375-1.719-57.22,4.5-78.376"/>
		
			<path style="fill:none;stroke:#000000;stroke-width:8.5039;stroke-linecap:round;stroke-linejoin:round;stroke-miterlimit:22.9256;" d="
			M106.587,174.825c24.375-15,68.156-32.842,120.281-11.467"/>
		
			<path style="fill:none;stroke:#000000;stroke-width:8.5039;stroke-linecap:round;stroke-linejoin:round;stroke-miterlimit:22.9256;" d="
			M156.368,133.856c0,0-18.068,6.643-28.943,27.268"/>
		
			<path style="fill:none;stroke:#000000;stroke-width:8.5039;stroke-linecap:round;stroke-linejoin:round;stroke-miterlimit:22.9256;" d="
			M270.368,60.356c-0.375,84.75,22.587,112.951,21.087,127.576"/>
		<path style="fill-rule:evenodd;clip-rule:evenodd;" d="M82.118,138.604c2.348,0,4.252,1.903,4.252,4.252
			c0,2.349-1.904,4.252-4.252,4.252c-2.35,0-4.252-1.903-4.252-4.252C77.866,140.507,79.769,138.604,82.118,138.604L82.118,138.604z
			"/>
		<path style="fill-rule:evenodd;clip-rule:evenodd;" d="M293.618,145.354c2.348,0,4.252,1.904,4.252,4.252
			c0,2.349-1.904,4.252-4.252,4.252c-2.348,0-4.252-1.903-4.252-4.252C289.366,147.258,291.271,145.354,293.618,145.354
			L293.618,145.354z"/>
		
			<path style="fill:none;stroke:#000000;stroke-width:8.5039;stroke-linecap:round;stroke-linejoin:round;stroke-miterlimit:22.9256;" d="
			M201.051,181.426c0,0,13.875-1.875,27.75,11.625"/>
		
			<path style="fill:none;stroke:#000000;stroke-width:8.5039;stroke-linecap:round;stroke-linejoin:round;stroke-miterlimit:22.9256;" d="
			M109.118,192.356c0,0,7.125-12,30.375-10.125"/>
		
			<path style="fill:none;stroke:#000000;stroke-width:8.5039;stroke-linecap:round;stroke-linejoin:round;stroke-miterlimit:22.9256;" d="
			M182.993,116.981c0,0,45,6,54,64.875"/>
		
			<path style="fill:none;stroke:#000000;stroke-width:8.5039;stroke-linecap:round;stroke-linejoin:round;stroke-miterlimit:22.9256;" d="
			M271.868,233.231c0,0-30-15.749-34.875-51.375"/>
		
			<path style="fill:none;stroke:#000000;stroke-width:8.5039;stroke-linecap:round;stroke-linejoin:round;stroke-miterlimit:22.9256;" d="
			M279.368,276.356c0,0,26.25-25.125-7.5-43.125"/>
		
			<path style="fill:none;stroke:#000000;stroke-width:8.5039;stroke-linecap:round;stroke-linejoin:round;stroke-miterlimit:22.9256;" d="
			M295.56,228.508c-18.375-21.75-25.566-59.402-34.566-81.152"/>
		
			<path style="fill:none;stroke:#000000;stroke-width:8.5039;stroke-linecap:round;stroke-linejoin:round;stroke-miterlimit:22.9256;" d="
			M262.493,190.481c12,29.251,66.75,39.75,28.5,97.501"/>
		
			<path style="fill:none;stroke:#000000;stroke-width:8.5039;stroke-linecap:round;stroke-linejoin:round;stroke-miterlimit:22.9256;" d="
			M307.493,240.356c6.834,7.688,21.375,16.125,4.5,43.501"/>
		
			<path style="fill:none;stroke:#000000;stroke-width:8.5039;stroke-linecap:round;stroke-linejoin:round;stroke-miterlimit:22.9256;" d="
			M169.758,309.417c12-62.333-13.333-153.333-13.333-153.333"/>
		
			<path style="fill:none;stroke:#000000;stroke-width:8.5039;stroke-linecap:round;stroke-linejoin:round;stroke-miterlimit:22.9256;" d="
			M271.868,233.231c0,0,1.875,36.001,7.5,43.125"/>
		
			<path style="fill:none;stroke:#000000;stroke-width:8.5039;stroke-linecap:round;stroke-linejoin:round;stroke-miterlimit:22.9256;" d="
			M251.618,269.231c0,0,7.598,10.797,27.75,7.125"/>
		
			<path style="fill:none;stroke:#000000;stroke-width:8.5039;stroke-linecap:round;stroke-linejoin:round;stroke-miterlimit:22.9256;" d="
			M92.993,259.482c0,0,24.75-4.501,43.875,15.374"/>
		
			<path style="fill:none;stroke:#000000;stroke-width:8.5039;stroke-linecap:round;stroke-linejoin:round;stroke-miterlimit:22.9256;" d="
			M210.743,269.231c0,0,16.5-18.75,35.625-18"/>
		
			<path style="fill:none;stroke:#000000;stroke-width:8.5039;stroke-linecap:round;stroke-linejoin:round;stroke-miterlimit:22.9256;" d="
			M72.941,191.691c0,0-47.916,17.258-34.416,75.384"/>
		
			<path style="fill:none;stroke:#000000;stroke-width:8.5039;stroke-linecap:round;stroke-linejoin:round;stroke-miterlimit:22.9256;" d="
			M27.65,303.45c0,0,18.375-10.5,10.875-36.375"/>
		
			<path style="fill:none;stroke:#000000;stroke-width:8.5039;stroke-linecap:round;stroke-linejoin:round;stroke-miterlimit:22.9256;" d="
			M30.591,383.167c-17.5-11.75-47.771-52.737-2.941-79.717"/>
		
			<path style="fill:none;stroke:#000000;stroke-width:8.5039;stroke-linecap:round;stroke-linejoin:round;stroke-miterlimit:22.9256;" d="
			M30.591,383.167c0,0,23.307,19.283-20.191,45.158"/>
		
			<path style="fill:none;stroke:#000000;stroke-width:8.5039;stroke-linecap:round;stroke-linejoin:round;stroke-miterlimit:22.9256;" d="
			M58.775,452.325c-27.375,34.875-66.75-8.25-48.375-24"/>
		
			<path style="fill:none;stroke:#000000;stroke-width:8.5039;stroke-linecap:round;stroke-linejoin:round;stroke-miterlimit:22.9256;" d="
			M38.525,357.825c18.566,18.925,21.233,40.925,1.875,68.25"/>
		
			<path style="fill:none;stroke:#000000;stroke-width:8.5039;stroke-linecap:round;stroke-linejoin:round;stroke-miterlimit:22.9256;" d="
			M229.025,463.95c-5.625,12.75,6.375,43.125,41.25,28.125"/>
		
			<path style="fill:none;stroke:#000000;stroke-width:8.5039;stroke-linecap:round;stroke-linejoin:round;stroke-miterlimit:22.9256;" d="
			M270.275,492.075c0,0,6.375,0.75,10.875,4.5"/>
		
			<path style="fill:none;stroke:#000000;stroke-width:8.5039;stroke-linecap:round;stroke-linejoin:round;stroke-miterlimit:22.9256;" d="
			M284.15,416.7c0,0-12.375,11.625-4.875,43.125"/>
		
			<path style="fill:none;stroke:#000000;stroke-width:8.5039;stroke-linecap:round;stroke-linejoin:round;stroke-miterlimit:22.9256;" d="
			M311.993,283.857c0,0-13.969,18.562,17.906,45.188s21.858,71.04-3.475,85.04"/>
		
			<path style="fill:none;stroke:#000000;stroke-width:8.5039;stroke-linecap:round;stroke-linejoin:round;stroke-miterlimit:22.9256;" d="
			M333.65,380.419c0.664,17.753-8.457,30.225-20.19,47.66c-4.472,6.645-10.768,23.907-5.24,35.113
			c0.538,1.091,1.189,2.125,1.964,3.086"/>
		
			<path style="fill:none;stroke:#000000;stroke-width:8.5039;stroke-linecap:round;stroke-linejoin:round;stroke-miterlimit:22.9256;" d="
			M310.775,360.169c0,0,4.125,26.625-7.875,52.5s-2.65,45.972-1.125,55.5"/>
		
			<path style="fill:none;stroke:#000000;stroke-width:8.5039;stroke-linecap:round;stroke-linejoin:round;stroke-miterlimit:22.9256;" d="
			M207.931,214.012c-0.562-10.124,15.562-13.688,20.062-2.25"/>
		
			<path style="fill:none;stroke:#000000;stroke-width:8.5039;stroke-linecap:round;stroke-linejoin:round;stroke-miterlimit:22.9256;" d="
			M214.911,265.122c0.375-13.875-6.746-36.434-6.98-51.11"/>
		
			<path style="fill:none;stroke:#000000;stroke-width:8.5039;stroke-linecap:round;stroke-linejoin:round;stroke-miterlimit:22.9256;" d="
			M232.306,241.574c0,0,0.562,6,0.375,11.062"/>
		
			<path style="fill:none;stroke:#000000;stroke-width:8.5039;stroke-linecap:round;stroke-linejoin:round;stroke-miterlimit:22.9256;" d="
			M226.868,221.324c0,0,2.812-3.938,1.125-9.562"/>
		
			<path style="fill:none;stroke:#000000;stroke-width:8.5039;stroke-linecap:round;stroke-linejoin:round;stroke-miterlimit:22.9256;" d="
			M215.056,233.887c0,0,8.062-6.938,11.812-12.562"/>
		
			<path style="fill:none;stroke:#000000;stroke-width:8.5039;stroke-linecap:round;stroke-linejoin:round;stroke-miterlimit:22.9256;" d="
			M232.306,241.574c0,0-15.375-4.876-17.25-7.688"/>
		
			<path style="fill:none;stroke:#000000;stroke-width:8.5039;stroke-linecap:round;stroke-linejoin:round;stroke-miterlimit:22.9256;" d="
			M132.556,218.512c3.375-12.938-12.562-23.626-18.937-3"/>
		
			<path style="fill:none;stroke:#000000;stroke-width:8.5039;stroke-linecap:round;stroke-linejoin:round;stroke-miterlimit:22.9256;" d="
			M104.253,259.276c0,0,5.24-32.702,9.365-43.764"/>
		
			<path style="fill:none;stroke:#000000;stroke-width:8.5039;stroke-linecap:round;stroke-linejoin:round;stroke-miterlimit:22.9256;" d="
			M127.681,240.074c0,0-6.199,20.437-3.85,24.937"/>
		
			<path style="fill:none;stroke:#000000;stroke-width:8.5039;stroke-linecap:round;stroke-linejoin:round;stroke-miterlimit:22.9256;" d="
			M115.306,227.887c0,0,9-5.999,17.25-9.375"/>
		
			<path style="fill:none;stroke:#000000;stroke-width:8.5039;stroke-linecap:round;stroke-linejoin:round;stroke-miterlimit:22.9256;" d="
			M127.681,240.074c0.75-1.875-8.254-8.111-12.375-12.188"/>
		<path style="fill-rule:evenodd;clip-rule:evenodd;fill:#F8D63F;" d="M172.554,270.867c0,0,18.55,97.216,18.376,99.216
			c-0.174,2,0.001,61.334,0.001,61.334s-99.033-48.662-101.271-50.998c-2.237-2.336-24.896-35.807-21.735-59.669
			c3.162-23.862,7.39-37.265,18.444-43.632C97.424,270.75,172.554,270.867,172.554,270.867z"/>
		<path style="fill-rule:evenodd;clip-rule:evenodd;fill:#68569D;" d="M180.461,344.138c2.082-1.333-11.763,9.587-13.733,9.1
			S66.275,294.732,66.275,294.732s-17.312,22.018-17.85,34.685c-0.538,12.667,5.333,43.333,18.667,59.333
			c13.333,16,46.68,63.333,47.84,65.333c1.16,2-13.031,47.334-13.031,47.334s6.356,14.137,8.273,15.068
			c1.917,0.932,44.285-3.168,55.101-3.785s35.777,0,35.777,0s-12.841-158.559-13.393-161.559
			C187.107,348.142,180.461,344.138,180.461,344.138z"/>
		<path style="fill-rule:evenodd;clip-rule:evenodd;fill:#49B37E;" d="M190.932,328.083c2.492,1.334,95.421-10,95.421-10
			l27.318,10.109l-9.998,55.508l-33.398,33c0,0-16.587,45.783-14.719,47.25c1.868,1.467,33.753,30.254,33.811,32.193
			c0.058,1.939-15.248,16.557-15.248,16.557h-52.125l-31.061-5.533l-18.256-165.75L190.932,328.083z"/>
		
			<path style="fill:none;stroke:#000000;stroke-width:8.5039;stroke-linecap:round;stroke-linejoin:round;stroke-miterlimit:22.9256;" d="
			M279.275,459.825c0,0,8.625,24.375-9,32.25"/>
		
			<path style="fill:none;stroke:#000000;stroke-width:8.5039;stroke-linecap:round;stroke-linejoin:round;stroke-miterlimit:22.9256;" d="
			M69.758,502.13c13.103,14.776,49.625-5.018,28.158-48.788"/>
		
			<path style="fill:none;stroke:#000000;stroke-width:8.5039;stroke-linecap:round;stroke-linejoin:round;stroke-miterlimit:22.9256;" d="
			M190.932,468.169c-0.175,2.581-14.202,44.531,19.811,44.531c34.014,0,40.781,1.594,40.781,1.594
			c13.977,3.12,62.25,10.875,50.25-46.125"/>
		
			<path style="fill:none;stroke:#000000;stroke-width:8.5039;stroke-linecap:round;stroke-linejoin:round;stroke-miterlimit:22.9256;" d="
			M40.4,426.075c-37.127,69.75,61.5,86.625,61.5,86.625s34.888,11.463,95.403-3.212"/>
		
			<path style="fill:none;stroke:#000000;stroke-width:8.5039;stroke-linecap:round;stroke-linejoin:round;stroke-miterlimit:22.9256;" d="
			M53.525,308.7c0,0-37.684,26.967-15,49.125"/>
	</g>
</g>
<g id="n0302">
	<g>
		<polygon style="fill-rule:evenodd;clip-rule:evenodd;fill:#FFFFFF;" points="169.025,422.325 169.646,432.523 170.216,466.069 
			170.204,479.761 169.775,487.95 180.946,492.433 194.132,493.691 207.693,491.703 213.316,489.732 210.735,482.206 
			209.913,468.903 209.755,435.698 209.9,423.825 197.122,424.614 185.499,424.49 169.025,422.325 		"/>
		<polygon style="fill-rule:evenodd;clip-rule:evenodd;fill:#F8D63F;" points="116.734,498.701 127.874,491.597 139.86,485.839 
			151.359,481.821 162.978,479.03 170.255,477.471 169.775,487.95 178.974,491.995 191.265,493.417 200.913,492.697 
			212.269,490.099 210.472,477.928 211.753,471.861 227.862,473.748 237.758,477.471 247.758,482.417 256.758,487.95 
			263.424,490.45 270.275,492.075 281.15,496.575 278.472,502.694 274.398,508.496 268.12,515.104 257.669,523.316 245.64,530.284 
			227.575,537.299 205.909,541.259 185.46,540.867 170.378,537.974 155.14,532.668 139.454,524.493 127.853,516.492 
			119.157,508.157 116.734,498.701 		"/>
		
			<path style="fill:none;stroke:#000000;stroke-width:8.5039;stroke-linecap:round;stroke-linejoin:round;stroke-miterlimit:22.9256;" d="
			M169.025,422.325c0,0,2.25,48,0.75,65.625"/>
		
			<path style="fill:none;stroke:#000000;stroke-width:8.5039;stroke-linecap:round;stroke-linejoin:round;stroke-miterlimit:22.9256;" d="
			M209.9,423.825c0,0-0.75,49.5,1.125,60.375"/>
		
			<path style="fill:none;stroke:#000000;stroke-width:8.5039;stroke-linecap:round;stroke-linejoin:round;stroke-miterlimit:22.9256;" d="
			M165.65,487.2c0,0,26.625,14.625,52.875,0"/>
		
			<path style="fill:none;stroke:#000000;stroke-width:8.5039;stroke-linecap:round;stroke-linejoin:round;stroke-miterlimit:22.9256;" d="
			M170.255,477.471c0,0-26.73,3.729-46.23,16.479"/>
		
			<path style="fill:none;stroke:#000000;stroke-width:8.5039;stroke-linecap:round;stroke-linejoin:round;stroke-miterlimit:22.9256;" d="
			M121.775,511.575c0,0-11.773-11.826,2.25-17.625"/>
		
			<path style="fill:none;stroke:#000000;stroke-width:8.5039;stroke-linecap:round;stroke-linejoin:round;stroke-miterlimit:22.9256;" d="
			M281.15,496.575c-7.5,27-85.875,77.625-159.375,15"/>
		
			<path style="fill:none;stroke:#000000;stroke-width:8.5039;stroke-linecap:round;stroke-linejoin:round;stroke-miterlimit:22.9256;" d="
			M178.4,506.325c0,0,15.375,6.75,34.875,0.75"/>
		
			<path style="fill:none;stroke:#000000;stroke-width:8.5039;stroke-linecap:round;stroke-linejoin:round;stroke-miterlimit:22.9256;" d="
			M210.011,471.878c0,0,8.503,0.67,16.413,2.872c0,0,31.816,9.335,43,15.7c0,0,7.226,2.375,11.726,6.125"/>
		
			<path style="fill:none;stroke:#000000;stroke-width:8.5039;stroke-linecap:round;stroke-linejoin:round;stroke-miterlimit:22.9256;" d="
			M169.025,422.325c16.664,2.648,25.125,3.375,40.875,1.5"/>
	</g>
</g>
<g id="n0303">
	<g>
		<g>
			<path style="fill-rule:evenodd;clip-rule:evenodd;fill:#68569D;" d="M159.267,300.777l4.558,8.599c0,0,10.697,0.814,21-1.667
				c10.303-2.48,17.667-7.333,17.667-7.333l-0.272-13.682l-3.586-10.201l-7.57-9.324l-12.678-2.862l-8.352,1.469l-8.447,4.503
				l-4.17,6.64l-0.355,8.77l1.043,6l-0.28,4.688l1.419,4.238C159.2,300.664,159.211,300.742,159.267,300.777z"/>
			
				<path style="fill:none;stroke:#000000;stroke-width:8.5039;stroke-linecap:round;stroke-linejoin:round;stroke-miterlimit:22.9256;" d="
				M157.285,278.318c1.875-14.032,30.006-20.609,38.812-6.188"/>
			
				<path style="fill:none;stroke:#000000;stroke-width:8.5039;stroke-linecap:round;stroke-linejoin:round;stroke-miterlimit:22.9256;" d="
				M165.535,296.505c0,0-11.109,1.527-8.25-18.188"/>
			
				<path style="fill:none;stroke:#000000;stroke-width:8.5039;stroke-linecap:round;stroke-linejoin:round;stroke-miterlimit:22.9256;" d="
				M198.347,291.443c4.576-1.807,6.562-6.188-2.25-19.313"/>
			
				<path style="fill:none;stroke:#000000;stroke-width:8.5039;stroke-linecap:round;stroke-linejoin:round;stroke-miterlimit:22.9256;" d="
				M173.035,283.193c0,0,0.75,12.75-7.5,13.312"/>
			
				<path style="fill:none;stroke:#000000;stroke-width:8.5039;stroke-linecap:round;stroke-linejoin:round;stroke-miterlimit:22.9256;" d="
				M184.472,280.943c0,0,4.5,12.375,13.875,10.5"/>
		</g>
		
			<path style="fill:none;stroke:#000000;stroke-width:8.5039;stroke-linecap:round;stroke-linejoin:round;stroke-miterlimit:22.9256;" d="
			M160.159,296.376c0,0,0.333,13.667,16.667,12c16.333-1.667,20-2.667,22.333-5.333c2.333-2.667,1.01-12.18,1.01-12.18"/>
	</g>
</g>
<g id="n0304">
	<g>
		<path style="fill-rule:evenodd;clip-rule:evenodd;fill:#E085AD;" d="M173.564,309.094c0,0,8.834-5.777,14.344-2.25l8.918-2.067
			l13.004-4.858l15.67-6.943l15.221-7.046l15.604-5.391l14.853-0.63l13.371,5.517l9.647,8.58l8.387,12.599l6.451,19.343
			l0.586,17.419l-3.41,13.916l-6.969,16.598l-9.996,16.324l-11.809,14.299l-11.531,10.934l-19.535,13.938l-25.943,11.733
			l-20.973,3.785l-18.826-0.666l-28.576-5.467l-29.926-10.182l-30.662-17.543l-20.037-18.035l-12.236-18.605l-7.451-19.073
			l-1.752-22.823l4.365-15.064l9.461-13.08l11.658-8.605l16.473-6.307l19.572-1.701l18.154,4.255l18.275,8.069l12.99,6.115
			L173.564,309.094L173.564,309.094z"/>
		<polygon style="fill-rule:evenodd;clip-rule:evenodd;fill:#49B37E;" points="113.828,329.329 113.095,336.374 114.216,344.206 
			119.82,350.872 129.408,350.437 134.437,356.466 141.189,359.331 151.908,355.499 156.874,354.427 159.306,363.315 
			163.179,370.866 168.978,375.706 174.927,377.109 177.048,381.586 170.624,385.26 161.724,393.573 155.251,388.617 
			149.622,387.443 150.783,381.938 142.505,377.614 133.886,378.713 126.585,385.528 121.869,394.503 118.021,401.359 
			104.818,392.252 95.398,381.936 89.63,369.748 88.447,357.709 91.29,346.047 96.699,337.163 103.64,331.174 113.828,329.329 		"/>
		<path style="fill-rule:evenodd;clip-rule:evenodd;fill:#68569D;" d="M200.677,379.03l1.961-3.861l5.738-5.783l2.633-7.605
			l0.531-4.029l7.998,0.968l7.645-2.661l5.162-7.12l4.967,1.715l6.674-0.334l3.838-4.459l1.889-6.16l5.959-3.274l1.84-6.447
			l-1.795-11.449l8.607,0.803l6.127,4.782l4.234,8.354l1.76,7.395l0.662,12.949l-2.035,12.131l-3.773,10.02l-3.379,5.996
			l-4.074-4.833l-7.928-6.851l-7.9-1.721l-8.035,4.003l-4.334,5.06l-0.869,7.378l-5.418,4.332l-3.578,4.299l-8.844-1.866
			l-6.195-6.955l-6.779-3.649C203.964,380.155,200.896,378.597,200.677,379.03L200.677,379.03z"/>
		<polygon style="fill-rule:evenodd;clip-rule:evenodd;fill:#F8D63F;" points="161.312,393.141 170.624,385.26 178.113,381.099 
			186.923,378.375 198.576,378.516 208.378,382.319 217.886,390.751 205.156,394.188 198.453,398.82 192.677,397.702 
			181.423,393.403 170.54,395.755 165.896,398.89 161.312,393.141 		"/>
		<polygon style="fill-rule:evenodd;clip-rule:evenodd;fill:#81CECE;" points="118.021,401.359 121.533,395.438 126.142,386.372 
			132.613,379.454 141.54,377.43 150.783,381.938 149.622,387.443 158.488,391.095 163.605,396.015 166.923,398.196 174.29,394.153 
			185.249,394.13 196.345,400.688 204.095,394.791 216.939,390.759 225.783,392.625 232.07,386.16 235.648,376.616 241.699,368.777 
			253.185,368.085 261.759,373.839 268.445,380.127 261.355,389.401 251.394,398.259 238.947,405.835 224.058,411.874 
			205.736,416.255 186.947,418.037 170.802,417.607 155.919,415.564 141.808,411.962 130.503,407.607 118.021,401.359 		"/>
		<polygon style="fill-rule:evenodd;clip-rule:evenodd;fill:#FFFFFF;" points="182.751,331.094 174.917,334.809 160.904,337.248 
			144.822,336.185 129.218,333.128 113.828,330.329 113.095,337.374 114.216,345.206 120.798,352.204 129.408,351.437 
			134.437,357.466 141.189,360.331 151.908,356.499 156.874,355.427 158.828,362.566 163.179,371.866 170.445,377.293 
			184.882,376.55 199.517,377.414 208.376,370.385 211.275,360.765 219.539,359.718 228.57,355.886 232.345,349.937 
			240.648,351.485 245.906,349.088 249.712,340.698 256.49,336.293 257.511,330.977 256.533,327.249 255.716,319.528 
			245.189,323.323 232.111,329.023 217.285,333.648 203.818,335.733 193.517,335.241 182.751,331.094 		"/>
		
			<path style="fill:none;stroke:#000000;stroke-width:8.5039;stroke-linecap:round;stroke-linejoin:round;stroke-miterlimit:22.9256;" d="
			M253.775,281.3c35.691-11.993,62.195,34.356,55.07,66.606"/>
		
			<path style="fill:none;stroke:#000000;stroke-width:8.5039;stroke-linecap:round;stroke-linejoin:round;stroke-miterlimit:22.9256;" d="
			M181.158,309.1c23.437-3.938,53.117-22.743,72.617-27.8"/>
		
			<path style="fill:none;stroke:#000000;stroke-width:8.5039;stroke-linecap:round;stroke-linejoin:round;stroke-miterlimit:22.9256;" d="
			M272.095,303.282c0,0,18.907,5.818,18.375,23.148"/>
		
			<path style="fill:none;stroke:#000000;stroke-width:8.5039;stroke-linecap:round;stroke-linejoin:round;stroke-miterlimit:22.9256;" d="
			M102.595,313.782c0,0-17.625-1.5-24.75,20.625"/>
		
			<path style="fill:none;stroke:#000000;stroke-width:8.5039;stroke-linecap:round;stroke-linejoin:round;stroke-miterlimit:22.9256;" d="
			M209.376,444c43.875-9,88.313-48.188,99.469-96.094"/>
		
			<path style="fill:none;stroke:#000000;stroke-width:8.5039;stroke-linecap:round;stroke-linejoin:round;stroke-miterlimit:22.9256;" d="
			M168.501,442.5c16.664,2.648,25.125,3.375,40.875,1.5"/>
		
			<path style="fill:none;stroke:#000000;stroke-width:8.5039;stroke-linecap:round;stroke-linejoin:round;stroke-miterlimit:22.9256;" d="
			M54.501,365.25c6.75,16.875,30,61.5,114,77.25"/>
		
			<path style="fill:none;stroke:#000000;stroke-width:8.5039;stroke-linecap:round;stroke-linejoin:round;stroke-miterlimit:22.9256;" d="
			M124.626,290.25c-31.875-10.876-92.736,11.403-70.125,75"/>
		
			<path style="fill:none;stroke:#000000;stroke-width:8.5039;stroke-linecap:round;stroke-linejoin:round;stroke-miterlimit:22.9256;" d="
			M177.048,309.1c-17.719-1.781-26.734-10.412-52.422-18.85"/>
		
			<path style="fill:none;stroke:#000000;stroke-width:8.5039;stroke-linecap:round;stroke-linejoin:round;stroke-miterlimit:22.9256;" d="
			M180.982,315.925c-0.361,7.944,0.551,13.356,1.77,14.169"/>
		
			<path style="fill:none;stroke:#000000;stroke-width:8.5039;stroke-linecap:round;stroke-linejoin:round;stroke-miterlimit:22.9256;" d="
			M112.078,329.308c13.191-0.485,47.424,15.411,70.674,0.786"/>
		
			<path style="fill:none;stroke:#000000;stroke-width:8.5039;stroke-linecap:round;stroke-linejoin:round;stroke-miterlimit:22.9256;" d="
			M246.126,321.844c0,0-42.375,22.5-63.375,8.25"/>
		
			<path style="fill:none;stroke:#000000;stroke-width:8.5039;stroke-linecap:round;stroke-linejoin:round;stroke-miterlimit:22.9256;" d="
			M277.251,349.594c0,0,0.75-43.875-31.125-27.75"/>
		
			<path style="fill:none;stroke:#000000;stroke-width:8.5039;stroke-linecap:round;stroke-linejoin:round;stroke-miterlimit:22.9256;" d="
			M126.126,405.469c52.221,27.271,149.699,11.144,151.125-55.875"/>
		
			<path style="fill:none;stroke:#000000;stroke-width:8.5039;stroke-linecap:round;stroke-linejoin:round;stroke-miterlimit:22.9256;" d="
			M112.078,329.308c-17.25-3.375-49.701,46.911,14.049,76.161"/>
		
			<path style="fill:none;stroke:#000000;stroke-width:8.5039;stroke-linecap:round;stroke-linejoin:round;stroke-miterlimit:22.9256;" d="
			M183.408,345.187c0,0,1.557,22.616,1.475,30.363"/>
		
			<path style="fill:none;stroke:#000000;stroke-width:8.5039;stroke-linecap:round;stroke-linejoin:round;stroke-miterlimit:22.9256;" d="
			M210.783,343.499c0,0,8.418,41.949-25.9,32.051"/>
		
			<path style="fill:none;stroke:#000000;stroke-width:8.5039;stroke-linecap:round;stroke-linejoin:round;stroke-miterlimit:22.9256;" d="
			M155.658,348.374c2.92,14.965,6.326,34.477,29.225,27.176"/>
		
			<path style="fill:none;stroke:#000000;stroke-width:8.5039;stroke-linecap:round;stroke-linejoin:round;stroke-miterlimit:22.9256;" d="
			M211.54,357.75c0,0,15.367,5.438,20.805-8.814"/>
		
			<path style="fill:none;stroke:#000000;stroke-width:8.5039;stroke-linecap:round;stroke-linejoin:round;stroke-miterlimit:22.9256;" d="
			M248.658,339.937c0,0,1.312,16.876-16.312,9"/>
		
			<path style="fill:none;stroke:#000000;stroke-width:8.5039;stroke-linecap:round;stroke-linejoin:round;stroke-miterlimit:22.9256;" d="
			M256.533,326.249c0,0,5.25,11.064-7.875,13.688"/>
		
			<path style="fill:none;stroke:#000000;stroke-width:8.5039;stroke-linecap:round;stroke-linejoin:round;stroke-miterlimit:22.9256;" d="
			M129.408,350.437c0,0,8.25,16.125,22.5,5.062"/>
		
			<path style="fill:none;stroke:#000000;stroke-width:8.5039;stroke-linecap:round;stroke-linejoin:round;stroke-miterlimit:22.9256;" d="
			M113.095,336.374c0,0-0.938,20.062,16.313,14.062"/>
		
			<path style="fill:none;stroke:#000000;stroke-width:8.5039;stroke-linecap:round;stroke-linejoin:round;stroke-miterlimit:22.9256;" d="
			M118.021,393.326c0,0,11.387-26.018,33.887-8.151"/>
		
			<path style="fill:none;stroke:#000000;stroke-width:8.5039;stroke-linecap:round;stroke-linejoin:round;stroke-miterlimit:22.9256;" d="
			M135.97,397.5c0,0,13.125-23.625,30,1.5"/>
		
			<path style="fill:none;stroke:#000000;stroke-width:8.5039;stroke-linecap:round;stroke-linejoin:round;stroke-miterlimit:22.9256;" d="
			M196.345,400.688c0,0-14.812-15.375-30.375-1.688"/>
		
			<path style="fill:none;stroke:#000000;stroke-width:8.5039;stroke-linecap:round;stroke-linejoin:round;stroke-miterlimit:22.9256;" d="
			M225.783,392.625c0,0-12.562-7.688-29.438,8.062"/>
		
			<path style="fill:none;stroke:#000000;stroke-width:8.5039;stroke-linecap:round;stroke-linejoin:round;stroke-miterlimit:22.9256;" d="
			M251.095,386.116c0,0-18.375-16.024-25.312,6.509"/>
		
			<path style="fill:none;stroke:#000000;stroke-width:8.5039;stroke-linecap:round;stroke-linejoin:round;stroke-miterlimit:22.9256;" d="
			M232.72,381.749c0,0,12.154-27.965,31.125-5.625"/>
		
			<path style="fill:none;stroke:#000000;stroke-width:8.5039;stroke-linecap:round;stroke-linejoin:round;stroke-miterlimit:22.9256;" d="
			M161.312,393.141c0,0,28.84-32.691,57.531-2.353"/>
	</g>
</g>
</svg>
