<?xml version="1.0" encoding="utf-8"?>
<!-- Generator: Adobe Illustrator 19.2.1, SVG Export Plug-In . SVG Version: 6.00 Build 0)  -->
<svg version="1.1" xmlns="http://www.w3.org/2000/svg" xmlns:xlink="http://www.w3.org/1999/xlink" x="0px" y="0px"
	 viewBox="0 0 328.743 509.183" style="enable-background:new 0 0 328.743 509.183;" xml:space="preserve">
<g id="n0401">
	<g>
		<g>
			<path style="fill:#49B37E;" d="M40.372,437.81c-2.667-2-15.077-26.37-16.205-56.852c-1.128-30.481,1.128-60.242,0-64.695
				c-1.128-4.453,87.577,49.547,87.577,49.547l159.367-24l5.381,9.439c0,0-5.31,71.44-5.381,75.668
				c-0.071,4.228-2.191,36.227-22.465,38.893c-20.273,2.667-169.103,19.333-199.688,0C18.372,446.477,40.372,437.81,40.372,437.81z"
				/>
			
				<path style="fill:none;stroke:#000000;stroke-width:8.5039;stroke-linecap:round;stroke-linejoin:round;stroke-miterlimit:22.9256;" d="
				M21.865,333.918c0,0-1.715,57.761,12.454,88.255"/>
			
				<path style="fill:none;stroke:#000000;stroke-width:8.5039;stroke-linecap:round;stroke-linejoin:round;stroke-miterlimit:22.9256;" d="
				M276.491,348.918c0,0,1.586,68.708-3.713,77.342"/>
		</g>
		<g>
			<polygon style="fill-rule:evenodd;clip-rule:evenodd;fill:#3F3558;" points="276.489,378.155 283.45,379.083 287.151,384.219 
				286.674,390.908 282.729,397.98 274.807,403.23 275.465,393.122 275.999,384.96 276.489,378.155 			"/>
			<polygon style="fill-rule:evenodd;clip-rule:evenodd;fill:#FFFFFF;" points="156.114,438.918 169.764,460.269 182.739,482.043 
				210.237,469.921 235.008,459.036 259.926,446.241 285.871,434.276 303.114,422.418 296.913,406.087 290.061,384.819 
				285.352,394.019 267.463,406.708 238.364,417.178 215.504,424.171 188.516,431.349 170.597,435.775 156.114,438.918 			"/>
			<polygon style="fill-rule:evenodd;clip-rule:evenodd;fill:#F8D63F;" points="129.864,480.168 140.816,467.645 148.672,454.18 
				156.114,438.918 136.807,434.368 107.152,426.891 77.642,418.379 51.951,409.172 34.32,400.172 29.356,386.852 26.509,377.423 
				20.739,378.168 16.351,389.471 13.254,402.759 9.616,414.555 5.364,423.918 23.507,434.207 42.46,444.675 62.337,454.972 
				85.092,465.376 105.476,473.088 129.864,480.168 			"/>
			<polygon style="fill-rule:evenodd;clip-rule:evenodd;fill:#3F3558;" points="14.436,429.062 12.871,438.527 10.793,446.058 
				16.551,457.284 29.3,466.866 48.65,479.543 66.829,487.701 85.648,494.343 106.154,499.773 125.949,503.262 144.233,504.854 
				156.868,504.931 171.924,503.694 191.948,499.992 214.5,493.536 233.924,486.25 255.137,476.431 271.481,467.205 
				287.147,455.799 293.729,447.954 294.903,442.146 294.018,429.373 281.331,436.79 262.518,446.335 241.62,456.065 
				220.942,465.216 200.236,474.274 182.739,482.043 175.142,469.208 165.903,453.953 156.114,438.918 149.894,451.833 
				143.564,463.274 135.699,474.658 129.864,480.168 105.476,473.088 79.119,462.816 54.411,450.977 34.658,440.421 14.436,429.062 
							"/>
			
				<path style="fill:none;stroke:#000000;stroke-width:8.5039;stroke-linecap:round;stroke-linejoin:round;stroke-miterlimit:22.9256;" d="
				M23.122,377.423c-1.256,35.804,83.867,50.244,132.993,61.494"/>
			
				<path style="fill:none;stroke:#000000;stroke-width:8.5039;stroke-linecap:round;stroke-linejoin:round;stroke-miterlimit:22.9256;" d="
				M284.364,395.793c-5.25,12-83.913,34.074-128.249,43.125"/>
			
				<path style="fill:none;stroke:#000000;stroke-width:8.5039;stroke-linecap:round;stroke-linejoin:round;stroke-miterlimit:22.9256;" d="
				M182.739,482.043c0,0-20.625-35.25-26.624-43.125"/>
			
				<path style="fill:none;stroke:#000000;stroke-width:8.5039;stroke-linecap:round;stroke-linejoin:round;stroke-miterlimit:22.9256;" d="
				M129.864,480.168c0,0,9.375-4.125,26.25-41.25"/>
			
				<path style="fill:none;stroke:#000000;stroke-width:8.5039;stroke-linecap:round;stroke-linejoin:round;stroke-miterlimit:22.9256;" d="
				M21.865,375.484c-6,8.25-6.376,29.684-16.501,48.434"/>
			
				<path style="fill:none;stroke:#000000;stroke-width:8.5039;stroke-linecap:round;stroke-linejoin:round;stroke-miterlimit:22.9256;" d="
				M129.864,480.168c-44.625-10.875-78.695-30.166-124.5-56.25"/>
			
				<path style="fill:none;stroke:#000000;stroke-width:8.5039;stroke-linecap:round;stroke-linejoin:round;stroke-miterlimit:22.9256;" d="
				M303.114,422.418c-16.125,16.125-91.875,46.5-120.375,59.625"/>
			
				<path style="fill:none;stroke:#000000;stroke-width:8.5039;stroke-linecap:round;stroke-linejoin:round;stroke-miterlimit:22.9256;" d="
				M280.979,377.423c0,0,11.26,5.244,3.385,18.369"/>
			
				<path style="fill:none;stroke:#000000;stroke-width:8.5039;stroke-linecap:round;stroke-linejoin:round;stroke-miterlimit:22.9256;" d="
				M303.114,422.418c0,0-9.664-16.577-15.963-38.198"/>
			
				<path style="fill:none;stroke:#000000;stroke-width:8.5039;stroke-linecap:round;stroke-linejoin:round;stroke-miterlimit:22.9256;" d="
				M12.115,451.105c11.318,21.958,81.444,53.759,144.753,53.826c72.746,0.077,132.183-42.244,137.247-57.951"/>
			
				<path style="fill:none;stroke:#000000;stroke-width:8.5039;stroke-linecap:round;stroke-linejoin:round;stroke-miterlimit:22.9256;" d="
				M294.018,429.373c-1.354,9.742,2.469,10.272,0.098,17.607"/>
			
				<path style="fill:none;stroke:#000000;stroke-width:8.5039;stroke-linecap:round;stroke-linejoin:round;stroke-miterlimit:22.9256;" d="
				M12.834,428.168c3.375,12.376-5.184,13.562-0.72,22.938"/>
			
				<path style="fill:none;stroke:#000000;stroke-width:8.5039;stroke-linecap:round;stroke-linejoin:round;stroke-miterlimit:22.9256;" d="
				M156.868,504.931c0,0-0.455-33.974,0.33-52.889"/>
		</g>
	</g>
</g>
<g id="n0402_1_">
	<g>
		<polygon style="fill-rule:evenodd;clip-rule:evenodd;fill:#49B37E;" points="118.524,60.749 125.769,36.675 137.561,20.784 
			155.328,8.517 179.366,4.292 185.76,6.942 187.241,13.667 183.273,28.242 178.637,40.406 172.766,67.157 157.615,63.042 
			137.864,60.733 118.524,60.749 		"/>
		
			<path style="fill:none;stroke:#000000;stroke-width:8.5039;stroke-linecap:round;stroke-linejoin:round;stroke-miterlimit:22.9256;" d="
			M169.616,25.292c0,0-6.375,12.25-12,37.75"/>
		
			<path style="fill:none;stroke:#000000;stroke-width:8.5039;stroke-linecap:round;stroke-linejoin:round;stroke-miterlimit:22.9256;" d="
			M179.366,4.292c4.229,0.92,8.438,1.312,7.875,9.375"/>
		
			<path style="fill:none;stroke:#000000;stroke-width:8.5039;stroke-linecap:round;stroke-linejoin:round;stroke-miterlimit:22.9256;" d="
			M172.766,67.157c3-16.875,13.537-42.241,14.475-53.49"/>
		
			<path style="fill:none;stroke:#000000;stroke-width:8.5039;stroke-linecap:round;stroke-linejoin:round;stroke-miterlimit:22.9256;" d="
			M118.524,60.749c0,0,13.31-58.238,60.841-56.457"/>
	</g>
</g>
<g id="n0403">
	<g>
		<path style="fill-rule:evenodd;clip-rule:evenodd;fill:#E085AD;" d="M113.223,266.181c-1.242,16.184,8.322-10.764,2.848,0
			c-5.474,10.765-7.412,5.092,2.444,13.384c9.856,8.291,28.599,13.499,25.56,30.805c-3.038,17.307-11.508,45.437-34.273,42.148
			c-22.765-3.288-76.882-12.454-76.882-12.454s-18.511-52.458-11.055-79.059C23.108,256.572,114.465,249.998,113.223,266.181z"/>
		<path style="fill-rule:evenodd;clip-rule:evenodd;fill:#3F3558;" d="M276.292,345.708c0,0-138.187,19.718-164.054,8.163
			c-25.867-11.557,82.461-25.643-44.624-89.188c-2.21-1.105,196.876-2.202,196.876-2.202s10.287,11.906,8.287,27.773
			c-2,15.868,3.935,25.756,3.935,25.756L276.292,345.708"/>
		<g>
			<path style="fill-rule:evenodd;clip-rule:evenodd;fill:#F8D63F;" d="M181.602,325.557l-3.524-9.246l6.438-1.347l3.555-3.351
				l-3.278-3.962l-7.659-4.328l-6.499-0.404c0,0-10.013-8.942-36.524,2.658c-4.739,3.149-7.291,8.219-7.291,8.219l-3.24,5.759
				l-4.708,21.165l11.25,1.007l8,1.75l6.283-2.757l7.801-2.09l7.939,1.847l9.423,0.243l6.539-1.493l7.765-0.75L181.602,325.557z"/>
			
				<path style="fill:none;stroke:#000000;stroke-width:8.5039;stroke-linecap:round;stroke-linejoin:round;stroke-miterlimit:22.9256;" d="
				M172.624,301.293c44.636,19.126-21.574,15.562-21.574,15.562"/>
			
				<path style="fill:none;stroke:#000000;stroke-width:8.5039;stroke-linecap:round;stroke-linejoin:round;stroke-miterlimit:22.9256;" d="
				M178.078,316.311c0,0,5.794,9.246,5.794,22.166"/>
			
				<path style="fill:none;stroke:#000000;stroke-width:8.5039;stroke-linecap:round;stroke-linejoin:round;stroke-miterlimit:22.9256;" d="
				M118.872,340.72c0,0,0-26.243,17.777-35.162c0,0,11.855-9.648,35.976-4.266"/>
		</g>
		<g>
			<polygon style="fill-rule:evenodd;clip-rule:evenodd;fill:#F8D63F;" points="12.865,187.667 19.256,188.448 25.085,170.673 
				33.957,151.104 44.242,132.535 55.918,116.282 71.261,107.136 96.487,100.834 128.343,98.444 152.868,98.621 182.436,100.2 
				208.111,109.004 226.727,124.258 235.926,136.216 243.362,149.181 246.908,156.782 252.491,156.917 252.624,138.508 
				249.165,120.105 241.004,102.143 225.848,86.375 208.006,75.243 180.734,62.795 153.025,55.505 124.744,53.461 99.435,56.365 
				76.247,63.615 59.436,73.324 49.556,88.822 46.615,102.167 47.682,108.376 34.406,114.146 20.714,127.919 13.153,144.29 
				10.397,163.014 12.865,187.667 			"/>
			<polygon style="fill-rule:evenodd;clip-rule:evenodd;fill:#E085AD;" points="16.608,256.948 27.762,248.529 39.779,242.729 
				56.502,230.52 71.038,216.508 85.876,195.298 93.026,175.466 93.751,151.457 87.023,132.589 73.334,123.92 53.833,127.213 
				44.242,132.535 31.083,156.928 21.702,180.991 16.488,202.444 15.7,226.156 16.647,240.167 16.608,256.948 			"/>
			<polygon style="fill-rule:evenodd;clip-rule:evenodd;" points="49.052,210.544 57.127,209.223 63.709,209.587 65.926,195.542 
				59.186,186.618 51.619,178.39 60.303,171.505 67.239,168.166 68.364,158.042 64.321,152.835 60.106,152.434 52.457,157.599 
				51.331,166.286 49.478,198.337 49.052,210.544 			"/>
			<path style="fill-rule:evenodd;clip-rule:evenodd;fill:#FFFFFF;" d="M248.372,242.09c0.947-0.183-10.966-4.027-10.966-4.027
				l-11.796-12.062l-10.761-18.974l-5.16-21.07l1.045-13.978l6.644-13.885l11.414-6.432l18.105,5.097l6.012,15.79l6.091,21.524
				l3.134,14.559l2.705,15.703l2.182,16.072L248.372,242.09L248.372,242.09z"/>
			<polygon style="fill-rule:evenodd;clip-rule:evenodd;" points="232.798,216.564 239.031,216.752 243.276,217.205 
				243.301,204.542 234.872,196.901 235.929,191.137 242.926,183.541 243.518,174.368 241.717,168.24 235.291,167.096 
				231.489,173.041 231.369,187.303 232.034,203.787 232.798,216.564 			"/>
			<path style="fill-rule:evenodd;clip-rule:evenodd;fill:#49B37E;" d="M302.096,275.35l-12.215-22.79l-15.639-10.98l-29.034,2.161
				l-29.523,7.529l-29.989,4.893l-29.357,0.816l-29.839-2.199l-26.204-4.413l-25.344-4.896l-24.553-1.645l-18.794,2.996
				l-14.997,10.126l-7.039,10.257l-4.405,13.449l-0.53,17.004l4.968,18.256l12.263,18.004l6.676,6.073l-0.481-4.762l0.481,4.762
				l10.48,9.014l13.804,7.157l33.839,11.715l22.866,6.427l23.143,5.874l24.315,5.729l23.51-5.258l32.25-8.379l33.832-10.348
				l27.072-10.674l2.838-2.331l0,0h3.881h-3.881l10.002-8.207l9.533-11.987l6.797-15.728l2.26-19.581L302.096,275.35z
				 M254.909,325.406c-20.913,10.406-38.679,25.792-104.608,23.599c-65.929-2.193-108.596-34.213-108.596-34.213
				s-14.791-16.726-6.062-34.02c8.729-17.294,21.731-14.825,34.729-9.224s54.589,15.622,86.596,14.36
				c32.007-1.262,83.186-8.993,92.795-14.712c9.609-5.719,18.62,5.832,19.95,13.116C271.042,291.597,275.822,315,254.909,325.406z"
				/>
			<polygon style="fill-rule:evenodd;clip-rule:evenodd;fill:#3F3558;" points="44.242,133.005 51.732,121.175 62.4,111.972 
				80.774,104.475 96.487,101.304 112.415,100.109 136.552,98.974 160.554,99.502 182.436,100.671 198.382,104.728 211.853,112.54 
				222.813,121.521 234.843,135.278 242.948,148.828 246.897,157.23 231.987,151.905 219.704,156.253 212.866,167.994 
				209.567,183.557 212.365,200.525 217.944,214.205 226.915,227.805 235.073,236.148 248.372,242.56 230.447,247.976 
				209.426,253.196 182.079,256.907 157.364,257.421 130.925,255.577 105.352,251.689 79.491,246.707 57.418,244.23 39.779,243.199 
				51.662,234.881 65.622,222.687 76.963,209.788 86.911,193.703 93.026,175.936 94.405,158.615 91.131,141.076 84.292,129.88 
				72,124.206 60.143,125.383 52.041,128.535 44.242,133.005 			"/>
			<polygon style="fill-rule:evenodd;clip-rule:evenodd;fill:#FFFFFF;" points="58.988,269.537 58.349,277.06 59.684,285.932 
				66.84,291.135 74.451,294.44 82.95,294.711 90.419,292.36 95.418,298.014 103.752,301.54 112.213,298.929 116.544,297.029 
				124.516,302.601 134.11,305.578 143.982,303.428 150.301,299.792 156.118,303.691 164.074,305.328 171.629,302.168 
				176.176,296.979 182.975,300.787 192.342,303.73 201.198,301.901 206.413,295.61 214.698,301.304 222.358,302.234 
				230.17,295.125 237.778,293.326 244.717,288.634 246.006,280.796 244.813,271.818 233.815,274.841 221.763,278.294 
				206.034,281.884 190.85,284.403 177.477,285.876 167.333,286.54 151.952,286.812 130.931,285.766 111.072,283.265 
				92.828,279.609 79.959,276.161 58.988,269.537 			"/>
			<path style="fill-rule:evenodd;clip-rule:evenodd;fill:#FFFFFF;" d="M51.737,321.139l3.827-6.772l6.637-8.36l8.619-3.721
				l8.274,6.77l2.143,4.436l7.404,3.451l4.096,5.162l10.143-1.454l8.709,8.065l11.067-3.292l10.596,3.743l6.078,4.629l11.322-5.529
				l10.847,1.067l6.306,5.455l9.351-6.265l12.551,2.403c0,0,3.582,4.085,2.906,3.564c-0.678-0.523,9.998-7.695,9.998-7.695
				l11.252,1.496l6.43-9.611l5.945-2.014l5.23-7.637l6.582-2.676l5.223-5.652l7.455-0.592l5.732,7.003l6.197,10.909l-8.534,7.444
				l-14.567,8.053l-16.57,6.027l-15.98,4.017l-19.199,3.202l-19.864,1.815l-17.046,0.41l-18.75-0.925l-21.131-2.886L89.1,339.764
				l-17.248-6.579l-11.457-6.052L51.737,321.139L51.737,321.139z"/>
			
				<path style="fill:none;stroke:#000000;stroke-width:8.5039;stroke-linecap:round;stroke-linejoin:round;stroke-miterlimit:22.9256;" d="
				M21.865,333.918c-27.75-28.125-22.125-77.626,12.75-88.126"/>
			
				<path style="fill:none;stroke:#000000;stroke-width:8.5039;stroke-linecap:round;stroke-linejoin:round;stroke-miterlimit:22.9256;" d="
				M276.491,348.918c-19.404,13.988-64.379,34.955-126.004,31.703c-40.798-2.153-97.103-15.335-128.621-46.703"/>
			
				<path style="fill:none;stroke:#000000;stroke-width:8.5039;stroke-linecap:round;stroke-linejoin:round;stroke-miterlimit:22.9256;" d="
				M264.491,240.542c34.125-3.75,65.25,72.001,12,108.376"/>
			
				<path style="fill:none;stroke:#000000;stroke-width:8.5039;stroke-linecap:round;stroke-linejoin:round;stroke-miterlimit:22.9256;" d="
				M34.615,245.792c40.5-8.25,63.891,10.874,126.375,11.251c62.482,0.376,71.916-16.623,103.5-16.501"/>
			
				<path style="fill:none;stroke:#000000;stroke-width:8.5039;stroke-linecap:round;stroke-linejoin:round;stroke-miterlimit:22.9256;" d="
				M94.48,245.792c-7.108-21.476,10.635-58.125,88.261-37.5"/>
			
				<path style="fill:none;stroke:#000000;stroke-width:8.5039;stroke-linecap:round;stroke-linejoin:round;stroke-miterlimit:22.9256;" d="
				M120.705,106.477c8.626,6.75,26.581,48.852,9.938,94.51"/>
			
				<path style="fill:none;stroke:#000000;stroke-width:8.5039;stroke-linecap:round;stroke-linejoin:round;stroke-miterlimit:22.9256;" d="
				M48.115,126.167c12-22.125,47.25-35.625,168.75-22.875"/>
			
				<path style="fill:none;stroke:#000000;stroke-width:8.5039;stroke-linecap:round;stroke-linejoin:round;stroke-miterlimit:22.9256;" d="
				M86.705,100.292c0,0,12.41-18.375,50.285-25.5"/>
			
				<path style="fill:none;stroke:#000000;stroke-width:8.5039;stroke-linecap:round;stroke-linejoin:round;stroke-miterlimit:22.9256;" d="
				M64.548,106.477c0,0-2.176-22.685,31.567-32.81"/>
			
				<path style="fill:none;stroke:#000000;stroke-width:8.5039;stroke-linecap:round;stroke-linejoin:round;stroke-miterlimit:22.9256;" d="
				M72.49,65.417c0,0,70.5-39,157.125,23.625"/>
			
				<path style="fill:none;stroke:#000000;stroke-width:8.5039;stroke-linecap:round;stroke-linejoin:round;stroke-miterlimit:22.9256;" d="
				M252.491,156.917c0,0,6-43.125-22.875-67.875"/>
			
				<path style="fill:none;stroke:#000000;stroke-width:8.5039;stroke-linecap:round;stroke-linejoin:round;stroke-miterlimit:22.9256;" d="
				M46.615,106.477c0,0,1.114-32.483,25.875-41.06"/>
			
				<path style="fill:none;stroke:#000000;stroke-width:8.5039;stroke-linecap:round;stroke-linejoin:round;stroke-miterlimit:22.9256;" d="
				M46.615,110.477c-17.84-1.327-45.661,23.576-32.91,84.326"/>
			
				<path style="fill:none;stroke:#000000;stroke-width:8.5039;stroke-linecap:round;stroke-linejoin:round;stroke-miterlimit:22.9256;" d="
				M46.615,145.232c0,0,12.814-13.416,29.531-2.66"/>
			
				<path style="fill:none;stroke:#000000;stroke-width:8.5039;stroke-linecap:round;stroke-linejoin:round;stroke-miterlimit:22.9256;" d="
				M209.689,146.758c6.637-11.654,19.879-11.642,28.75-6"/>
			
				<path style="fill:none;stroke:#000000;stroke-width:8.5039;stroke-linecap:round;stroke-linejoin:round;stroke-miterlimit:22.9256;" d="
				M186.116,100.475c40.125,9,69.651,45.768,80.904,139.933"/>
			
				<path style="fill:none;stroke:#000000;stroke-width:8.5039;stroke-linecap:round;stroke-linejoin:round;stroke-miterlimit:22.9256;" d="
				M16.608,256.948c3-31.875-15.441-55.15,31.507-130.781"/>
			
				<path style="fill:none;stroke:#000000;stroke-width:8.5039;stroke-linecap:round;stroke-linejoin:round;stroke-miterlimit:22.9256;" d="
				M43.011,134.618c3.498-5.842,45.765-30.143,51.136,19.955"/>
			
				<path style="fill:none;stroke:#000000;stroke-width:8.5039;stroke-linecap:round;stroke-linejoin:round;stroke-miterlimit:22.9256;" d="
				M34.615,245.792c0,0,65.062-34.688,59.531-91.219"/>
			
				<path style="fill:none;stroke:#000000;stroke-width:8.5039;stroke-linecap:round;stroke-linejoin:round;stroke-miterlimit:22.9256;" d="
				M39.021,214.948c0,0,13.124-9,28.5-4.5"/>
			
				<path style="fill:none;stroke:#000000;stroke-width:8.5039;stroke-linecap:round;stroke-linejoin:round;stroke-miterlimit:22.9256;" d="
				M249.319,241.907c-16.322,4.316-55.025-49.741-33.297-82.085"/>
			
				<path style="fill:none;stroke:#000000;stroke-width:8.5039;stroke-linecap:round;stroke-linejoin:round;stroke-miterlimit:22.9256;" d="
				M246.908,156.782c-0.956-2.157-19.823-12.449-30.886,3.04"/>
			
				<path style="fill:none;stroke:#000000;stroke-width:8.5039;stroke-linecap:round;stroke-linejoin:round;stroke-miterlimit:22.9256;" d="
				M107.178,389.418c0,0,54,18.058,108,0.75"/>
			
				<path style="fill:none;stroke:#000000;stroke-width:8.5039;stroke-linecap:round;stroke-linejoin:round;stroke-miterlimit:22.9256;" d="
				M183.303,232.667c0,0,1.875,9,11.625,9.375"/>
			
				<path style="fill:none;stroke:#000000;stroke-width:8.5039;stroke-linecap:round;stroke-linejoin:round;stroke-miterlimit:22.9256;" d="
				M115.803,231.167c0,0,3.75,11.625-6,12"/>
			
				<path style="fill:none;stroke:#000000;stroke-width:8.5039;stroke-linecap:round;stroke-linejoin:round;stroke-miterlimit:22.9256;" d="
				M183.303,232.667c0,0,15.75-1.125,11.625,9.375"/>
			
				<path style="fill:none;stroke:#000000;stroke-width:8.5039;stroke-linecap:round;stroke-linejoin:round;stroke-miterlimit:22.9256;" d="
				M115.803,231.167c0,0-13.126,7.875-6,12"/>
			
				<path style="fill:none;stroke:#000000;stroke-width:8.5039;stroke-linecap:round;stroke-linejoin:round;stroke-miterlimit:22.9256;" d="
				M225.301,216.917c0,0,18.375-1.875,27,3"/>
			
				<path style="fill:none;stroke:#000000;stroke-width:8.5039;stroke-linecap:round;stroke-linejoin:round;stroke-miterlimit:22.9256;" d="
				M231.489,173.041c-0.188-6.375,10.5-10.875,12-0.188"/>
			
				<path style="fill:none;stroke:#000000;stroke-width:8.5039;stroke-linecap:round;stroke-linejoin:round;stroke-miterlimit:22.9256;" d="
				M232.798,216.564c0,0-2.205-31.715-1.31-43.523"/>
			
				<path style="fill:none;stroke:#000000;stroke-width:8.5039;stroke-linecap:round;stroke-linejoin:round;stroke-miterlimit:22.9256;" d="
				M242.926,183.541c0,0,0.75-4.312,0.562-10.688"/>
			
				<path style="fill:none;stroke:#000000;stroke-width:8.5039;stroke-linecap:round;stroke-linejoin:round;stroke-miterlimit:22.9256;" d="
				M231.616,194.816c0,0,11.023-8.998,11.311-11.275"/>
			
				<path style="fill:none;stroke:#000000;stroke-width:8.5039;stroke-linecap:round;stroke-linejoin:round;stroke-miterlimit:22.9256;" d="
				M243.301,204.542c0,0,0.646,10.122-0.025,12.663"/>
			
				<path style="fill:none;stroke:#000000;stroke-width:8.5039;stroke-linecap:round;stroke-linejoin:round;stroke-miterlimit:22.9256;" d="
				M231.616,194.816c0,0,7.561,4.288,11.686,9.726"/>
			
				<path style="fill:none;stroke:#000000;stroke-width:8.5039;stroke-linecap:round;stroke-linejoin:round;stroke-miterlimit:22.9256;" d="
				M52.239,159.166c0-8.062,16.125-9.562,16.125-1.125"/>
			
				<path style="fill:none;stroke:#000000;stroke-width:8.5039;stroke-linecap:round;stroke-linejoin:round;stroke-miterlimit:22.9256;" d="
				M49.052,210.544c0,0,1.147-40.296,3.199-51.743"/>
			
				<path style="fill:none;stroke:#000000;stroke-width:8.5039;stroke-linecap:round;stroke-linejoin:round;stroke-miterlimit:22.9256;" d="
				M67.239,168.166c0,0,0.937-5.437,1.125-10.125"/>
			
				<path style="fill:none;stroke:#000000;stroke-width:8.5039;stroke-linecap:round;stroke-linejoin:round;stroke-miterlimit:22.9256;" d="
				M51.619,178.39c0,0,7.745-7.787,15.62-10.224"/>
			
				<path style="fill:none;stroke:#000000;stroke-width:8.5039;stroke-linecap:round;stroke-linejoin:round;stroke-miterlimit:22.9256;" d="
				M65.926,195.542c0,0-7.614-11.052-14.307-17.151"/>
			
				<path style="fill:none;stroke:#000000;stroke-width:8.5039;stroke-linecap:round;stroke-linejoin:round;stroke-miterlimit:22.9256;" d="
				M63.709,209.587c0,0,1.842-4.858,2.217-14.046"/>
			
				<path style="fill:none;stroke:#000000;stroke-width:8.5039;stroke-linecap:round;stroke-linejoin:round;stroke-miterlimit:22.9256;" d="
				M65.644,271.197c0,0,78.188,33.75,173.063,2.062"/>
			
				<path style="fill:none;stroke:#000000;stroke-width:8.5039;stroke-linecap:round;stroke-linejoin:round;stroke-miterlimit:22.9256;" d="
				M263.27,317.322c12-13.124,14.625-55.875-24.562-44.062"/>
			
				<path style="fill:none;stroke:#000000;stroke-width:8.5039;stroke-linecap:round;stroke-linejoin:round;stroke-miterlimit:22.9256;" d="
				M65.644,271.197c-18.375-8.25-53.25,13.689-16.688,47.626"/>
			
				<path style="fill:none;stroke:#000000;stroke-width:8.5039;stroke-linecap:round;stroke-linejoin:round;stroke-miterlimit:22.9256;" d="
				M263.27,317.322c-15.918,18.694-56.998,29.687-99.572,31.468c-47.11,1.971-91.736-9.774-114.741-29.967"/>
			
				<path style="fill:none;stroke:#000000;stroke-width:8.5039;stroke-linecap:round;stroke-linejoin:round;stroke-miterlimit:22.9256;" d="
				M150.301,299.792c0,0,14.626,14.25,25.876-2.812"/>
			
				<path style="fill:none;stroke:#000000;stroke-width:8.5039;stroke-linecap:round;stroke-linejoin:round;stroke-miterlimit:22.9256;" d="
				M205.801,295.104c0,0-12.43,19.688-29.625,1.875"/>
			
				<path style="fill:none;stroke:#000000;stroke-width:8.5039;stroke-linecap:round;stroke-linejoin:round;stroke-miterlimit:22.9256;" d="
				M231.369,286.404c0,0-5.13,23.723-25.567,8.7"/>
			
				<path style="fill:none;stroke:#000000;stroke-width:8.5039;stroke-linecap:round;stroke-linejoin:round;stroke-miterlimit:22.9256;" d="
				M230.881,293.698c0,0,18.423-0.28,15.235-17.53"/>
			
				<path style="fill:none;stroke:#000000;stroke-width:8.5039;stroke-linecap:round;stroke-linejoin:round;stroke-miterlimit:22.9256;" d="
				M238.051,306.354c0,0,10.594-15.188,23.422,8.438"/>
			
				<path style="fill:none;stroke:#000000;stroke-width:8.5039;stroke-linecap:round;stroke-linejoin:round;stroke-miterlimit:22.9256;" d="
				M226.239,316.667c0,0,6.56-20.625,22.406,0.655"/>
			
				<path style="fill:none;stroke:#000000;stroke-width:8.5039;stroke-linecap:round;stroke-linejoin:round;stroke-miterlimit:22.9256;" d="
				M213.864,328.292c0,0,6.175-22.733,22.602-5.693"/>
			
				<path style="fill:none;stroke:#000000;stroke-width:8.5039;stroke-linecap:round;stroke-linejoin:round;stroke-miterlimit:22.9256;" d="
				M115.613,296.042c0,0,15.937,18.75,34.687,3.75"/>
			
				<path style="fill:none;stroke:#000000;stroke-width:8.5039;stroke-linecap:round;stroke-linejoin:round;stroke-miterlimit:22.9256;" d="
				M89.363,291.167c0,0,11.626,19.688,26.25,4.875"/>
			
				<path style="fill:none;stroke:#000000;stroke-width:8.5039;stroke-linecap:round;stroke-linejoin:round;stroke-miterlimit:22.9256;" d="
				M71.943,284.313c0,0,1.507,20.124,18.75,9.189"/>
			
				<path style="fill:none;stroke:#000000;stroke-width:8.5039;stroke-linecap:round;stroke-linejoin:round;stroke-miterlimit:22.9256;" d="
				M58.277,271.548c0,0-5.006,23.114,14.307,20.761"/>
			
				<path style="fill:none;stroke:#000000;stroke-width:8.5039;stroke-linecap:round;stroke-linejoin:round;stroke-miterlimit:22.9256;" d="
				M53.271,317.168c0,0,16.78-29.003,28.029-4.627"/>
			
				<path style="fill:none;stroke:#000000;stroke-width:8.5039;stroke-linecap:round;stroke-linejoin:round;stroke-miterlimit:22.9256;" d="
				M70.372,322.013c0,0,10.929-19.449,22.367-2.707"/>
			
				<path style="fill:none;stroke:#000000;stroke-width:8.5039;stroke-linecap:round;stroke-linejoin:round;stroke-miterlimit:22.9256;" d="
				M86.039,327.715c0,0,13.262-20.237,26.2,2.075"/>
			
				<path style="fill:none;stroke:#000000;stroke-width:8.5039;stroke-linecap:round;stroke-linejoin:round;stroke-miterlimit:22.9256;" d="
				M138.301,334.667c0,0-10.552-17.054-26.062-4.876"/>
			
				<path style="fill:none;stroke:#000000;stroke-width:8.5039;stroke-linecap:round;stroke-linejoin:round;stroke-miterlimit:22.9256;" d="
				M168.114,335.229c0,0-10.876-17.064-29.813-0.562"/>
			
				<path style="fill:none;stroke:#000000;stroke-width:8.5039;stroke-linecap:round;stroke-linejoin:round;stroke-miterlimit:22.9256;" d="
				M191.551,334.479c0,0-8.062-15.75-23.438,0.75"/>
			
				<path style="fill:none;stroke:#000000;stroke-width:8.5039;stroke-linecap:round;stroke-linejoin:round;stroke-miterlimit:22.9256;" d="
				M213.864,328.292c0,0-12.492-11.123-22.312,6.188"/>
		</g>
	</g>
</g>
<g id="n0404">
	<g>
		
			<path style="fill:none;stroke:#000000;stroke-width:8.5039;stroke-linecap:round;stroke-linejoin:round;stroke-miterlimit:22.9256;" d="
			M314.553,82.105c5.488,0,9.938,4.449,9.938,9.938c0,5.488-4.449,9.937-9.938,9.937c-5.488,0-9.938-4.449-9.938-9.937
			C304.616,86.554,309.065,82.105,314.553,82.105L314.553,82.105z"/>
		
			<path style="fill:none;stroke:#000000;stroke-width:8.5041;stroke-linecap:round;stroke-linejoin:round;stroke-miterlimit:22.9256;" d="
			M288.397,156.355c9.785,0,17.719,7.933,17.719,17.718c0,9.786-7.934,17.719-17.719,17.719c-9.785,0-17.719-7.933-17.719-17.719
			C270.678,164.288,278.612,156.355,288.397,156.355L288.397,156.355z"/>
		
			<path style="fill:#FFFFFF;stroke:#000000;stroke-width:8.5039;stroke-linecap:round;stroke-linejoin:round;stroke-miterlimit:22.9256;" d="
			M296.928,200.23c4.246,0,7.688,3.442,7.688,7.687c0,4.246-3.441,7.688-7.688,7.688s-7.688-3.442-7.688-7.688
			C289.241,203.672,292.682,200.23,296.928,200.23L296.928,200.23z"/>
	</g>
</g>
</svg>
