<?xml version="1.0" encoding="utf-8"?>
<!-- Generator: Adobe Illustrator 19.2.1, SVG Export Plug-In . SVG Version: 6.00 Build 0)  -->
<svg version="1.1" xmlns="http://www.w3.org/2000/svg" xmlns:xlink="http://www.w3.org/1999/xlink" x="0px" y="0px"
	 viewBox="0 0 422.747 467.413" style="enable-background:new 0 0 422.747 467.413;" xml:space="preserve">
<g id="n0501">
	<g>
		<polygon style="fill-rule:evenodd;clip-rule:evenodd;fill:#68569D;" points="156.631,358.392 147.351,361.992 141.261,370.879 
			142.993,384.091 128.345,393.214 114.33,401.308 102.261,411.379 113.38,424.72 129.418,438.17 147.822,448.704 169.28,456.65 
			190.915,461.226 213.475,463.121 238.922,461.475 260.596,455.66 281.103,444.821 296.288,432.16 306.84,420.3 316.387,406.879 
			307.311,398.197 296.491,392.658 281.724,384.322 283.762,381.754 277.299,370.326 269.276,358.325 265.387,353.254 
			258.329,364.151 244.207,375.441 228.587,382.895 223.012,384.754 216.791,392.887 212.893,402.745 205.011,414.379 
			198.965,407.874 196.275,398.087 190.761,388.504 180.768,386.381 169.464,380.707 160.139,372.676 156.975,366.965 
			156.631,358.392 		"/>
		<polygon style="fill-rule:evenodd;clip-rule:evenodd;fill:#49B37E;" points="154.499,290.646 170.516,293.818 187.963,296.093 
			206.035,297.075 227.053,296.1 244.201,293.1 257.964,288.697 258.366,307.152 259.164,347.389 261.369,359.457 251.268,369.795 
			240.074,377.414 228.587,382.895 220.914,386.082 216.791,392.887 212.893,402.745 205.011,414.379 198.965,407.874 
			196.275,398.087 190.761,388.504 177.128,384.949 164.802,376.691 157.011,369.004 156.528,356.223 155.755,343.825 
			155.132,301.793 154.499,290.646 		"/>
		
			<path style="fill:none;stroke:#000000;stroke-width:8.5039;stroke-linecap:round;stroke-linejoin:round;stroke-miterlimit:22.9256;" d="
			M154.499,290.646c0,0,2.512,71.233,2.512,78.358"/>
		
			<path style="fill:none;stroke:#000000;stroke-width:8.5039;stroke-linecap:round;stroke-linejoin:round;stroke-miterlimit:22.9256;" d="
			M257.964,288.697c0,0-0.073,64.565,3.677,71.315"/>
		
			<path style="fill:none;stroke:#000000;stroke-width:8.5039;stroke-linecap:round;stroke-linejoin:round;stroke-miterlimit:22.9256;" d="
			M223.012,384.754c0,0,33-9,42.375-31.5"/>
		
			<path style="fill:none;stroke:#000000;stroke-width:8.5039;stroke-linecap:round;stroke-linejoin:round;stroke-miterlimit:22.9256;" d="
			M283.762,381.754c0,0-7.5-15-18.375-28.5"/>
		
			<path style="fill:none;stroke:#000000;stroke-width:8.5039;stroke-linecap:round;stroke-linejoin:round;stroke-miterlimit:22.9256;" d="
			M151.79,360.27c0,0-9.722,8.359-13.097,18.484"/>
		
			<path style="fill:none;stroke:#000000;stroke-width:8.5039;stroke-linecap:round;stroke-linejoin:round;stroke-miterlimit:22.9256;" d="
			M164.886,427.129c0,0-23.943-12-26.193-48.375"/>
		
			<path style="fill:none;stroke:#000000;stroke-width:8.5039;stroke-linecap:round;stroke-linejoin:round;stroke-miterlimit:22.9256;" d="
			M245.512,423.004c0,0,22.124-20.625,38.25-41.25"/>
		
			<path style="fill:none;stroke:#000000;stroke-width:8.5039;stroke-linecap:round;stroke-linejoin:round;stroke-miterlimit:22.9256;" d="
			M190.761,388.504c0,0-18.751-0.376-33.751-19.5"/>
		
			<path style="fill:none;stroke:#000000;stroke-width:8.5039;stroke-linecap:round;stroke-linejoin:round;stroke-miterlimit:22.9256;" d="
			M205.011,414.379c9-5.625,10.551-27.047,18-29.625"/>
		
			<path style="fill:none;stroke:#000000;stroke-width:8.5039;stroke-linecap:round;stroke-linejoin:round;stroke-miterlimit:22.9256;" d="
			M190.761,388.504c8.999,7.875,3.75,20.625,14.25,25.875"/>
		
			<path style="fill:none;stroke:#000000;stroke-width:8.5039;stroke-linecap:round;stroke-linejoin:round;stroke-miterlimit:22.9256;" d="
			M205.386,462.754c0,0,2.25-43.126-0.375-48.375"/>
		
			<path style="fill:none;stroke:#000000;stroke-width:8.5039;stroke-linecap:round;stroke-linejoin:round;stroke-miterlimit:22.9256;" d="
			M102.261,411.379c17.25,24.75,50.34,47.784,103.126,51.375c50.295,3.422,84.574-14.722,111-55.875"/>
		
			<path style="fill:none;stroke:#000000;stroke-width:8.5039;stroke-linecap:round;stroke-linejoin:round;stroke-miterlimit:22.9256;" d="
			M138.693,384.754c-8.625,12.75-25.182,13.125-36.432,26.625"/>
		
			<path style="fill:none;stroke:#000000;stroke-width:8.5039;stroke-linecap:round;stroke-linejoin:round;stroke-miterlimit:22.9256;" d="
			M281.724,384.322c12.376,9.75,25.288,9.433,34.663,22.558"/>
		
			<path style="fill:none;stroke:#000000;stroke-width:8.5039;stroke-linecap:round;stroke-linejoin:round;stroke-miterlimit:22.9256;" d="
			M190.761,388.504c-16.875,14.625-12.375,33.375-25.875,38.625"/>
		
			<path style="fill:none;stroke:#000000;stroke-width:8.5039;stroke-linecap:round;stroke-linejoin:round;stroke-miterlimit:22.9256;" d="
			M223.012,384.754c18.375,19.125,9.374,34.125,22.5,38.25"/>
		<path style="fill-rule:evenodd;clip-rule:evenodd;" d="M190.385,420.815c2.349,0,4.252,1.903,4.252,4.252
			c0,2.349-1.903,4.252-4.252,4.252c-2.348,0-4.252-1.903-4.252-4.252C186.133,422.718,188.037,420.815,190.385,420.815
			L190.385,420.815z"/>
	</g>
</g>
<g id="n0502">
	<g>
		<path style="fill:#E085AD;" d="M91.626,205.785c0,0,2.711,60.823,9.511,71.531c6.8,10.708,33.173,31.669,50.653,36.189
			c17.48,4.52,42.848,5.792,42.848,5.792l-0.878-86.655L91.626,205.785z"/>
		<path style="fill:#68569D;" d="M295.762,207.754c0,0,5.159,48.284,0,59.943c-5.159,11.659-35.008,45.954-72.75,45.807
			c-37.742-0.147-28.374,5.792-28.374,5.792l-0.878-86.655L295.762,207.754z"/>
		<g>
			<polygon style="fill-rule:evenodd;clip-rule:evenodd;fill:#F8D53F;" points="210.77,289.862 211.309,280.605 210.638,268.398 
				210.96,259.524 205.843,253.839 197.338,254.478 191.753,262.306 191.221,271.276 192.016,277.551 191.221,286.907 
				205.034,289.862 			"/>
			
				<path style="fill:none;stroke:#000000;stroke-width:8.5039;stroke-linecap:round;stroke-linejoin:round;stroke-miterlimit:22.9256;" d="
				M191.008,284.063c2.032-9.16-3.987-21.848,6.33-29.585c0,0,12.311-3.241,14.453,4.878c3.95,14.965-9.598,10.749-9.598,10.749"/>
			
				<path style="fill:none;stroke:#000000;stroke-width:8.5039;stroke-linecap:round;stroke-linejoin:round;stroke-miterlimit:22.9256;" d="
				M209.949,269.223c0,0,2.041,15.135,1.571,17.684"/>
		</g>
		<g>
			<polygon style="fill-rule:evenodd;clip-rule:evenodd;fill:#68569D;" points="94.733,78.653 120.03,67.971 146.324,63.021 
				172.153,63.577 198.782,67.039 227.715,68.369 248.7,67.114 265.961,65.832 285.968,67.908 305.739,75.097 321.005,83.89 
				329.485,89.903 340.283,80.517 340.685,73.306 343.407,64.235 342.253,53.87 335.826,47.888 325.974,45.85 317.438,37.093 
				306.358,32.632 288.897,20.254 265.786,13.096 245.349,11.898 237.046,14.153 227.065,6.722 211.724,4.528 198.314,9.652 
				192.796,15.278 180.911,9.998 163.63,10.267 154.906,14.164 148.285,19.337 125.244,16.685 106.015,22.284 92.027,30.888 
				84.01,39.251 78.712,52.936 82.137,68.116 94.733,78.653 			"/>
			<path style="fill-rule:evenodd;clip-rule:evenodd;fill:#F8D63F;" d="M298.97,224.004l-16.302-12.122l-26.063-3.345l-23.477,3.856
				l-22.051,2.854l-3.308-0.558l-7-0.5l-5.5-3.5l-7.5-9.5l-10.916-7.121l3.006-4.04l-0.665-18.507l-2.184-24.261l-4.13-24.353
				l-5.368-19.289l-10.094-15.534L138.876,79l-18.43,0.961l-14.462,5.067l-6.75-1.5l-10.501-9.633l-9.708-7.843l-17.623-8.634
				l-17.677-4.028l-20.665,2.28l3.046,4.981l7.35,6.695l7.209,9.066l7.175,11.192l4.747,11.156l-1.6,3.703l-9.797,2.788
				l-6.788,9.293l1.316,11.205l4.461,9.985l7.488,11.354l-2.525,3.948l4.406,7.572l6.557,8.917l-7.305,2.268l4.684,9.101
				l6.303,6.829l4.056,8.054l0.889,10.499l6.15,11.907l8.113,10.589l8.445,9.907l6.917,11.847l0.436,17.76l5.379,13.621
				l12.472,13.853l17.307,11.443l18.781,7.823l16.371,3.727l22.195,3.53l27.684,1.018l29.769-3.322l22.857-7.953l20.711-14.892
				l13.58-17.544l5.547-14.73l0.861-19.079L298.97,224.004z M286.36,273.84c-8.492,9.874-32.992,27.753-66.492,30.189
				c-33.5,2.435-86.205-10.315-104.511-33.751c0,0-8.261-38.03,22.5-37.047c30.761,0.983,44.016,7.505,62.627,7.024
				c18.612-0.48,71.987-15.783,80.435-8.287C289.368,239.464,294.853,263.966,286.36,273.84z"/>
			<polygon style="fill-rule:evenodd;clip-rule:evenodd;" points="105.468,186.597 115.322,184.189 129.444,183.396 
				138.524,183.558 137.857,170.528 128.951,165.184 120.045,159.84 127.779,152.723 137.857,144.548 136.17,139.215 
				132.001,130.749 118.394,127.946 110.798,132.163 106.17,140.715 105.319,153.107 105.638,163.656 105.173,174.916 
				105.468,186.597 			"/>
			<polygon style="fill-rule:evenodd;clip-rule:evenodd;fill:#FFFFFF;" points="62.594,203.429 63.868,194.032 59.79,185.725 
				52.227,177.126 48.42,168.465 55.087,166.301 48.594,157.099 44.107,148.965 47.451,146.759 40.182,135.736 35.099,123.635 
				34.882,112.544 41.192,105.252 52.92,102.277 49.051,90.447 42.797,79.462 35.869,70.38 26.107,60.652 23.061,55.671 
				11.802,63.451 6.03,77.435 4.422,94.379 4.484,110.097 7.59,132.413 13.428,150.84 21.384,166.444 31.225,179.835 
				42.282,190.723 50.647,196.967 62.594,203.429 			"/>
			<polygon style="fill-rule:evenodd;clip-rule:evenodd;fill:#FFFFFF;" points="133.686,233.581 135.088,243.28 140.357,250.002 
				148.92,251.153 153.699,250.05 160.676,252.887 169.357,249.278 176.024,253.232 185.426,255.557 193.852,253.241 
				196.357,251.153 203.589,256.293 214.22,257.181 222.116,253.633 225.232,251.153 232.343,255.267 239.54,254.51 
				244.732,249.465 251.807,251.249 257.163,248.124 263.812,251.07 270.282,245.681 271.64,238.917 271.766,229.333 
				261.923,230.183 248.65,234.643 233.227,238.081 219.097,239.775 204.384,240.372 188.126,239.883 173.001,238.477 
				156.36,235.915 144.385,233.598 133.686,233.581 			"/>
			<polygon style="fill-rule:evenodd;clip-rule:evenodd;fill:#81CECE;" points="134.454,287.246 137.712,280.501 143.356,272.812 
				150.839,269.05 156.977,271.008 163.67,276.653 171.62,277.857 179.67,283.965 188.272,279.928 198.223,280.875 206.67,287.715 
				213.623,283.442 224.54,280.436 235.683,281.832 242.735,277.52 252.304,275.661 259.373,279.902 263.871,287.969 
				244.684,296.227 218.563,301.584 190.845,301.414 167.299,298.261 149.603,293.704 134.454,287.246 			"/>
			<polygon style="fill-rule:evenodd;clip-rule:evenodd;fill:#E085AD;" points="398.47,56.387 408.725,63.018 416.249,78.387 
				418.476,96.782 417.048,118.18 412.016,140.495 402.987,162.502 389.343,182.128 375.655,194.557 360.499,203.581 
				343.085,208.032 350.035,198.887 362.11,187.403 352.359,180.278 360.984,172.122 368.784,163.241 362.108,157.018 
				371.66,145.817 378.821,136.093 386.109,123.653 380.294,112.136 369.984,104.341 374.778,89.752 384.243,74.313 398.47,56.387 
							"/>
			<polygon style="fill-rule:evenodd;clip-rule:evenodd;fill:#FFFFFF;" points="94.733,78.653 110.353,71.251 126.433,66.247 
				143.574,63.279 169.217,63.239 189.544,66.009 210.45,67.972 236.497,68.016 257.33,66.473 279.86,66.713 295.853,71.502 
				316.146,80.801 330.893,88.679 350.79,71.872 371.351,59.554 386.569,55.382 398.47,56.387 395.653,61.587 387.089,70.521 
				379.664,81.122 373.568,92.28 369.984,104.341 380.294,112.136 386.109,123.653 378.821,136.093 370.487,147.286 
				362.108,157.018 368.784,163.241 362.082,170.873 352.359,180.278 362.11,187.403 355.06,193.495 342.2,209.342 330.974,227.88 
				322.643,240.933 308.776,252.704 307.292,238.804 298.97,224.004 284.177,212.542 264.815,208.336 242.824,210.393 
				227.911,213.068 217.392,216.04 216.327,209.247 216.036,200.385 213.063,191.477 201.633,186.255 189.762,187.164 
				179.86,190.029 179.423,177.873 178.545,162.173 176.363,142.393 172.36,121.035 166.49,101.117 154.595,85.681 138.876,79 
				119.43,80.209 105.985,85.028 99.235,83.528 94.733,78.653 			"/>
			<polygon style="fill-rule:evenodd;clip-rule:evenodd;" points="260.018,185.03 272.499,183.415 283.958,183.318 291.452,184.431 
				292.384,176.576 292.17,170.715 282.139,163.684 273.089,155.862 281.917,148.754 289.732,142.403 287.045,133.506 
				279.411,126.649 267.911,127.771 260.938,134.517 258.982,142.778 259.091,152.776 259.348,163.909 259.685,175.267 
				260.018,185.03 			"/>
			
				<path style="fill:none;stroke:#000000;stroke-width:8.5039;stroke-linecap:round;stroke-linejoin:round;stroke-miterlimit:22.9256;" d="
				M102.368,89.903c35.74-16.339,59.318-4.07,65.764,15.473c7.369,22.342,11.24,52.244,11.728,84.653"/>
			
				<path style="fill:none;stroke:#000000;stroke-width:8.5039;stroke-linecap:round;stroke-linejoin:round;stroke-miterlimit:22.9256;" d="
				M206.956,187.438C220.946,137.73,236.86,64.777,289.36,83.153"/>
			
				<path style="fill:none;stroke:#000000;stroke-width:8.5039;stroke-linecap:round;stroke-linejoin:round;stroke-miterlimit:22.9256;" d="
				M97.36,114.278c0,0,17.341-18.838,40.498-12.001"/>
			
				<path style="fill:none;stroke:#000000;stroke-width:8.5039;stroke-linecap:round;stroke-linejoin:round;stroke-miterlimit:22.9256;" d="
				M257.67,102.277c0,0,23.25-15.063,40.69,4.501"/>
			
				<path style="fill:none;stroke:#000000;stroke-width:8.5039;stroke-linecap:round;stroke-linejoin:round;stroke-miterlimit:22.9256;" d="
				M102.368,89.903C71.243,53.528,11.86,41.904,6.234,76.028"/>
			
				<path style="fill:none;stroke:#000000;stroke-width:8.5039;stroke-linecap:round;stroke-linejoin:round;stroke-miterlimit:22.9256;" d="
				M64.734,204.279c-25.125-9.375-70.5-48-58.5-128.25"/>
			
				<path style="fill:none;stroke:#000000;stroke-width:8.5039;stroke-linecap:round;stroke-linejoin:round;stroke-miterlimit:22.9256;" d="
				M94.36,248.529c-8.438-19.125-21.003-27.002-30.753-50.251"/>
			
				<path style="fill:none;stroke:#000000;stroke-width:8.5039;stroke-linecap:round;stroke-linejoin:round;stroke-miterlimit:22.9256;" d="
				M94.733,78.653c0,0,34.501-21.749,80.626-14.625c46.126,7.125,62.612,3.521,75.001,3c12.387-0.521,37.875-8.25,79.125,22.875"/>
			
				<path style="fill:none;stroke:#000000;stroke-width:8.5039;stroke-linecap:round;stroke-linejoin:round;stroke-miterlimit:22.9256;" d="
				M318.868,102.277c0,0,42.127-48.887,73.252-47.012s26.615,48.513,25.49,59.013"/>
			
				<path style="fill:none;stroke:#000000;stroke-width:8.5039;stroke-linecap:round;stroke-linejoin:round;stroke-miterlimit:22.9256;" d="
				M341.485,210.278c33.749-8.25,67.875-34.125,76.125-96"/>
			
				<path style="fill:none;stroke:#000000;stroke-width:8.5039;stroke-linecap:round;stroke-linejoin:round;stroke-miterlimit:22.9256;" d="
				M362.11,187.403c-26.25,19.875-31.522,52.717-53.272,67.531"/>
			
				<path style="fill:none;stroke:#000000;stroke-width:8.5039;stroke-linecap:round;stroke-linejoin:round;stroke-miterlimit:22.9256;" d="
				M217.392,216.04c31.705-7.207,66.719-18.512,86.969,15.613"/>
			
				<path style="fill:none;stroke:#000000;stroke-width:8.5039;stroke-linecap:round;stroke-linejoin:round;stroke-miterlimit:22.9256;" d="
				M247.735,187.778c0,0,46.874-13.5,57,5.625"/>
			
				<path style="fill:none;stroke:#000000;stroke-width:8.5039;stroke-linecap:round;stroke-linejoin:round;stroke-miterlimit:22.9256;" d="
				M92.109,192.653c0,0,23.625-15.75,52.875-6.375"/>
			
				<path style="fill:none;stroke:#000000;stroke-width:8.5039;stroke-linecap:round;stroke-linejoin:round;stroke-miterlimit:22.9256;" d="
				M148.735,313.029c0,0,71.297,21.18,118.876-3"/>
			
				<path style="fill:none;stroke:#000000;stroke-width:8.5039;stroke-linecap:round;stroke-linejoin:round;stroke-miterlimit:22.9256;" d="
				M96.421,272.154c-8.625-21,7.312-77.625,62.625-55.875"/>
			
				<path style="fill:none;stroke:#000000;stroke-width:8.5039;stroke-linecap:round;stroke-linejoin:round;stroke-miterlimit:22.9256;" d="
				M148.735,313.029c-12.746-3.571-44.438-18.187-52.313-40.875"/>
			
				<path style="fill:none;stroke:#000000;stroke-width:8.5039;stroke-linecap:round;stroke-linejoin:round;stroke-miterlimit:22.9256;" d="
				M304.36,231.654c7.125,11.438,11.895,51.558-36.75,78.375"/>
			
				<path style="fill:none;stroke:#000000;stroke-width:8.5039;stroke-linecap:round;stroke-linejoin:round;stroke-miterlimit:22.9256;" d="
				M393.498,63.836c-5.959,3.581-22.685,26.879-23.514,40.505"/>
			
				<path style="fill:none;stroke:#000000;stroke-width:8.5039;stroke-linecap:round;stroke-linejoin:round;stroke-miterlimit:22.9256;" d="
				M386.109,123.653c0,0-2.25-12.938-16.125-19.312"/>
			
				<path style="fill:none;stroke:#000000;stroke-width:8.5039;stroke-linecap:round;stroke-linejoin:round;stroke-miterlimit:22.9256;" d="
				M361.922,157.216c0,0,16.499-17.438,24.188-33.563"/>
			
				<line style="fill:none;stroke:#000000;stroke-width:8.5039;stroke-linecap:round;stroke-linejoin:round;stroke-miterlimit:22.9256;" x1="369.609" y1="163.966" x2="361.922" y2="157.216"/>
			
				<line style="fill:none;stroke:#000000;stroke-width:8.5039;stroke-linecap:round;stroke-linejoin:round;stroke-miterlimit:22.9256;" x1="362.11" y1="187.403" x2="352.359" y2="180.278"/>
			
				<path style="fill:none;stroke:#000000;stroke-width:8.5039;stroke-linecap:round;stroke-linejoin:round;stroke-miterlimit:22.9256;" d="
				M369.609,163.966c0,0-11.061,10.5-17.25,16.312"/>
			
				<path style="fill:none;stroke:#000000;stroke-width:8.5039;stroke-linecap:round;stroke-linejoin:round;stroke-miterlimit:22.9256;" d="
				M158.859,34.403C147.046-11.534,38.5,39.632,94.733,78.653"/>
			
				<path style="fill:none;stroke:#000000;stroke-width:8.5039;stroke-linecap:round;stroke-linejoin:round;stroke-miterlimit:22.9256;" d="
				M148.285,19.337c0,0,18.824-20.372,44.512-4.06"/>
			
				<path style="fill:none;stroke:#000000;stroke-width:8.5039;stroke-linecap:round;stroke-linejoin:round;stroke-miterlimit:22.9256;" d="
				M217.544,62.385c20.25,9,37.689-25.919,19.502-48.232"/>
			
				<path style="fill:none;stroke:#000000;stroke-width:8.5039;stroke-linecap:round;stroke-linejoin:round;stroke-miterlimit:22.9256;" d="
				M192.796,15.278c3.562-7.312,26.812-20.062,44.25-1.125"/>
			
				<path style="fill:none;stroke:#000000;stroke-width:8.5039;stroke-linecap:round;stroke-linejoin:round;stroke-miterlimit:22.9256;" d="
				M259.573,66.203c0,0,16.473-2.737,17.223-16.8"/>
			
				<path style="fill:none;stroke:#000000;stroke-width:8.5039;stroke-linecap:round;stroke-linejoin:round;stroke-miterlimit:22.9256;" d="
				M237.046,14.153c14.062-8.437,81.562,4.312,75.562,39.562"/>
			
				<path style="fill:none;stroke:#000000;stroke-width:8.5039;stroke-linecap:round;stroke-linejoin:round;stroke-miterlimit:22.9256;" d="
				M306.358,32.632c7.875,1.5,33.625,12.271,13.375,35.333"/>
			
				<path style="fill:none;stroke:#000000;stroke-width:8.5039;stroke-linecap:round;stroke-linejoin:round;stroke-miterlimit:22.9256;" d="
				M325.974,45.85c8.438,0,27.697,4.49,11.385,34.303"/>
			
				<path style="fill:none;stroke:#000000;stroke-width:8.5039;stroke-linecap:round;stroke-linejoin:round;stroke-miterlimit:22.9256;" d="
				M148.545,234.278c0,0,63.75,15.75,111-3.375"/>
			
				<path style="fill:none;stroke:#000000;stroke-width:8.5039;stroke-linecap:round;stroke-linejoin:round;stroke-miterlimit:22.9256;" d="
				M26.107,63.836c7.5,4.125,27.75,28.503,26.812,38.441"/>
			
				<path style="fill:none;stroke:#000000;stroke-width:8.5039;stroke-linecap:round;stroke-linejoin:round;stroke-miterlimit:22.9256;" d="
				M50.107,146.153c0,0-36-40.876,2.812-43.876"/>
			
				<path style="fill:none;stroke:#000000;stroke-width:8.5039;stroke-linecap:round;stroke-linejoin:round;stroke-miterlimit:22.9256;" d="
				M56.107,167.527c0,0-6.75-7.687-12-18.562"/>
			
				<path style="fill:none;stroke:#000000;stroke-width:8.5039;stroke-linecap:round;stroke-linejoin:round;stroke-miterlimit:22.9256;" d="
				M48.42,168.465c4.5,16.875,17.625,15.938,15.187,29.812"/>
			
				<path style="fill:none;stroke:#000000;stroke-width:8.5039;stroke-linecap:round;stroke-linejoin:round;stroke-miterlimit:22.9256;" d="
				M115.357,270.278c-5.625-6.75-5.25-43.688,33.188-36"/>
			
				<path style="fill:none;stroke:#000000;stroke-width:8.5039;stroke-linecap:round;stroke-linejoin:round;stroke-miterlimit:22.9256;" d="
				M282.607,273.84c10.875-10.5,9.188-53.814-23.062-42.938"/>
			
				<path style="fill:none;stroke:#000000;stroke-width:8.5039;stroke-linecap:round;stroke-linejoin:round;stroke-miterlimit:22.9256;" d="
				M115.357,270.278c10.688,17.25,38.117,29.573,85.471,31.771c28.984,1.346,61.952-7.875,81.779-28.209"/>
			
				<path style="fill:none;stroke:#000000;stroke-width:8.5039;stroke-linecap:round;stroke-linejoin:round;stroke-miterlimit:22.9256;" d="
				M134.454,283.442c0,0,13.529-25.164,29.466-7.914"/>
			
				<path style="fill:none;stroke:#000000;stroke-width:8.5039;stroke-linecap:round;stroke-linejoin:round;stroke-miterlimit:22.9256;" d="
				M156.42,282.09c0,0,16.909-14.061,23.25,1.875"/>
			
				<path style="fill:none;stroke:#000000;stroke-width:8.5039;stroke-linecap:round;stroke-linejoin:round;stroke-miterlimit:22.9256;" d="
				M206.67,287.715c0,0-10.5-15.562-27-3.75"/>
			
				<path style="fill:none;stroke:#000000;stroke-width:8.5039;stroke-linecap:round;stroke-linejoin:round;stroke-miterlimit:22.9256;" d="
				M241.357,285.278c0,0-13.5-13.125-34.688,2.438"/>
			
				<path style="fill:none;stroke:#000000;stroke-width:8.5039;stroke-linecap:round;stroke-linejoin:round;stroke-miterlimit:22.9256;" d="
				M261.045,282.09c0,0-8.538-14.955-25.362-0.259"/>
			
				<path style="fill:none;stroke:#000000;stroke-width:8.5039;stroke-linecap:round;stroke-linejoin:round;stroke-miterlimit:22.9256;" d="
				M133.686,233.581c0,0-1.266,20.196,15.234,17.571"/>
			
				<path style="fill:none;stroke:#000000;stroke-width:8.5039;stroke-linecap:round;stroke-linejoin:round;stroke-miterlimit:22.9256;" d="
				M169.357,249.278c0,0-11.004,10.889-20.171-5.314"/>
			
				<path style="fill:none;stroke:#000000;stroke-width:8.5039;stroke-linecap:round;stroke-linejoin:round;stroke-miterlimit:22.9256;" d="
				M196.357,251.153c0,0-9.001,11.062-27-1.875"/>
			
				<path style="fill:none;stroke:#000000;stroke-width:8.5039;stroke-linecap:round;stroke-linejoin:round;stroke-miterlimit:22.9256;" d="
				M225.232,251.153c0,0-14.625,14.625-28.875,0"/>
			
				<path style="fill:none;stroke:#000000;stroke-width:8.5039;stroke-linecap:round;stroke-linejoin:round;stroke-miterlimit:22.9256;" d="
				M244.732,249.465c0,0-6.934,12.672-19.5,1.688"/>
			
				<path style="fill:none;stroke:#000000;stroke-width:8.5039;stroke-linecap:round;stroke-linejoin:round;stroke-miterlimit:22.9256;" d="
				M257.67,243.09c0,0-0.507,14.686-12.938,6.375"/>
			
				<path style="fill:none;stroke:#000000;stroke-width:8.5039;stroke-linecap:round;stroke-linejoin:round;stroke-miterlimit:22.9256;" d="
				M271.766,229.333c2.584,27.849-14.603,18.791-14.603,18.791"/>
			
				<path style="fill:none;stroke:#000000;stroke-width:8.5039;stroke-linecap:round;stroke-linejoin:round;stroke-miterlimit:22.9256;" d="
				M258.982,142.778c-0.75-17.438,27.188-26.813,30.75-0.375"/>
			
				<path style="fill:none;stroke:#000000;stroke-width:8.5039;stroke-linecap:round;stroke-linejoin:round;stroke-miterlimit:22.9256;" d="
				M263.677,184.431c0,0-4.694-27.215-4.694-41.653"/>
			
				<path style="fill:none;stroke:#000000;stroke-width:8.5039;stroke-linecap:round;stroke-linejoin:round;stroke-miterlimit:22.9256;" d="
				M272.107,156.653c6.595-5.309,11.438-9.188,17.625-14.25"/>
			
				<path style="fill:none;stroke:#000000;stroke-width:8.5039;stroke-linecap:round;stroke-linejoin:round;stroke-miterlimit:22.9256;" d="
				M292.17,170.715c0,0-16.688-9.188-20.062-14.062"/>
			
				<path style="fill:none;stroke:#000000;stroke-width:8.5039;stroke-linecap:round;stroke-linejoin:round;stroke-miterlimit:22.9256;" d="
				M291.452,184.431c0,0,1.655-9.215,0.718-13.715"/>
			
				<path style="fill:none;stroke:#000000;stroke-width:8.5039;stroke-linecap:round;stroke-linejoin:round;stroke-miterlimit:22.9256;" d="
				M106.17,140.715c2.438-15,26.547-18.376,29.548,0"/>
			
				<path style="fill:none;stroke:#000000;stroke-width:8.5039;stroke-linecap:round;stroke-linejoin:round;stroke-miterlimit:22.9256;" d="
				M108.868,184.431c0,0-4.573-27.778-2.698-43.715"/>
			
				<path style="fill:none;stroke:#000000;stroke-width:8.5039;stroke-linecap:round;stroke-linejoin:round;stroke-miterlimit:22.9256;" d="
				M120.045,159.84c0,0,4.688,6,17.812,10.688"/>
			
				<path style="fill:none;stroke:#000000;stroke-width:8.5039;stroke-linecap:round;stroke-linejoin:round;stroke-miterlimit:22.9256;" d="
				M138.501,184.575c0,0,0.294-9.359-0.643-14.047"/>
		</g>
	</g>
</g>
<g id="n0503">
	<g>
		<polygon style="fill-rule:evenodd;clip-rule:evenodd;fill:#E085AD;" points="211.077,215.247 216.327,209.247 215.913,196.621 
			210.41,189.164 197.806,186.089 186.567,188.122 176.854,194.069 173.331,202.737 176.081,212.646 183.364,217.543 
			193.483,220.342 202.524,219.362 211.077,215.247 		"/>
		
			<path style="fill:none;stroke:#000000;stroke-width:8.5039;stroke-linecap:round;stroke-linejoin:round;stroke-miterlimit:22.9256;" d="
			M176.578,213.559c6.188,7.126,23.25,10.126,34.499,1.688"/>
		
			<path style="fill:none;stroke:#000000;stroke-width:8.5039;stroke-linecap:round;stroke-linejoin:round;stroke-miterlimit:22.9256;" d="
			M216.327,209.247c3.188-19.5-8.8-23.854-20.489-23.077c-9.447,0.627-30.574,7.308-19.26,27.39"/>
		
			<path style="fill:none;stroke:#000000;stroke-width:8.5039;stroke-linecap:round;stroke-linejoin:round;stroke-miterlimit:22.9256;" d="
			M186.367,208.304c0,0-0.039-3.557-1.539-5.995"/>
		
			<path style="fill:none;stroke:#000000;stroke-width:8.5039;stroke-linecap:round;stroke-linejoin:round;stroke-miterlimit:22.9256;" d="
			M205.265,201.372c0,0-2.249,4.312-1.874,7.312"/>
	</g>
</g>
</svg>
