<?xml version="1.0" encoding="utf-8"?>
<!-- Generator: Adobe Illustrator 19.2.1, SVG Export Plug-In . SVG Version: 6.00 Build 0)  -->
<svg version="1.1" xmlns="http://www.w3.org/2000/svg" xmlns:xlink="http://www.w3.org/1999/xlink" x="0px" y="0px"
	 viewBox="0 0 355.036 556.787" style="enable-background:new 0 0 355.036 556.787;" xml:space="preserve">
<g id="n0601">
	<g>
		<g>
			<polygon style="fill-rule:evenodd;clip-rule:evenodd;fill:#E085AD;" points="40.333,113.294 32.665,97.214 21.301,77.212 
				14.139,56.046 11.951,35.786 13.272,20.392 21.45,9.137 34.961,4.407 44.703,13.219 47.986,28.694 49.851,43.915 52.716,59.058 
				56.487,73.291 60.864,85.915 52.529,96.946 43.844,108.022 40.333,113.294 			"/>
			<polygon style="fill-rule:evenodd;clip-rule:evenodd;fill:#F8D63F;" points="199.469,88.147 208.247,78.383 219.505,70.644 
				230.625,68.138 241.997,71.9 249.719,79.147 249.272,91.67 247.299,104.289 244.469,112.897 233.02,104.168 217.367,97.445 
				205.443,93.045 199.469,88.147 			"/>
			<polygon style="fill-rule:evenodd;clip-rule:evenodd;fill:#E085AD;" points="265.2,117.45 276.344,119.272 283.397,107.451 
				290.022,92.184 295.112,73.755 297.233,53.507 295.469,32.272 289.744,17.315 278.598,6.357 266.525,5.49 258.32,13.562 
				253.953,25.026 252.344,33.397 259.33,41.555 259.748,54.684 261.741,67.836 264.098,79.44 265.824,90.749 265.998,103.42 
				265.2,117.45 			"/>
			<polygon style="fill-rule:evenodd;clip-rule:evenodd;fill:#68569D;" points="194.406,89.46 199.469,88.147 206.302,80.547 
				213.369,74.243 206.193,64.817 191.973,51.306 176.139,41.384 158.88,35.35 139.169,33.668 120.843,36.571 100.864,44.253 
				84.784,56.159 71.574,71.665 60.864,85.915 48.187,102.484 35.942,120.371 25.529,139.99 17.226,160.131 10.927,180.741 
				6.295,203.609 4.07,225.612 4.469,250.147 9.251,251.989 15.822,238.422 27.74,224.004 40.338,215.829 51.106,212.11 
				49.656,205.334 57.669,199.61 63.416,195.015 60.889,180.125 56.594,165.386 51.587,148.237 50.33,137.117 53.585,123.799 
				61.352,114.421 73.503,110.074 86.594,111.022 95.531,101.819 107.126,93.199 125.002,84.637 141.835,80.736 160.143,80.412 
				176.783,83.314 194.406,89.46 			"/>
			<polygon style="fill-rule:evenodd;clip-rule:evenodd;fill:#F8D63F;" points="123.08,218.966 125.594,212.647 119.592,199.833 
				116.064,185.523 119.645,172.018 131.218,165.117 142.279,164.702 147.546,150.827 150.743,133.008 150.712,113.923 
				147.314,95.68 141.835,80.736 125.002,84.637 109.23,91.921 97.375,100.449 86.594,111.022 73.503,110.074 58.797,116.606 
				51.851,128.031 50.594,142.522 54.091,156.811 58.577,171.954 61.459,182.335 63.416,195.015 49.656,205.334 51.106,212.11 
				63.017,210.3 82.86,210.854 100.986,213.828 113.809,216.723 123.08,218.966 			"/>
			<polygon style="fill-rule:evenodd;clip-rule:evenodd;" points="77.572,191.133 95.542,191.183 95.117,180.384 92.56,173.275 
				81.144,167.93 71.952,165.643 80.176,157.028 89.031,149.086 86.256,139.097 77.256,134.76 70.408,139.888 68.506,148.741 
				69.487,156.609 74.864,176.256 77.572,191.133 			"/>
			<polygon style="fill-rule:evenodd;clip-rule:evenodd;fill:#FFFFFF;" points="141.835,80.736 147.314,95.68 150.712,113.923 
				150.743,133.008 147.228,150.763 142.279,164.702 151.171,169.759 156.531,175.335 162.97,173.698 170.683,165.816 
				179.798,160.888 192.601,159.983 204.156,166.606 209.988,175.651 210.33,189.434 207.343,197.302 203.594,203.647 
				205.027,209.057 216.436,206.39 231.189,204.12 246.369,203.456 259.573,204.61 267.802,206.35 271.469,200.084 264.023,194.168 
				268.249,184.798 273.934,173.595 279.186,162.721 285.543,148.781 287.162,137.845 284.734,127.798 276.344,119.272 
				265.2,117.45 265.766,107.503 265.911,97.085 264.714,82.767 261.741,67.836 259.748,54.684 259.33,41.555 260.594,28.522 
				253.148,29.212 251.582,42.675 251.131,52.781 250.742,65.484 249.719,79.147 249.272,91.67 247.299,104.289 244.469,112.897 
				234.59,105.366 222.555,99.241 211.406,95.245 199.469,88.147 189.663,87.506 176.783,83.314 160.143,80.412 141.835,80.736 			
				"/>
			<polygon style="fill-rule:evenodd;clip-rule:evenodd;" points="233.788,185.4 237.619,174.08 241.939,162.09 246.906,150.024 
				255.507,141.009 264.432,139.268 269.427,146.27 269.257,153.904 268.281,159.024 257.688,159.258 249.893,159.165 
				253.126,168.157 257.969,178.149 252.156,188.837 242.084,187.403 233.788,185.4 			"/>
			<polygon style="fill-rule:evenodd;clip-rule:evenodd;fill:#F8D63F;" points="284.621,148.991 289.469,151.897 295.559,162.611 
				300.285,176.77 302.662,190.149 306.889,205.913 314.228,220.879 322.637,237.067 330.16,255.397 334.617,273.257 
				336.203,291.363 335.337,307.456 336.232,320.248 341.592,335.422 348.303,350.974 352.363,364.04 352.387,379.678 
				347.129,391.703 339.719,400.522 332.68,398.88 334.579,387.992 335.263,375.351 333.969,359.24 330.914,344.711 
				326.144,329.939 321.344,318.397 315.428,314.465 320.36,302.196 321.635,287.228 319.908,269.219 316.858,255.451 
				309.896,240.277 300.77,226.307 286.057,214.679 267.802,206.35 271.469,200.084 264.023,194.168 268.249,184.798 
				273.782,173.523 279.186,162.721 284.621,148.991 			"/>
			<polygon style="fill-rule:evenodd;clip-rule:evenodd;fill:#68569D;" points="26.75,328.678 40.681,342.466 57.275,355.3 
				76.202,366.674 94.45,375.131 112.763,381.606 136.75,388.242 135.363,409.587 133.521,429.681 130.325,453.595 126.872,472.773 
				122.186,491.806 114.352,511.843 98.542,508.085 77.812,493.232 67.835,478.68 65.219,470.272 52.467,468.04 35.292,453.397 
				27.175,436.578 27.344,417.023 30.263,402.206 32.348,383.358 32.019,363.044 28.817,343.17 26.75,328.678 			"/>
			<polygon style="fill-rule:evenodd;clip-rule:evenodd;fill:#F8D63F;" points="203.876,389.742 220.631,385.595 238.19,379.264 
				257.097,369.89 275.531,357.833 290.324,345.372 304.574,330.275 315.75,314.679 321.344,318.397 326.144,329.939 
				332.016,349.099 334.615,367.295 334.579,387.992 330.441,406.915 322.53,425.1 309.287,444.592 294.232,460.977 
				295.469,476.647 288.356,493.053 275.691,503.486 261.867,509.862 245.904,512.147 233.734,508.168 227.928,501.56 
				217.943,509.012 213.365,496.409 209.297,481.443 206.551,466.828 204.926,452.631 203.643,432.8 203.419,418.017 
				203.43,403.172 203.876,389.742 			"/>
			
				<path style="fill:none;stroke:#000000;stroke-width:8.5039;stroke-linecap:round;stroke-linejoin:round;stroke-miterlimit:22.9256;" d="
				M104.219,493.523c0,0-32.625-12-13.5-81.75"/>
			
				<path style="fill:none;stroke:#000000;stroke-width:8.5039;stroke-linecap:round;stroke-linejoin:round;stroke-miterlimit:22.9256;" d="
				M210.414,485.554c-4.875-43.501,43.805-52.406,59.18-87.281"/>
			
				<path style="fill:none;stroke:#000000;stroke-width:8.5039;stroke-linecap:round;stroke-linejoin:round;stroke-miterlimit:22.9256;" d="
				M337.657,402.887c32.25-31.5-5.399-75.18-2.814-91.615"/>
			
				<path style="fill:none;stroke:#000000;stroke-width:8.5039;stroke-linecap:round;stroke-linejoin:round;stroke-miterlimit:22.9256;" d="
				M289.469,151.897c16.727,25.034,8.31,37.371,20.901,61.718c12.038,23.277,31.107,51.256,24.474,97.656"/>
			
				<path style="fill:none;stroke:#000000;stroke-width:8.5039;stroke-linecap:round;stroke-linejoin:round;stroke-miterlimit:22.9256;" d="
				M86.594,111.022c0,0,35.685-52.875,104.685-22.875"/>
			
				<path style="fill:none;stroke:#000000;stroke-width:8.5039;stroke-linecap:round;stroke-linejoin:round;stroke-miterlimit:22.9256;" d="
				M199.469,88.147c7.875,10.5,25.875,6.374,45,24.749"/>
			
				<path style="fill:none;stroke:#000000;stroke-width:8.5039;stroke-linecap:round;stroke-linejoin:round;stroke-miterlimit:22.9256;" d="
				M199.469,88.147c0,0,26.625-38.25,50.25-9"/>
			
				<path style="fill:none;stroke:#000000;stroke-width:8.5039;stroke-linecap:round;stroke-linejoin:round;stroke-miterlimit:22.9256;" d="
				M222.719,84.772c0,0,11.069-0.322,24.375,15.75"/>
			
				<path style="fill:none;stroke:#000000;stroke-width:8.5039;stroke-linecap:round;stroke-linejoin:round;stroke-miterlimit:22.9256;" d="
				M83.117,78.139c0,0,39.541-53.367,100.255-9.867"/>
			
				<path style="fill:none;stroke:#000000;stroke-width:8.5039;stroke-linecap:round;stroke-linejoin:round;stroke-miterlimit:22.9256;" d="
				M261.371,29.888c-5.812,37.125,9.206,55.333,3.956,85.333"/>
			
				<path style="fill:none;stroke:#000000;stroke-width:8.5039;stroke-linecap:round;stroke-linejoin:round;stroke-miterlimit:22.9256;" d="
				M32.969,28.522c5.905,39.75,15.75,58.875,10.875,79.5"/>
			
				<path style="fill:none;stroke:#000000;stroke-width:8.5039;stroke-linecap:round;stroke-linejoin:round;stroke-miterlimit:22.9256;" d="
				M213.369,74.243c-8.49-13.177-48.28-61.937-112.505-29.989c-19.766,9.833-30.085,30.208-57.02,63.769"/>
			
				<path style="fill:none;stroke:#000000;stroke-width:8.5039;stroke-linecap:round;stroke-linejoin:round;stroke-miterlimit:22.9256;" d="
				M12.344,24.772c0.75-15,30-37.125,35.25-0.75"/>
			
				<path style="fill:none;stroke:#000000;stroke-width:8.5039;stroke-linecap:round;stroke-linejoin:round;stroke-miterlimit:22.9256;" d="
				M40.333,113.294c-3-16.875-32.114-37.146-27.989-88.521"/>
			
				<path style="fill:none;stroke:#000000;stroke-width:8.5039;stroke-linecap:round;stroke-linejoin:round;stroke-miterlimit:22.9256;" d="
				M60.864,85.915C52.239,63.79,48.93,41.671,47.594,24.022"/>
			
				<path style="fill:none;stroke:#000000;stroke-width:8.5039;stroke-linecap:round;stroke-linejoin:round;stroke-miterlimit:22.9256;" d="
				M244.469,112.897c7.875-16.5,5.25-56.249,7.875-79.499"/>
			
				<path style="fill:none;stroke:#000000;stroke-width:8.5039;stroke-linecap:round;stroke-linejoin:round;stroke-miterlimit:22.9256;" d="
				M295.469,32.272c-4.875-27.376-36.375-46.125-43.125,1.125"/>
			
				<path style="fill:none;stroke:#000000;stroke-width:8.5039;stroke-linecap:round;stroke-linejoin:round;stroke-miterlimit:22.9256;" d="
				M276.344,119.272c0,0,28.125-37.876,19.125-87.001"/>
			
				<path style="fill:none;stroke:#000000;stroke-width:8.5039;stroke-linecap:round;stroke-linejoin:round;stroke-miterlimit:22.9256;" d="
				M95.594,121.897c-4.5-10.124-14.932-14.445-28.078-10.61c-9.264,2.702-18.967,14.402-16.922,31.235"/>
			
				<path style="fill:none;stroke:#000000;stroke-width:8.5039;stroke-linecap:round;stroke-linejoin:round;stroke-miterlimit:22.9256;" d="
				M63.416,195.015c0.75-10.5-12.714-44.607-12.822-52.493"/>
			
				<path style="fill:none;stroke:#000000;stroke-width:8.5039;stroke-linecap:round;stroke-linejoin:round;stroke-miterlimit:22.9256;" d="
				M239.594,134.272c9-14.625,23.621-20.079,36.75-15c8.039,3.109,15.301,17.221,7.5,33.749"/>
			
				<path style="fill:none;stroke:#000000;stroke-width:8.5039;stroke-linecap:round;stroke-linejoin:round;stroke-miterlimit:22.9256;" d="
				M264.023,194.168c3.707-9.395,17.998-36.528,19.82-41.146"/>
			
				<path style="fill:none;stroke:#000000;stroke-width:8.5039;stroke-linecap:round;stroke-linejoin:round;stroke-miterlimit:22.9256;" d="
				M257.688,117.416c0,0-0.844,23.605-3.094,26.605"/>
			
				<path style="fill:none;stroke:#000000;stroke-width:8.5039;stroke-linecap:round;stroke-linejoin:round;stroke-miterlimit:22.9256;" d="
				M266.219,141.772c0,0,13.875-6,25.125-22.125"/>
			
				<path style="fill:none;stroke:#000000;stroke-width:8.5039;stroke-linecap:round;stroke-linejoin:round;stroke-miterlimit:22.9256;" d="
				M268.844,149.272c0,0,18.065,7.876,33.815-2.249"/>
			
				<path style="fill:none;stroke:#000000;stroke-width:8.5039;stroke-linecap:round;stroke-linejoin:round;stroke-miterlimit:22.9256;" d="
				M80.219,102.887c0,0-1.227,27.32,2.898,31.82"/>
			
				<path style="fill:none;stroke:#000000;stroke-width:8.5039;stroke-linecap:round;stroke-linejoin:round;stroke-miterlimit:22.9256;" d="
				M54.229,113.294c3,9,12.098,16.913,17.724,21.413"/>
			
				<path style="fill:none;stroke:#000000;stroke-width:8.5039;stroke-linecap:round;stroke-linejoin:round;stroke-miterlimit:22.9256;" d="
				M43.844,138.989c4.265,4.038,18.579,3.625,26.625,5.034"/>
			
				<path style="fill:none;stroke:#000000;stroke-width:8.5039;stroke-linecap:round;stroke-linejoin:round;stroke-miterlimit:22.9256;" d="
				M246.906,150.024c3.75-10.258,28.687-22.12,21.375,9"/>
			
				<path style="fill:none;stroke:#000000;stroke-width:8.5039;stroke-linecap:round;stroke-linejoin:round;stroke-miterlimit:22.9256;" d="
				M247.094,158.836c7.074,0.882,12.381,1.263,21.187,0.188"/>
			
				<path style="fill:none;stroke:#000000;stroke-width:8.5039;stroke-linecap:round;stroke-linejoin:round;stroke-miterlimit:22.9256;" d="
				M257.969,178.149c0,0-3.937-10.126-10.875-19.313"/>
			
				<path style="fill:none;stroke:#000000;stroke-width:8.5039;stroke-linecap:round;stroke-linejoin:round;stroke-miterlimit:22.9256;" d="
				M252.156,188.837c0,0,5.062-7.313,5.812-10.688"/>
			
				<path style="fill:none;stroke:#000000;stroke-width:8.5039;stroke-linecap:round;stroke-linejoin:round;stroke-miterlimit:22.9256;" d="
				M233.788,185.4c0,0,8.244-25.251,13.118-35.376"/>
			
				<path style="fill:none;stroke:#000000;stroke-width:8.5039;stroke-linecap:round;stroke-linejoin:round;stroke-miterlimit:22.9256;" d="
				M89.031,149.086c0.75-17.625-22.148-21.584-20.438,2.625"/>
			
				<path style="fill:none;stroke:#000000;stroke-width:8.5039;stroke-linecap:round;stroke-linejoin:round;stroke-miterlimit:22.9256;" d="
				M77.572,191.133c0-9.562-8.98-34.547-8.979-39.422"/>
			
				<path style="fill:none;stroke:#000000;stroke-width:8.5039;stroke-linecap:round;stroke-linejoin:round;stroke-miterlimit:22.9256;" d="
				M71.952,165.643c0,0,12.767-13.933,17.079-16.558"/>
			
				<path style="fill:none;stroke:#000000;stroke-width:8.5039;stroke-linecap:round;stroke-linejoin:round;stroke-miterlimit:22.9256;" d="
				M94.281,175.711c0,0-0.221-5.51-22.329-10.068"/>
			
				<path style="fill:none;stroke:#000000;stroke-width:8.5039;stroke-linecap:round;stroke-linejoin:round;stroke-miterlimit:22.9256;" d="
				M95.538,191.706c0,0,0.133-12.074-1.257-15.995"/>
			<path style="fill-rule:evenodd;clip-rule:evenodd;fill:#68569D;" d="M136.75,388.242c0,0,7.242,18.695-10.758-31.162
				S55.196,242.71,50.594,218.966c-4.602-23.744-0.938-36.645-0.938-36.645s-49.665,42.9-41.665,79.567s5.954,52.001,24.977,81.334
				C51.992,372.555,118.175,401.261,136.75,388.242z"/>
			<path style="fill-rule:evenodd;clip-rule:evenodd;fill:#F8D63F;" d="M45.156,214.165c0,0-16.282,17.651-1.29,60.783
				c14.993,43.132,34.88,80.239,66.326,98.391c31.445,18.151,61.334,15.648,60.667,18.528c-0.667,2.88,47.013-64.497,47.173-66.809
				c0.16-2.312-12.886-44.979-15.029-47.645c-2.143-2.667-16.097-20.602-16.097-20.602l-25.903-15.398l-6.726-58.901l-12.553-24.956
				l-26.471,10.348c0,0-1.261,28.365-0.595,30.169c0.667,1.804-65.002,7.262-65.002,7.262L45.156,214.165z"/>
			<path style="fill-rule:evenodd;clip-rule:evenodd;fill:#F8D63F;" d="M268.281,200.084c0,0-7.325,40.005-12.141,51.904
				s-3.462,5.481-22.352,41.899c-18.891,36.418-43.129,55.331-55.796,108.999c-12.667,53.668-8.338,66.333-6.836,82.667
				c1.502,16.334,22.809,28.436,25.502,31.909c2.693,3.474,50.204-12.306,50.436-11.94c0.231,0.365,61.111-170.968,61.111-170.968
				s19.121-25.334,17.787-38.667c-1.334-13.333-8.668-65.845-23.334-76.922C287.992,207.888,268.281,200.084,268.281,200.084z"/>
			<path style="fill-rule:evenodd;clip-rule:evenodd;fill:#68569D;" d="M105.746,505.523c3.387-0.968,2.842,12.366,30.319,11.699
				c27.478-0.667,48.778-5.379,48.778-5.379s-6.845-57.103-6.445-59.195c0.399-2.093,19.107-82.76,21.07-86.093
				c1.962-3.333-22.776-11.507-27.317-15.42c-4.541-3.913-26.336-19.247-30.316-19.247c-3.98,0-88.19-22.018-91.241-17.209
				c-3.051,4.809,59.597,67.643,63.39,76.093c3.794,8.45,2.777,99.719,2.777,102.751
				C116.76,496.555,105.746,505.523,105.746,505.523z"/>
			
				<path style="fill:none;stroke:#000000;stroke-width:8.5039;stroke-linecap:round;stroke-linejoin:round;stroke-miterlimit:22.9256;" d="
				M299.594,376.147c-22.5,73.5-80.149,75.826-75.375,129.376"/>
			
				<path style="fill:none;stroke:#000000;stroke-width:8.5039;stroke-linecap:round;stroke-linejoin:round;stroke-miterlimit:22.9256;" d="
				M294.851,468.812c9,36.375-65.951,65.49-70.167,21.288"/>
			
				<path style="fill:none;stroke:#000000;stroke-width:8.5039;stroke-linecap:round;stroke-linejoin:round;stroke-miterlimit:22.9256;" d="
				M256.844,496.898c19.875-28.125,113.814-76.344,62.48-183.044"/>
			
				<path style="fill:none;stroke:#000000;stroke-width:8.5039;stroke-linecap:round;stroke-linejoin:round;stroke-miterlimit:22.9256;" d="
				M62.594,373.147c16.875,24,0.013,80.434,2.625,97.125c2.611,16.691,23.138,38.361,46.5,41.626"/>
			
				<path style="fill:none;stroke:#000000;stroke-width:8.5039;stroke-linecap:round;stroke-linejoin:round;stroke-miterlimit:22.9256;" d="
				M210.064,485.554c-4.875-43.5,43.805-52.406,59.18-87.281"/>
			
				<path style="fill:none;stroke:#000000;stroke-width:8.5039;stroke-linecap:round;stroke-linejoin:round;stroke-miterlimit:22.9256;" d="
				M194.658,402.887c-4.714,0.51-17.813,20.32-16.666,39.636c1.147,19.315,3.89,44.242,5.084,54.375
				c1.194,10.133,8.099,22.349,23.338,20.349c15.239-2,24.667-11.724,24.667-11.724"/>
			
				<path style="fill:none;stroke:#000000;stroke-width:8.5039;stroke-linecap:round;stroke-linejoin:round;stroke-miterlimit:22.9256;" d="
				M111.719,468.812c0,0-6.731,21.012,5.104,36.711c11.835,15.699,24.813,11.994,49.703,9.336
				c24.89-2.658,20.498-3.016,20.498-3.016"/>
			
				<path style="fill:none;stroke:#000000;stroke-width:8.5039;stroke-linecap:round;stroke-linejoin:round;stroke-miterlimit:22.9256;" d="
				M221.969,190.266c0,0,24.938-12.118,49.5,9.818"/>
			
				<path style="fill:none;stroke:#000000;stroke-width:8.5039;stroke-linecap:round;stroke-linejoin:round;stroke-miterlimit:22.9256;" d="
				M49.656,205.334c0,0,25.687-23.062,53.812-11.062"/>
			
				<path style="fill:none;stroke:#000000;stroke-width:8.5039;stroke-linecap:round;stroke-linejoin:round;stroke-miterlimit:22.9256;" d="
				M143.969,87.397c5.25,9,8.226,59.626-3.774,90.751"/>
			
				<path style="fill:none;stroke:#000000;stroke-width:8.5039;stroke-linecap:round;stroke-linejoin:round;stroke-miterlimit:22.9256;" d="
				M43.844,108.022c-48.375,70.5-38.33,148.598-38.33,148.598l12.31,62.934c-5.873,34.959,5.77,53.218,2.02,71.218"/>
			
				<path style="fill:none;stroke:#000000;stroke-width:8.5039;stroke-linecap:round;stroke-linejoin:round;stroke-miterlimit:22.9256;" d="
				M23.5,324.867c10.876,31.5,11.719,57.656,3.844,92.156c-7.875,34.499,25.166,52.963,33.375,54.374"/>
		</g>
		<g>
			<path style="fill-rule:evenodd;clip-rule:evenodd;fill:#68569D;" d="M84.761,236.485c2.044-0.017,11.397,3.131,36.246,9.942
				c24.849,6.811,32.138,10.954,36.655,4.357c4.518-6.597,5.901-14.299,5.901-14.299s1.616,21.212,18.656,18.913
				c17.04-2.3,61.308-21.841,76.781-17.844c15.474,3.997,35.465,13.686,32.395,41.094c-3.07,27.407-15.406,45.636-32.238,58.021
				c-16.832,12.386-81.727,26.45-136.28,11.168c-54.552-15.282-65.92-24.893-78.986-52.338
				C30.824,268.054,32.197,236.915,84.761,236.485z"/>
			<g>
				<defs>
					<path id="SVGID_1_" d="M75.577,221.551c2.281-0.021,12.722,3.994,40.46,12.682c27.738,8.688,35.875,13.972,40.918,5.558
						c5.043-8.415,6.587-18.239,6.587-18.239s1.804,27.058,20.826,24.124c19.021-2.934,68.437-27.86,85.709-22.761
						c17.273,5.098,39.589,17.458,36.161,52.418c-3.428,34.961-17.197,58.212-35.986,74.011
						c-18.789,15.799-91.23,33.74-152.127,14.246c-60.895-19.494-73.586-31.754-88.171-66.762
						C15.369,261.821,16.901,222.1,75.577,221.551z"/>
				</defs>
				<clipPath id="SVGID_2_">
					<use xlink:href="#SVGID_1_"  style="overflow:visible;"/>
				</clipPath>
				
					<rect x="-27.608" y="129.063" style="clip-path:url(#SVGID_2_);fill-rule:evenodd;clip-rule:evenodd;fill:#49B37E;" width="191.15" height="327.284"/>
			</g>
		</g>
	</g>
</g>
<g id="n0602">
	<g>
		<polygon style="fill-rule:evenodd;clip-rule:evenodd;fill:#81CECE;" points="203.876,389.742 203.316,406.577 203.522,429.457 
			204.926,452.631 207.406,472.478 211.186,490.409 217.943,509.012 226,520.992 211.834,536.421 190.664,548.984 165.496,552.366 
			137.548,544.373 121.259,533.312 111.251,518.367 119.524,500.968 124.847,482.644 128.897,462.902 131.753,444.289 
			134.094,424.201 135.723,405.432 136.75,388.242 155.695,390.446 175.582,391.765 203.876,389.742 		"/>
		
			<path style="fill:none;stroke:#000000;stroke-width:8.5039;stroke-linecap:round;stroke-linejoin:round;stroke-miterlimit:22.9256;" d="
			M203.876,389.742c0,0-6.375,101.25,22.124,131.25"/>
		
			<path style="fill:none;stroke:#000000;stroke-width:8.5039;stroke-linecap:round;stroke-linejoin:round;stroke-miterlimit:22.9256;" d="
			M111.251,518.367c0.75,16.5,67.5,66.375,114.749,2.625"/>
		
			<path style="fill:none;stroke:#000000;stroke-width:8.5039;stroke-linecap:round;stroke-linejoin:round;stroke-miterlimit:22.9256;" d="
			M136.75,388.242c0,0-3.749,97.875-25.499,130.125"/>
	</g>
</g>
<g id="n0602_1_">
	<g>
		<polygon style="fill-rule:evenodd;clip-rule:evenodd;fill:#F8D63F;" points="148.022,341.407 146.125,334.866 147.245,306.716 
			151.983,297.521 159.773,292.144 172.757,290.95 182.647,293.687 186.438,299.553 181.6,306.737 180.008,315.194 179.652,342.76 
			168.144,349.763 161.181,342.853 154.965,340.802 148.022,341.407 		"/>
		
			<path style="fill:none;stroke:#000000;stroke-width:8.5039;stroke-linecap:round;stroke-linejoin:round;stroke-miterlimit:22.9256;" d="
			M168.813,282.303"/>
		
			<path style="fill:none;stroke:#000000;stroke-width:8.5039;stroke-linecap:round;stroke-linejoin:round;stroke-miterlimit:22.9256;" d="
			M168.813,282.303"/>
		
			<path style="fill:none;stroke:#000000;stroke-width:8.5039;stroke-linecap:round;stroke-linejoin:round;stroke-miterlimit:22.9256;" d="
			M159.997,309.842c0,0,24.003,4.148,26.44-10.289"/>
		
			<path style="fill:none;stroke:#000000;stroke-width:8.5039;stroke-linecap:round;stroke-linejoin:round;stroke-miterlimit:22.9256;" d="
			M146.424,339.726c0,0-1.498-44.06,15.886-48.369c5.93-1.469,24.208-0.807,24.128,8.195"/>
		
			<path style="fill:none;stroke:#000000;stroke-width:8.5039;stroke-linecap:round;stroke-linejoin:round;stroke-miterlimit:22.9256;" d="
			M181.6,306.737c0,0-2.921,31.541-1.947,36.023"/>
	</g>
</g>
<g id="n0602_2_">
	<g>
		<polygon style="fill-rule:evenodd;clip-rule:evenodd;fill:#FFFFFF;" points="91.364,240.126 89.457,253.765 90.509,264.907 
			95.772,271.008 104.043,272.148 109.227,280.133 117.998,283.418 130.938,280.866 138.449,287.088 147.215,290.512 
			158.521,289.619 168.813,283.303 175.618,286.992 184.91,288.939 193.856,286.007 199,280.304 207.877,282.964 216.625,281.278 
			222.692,273.77 231.18,273.72 237.083,267.363 239.489,258.543 240.064,248.483 238.295,240.761 223.068,245.249 205.678,251.924 
			188.07,256.31 175.477,255.108 167.87,246.426 162.179,245.187 157.662,251.784 145.855,254.237 129.544,251.199 115.091,246.856 
			103.668,243.224 91.364,240.126 		"/>
		<polygon style="fill-rule:evenodd;clip-rule:evenodd;fill:#E085AD;" points="80.336,333.116 81.872,316.809 82.961,304.179 
			88.095,295.996 98.257,291.618 107.359,293.075 112.786,299.698 113.109,306.268 118.546,311.013 121.006,318.791 
			131.087,322.111 138.625,327.929 148.022,323.407 161.181,324.853 168.144,331.762 177.373,325.43 188.705,325.303 
			197.125,329.617 207.803,322.271 212.482,314.414 220.775,309.554 221.955,303.268 228.189,298.472 236.535,296.15 
			247.59,301.918 252.693,310.14 256.361,320.12 258.054,326.651 259.156,337.668 239.405,346.829 215.897,351.623 192.627,354.319 
			173.26,354.999 148.745,353.461 122.876,348.836 101.591,342.829 80.336,333.116 		"/>
		<path style="fill-rule:evenodd;clip-rule:evenodd;fill:#F8D63F;" d="M319.691,267.695l-5.404-18.378l-8.781-16.08l-12.333-13.179
			l-14.232-8.757l-15.253-4.821l-17.318-2.023l-15.18,0.663l-14.754,2.27l-11.408,2.667l-1.434-5.411l5.242-10.279l2.34-10.896
			l-4.104-11.343l-10.443-9.819l-14.275-1.158l-11.671,5.665l-7.712,7.881l-7.099,0.95l-11.83-9.389l-12.824-0.142l-11.573,6.901
			l-3.581,13.504l3.528,14.311l6.002,12.813l-2.514,6.319l-28.508-6.19l-29.38-2.604l-24.854,5.657L23.61,229.016l-11.074,17.189
			l-7.023,18.767l0.351,26.268l9.106,22.895l18.52,22.651L57.275,356.3l28.43,16.051l28.879,10.801l32.015,7.075l31.441,2.754
			l32.182-3.655l25.976-8.232l20.9-10.204l18.434-12.057l16.369-13.788l13.917-15.121l12.193-18.347l3.601-21.45L319.691,267.695z
			 M286.974,296.721c-3.145,9.81-8.692,51.821-79.171,57.077c-70.479,5.256-70.768,1.205-145.3-30.49
			c0,0-31.984-31.475-22.984-65.688c9-34.213,62.17-17.494,66.866-13.566c4.696,3.928,35.163,16.737,45.479,8.935
			c10.316-7.802,9.376-16.248,14.418-11.591c5.043,4.657,11.996,18.322,25.696,14.424c13.7-3.898,47.859-21.899,79.359-13.471
			C302.837,250.779,290.118,286.91,286.974,296.721z"/>
		
			<path style="fill:none;stroke:#000000;stroke-width:8.5039;stroke-linecap:round;stroke-linejoin:round;stroke-miterlimit:22.9256;" d="
			M150.991,405.609c0,0,19.375,2.752,36.999,0.877"/>
		
			<path style="fill:none;stroke:#000000;stroke-width:8.5039;stroke-linecap:round;stroke-linejoin:round;stroke-miterlimit:22.9256;" d="
			M23.5,325.867c18.75,22.875,64.004,61.405,145.869,66.822c62.549,4.14,122.9-36.537,147.007-78.072"/>
		
			<path style="fill:none;stroke:#000000;stroke-width:8.5039;stroke-linecap:round;stroke-linejoin:round;stroke-miterlimit:22.9256;" d="
			M142.001,223.866c-36.909-5.047-111.517-41.257-135.304,36.553c-8.545,27.955,7.319,55.344,16.804,65.447"/>
		
			<path style="fill:none;stroke:#000000;stroke-width:8.5039;stroke-linecap:round;stroke-linejoin:round;stroke-miterlimit:22.9256;" d="
			M316.376,314.617c13.124-18.375,11.811-147.563-127.688-99.563"/>
		
			<path style="fill:none;stroke:#000000;stroke-width:8.5039;stroke-linecap:round;stroke-linejoin:round;stroke-miterlimit:22.9256;" d="
			M3.344,326.898"/>
		
			<path style="fill:none;stroke:#000000;stroke-width:8.5039;stroke-linecap:round;stroke-linejoin:round;stroke-miterlimit:22.9256;" d="
			M334.844,312.272"/>
		
			<path style="fill:none;stroke:#000000;stroke-width:8.5039;stroke-linecap:round;stroke-linejoin:round;stroke-miterlimit:22.9256;" d="
			M161.574,175.554c9.152-12.505,26.571-19.695,38.723-11.158c9.379,6.589,18.36,22.004,0.694,43.824"/>
		
			<path style="fill:none;stroke:#000000;stroke-width:8.5039;stroke-linecap:round;stroke-linejoin:round;stroke-miterlimit:22.9256;" d="
			M159.309,175.188c-4.099-4.086-14.59-14.79-31.075-8.014c-7.131,2.933-26.576,20.371,0.373,50.379"/>
		
			<path style="fill:none;stroke:#000000;stroke-width:8.5039;stroke-linecap:round;stroke-linejoin:round;stroke-miterlimit:22.9256;" d="
			M143.969,209.897c1.342-2.367-2.852-20.017-7.801-20.321"/>
		
			<path style="fill:none;stroke:#000000;stroke-width:8.5039;stroke-linecap:round;stroke-linejoin:round;stroke-miterlimit:22.9256;" d="
			M180.719,205.772c-4.5-1.875,0.835-22.71,6.98-23.355"/>
		
			<path style="fill:none;stroke:#000000;stroke-width:8.5039;stroke-linecap:round;stroke-linejoin:round;stroke-miterlimit:22.9256;" d="
			M136.168,189.577c-3.75,1.874,1.051,20.696,7.801,20.321"/>
		
			<path style="fill:none;stroke:#000000;stroke-width:8.5039;stroke-linecap:round;stroke-linejoin:round;stroke-miterlimit:22.9256;" d="
			M187.699,182.417c3.749,1.5-0.23,23.729-6.98,23.355"/>
		
			<path style="fill:none;stroke:#000000;stroke-width:8.5039;stroke-linecap:round;stroke-linejoin:round;stroke-miterlimit:22.9256;" d="
			M163.844,228.272c0,0,3.375,26.249-14.625,26.25"/>
		
			<path style="fill:none;stroke:#000000;stroke-width:8.5039;stroke-linecap:round;stroke-linejoin:round;stroke-miterlimit:22.9256;" d="
			M149.219,254.522c-34.125-2.251-55.875-23.251-91.875-13.125"/>
		
			<path style="fill:none;stroke:#000000;stroke-width:8.5039;stroke-linecap:round;stroke-linejoin:round;stroke-miterlimit:22.9256;" d="
			M163.844,228.272c0,0,0.749,29.25,18.375,28.125"/>
		
			<path style="fill:none;stroke:#000000;stroke-width:8.5039;stroke-linecap:round;stroke-linejoin:round;stroke-miterlimit:22.9256;" d="
			M252.344,238.397c-34.125,3.75-48.375,19.125-70.125,18"/>
		
			<path style="fill:none;stroke:#000000;stroke-width:8.5039;stroke-linecap:round;stroke-linejoin:round;stroke-miterlimit:22.9256;" d="
			M290.219,273.272c0,0,4.125-36-37.875-34.875"/>
		
			<path style="fill:none;stroke:#000000;stroke-width:8.5039;stroke-linecap:round;stroke-linejoin:round;stroke-miterlimit:22.9256;" d="
			M231.344,349.023c12.934-3.314,56.437-12.751,58.875-75.75"/>
		
			<path style="fill:none;stroke:#000000;stroke-width:8.5039;stroke-linecap:round;stroke-linejoin:round;stroke-miterlimit:22.9256;" d="
			M57.344,241.397c-39.375,16.125-10.838,63.848-0.375,76.5"/>
		
			<path style="fill:none;stroke:#000000;stroke-width:8.5039;stroke-linecap:round;stroke-linejoin:round;stroke-miterlimit:22.9256;" d="
			M231.344,349.023c-16.021,2.775-47.012,8.812-82.599,4.438c-38.203-4.696-78.467-19.483-91.776-35.564"/>
		
			<path style="fill:none;stroke:#000000;stroke-width:8.5039;stroke-linecap:round;stroke-linejoin:round;stroke-miterlimit:22.9256;" d="
			M103.281,252.989c-1.5,4.125-0.657,35.954,27.656,27.877"/>
		
			<path style="fill:none;stroke:#000000;stroke-width:8.5039;stroke-linecap:round;stroke-linejoin:round;stroke-miterlimit:22.9256;" d="
			M88.757,243.741c0,0-7.007,27.767,12.93,27.759"/>
		
			<path style="fill:none;stroke:#000000;stroke-width:8.5039;stroke-linecap:round;stroke-linejoin:round;stroke-miterlimit:22.9256;" d="
			M130.938,280.866c0,0,17.25,20.812,37.875,2.438"/>
		
			<path style="fill:none;stroke:#000000;stroke-width:8.5039;stroke-linecap:round;stroke-linejoin:round;stroke-miterlimit:22.9256;" d="
			M199,280.304c0,0-8.625,17.25-30.187,3"/>
		
			<path style="fill:none;stroke:#000000;stroke-width:8.5039;stroke-linecap:round;stroke-linejoin:round;stroke-miterlimit:22.9256;" d="
			M226.745,254.522c0,0,2.63,39.656-27.745,25.781"/>
		
			<path style="fill:none;stroke:#000000;stroke-width:8.5039;stroke-linecap:round;stroke-linejoin:round;stroke-miterlimit:22.9256;" d="
			M243.324,243.741c0,0,5.25,33.325-17.75,32.016"/>
		
			<path style="fill:none;stroke:#000000;stroke-width:8.5039;stroke-linecap:round;stroke-linejoin:round;stroke-miterlimit:22.9256;" d="
			M101.688,332.241c0,0,12.75-27.186,36.937-4.311"/>
		
			<path style="fill:none;stroke:#000000;stroke-width:8.5039;stroke-linecap:round;stroke-linejoin:round;stroke-miterlimit:22.9256;" d="
			M168.625,332.616c0,0-9.187-18.749-30-4.686"/>
		
			<path style="fill:none;stroke:#000000;stroke-width:8.5039;stroke-linecap:round;stroke-linejoin:round;stroke-miterlimit:22.9256;" d="
			M197.125,329.617c0,0-16.687-13.501-28.5,2.999"/>
		
			<path style="fill:none;stroke:#000000;stroke-width:8.5039;stroke-linecap:round;stroke-linejoin:round;stroke-miterlimit:22.9256;" d="
			M230.313,333.553c-2.438-16.5-28.313-14.249-33.188-3.936"/>
		
			<path style="fill:none;stroke:#000000;stroke-width:8.5039;stroke-linecap:round;stroke-linejoin:round;stroke-miterlimit:22.9256;" d="
			M86.875,325.867c4.35-12.861,6.043-18.204,11.21-20.623c7.689-3.6,22.599,0.743,22.921,13.548"/>
		
			<path style="fill:none;stroke:#000000;stroke-width:8.5039;stroke-linecap:round;stroke-linejoin:round;stroke-miterlimit:22.9256;" d="
			M113.109,306.268c2.625-18.375-21.584-18.903-28.894-5.541c-2.729,4.987-1.234,10.727-3.878,32.389"/>
		
			<path style="fill:none;stroke:#000000;stroke-width:8.5039;stroke-linecap:round;stroke-linejoin:round;stroke-miterlimit:22.9256;" d="
			M207.803,322.271c0.75-10.501,30.76-29.03,37.885,10.533"/>
		
			<path style="fill:none;stroke:#000000;stroke-width:8.5039;stroke-linecap:round;stroke-linejoin:round;stroke-miterlimit:22.9256;" d="
			M220.563,306.24c4.125-5.438,31.781-22.991,38.437,24.877"/>
	</g>
</g>
</svg>
