<?xml version="1.0" encoding="utf-8"?>
<!-- Generator: Adobe Illustrator 19.2.1, SVG Export Plug-In . SVG Version: 6.00 Build 0)  -->
<svg version="1.1" xmlns="http://www.w3.org/2000/svg" xmlns:xlink="http://www.w3.org/1999/xlink" x="0px" y="0px"
	 viewBox="0 0 448.962 453.394" style="enable-background:new 0 0 448.962 453.394;" xml:space="preserve">
<g id="n0701">
	<g>
		<polygon style="fill-rule:evenodd;clip-rule:evenodd;fill:#F8D63F;" points="214.964,310.311 216.629,380.177 233.129,391.052 
			249.629,377.552 246.992,365.624 245.331,352.689 245.572,310.201 231.76,311.127 221.269,310.859 214.964,310.311 		"/>
		<polygon style="fill-rule:evenodd;clip-rule:evenodd;fill:#FFFFFF;" points="217.19,366.291 216.629,380.177 233.129,391.052 
			215.879,403.427 190.379,387.302 196.346,379.119 205.115,370.672 217.19,366.291 		"/>
		<path style="fill-rule:evenodd;clip-rule:evenodd;fill:#FFFFFF;" d="M233.129,391.052c0,0,10.137,7.529,8.922,6.562
			c-1.215-0.969,8.328,7.313,8.328,7.313l7.214-7.629l7.526-9.015l4.385-5.856l-5.208-8.145l-6.049-5.751l-11.256-2.908
			l2.638,11.929l-6.871,7.97L233.129,391.052L233.129,391.052z"/>
		<polygon style="fill-rule:evenodd;clip-rule:evenodd;fill:#81CECE;" points="191.548,389.624 202.713,396.044 215.879,403.427 
			233.129,391.052 250.379,404.927 259.942,393.677 266.471,386.534 281.022,395.442 292.172,403.284 300.254,407.177 
			289.283,421.177 273.999,434.109 254.192,444.374 231.758,449.1 210.163,445.913 191.608,436.7 177.535,423.999 166.754,408.302 
			177.629,398.89 191.548,389.624 		"/>
		
			<path style="fill:none;stroke:#000000;stroke-width:8.5039;stroke-linecap:round;stroke-linejoin:round;stroke-miterlimit:22.9256;" d="
			M249.629,377.552c0,0-5.864-55.702-4.058-67.352"/>
		
			<path style="fill:none;stroke:#000000;stroke-width:8.5039;stroke-linecap:round;stroke-linejoin:round;stroke-miterlimit:22.9256;" d="
			M214.964,310.311c0,0,4.29,66.491,1.665,69.866"/>
		
			<path style="fill:none;stroke:#000000;stroke-width:8.5039;stroke-linecap:round;stroke-linejoin:round;stroke-miterlimit:22.9256;" d="
			M190.379,387.302c0,0,11.264-23.435,26.811-21.012"/>
		
			<path style="fill:none;stroke:#000000;stroke-width:8.5039;stroke-linecap:round;stroke-linejoin:round;stroke-miterlimit:22.9256;" d="
			M250.379,365.624c0,0,13.484-5.696,23.984,14.554"/>
		
			<path style="fill:none;stroke:#000000;stroke-width:8.5039;stroke-linecap:round;stroke-linejoin:round;stroke-miterlimit:22.9256;" d="
			M211.708,377.552c0,0,17.671,13.875,21.421,13.5"/>
		
			<path style="fill:none;stroke:#000000;stroke-width:8.5039;stroke-linecap:round;stroke-linejoin:round;stroke-miterlimit:22.9256;" d="
			M251.317,376.787c0,0-12.188,14.266-18.188,14.266"/>
		
			<path style="fill:none;stroke:#000000;stroke-width:8.5039;stroke-linecap:round;stroke-linejoin:round;stroke-miterlimit:22.9256;" d="
			M229.137,439.539c0,0-1.754-22.236,1.996-36.111"/>
		
			<path style="fill:none;stroke:#000000;stroke-width:8.5039;stroke-linecap:round;stroke-linejoin:round;stroke-miterlimit:22.9256;" d="
			M166.754,408.302c4.559,8.853,21.987,36.957,57.817,40.591c23.439,2.378,57.041-12.354,75.684-41.716"/>
		
			<path style="fill:none;stroke:#000000;stroke-width:8.5039;stroke-linecap:round;stroke-linejoin:round;stroke-miterlimit:22.9256;" d="
			M190.379,387.302c0,0,17.249,13.125,25.499,16.125"/>
		
			<path style="fill:none;stroke:#000000;stroke-width:8.5039;stroke-linecap:round;stroke-linejoin:round;stroke-miterlimit:22.9256;" d="
			M250.379,404.927c0,0,9.75-9.375,19.125-22.5"/>
		
			<path style="fill:none;stroke:#000000;stroke-width:8.5039;stroke-linecap:round;stroke-linejoin:round;stroke-miterlimit:22.9256;" d="
			M192.659,389.002c0,0-14.28,7.676-25.905,19.301"/>
		
			<path style="fill:none;stroke:#000000;stroke-width:8.5039;stroke-linecap:round;stroke-linejoin:round;stroke-miterlimit:22.9256;" d="
			M266.471,386.534c14.062,5.625,22.505,10.321,33.783,20.644"/>
		
			<path style="fill:none;stroke:#000000;stroke-width:8.5039;stroke-linecap:round;stroke-linejoin:round;stroke-miterlimit:22.9256;" d="
			M233.129,391.052c0,0,8.25,5.25,17.25,13.875"/>
		
			<path style="fill:none;stroke:#000000;stroke-width:8.5039;stroke-linecap:round;stroke-linejoin:round;stroke-miterlimit:22.9256;" d="
			M215.879,403.427c0,0,10.692-9.252,17.251-12.375"/>
	</g>
</g>
<g id="n0702">
	<g>
		<polygon style="fill-rule:evenodd;clip-rule:evenodd;fill:#49B37E;" points="98.99,76.787 86.192,67.035 70.194,55.096 
			50.187,43.942 30.562,37.824 13.984,43.2 5.824,57.333 4.331,73.512 6.407,93.797 11.777,113.416 21.527,133.154 35.462,150.734 
			49.416,162.54 64.566,169.137 68.263,148.288 74.011,128.138 81.998,107.856 89.902,91.997 98.99,76.787 		"/>
		<polygon style="fill-rule:evenodd;clip-rule:evenodd;fill:#F8D63F;" points="84.755,65.846 99.873,49.215 126.012,28.566 
			155.083,13.388 182.823,5.181 212.081,3.005 240.19,7.533 263.668,16.795 279.911,26.459 292.975,41.893 259.701,31.706 
			236.643,30.281 210.232,32.217 181.948,38.586 157.933,48.239 136.148,61.611 115.118,80.889 99.814,103.147 87.04,134.49 
			79.577,165.293 75.454,198.529 74.849,232.863 77.55,264.976 83.277,295.609 92.093,324.977 96.161,335.459 76.026,334.391 
			56.278,326.355 42.16,316.71 38.654,292.709 35.991,266.068 34.835,242.592 35.063,216.178 36.903,192.619 40.222,171.781 
			43.746,158.267 57.536,167.459 64.641,168.719 67.932,149.736 73.436,130.157 81.998,107.856 91.703,88.767 98.99,76.787 
			84.755,65.846 		"/>
		<polygon style="fill-rule:evenodd;clip-rule:evenodd;fill:#68569D;" points="339.086,83.949 367.208,66.886 393.139,54.891 
			415.661,48.584 433.383,52.086 441.186,64.096 444.703,83.512 441.583,102.576 434.383,120.538 421.963,139.275 406.176,155.173 
			392.131,165.248 375.383,172.5 371.548,151.615 364.373,128.747 354.313,107.352 345.951,93.635 339.086,83.949 		"/>
		<polygon style="fill-rule:evenodd;clip-rule:evenodd;fill:#E085AD;" points="307.661,66.959 315.161,66.959 328.497,70.303 
			337.923,77.178 341.239,82.643 339.233,84.145 350.131,100.494 360.78,121.106 368.982,143.436 374.297,166.589 377.094,192.35 
			377.168,219.548 375.428,248.056 372.795,276.596 370.194,303.56 367.661,335.459 358.456,346.27 350.786,348.96 347.036,345.96 
			348.499,335.479 350.765,318.39 352.639,303.078 354.325,287.801 356.474,264.122 357.888,240.505 358.331,215.786 
			357.352,190.721 354.058,162.938 347.621,134.762 340.325,114.56 326.235,90.835 316.297,79.875 305.042,70.81 307.661,66.959 		
			"/>
		<polygon style="fill-rule:evenodd;clip-rule:evenodd;fill:#49B37E;" points="301.004,322.802 316.038,321.595 331.587,323.434 
			349.34,329.28 351.354,313.717 353.621,294.412 355.772,272.676 357.396,248.722 358.17,232.183 358.282,218.51 351.872,218.635 
			346.346,231.876 338.317,244.678 324.901,258.194 327.818,271.241 326.702,284.641 321.125,298.639 312.458,311.078 
			301.004,322.802 		"/>
		<polygon style="fill-rule:evenodd;clip-rule:evenodd;fill:#FFFFFF;" points="287.786,40.709 292.975,41.893 299.784,50.041 
			305.729,61.158 307.661,66.959 306.678,71.951 318.542,82.35 329.897,95.842 340.708,115.423 347.621,134.762 353.167,159.029 
			356.848,184.611 357.841,203.254 358.136,218.513 351.872,218.635 346.346,231.876 337.632,245.564 324.901,258.194 
			327.941,274.198 325.167,289.787 315.594,306.577 301.792,321.996 283.729,333.097 260.026,341.572 235.062,345.041 
			211.987,343.944 188.698,338.631 167.79,330.518 146.802,318.635 128.395,299.481 118.304,278.745 117.993,260.634 
			120.254,252.678 109.592,239.528 97.325,227.05 88.052,216.255 82.004,206.928 75.309,206.809 76.695,184.976 79.912,163.474 
			85.541,140.678 92.243,119.683 103.629,96.423 119.425,76.252 139.478,59.21 161.129,46.685 186.101,37.344 211.253,32.072 
			236.643,30.281 259.701,31.706 274.941,34.732 287.786,40.709 		"/>
		<polygon style="fill-rule:evenodd;clip-rule:evenodd;fill:#F8D63F;" points="211.739,250.965 217.856,256.18 225.395,257.83 
			232.754,256.802 235.581,251.147 241.665,252.387 245.342,246.533 243.497,237.306 239.506,231.323 233.293,228.892 
			225.305,233.297 219.225,229.453 210.531,233.93 205.14,241.784 206.127,250.272 211.739,250.965 		"/>
		<polygon style="fill-rule:evenodd;clip-rule:evenodd;" points="277.469,214.963 292.916,209.217 307.239,208.688 321.03,212.346 
			322.379,195.303 309.411,188.019 291.629,178.053 297.947,165.724 308.928,153.727 317.504,146.178 314.577,139.419 
			301.168,133.772 287.251,134.643 275.962,141.962 270.647,153.951 270.031,167.711 271.174,182.481 273.821,198.81 
			277.469,214.963 		"/>
		<polygon style="fill-rule:evenodd;clip-rule:evenodd;" points="166.226,208.658 154.891,206.933 141.794,208.668 131.278,212.87 
			123.803,200.278 118.541,183.705 116.112,162.634 118.613,145.486 126.37,133.334 139.895,127.807 154.252,130.731 
			163.184,137.979 164.879,143.178 152.774,152.068 141.951,162.579 135.629,170.178 145.676,177.498 157.379,183.302 
			170.504,188.928 168.499,198.84 166.226,208.658 		"/>
		<polygon style="fill-rule:evenodd;clip-rule:evenodd;fill:#E085AD;" points="88.619,313.404 101.157,312.115 116.173,311.647 
			129.259,311.908 138.254,312.302 130.876,303.022 123.326,291.083 122.376,278.89 122.376,265.365 120.861,254.149 
			111.49,241.469 100.489,230.351 89.643,218.106 82.004,206.928 74.988,206.61 74.653,221.32 75.271,237.878 76.735,255.287 
			79.356,274.635 82.425,291.052 85.124,301.763 88.619,313.404 		"/>
		<polygon style="fill-rule:evenodd;clip-rule:evenodd;fill:#81CECE;" points="176.129,259.114 183.629,264.771 192.434,270.631 
			201.803,275.194 211.487,275.793 222.254,268.802 231.151,273.374 240.961,272.342 250.565,266.388 259.419,260.711 
			270.793,255.33 278.606,253.022 280.506,260.779 279.106,270.221 273.067,275.12 267.91,276.584 262.077,282.892 253.358,284.452 
			249.16,283.521 240.717,289.601 232.542,289.621 227.972,287.46 220.28,292.391 210.109,290.72 203.972,287.084 196.45,288.96 
			188.588,285.568 184.097,281.084 176.556,279.979 171.833,272.467 176.129,259.114 		"/>
		<polygon style="fill-rule:evenodd;clip-rule:evenodd;fill:#F8D63F;" points="213.17,305.43 217.259,300.93 220.28,292.391 
			210.109,290.72 203.972,287.084 196.45,288.96 189.536,292.832 194.759,301.454 200.77,303.32 213.17,305.43 		"/>
		<polygon style="fill-rule:evenodd;clip-rule:evenodd;fill:#49B37E;" points="226.754,310.802 234.374,306.759 242.095,306.164 
			242.85,301.325 236.863,296.621 229.317,295.016 220.379,298.436 215.214,303.18 221.617,307.23 226.754,310.802 		"/>
		<polygon style="fill-rule:evenodd;clip-rule:evenodd;fill:#FFFFFF;" points="162.629,311.177 168.073,304.327 173.677,296.536 
			179.236,291.391 186.671,290.902 192.147,297.143 196.201,301.901 203.535,305.632 211.29,305.579 220.152,306.606 
			226.754,310.802 235.469,306.458 243.486,306.453 248.129,308.552 255.444,302.255 262.67,301.173 269.691,295.475 
			277.612,294.275 284.354,297.772 288.722,301.07 295.645,306.563 288.235,312.105 278.11,317.738 262.899,323.427 
			248.086,326.742 234.61,328.273 216.922,328.272 199.52,325.745 184.963,321.638 172.666,316.63 162.629,311.177 		"/>
		<polygon style="fill-rule:evenodd;clip-rule:evenodd;fill:#E085AD;" points="237.545,290.214 236.863,296.621 247.137,306.944 
			253.956,303.005 262.67,301.173 268.256,296.322 276.523,294.074 284.354,297.772 290.316,302.177 295.645,306.563 
			304.333,296.881 310.131,285.381 311.62,274.737 308.086,263.469 298.364,254.657 287.458,252.139 277.264,253.327 
			280.842,264.057 279.106,270.221 273.067,275.12 267.19,277.936 259.991,283.823 252.304,284.301 244.938,286.561 
			237.545,290.214 		"/>
		<polygon style="fill-rule:evenodd;clip-rule:evenodd;fill:#F8D63F;" points="162.629,311.177 168.073,304.327 173.677,296.536 
			179.236,291.391 185.523,290.466 188.588,285.568 184.097,281.084 177.772,280.157 172.944,274.232 171.91,265.71 175.94,259 
			163.996,254.131 150.066,255.531 142.771,264.363 140.545,276.455 143.373,288.181 148.604,297.573 155.289,305.306 
			162.629,311.177 		"/>
		
			<path style="fill:none;stroke:#000000;stroke-width:8.5039;stroke-linecap:round;stroke-linejoin:round;stroke-miterlimit:22.9256;" d="
			M95.8,74.335c-3.65-3.239-30.765-27.626-61.514-36.251"/>
		
			<path style="fill:none;stroke:#000000;stroke-width:8.5039;stroke-linecap:round;stroke-linejoin:round;stroke-miterlimit:22.9256;" d="
			M4.286,71.084c0,0-2.25-36.75,30-33"/>
		
			<path style="fill:none;stroke:#000000;stroke-width:8.5039;stroke-linecap:round;stroke-linejoin:round;stroke-miterlimit:22.9256;" d="
			M60.643,170.178c0,0-55.607-27.468-56.357-99.093"/>
		
			<path style="fill:none;stroke:#000000;stroke-width:8.5039;stroke-linecap:round;stroke-linejoin:round;stroke-miterlimit:22.9256;" d="
			M63.536,186.209c0,0-2.625-65.625,51.75-131.625"/>
		
			<path style="fill:none;stroke:#000000;stroke-width:8.5039;stroke-linecap:round;stroke-linejoin:round;stroke-miterlimit:22.9256;" d="
			M87.535,62.834c26.251-34.125,111.233-91.263,194.108-34.638"/>
		
			<path style="fill:none;stroke:#000000;stroke-width:8.5039;stroke-linecap:round;stroke-linejoin:round;stroke-miterlimit:22.9256;" d="
			M35.036,52.709c0,0,39.049,27.718,33.049,48.344c-6,20.625-27.05,17.656-12.05,43.906"/>
		
			<path style="fill:none;stroke:#000000;stroke-width:8.5039;stroke-linecap:round;stroke-linejoin:round;stroke-miterlimit:22.9256;" d="
			M288.976,45.53c-12.375-12.75-118.005-31.528-176.543,38.476C75.02,128.746,58.064,243.381,96.161,335.459"/>
		
			<path style="fill:none;stroke:#000000;stroke-width:8.5039;stroke-linecap:round;stroke-linejoin:round;stroke-miterlimit:22.9256;" d="
			M42.16,316.71c0,0,26.625,23.249,54,18.749"/>
		
			<path style="fill:none;stroke:#000000;stroke-width:8.5039;stroke-linecap:round;stroke-linejoin:round;stroke-miterlimit:22.9256;" d="
			M43.746,158.267c0,0-19.211,52.692-1.585,158.442"/>
		
			<path style="fill:none;stroke:#000000;stroke-width:8.5039;stroke-linecap:round;stroke-linejoin:round;stroke-miterlimit:22.9256;" d="
			M281.643,28.196c0,0,19.268,14.013,26.018,38.763"/>
		
			<path style="fill:none;stroke:#000000;stroke-width:8.5039;stroke-linecap:round;stroke-linejoin:round;stroke-miterlimit:22.9256;" d="
			M307.661,64.196c0,0,25.315-3.667,35.25,18.138"/>
		
			<path style="fill:none;stroke:#000000;stroke-width:8.5039;stroke-linecap:round;stroke-linejoin:round;stroke-miterlimit:22.9256;" d="
			M269.786,57.209c0,0,53.681,3.046,75.942,71.44c18.71,57.482,13.533,130.45,0.415,222.884"/>
		
			<path style="fill:none;stroke:#000000;stroke-width:8.5039;stroke-linecap:round;stroke-linejoin:round;stroke-miterlimit:22.9256;" d="
			M367.661,335.459c6.629-103.212,29.25-176.625-30.375-253.875"/>
		
			<path style="fill:none;stroke:#000000;stroke-width:8.5039;stroke-linecap:round;stroke-linejoin:round;stroke-miterlimit:22.9256;" d="
			M347.393,351.533c0,0,13.518-2.574,20.268-16.074"/>
		
			<path style="fill:none;stroke:#000000;stroke-width:8.5039;stroke-linecap:round;stroke-linejoin:round;stroke-miterlimit:22.9256;" d="
			M342.911,82.334c0,0,35.25-27,72.75-33.75"/>
		
			<path style="fill:none;stroke:#000000;stroke-width:8.5039;stroke-linecap:round;stroke-linejoin:round;stroke-miterlimit:22.9256;" d="
			M444.161,90.959c2.25-10.5-1.5-49.125-28.5-42.375"/>
		
			<path style="fill:none;stroke:#000000;stroke-width:8.5039;stroke-linecap:round;stroke-linejoin:round;stroke-miterlimit:22.9256;" d="
			M375.383,172.5c13.125-1.874,60.715-30.166,68.777-81.541"/>
		
			<path style="fill:none;stroke:#000000;stroke-width:8.5039;stroke-linecap:round;stroke-linejoin:round;stroke-miterlimit:22.9256;" d="
			M385.143,145.035c3.188-5.251,6.977-21.22-7.975-31.595c-17.972-12.47,10.975-47.981,42.898-43.763"/>
		
			<path style="fill:none;stroke:#000000;stroke-width:8.5039;stroke-linecap:round;stroke-linejoin:round;stroke-miterlimit:22.9256;" d="
			M88.209,313.465c18.804-2.774,38.721-1.685,50.045-1.162"/>
		
			<path style="fill:none;stroke:#000000;stroke-width:8.5039;stroke-linecap:round;stroke-linejoin:round;stroke-miterlimit:22.9256;" d="
			M301.004,322.802c0,0,22.046-5.419,48.336,6.478"/>
		
			<path style="fill:none;stroke:#000000;stroke-width:8.5039;stroke-linecap:round;stroke-linejoin:round;stroke-miterlimit:22.9256;" d="
			M301.004,322.802c0,0,22.046-5.419,48.336,6.478"/>
		
			<path style="fill:none;stroke:#000000;stroke-width:8.5039;stroke-linecap:round;stroke-linejoin:round;stroke-miterlimit:22.9256;" d="
			M287.879,236.553c17.625-10.5,72.578,33.037,13.125,86.25"/>
		
			<path style="fill:none;stroke:#000000;stroke-width:8.5039;stroke-linecap:round;stroke-linejoin:round;stroke-miterlimit:22.9256;" d="
			M324.901,258.194c0,0,26.778-18.618,32.445-49.673"/>
		
			<path style="fill:none;stroke:#000000;stroke-width:8.5039;stroke-linecap:round;stroke-linejoin:round;stroke-miterlimit:22.9256;" d="
			M78.143,201.865c21.486,38,29.408,35.623,45.552,52.266"/>
		
			<path style="fill:none;stroke:#000000;stroke-width:8.5039;stroke-linecap:round;stroke-linejoin:round;stroke-miterlimit:22.9256;" d="
			M165.254,236.928c-15-11.062-69.454,15.212-27,75.375"/>
		
			<path style="fill:none;stroke:#000000;stroke-width:8.5039;stroke-linecap:round;stroke-linejoin:round;stroke-miterlimit:22.9256;" d="
			M301.004,322.802c-11.312,8.274-41.238,26.413-86.04,21.509c-22.034-2.412-52.975-12.846-76.71-32.009"/>
		
			<path style="fill:none;stroke:#000000;stroke-width:8.5039;stroke-linecap:round;stroke-linejoin:round;stroke-miterlimit:22.9256;" d="
			M99.629,118.802c10.125-6.75,47.591-20.349,80.048,2.728c26.304,18.701,33.953,68.898,32.077,111.273"/>
		
			<path style="fill:none;stroke:#000000;stroke-width:8.5039;stroke-linecap:round;stroke-linejoin:round;stroke-miterlimit:22.9256;" d="
			M234.254,229.053c-0.661-27.6-7.882-63.752,15.611-91.784c20.156-24.049,58.92-41.06,92.625-17.585"/>
		
			<path style="fill:none;stroke:#000000;stroke-width:8.5039;stroke-linecap:round;stroke-linejoin:round;stroke-miterlimit:22.9256;" d="
			M118.379,221.928c0,0,33.75-33.75,70.124,0"/>
		
			<path style="fill:none;stroke:#000000;stroke-width:8.5039;stroke-linecap:round;stroke-linejoin:round;stroke-miterlimit:22.9256;" d="
			M265.754,223.803c0,0,28.875-31.5,67.875-4.5"/>
		
			<path style="fill:none;stroke:#000000;stroke-width:8.5039;stroke-linecap:round;stroke-linejoin:round;stroke-miterlimit:22.9256;" d="
			M164.879,143.178c0.375-13.5-40.058-30.197-48,8.624"/>
		
			<path style="fill:none;stroke:#000000;stroke-width:8.5039;stroke-linecap:round;stroke-linejoin:round;stroke-miterlimit:22.9256;" d="
			M131.278,212.87c-9.375-10.5-17.791-38.56-14.4-61.068"/>
		
			<path style="fill:none;stroke:#000000;stroke-width:8.5039;stroke-linecap:round;stroke-linejoin:round;stroke-miterlimit:22.9256;" d="
			M170.504,188.928c0,0-2.546,15.315-5.21,19.471"/>
		
			<path style="fill:none;stroke:#000000;stroke-width:8.5039;stroke-linecap:round;stroke-linejoin:round;stroke-miterlimit:22.9256;" d="
			M135.629,170.178c0,0,11.625-16.125,29.25-27"/>
		
			<path style="fill:none;stroke:#000000;stroke-width:8.5039;stroke-linecap:round;stroke-linejoin:round;stroke-miterlimit:22.9256;" d="
			M170.504,188.928c0,0-30.375-12-34.875-18.75"/>
		
			<path style="fill:none;stroke:#000000;stroke-width:8.5039;stroke-linecap:round;stroke-linejoin:round;stroke-miterlimit:22.9256;" d="
			M317.504,146.178c2.25-13.5-43.561-24.095-47.25,10.5"/>
		
			<path style="fill:none;stroke:#000000;stroke-width:8.5039;stroke-linecap:round;stroke-linejoin:round;stroke-miterlimit:22.9256;" d="
			M277.469,214.963c-2.279-9.409-8.893-35.432-7.215-58.285 M322.379,195.303c0,0,1.051,10.086-1.35,17.043 M291.629,178.053
			c0,0,18.75,10.499,30.75,17.25 M317.504,146.178c0,0-23.626,18.75-25.875,31.875 M327.254,119.177c0,0-5.527,13.929-15.154,18.387
			 M299.692,108.464c0,0-0.358,21.729-6.273,25.034 M274.241,120.396c0,0,7.057,12.038,7.16,16.848 M262.004,131.928
			c2.243,3.988,7.527,10.415,11.982,12.84 M100.753,130.427c0,0,4.219,10.243,17.86,15.059 M110.879,122.177
			c0,0,6.187,11.29,12.281,14.645 M129.629,114.677c0,0,1.913,10.925,8.269,13.337 M149.504,116.927c0,0-1.332,6.326,2.709,12.913
			 M214.754,254.178c0,0,6,6,18.001,2.625 M225.629,233.928c0,0,1.501-6.375,8.626-4.875 M211.754,232.803
			c0,0,9.375-8.25,13.875,1.125 M234.254,229.053c11.906,2.25,16.781,29.155,0,21.375 M215.129,247.053
			c-6,11.625-18.749-0.75-3.375-14.25 M163.905,306.944c4.261-4.477,14.071-24.29,31.724-5.892 M223.385,257.704
			c0,0-0.227,8.391,0.898,12.141 M247.379,268.802c0,0-13.125,10.875-25.125,0 M198.629,274.052c0,0,14.626,7.124,23.626-5.25
			 M247.379,268.802c0,0,36.9-30.496,58.125-9 M301.004,301.427c5.064-6.491,18.441-24.568,4.5-41.625 M183.643,306.944
			c0,0,12.735-11.517,21.361,0.483 M226.754,310.802c0,0-8.626-9.375-21.751-3.375 M248.129,308.552c0,0-9-7.125-21.375,2.25
			 M271.754,304.427c0,0-13.875-9.75-23.625,4.125 M292.975,305.43c-3.999-10.413-17.262-18.199-30.305-4.257 M162.629,311.177
			c0,0,25.381,17.016,61.495,17.391c22.616,0.234,56.568-5.307,76.881-27.141 M140.879,279.677
			c-1.52-6.676,1.124-33.75,27.749-24.187 M162.629,311.177c-8.545-5.55-19.184-16.922-21.749-31.5 M198.629,274.052
			c-17.812-9.188-16.781-13.407-30-18.562 M171.833,260.008c0,0-6.54,19.534,12.264,21.076 M203.972,287.084
			c0,0-9.188,7.125-19.875-6 M227.972,287.46c0,0-7.125,11.812-24-0.376 M249.16,283.521c0,0-8.625,12.001-21.188,3.938
			 M267.91,276.584c0,0-4.688,11.438-18.75,6.938 M280.506,255.865c0,0,7.088,23.025-12.597,20.719 M213.17,305.43
			c0,0,17.991-25.472,34.959,3.123"/>
	</g>
</g>
<g id="n0703">
	<g>
		
			<path style="fill:none;stroke:#000000;stroke-width:8.5039;stroke-linecap:round;stroke-linejoin:round;stroke-miterlimit:22.9256;" d="
			M131.081,80.734c0,0,36.44-15.585,59.488,10.317"/>
		
			<path style="fill:none;stroke:#000000;stroke-width:8.5039;stroke-linecap:round;stroke-linejoin:round;stroke-miterlimit:22.9256;" d="
			M253.394,97.911c0,0,20.785-23.991,52.32-9.918"/>
	</g>
</g>
</svg>
