<svg version="1.1" xmlns="http://www.w3.org/2000/svg" xmlns:xlink="http://www.w3.org/1999/xlink" x="0px" y="0px"
	 viewBox="0 0 315.77 529.708" style="enable-background:new 0 0 315.77 529.708;" xml:space="preserve">
<g id="n0901">
	<g>
		<polygon style="fill-rule:evenodd;clip-rule:evenodd;fill:#E085AD;" points="68.418,119.377 64.293,112.252 60.029,98.796 
			57.773,81.176 59.109,65.338 63.359,52.017 68.934,41.428 72.195,41.138 75.543,43.439 77.156,49.019 81.967,57.059 75.73,62.002 
			78.367,68.201 79.896,75.193 80.775,82.75 81.145,89.446 81.23,97.3 81.045,104.457 80.727,110.009 75.75,114.613 68.418,119.377 
					"/>
		<polygon style="fill-rule:evenodd;clip-rule:evenodd;fill:#FFFFFF;" points="99.504,103.744 97.48,96.314 97.82,88.702 
			96.52,80.444 93.068,72.23 88.215,65.032 81.967,57.059 76.367,63.501 78.367,68.201 79.896,75.193 80.973,85.623 81.205,94.864 
			81.094,102.562 80.719,111.877 88.52,108.137 99.504,103.744 		"/>
		<polygon style="fill-rule:evenodd;clip-rule:evenodd;fill:#49B87D;" points="144.717,80.638 133.195,80.8 116.984,83.633 
			106.976,86.557 97.82,88.702 97.48,96.314 100.057,103.546 109.09,100.597 119.158,97.945 129.266,96.062 141.941,95.709 
			145.691,88.934 148.74,86.51 144.717,80.638 		"/>
		<path style="fill-rule:evenodd;clip-rule:evenodd;fill:#FFFFFF;" d="M159.168,4.252l-3.797,10.611l-3.945,11.32l-1.916,8.601
			l2.533,9.969l-5.127,6.222l-1.057,7.398l2.371,8.547l-3.322,5.618c0,0-0.699,9.177-0.541,8.077c0.158-1.101,2.85,7.108,2.85,7.108
			l-5.275,7.987l-0.789,11.242l0.766,9.051l-4.5,10.5l9.443-0.438l9.418-1.662l11.818-3.823l6.883-5.646l3.57-8.432l-0.338-8.585
			l-2.567-11.203l-2.416-10.274l-1.916-5.457l2.602-6.247l-1.135-6.573l-4.848-5.401l3.766-7.526l-2.84-9.405l-1.885-9.138
			l-2.73-9.097l-2.939-8.118L159.168,4.252L159.168,4.252z"/>
		<polygon style="fill-rule:evenodd;clip-rule:evenodd;fill:#4AB47F;" points="178.381,102.209 186.393,102.297 196.637,106.729 
			208.494,113.144 218.529,119.965 228.361,128.727 236.008,138.657 240.889,150.264 243.92,163.966 245.16,176.372 245.34,191.326 
			244.561,204.789 242.988,218.651 240.746,232.167 237.633,246.802 234.061,262.93 233.043,279.503 227.037,351.552 
			250.742,334.628 254.557,341.802 256.152,348.315 256.152,348.315 264.254,339.608 270.553,347.211 270.348,357.733 
			265.121,369.961 271.725,374.758 279.611,366.862 288.453,358.049 293.629,346.636 295.469,331.938 295.767,316.968 
			294.652,301.338 288.982,285.136 279.348,272.35 269.16,262.875 259.506,254.921 253.896,247.093 253.502,236.654 
			258.217,225.713 263.697,215.46 266.77,202.599 267.139,184.441 263.398,162.05 257.449,143.974 249.785,128.998 240.492,119.58 
			228.58,109.409 220.219,104.162 222.643,96.402 212.502,94.682 199.529,95.175 193.668,96.127 190.105,89.002 185.352,85.976 
			179.312,83.151 175.414,83.723 176.93,92.315 178.381,102.209 		"/>
		<polygon style="fill-rule:evenodd;clip-rule:evenodd;fill:#F9D740;" points="239.09,60.132 245.98,64.814 243.783,73.927 
			242.412,85.018 242.354,97.756 243.527,108.062 245.826,118.104 242.264,121.427 234.535,114.495 224.4,106.785 219.168,103.627 
			224.043,96.877 224.498,87.97 227.275,78.216 232.752,68.604 239.09,60.132 		"/>
		<path style="fill-rule:evenodd;clip-rule:evenodd;fill:#E085AD;" d="M249.785,128.998l5.945-2.496l4.936-4.403l4.971-10.629
			l1.672-8.898l0.467-12.88l-0.938-11.396l-2.896-14.803l-4.318-12.492l-5.018-8.5l-3.594-2.871l-2.969,3.245l-2.172,6.432
			l-3.527,6.26l-3.254,4.564l6.891,4.682l-2.197,9.112l-1.107,8.966c0,0-0.297,9.424-0.293,8.495s0.363,11.048,0.363,11.048
			l1.27,8.264l2.338,9.154L249.785,128.998L249.785,128.998z"/>
		<polygon style="fill-rule:evenodd;clip-rule:evenodd;fill:#67559E;" points="141.941,95.709 141.418,103.184 141.699,112.486 
			140.756,117.566 137.064,127.135 149.113,125.667 162.189,122.491 172.662,116.835 176.547,112.527 182.98,114.502 
			181.045,122.407 173.754,133.313 163.27,140.756 143.365,146.601 127.898,147.565 112.527,147.055 98.303,148.177 84.892,151.943 
			71.811,160.037 63.562,170.02 58.16,183.877 57.377,197.712 62.965,210.275 73.305,222.378 79.936,232.278 82.592,245.267 
			87.42,254.695 85.629,267.915 83.939,277.115 82.762,282.972 264.254,339.608 264.124,356.643 221.329,400.357 221.392,417.607 
			221.44,433.729 221.44,511.029 201.535,511.36 147.714,487.296 128.236,490.685 117.539,493.672 108.17,496.33 100.646,493.804 
			88.928,493.193 78.387,494.54 66.875,491.478 56.711,484.694 44.973,474.873 40.168,463.795 40.543,458.151 33.545,453.858 
			26.447,445.853 24.402,441.816 29.721,438.123 34.037,432.238 35.418,424.628 34.41,411.315 34.471,400.822 38.115,388.774 
			30.449,388.347 21.066,376.512 12.736,362.446 7.047,348.094 4.371,333.434 5.172,319.707 8.857,308.053 14.701,298.06 
			21.816,289.815 29.963,281.353 33.008,273.673 30.449,261.597 23.56,247.557 20.488,232.01 21.594,216.236 25.348,203.411 
			31.93,190.077 37.851,181.473 42.521,179.321 41.889,166.96 43.15,153.31 47.385,141.518 54.32,131.825 64.709,122.189 
			75.75,114.613 89.514,107.74 103.572,102.335 119.158,97.945 131.35,95.799 141.941,95.709 		"/>
		<polygon style="fill-rule:evenodd;clip-rule:evenodd;fill:#4AB47F;" points="76.285,156.559 78.92,162.091 76.785,170.589 
			76.176,182.521 77.012,192.332 79.305,205.058 81.961,217.063 85.451,229.986 79.936,232.278 75.35,225.43 66.965,214.958 
			60.932,207.424 57.377,197.712 58.455,182.596 62.439,172.02 69.906,161.837 76.285,156.559 		"/>
		<path style="fill-rule:evenodd;clip-rule:evenodd;fill:#F9D740;" d="M135.633,147.083l0.861,7.897l0.504,14.978l-0.166,14.42
			l-1.223,14.571l-2.387,13.05l-2.303,13.43l0.619,5.865l-8.414,2.145l-9.322,6.886l-5.357,8.778l-2.27,11.789l0.68,8.483
			l10.981,36.935l-19.44,1.354l-22.56,5.312l6.926-30.005l1.717-8.798l2.045-12.869l1.182-10.733l-0.205-9.456l-2.43-12.637
			l-4.498-17.69l-3.252-16.303l-0.961-15.555l1.494-12.592l0.498-10.35l6.541-4.047l10.992-3.317l16.643-1.571l10.75,0.409
			C123.277,147.464,135.662,147.36,135.633,147.083L135.633,147.083z"/>
		<polygon style="fill-rule:evenodd;clip-rule:evenodd;" points="96.25,228.124 109.199,227.466 109.441,214.773 109.1,205.624 
			100.926,198.799 95.238,192.642 101.992,185.367 109.762,178.534 109.883,168.063 108.088,163.872 103.205,161.126 
			97.258,163.111 94.574,171.034 94.574,179.708 96.25,228.124 		"/>
		<path style="fill-rule:evenodd;clip-rule:evenodd;fill:#FFFFFF;" d="M108.516,279.294l-1.281-7.655l-1.059-10.747l2.27-11.789
			c0,0,4.248-7.535,5.357-8.778c1.111-1.243,9.322-6.886,9.322-6.886l7.545-3.015l1.4-11.71l2.346-13.24l2.129-15.859l0.484-14.499
			l-0.324-15.559l-0.65-12.193l13.029-1.769l12.148-4.242l12.522-8.041l7.291-10.906l1.935-7.905l-6.215-3.785
			c0,0,1.027-8.514,2.004-8.503c0.977,0.01,6.648-0.274,6.648-0.274l11.219,4.789l9.568,5.057l10.377,6.726l11.779,10.215
			l8.996,12.335l5.047,16.053l2.135,13.054l0.875,16.008l-0.537,14.566l-2.068,19.168l-3.016,16.842l-3.947,18.114l-2.371,11.497
			l-0.432,13.14l-11.488-0.962l-14.809,1.211l-11.334,2.715l-12.48,5.899l-9.715,3.447l-10.143,2.529l-11.695-3.266l-9.094-4.939
			l-12.553-5.762l-11.482-1.833L108.516,279.294L108.516,279.294z"/>
		<polygon style="fill-rule:evenodd;clip-rule:evenodd;" points="216.135,230.751 223.75,231.843 227.797,219.098 230.029,207.649 
			227.932,200.241 220.393,193.709 217.201,188.517 226.094,182.299 232.361,177.605 233.197,168.373 231.412,161.61 
			227.289,160.059 221.574,164.692 219.604,171.886 218.494,178.939 215.609,205.132 215.195,218.794 216.135,230.751 		"/>
		<path style="fill-rule:evenodd;clip-rule:evenodd;fill:#5FF2E5;" d="M177.363,83.437l7.988,2.539l4.754,3.026l3.563,7.125
			l8.611-1.243l12.27-0.045l8.094,1.563l-2.424,7.76l9.248,6.478l11.129,9.045l9.189,9.312l5.883,11.327l-7.916,4.177l-7.022,5.25
			l-4.723-11.095l-6.84-9.065l-8.605-8.029l-10.682-7.565l-10.051-5.684l-11.348-5.199l-3.064-1.175l-6.598,0.274l-1.383-6.43
			l-1.266-7.765C176.172,88.019,177.604,83.513,177.363,83.437L177.363,83.437z"/>
		<polygon style="fill-rule:evenodd;clip-rule:evenodd;fill:#E085AD;" points="261.703,219.191 267.377,222.66 266.41,233.991 
			267.492,244.292 274.838,254.784 286.756,263.176 298.227,273.729 306.533,286.549 310.51,298.663 311.517,308.803 
			310.195,317.604 303.267,329.108 295.613,328.808 295.767,316.968 294.232,300.139 290.324,287.561 281.131,274.717 
			273.396,266.536 261.488,256.624 254.703,248.218 253.502,236.654 258.217,225.713 261.703,219.191 		"/>
		<path style="fill-rule:evenodd;clip-rule:evenodd;fill:#67559E;" d="M192.535,399.823l12.439-2.764l12.844-4.717l14.838-8.835
			l11.984-10.943l8.693-10.972l6.365-10.802l4.555-11.183l5.234,1.159l1.025,8.441l0.062,6.938l-2.842,7.7l-5.521,9.596
			l-8.252,7.884c0,0-7.93,5.929-6.998,6.509c0.933,0.581-3.701,11.145-3.701,11.145l-2.875,11.354l-0.643,16.223l1.543,12.945
			l2.545,12.49l3.098,11.901l1.979,7.122l1.629,9.684l0.016,8.295l-4.312,12.279l-9.15,7.217l-11.488,2.703l-9.381-0.059
			l-6.664-0.959l5.205-5.825l2.531-3.408l-2.4-6.934l-7.566-9.781l-8.047-10.902l-3.756-14.745l-1.652-16.409l-0.547-13.828
			l-0.359-13.502L192.535,399.823L192.535,399.823z"/>
		<path style="fill-rule:evenodd;clip-rule:evenodd;fill:#5FF2E5;" d="M264.975,368.645l7.172,5.549l-2.902,6.031l2.641,7.473
			l7.15,7.791l5.053,7.644l3.588,9.166l0.98,10.031l-1.514,8.417l-3.369,7.81l-8.32,11.135l-8.959,7.689l-9.254,4.169l-10.65,1.284
			l-2.758-10.842l-2.953-15.047l-1.287-14.05l1.305-15.386l5.193-15.575l6.541-9.306l8.033-7.707
			C260.664,374.921,265.674,369.187,264.975,368.645L264.975,368.645z"/>
		
			<path style="fill:none;stroke:#000000;stroke-width:8.5039;stroke-linecap:round;stroke-linejoin:round;stroke-miterlimit:22.9256;" d="
			M97.48,96.314c3.562-28.312-19.125-35.062-21.938-52.875"/>
		
			<path style="fill:none;stroke:#000000;stroke-width:8.5039;stroke-linecap:round;stroke-linejoin:round;stroke-miterlimit:22.9256;" d="
			M65.502,119.377c0,0-21.333-42.938,2.728-76.126"/>
		
			<path style="fill:none;stroke:#000000;stroke-width:8.5039;stroke-linecap:round;stroke-linejoin:round;stroke-miterlimit:22.9256;" d="
			M75.543,43.439c-0.188-2.25-3.75-3.75-7.312-0.188"/>
		
			<path style="fill:none;stroke:#000000;stroke-width:8.5039;stroke-linecap:round;stroke-linejoin:round;stroke-miterlimit:22.9256;" d="
			M80.727,110.009c0,0,2.879-35.444-4.996-48.007"/>
		
			<path style="fill:none;stroke:#000000;stroke-width:8.5039;stroke-linecap:round;stroke-linejoin:round;stroke-miterlimit:22.9256;" d="
			M145.293,82.814c0,0-4.5-12.188,6-18.188s16.125-11.438,16.125-11.438s9.187-6.562,0.75-18.375"/>
		
			<path style="fill:none;stroke:#000000;stroke-width:8.5039;stroke-linecap:round;stroke-linejoin:round;stroke-miterlimit:22.9256;" d="
			M146.23,61.814c0,0-2.625-12.188,5.813-17.062c8.437-4.875,14.062-8.625,16.125-9.938"/>
		
			<path style="fill:none;stroke:#000000;stroke-width:8.5039;stroke-linecap:round;stroke-linejoin:round;stroke-miterlimit:22.9256;" d="
			M153.514,43.897c-7.312-7.312-4.203-11.667,5.654-39.645"/>
		
			<path style="fill:none;stroke:#000000;stroke-width:8.5039;stroke-linecap:round;stroke-linejoin:round;stroke-miterlimit:22.9256;" d="
			M168.168,34.814c0.562-5.25-5.25-21.938-9-30.562"/>
		
			<path style="fill:none;stroke:#000000;stroke-width:8.5039;stroke-linecap:round;stroke-linejoin:round;stroke-miterlimit:22.9256;" d="
			M169.48,53.564c-1.158-1.168,13.152,10.749-3.937,22.875c-5.781,4.102-7.932,4.796-12.75,7.688
			c-4.818,2.892-11.438,5.251-11.625,17.812c-0.188,12.562,0.75,14.062,0.75,14.062"/>
		
			<path style="fill:none;stroke:#000000;stroke-width:8.5039;stroke-linecap:round;stroke-linejoin:round;stroke-miterlimit:22.9256;" d="
			M137.418,126.502c0,0-0.188-9.938,11.062-14.625s15.938-7.5,20.063-10.5s10.687-11.438,4.687-24.938"/>
		
			<path style="fill:none;stroke:#000000;stroke-width:8.5039;stroke-linecap:round;stroke-linejoin:round;stroke-miterlimit:22.9256;" d="
			M198.169,92.092c0,0-13.323-7.365-23.161-10.478"/>
		
			<path style="fill:none;stroke:#000000;stroke-width:8.5039;stroke-linecap:round;stroke-linejoin:round;stroke-miterlimit:22.9256;" d="
			M97.975,89.943c0,0,24.605-10.919,46.742-9.305"/>
		
			<path style="fill:none;stroke:#000000;stroke-width:8.5039;stroke-linecap:round;stroke-linejoin:round;stroke-miterlimit:22.9256;" d="
			M196.241,95.709c0,0,15.052-3.52,27.802,1.168"/>
		
			<path style="fill:none;stroke:#000000;stroke-width:8.5039;stroke-linecap:round;stroke-linejoin:round;stroke-miterlimit:22.9256;" d="
			M248.043,42.876c-4.313,19.313-25.125,26.625-24,54"/>
		
			<path style="fill:none;stroke:#000000;stroke-width:8.5039;stroke-linecap:round;stroke-linejoin:round;stroke-miterlimit:22.9256;" d="
			M254.605,42.502c13.313,16.125,19.826,76.569-0.049,88.007"/>
		
			<path style="fill:none;stroke:#000000;stroke-width:8.5039;stroke-linecap:round;stroke-linejoin:round;stroke-miterlimit:22.9256;" d="
			M248.043,42.876c0.375-2.438,3.146-5.701,6.562-0.375"/>
		
			<path style="fill:none;stroke:#000000;stroke-width:8.5039;stroke-linecap:round;stroke-linejoin:round;stroke-miterlimit:22.9256;" d="
			M175.418,89.844c7.111,15.005,2.506,26.705-9.307,31.669c-6.619,2.78-18.377,4.68-26.699,5.41
			c-13.844,1.214-24.172,2.671-34.807,8.204"/>
		
			<path style="fill:none;stroke:#000000;stroke-width:8.5039;stroke-linecap:round;stroke-linejoin:round;stroke-miterlimit:22.9256;" d="
			M141.941,95.709c-13.312-2.25-52.148,8.105-73.523,23.668c-21.375,15.562-24.344,28.047-25.807,36.876
			c-1.463,8.829-1.568,35.499,8.182,49.749"/>
		
			<path style="fill:none;stroke:#000000;stroke-width:8.5039;stroke-linecap:round;stroke-linejoin:round;stroke-miterlimit:22.9256;" d="
			M245.98,64.814c0,0-12.799,37.444,8.576,73.444"/>
		
			<path style="fill:none;stroke:#000000;stroke-width:8.5039;stroke-linecap:round;stroke-linejoin:round;stroke-miterlimit:22.9256;" d="
			M219.168,103.627c0,0,35.062,16.5,43.875,57.188"/>
		
			<path style="fill:none;stroke:#000000;stroke-width:8.5039;stroke-linecap:round;stroke-linejoin:round;stroke-miterlimit:22.9256;" d="
			M263.043,160.814c0,0,8.062,25.875,2.25,50.063"/>
		
			<path style="fill:none;stroke:#000000;stroke-width:8.5039;stroke-linecap:round;stroke-linejoin:round;stroke-miterlimit:22.9256;" d="
			M182.98,101.471c0,0,49.688,16.969,57.75,48.281"/>
		
			<path style="fill:none;stroke:#000000;stroke-width:8.5039;stroke-linecap:round;stroke-linejoin:round;stroke-miterlimit:22.9256;" d="
			M205.668,132.689c0,0,16.096-9.796,26.143-0.023"/>
		
			<path style="fill:none;stroke:#000000;stroke-width:8.5039;stroke-linecap:round;stroke-linejoin:round;stroke-miterlimit:22.9256;" d="
			M239.793,236.753c0,0,12-51.75,0.937-87.001"/>
		
			<path style="fill:none;stroke:#000000;stroke-width:8.5039;stroke-linecap:round;stroke-linejoin:round;stroke-miterlimit:22.9256;" d="
			M248.793,143.939c-6.188,3.188-11.438,8.625-16.688,19.312"/>
		
			<path style="fill:none;stroke:#000000;stroke-width:8.5039;stroke-linecap:round;stroke-linejoin:round;stroke-miterlimit:22.9256;" d="
			M233.043,279.503c-0.563-14.625,0.949-14.926,6.75-42.75"/>
		
			<path style="fill:none;stroke:#000000;stroke-width:8.5039;stroke-linecap:round;stroke-linejoin:round;stroke-miterlimit:22.9256;" d="
			M174.168,231.878c0,0,47.812-24.751,44.437,46.688"/>
		
			<path style="fill:none;stroke:#000000;stroke-width:8.5039;stroke-linecap:round;stroke-linejoin:round;stroke-miterlimit:22.9256;" d="
			M146.418,233.565c-5.957-3.404-22.887-4.902-32.615,6.759c-5.275,6.325-13.967,19.985-2.633,44.652"/>
		
			<path style="fill:none;stroke:#000000;stroke-width:8.5039;stroke-linecap:round;stroke-linejoin:round;stroke-miterlimit:22.9256;" d="
			M182.98,114.502c0,0-0.988,36.669-63.416,32.775c-58.57-3.653-64.834,38.663-61.834,52.538"/>
		
			<path style="fill:none;stroke:#000000;stroke-width:8.5039;stroke-linecap:round;stroke-linejoin:round;stroke-miterlimit:22.9256;" d="
			M82.293,247.628c3.75-21.375-22.307-33.348-24.562-47.813"/>
		
			<path style="fill:none;stroke:#000000;stroke-width:8.5039;stroke-linecap:round;stroke-linejoin:round;stroke-miterlimit:22.9256;" d="
			M46.668,248.565c-1.855,9.088,1.664,18.2,10.838,21.088c8.775,2.762,21.578-0.761,24.787-22.026"/>
		
			<path style="fill:none;stroke:#000000;stroke-width:8.5039;stroke-linecap:round;stroke-linejoin:round;stroke-miterlimit:22.9256;" d="
			M136.055,147.364c3.938,60.938-5.309,61.524-5.395,84.035"/>
		
			<path style="fill:none;stroke:#000000;stroke-width:8.5039;stroke-linecap:round;stroke-linejoin:round;stroke-miterlimit:22.9256;" d="
			M86.904,151.155c0,0-16.518,8.253-8.643,48.754s16.908,45.734,0.908,99.068"/>
		
			<path style="fill:none;stroke:#000000;stroke-width:8.5039;stroke-linecap:round;stroke-linejoin:round;stroke-miterlimit:22.9256;" d="
			M117.449,227.846c0,0-15.996-1.721-31.998,2.14"/>
		
			<path style="fill:none;stroke:#000000;stroke-width:8.5039;stroke-linecap:round;stroke-linejoin:round;stroke-miterlimit:22.9256;" d="
			M107.699,164.284c0,0,8.812-9.375,11.062-10.312"/>
		
			<path style="fill:none;stroke:#000000;stroke-width:8.5039;stroke-linecap:round;stroke-linejoin:round;stroke-miterlimit:22.9256;" d="
			M100.082,147.9c0,0,1.242,12.633,1.242,14.696"/>
		
			<path style="fill:none;stroke:#000000;stroke-width:8.5039;stroke-linecap:round;stroke-linejoin:round;stroke-miterlimit:22.9256;" d="
			M84.637,159.034c0,0,8.812,6.75,10.125,8.062"/>
		
			<path style="fill:none;stroke:#000000;stroke-width:8.5039;stroke-linecap:round;stroke-linejoin:round;stroke-miterlimit:22.9256;" d="
			M109.949,169.534c0.32-10.168-15.188-12.938-15.375,1.5"/>
		
			<path style="fill:none;stroke:#000000;stroke-width:8.5039;stroke-linecap:round;stroke-linejoin:round;stroke-miterlimit:22.9256;" d="
			M94.949,192.971c0,0,10.125-11.625,14.812-14.438"/>
		
			<line style="fill:none;stroke:#000000;stroke-width:8.5039;stroke-linecap:round;stroke-linejoin:round;stroke-miterlimit:22.9256;" x1="109.949" y1="169.534" x2="109.762" y2="178.534"/>
		
			<path style="fill:none;stroke:#000000;stroke-width:8.5039;stroke-linecap:round;stroke-linejoin:round;stroke-miterlimit:22.9256;" d="
			M94.574,171.034c0,0-0.209,47.056,1.676,57.09"/>
		
			<path style="fill:none;stroke:#000000;stroke-width:8.5039;stroke-linecap:round;stroke-linejoin:round;stroke-miterlimit:22.9256;" d="
			M109.012,204.784c0,0-11.609-7.597-13.773-12.142"/>
		
			<path style="fill:none;stroke:#000000;stroke-width:8.5039;stroke-linecap:round;stroke-linejoin:round;stroke-miterlimit:22.9256;" d="
			M109.199,227.466c0,0,0.658-15.379-0.188-22.683"/>
		
			<path style="fill:none;stroke:#000000;stroke-width:8.5039;stroke-linecap:round;stroke-linejoin:round;stroke-miterlimit:22.9256;" d="
			M220.012,169.534c1.875-12.001,14.25-13.312,13.125-0.188"/>
		
			<path style="fill:none;stroke:#000000;stroke-width:8.5039;stroke-linecap:round;stroke-linejoin:round;stroke-miterlimit:22.9256;" d="
			M210.074,230.284c0,0,17.812,0.562,29.719,6.469"/>
		
			<path style="fill:none;stroke:#000000;stroke-width:8.5039;stroke-linecap:round;stroke-linejoin:round;stroke-miterlimit:22.9256;" d="
			M220.012,169.534c0,0-7.398,40.515-3.877,61.218"/>
		
			<path style="fill:none;stroke:#000000;stroke-width:8.5039;stroke-linecap:round;stroke-linejoin:round;stroke-miterlimit:22.9256;" d="
			M230.324,205.909c0,0-3.584,22.057-6.574,25.935"/>
		
			<path style="fill:none;stroke:#000000;stroke-width:8.5039;stroke-linecap:round;stroke-linejoin:round;stroke-miterlimit:22.9256;" d="
			M217.201,188.517c0,0,10.498-8.108,14.623-9.046"/>
		
			<path style="fill:none;stroke:#000000;stroke-width:8.5039;stroke-linecap:round;stroke-linejoin:round;stroke-miterlimit:22.9256;" d="
			M233.137,169.346c0,0-0.043,6.9-1.312,10.125"/>
		
			<path style="fill:none;stroke:#000000;stroke-width:8.5039;stroke-linecap:round;stroke-linejoin:round;stroke-miterlimit:22.9256;" d="
			M219.637,142.533c0,0,0.654,12.565,6.514,17.814"/>
		
			<path style="fill:none;stroke:#000000;stroke-width:8.5039;stroke-linecap:round;stroke-linejoin:round;stroke-miterlimit:22.9256;" d="
			M205.387,152.658c0,0,4.566,8.337,16.188,12.034"/>
		
			<path style="fill:none;stroke:#000000;stroke-width:8.5039;stroke-linecap:round;stroke-linejoin:round;stroke-miterlimit:22.9256;" d="
			M216.992,190.268c0,0,9.957,9.641,13.332,15.641"/>
		
			<path style="fill:none;stroke:#000000;stroke-width:8.5039;stroke-linecap:round;stroke-linejoin:round;stroke-miterlimit:22.9256;" d="
			M38.887,180.221c0,0-35.25,39.938-8.438,81.376"/>
		
			<path style="fill:none;stroke:#000000;stroke-width:8.5039;stroke-linecap:round;stroke-linejoin:round;stroke-miterlimit:22.9256;" d="
			M25.762,286.159c0,0,12.938-10.312,4.688-24.562"/>
		
			<path style="fill:none;stroke:#000000;stroke-width:8.5039;stroke-linecap:round;stroke-linejoin:round;stroke-miterlimit:22.9256;" d="
			M35.605,393.977c0,0-63.436-61.798-9.844-107.817"/>
		
			<path style="fill:none;stroke:#000000;stroke-width:8.5039;stroke-linecap:round;stroke-linejoin:round;stroke-miterlimit:22.9256;" d="
			M44.418,282.128c0,14.626,12.187,40.688-6.938,52.5"/>
		
			<path style="fill:none;stroke:#000000;stroke-width:8.5039;stroke-linecap:round;stroke-linejoin:round;stroke-miterlimit:22.9256;" d="
			M31.105,362.003c0,0-10.687-16.125,6.375-27.375"/>
		
			<path style="fill:none;stroke:#000000;stroke-width:8.5039;stroke-linecap:round;stroke-linejoin:round;stroke-miterlimit:22.9256;" d="
			M35.605,398.003c0,0,8.25-13.312-4.5-36"/>
		
			<path style="fill:none;stroke:#000000;stroke-width:8.5039;stroke-linecap:round;stroke-linejoin:round;stroke-miterlimit:22.9256;" d="
			M24.402,441.816c19.434-4.173,6.703-34.063,11.203-43.813"/>
		
			<path style="fill:none;stroke:#000000;stroke-width:8.5039;stroke-linecap:round;stroke-linejoin:round;stroke-miterlimit:22.9256;" d="
			M135.074,241.16c-4.5,0.187-14.813,9.376-11.813,12.188"/>
		
			<path style="fill:none;stroke:#000000;stroke-width:8.5039;stroke-linecap:round;stroke-linejoin:round;stroke-miterlimit:22.9256;" d="
			M135.074,241.16c-4.117,3.294-7.875,15.938-11.813,12.188"/>
		
			<path style="fill:none;stroke:#000000;stroke-width:8.5039;stroke-linecap:round;stroke-linejoin:round;stroke-miterlimit:22.9256;" d="
			M195.262,242.66c2.625-2.251,13.312,12.75,9,15.937"/>
		
			<path style="fill:none;stroke:#000000;stroke-width:8.5039;stroke-linecap:round;stroke-linejoin:round;stroke-miterlimit:22.9256;" d="
			M204.262,258.598c-4.688,2.438-6.75-12.75-9-15.937"/>
		
			<path style="fill:none;stroke:#000000;stroke-width:8.5039;stroke-linecap:round;stroke-linejoin:round;stroke-miterlimit:22.9256;" d="
			M96.543,492.879c6.209,0.775,8.254,3.534,11.627,3.451c8.691-0.214,14.578-7.033,21.738-8.248c0,0,18.104-5.637,37.183,6.462
			c19.078,12.099,31.854,16.496,42.466,15.631c0,0,56.721,13.033,37.033-47.342"/>
		
			<path style="fill:none;stroke:#000000;stroke-width:8.5039;stroke-linecap:round;stroke-linejoin:round;stroke-miterlimit:22.9256;" d="
			M59.043,486.504c0,0,6.861,6.162,16.67,7.795c7.027,1.169,13.281-2.268,20.83-1.42"/>
		
			<path style="fill:none;stroke:#000000;stroke-width:8.5039;stroke-linecap:round;stroke-linejoin:round;stroke-miterlimit:22.9256;" d="
			M24.627,441.701c0,0,0.9,7.257,15.713,17.382"/>
		
			<path style="fill:none;stroke:#000000;stroke-width:8.5039;stroke-linecap:round;stroke-linejoin:round;stroke-miterlimit:22.9256;" d="
			M72.59,414.646c0,0-3.375,20.438,6.938,36.75"/>
		
			<path style="fill:none;stroke:#000000;stroke-width:8.5039;stroke-linecap:round;stroke-linejoin:round;stroke-miterlimit:22.9256;" d="
			M79.527,451.396c0,0,12.975,16.247-5.691,38.247"/>
		
			<path style="fill:none;stroke:#000000;stroke-width:8.5039;stroke-linecap:round;stroke-linejoin:round;stroke-miterlimit:22.9256;" d="
			M40.34,459.083c-1.086,4.737,0.826,10.542,4.633,15.79c3.424,4.721,6.932,5.922,14.07,11.631"/>
		
			<path style="fill:none;stroke:#000000;stroke-width:8.5039;stroke-linecap:round;stroke-linejoin:round;stroke-miterlimit:22.9256;" d="
			M55.34,420.271c-0.842,5.272-2.395,12.556-6.055,19.406c-2.969,5.552-7.26,11.137-8.945,19.406"/>
		
			<path style="fill:none;stroke:#000000;stroke-width:8.5039;stroke-linecap:round;stroke-linejoin:round;stroke-miterlimit:22.9256;" d="
			M51.777,371.521c-8.625,22.688,6.188,34.875,3.562,48.75"/>
		
			<path style="fill:none;stroke:#000000;stroke-width:8.5039;stroke-linecap:round;stroke-linejoin:round;stroke-miterlimit:22.9256;" d="
			M246.66,390.685c-8.438,18.188-10.383,34.273-0.07,72.148"/>
		
			<path style="fill:none;stroke:#000000;stroke-width:8.5039;stroke-linecap:round;stroke-linejoin:round;stroke-miterlimit:22.9256;" d="
			M238.715,464.521c0,0,22.5,0.375,34.5-12.562"/>
		
			<path style="fill:none;stroke:#000000;stroke-width:8.5039;stroke-linecap:round;stroke-linejoin:round;stroke-miterlimit:22.9256;" d="
			M283.34,401.708c1.797,3.671,15.75,25.125-10.125,50.25"/>
		
			<path style="fill:none;stroke:#000000;stroke-width:8.5039;stroke-linecap:round;stroke-linejoin:round;stroke-miterlimit:22.9256;" d="
			M269.277,339.833c7.688,33-15.607,35.891-22.617,50.852"/>
		
			<path style="fill:none;stroke:#000000;stroke-width:8.5039;stroke-linecap:round;stroke-linejoin:round;stroke-miterlimit:22.9256;" d="
			M256.152,251.333c-10.125-14.438,6.281-28.223,9.141-40.455"/>
		
			<path style="fill:none;stroke:#000000;stroke-width:8.5039;stroke-linecap:round;stroke-linejoin:round;stroke-miterlimit:22.9256;" d="
			M291.777,290.521c-10.125-22.125-30.938-32.25-35.625-39.188"/>
		
			<path style="fill:none;stroke:#000000;stroke-width:8.5039;stroke-linecap:round;stroke-linejoin:round;stroke-miterlimit:22.9256;" d="
			M295.152,336.833c0,0,2.812-33.188-3.375-46.312"/>
		
			<path style="fill:none;stroke:#000000;stroke-width:8.5039;stroke-linecap:round;stroke-linejoin:round;stroke-miterlimit:22.9256;" d="
			M280.34,366.271c9.938-8.812,13.125-13.125,14.812-29.438"/>
		
			<path style="fill:none;stroke:#000000;stroke-width:8.5039;stroke-linecap:round;stroke-linejoin:round;stroke-miterlimit:22.9256;" d="
			M283.34,401.708c-7.459-14.432-26.062-16.875-3-35.438"/>
		
			<path style="fill:none;stroke:#000000;stroke-width:8.5039;stroke-linecap:round;stroke-linejoin:round;stroke-miterlimit:22.9256;" d="
			M265.293,210.878c0,0-1.264,17.985,2.543,30.099c1.783,5.68,9.312,15.435,15.785,20.012"/>
		
			<path style="fill:none;stroke:#000000;stroke-width:8.5039;stroke-linecap:round;stroke-linejoin:round;stroke-miterlimit:22.9256;" d="
			M311.01,315.227c0,0,6.549-31.737-27.389-54.238"/>
		
			<path style="fill:none;stroke:#000000;stroke-width:8.5039;stroke-linecap:round;stroke-linejoin:round;stroke-miterlimit:22.9256;" d="
			M297.169,334.31c10.667-6.667,11.815-9.598,13.841-19.083"/>
	</g>
</g>
<g id="n0902">
	<g>
		<polygon style="fill-rule:evenodd;clip-rule:evenodd;fill:#F9D740;" points="139.873,371.024 149.596,372.476 161.084,373.155 
			176.133,372.648 192.535,370.823 192.893,412.01 193.213,424.761 193.529,434.874 184.48,431.191 176.793,438.504 
			167.418,429.691 157.336,436.622 150.914,429.017 139.975,436.021 139.959,425.336 139.918,414.085 139.873,371.024 		"/>
		<polygon style="fill-rule:evenodd;clip-rule:evenodd;fill:#FFFFFF;" points="122.418,500.191 127.332,492.008 132.869,482.011 
			137.762,467.995 139.082,456.509 139.77,444.465 139.975,436.021 150.914,429.017 157.855,437.379 167.418,429.691 
			176.793,438.504 184.48,431.191 193.699,438.877 194.426,449.935 195.883,461.414 199.66,474.661 207.326,484.227 
			213.373,491.671 217.48,498.691 211.223,508.466 199.762,517.854 188.043,523.058 175.178,525.316 159.295,524.254 
			142.762,518.01 131.25,510.265 122.418,500.191 		"/>
		
			<path style="fill:none;stroke:#000000;stroke-width:8.5039;stroke-linecap:round;stroke-linejoin:round;stroke-miterlimit:22.9256;" d="
			M139.873,371.024c0.039,59.653,2.42,102.542-16.705,126.542"/>
		
			<path style="fill:none;stroke:#000000;stroke-width:8.5039;stroke-linecap:round;stroke-linejoin:round;stroke-miterlimit:22.9256;" d="
			M192.535,370.823c1.061,31.428,0.482,81.424,5.129,98.787c3.068,11.459,12.092,13.498,19.816,29.081"/>
		
			<path style="fill:none;stroke:#000000;stroke-width:8.5039;stroke-linecap:round;stroke-linejoin:round;stroke-miterlimit:22.9256;" d="
			M122.418,500.191c1.688,5.438,22.025,24.62,46.478,25.24c19.199,0.487,35.783-6.442,48.397-24.49"/>
		
			<polyline style="fill:none;stroke:#000000;stroke-width:8.5039;stroke-linecap:round;stroke-linejoin:round;stroke-miterlimit:22.9256;" points="
			143.23,435.504 151.668,428.379 157.855,437.379 167.418,429.691 176.793,438.504 184.48,431.191 193.699,438.877 		"/>
		
			<path style="fill:none;stroke:#000000;stroke-width:8.5039;stroke-linecap:round;stroke-linejoin:round;stroke-miterlimit:22.9256;" d="
			M168.309,509.802c0,0,0.826,13.078,0.588,15.63"/>
	</g>
</g>
<g id="n0903">
	<g>
		<polygon style="fill-rule:evenodd;clip-rule:evenodd;fill:#E085AD;" points="161.447,292.255 152.512,289.394 142.285,284.139 
			129.732,278.377 113.383,276.919 98.82,279.651 83.635,286.788 72.35,298.361 66.975,311.818 63.734,327.344 66.645,345.166 
			74.307,361.065 86.504,374.509 100.568,383.681 117.055,391.32 133.803,396.716 150.602,399.58 170.855,399.826 186.412,398.505 
			204.975,395.06 221.273,388.656 233.854,380.414 244.641,370.565 253.334,359.593 261.977,343.2 266.408,328.946 266.639,313.986 
			260.426,299.094 250.713,286.272 238.75,279.881 222.773,276.583 206.746,277.752 188.221,282.881 175.604,288.967 
			161.447,292.255 		"/>
		<path style="fill-rule:evenodd;clip-rule:evenodd;fill:#4AB47F;" d="M120.338,310.663l-10.434-3.082l-10.369,3.002l-5.807,11.584
			l0.547,12.197l7.154,11.763l9.072,7.399c0,0,8.039,2.025,7.551,3.012c-0.486,0.985,4.15-6.592,4.15-6.592l9.621-3.827l9.113,4.188
			l4.217,2.353l7.012-7.168l6.945-4.284l-1.492-5.392l-8.156-0.23l-8.024-0.623l-4.949-4.477l-6.611-0.12l-7.033-4.243l-2.684-7.241
			L120.338,310.663L120.338,310.663z"/>
		<polygon style="fill-rule:evenodd;clip-rule:evenodd;fill:#67559E;" points="172.814,337.235 179.324,332.535 189.592,333.796 
			198.99,330.835 205.705,328.597 212.123,326.599 214.676,319.982 214.096,313.434 212.461,307.565 221.463,305.452 
			230.314,309.279 234.043,314.767 235.262,325.828 233.639,334.082 230.482,342.055 225.668,348.4 216.115,354.905 
			213.574,349.878 207.775,345.71 200.855,347.215 193.949,352.598 187.701,351.843 183.059,344.91 176.998,340.728 
			172.814,337.235 		"/>
		<polygon style="fill-rule:evenodd;clip-rule:evenodd;fill:#60F3E6;" points="120.338,310.663 120.162,318.881 122.846,326.122 
			129.879,330.365 137.479,330.301 141.439,334.962 149.459,337.084 157.949,335.723 169.291,338.112 179.324,332.535 
			189.592,333.796 198.99,330.835 207.213,328.127 214.26,322.794 214.324,314.68 212.643,307.522 202.254,312.385 188.658,317.068 
			174.002,319.566 158.27,319.74 145.455,318.165 131.467,314.759 120.338,310.663 		"/>
		<polygon style="fill-rule:evenodd;clip-rule:evenodd;fill:#E085AD;" points="148.943,351.739 150.527,346.827 157.77,341.866 
			166.727,338.22 174.004,339.599 183.059,344.91 187.701,351.843 179.709,353.043 172.982,355.628 163.225,352.648 
			155.457,351.118 148.943,351.739 		"/>
		<path style="fill-rule:evenodd;clip-rule:evenodd;fill:#FFFFFF;" d="M118.066,356.507l4.137-6.561l7.822-3.818l8.043,2.012
			l5.98,3.903c0,0,8.289-0.973,8.221-0.794c-0.07,0.18,8.791,0.974,8.791,0.974l8.117,3.566c0,0,5.94-0.829,7.168-1.454
			c1.228-0.624,11.355-2.492,11.355-2.492l6.248,0.755l6.906-5.383l8.561-1.174l6.699,8.864l-7.777,4.68l-14.879,3.836l-13.74,2.679
			l-17.318,1.062l-12.219-0.728l-14.201-2.418l-8.969-2.605L118.066,356.507L118.066,356.507z"/>
		
			<path style="fill:none;stroke:#000000;stroke-width:8.5039;stroke-linecap:round;stroke-linejoin:round;stroke-miterlimit:22.9256;" d="
			M149.699,288.285c-12.059-6.069-24.043-17.988-53.572-7.745c-16.002,5.55-31.328,18.357-32.49,48.808"/>
		
			<path style="fill:none;stroke:#000000;stroke-width:8.5039;stroke-linecap:round;stroke-linejoin:round;stroke-miterlimit:22.9256;" d="
			M176.324,288.098c0,0,31.781-17.235,58.385-9.643c18.684,5.332,32.879,26.705,32.553,41.893"/>
		
			<path style="fill:none;stroke:#000000;stroke-width:8.5039;stroke-linecap:round;stroke-linejoin:round;stroke-miterlimit:22.9256;" d="
			M149.699,288.285c7.875,3.749,15,6.938,26.625-0.188"/>
		
			<path style="fill:none;stroke:#000000;stroke-width:8.5039;stroke-linecap:round;stroke-linejoin:round;stroke-miterlimit:22.9256;" d="
			M87.637,375.473c5.137,4.443,36.566,25.617,77.234,24.657c30.059-0.71,55.938-5.176,77.641-27.282"/>
		
			<path style="fill:none;stroke:#000000;stroke-width:8.5039;stroke-linecap:round;stroke-linejoin:round;stroke-miterlimit:22.9256;" d="
			M267.262,320.348c-0.188,13.124-6.15,33.105-24.75,52.5"/>
		
			<path style="fill:none;stroke:#000000;stroke-width:8.5039;stroke-linecap:round;stroke-linejoin:round;stroke-miterlimit:22.9256;" d="
			M63.637,329.348c0.467,12.314,4.894,30.141,24,46.125"/>
		
			<path style="fill:none;stroke:#000000;stroke-width:8.5039;stroke-linecap:round;stroke-linejoin:round;stroke-miterlimit:22.9256;" d="
			M118.574,309.848c0,0,46.312,23.25,90.375-0.75"/>
		
			<path style="fill:none;stroke:#000000;stroke-width:8.5039;stroke-linecap:round;stroke-linejoin:round;stroke-miterlimit:22.9256;" d="
			M235.012,327.848c0,0,2.154-11.708-3.928-17.823c-5.215-5.243-10.225-6.528-22.135-0.927"/>
		
			<path style="fill:none;stroke:#000000;stroke-width:8.5039;stroke-linecap:round;stroke-linejoin:round;stroke-miterlimit:22.9256;" d="
			M118.574,309.848c-5.291-2.88-25.5-7.688-25.312,19.125"/>
		
			<path style="fill:none;stroke:#000000;stroke-width:8.5039;stroke-linecap:round;stroke-linejoin:round;stroke-miterlimit:22.9256;" d="
			M127.012,361.41c0,0-32.062-9.75-33.75-32.438"/>
		
			<path style="fill:none;stroke:#000000;stroke-width:8.5039;stroke-linecap:round;stroke-linejoin:round;stroke-miterlimit:22.9256;" d="
			M211.199,357.285c12.617-5.844,20.625-10.688,23.812-29.438"/>
		
			<path style="fill:none;stroke:#000000;stroke-width:8.5039;stroke-linecap:round;stroke-linejoin:round;stroke-miterlimit:22.9256;" d="
			M127.012,361.41c0,0,39.75,15.375,84.187-4.125"/>
		
			<path style="fill:none;stroke:#000000;stroke-width:8.5039;stroke-linecap:round;stroke-linejoin:round;stroke-miterlimit:22.9256;" d="
			M137.479,325.81c0,0,3.107,13.078,20.471,9.913"/>
		
			<path style="fill:none;stroke:#000000;stroke-width:8.5039;stroke-linecap:round;stroke-linejoin:round;stroke-miterlimit:22.9256;" d="
			M179.324,332.535c0,0-7.5,10.312-21.375,3.188"/>
		
			<path style="fill:none;stroke:#000000;stroke-width:8.5039;stroke-linecap:round;stroke-linejoin:round;stroke-miterlimit:22.9256;" d="
			M202.328,322.817c0,0-0.793,14.791-23.004,9.718"/>
		
			<path style="fill:none;stroke:#000000;stroke-width:8.5039;stroke-linecap:round;stroke-linejoin:round;stroke-miterlimit:22.9256;" d="
			M212.461,307.565c0,0,9.596,25.134-10.926,20.458"/>
		
			<path style="fill:none;stroke:#000000;stroke-width:8.5039;stroke-linecap:round;stroke-linejoin:round;stroke-miterlimit:22.9256;" d="
			M137.479,330.301c0,0-20.44,4.989-17.141-19.638"/>
		
			<path style="fill:none;stroke:#000000;stroke-width:8.5039;stroke-linecap:round;stroke-linejoin:round;stroke-miterlimit:22.9256;" d="
			M147.262,349.973c0,0,22.125-25.312,40.687,0.562"/>
		
			<path style="fill:none;stroke:#000000;stroke-width:8.5039;stroke-linecap:round;stroke-linejoin:round;stroke-miterlimit:22.9256;" d="
			M117.676,357.578c0,0,2.15-7.104,7.785-10.138c4.619-2.486,12.137-2.053,18.051,5.72"/>
		
			<path style="fill:none;stroke:#000000;stroke-width:8.5039;stroke-linecap:round;stroke-linejoin:round;stroke-miterlimit:22.9256;" d="
			M170.887,356.723c-5.271-2.604-11.775-11.035-27.375-3.562"/>
		
			<path style="fill:none;stroke:#000000;stroke-width:8.5039;stroke-linecap:round;stroke-linejoin:round;stroke-miterlimit:22.9256;" d="
			M193.949,352.598c0,0-13.113-6.91-23.062,4.125"/>
		
			<path style="fill:none;stroke:#000000;stroke-width:8.5039;stroke-linecap:round;stroke-linejoin:round;stroke-miterlimit:22.9256;" d="
			M218.776,353.094c0,0-3.968-4.977-9.36-7.053c-2.957-1.138-10.387,0.326-15.467,6.557"/>
	</g>
</g>
</svg>
