<svg xmlns="http://www.w3.org/2000/svg" viewBox="0 0 361.004 513.215"><g id="n0101"><g><path fill-rule="evenodd" clip-rule="evenodd" fill="#68569d" d="M68.143 93.314L57.611 82.826 44.91 61.973l-6.489-19.891-1.545-21.14 2.631-10.52 5.104-5.597 8.405 2.197 6.21 9.637 8.063 11.317 10.173 9.675 7.53 8.229 4.517 9.993 1.192 11.006L80.439 78.01l-6.921 8.343z"/><path fill-rule="evenodd" clip-rule="evenodd" fill="#f8d63f" d="M247.172 90.686l-4.234-4.119.381-14.626 4.795-15.73 6.65-11.14 8.768-10.301 12.939-12.328 9.393-9.943 10.114-6.216 6.925 7.313 2.543 9.739.455 11.815-1.315 11.182-3.601 12.503-6.426 13.122-7.967 11.161-9.271 9.412-6.983-7.689-8.789-1.326-8.302 2.935z"/><path fill-rule="evenodd" clip-rule="evenodd" fill="#e085ad" d="M61.252 122.192l-8.944 28.667 3.967-2.291 8.663 2.28 15.701-2.28 10.935 4.174 75.838-17.463 17.229-7.425 15.67-10.249 14.52-13.836 12.535-17.873 7.946-17.383 2.7-8.262 7.508 2.476 3.66-8.675-9.782-9.198-16.179-10.434-20.573-7.684-22.921-2.906-25.616 3.337-23.074 9.038-23.184 15.186-15.843 14.173-13.18 14.387-13.451 17.116 8.12 1.721-7.099 10.472z"/><path fill-rule="evenodd" clip-rule="evenodd" fill="#fff" d="M159.744 137.437l3.371 4.792 12.881 1.732 14.954-.948 17.58-4.943 18.263-6.343 16.635-4.886 16.715-3.674 13.533-2.057 8.076-1.168-.541-12.517-2.81-12.442-5.42-8.313-9.623-3.324-11.028 3.628-5.158 3.712-4.234-4.119-.026-11.267 2.807-11.224-8.115-2.452-3.332 9.641-6.44 13.612-7.757 12.331-10.78 12.474-13.068 10.978-17.581 10.184z"/><path fill-rule="evenodd" clip-rule="evenodd" d="M246.525 126.066l1.7-10.831 3.504-7.885 6.9-3.678 6.63 2.758 1.52 5.119.038 24.567-19.598 10.916z"/><path fill-rule="evenodd" clip-rule="evenodd" fill="#e085ad" d="M38.564 178.267l8.44-15.258 5.304-12.15 3.967-10.574 13.85.086 14.832.883 15.113 1.841 14.273 2.768-2.035 4.092-17.943 4.664-1.307 8.689.864 15.011 3.29 14.869 4.227 12.281 5.299 11.394-10.104 1.965-15.437 1.488-16.545-5.866-11.807-9.816-8.33-13.605z"/><path d="M123.295 231.557c1.094 1.066-9.977 2.782-9.977 2.782l-6.581-17.477-5.298-11.395-4.52-13.604-3.139-15.986-.722-12.569.363-8.46 11.814-3.316 13.819-4.5 13.177-3.071 10.85-1.498 31.15-11.49v68.085l-31.15 17.805-7.85 10.695-5.937 4h-5.999z" fill-rule="evenodd" clip-rule="evenodd" fill="#81cece"/><path fill-rule="evenodd" clip-rule="evenodd" d="M109.088 150.848l-.234 9.656-.213 11.807-.017 9.762 3.438 5.699 6.264-.324 5.83-4.788.36-7.328-.545-7.297-7.231-5.972z"/><path fill-rule="evenodd" clip-rule="evenodd" fill="#fff" d="M210.502 155.567l1.807 8.857 4.346 8.715 6.584 6.993 9.359 6.846 5.701 9.265 5.535 9.426 7.948 4.646 10.078 1.981 8.642.646-2.949-11.411.885-11.839 4.215-15.72 3.855-13.585 2.93-12.66 1.611-10.262-14.033 1.513-19.797 8.054-15.365.071-12.4 4.483z"/><path fill-rule="evenodd" clip-rule="evenodd" d="M246.219 150.037l5.814 5.719 5.811 5.719-1.22 7.365-3.28 10.447-7.993-.568-4.543-4.733-.633-7.899 1.744-10.224z"/><path d="M268.995 241.557l-1.495-41.312 1.674-14.264 4.795-16.462 4.004-15.462s1.896-16.509 3.076-16.592c1.183-.082 10.918-.497 10.918-.497l4.871 9.47 5.56 11.09 5.392 11.182 8.206 17.505 12.623 33.35-12.623 10.993-11.368 3.782h-15.801l-19.832 7.217z" fill-rule="evenodd" clip-rule="evenodd" fill="#49b37e"/><path fill-rule="evenodd" clip-rule="evenodd" fill="#e085ad" d="M109.088 212.942l-11.876-19.754-9.722-11.241-6.851 5.825-10.652-2.031-12.112-.305-14.644-6.98L32.22 217.69l-.012 17.787 3.625 20.146 8.875 18.678 10.493 15.065 11.884 17.41 6.213 19.428 1.297 23.14-2.57 20.416-5.205 20.596-2.887 8.894 4.338-.611 8.301-10.281 6.871-11.199 4.896-12.571 2.631-13.56 1.029-19.467-6.519-9.496-6.438-14.889-2.57-17.666 2.084-17.261 7.537-15.452 30.992-9.74z"/><path fill-rule="evenodd" clip-rule="evenodd" fill="#68569d" d="M92 331.561l-11.919-18.779 36.389-4.97 12.825 20.245 9.936 10.5 11.271-3.5 13.786 4.686 11.793 2.998 19.574 38.377 1.701 27.099-.83 17.969-1.521 14.6-2.35 30.332-33 1.5-13 2.5-11.928 9.353-10.293 11.744-6.843-2.574-13.005-15.627-5.382-7.086-4.296-4.246-2.242-11.312-10.016-3.729-9.636-5.664-8.518-13.314-3.262-13.709.336-12.559 7.069-8.178 7.933-9.859 6.871-11.199 4.897-12.571 2.631-13.56.513-9.735z"/><path fill-rule="evenodd" clip-rule="evenodd" fill="#e085ad" d="M210.502 360.057l10.246-8 14.607-7.072 13.654-2.928 11.56-7.5 28.812-51.942 9.399 32.428-6.608 32.426-4.359 9.401-5.123 10.556-6.289 12.793-5.752 12.332-4.86 14.492-.683 16.114 4.334 16.744.623 13.736 2.262 9.463.779 8.524-1.854-.618 3.17 3.738.323-1.627-.323 4.855-2.981 9.333-40.262-14.492-11.803.908-38.873-2.051 7.033-43.64-1.055-11.774-.507-15.211-.036-35.756zm-24.566 5.232l-56.641-11.329-51.873-43.403-3.621-60.222h113.282z"/><path fill-rule="evenodd" clip-rule="evenodd" fill="#49b37e" d="M265.55 353.96l-79.252 11.329.207-114.954h113.282l19.444 60.092z"/><path fill-rule="evenodd" clip-rule="evenodd" fill="#49b37e" d="M269.635 238.686l.09-4.712 12.882-.645 13.218-3.077 14.924-6.614 13.472-12.586 4.397 8.512 3.834 14.569 3.392 17.603 1.849 17.922-.069 18.014-2.299 17.33-5.225 17.725-6.441 13.338-10.918 15.18-13.158 13.224-10.321 11.891-8.683 14.064-7.34-3.425 3.163-6.78 5.496-11.181 5.914-12.168 7.174-15.815 5.845-14.693 2.035-10.93 4.164-16.627 1.697-16.709-6.06-15.623-8.95-12.303-72.969 97.887z"/><path d="M246.696 50.783c-13.5-15-105.853-69.341-178.873 48.284m-17.446-74.75S80.02 57.567 75.51 83.88M58.307 14.688c9.951 22.83 35.396 25.212 31.455 53.15M68.143 93.314S34.627 62.192 36.877 20.942m116.654 118.846s65.97-11.596 85.095-81.721m.751 43.125c3.75-13.125 43.125-40.5 42.375 18.75m-20.203-36.427c-1.125-27.75 18.817-25.984 26.317-58.609M277.322 92.53s35.93-28.462 27.305-74.587m-61.688 68.624c-3.154-34.332 21.937-52.875 34.312-64.875m-215.999 100.5s8.735-25.125 38.46-46.25m13.606 52.113s63.059-24.613 86.684-66.988M87.49 123.431s19.887-18.489 63.012-39.864m-54.75 58.896c-10.313 9.562-33.978 22.213-31.1 71.987m-25.726-35.308s15.755-37.638 22.326-56.95m19.387 35.156s64.763-14.54 72.892-17.56m-59.166 14.831c-4.5 16.687 2.545 43.988 12.372 62.243m177.494-88.807s38.634 70.936 41.218 81.326m0 0c12.559 38.071 27.194 105.373-19.793 149.156-52.527 48.943-19.763 73.348-16.875 76.5m-6.724-312.845c-1.008 29.693-12.974 60.834-13.619 67.5m2.064 23.25s-5.063-7.499-2.063-23.25" fill="none" stroke="#000" stroke-width="8.504" stroke-linecap="round" stroke-linejoin="round" stroke-miterlimit="22.926"/><path d="M313.625 252.88c1.875 61.876-29.392 107.753-43.875 141.751-17.015 39.938 9.546 48.59 2.046 89.84M157.26 455.334s-3.996 13.305-14.179 22.638c-10.183 9.333-20.444 11.82-18.647 18.243-51.094-28.816-22.514-72.631-24.389-89.131M48.5 440.381c-2.625-40.877 47.607-41.443 42.742-109.785m-33.367-69.467c3.752 9 18.973 19.756 18.598 28.381M62.116 405.348s-7.43 36.109 31.187 49.986" fill="none" stroke="#000" stroke-width="8.504" stroke-linecap="round" stroke-linejoin="round" stroke-miterlimit="22.926"/><path d="M38.926 179.142C29.652 211.286 19.731 247.057 59 294.131c32.806 39.327 5.142 102.652 2.57 112.264m3.368-172.056s-.16 18.071 15.701 31.994m165.886-140.267s.911-11.749 3.911-16.999 13.5-9 15.75-.375-2.24 28.773-2.24 28.773m-17.421-11.399c-.375 12.563-15.682 56.032 6.818 53.22" fill="none" stroke="#000" stroke-width="8.504" stroke-linecap="round" stroke-linejoin="round" stroke-miterlimit="22.926"/><path d="M254.779 141.092c15.968-7.184 15.035-8.451-8.562 8.944l11.625 11.438m-4.498 17.812c2.812-6.375 4.315-15 4.5-17.812m-148.756-10.626s-.867 31.812-.305 33.5m15.373-1.687c-.562 3.188-11.998 9.75-15.373 1.687m2.248-27l12.94 10.688m.185 14.625s.94-11.062-.185-14.625m-12.94-10.688l3.312-5.463M36.877 20.942c1.125-15.75 12.055-25.004 21.43-6.254m246.32 3.254c-6.75-20.625-18.035-6.717-27.375 3.75m-91.137 383.656s7.823 48.29-6.363 60.29c-14.187 12-28.779 4.145-36.671 12.334m33.551-9.935s37.18-3.775 58.723 5.08" fill="none" stroke="#000" stroke-width="8.504" stroke-linecap="round" stroke-linejoin="round" stroke-miterlimit="22.926"/><path d="M215.745 444.161c-.227 2 7.384 20.478 22.601 31.811 15.218 11.333 33.093 11.333 33.093 11.333" fill="none" stroke="#000" stroke-width="8.504" stroke-linecap="round" stroke-linejoin="round" stroke-miterlimit="22.926"/></g></g><g id="n0102"><g><g><path d="M134.533 206.265c.672 1.315 15.218-38.145 15.218-38.145l.75-9.803-12.273-5.886-15.776-5.467-24.162-5.14-24.347-2.307-24.303-.033-19.514 1.583 1.18 11.699 3.398 13.795 4.221 11.581 5.59 11.887 9.111 14.546 11.025 8.875 13.645 4.419 16.303.208 12.138-2.215 13.118-3.957 6.271-2.963 4.244 17.074-13.947 5.196-17.143 3.893-16.886 1.023-19.02-3.287-15.58-8.15-11.325-11.511-9.639-16.698-8.691-19.542-6.453-18.339-4.731-17.417-2.703-13.992 11.693-2.082 14.952-2.055 19.285-1.517 20.789-.013 18.957 1.774 21.127 3.517 19.484 5.057 18.151 5.683 14.425 3.672 16.233 1.832 14.267-1.796 18.565-5.461 19.06-6.382 18.473-4.961 23.964-4.35 27.178-1.58 23.106 1.516 18.728 3.46 14.063 4.437-3.125 15.969-4.262 15.481-5.841 15.999-5.553 12.14-9.847 16.998-9.096 11.91-11.921 8.926-16.413 5.654-17.787 2.015-13.546-.257-19.592-3.524 2.822-7.183.432-8.887-1.237-7.705 11.584 4.299 11.442 1.74 15.416.708 14.875-2.511 10.06-7.887 8.604-12.644 7.074-14.351 5.985-15.954 3.731-12.352 1.817-6.959-15.795-2.464-19.11-1.156-21.113.915-21.579 3.23-22.925 6.011-14.053 5.159-7.3 3.305 1.808 8.857 4.347 8.715 25.131 33.339-5.449 13.028v14.833l-41.604-63.751-8.834-3.696-7.936.256-8.541 3.329-17.792 35.306-9.602.424-7.494 1.057z" fill-rule="evenodd" clip-rule="evenodd" fill="#68569d"/><path fill="#68569d" d="M227.231 205.524l14.555-.046 9.445 13.028-4.063 12.993-19.937-8.448zm-107.5 15.533l14.742-22.24 10.758-4.26h9.5l-8.187 19.542-16.173 11.917z"/><path d="M4.252 127.192c57.625-11.213 96.752-5.183 136.5 7.875 39.748 13.058 49.5 8.25 76.875-1.125m139.125-6s-56.25-24.75-139.125 6m-187.5 7.125s70.875-10.125 120.375 17.25m-120.375-17.25s-.75 24.375 19.125 57.375m161.25-43.875s54.75-28.5 121.875-15m-24.75 59.25s14.25-16.875 24.75-59.25m-61.875 72.375c14.901.294 25.125 2.625 37.125-13.125m-97.125-44.25s19.629 41.163 31.284 50.911c4.614 3.859 2.144 5.343 28.716 6.464m-120-53.625s-7.27 40.125-24.375 50.625c0 0-54.375 27.375-76.875-10.5" fill="none" stroke="#000" stroke-width="8.504" stroke-linecap="round" stroke-linejoin="round" stroke-miterlimit="22.926"/><path d="M32.281 206.787c30 51.937 98.09 19.229 98.09 19.229s16.36-6.988 24.845-24.408c7.115-14.608 12.69-34.571 27.453-34.571 17.333 0 19.618 16.078 32.795 38.488 10.908 18.552 15.465 23.147 23.726 24.581 0 0 58.778 13.243 81.842-16.007" fill="none" stroke="#000" stroke-width="8.504" stroke-linecap="round" stroke-linejoin="round" stroke-miterlimit="22.926"/></g><path d="M4.252 127.192s4.967 38.531 28.029 79.594m288.75 7.313c11.909-14.342 29.065-43.875 35.721-86.157" fill="none" stroke="#000" stroke-width="8.504" stroke-linecap="round" stroke-linejoin="round" stroke-miterlimit="22.926"/></g></g><g id="n0103"><g><path d="M167.018 455.21l7.937 4.104 9.963 2.156 12.545-.002 10.897-2.51 7.865-3.537 2.564-6.266 8.246 3.375 11.801 4.092 11.48 5.305 9.468 7.264 6.149 8.891 3.823 5.301-11.127 8.217-14.707 7.428-18.78 5.76-19.205 2.699-21.776.008-22.44-2.779-18.759-4.176-15.976-4.73-10.416-4.818 6.767-9.814 10.562-10.139 11.972-8.623s10.269-5.547 11.129-5.98c.856-.436 7.412-3.924 7.412-3.924l2.606 2.698z" fill-rule="evenodd" clip-rule="evenodd" fill="#fff"/><path fill-rule="evenodd" clip-rule="evenodd" fill="#f8d63f" d="M173.168 361.863l.375 15.295-.048 13.31-.528 30.848-1.176 16.285-2.119 14.588-2.554 7.389 7.838 4.281 12.953 2.428 16.302-1.54 12.971-5.369-2.771-15.308-1.381-13.268-.557-14.203.07-30.809.625-19.427z"/><path d="M213.434 367.658s-4.127 53.049 3.748 87.174m-43.775-91.079s1.775 79.453-6.85 92.203m48.211 1.438s-19.336 16.559-47.836 2.684m8.231 16.806c3.964.594 17.358 4.338 36-1.125m4.051-30.914c1.969 9.986 42.92 13.785 54.543 38.537m-100.086-35.738c-3.112 8.312-35.737 12.438-53.737 44.312m153.823-8.574s-37.949 51.324-153.823 8.574" fill="none" stroke="#000" stroke-width="8.504" stroke-linecap="round" stroke-linejoin="round" stroke-miterlimit="22.926"/></g></g><g id="n0104"><g><path fill-rule="evenodd" clip-rule="evenodd" fill="#e085ad" d="M176.691 340.552l.676-29.515 2.31-11.176 3.985-9.711 8.259-1.101 9.336-5.59 4.125 3.75 2.336 8.127-2.877 6.619-4.519 3.176 1.426 8.154.214 26.728-7.521.172-10.298 5.203z"/><path d="M190.383 308.022s24.936-2.625 15-20.812c0 0-2.833-3.951-11.333-3.119-8.5.834-13.333 13.334-13.333 13.334m20.679 7.134s1.08 31.632.565 35.454m-25.27.539s-1.134-34.314 6.526-48.128" fill="none" stroke="#000" stroke-width="8.504" stroke-linecap="round" stroke-linejoin="round" stroke-miterlimit="22.926"/></g></g><g id="n0105"><g><path d="M123.889 335.157l4.017-6.742 4.176-8.955 5.235-4.652 9.224-.496 6.678 3.414 3.889 5.873 6.039-1.111 8.715 2.533 7.232 6.58 6.369-4.41 8.949-1.949 8.735 1.398s9.472 6.916 8.597 6.053c-.873-.865 6.866-6.779 6.866-6.779l7.738-2.26 2.836-6.322 6.228-2.184 2.937-2.865 4.799-3.876 7.08-4.767 8.301 7.803 3.867 7.004 7.67 8.611-6.149 8.916-12.127 7.055-21.045 7.453-19.298 2.934-24.395.195-23.389-3.113-18.732-5.176-12.063-5.068-8.979-5.097z" fill-rule="evenodd" clip-rule="evenodd" fill="#fff"/><path fill-rule="evenodd" clip-rule="evenodd" fill="#81cece" d="M110.51 323.596l6.146-5.119 2.328-7.625 6.285-6.385 7.879-1.756 7.185 3.317 5.224 8.01-8.241.771-5.235 4.65-4.175 8.955-4.314 6.547-7.08-5.33z"/><g><path fill-rule="evenodd" clip-rule="evenodd" fill="#fff" d="M130.312 258.8l-.543 10.22.789 7.442 5.156 8.299 7.463 1.063 4.568-1.799 9.852 5.39 9.494-.305 4.586-1.786 4.106 4.63 7.138 3.638 9.981-.803 9.338-5.59 8.591 3.75 10.608 1.596 9.533-4.003 3.326-4.123 8.01.351 6.334-3.586 3.115-8.43-.088-8.315-1.086-6.873-12.963 2.39-11.814 2.483-21.223 2.825-17.343.035-17.746-3.267-17.768-5.376-12.789-.868-8.625 1.012z"/><path d="M145.615 281.699s9.938 13.688 26.062 5.625m-27.91-29.519s-4.715 16.957 1.848 23.895m26.062 5.624s10.688 18.188 30.562 1.875m36.563-20.812s.562 40.5-36.562 20.812m32.058-2.78c3.789.704 22.82 5.115 16.285-26.854m-120.271-.765c-.387 5.635-3.822 29.649 12.865 27.024" fill="none" stroke="#000" stroke-width="8.504" stroke-linecap="round" stroke-linejoin="round" stroke-miterlimit="22.926"/></g><path d="M163.627 176.632c2.625-7.312 26.625-18.75 37.875 2.438m38.625 21.749c-2.345-4.875-8.25-27.749-38.625-21.75m26.062 59.625s23.812-3.188 12.562-37.875" fill="none" stroke="#000" stroke-width="8.504" stroke-linecap="round" stroke-linejoin="round" stroke-miterlimit="22.926"/><path d="M179.752 182.069s-24.75-13.687-40.688 5.437c-15.937 19.125-19.687 43.126 10.5 52.501" fill="none" stroke="#000" stroke-width="8.504" stroke-linecap="round" stroke-linejoin="round" stroke-miterlimit="22.926"/><g><path d="M302.667 266.725l-8.951-12.303-14.979-11.128-10.637-4.973-16.502-4.996-11.828-2.82 2.821-7.184.433-8.886-.551-10.227-6.259-11.86-8.905-9.777-13.107-4.364-12.7.862-6.768-8.229-12.801-3.568-11.424 2.833-8.418 7.242-14.59 1.679-11.543 12.489-7.164 13.418-1.597 13.958 5.205 11.048-14.196 5.839-16.316 7.212-11.617 9.657-8.895 12.294-4.412 15.414.793 18.24 3.391 14.895 10.851 18.322 8.723 9.461 14.047 11.033 14.666 8.68 21.229 8.977 18.685 5.34 40.026 3.906 17.562-1.496 15.955-3.566 17.293-7.066 16.305-11.217 12.968-14.314 11.459-21.029 7.418-18.396.392-19.775-6.062-15.625zm-32.479 67.21c-12.302 15.202-39.278 24.277-72.164 24.277h-.006c-23.087-.001-45.674-4.449-63.602-12.527-20.807-9.375-33.606-22.855-37.013-38.985-3.909-18.508-1.903-32.811 5.963-42.513 8.905-10.982 22.858-13.288 32.996-13.288 8.129 0 14.074 1.458 16.252 2.085 2.033.585 4.062 1.29 6.211 2.037 7.351 2.555 16.498 5.733 31.76 5.733 12.891 0 27.963-2.187 46.079-6.686 20.474-4.784 37.699 2.757 45.497 19.099 8.511 17.839 3.923 41.123-11.973 60.768z" fill="#f8d63f"/></g><path d="M134.811 232.326s-64.887 4.63-57.81 65.058c5.25 44.81 59.519 76.693 114.728 81.273 46.303 3.842 99.421-8.525 111.668-64.873 16.604-76.403-46.393-80.951-64.207-82.426m-92.534 99.494s16.312-19.312 32.437.75m32.626 1.125c-3.52-4.051-17.25-14.814-32.625-1.125m63-.375s-16.688-18-30.375 1.5m43.595-5.684s-13.688-24.332-27.375-6.939m10.409-7.822s16.967-19.287 30.647 9.316m-140.962 9.25s10.373-27.846 30.096-11.145m-43.785 5.167c0-20.314 21.018-32.348 32.197-10.559m4.521-117.993c2.531 1.875-8.625 19.689-11.625 17.532m11.625-17.532c-3.469-2.436-15.656 14.532-11.625 17.532m79.313-19.219c-3.095 1.219 5.436 23.625 9.655 21.562m-9.655-21.562c2.53-1.5 13.219 19.875 9.655 21.562" fill="none" stroke="#000" stroke-width="8.504" stroke-linecap="round" stroke-linejoin="round" stroke-miterlimit="22.926"/><g fill="none" stroke="#000" stroke-width="8.504" stroke-linecap="round" stroke-linejoin="round" stroke-miterlimit="22.926"><g><path d="M163.627 176.632c2.625-7.312 26.625-18.75 37.875 2.438m38.625 21.749c-2.345-4.875-8.25-27.749-38.625-21.75m26.062 59.625s23.812-3.188 12.562-37.875"/><path d="M179.752 182.069s-24.75-13.687-40.688 5.437c-15.937 19.125-19.687 43.126 10.5 52.501"/></g><path d="M237.688 258.195c-55.873 13.875-72.215 2.914-86.25-1.125-14.033-4.039-61.639-6.944-49.875 48.751 11.252 53.266 134.764 63.201 165.319 25.439 30.557-37.76 11.989-82.682-29.194-73.065"/></g></g></g></svg>