<svg xmlns="http://www.w3.org/2000/svg" viewBox="0 0 308.552 460.363"><g id="n1001"><g><path d="M131.899 304.937l12.423 3.802 13.455 3.483 10.048 2.398 10.946-4.239 8.646-3.57-.049 13.402 1.065 46.066 2.065 11.02 6.951 9.414-3.041 7.794-12.256 8.469-15.615 3.255-16.868-.465-15.15-3.739-11.138-6.681-3.933-5.819 4.942-3.782 5.41-10.216 2.179-14.891s.375-43.252.358-44.374c-.014-1.121-.438-11.327-.438-11.327z" fill-rule="evenodd" clip-rule="evenodd" fill="#e085ad"/><path fill-rule="evenodd" clip-rule="evenodd" fill="#67559e" d="M68.263 417.277l7.181-5.5 11.434-8.373 13.736-9.388 15.461-8.428 3.375 3.939 3.933 5.819 5.569 3.34 13.144 5.21 11.269 2.273 13.174.062 11.258-1.87 10.486-5.619 6.822-5.258 3.846-9.208 10.568 2.311 11.626 5.198 13.06 7.035 11.524 6.595 9.66 5.487 2.25 6-5.313 7.376-10.439 9.736-13.71 8.486-12.284 5.279-17.913 5.052-18.767 2.711-18.749.489-16.547-1.653-13.455-2.911-14.926-4.884-14.842-6.648-13.023-7.456-9.984-6.969-9.424-8.233z"/><path d="M187.418 306.811s-1.968 78.59 10.033 79.902m-65.552-81.776s3.676 78.401-9.824 81.964m76.876-2.625c11.812-.375 42.162 18.296 61.1 28.796m-62.6-26.359c-3.001 27.375-70.126 24.376-78.001 2.814m-3.375-3.939c-8.812 2.625-34.875 21.564-47.812 31.689m71.812 1.341s20.814 5.409 40.314 1.659" fill="none" stroke="#000" stroke-width="8.504" stroke-linecap="round" stroke-linejoin="round" stroke-miterlimit="22.926"/><path d="M68.263 417.277c9 9.562 46.617 38.434 95.639 38.829 44.272.357 82.538-20.046 96.149-43.034" fill="none" stroke="#000" stroke-width="8.504" stroke-linecap="round" stroke-linejoin="round" stroke-miterlimit="22.926"/></g></g><g id="n1002"><g><path fill-rule="evenodd" clip-rule="evenodd" fill="#fff" d="M159.92 135.651l4.625 9.817.995 10.657 6.157 18.617 9.816 13.044 13.313 7.595 15.159 3.926 25.34-8.234 13.502.333 10.966-6.226.018-15.183-2-19.329-3.189-16.848-3.831-24.055-10.59 1.492-21.095-10.017-37.593 7.258-20.921 12.824z"/><path fill-rule="evenodd" clip-rule="evenodd" fill="#60f3e6" d="M56.053 113.924l13.968-4.777 19.805-4.407h15.226l20.513 5.34 18.352 6.535-3.441 36.964-14.185 25.527-13.571 11.333-6.489 18.056-28.198-13.748H51.465l-1.018-11.348-.754-9.551-.457-13.655.907-16.454 1.745-10.61.816-7.118z"/><path d="M65.598 104.081l2.781-11.515 5.616-9.369 11.54-7.058 11.533-.893 7.447-2.153 5.173 7.009 5.225 8.003 5.391 10.13 1.774 4.32 9.373 14.057s-20.499-1.165-31.59-2.432c-11.091-1.267-23.044 1.353-23.044 1.353l-2.983-5.347-8.582.391.346-6.496z" fill-rule="evenodd" clip-rule="evenodd" fill="#f9d740"/><path fill-rule="evenodd" clip-rule="evenodd" fill="#67559e" d="M48.02 141.463l3.695-45.511-3.429-13.276-.575-6.594 6.729-1.265-1.34-11.313 1.31-12.909 5.922-13.802 7.625-3.888 2.039-7.911 4.167-6.676 8.015-1.226 5.847 3.71 6.679-6.351 7.81-4.432 6.547 1.401 2.635 5.116 10.981-1.678 14.298-5.348 16.912-4.241 15.58-1.017 12.237.806 6.866 5.615 9.214 6.82 13.497 1.509 13.578 2.189 6.741 7.316 3.662 7.049 4.123 6.105 9.355 4.769 10.237 6.307 3.199 7.242-1.837 8.487-3.859 6.87 5.441 2.543-2.261 7.894-3.033 7.673-3.43 7.428-4.37 8.434-11.485.674-1.078-7.049-3.147-13.673-4.56-8.337-5.547-6.713-12.336 2.877-10.524 4.819-9.029 6.838-7.043 8.511-3.314 6.428.465 7.574-10.293 3.724-11.795 9.921-3.33.863h-12.922l-7.314-4.443-9.067-10.314-4.99-.388.559-8.062-4.47-9.386-6.918-11.534-6.175-8.544-7.447 2.153-11.532.894L75.21 81.94l-6.832 10.627-1.9 7.872-9.153 20.883-7.076 19.075z"/><path d="M179.92 117.558l.844-13.875L187.6 93l8.037-7.674 11.161-6.767 13.343-3.893 4.861-.705-.176 4.597 5.827 5.094 3.345 8.509 1.537 6.664 3.85 15.359s-6.135 4.042-21.517 3.375c-24.382-1.333-33.649 0-33.649 0h-4.299zm-43.623 44.884l7.859-2.622 8.806-1.395 12.21 2.316-4.099-10.929-1.932-24.91h-8.407l-7.845.863-2.455 25.189-4.137 11.488z" fill-rule="evenodd" clip-rule="evenodd" fill="#e085ad"/><path fill-rule="evenodd" clip-rule="evenodd" d="M80.255 162.712l8.736-2.154 9.14-.102 2.292-6.612-9.61-4.761-6.424-4.936 2.037-6.23 7.27-4.157 5.547-2.936.071-5.878-19.105-.044-.599 7.425.209 21.387.436 8.998zm128.349-35.949l9.806-.393 8.621-.161 6.373-.038.891 6.855-8.111 4.642-8.495 5.398-6.457 5.147 8.438 4.632 7.523 4.886 2.434 6.842-8.199-.699-7.196.144-7.189.748-.217-8.076-.015-16.305 1.793-13.622z"/><path d="M75.577 64.871s-3.562-27.375 19.312-15m33.563 7.875c-11.812-6.375-33.75-48-33.563-7.875m144.496-8.21c7.125 6.375 36.067 7.647 15.63 35.772m-6.188 31.875s11.251-20.063 13.313-32.625M128.452 57.746c7.778-6.989 19.688-25.876 37.312 7.875m42.938-8.625c-8.625-3-.75-29.438-42.938 8.625m68.063-10.126s-10.687-2.062-25.125 1.501m-143.45 53.583s.731-41.21 38.232-35.022m-3.532-8.062s24.104 28.585 29.011 48.041m45.09 1.079s18.431-45.542 57.523-43.12m-10.311 3.938c2.93 1.535 14.345 7.036 17.907 28.973M142.889 95.62s6.188-36.751 22.125-.75m29.812-19.313c-13.688 5.062-24.375 15.563-29.812 19.313m42.562-.187s9.941 4.629 15.752 15.252M96.577 92.433s-13.325 7.855-18.756 17.615m120.849 58.353s24.094-10.72 45 2.438m-32.438-22.626s17.437 8.812 20.062 13.5m3.001-28.687s-17.654 9.553-23.062 15.188M54.837 114.558c-12.687 30.91-10.2 67.03-4.575 84.128m58.126-33.92s-14.718-10.927-39.843 3.323m11.062-38.438s-.016 29.186.649 33.062m20.914-32.875s-17.508 8.815-19.5 11.625m-.001 0s7.875 9 19.875 12.75M54.837 110.99c-.375-12.751-7.5-21-7.125-37.313m13.875-40.5c-2.625 10.312-12.938 16.125-6.375 45.375m12.375-42.844s2.531-30.281 20.437-14.906m23.672-4.266s-3.092-17.904-23.671 4.267m118.561-1.844c-17.625 0-18.002-13.732-27.08-14.344-42.283-2.849-48.764 12.012-67.81 11.92" fill="none" stroke="#000" stroke-width="8.504" stroke-linecap="round" stroke-linejoin="round" stroke-miterlimit="22.926"/><path d="M171.697 37.723s6.576-18.577 34.889-18.764c28.313-.187 20.423 6.764 32.799 22.702m9.442 66.837c12.687 30.91 10.2 67.03 4.575 84.129" fill="none" stroke="#000" stroke-width="8.504" stroke-linecap="round" stroke-linejoin="round" stroke-miterlimit="22.926"/><path d="M208.822 126.691s2.35-9.086 13.339-10.019c10.989-.933 16.279 9.721 16.322 16.354.043 6.633-29.661-6.335-29.661-6.335zm-133.446 1.554s1.731-12.063 14.45-15.239 18.078 15.631 13.748 16.725c-4.331 1.093-28.198-1.486-28.198-1.486z" fill-rule="evenodd" clip-rule="evenodd"/></g></g><g id="n1003"><g><path d="M4.889 111.246l-.558 8.973.089 7.058 3 4.312 1.779 9.982 1.231 10.533 1.945 12.421 3.771 11.789 6.271 9.001 11.543 6.416 10.021 1.358 2.695 3.833 8.087-4.212 12.896-2.316 11.73 1.023 10.436 2.141 13.535-1.253 13.135-6.788 10.326-10.915 6.633-10.998 7.445-19.234 2.738-8.051 7.987-2.636 6.825 2.312 3.479 11.103 6.286 15.349 8.559 14.195 11.84 11.074 16.711 2.842 2.946 6.043 14.907-5.696 19.256-2.4 15.172 3.472 7.678 3.469 10.77-1.667 8.915-5.153 6.97-10.396 3.784-17.504.95-20.092 1.989-9.247 5.17-9.479.308-12.349-22.867-2.582-22.182-1.398-23.666-.618-25.46.2-22.866.769-16.012 1.556-8.138 5.976-8.776 4.286-11.201-1.565-8.098-7.23-8.367-2.943-23.963-1.178-24.725.218s-23.975.796-22.983.942c.992.146-23.341 2.146-23.341 2.146l-15.371 1.664-11.234 1.444zm175.468 16.327l5.318-4.034 11.742-1.243 16.09-.73 16.711-.377 17.793.229 16.471 1.358 11.647 6.609 4.565 11.576.209 15.38-1.135 10.396-4.026 8.931-11.073 4.296-17.405-.098-24.585-1.896-14.291-1.928-12.276-4.627-6.339-8.043-8.237-21.424-1.179-14.375zm-145.793-3.215l7.5-1.706 12.027-1.204 13.377-1.012 17.811-.523 21.93.244 15.805 1.212-.207 9.508-1.609 12.333-3.747 12.77-6.729 11.894-12.238 9.105-15.268 1.507-19.875.479-19.867-.479-11.35-7.779-4.668-12.092-2.036-15.217 2.776-12.231 6.368-6.809z" fill-rule="evenodd" clip-rule="evenodd" fill="#46b77e"/><path d="M4.889 111.246s69.562-10.125 123.563-5.062m45.75.562c21.003-1.669 82.313-4.125 129.938 2.812m-175.688-3.375c9.307.481 8.783 11.561 22.259 11.83 11.967.24 15.701-10.928 23.491-11.268m-31.501 30.375s-11.25 59.812-52.875 56.438m68.625-57.563s13.124 61.688 51.534 58.312m-67.284-57.187s6.75-6.938 15.75-1.125M4.889 111.246s-1.031 12.093-.469 16.03m3 4.312c0 21.924 0 62.719 40.124 62.107m250.407-61.075c3.77-7.034 7.127-4.685 6.189-23.062m-39.884 85.891c42.001 1.125 33.035-51.12 34.407-64.063m-261.149-8.141s43.311-6.375 85.5-1.875m64.006 1.912c10.875-1.688 58.899-3.506 77.462-.506m-54.937 53.812s39 4.688 55.125 3.376" fill="none" stroke="#000" stroke-width="8.504" stroke-linecap="round" stroke-linejoin="round" stroke-miterlimit="22.926"/><path d="M264.482 122.776s12.75 2.062 15.562 14.438-.562 31.312-.562 31.312-1.312 10.876-14.812 11.438m-77.65-56.682c-4.149.58-8.976 3.057-7.101 12.432 1.875 9.375 8.635 25.531 9.854 27.658 1.218 2.127 4.959 11.342 19.771 13.217m-86.53-55.219s1.08 22.541-7.545 38.854-15.98 16.758-21.987 17.678m-45.938 1.124s29.438.188 45.938-1.125m-55.968-54.656c-12.281 3.094-12.095 20.156-12.095 20.156s1.559 17.102 3.996 22.727 8.752 12.71 18.129 12.898" fill="none" stroke="#000" stroke-width="8.504" stroke-linecap="round" stroke-linejoin="round" stroke-miterlimit="22.926"/><path d="M4.889 111.246l-.558 8.973.089 7.058 3 4.312 1.779 9.982 1.231 10.533 1.945 12.421 3.771 11.789 6.271 9.001 11.543 6.416 10.021 1.358 2.695 3.833 8.087-4.212 12.896-2.316 11.73 1.023 10.436 2.141 13.535-1.253 13.135-6.788 10.326-10.915 6.633-10.998 7.445-19.234 2.738-8.051 7.987-2.636 6.825 2.312 3.479 11.103 6.286 15.349 8.559 14.195 11.84 11.074 16.711 2.842 2.946 6.043 14.378.321 20.5-1.676 16 1.676 6.135-1.477 10.77-1.667 8.915-5.153 6.97-10.396 3.784-17.504.95-20.092 1.989-9.247 5.17-9.479.308-12.349-22.867-2.582-22.182-1.398-23.666-.618-25.46.2-22.866.769-16.012 1.556-8.138 5.976-8.776 4.286-11.201-1.565-8.098-7.23-8.367-2.943-23.963-1.178-24.725.218s-23.975.796-22.983.942c.992.146-23.341 2.146-23.341 2.146l-15.371 1.664-11.234 1.445zm175.468 16.327l5.318-4.034 11.742-1.243 16.09-.73 16.711-.377 17.793.229 16.471 1.358 11.647 6.609 4.565 11.576.209 15.38-1.135 10.396-4.026 8.931-11.073 4.296-17.405-.098-24.585-1.896-14.291-1.928-12.276-4.627-6.339-8.043-8.237-21.424-1.179-14.375zm-145.793-3.215l7.5-1.706 12.027-1.204 13.377-1.012 17.811-.523 21.93.244 15.805 1.212-.207 9.508-1.609 12.333-3.747 12.77-6.729 11.894-12.238 9.105-15.268 1.507-19.875.479-19.867-.479-11.35-7.779-4.668-12.092-2.036-15.217 2.776-12.231 6.368-6.809z" fill-rule="evenodd" clip-rule="evenodd" fill="#46b77e"/><path d="M4.889 111.246s69.562-10.125 123.563-5.062m45.75.562c21.003-1.669 82.313-4.125 129.938 2.812m-175.688-3.375c9.307.481 8.783 11.561 22.259 11.83 11.967.24 15.701-10.928 23.491-11.268m-31.501 30.375s-11.25 59.812-52.875 56.438l-42.282.138C7.42 194.307 7.42 153.513 7.42 131.588m151.031 5.028s13.124 61.688 51.534 58.312l54.27.521c42.001 1.125 33.035-51.12 34.407-64.063m-155.961 5.734s6.75-6.938 15.75-1.125M4.889 111.246s-1.031 12.093-.469 16.03m293.531 5.344c3.77-7.034 7.127-4.685 6.189-23.062M37.514 123.245s43.311-6.375 85.5-1.875m64.006 1.912c10.875-1.688 58.899-3.506 77.462-.506m-54.937 53.812s39 4.688 55.125 3.376" fill="none" stroke="#000" stroke-width="8.504" stroke-linecap="round" stroke-linejoin="round" stroke-miterlimit="22.926"/><path d="M264.482 122.776s12.75 2.062 15.562 14.438-.562 31.312-.562 31.312-1.312 10.876-14.812 11.438m-77.65-56.682c-4.149.58-8.976 3.057-7.101 12.432 1.875 9.375 8.635 25.531 9.854 27.658 1.218 2.127 4.959 11.342 19.771 13.217m-86.53-55.219s1.08 22.541-7.545 38.854-15.98 16.758-21.987 17.678m-45.938 1.124s29.438.188 45.938-1.125m-55.968-54.656c-12.281 3.094-12.095 20.156-12.095 20.156s1.559 17.102 3.996 22.727 8.752 12.71 18.129 12.898" fill="none" stroke="#000" stroke-width="8.504" stroke-linecap="round" stroke-linejoin="round" stroke-miterlimit="22.926"/></g></g><g id="n1004"><g><path d="M135.434 164.432l7.355-4.118 7.594-1.802 14.79 2.228 8.428 8.098 6.039 7.75 8.976 11.128 5.909 9.206 5.738 9.135 6.923-3.918 14.09-5.681 18.691-3.005 19.789 4.495 13.541 10.385 5.262 9.13 2.072 15-.326 13.598-3.32 17.9-9.241 17.146-14.333 15.008-20.858 16.148-25.687 15.209-24.641 11.57-14.399 5.576-16.319-3.895s-19.676-6.826-19.606-5.789c.069 1.037-18.169-6.469-18.169-6.469l-20.227-8.777-22.45-12.656-19.844-16.122-15.244-21.522-7.324-22.98 2.091-22.502 8.84-15.411 16.805-11.329 17.146-1.261 16.301 2.652 18.187 5.062 8.483-18.103 8.58-13.203 10.358-7.881z" fill-rule="evenodd" clip-rule="evenodd" fill="#f9d740"/><path fill-rule="evenodd" clip-rule="evenodd" fill="#fff" d="M81.511 223.352l-1.575 6.009-.453 6.621 3.845 6.347 3.872 1.696 7.644-2.66 5.555 7.683 7.764 2.604 5.1-.127 6.858 5 8.3 2.203 8.468-2.141 5.862 3.209 8.701 2.571 10.554-.717 9.383-5.25 8.98 2.086 8.768-1.119 9.064-6.405 8.528 1.178 7.17-3.728 5.49-4.95 8.199-1.742 3.629-6.223.922-9.659-.618-4.896-11.212 1.734-14.321 3.047-13.25 3.537-15.788 5.044-10.181 3.74-7.702 1.848-9.137.287-11.823-2.892-17.993-5.057-17.988-4.406-11.244-2.515-9.371-1.957z"/><path fill-rule="evenodd" clip-rule="evenodd" fill="#60f3e6" d="M82.076 287.732l2.5-5.457 2.193-6.68 7.878-5.879 7.709 1.241 5.657 3.068 9.097 2.537 8.86 4.77 10.129-.375 6.934 2.326 6.418 4.617 7.117-3.971 11.5-.49 9.981 4.689 9.566-6.05 10.362-3.008 7.476-6.336 8.069-3.301 8.607 4.465 4.572 6.502 4.157 5.978-9.29 5.969-15.641 8.524-18.601 8.566-20.331 6.457-21.565-1.377-19.708-6.6-19.807-8.041-17.475-8.501-6.364-3.643z"/><path fill-rule="evenodd" clip-rule="evenodd" fill="#f9d740" d="M169.652 284.183l1.549-5.658-5.461-9.012-9.011-7.504-6.325 5.324-3.848 6.993-3.523 8.957 6.418 4.617 7.117-3.971 6.711-.285 6.373.539z"/><path fill-rule="evenodd" clip-rule="evenodd" fill="#67559d" d="M57.488 218.975l7.823 1.315 8.549 1.563 7.527 1.974-1.451 5.534.04 8.593 5.288 5.223 9.58-1.812 4.741 6.556 6.61 3.471 7.852.705 7.278 4.998 9.773 1.484 7.06-1.197 8.944 3.7 5.857 1.453-4.479 8.294-3.057 6.378-2.931 5.794-9.316-2.164-7.206.495-6.241-3.36-8.326-1.928-9.047-5.087-7.709-1.241-5.81 3.051-3.165 6.168-3.596 8.797-9.889-6.805-7.365-6.986-8.28-11.006-5.67-12.971-1.261-9.818 2.298-11.556 5.579-9.615z"/><path d="M231.521 220.942l12.639-1.119 6.955 5.608 5.324 6.773 3.611 9.678-.659 11.096-5.072 10.854-8.259 9.963-15.202 12.584-4.157-5.978-6.624-8.367-6.555-2.6-6.578 2.158-7.001 7.684s-6.904 2.098-7.147 1.299c-.243-.799-7.246 2.959-7.246 2.959l-5.264 5.096-8.867-4.145-.78-7.049-3.962-6.373-6.758-8.904 11.469-5.758 8.98 2.086 10.189-2.123 7.643-5.4 8.527 1.178 7.171-3.729 3.597-5.635 8.19.148 4.933-5.664 1.519-11.423-.616-4.897z" fill-rule="evenodd" clip-rule="evenodd" fill="#49b47e"/><path d="M280.139 224.245c-2.093-18.68-20.83-29.413-35.995-30.632-22.589-1.816-43.881 12.445-43.881 12.445-5.726-19.666-32.046-43.611-32.046-43.611-15.993-10.066-31.92-.004-31.92-.004s-25.172 16.307-27.909 45.302c0 0-44.438-28.312-68.813.751m109.89-39.658s3.145 39.359 1.27 50.984" fill="none" stroke="#000" stroke-width="8.504" stroke-linecap="round" stroke-linejoin="round" stroke-miterlimit="22.926"/><path d="M50.263 217.871c37.5 5.436 79.124 16.311 90.938 20.436 11.812 4.125 22.605.979 27.938-1.125 5.333-2.104 51.938-19.874 89.064-17.249m12.185 57.75s13.126-15.002 9.751-53.439M167.825 344.621s70.688-23.812 102.562-66.938m-225.749 5.625s-33.375-40.877-5.063-74.813m128.25 136.126s-90-17.625-123.188-61.312m25.688-3.938c-2.532-2.16-35.424-31.354-12.837-60.396m78.087 92.458s-45.938-15.19-65.25-32.062m173.835-59.548s41.79 24.483-8.835 63.298m-53.812 28.687s32.905-12.635 53.812-28.688m-99.75 28.313c16.188 4.963 22.284 8.701 45.938.375M127.7 202.683c4.5.375 5.064 9.938 3.75 9.75m44.813-8.813c-2.344-1.5-7.031 4.781-4.688 6.938m-40.125 1.875c-3.75 1.593-6.75-8.344-3.75-9.75m43.875 7.875c2.72 1.218 5.907-6.094 4.688-6.938m-58.125 86.342s12.376-19.123 31.314-2.062m30.187 1.5s-14.812-13.686-30.188-1.5m61.781-.168s-13.406-20.457-31.594 1.668m48.955-6.279s-12.767-25.408-27.579-5.533m-100.591 7.802s7.47-19.359 26.749-3.08m-43.675 1.947c.17-2.9 5.579-22.795 24.516-10.232m-31.196-45.341c1.272-3.188-4.068 15.34 16.665 15.34m.169-6.259s-1.201 16.197 19.611 13.76m23.627 5.062s-10.689 7.312-23.626-5.062m58.126 4.875s-13.312 13.875-34.5.188m61.312-5.626c-3.374 4.314-12.188 11.062-26.812 5.438m48.476-21.75s.273 24.188-21.664 16.312m33.938-25.124s4.969 17.415-12.75 17.624m-75.188 38.063s10.436-41.494 29.851 1.783m-27.913 21.85s15.75 2.25 27.562-1.125" fill="none" stroke="#000" stroke-width="8.504" stroke-linecap="round" stroke-linejoin="round" stroke-miterlimit="22.926"/></g></g></svg>