<svg xmlns="http://www.w3.org/2000/svg" viewBox="0 0 368.318 517.075"><g id="n1101"><g><path d="M130.224 500.19s-3.472-64 12.028-93 79.204-28.004 90 15c10.796 43.004 17.167 51.904 17.167 51.904s8.633 5.232-2.429 13.576c-11.061 8.344-58.795 45.02-116.766 12.52z" fill-rule="evenodd" clip-rule="evenodd" fill="#67559d"/><path d="M130.224 502.67c15.75 10.312 81.75 22.5 123-21" fill="none" stroke="#000" stroke-width="8.504" stroke-linecap="round" stroke-linejoin="round" stroke-miterlimit="22.926"/></g></g><g id="n1102"><g><path d="M164.958 442.342l2.598 7.277 2.033 7.449 5.68 6.279 5.07-.72s8.379-4.654 6.311-5.065c-2.07-.412 4.381 2.479 4.381 2.479l5.24-1.575 2.391-5.834-.77-5.647 4.496-3.703 5.174-1.916 1.188-7.206-4.273-7.949-2.283-2.896-7.682-5.544-9.389-4.212-11.164-1.643-.891-7.255-1.667-7.64-1.812-5.667-4.631-2.667-5.557 3-33.806 8.352-7.562 4.48-7.773 7.154-6.76 8.889-5.645 10.062-5.373 12.926-3.305 10.88-2.299 12.814-1.059 13.143-.078 9.58 1.293 8.658 5.867 8.956 10.279 4.464 14.377-.614 9.666-3.594 7.656-6.671 7.301-10.129 5.639-11.175 3.307-9.136 4.15-11.861 4.154-9.453 5.528-7.07z" fill-rule="evenodd" clip-rule="evenodd" fill="#f9d740"/><path fill-rule="evenodd" clip-rule="evenodd" fill="#fff" d="M169.907 404.664l13.852 8.697 7.949 2.856 6.645 4.327 3.73 2.861 3.313 4.519 2.849 4.651.793 5.182-2.865 4.83-6.682-.253-1.369 6.336-.293 5.994-2.609 4.249 3.695 5.73 3.795 2.044 6.459-1.287 5.027 3.966 6.231 2.009 5.404-3.85.924-9.62 5.396-.118 5.78 5.147 6.722 7.296 4.766 6.864 5.111 8.874 4.67 9.871 4.596 8.227 6.908 3.358 8.715-.056 7.896-4.539 4.504-6.957 2.354-11.344-.752-10.528-2.906-12.571-6.09-13.589-8.988-12.214-10.108-10.773-10.236-8.546-9.547-5.978-15.932-5.665-8.914.437-7.179-60.411-37.782 8-8.466 33z"/><path d="M215.067 356.024s-1.666 9.333 0 28.333 11.066 19.976 11.066 19.976 25.777-.662 55.027 38.525m12.939 43.875s1.875-23.438-12.938-43.875m-47.578-22.453s16.875 4.875 48.938 53.438m-21.756 25.882c3.188 10.312 29.912 15.461 33.334-12.992m-67.453-32.016c16.312 6.938 28.979 31.508 34.119 45.008m-58.682-76.32s12.75-10.688 31.5-3m-7.875 19.687s1.5 22.126 1.125 24.188c-.262 1.44-1.525 7.222-6.406 7.096-2.316-.06-8.629-.862-9.156-8.033m2.25-18.001s-.75 14.812-2.25 18m-15-4.875c-1.125 3.375 5.812 15.375 15 4.875m-39.87-102.652s-.667 17.334-8.667 25.667-30.243 11.641-30.243 11.641-26.596 1.782-41.971 51.47m-4.687 42.937s-1.367-22.914 4.688-42.938m39.703 56.203c-7.5 7.312-41.953 15.047-44.391-13.266m64.313-18.562s-6.844 21.094-19.922 31.828m19.172-86.015s26.438-19.688 52.688 3.75" fill="none" stroke="#000" stroke-width="8.504" stroke-linecap="round" stroke-linejoin="round" stroke-miterlimit="22.926"/><path d="M194.208 437.842c3.473 4.13 7.92 6.897 11.965 4.745 1.611-.857 7.484-6.61-4.09-19.183m-21.562 4.688s5.062-.562 13.688 9.75m-84.188 42.375s16.125-43.688 39.375-60.562m15.562 22.687s-5.062 0-14.812 31.5m24.562-36s5.719 4.617 9.889 15.643m9.611-15.643c.066.104 7.129 12.97 3.35 18.751-2.82 4.315-10.146 5.928-12.961-3.108m-19.639-11.143s3.881 10.039 4.631 14.727" fill="none" stroke="#000" stroke-width="8.504" stroke-linecap="round" stroke-linejoin="round" stroke-miterlimit="22.926"/><path d="M184.597 453.485c.766 4.391-1.154 9.099-7.137 9.987-3.023.448-7.135-1.902-7.871-6.403m-2.316-67.046s4.18 5.237 5.268 12.23" fill="none" stroke="#000" stroke-width="8.504" stroke-linecap="round" stroke-linejoin="round" stroke-miterlimit="22.926"/></g></g><g id="n1103"><g><path fill-rule="evenodd" clip-rule="evenodd" fill="#e186ae" d="M56.377 175.591l3.859 7.6 2.399-11.19 3.849-12.937 2.682-6.87 2.367-7.504 10.089-13.031-7.905-6.592 6.295-9.017 8.691-10.01 11.338-9.956 6.451-4.467-3.138-4.647 4.531-11.61 3.681-13.92.92-13.849-2.898-11.061-5.115-5.278-5.075 5.766-10.336 14.978-10.39 16.961-9.008 17.827-8.197 21.59-4.127 15.399-2.903 16.03-1.582 15.768 3.522 10.63 1.323 5.395z"/><path d="M78.15 118.538s5.354 2.333 6.26 2.527c.906.194 13.279 3.328 13.279 3.328l15.582 2.696 15.068.63 20.338-2.385.139 6.7 6.699-.065 12.494-2.127 13.176-4.28 17.818-7.53 15.77-6.654 19.275-5.037 16.051 2.607 5.615 3.736 5.006-3.182-4.791-6.568-8.578-8.502-13.789-8.844-16.82-6.346-25.467-4.353-23.74-.519-23.299 2.544-21.965 6.529-15.779 8.173-14.758 11.461-8.197 8.913-5.387 6.548z" fill-rule="evenodd" clip-rule="evenodd" fill="#f9d740"/><path fill-rule="evenodd" clip-rule="evenodd" fill="#67559d" d="M251.564 32.687l-6.185 1.846-3.02 6.85-2.652 9.377-1.535 11.072-.026 10.323.702 6.758 2.386 11.046 8.594 6.612 6.945 7.398 4.262 6.033-5.32 2.683 7.137 8.682 5.214-4.146 4.401 3.584 5.474 4.821 5.094 6.351 3.471 7.248 3.685-1.379 1.817-6.479.306-11.598-2.543-12.289-6.66-17.049-7.875-15.327-7.578-13.33-6.615-11.436-5.512-9.905-3.967-7.746z"/><path fill-rule="evenodd" clip-rule="evenodd" fill="#f9d740" d="M284.078 184.029l7.611-.016-.209-11.506-.976-14.187-2.313-13.561-3.421-9.158-5.547-8.378-8.957-8.21-6.391 3.962 4.309 7.714 4.179 9.113 3.356 8.794 3.572 11.517 2.682 11.237 2.105 12.679z"/><path fill-rule="evenodd" clip-rule="evenodd" fill="#4ab57e" d="M173.361 128.306l8.887-3.193 12.699-5.289 14.084-6.144 13.748-5.041 13.756-2.448 13.565 2.758 11.509 10.573 7.682 13.414 5.457 12.953 4.543 14.224 2.891 12.279 2.129 13.554.974 14.108-.156 9.98 4.857 7.251 2.244 7.206-.539 6.168-8.939 15.531-14.526 3.391-13.474 6.953-10.873 4.656-12.098 3.969-9.652 4.531-6.377 2.031-9.373 3.469h-30.68l-.658-30.743 1.248-7.426 1.576-18.567 1.19-24.964-.155-22.522-1.484-20.017-1.975-13.569-2.08-9.076z"/><path fill-rule="evenodd" clip-rule="evenodd" d="M227.365 239.358l6.709-5.224 7.625-4.777-.203-9.295-.617-9.278-10.449-3.621-6.752-1.376 1.179-7.706 5.311-7.948 3.34-5.892-3.418-8.72-5.852-4.588-7.152 1.17-3.553 5.945.346 4.986 1.84 8.907 2.426 9.395 4.726 14.193 3.551 10.439.943 13.39z"/><path d="M82.671 124.69l4.935-2.871 14.705 3.574 17.002 1.948 17.889-.661 13.174-1.716 1.791 7.037 13.461-1.583 7.809-1.79 2.006 8.753 2.055 14.651 1.217 14.842.264 15.354-.004 14.441-.77 16.692-.912 11.862-2.25 19.222-1.68 30.743h-7.609l-10 3-10.076 4-7.547 1.5-23.121 11.628h-12.699l-5.057-14.628-14.581-.5H68.752l-11.812-2.5-2.395-11.237-2.522-6.861.498-9.139 3.354-7.698.303-9.135.256-14.978 1.629-20.814 2.174-14.636 3.113-13.956 4.475-13.606 3.709-8.783 3.719-7.621 7.419-11.471c-.001.001-.095-3.105-.001-3.063z" fill-rule="evenodd" clip-rule="evenodd" fill="#fff"/><path fill-rule="evenodd" clip-rule="evenodd" d="M102.309 242.881l7.232 1.648 11.889 5.052 3.648-9.802 3.297-10.683.939-3.312-7.427-8.747-4.828-8.058 3.564-5.733 9.621-4.324 4.508-.513 2.687-8.725-.089-7.884-5.35-5.714-7.41.522-5.211 5.301-3.356 11.112-3.138 10.68-3.254 11.393-3.289 11.98-2.405 9.207-1.628 6.6z"/><path d="M84.41 121.065c13.125 2.625 62.096 20.321 122.531-21.214M75.252 127.754c50.12-89.564 172.5-53.384 188.623-15.064M104.473 31.252c7.157 3.158 15.401 25.938 2.02 60.365m-45.841 89.635C30.527 93.784 95.377 53.003 113.752 17.19m132.096 14.062c-3.412 6.11-12.529 31.115-4.613 58.707m4.017-71.769c8.5 31.5 59.939 81.781 44.939 119.656m-22.125-20.625c13.85 11.528 30.686 14.891 23.625 68.438m-142.875-53.625c54.562 2.156 82.688-44.625 109.125-17.25m27.188 95.25c2.062-37.875-13.125-79.125-27.188-95.25m33.75 115.875s3.75-8.438-6.562-20.625m-78.75-54.375s13.5-16.434 34.875-2.625m-136.781 14.699s8.014-24.544 36.28-16.294M86.789 124.69c-26.037 30.969-29.287 96.969-28.349 119.469m0 21s-6.75-9.937 0-21m115.876-112.5c6.375 29.812 3.545 96.749-.955 140.062m-87.359-29.999s29.812-1.688 43.688 14.812m-10.311-74.625c3.373-8.062 17.438-9.938 18.75 3.562m-21.752 21.563s6.937-8.438 18.375-8.625m3.377-12.938s-.752 7.125-3.377 12.938m-15.373-16.5s-11.076 35.882-17.07 60.973m14.068-35.848s1.312 6.562 12.938 18.75m-7.885 23.797s3.01-6.359 7.885-23.797m92.814 18.375s19.367-24.097 38.062-19.875m-46.312-41.25c-3.188-12.188 11.062-17.438 16.875-6.375m-3.539 60.563c2.062-16.313-6.961-19.688-13.336-54.188m27 27.75s1.348 8.394 1.084 13.484m-1.084-13.484c-7.004-3.369-14.223-4.418-18.195-5.183m11.07-19.755s-11.83 12.883-11.07 19.754m8.07-28.941s2.81 6 3 9.188" fill="none" stroke="#000" stroke-width="8.504" stroke-linecap="round" stroke-linejoin="round" stroke-miterlimit="22.926"/></g></g><g id="n1104"><g><g><path d="M159.73 250.204l8.211-3.891 11.027-2.285 10.494 1.247 10.076 5.038 8.518 7.755s6.219 9.999 5.783 8.64c-.434-1.36-.258 6.447-.258 6.447l-5.324 7.535-10.76 6.38-17.371 3.647-13.688-2.312-11.121-5.463-8.254-8.361-.953-10.656 6.594-8.75 7.026-4.971z" fill-rule="evenodd" clip-rule="evenodd" fill="#fff"/><path fill-rule="evenodd" clip-rule="evenodd" fill="#e186ae" d="M144.721 270.249l-13.592-4.721-22.58-5.938-17.885-.903-20.361 2.532-15.758 5.234.66 5.973-8.994 5.261-11.959 8.473 4.271 5.853.504 5.051-.341 11.333 3.664 15.673 6.017 11.805 11.307 14.393 15.111 13.691 15.217 10.749 17.281 9.934 17.733 7.944 19.822 5.992 20.24 3.988 20.274 1.962 20.957-.216 19.068-2.375 23.664-6.236 19.459-7.515 21.039-12.374 19.193-19.036 10.973-19.234 5.922-18.945 5.814-.75 1.676-14.685.518-14.008-2.569-10.495 5.625-1.875-2.998-7.245-8.121-7.975-13.804-3.181 4.564-5.291 5.547-4.246-4.606-7.112-6.279-5.342-13.713-4.501-15.004-1.698-14.631 2.315-11.898 3.539-13.789 7.696-10.723 8.879-11.357 12.537-6.018 1.629-1.174 7.632-4.429 6.27-10.76 6.38-10.342 3.068-12.746-.388-13.531-4.077-9.688-6.913-6.47-8.511z"/><path fill-rule="evenodd" clip-rule="evenodd" fill="#fff" d="M109.633 292.49l-2.149 8.695.317 10.154 5.207 8.199 8.572 3.325 5.99 4.535 9.52 3.783 9.584-.041 5.828-.447 1.838 8.085 4.111 5.627 7.762 4.122 8.541.579 9.808-6.527 5.106 6.114 9.914 2.452 11.025-1.063 7.36-2.935 3.797-4.902.443-7.942 9.076-.669 9.09-3.504 5.955-5.74 5.199-5.437 6.483-3.811 4.547-7.631.816-8.071-1.473-9.171-2.836-8.158-6.908 4.207-7.351 5.017-10.041 6.962-10.547 6.161-13.229 4.578-12.927.825-9.467-3.429-6.672-7.444-2.578 4.937-3.51 5.578-9.088 2.199-13.164-1.325-13.764-4.6-11.929-5.491-9.467-4.489-8.789-3.307z"/><path fill-rule="evenodd" clip-rule="evenodd" fill="#f9d740" d="M104.377 362.285l4.078-5.86 4.623-8.932 7.598-8.258 6.869-2.006 30.084 13.916-6-15.955-26.961-10.775-8.834-3.197-5.955-6.607-2.699-9.915 2.453-12.206-12.051-1.233-12.314 3.179-7.918 7.871-3.547 10.683-.563 11.005 3.739 12.731 7.492 10.471 9.195 8.197 10.711 6.891z"/><path fill-rule="evenodd" clip-rule="evenodd" fill="#67559d" d="M153.719 351.888l10.098-4.634 16.632-.064 29.125 2.991 8.393-3.034 3.797-4.902 1.65-8.031 7.869-.58 7.576-2.921 6.02-4.461 4.951-6.764 5.996-3.063 4.457-5.099 2.682-7.851-.328-8.62-2.155-8.665-2.109-3.689 8.479-3.645 10.541-1.793 10.318 1.931 8.139 5.54 5.16 7.021 2.761 7.635.432 6.805-.064 7.855-1.428 11.143-3.861 11.415-4.33 7.03-7.071 7.194-3.445 2.653-6.5-8.03-6.85-5.185-9.193-1.794-6.791 3.206-6.527 7.844-8.133 1.067-6.994 3.81-7.561 8.972-8.322-2.482-10.09.23-6.535 2.042L160.629 360z"/><path fill-rule="evenodd" clip-rule="evenodd" fill="#60f4e4" d="M104.377 362.285l4.078-5.86 4.623-8.932 7.598-8.258 6.869-2.006 6.191 2.367 2.612 3.622 1.765 4.523 8.649 1.236 6.957 2.911 4.396 4.507 3.83 7.156 5.961-3.234 6.905-2.334 10.418 1.003 8.214 4.114 2.762 2.138 7.57-3.294 8.313-1.136 13.367 2.367 4.082-5.662 6.975-5.216 7.564-2.438 4.067-.533 4.896-6.376 8.422-4.674 9.193 1.794 6.85 5.185 6.5 8.03-12.236 7.771-13.329 7.34-19.505 7.697-14.168 3.516-19.539 2.597-20.573.565-15.332-.83-19.004-2.716-13.994-3.347-16.898-5.881-9.143-4.278-5.906-3.434z"/><path d="M52.814 267.221s45.375-22.125 91.502 4.5M4.252 247.67c18.187-1.875 56.675 10.519 101.3 24.769m108.03.716s33.107-47.746 78.109-42.496m30.188 18.187s-2.25-12.937-30.188-18.187m-29.437 21.563s46.312-18.563 81.938-22.125m-60.188 31.312c11.25-3.562 46.875-3.807 80.062-3.188m-52.298.162s3.979-5.975 10.111-9.537m14.812 27.938s-3.543-18.816-24.924-18.4m19.299 20.275c3.76 6.522 3.168 17.412.375 39.188M18.877 280.159s57.375 0 61.5 1.5m71.252-1.5s24.373 22.312 54.75 2.062m-45.75-12s6.492 4.501 6.375 10.876m34.687-8.813s-5.625 5.625-6.938 10.125m-40.876-28.125s27.752-23.951 53.064 2.812m-.562 25.125c1.781-1.354 14.438-10.875.562-25.125m-53.064-2.812s-17.061 12-2.248 25.875m28.498 10.557s3.189 20.942-10.498 20.755m27.375-1.687s-16.689-2.511-16.877-19.067m80.439-9.433c-21.938 11.812-36.188 30.751-63.562 28.5m106.873-9.375c0-6.187-11.248-33.75-43.311-19.125m23.438 72.001c7.258-5.433 22.873-16.501 19.873-52.876m-199.5 61.876s28.262 19.598 80.277 20.486c53.896.921 78.248-15.854 99.35-29.486M73.252 322.347s-2.25 21.375 31.125 39.938m7.5-69.189s-39.561-12.937-38.625 29.251m96.377-10.876c-21 2.438-40.875-12.188-57.752-18.375" fill="none" stroke="#000" stroke-width="8.504" stroke-linecap="round" stroke-linejoin="round" stroke-miterlimit="22.926"/><path d="M245.848 254.626a4.252 4.252 0 1 1 0 8.504 4.252 4.252 0 0 1 0-8.504zm-111.19 30.188a4.25 4.25 0 0 1 4.252 4.252 4.252 4.252 0 1 1-4.252-4.252zm-9.562-13.688a4.252 4.252 0 1 1 0 8.504 4.252 4.252 0 1 1 0-8.504zm108.377 1.313a4.252 4.252 0 1 1 0 8.504 4.252 4.252 0 0 1 0-8.504z" fill-rule="evenodd" clip-rule="evenodd"/><path d="M229.627 401.097c34.254-8.393 83.437-24.375 96-82.5m-206.625 71.625s52.125 23.25 110.625 10.875M56.189 271.91s-11.437 5.812-21.937 14.25" fill="none" stroke="#000" stroke-width="8.504" stroke-linecap="round" stroke-linejoin="round" stroke-miterlimit="22.926"/><path d="M119.002 390.222s-89.668-37.099-79.707-94.873c.441-2.56-2.824-6.898-5.043-9.189m18.562-18.939l3.375 4.689m269.438 46.687l5.814-.75m-.375-39.188l5.625-1.875M109.633 292.49s-10.553 26.998 11.947 30.373m1.5-12.375s-6.053 17.132 14.01 20.693m14.871-11.061c-2.096 8.883 1.068 14.226-14.872 11.061M102.872 360s21.796-35.585 41.444-11.373m17.952 15.861s-8.438-28.312-34.312-8.812m68.249 9.562s-17.625-16.312-33.938-.75m63.188-1.313s-13.875-7.5-29.25 2.062m63-12.937s-20.437-11.625-33.75 10.875m58.549-9.89s-17.252-35.925-35.861-3.959m15.23-66.917s10.082 30.517-13.543 37.079m.938-16.688s5.189 32.44-28.561 31.503" fill="none" stroke="#000" stroke-width="8.504" stroke-linecap="round" stroke-linejoin="round" stroke-miterlimit="22.926"/><path d="M222.129 317.847s.83 12.64-.365 24.397c-.908 8.954-30.648 13.643-36.512 2.125-2.299-4.517-1.889-15.349-1.422-20.757" fill="none" stroke="#000" stroke-width="8.504" stroke-linecap="round" stroke-linejoin="round" stroke-miterlimit="22.926"/><path d="M151.961 320.12c-.154 11.512-.434 10.971 2.378 18.658s14.49 12.397 21.803 9.96 7.355-14.643 7.688-25.125" fill="none" stroke="#000" stroke-width="8.504" stroke-linecap="round" stroke-linejoin="round" stroke-miterlimit="22.926"/><path d="M159.73 250.204l8.211-3.891 11.027-2.285 10.494 1.247 10.076 5.038 8.518 7.755s6.219 9.999 5.783 8.64c-.434-1.36-.258 6.447-.258 6.447l-5.324 7.535-10.76 6.38-17.371 3.647-13.688-2.312-11.121-5.463-8.254-8.361-.953-10.656 6.594-8.75 7.026-4.971z" fill-rule="evenodd" clip-rule="evenodd" fill="#fff"/><path fill-rule="evenodd" clip-rule="evenodd" fill="#e186ae" d="M144.721 270.249l-13.592-4.721-22.58-5.938-17.885-.903-20.361 2.532-15.758 5.234.66 5.973-8.994 5.261-11.959 8.473 4.271 5.853.504 5.051-.341 11.333 3.664 15.673 6.017 11.805 11.307 14.393 15.111 13.691 15.217 10.749 17.281 9.934 17.733 7.944 19.822 5.992 20.24 3.988 20.274 1.962 20.957-.216 19.068-2.375 23.664-6.236 19.459-7.515 21.039-12.374 19.193-19.036 10.973-19.234 5.922-18.945 5.814-.75 1.676-14.685.518-14.008-2.569-10.495 5.625-1.875-2.998-7.245-8.121-7.975-13.804-3.181 4.564-5.291 5.547-4.246-4.606-7.112-6.279-5.342-13.713-4.501-15.004-1.698-14.631 2.315-11.898 3.539-13.789 7.696-10.723 8.879-11.357 12.537-6.018 1.629-1.174 7.632-4.429 6.27-10.76 6.38-10.342 3.068-12.746-.388-13.531-4.077-9.688-6.913-6.47-8.511z"/><path fill-rule="evenodd" clip-rule="evenodd" fill="#fff" d="M109.633 292.49l-2.149 8.695.317 10.154 5.207 8.199 8.572 3.325 5.99 4.535 9.52 3.783 9.584-.041 5.828-.447 1.838 8.085 4.111 5.627 7.762 4.122 8.541.579 9.808-6.527 5.106 6.114 9.914 2.452 11.025-1.063 7.36-2.935 3.797-4.902.443-7.942 9.076-.669 9.09-3.504 5.955-5.74 5.199-5.437 6.483-3.811 4.547-7.631.816-8.071-1.473-9.171-2.836-8.158-6.908 4.207-7.351 5.017-10.041 6.962-10.547 6.161-13.229 4.578-12.927.825-9.467-3.429-6.672-7.444-2.578 4.937-3.51 5.578-9.088 2.199-13.164-1.325-13.764-4.6-11.929-5.491-9.467-4.489-8.789-3.307z"/><path fill-rule="evenodd" clip-rule="evenodd" fill="#f9d740" d="M104.377 362.285l4.078-5.86 4.623-8.932 7.598-8.258 6.869-2.006 30.084 13.916-6-15.955-26.961-10.775-8.834-3.197-5.955-6.607-2.699-9.915 2.453-12.206-12.051-1.233-12.314 3.179-7.918 7.871-3.547 10.683-.563 11.005 3.739 12.731 7.492 10.471 9.195 8.197 10.711 6.891z"/><path fill-rule="evenodd" clip-rule="evenodd" fill="#67559d" d="M153.719 351.888l10.098-4.634 16.632-.064 29.125 2.991 8.393-3.034 3.797-4.902 1.65-8.031 7.869-.58 7.576-2.921 6.02-4.461 4.951-6.764 5.996-3.063 4.457-5.099 2.682-7.851-.328-8.62-2.155-8.665-2.109-3.689 8.479-3.645 10.541-1.793 10.318 1.931 8.139 5.54 5.16 7.021 2.761 7.635.432 6.805-.064 7.855-1.428 11.143-3.861 11.415-4.33 7.03-7.071 7.194-3.445 2.653-6.5-8.03-6.85-5.185-9.193-1.794-6.791 3.206-6.527 7.844-8.133 1.067-6.994 3.81-7.561 8.972-8.322-2.482-10.09.23-6.535 2.042L160.629 360z"/><path fill-rule="evenodd" clip-rule="evenodd" fill="#60f4e4" d="M104.377 362.285l4.078-5.86 4.623-8.932 7.598-8.258 6.869-2.006 6.191 2.367 2.612 3.622 1.765 4.523 8.649 1.236 6.957 2.911 4.396 4.507 3.83 7.156 5.961-3.234 6.905-2.334 10.418 1.003 8.214 4.114 2.762 2.138 7.57-3.294 8.313-1.136 13.367 2.367 4.082-5.662 6.975-5.216 7.564-2.438 4.067-.533 4.896-6.376 8.422-4.674 9.193 1.794 6.85 5.185 6.5 8.03-12.236 7.771-13.329 7.34-19.505 7.697-14.168 3.516-19.539 2.597-20.573.565-15.332-.83-19.004-2.716-13.994-3.347-16.898-5.881-9.143-4.278-5.906-3.434z"/><path d="M52.814 267.221s45.375-22.125 91.502 4.5M4.252 247.67c18.187-1.875 56.675 10.519 101.3 24.769m108.03.716s33.107-47.746 78.109-42.496m30.188 18.187s-2.25-12.937-30.188-18.187m-29.437 21.563s46.312-18.563 81.938-22.125m-60.188 31.312c11.25-3.562 46.875-3.807 80.062-3.188m-52.298.162s3.979-5.975 10.111-9.537m14.812 27.938s-3.543-18.816-24.924-18.4m19.299 20.275c3.76 6.522 3.168 17.412.375 39.188M18.877 280.159s57.375 0 61.5 1.5m71.252-1.5s24.373 22.312 54.75 2.062m-45.75-12s6.492 4.501 6.375 10.876m34.687-8.813s-5.625 5.625-6.938 10.125m-40.876-28.125s27.752-23.951 53.064 2.812m-.562 25.125c1.781-1.354 14.438-10.875.562-25.125m-53.064-2.812s-17.061 12-2.248 25.875m28.498 10.557s3.189 20.942-10.498 20.755m27.375-1.687s-16.689-2.511-16.877-19.067m80.439-9.433c-21.938 11.812-36.188 30.751-63.562 28.5m106.873-9.375c0-6.187-11.248-33.75-43.311-19.125m23.438 72.001c7.258-5.433 22.873-16.501 19.873-52.876m-199.5 61.876s28.262 19.598 80.277 20.486c53.896.921 78.248-15.854 99.35-29.486M73.252 322.347s-2.25 21.375 31.125 39.938m7.5-69.189s-39.561-12.937-38.625 29.251m96.377-10.876c-21 2.438-40.875-12.188-57.752-18.375" fill="none" stroke="#000" stroke-width="8.504" stroke-linecap="round" stroke-linejoin="round" stroke-miterlimit="22.926"/><path d="M245.848 254.626a4.252 4.252 0 1 1 0 8.504 4.252 4.252 0 0 1 0-8.504zm-111.19 30.188a4.25 4.25 0 0 1 4.252 4.252 4.252 4.252 0 1 1-4.252-4.252zm-9.562-13.688a4.252 4.252 0 1 1 0 8.504 4.252 4.252 0 1 1 0-8.504zm108.377 1.313a4.252 4.252 0 1 1 0 8.504 4.252 4.252 0 0 1 0-8.504z" fill-rule="evenodd" clip-rule="evenodd"/><path d="M229.627 401.097c34.254-8.393 83.437-24.375 96-82.5m-206.625 71.625s52.125 23.25 110.625 10.875M56.189 271.91s-11.437 5.812-21.937 14.25" fill="none" stroke="#000" stroke-width="8.504" stroke-linecap="round" stroke-linejoin="round" stroke-miterlimit="22.926"/><path d="M119.002 390.222s-89.668-37.099-79.707-94.873c.441-2.56-2.824-6.898-5.043-9.189m18.562-18.939l3.375 4.689m269.438 46.687l5.814-.75m-.375-39.188l5.625-1.875M109.633 292.49s-10.553 26.998 11.947 30.373m1.5-12.375s-6.053 17.132 14.01 20.693m14.871-11.061c-2.096 8.883 1.068 14.226-14.872 11.061M102.872 360s21.796-35.585 41.444-11.373m17.952 15.861s-8.438-28.312-34.312-8.812m68.249 9.562s-17.625-16.312-33.938-.75m63.188-1.313s-13.875-7.5-29.25 2.062m63-12.937s-20.437-11.625-33.75 10.875m58.549-9.89s-17.252-35.925-35.861-3.959m15.23-66.917s10.082 30.517-13.543 37.079m.938-16.688s5.189 32.44-28.561 31.503" fill="none" stroke="#000" stroke-width="8.504" stroke-linecap="round" stroke-linejoin="round" stroke-miterlimit="22.926"/><path d="M222.129 317.847s.83 12.64-.365 24.397c-.908 8.954-30.648 13.643-36.512 2.125-2.299-4.517-1.889-15.349-1.422-20.757" fill="none" stroke="#000" stroke-width="8.504" stroke-linecap="round" stroke-linejoin="round" stroke-miterlimit="22.926"/><path d="M151.961 320.12c-.154 11.512-.434 10.971 2.378 18.658s14.49 12.397 21.803 9.96 7.355-14.643 7.688-25.125" fill="none" stroke="#000" stroke-width="8.504" stroke-linecap="round" stroke-linejoin="round" stroke-miterlimit="22.926"/></g><path d="M157.629 237.222s16.311-11.813 38.248-4.5" fill="none" stroke="#000" stroke-width="8.504" stroke-linecap="round" stroke-linejoin="round" stroke-miterlimit="22.926"/></g></g></svg>