<?xml version="1.0" encoding="utf-8"?>
<!-- Generator: Adobe Illustrator 19.2.1, SVG Export Plug-In . SVG Version: 6.00 Build 0)  -->
<svg version="1.1" xmlns="http://www.w3.org/2000/svg" xmlns:xlink="http://www.w3.org/1999/xlink" x="0px" y="0px"
	 viewBox="0 0 368.318 517.075" style="enable-background:new 0 0 368.318 517.075;" xml:space="preserve">
<g id="n1101_1_">
	<g>
		<path style="fill-rule:evenodd;clip-rule:evenodd;fill:#67559D;" d="M130.224,500.19c0,0-3.472-64,12.028-93s79.204-28.004,90,15
			c10.796,43.004,17.167,51.904,17.167,51.904s8.633,5.232-2.429,13.576C235.929,496.014,188.195,532.69,130.224,500.19z"/>
		
			<path style="fill:none;stroke:#000000;stroke-width:8.5039;stroke-linecap:round;stroke-linejoin:round;stroke-miterlimit:22.9256;" d="
			M130.224,502.67c15.75,10.312,81.75,22.5,123-21"/>
	</g>
</g>
<g id="n1102_1_">
	<g>
		<path style="fill-rule:evenodd;clip-rule:evenodd;fill:#F9D740;" d="M164.958,442.342l2.598,7.277l2.033,7.449l5.68,6.279
			l5.07-0.72c0,0,8.379-4.654,6.311-5.065c-2.07-0.412,4.381,2.479,4.381,2.479l5.24-1.575l2.391-5.834l-0.77-5.647l4.496-3.703
			l5.174-1.916l1.188-7.206l-4.273-7.949l-2.283-2.896l-7.682-5.544l-9.389-4.212l-11.164-1.643l-0.891-7.255l-1.667-7.64
			l-1.812-5.667l-4.631-2.667l-5.557,3l-33.806,8.352l-7.562,4.48l-7.773,7.154l-6.76,8.889l-5.645,10.062l-5.373,12.926
			l-3.305,10.88l-2.299,12.814l-1.059,13.143l-0.078,9.58l1.293,8.658l5.867,8.956l10.279,4.464l14.377-0.614l9.666-3.594
			l7.656-6.671l7.301-10.129l5.639-11.175l3.307-9.136l4.15-11.861l4.154-9.453L164.958,442.342L164.958,442.342z"/>
		<polygon style="fill-rule:evenodd;clip-rule:evenodd;fill:#FFFFFF;" points="169.907,404.664 183.759,413.361 191.708,416.217 
			198.353,420.544 202.083,423.405 205.396,427.924 208.245,432.575 209.038,437.757 206.173,442.587 199.491,442.334 
			198.122,448.67 197.829,454.664 195.22,458.913 198.915,464.643 202.71,466.687 209.169,465.4 214.196,469.366 220.427,471.375 
			225.831,467.525 226.755,457.905 232.151,457.787 237.931,462.934 244.653,470.23 249.419,477.094 254.53,485.968 259.2,495.839 
			263.796,504.066 270.704,507.424 279.419,507.368 287.315,502.829 291.819,495.872 294.173,484.528 293.421,474 290.515,461.429 
			284.425,447.84 275.437,435.626 265.329,424.853 255.093,416.307 245.546,410.329 229.614,404.664 220.7,405.101 213.521,344.69 
			175.739,352.69 167.273,385.69 		"/>
		
			<path style="fill:none;stroke:#000000;stroke-width:8.5039;stroke-linecap:round;stroke-linejoin:round;stroke-miterlimit:22.9256;" d="
			M215.067,356.024c0,0-1.666,9.333,0,28.333s11.066,19.976,11.066,19.976s25.777-0.662,55.027,38.525"/>
		
			<path style="fill:none;stroke:#000000;stroke-width:8.5039;stroke-linecap:round;stroke-linejoin:round;stroke-miterlimit:22.9256;" d="
			M294.099,486.733c0,0,1.875-23.438-12.938-43.875"/>
		
			<path style="fill:none;stroke:#000000;stroke-width:8.5039;stroke-linecap:round;stroke-linejoin:round;stroke-miterlimit:22.9256;" d="
			M233.583,420.405c0,0,16.875,4.875,48.938,53.438"/>
		
			<path style="fill:none;stroke:#000000;stroke-width:8.5039;stroke-linecap:round;stroke-linejoin:round;stroke-miterlimit:22.9256;" d="
			M260.765,499.725c3.188,10.312,29.912,15.461,33.334-12.992"/>
		
			<path style="fill:none;stroke:#000000;stroke-width:8.5039;stroke-linecap:round;stroke-linejoin:round;stroke-miterlimit:22.9256;" d="
			M226.646,454.717c16.312,6.938,28.979,31.508,34.119,45.008"/>
		
			<path style="fill:none;stroke:#000000;stroke-width:8.5039;stroke-linecap:round;stroke-linejoin:round;stroke-miterlimit:22.9256;" d="
			M202.083,423.405c0,0,12.75-10.688,31.5-3"/>
		
			<path style="fill:none;stroke:#000000;stroke-width:8.5039;stroke-linecap:round;stroke-linejoin:round;stroke-miterlimit:22.9256;" d="
			M225.708,440.092c0,0,1.5,22.126,1.125,24.188c-0.262,1.44-1.525,7.222-6.406,7.096c-2.316-0.06-8.629-0.862-9.156-8.033"/>
		
			<path style="fill:none;stroke:#000000;stroke-width:8.5039;stroke-linecap:round;stroke-linejoin:round;stroke-miterlimit:22.9256;" d="
			M213.521,445.342c0,0-0.75,14.812-2.25,18"/>
		
			<path style="fill:none;stroke:#000000;stroke-width:8.5039;stroke-linecap:round;stroke-linejoin:round;stroke-miterlimit:22.9256;" d="
			M196.271,458.467c-1.125,3.375,5.812,15.375,15,4.875"/>
		
			<path style="fill:none;stroke:#000000;stroke-width:8.5039;stroke-linecap:round;stroke-linejoin:round;stroke-miterlimit:22.9256;" d="
			M171.401,360.69c0,0-0.667,17.334-8.667,25.667s-30.243,11.641-30.243,11.641s-26.596,1.782-41.971,51.47"/>
		
			<path style="fill:none;stroke:#000000;stroke-width:8.5039;stroke-linecap:round;stroke-linejoin:round;stroke-miterlimit:22.9256;" d="
			M85.833,492.405c0,0-1.367-22.914,4.688-42.938"/>
		
			<path style="fill:none;stroke:#000000;stroke-width:8.5039;stroke-linecap:round;stroke-linejoin:round;stroke-miterlimit:22.9256;" d="
			M130.224,505.67c-7.5,7.312-41.953,15.047-44.391-13.266"/>
		
			<path style="fill:none;stroke:#000000;stroke-width:8.5039;stroke-linecap:round;stroke-linejoin:round;stroke-miterlimit:22.9256;" d="
			M150.146,473.842c0,0-6.844,21.094-19.922,31.828"/>
		
			<path style="fill:none;stroke:#000000;stroke-width:8.5039;stroke-linecap:round;stroke-linejoin:round;stroke-miterlimit:22.9256;" d="
			M149.396,419.655c0,0,26.438-19.688,52.688,3.75"/>
		
			<path style="fill:none;stroke:#000000;stroke-width:8.5039;stroke-linecap:round;stroke-linejoin:round;stroke-miterlimit:22.9256;" d="
			M194.208,437.842c3.473,4.13,7.92,6.897,11.965,4.745c1.611-0.857,7.484-6.61-4.09-19.183"/>
		
			<path style="fill:none;stroke:#000000;stroke-width:8.5039;stroke-linecap:round;stroke-linejoin:round;stroke-miterlimit:22.9256;" d="
			M180.521,428.092c0,0,5.062-0.562,13.688,9.75"/>
		
			<path style="fill:none;stroke:#000000;stroke-width:8.5039;stroke-linecap:round;stroke-linejoin:round;stroke-miterlimit:22.9256;" d="
			M110.021,480.217c0,0,16.125-43.688,39.375-60.562"/>
		
			<path style="fill:none;stroke:#000000;stroke-width:8.5039;stroke-linecap:round;stroke-linejoin:round;stroke-miterlimit:22.9256;" d="
			M164.958,442.342c0,0-5.062,0-14.812,31.5"/>
		
			<path style="fill:none;stroke:#000000;stroke-width:8.5039;stroke-linecap:round;stroke-linejoin:round;stroke-miterlimit:22.9256;" d="
			M174.708,437.842c0,0,5.719,4.617,9.889,15.643"/>
		
			<path style="fill:none;stroke:#000000;stroke-width:8.5039;stroke-linecap:round;stroke-linejoin:round;stroke-miterlimit:22.9256;" d="
			M194.208,437.842c0.066,0.104,7.129,12.97,3.35,18.751c-2.82,4.315-10.146,5.928-12.961-3.108"/>
		
			<path style="fill:none;stroke:#000000;stroke-width:8.5039;stroke-linecap:round;stroke-linejoin:round;stroke-miterlimit:22.9256;" d="
			M164.958,442.342c0,0,3.881,10.039,4.631,14.727"/>
		
			<path style="fill:none;stroke:#000000;stroke-width:8.5039;stroke-linecap:round;stroke-linejoin:round;stroke-miterlimit:22.9256;" d="
			M184.597,453.485c0.766,4.391-1.154,9.099-7.137,9.987c-3.023,0.448-7.135-1.902-7.871-6.403"/>
		
			<path style="fill:none;stroke:#000000;stroke-width:8.5039;stroke-linecap:round;stroke-linejoin:round;stroke-miterlimit:22.9256;" d="
			M167.273,390.023c0,0,4.18,5.237,5.268,12.23"/>
	</g>
</g>
<g id="n1103_1_">
	<g>
		<polygon style="fill-rule:evenodd;clip-rule:evenodd;fill:#E186AE;" points="56.377,175.591 60.236,183.191 62.635,172.001 
			66.484,159.064 69.166,152.194 71.533,144.69 81.622,131.659 73.717,125.067 80.012,116.05 88.703,106.04 100.041,96.084 
			106.492,91.617 103.354,86.97 107.885,75.36 111.566,61.44 112.486,47.591 109.588,36.53 104.473,31.252 99.398,37.018 
			89.062,51.996 78.672,68.957 69.664,86.784 61.467,108.374 57.34,123.773 54.437,139.803 52.855,155.571 56.377,166.201 
			57.7,171.596 		"/>
		<path style="fill-rule:evenodd;clip-rule:evenodd;fill:#F9D740;" d="M78.15,118.538c0,0,5.354,2.333,6.26,2.527
			c0.906,0.194,13.279,3.328,13.279,3.328l15.582,2.696l15.068,0.63l20.338-2.385l0.139,6.7l6.699-0.065l12.494-2.127l13.176-4.28
			l17.818-7.53l15.77-6.654l19.275-5.037l16.051,2.607l5.615,3.736l5.006-3.182l-4.791-6.568l-8.578-8.502l-13.789-8.844
			l-16.82-6.346l-25.467-4.353l-23.74-0.519l-23.299,2.544l-21.965,6.529l-15.779,8.173l-14.758,11.461l-8.197,8.913L78.15,118.538
			L78.15,118.538z"/>
		<polygon style="fill-rule:evenodd;clip-rule:evenodd;fill:#67559D;" points="251.564,32.687 245.379,34.533 242.359,41.383 
			239.707,50.76 238.172,61.832 238.146,72.155 238.848,78.913 241.234,89.959 249.828,96.571 256.773,103.969 261.035,110.002 
			255.715,112.685 262.852,121.367 268.066,117.221 272.467,120.805 277.941,125.626 283.035,131.977 286.506,139.225 
			290.191,137.846 292.008,131.367 292.314,119.769 289.771,107.48 283.111,90.431 275.236,75.104 267.658,61.774 261.043,50.338 
			255.531,40.433 251.564,32.687 		"/>
		<polygon style="fill-rule:evenodd;clip-rule:evenodd;fill:#F9D740;" points="284.078,184.029 291.689,184.013 291.48,172.507 
			290.504,158.32 288.191,144.759 284.77,135.601 279.223,127.223 270.266,119.013 263.875,122.975 268.184,130.689 
			272.363,139.802 275.719,148.596 279.291,160.113 281.973,171.35 284.078,184.029 		"/>
		<polygon style="fill-rule:evenodd;clip-rule:evenodd;fill:#4AB57E;" points="173.361,128.306 182.248,125.113 194.947,119.824 
			209.031,113.68 222.779,108.639 236.535,106.191 250.1,108.949 261.609,119.522 269.291,132.936 274.748,145.889 279.291,160.113 
			282.182,172.392 284.311,185.946 285.285,200.054 285.129,210.034 289.986,217.285 292.23,224.491 291.691,230.659 
			282.752,246.19 268.226,249.581 254.752,256.534 243.879,261.19 231.781,265.159 222.129,269.69 215.752,271.721 206.379,275.19 
			190.752,275.19 175.699,275.19 175.041,244.447 176.289,237.021 177.865,218.454 179.055,193.49 178.9,170.968 177.416,150.951 
			175.441,137.382 173.361,128.306 		"/>
		<polygon style="fill-rule:evenodd;clip-rule:evenodd;" points="227.365,239.358 234.074,234.134 241.699,229.357 241.496,220.062 
			240.879,210.784 230.43,207.163 223.678,205.787 224.857,198.081 230.168,190.133 233.508,184.241 230.09,175.521 
			224.238,170.933 217.086,172.103 213.533,178.048 213.879,183.034 215.719,191.941 218.145,201.336 222.871,215.529 
			226.422,225.968 227.365,239.358 		"/>
		<path style="fill-rule:evenodd;clip-rule:evenodd;fill:#FFFFFF;" d="M82.671,124.69l4.935-2.871l14.705,3.574l17.002,1.948
			l17.889-0.661l13.174-1.716l1.791,7.037l13.461-1.583l7.809-1.79l2.006,8.753l2.055,14.651l1.217,14.842l0.264,15.354
			l-0.004,14.441l-0.77,16.692l-0.912,11.862l-2.25,19.222l-1.68,30.743h-7.609l-10,3l-10.076,4l-7.547,1.5l-23.121,11.628h-12.699
			l-5.057-14.628l-14.581-0.5H68.752l-11.812-2.5l-2.395-11.237l-2.522-6.861l0.498-9.139l3.354-7.698l0.303-9.135l0.256-14.978
			l1.629-20.814l2.174-14.636l3.113-13.956l4.475-13.606l3.709-8.783l3.719-7.621l7.419-11.471
			C82.671,127.754,82.577,124.648,82.671,124.69L82.671,124.69z"/>
		<polygon style="fill-rule:evenodd;clip-rule:evenodd;" points="102.309,242.881 109.541,244.529 121.43,249.581 125.078,239.779 
			128.375,229.096 129.314,225.784 121.887,217.037 117.059,208.979 120.623,203.246 130.244,198.922 134.752,198.409 
			137.439,189.684 137.35,181.8 132,176.086 124.59,176.608 119.379,181.909 116.023,193.021 112.885,203.701 109.631,215.094 
			106.342,227.074 103.937,236.281 102.309,242.881 		"/>
		
			<path style="fill:none;stroke:#000000;stroke-width:8.5039;stroke-linecap:round;stroke-linejoin:round;stroke-miterlimit:22.9256;" d="
			M84.41,121.065c13.125,2.625,62.096,20.321,122.531-21.214"/>
		
			<path style="fill:none;stroke:#000000;stroke-width:8.5039;stroke-linecap:round;stroke-linejoin:round;stroke-miterlimit:22.9256;" d="
			M75.252,127.754c50.12-89.564,172.5-53.384,188.623-15.064"/>
		
			<path style="fill:none;stroke:#000000;stroke-width:8.5039;stroke-linecap:round;stroke-linejoin:round;stroke-miterlimit:22.9256;" d="
			M104.473,31.252c7.157,3.158,15.401,25.938,2.02,60.365"/>
		
			<path style="fill:none;stroke:#000000;stroke-width:8.5039;stroke-linecap:round;stroke-linejoin:round;stroke-miterlimit:22.9256;" d="
			M60.652,181.252C30.527,93.784,95.377,53.003,113.752,17.19"/>
		
			<path style="fill:none;stroke:#000000;stroke-width:8.5039;stroke-linecap:round;stroke-linejoin:round;stroke-miterlimit:22.9256;" d="
			M245.848,31.252c-3.412,6.11-12.529,31.115-4.613,58.707"/>
		
			<path style="fill:none;stroke:#000000;stroke-width:8.5039;stroke-linecap:round;stroke-linejoin:round;stroke-miterlimit:22.9256;" d="
			M245.252,18.19c8.5,31.5,59.939,81.781,44.939,119.656"/>
		
			<path style="fill:none;stroke:#000000;stroke-width:8.5039;stroke-linecap:round;stroke-linejoin:round;stroke-miterlimit:22.9256;" d="
			M268.066,117.221c13.85,11.528,30.686,14.891,23.625,68.438"/>
		
			<path style="fill:none;stroke:#000000;stroke-width:8.5039;stroke-linecap:round;stroke-linejoin:round;stroke-miterlimit:22.9256;" d="
			M148.816,132.034c54.562,2.156,82.688-44.625,109.125-17.25"/>
		
			<path style="fill:none;stroke:#000000;stroke-width:8.5039;stroke-linecap:round;stroke-linejoin:round;stroke-miterlimit:22.9256;" d="
			M285.129,210.034c2.062-37.875-13.125-79.125-27.188-95.25"/>
		
			<path style="fill:none;stroke:#000000;stroke-width:8.5039;stroke-linecap:round;stroke-linejoin:round;stroke-miterlimit:22.9256;" d="
			M291.691,230.659c0,0,3.75-8.438-6.562-20.625"/>
		
			<path style="fill:none;stroke:#000000;stroke-width:8.5039;stroke-linecap:round;stroke-linejoin:round;stroke-miterlimit:22.9256;" d="
			M206.379,155.659c0,0,13.5-16.434,34.875-2.625"/>
		
			<path style="fill:none;stroke:#000000;stroke-width:8.5039;stroke-linecap:round;stroke-linejoin:round;stroke-miterlimit:22.9256;" d="
			M104.473,167.733c0,0,8.014-24.544,36.28-16.294"/>
		
			<path style="fill:none;stroke:#000000;stroke-width:8.5039;stroke-linecap:round;stroke-linejoin:round;stroke-miterlimit:22.9256;" d="
			M86.789,124.69c-26.037,30.969-29.287,96.969-28.349,119.469"/>
		
			<path style="fill:none;stroke:#000000;stroke-width:8.5039;stroke-linecap:round;stroke-linejoin:round;stroke-miterlimit:22.9256;" d="
			M58.44,265.159c0,0-6.75-9.937,0-21"/>
		
			<path style="fill:none;stroke:#000000;stroke-width:8.5039;stroke-linecap:round;stroke-linejoin:round;stroke-miterlimit:22.9256;" d="
			M174.316,131.659c6.375,29.812,3.545,96.749-0.955,140.062"/>
		
			<path style="fill:none;stroke:#000000;stroke-width:8.5039;stroke-linecap:round;stroke-linejoin:round;stroke-miterlimit:22.9256;" d="
			M86.002,241.722c0,0,29.812-1.688,43.688,14.812"/>
		
			<path style="fill:none;stroke:#000000;stroke-width:8.5039;stroke-linecap:round;stroke-linejoin:round;stroke-miterlimit:22.9256;" d="
			M119.379,181.909c3.373-8.062,17.438-9.938,18.75,3.562"/>
		
			<path style="fill:none;stroke:#000000;stroke-width:8.5039;stroke-linecap:round;stroke-linejoin:round;stroke-miterlimit:22.9256;" d="
			M116.377,207.034c0,0,6.937-8.438,18.375-8.625"/>
		
			<path style="fill:none;stroke:#000000;stroke-width:8.5039;stroke-linecap:round;stroke-linejoin:round;stroke-miterlimit:22.9256;" d="
			M138.129,185.471c0,0-0.752,7.125-3.377,12.938"/>
		
			<path style="fill:none;stroke:#000000;stroke-width:8.5039;stroke-linecap:round;stroke-linejoin:round;stroke-miterlimit:22.9256;" d="
			M119.379,181.909c0,0-11.076,35.882-17.07,60.973"/>
		
			<path style="fill:none;stroke:#000000;stroke-width:8.5039;stroke-linecap:round;stroke-linejoin:round;stroke-miterlimit:22.9256;" d="
			M116.377,207.034c0,0,1.312,6.562,12.938,18.75"/>
		
			<path style="fill:none;stroke:#000000;stroke-width:8.5039;stroke-linecap:round;stroke-linejoin:round;stroke-miterlimit:22.9256;" d="
			M121.43,249.581c0,0,3.01-6.359,7.885-23.797"/>
		
			<path style="fill:none;stroke:#000000;stroke-width:8.5039;stroke-linecap:round;stroke-linejoin:round;stroke-miterlimit:22.9256;" d="
			M222.129,244.159c0,0,19.367-24.097,38.062-19.875"/>
		
			<path style="fill:none;stroke:#000000;stroke-width:8.5039;stroke-linecap:round;stroke-linejoin:round;stroke-miterlimit:22.9256;" d="
			M213.879,183.034c-3.188-12.188,11.062-17.438,16.875-6.375"/>
		
			<path style="fill:none;stroke:#000000;stroke-width:8.5039;stroke-linecap:round;stroke-linejoin:round;stroke-miterlimit:22.9256;" d="
			M227.215,237.222c2.062-16.313-6.961-19.688-13.336-54.188"/>
		
			<path style="fill:none;stroke:#000000;stroke-width:8.5039;stroke-linecap:round;stroke-linejoin:round;stroke-miterlimit:22.9256;" d="
			M240.879,210.784c0,0,1.348,8.394,1.084,13.484"/>
		
			<path style="fill:none;stroke:#000000;stroke-width:8.5039;stroke-linecap:round;stroke-linejoin:round;stroke-miterlimit:22.9256;" d="
			M240.879,210.784c-7.004-3.369-14.223-4.418-18.195-5.183"/>
		
			<path style="fill:none;stroke:#000000;stroke-width:8.5039;stroke-linecap:round;stroke-linejoin:round;stroke-miterlimit:22.9256;" d="
			M233.754,185.846c0,0-11.83,12.883-11.07,19.754"/>
		
			<path style="fill:none;stroke:#000000;stroke-width:8.5039;stroke-linecap:round;stroke-linejoin:round;stroke-miterlimit:22.9256;" d="
			M230.754,176.659c0,0,2.81,6,3,9.188"/>
	</g>
</g>
<g id="n1104">
	<g>
		<g>
			<path style="fill-rule:evenodd;clip-rule:evenodd;fill:#FFFFFF;" d="M159.73,250.204l8.211-3.891l11.027-2.285l10.494,1.247
				l10.076,5.038l8.518,7.755c0,0,6.219,9.999,5.783,8.64c-0.434-1.36-0.258,6.447-0.258,6.447l-5.324,7.535l-10.76,6.38
				l-17.371,3.647l-13.688-2.312l-11.121-5.463l-8.254-8.361l-0.953-10.656l6.594-8.75L159.73,250.204L159.73,250.204z"/>
			<polygon style="fill-rule:evenodd;clip-rule:evenodd;fill:#E186AE;" points="144.721,270.249 131.129,265.528 108.549,259.59 
				90.664,258.687 70.303,261.219 54.545,266.453 55.205,272.426 46.211,277.687 34.252,286.16 38.523,292.013 39.027,297.064 
				38.686,308.397 42.35,324.07 48.367,335.875 59.674,350.268 74.785,363.959 90.002,374.708 107.283,384.642 125.016,392.586 
				144.838,398.578 165.078,402.566 185.352,404.528 206.309,404.312 225.377,401.937 249.041,395.701 268.5,388.186 
				289.539,375.812 308.732,356.776 319.705,337.542 325.627,318.597 331.441,317.847 333.117,303.162 333.635,289.154 
				331.066,278.659 336.691,276.784 333.693,269.539 325.572,261.564 311.768,258.383 316.332,253.092 321.879,248.846 
				317.273,241.734 310.994,236.392 297.281,231.891 282.277,230.193 267.646,232.508 255.748,236.047 241.959,243.743 
				231.236,252.622 219.879,265.159 213.861,266.788 212.687,274.42 208.258,280.69 197.498,287.07 187.156,290.138 174.41,289.75 
				160.879,285.673 151.191,278.76 144.721,270.249 			"/>
			<polygon style="fill-rule:evenodd;clip-rule:evenodd;fill:#FFFFFF;" points="109.633,292.49 107.484,301.185 107.801,311.339 
				113.008,319.538 121.58,322.863 127.57,327.398 137.09,331.181 146.674,331.14 152.502,330.693 154.34,338.778 158.451,344.405 
				166.213,348.527 174.754,349.106 184.562,342.579 189.668,348.693 199.582,351.145 210.607,350.082 217.967,347.147 
				221.764,342.245 222.207,334.303 231.283,333.634 240.373,330.13 246.328,324.39 251.527,318.953 258.01,315.142 
				262.557,307.511 263.373,299.44 261.9,290.269 259.064,282.111 252.156,286.318 244.805,291.335 234.764,298.297 
				224.217,304.458 210.988,309.036 198.061,309.861 188.594,306.432 181.922,298.988 179.344,303.925 175.834,309.503 
				166.746,311.702 153.582,310.377 139.818,305.777 127.889,300.286 118.422,295.797 109.633,292.49 			"/>
			<polygon style="fill-rule:evenodd;clip-rule:evenodd;fill:#F9D740;" points="104.377,362.285 108.455,356.425 113.078,347.493 
				120.676,339.235 127.545,337.229 157.629,351.145 151.629,335.19 124.668,324.415 115.834,321.218 109.879,314.611 
				107.18,304.696 109.633,292.49 97.582,291.257 85.268,294.436 77.35,302.307 73.803,312.99 73.24,323.995 76.979,336.726 
				84.471,347.197 93.666,355.394 104.377,362.285 			"/>
			<polygon style="fill-rule:evenodd;clip-rule:evenodd;fill:#67559D;" points="153.719,351.888 163.817,347.254 180.449,347.19 
				209.574,350.181 217.967,347.147 221.764,342.245 223.414,334.214 231.283,333.634 238.859,330.713 244.879,326.252 
				249.83,319.488 255.826,316.425 260.283,311.326 262.965,303.475 262.637,294.855 260.482,286.19 258.373,282.501 
				266.852,278.856 277.393,277.063 287.711,278.994 295.85,284.534 301.01,291.555 303.771,299.19 304.203,305.995 304.139,313.85 
				302.711,324.993 298.85,336.408 294.52,343.438 287.449,350.632 284.004,353.285 277.504,345.255 270.654,340.07 
				261.461,338.276 254.67,341.482 248.143,349.326 240.01,350.393 233.016,354.203 225.455,363.175 217.133,360.693 
				207.043,360.923 200.508,362.965 160.629,360 			"/>
			<polygon style="fill-rule:evenodd;clip-rule:evenodd;fill:#60F4E4;" points="104.377,362.285 108.455,356.425 113.078,347.493 
				120.676,339.235 127.545,337.229 133.736,339.596 136.348,343.218 138.113,347.741 146.762,348.977 153.719,351.888 
				158.115,356.395 161.945,363.551 167.906,360.317 174.811,357.983 185.229,358.986 193.443,363.1 196.205,365.238 
				203.775,361.944 212.088,360.808 225.455,363.175 229.537,357.513 236.512,352.297 244.076,349.859 248.143,349.326 
				253.039,342.95 261.461,338.276 270.654,340.07 277.504,345.255 284.004,353.285 271.768,361.056 258.439,368.396 
				238.934,376.093 224.766,379.609 205.227,382.206 184.654,382.771 169.322,381.941 150.318,379.225 136.324,375.878 
				119.426,369.997 110.283,365.719 104.377,362.285 			"/>
			
				<path style="fill:none;stroke:#000000;stroke-width:8.5039;stroke-linecap:round;stroke-linejoin:round;stroke-miterlimit:22.9256;" d="
				M52.814,267.221c0,0,45.375-22.125,91.502,4.5"/>
			
				<path style="fill:none;stroke:#000000;stroke-width:8.5039;stroke-linecap:round;stroke-linejoin:round;stroke-miterlimit:22.9256;" d="
				M4.252,247.67c18.187-1.875,56.675,10.519,101.3,24.769"/>
			
				<path style="fill:none;stroke:#000000;stroke-width:8.5039;stroke-linecap:round;stroke-linejoin:round;stroke-miterlimit:22.9256;" d="
				M213.582,273.155c0,0,33.107-47.746,78.109-42.496"/>
			
				<path style="fill:none;stroke:#000000;stroke-width:8.5039;stroke-linecap:round;stroke-linejoin:round;stroke-miterlimit:22.9256;" d="
				M321.879,248.846c0,0-2.25-12.937-30.188-18.187"/>
			
				<path style="fill:none;stroke:#000000;stroke-width:8.5039;stroke-linecap:round;stroke-linejoin:round;stroke-miterlimit:22.9256;" d="
				M262.254,252.222c0,0,46.312-18.563,81.938-22.125"/>
			
				<path style="fill:none;stroke:#000000;stroke-width:8.5039;stroke-linecap:round;stroke-linejoin:round;stroke-miterlimit:22.9256;" d="
				M284.004,261.409c11.25-3.562,46.875-3.807,80.062-3.188"/>
			
				<path style="fill:none;stroke:#000000;stroke-width:8.5039;stroke-linecap:round;stroke-linejoin:round;stroke-miterlimit:22.9256;" d="
				M311.768,258.383c0,0,3.979-5.975,10.111-9.537"/>
			
				<path style="fill:none;stroke:#000000;stroke-width:8.5039;stroke-linecap:round;stroke-linejoin:round;stroke-miterlimit:22.9256;" d="
				M336.691,276.784c0,0-3.543-18.816-24.924-18.4"/>
			
				<path style="fill:none;stroke:#000000;stroke-width:8.5039;stroke-linecap:round;stroke-linejoin:round;stroke-miterlimit:22.9256;" d="
				M331.066,278.659c3.76,6.522,3.168,17.412,0.375,39.188"/>
			
				<path style="fill:none;stroke:#000000;stroke-width:8.5039;stroke-linecap:round;stroke-linejoin:round;stroke-miterlimit:22.9256;" d="
				M18.877,280.159c0,0,57.375,0,61.5,1.5"/>
			
				<path style="fill:none;stroke:#000000;stroke-width:8.5039;stroke-linecap:round;stroke-linejoin:round;stroke-miterlimit:22.9256;" d="
				M151.629,280.159c0,0,24.373,22.312,54.75,2.062"/>
			
				<path style="fill:none;stroke:#000000;stroke-width:8.5039;stroke-linecap:round;stroke-linejoin:round;stroke-miterlimit:22.9256;" d="
				M160.629,270.221c0,0,6.492,4.501,6.375,10.876"/>
			
				<path style="fill:none;stroke:#000000;stroke-width:8.5039;stroke-linecap:round;stroke-linejoin:round;stroke-miterlimit:22.9256;" d="
				M201.691,272.284c0,0-5.625,5.625-6.938,10.125"/>
			
				<path style="fill:none;stroke:#000000;stroke-width:8.5039;stroke-linecap:round;stroke-linejoin:round;stroke-miterlimit:22.9256;" d="
				M153.877,254.284c0,0,27.752-23.951,53.064,2.812"/>
			
				<path style="fill:none;stroke:#000000;stroke-width:8.5039;stroke-linecap:round;stroke-linejoin:round;stroke-miterlimit:22.9256;" d="
				M206.379,282.221c1.781-1.354,14.438-10.875,0.562-25.125"/>
			
				<path style="fill:none;stroke:#000000;stroke-width:8.5039;stroke-linecap:round;stroke-linejoin:round;stroke-miterlimit:22.9256;" d="
				M153.877,254.284c0,0-17.061,12-2.248,25.875"/>
			
				<path style="fill:none;stroke:#000000;stroke-width:8.5039;stroke-linecap:round;stroke-linejoin:round;stroke-miterlimit:22.9256;" d="
				M180.127,290.716c0,0,3.189,20.942-10.498,20.755"/>
			
				<path style="fill:none;stroke:#000000;stroke-width:8.5039;stroke-linecap:round;stroke-linejoin:round;stroke-miterlimit:22.9256;" d="
				M197.004,309.784c0,0-16.689-2.511-16.877-19.067"/>
			
				<path style="fill:none;stroke:#000000;stroke-width:8.5039;stroke-linecap:round;stroke-linejoin:round;stroke-miterlimit:22.9256;" d="
				M260.566,281.284c-21.938,11.812-36.188,30.751-63.562,28.5"/>
			
				<path style="fill:none;stroke:#000000;stroke-width:8.5039;stroke-linecap:round;stroke-linejoin:round;stroke-miterlimit:22.9256;" d="
				M303.877,300.409c0-6.187-11.248-33.75-43.311-19.125"/>
			
				<path style="fill:none;stroke:#000000;stroke-width:8.5039;stroke-linecap:round;stroke-linejoin:round;stroke-miterlimit:22.9256;" d="
				M284.004,353.285c7.258-5.433,22.873-16.501,19.873-52.876"/>
			
				<path style="fill:none;stroke:#000000;stroke-width:8.5039;stroke-linecap:round;stroke-linejoin:round;stroke-miterlimit:22.9256;" d="
				M104.377,362.285c0,0,28.262,19.598,80.277,20.486c53.896,0.921,78.248-15.854,99.35-29.486"/>
			
				<path style="fill:none;stroke:#000000;stroke-width:8.5039;stroke-linecap:round;stroke-linejoin:round;stroke-miterlimit:22.9256;" d="
				M73.252,322.347c0,0-2.25,21.375,31.125,39.938"/>
			
				<path style="fill:none;stroke:#000000;stroke-width:8.5039;stroke-linecap:round;stroke-linejoin:round;stroke-miterlimit:22.9256;" d="
				M111.877,293.096c0,0-39.561-12.937-38.625,29.251"/>
			
				<path style="fill:none;stroke:#000000;stroke-width:8.5039;stroke-linecap:round;stroke-linejoin:round;stroke-miterlimit:22.9256;" d="
				M169.629,311.471c-21,2.438-40.875-12.188-57.752-18.375"/>
			<path style="fill-rule:evenodd;clip-rule:evenodd;" d="M245.848,254.626c2.348,0,4.252,1.903,4.252,4.252
				c0,2.349-1.904,4.252-4.252,4.252c-2.35,0-4.252-1.903-4.252-4.252C241.596,256.53,243.498,254.626,245.848,254.626
				L245.848,254.626z"/>
			<path style="fill-rule:evenodd;clip-rule:evenodd;" d="M134.658,284.814c2.35,0,4.252,1.903,4.252,4.252
				c0,2.349-1.902,4.252-4.252,4.252c-2.348,0-4.252-1.903-4.252-4.252C130.406,286.717,132.311,284.814,134.658,284.814
				L134.658,284.814z"/>
			<path style="fill-rule:evenodd;clip-rule:evenodd;" d="M125.096,271.126c2.35,0,4.254,1.903,4.254,4.252
				c0,2.349-1.904,4.252-4.254,4.252c-2.348,0-4.252-1.903-4.252-4.252C120.844,273.03,122.748,271.126,125.096,271.126
				L125.096,271.126z"/>
			<path style="fill-rule:evenodd;clip-rule:evenodd;" d="M233.473,272.439c2.348,0,4.252,1.903,4.252,4.252
				c0,2.349-1.904,4.252-4.252,4.252c-2.35,0-4.252-1.903-4.252-4.252C229.221,274.342,231.123,272.439,233.473,272.439
				L233.473,272.439z"/>
			
				<path style="fill:none;stroke:#000000;stroke-width:8.5039;stroke-linecap:round;stroke-linejoin:round;stroke-miterlimit:22.9256;" d="
				M229.627,401.097c34.254-8.393,83.437-24.375,96-82.5"/>
			
				<path style="fill:none;stroke:#000000;stroke-width:8.5039;stroke-linecap:round;stroke-linejoin:round;stroke-miterlimit:22.9256;" d="
				M119.002,390.222c0,0,52.125,23.25,110.625,10.875"/>
			
				<path style="fill:none;stroke:#000000;stroke-width:8.5039;stroke-linecap:round;stroke-linejoin:round;stroke-miterlimit:22.9256;" d="
				M56.189,271.91c0,0-11.437,5.812-21.937,14.25"/>
			
				<path style="fill:none;stroke:#000000;stroke-width:8.5039;stroke-linecap:round;stroke-linejoin:round;stroke-miterlimit:22.9256;" d="
				M119.002,390.222c0,0-89.668-37.099-79.707-94.873c0.441-2.56-2.824-6.898-5.043-9.189"/>
			
				<line style="fill:none;stroke:#000000;stroke-width:8.5039;stroke-linecap:round;stroke-linejoin:round;stroke-miterlimit:22.9256;" x1="52.814" y1="267.221" x2="56.189" y2="271.91"/>
			
				<line style="fill:none;stroke:#000000;stroke-width:8.5039;stroke-linecap:round;stroke-linejoin:round;stroke-miterlimit:22.9256;" x1="325.627" y1="318.597" x2="331.441" y2="317.847"/>
			
				<line style="fill:none;stroke:#000000;stroke-width:8.5039;stroke-linecap:round;stroke-linejoin:round;stroke-miterlimit:22.9256;" x1="331.066" y1="278.659" x2="336.691" y2="276.784"/>
			
				<path style="fill:none;stroke:#000000;stroke-width:8.5039;stroke-linecap:round;stroke-linejoin:round;stroke-miterlimit:22.9256;" d="
				M109.633,292.49c0,0-10.553,26.998,11.947,30.373"/>
			
				<path style="fill:none;stroke:#000000;stroke-width:8.5039;stroke-linecap:round;stroke-linejoin:round;stroke-miterlimit:22.9256;" d="
				M123.08,310.488c0,0-6.053,17.132,14.01,20.693"/>
			
				<path style="fill:none;stroke:#000000;stroke-width:8.5039;stroke-linecap:round;stroke-linejoin:round;stroke-miterlimit:22.9256;" d="
				M151.961,320.12c-2.096,8.883,1.068,14.226-14.872,11.061"/>
			
				<path style="fill:none;stroke:#000000;stroke-width:8.5039;stroke-linecap:round;stroke-linejoin:round;stroke-miterlimit:22.9256;" d="
				M102.872,360c0,0,21.796-35.585,41.444-11.373"/>
			
				<path style="fill:none;stroke:#000000;stroke-width:8.5039;stroke-linecap:round;stroke-linejoin:round;stroke-miterlimit:22.9256;" d="
				M162.268,364.488c0,0-8.438-28.312-34.312-8.812"/>
			
				<path style="fill:none;stroke:#000000;stroke-width:8.5039;stroke-linecap:round;stroke-linejoin:round;stroke-miterlimit:22.9256;" d="
				M196.205,365.238c0,0-17.625-16.312-33.938-0.75"/>
			
				<path style="fill:none;stroke:#000000;stroke-width:8.5039;stroke-linecap:round;stroke-linejoin:round;stroke-miterlimit:22.9256;" d="
				M225.455,363.175c0,0-13.875-7.5-29.25,2.062"/>
			
				<path style="fill:none;stroke:#000000;stroke-width:8.5039;stroke-linecap:round;stroke-linejoin:round;stroke-miterlimit:22.9256;" d="
				M259.205,352.3c0,0-20.437-11.625-33.75,10.875"/>
			
				<path style="fill:none;stroke:#000000;stroke-width:8.5039;stroke-linecap:round;stroke-linejoin:round;stroke-miterlimit:22.9256;" d="
				M284.004,353.285c0,0-17.252-35.925-35.861-3.959"/>
			
				<path style="fill:none;stroke:#000000;stroke-width:8.5039;stroke-linecap:round;stroke-linejoin:round;stroke-miterlimit:22.9256;" d="
				M263.373,282.409c0,0,10.082,30.517-13.543,37.079"/>
			
				<path style="fill:none;stroke:#000000;stroke-width:8.5039;stroke-linecap:round;stroke-linejoin:round;stroke-miterlimit:22.9256;" d="
				M250.768,302.8c0,0,5.189,32.44-28.561,31.503"/>
			
				<path style="fill:none;stroke:#000000;stroke-width:8.5039;stroke-linecap:round;stroke-linejoin:round;stroke-miterlimit:22.9256;" d="
				M222.129,317.847c0,0,0.83,12.64-0.365,24.397c-0.908,8.954-30.648,13.643-36.512,2.125c-2.299-4.517-1.889-15.349-1.422-20.757"
				/>
			
				<path style="fill:none;stroke:#000000;stroke-width:8.5039;stroke-linecap:round;stroke-linejoin:round;stroke-miterlimit:22.9256;" d="
				M151.961,320.12c-0.154,11.512-0.434,10.971,2.378,18.658s14.49,12.397,21.803,9.96s7.355-14.643,7.688-25.125"/>
			<path style="fill-rule:evenodd;clip-rule:evenodd;fill:#FFFFFF;" d="M159.73,250.204l8.211-3.891l11.027-2.285l10.494,1.247
				l10.076,5.038l8.518,7.755c0,0,6.219,9.999,5.783,8.64c-0.434-1.36-0.258,6.447-0.258,6.447l-5.324,7.535l-10.76,6.38
				l-17.371,3.647l-13.688-2.312l-11.121-5.463l-8.254-8.361l-0.953-10.656l6.594-8.75L159.73,250.204L159.73,250.204z"/>
			<polygon style="fill-rule:evenodd;clip-rule:evenodd;fill:#E186AE;" points="144.721,270.249 131.129,265.528 108.549,259.59 
				90.664,258.687 70.303,261.219 54.545,266.453 55.205,272.426 46.211,277.687 34.252,286.16 38.523,292.013 39.027,297.064 
				38.686,308.397 42.35,324.07 48.367,335.875 59.674,350.268 74.785,363.959 90.002,374.708 107.283,384.642 125.016,392.586 
				144.838,398.578 165.078,402.566 185.352,404.528 206.309,404.312 225.377,401.937 249.041,395.701 268.5,388.186 
				289.539,375.812 308.732,356.776 319.705,337.542 325.627,318.597 331.441,317.847 333.117,303.162 333.635,289.154 
				331.066,278.659 336.691,276.784 333.693,269.539 325.572,261.564 311.768,258.383 316.332,253.092 321.879,248.846 
				317.273,241.734 310.994,236.392 297.281,231.891 282.277,230.193 267.646,232.508 255.748,236.047 241.959,243.743 
				231.236,252.622 219.879,265.159 213.861,266.788 212.687,274.42 208.258,280.69 197.498,287.07 187.156,290.138 174.41,289.75 
				160.879,285.673 151.191,278.76 144.721,270.249 			"/>
			<polygon style="fill-rule:evenodd;clip-rule:evenodd;fill:#FFFFFF;" points="109.633,292.49 107.484,301.185 107.801,311.339 
				113.008,319.538 121.58,322.863 127.57,327.398 137.09,331.181 146.674,331.14 152.502,330.693 154.34,338.778 158.451,344.405 
				166.213,348.527 174.754,349.106 184.562,342.579 189.668,348.693 199.582,351.145 210.607,350.082 217.967,347.147 
				221.764,342.245 222.207,334.303 231.283,333.634 240.373,330.13 246.328,324.39 251.527,318.953 258.01,315.142 
				262.557,307.511 263.373,299.44 261.9,290.269 259.064,282.111 252.156,286.318 244.805,291.335 234.764,298.297 
				224.217,304.458 210.988,309.036 198.061,309.861 188.594,306.432 181.922,298.988 179.344,303.925 175.834,309.503 
				166.746,311.702 153.582,310.377 139.818,305.777 127.889,300.286 118.422,295.797 109.633,292.49 			"/>
			<polygon style="fill-rule:evenodd;clip-rule:evenodd;fill:#F9D740;" points="104.377,362.285 108.455,356.425 113.078,347.493 
				120.676,339.235 127.545,337.229 157.629,351.145 151.629,335.19 124.668,324.415 115.834,321.218 109.879,314.611 
				107.18,304.696 109.633,292.49 97.582,291.257 85.268,294.436 77.35,302.307 73.803,312.99 73.24,323.995 76.979,336.726 
				84.471,347.197 93.666,355.394 104.377,362.285 			"/>
			<polygon style="fill-rule:evenodd;clip-rule:evenodd;fill:#67559D;" points="153.719,351.888 163.817,347.254 180.449,347.19 
				209.574,350.181 217.967,347.147 221.764,342.245 223.414,334.214 231.283,333.634 238.859,330.713 244.879,326.252 
				249.83,319.488 255.826,316.425 260.283,311.326 262.965,303.475 262.637,294.855 260.482,286.19 258.373,282.501 
				266.852,278.856 277.393,277.063 287.711,278.994 295.85,284.534 301.01,291.555 303.771,299.19 304.203,305.995 304.139,313.85 
				302.711,324.993 298.85,336.408 294.52,343.438 287.449,350.632 284.004,353.285 277.504,345.255 270.654,340.07 
				261.461,338.276 254.67,341.482 248.143,349.326 240.01,350.393 233.016,354.203 225.455,363.175 217.133,360.693 
				207.043,360.923 200.508,362.965 160.629,360 			"/>
			<polygon style="fill-rule:evenodd;clip-rule:evenodd;fill:#60F4E4;" points="104.377,362.285 108.455,356.425 113.078,347.493 
				120.676,339.235 127.545,337.229 133.736,339.596 136.348,343.218 138.113,347.741 146.762,348.977 153.719,351.888 
				158.115,356.395 161.945,363.551 167.906,360.317 174.811,357.983 185.229,358.986 193.443,363.1 196.205,365.238 
				203.775,361.944 212.088,360.808 225.455,363.175 229.537,357.513 236.512,352.297 244.076,349.859 248.143,349.326 
				253.039,342.95 261.461,338.276 270.654,340.07 277.504,345.255 284.004,353.285 271.768,361.056 258.439,368.396 
				238.934,376.093 224.766,379.609 205.227,382.206 184.654,382.771 169.322,381.941 150.318,379.225 136.324,375.878 
				119.426,369.997 110.283,365.719 104.377,362.285 			"/>
			
				<path style="fill:none;stroke:#000000;stroke-width:8.5039;stroke-linecap:round;stroke-linejoin:round;stroke-miterlimit:22.9256;" d="
				M52.814,267.221c0,0,45.375-22.125,91.502,4.5"/>
			
				<path style="fill:none;stroke:#000000;stroke-width:8.5039;stroke-linecap:round;stroke-linejoin:round;stroke-miterlimit:22.9256;" d="
				M4.252,247.67c18.187-1.875,56.675,10.519,101.3,24.769"/>
			
				<path style="fill:none;stroke:#000000;stroke-width:8.5039;stroke-linecap:round;stroke-linejoin:round;stroke-miterlimit:22.9256;" d="
				M213.582,273.155c0,0,33.107-47.746,78.109-42.496"/>
			
				<path style="fill:none;stroke:#000000;stroke-width:8.5039;stroke-linecap:round;stroke-linejoin:round;stroke-miterlimit:22.9256;" d="
				M321.879,248.846c0,0-2.25-12.937-30.188-18.187"/>
			
				<path style="fill:none;stroke:#000000;stroke-width:8.5039;stroke-linecap:round;stroke-linejoin:round;stroke-miterlimit:22.9256;" d="
				M262.254,252.222c0,0,46.312-18.563,81.938-22.125"/>
			
				<path style="fill:none;stroke:#000000;stroke-width:8.5039;stroke-linecap:round;stroke-linejoin:round;stroke-miterlimit:22.9256;" d="
				M284.004,261.409c11.25-3.562,46.875-3.807,80.062-3.188"/>
			
				<path style="fill:none;stroke:#000000;stroke-width:8.5039;stroke-linecap:round;stroke-linejoin:round;stroke-miterlimit:22.9256;" d="
				M311.768,258.383c0,0,3.979-5.975,10.111-9.537"/>
			
				<path style="fill:none;stroke:#000000;stroke-width:8.5039;stroke-linecap:round;stroke-linejoin:round;stroke-miterlimit:22.9256;" d="
				M336.691,276.784c0,0-3.543-18.816-24.924-18.4"/>
			
				<path style="fill:none;stroke:#000000;stroke-width:8.5039;stroke-linecap:round;stroke-linejoin:round;stroke-miterlimit:22.9256;" d="
				M331.066,278.659c3.76,6.522,3.168,17.412,0.375,39.188"/>
			
				<path style="fill:none;stroke:#000000;stroke-width:8.5039;stroke-linecap:round;stroke-linejoin:round;stroke-miterlimit:22.9256;" d="
				M18.877,280.159c0,0,57.375,0,61.5,1.5"/>
			
				<path style="fill:none;stroke:#000000;stroke-width:8.5039;stroke-linecap:round;stroke-linejoin:round;stroke-miterlimit:22.9256;" d="
				M151.629,280.159c0,0,24.373,22.312,54.75,2.062"/>
			
				<path style="fill:none;stroke:#000000;stroke-width:8.5039;stroke-linecap:round;stroke-linejoin:round;stroke-miterlimit:22.9256;" d="
				M160.629,270.221c0,0,6.492,4.501,6.375,10.876"/>
			
				<path style="fill:none;stroke:#000000;stroke-width:8.5039;stroke-linecap:round;stroke-linejoin:round;stroke-miterlimit:22.9256;" d="
				M201.691,272.284c0,0-5.625,5.625-6.938,10.125"/>
			
				<path style="fill:none;stroke:#000000;stroke-width:8.5039;stroke-linecap:round;stroke-linejoin:round;stroke-miterlimit:22.9256;" d="
				M153.877,254.284c0,0,27.752-23.951,53.064,2.812"/>
			
				<path style="fill:none;stroke:#000000;stroke-width:8.5039;stroke-linecap:round;stroke-linejoin:round;stroke-miterlimit:22.9256;" d="
				M206.379,282.221c1.781-1.354,14.438-10.875,0.562-25.125"/>
			
				<path style="fill:none;stroke:#000000;stroke-width:8.5039;stroke-linecap:round;stroke-linejoin:round;stroke-miterlimit:22.9256;" d="
				M153.877,254.284c0,0-17.061,12-2.248,25.875"/>
			
				<path style="fill:none;stroke:#000000;stroke-width:8.5039;stroke-linecap:round;stroke-linejoin:round;stroke-miterlimit:22.9256;" d="
				M180.127,290.716c0,0,3.189,20.942-10.498,20.755"/>
			
				<path style="fill:none;stroke:#000000;stroke-width:8.5039;stroke-linecap:round;stroke-linejoin:round;stroke-miterlimit:22.9256;" d="
				M197.004,309.784c0,0-16.689-2.511-16.877-19.067"/>
			
				<path style="fill:none;stroke:#000000;stroke-width:8.5039;stroke-linecap:round;stroke-linejoin:round;stroke-miterlimit:22.9256;" d="
				M260.566,281.284c-21.938,11.812-36.188,30.751-63.562,28.5"/>
			
				<path style="fill:none;stroke:#000000;stroke-width:8.5039;stroke-linecap:round;stroke-linejoin:round;stroke-miterlimit:22.9256;" d="
				M303.877,300.409c0-6.187-11.248-33.75-43.311-19.125"/>
			
				<path style="fill:none;stroke:#000000;stroke-width:8.5039;stroke-linecap:round;stroke-linejoin:round;stroke-miterlimit:22.9256;" d="
				M284.004,353.285c7.258-5.433,22.873-16.501,19.873-52.876"/>
			
				<path style="fill:none;stroke:#000000;stroke-width:8.5039;stroke-linecap:round;stroke-linejoin:round;stroke-miterlimit:22.9256;" d="
				M104.377,362.285c0,0,28.262,19.598,80.277,20.486c53.896,0.921,78.248-15.854,99.35-29.486"/>
			
				<path style="fill:none;stroke:#000000;stroke-width:8.5039;stroke-linecap:round;stroke-linejoin:round;stroke-miterlimit:22.9256;" d="
				M73.252,322.347c0,0-2.25,21.375,31.125,39.938"/>
			
				<path style="fill:none;stroke:#000000;stroke-width:8.5039;stroke-linecap:round;stroke-linejoin:round;stroke-miterlimit:22.9256;" d="
				M111.877,293.096c0,0-39.561-12.937-38.625,29.251"/>
			
				<path style="fill:none;stroke:#000000;stroke-width:8.5039;stroke-linecap:round;stroke-linejoin:round;stroke-miterlimit:22.9256;" d="
				M169.629,311.471c-21,2.438-40.875-12.188-57.752-18.375"/>
			<path style="fill-rule:evenodd;clip-rule:evenodd;" d="M245.848,254.626c2.348,0,4.252,1.903,4.252,4.252
				c0,2.349-1.904,4.252-4.252,4.252c-2.35,0-4.252-1.903-4.252-4.252C241.596,256.53,243.498,254.626,245.848,254.626
				L245.848,254.626z"/>
			<path style="fill-rule:evenodd;clip-rule:evenodd;" d="M134.658,284.814c2.35,0,4.252,1.903,4.252,4.252
				c0,2.349-1.902,4.252-4.252,4.252c-2.348,0-4.252-1.903-4.252-4.252C130.406,286.717,132.311,284.814,134.658,284.814
				L134.658,284.814z"/>
			<path style="fill-rule:evenodd;clip-rule:evenodd;" d="M125.096,271.126c2.35,0,4.254,1.903,4.254,4.252
				c0,2.349-1.904,4.252-4.254,4.252c-2.348,0-4.252-1.903-4.252-4.252C120.844,273.03,122.748,271.126,125.096,271.126
				L125.096,271.126z"/>
			<path style="fill-rule:evenodd;clip-rule:evenodd;" d="M233.473,272.439c2.348,0,4.252,1.903,4.252,4.252
				c0,2.349-1.904,4.252-4.252,4.252c-2.35,0-4.252-1.903-4.252-4.252C229.221,274.342,231.123,272.439,233.473,272.439
				L233.473,272.439z"/>
			
				<path style="fill:none;stroke:#000000;stroke-width:8.5039;stroke-linecap:round;stroke-linejoin:round;stroke-miterlimit:22.9256;" d="
				M229.627,401.097c34.254-8.393,83.437-24.375,96-82.5"/>
			
				<path style="fill:none;stroke:#000000;stroke-width:8.5039;stroke-linecap:round;stroke-linejoin:round;stroke-miterlimit:22.9256;" d="
				M119.002,390.222c0,0,52.125,23.25,110.625,10.875"/>
			
				<path style="fill:none;stroke:#000000;stroke-width:8.5039;stroke-linecap:round;stroke-linejoin:round;stroke-miterlimit:22.9256;" d="
				M56.189,271.91c0,0-11.437,5.812-21.937,14.25"/>
			
				<path style="fill:none;stroke:#000000;stroke-width:8.5039;stroke-linecap:round;stroke-linejoin:round;stroke-miterlimit:22.9256;" d="
				M119.002,390.222c0,0-89.668-37.099-79.707-94.873c0.441-2.56-2.824-6.898-5.043-9.189"/>
			
				<line style="fill:none;stroke:#000000;stroke-width:8.5039;stroke-linecap:round;stroke-linejoin:round;stroke-miterlimit:22.9256;" x1="52.814" y1="267.221" x2="56.189" y2="271.91"/>
			
				<line style="fill:none;stroke:#000000;stroke-width:8.5039;stroke-linecap:round;stroke-linejoin:round;stroke-miterlimit:22.9256;" x1="325.627" y1="318.597" x2="331.441" y2="317.847"/>
			
				<line style="fill:none;stroke:#000000;stroke-width:8.5039;stroke-linecap:round;stroke-linejoin:round;stroke-miterlimit:22.9256;" x1="331.066" y1="278.659" x2="336.691" y2="276.784"/>
			
				<path style="fill:none;stroke:#000000;stroke-width:8.5039;stroke-linecap:round;stroke-linejoin:round;stroke-miterlimit:22.9256;" d="
				M109.633,292.49c0,0-10.553,26.998,11.947,30.373"/>
			
				<path style="fill:none;stroke:#000000;stroke-width:8.5039;stroke-linecap:round;stroke-linejoin:round;stroke-miterlimit:22.9256;" d="
				M123.08,310.488c0,0-6.053,17.132,14.01,20.693"/>
			
				<path style="fill:none;stroke:#000000;stroke-width:8.5039;stroke-linecap:round;stroke-linejoin:round;stroke-miterlimit:22.9256;" d="
				M151.961,320.12c-2.096,8.883,1.068,14.226-14.872,11.061"/>
			
				<path style="fill:none;stroke:#000000;stroke-width:8.5039;stroke-linecap:round;stroke-linejoin:round;stroke-miterlimit:22.9256;" d="
				M102.872,360c0,0,21.796-35.585,41.444-11.373"/>
			
				<path style="fill:none;stroke:#000000;stroke-width:8.5039;stroke-linecap:round;stroke-linejoin:round;stroke-miterlimit:22.9256;" d="
				M162.268,364.488c0,0-8.438-28.312-34.312-8.812"/>
			
				<path style="fill:none;stroke:#000000;stroke-width:8.5039;stroke-linecap:round;stroke-linejoin:round;stroke-miterlimit:22.9256;" d="
				M196.205,365.238c0,0-17.625-16.312-33.938-0.75"/>
			
				<path style="fill:none;stroke:#000000;stroke-width:8.5039;stroke-linecap:round;stroke-linejoin:round;stroke-miterlimit:22.9256;" d="
				M225.455,363.175c0,0-13.875-7.5-29.25,2.062"/>
			
				<path style="fill:none;stroke:#000000;stroke-width:8.5039;stroke-linecap:round;stroke-linejoin:round;stroke-miterlimit:22.9256;" d="
				M259.205,352.3c0,0-20.437-11.625-33.75,10.875"/>
			
				<path style="fill:none;stroke:#000000;stroke-width:8.5039;stroke-linecap:round;stroke-linejoin:round;stroke-miterlimit:22.9256;" d="
				M284.004,353.285c0,0-17.252-35.925-35.861-3.959"/>
			
				<path style="fill:none;stroke:#000000;stroke-width:8.5039;stroke-linecap:round;stroke-linejoin:round;stroke-miterlimit:22.9256;" d="
				M263.373,282.409c0,0,10.082,30.517-13.543,37.079"/>
			
				<path style="fill:none;stroke:#000000;stroke-width:8.5039;stroke-linecap:round;stroke-linejoin:round;stroke-miterlimit:22.9256;" d="
				M250.768,302.8c0,0,5.189,32.44-28.561,31.503"/>
			
				<path style="fill:none;stroke:#000000;stroke-width:8.5039;stroke-linecap:round;stroke-linejoin:round;stroke-miterlimit:22.9256;" d="
				M222.129,317.847c0,0,0.83,12.64-0.365,24.397c-0.908,8.954-30.648,13.643-36.512,2.125c-2.299-4.517-1.889-15.349-1.422-20.757"
				/>
			
				<path style="fill:none;stroke:#000000;stroke-width:8.5039;stroke-linecap:round;stroke-linejoin:round;stroke-miterlimit:22.9256;" d="
				M151.961,320.12c-0.154,11.512-0.434,10.971,2.378,18.658s14.49,12.397,21.803,9.96s7.355-14.643,7.688-25.125"/>
		</g>
		
			<path style="fill:none;stroke:#000000;stroke-width:8.5039;stroke-linecap:round;stroke-linejoin:round;stroke-miterlimit:22.9256;" d="
			M157.629,237.222c0,0,16.311-11.813,38.248-4.5"/>
	</g>
</g>
</svg>
