<svg xmlns="http://www.w3.org/2000/svg" viewBox="0 0 320.31 569.16"><g id="n1201"><g><path fill-rule="evenodd" clip-rule="evenodd" fill="#4ab57e" d="M48.055 500.462l9.619-10.443 10.319-9.307 11.883-6.207 5.255 7.308 8.59 6.477 14.325 5.553 19.114 5.136 17.116 6.877 8.99 6.4 5.614-5.823 7.025-7.399 10.424-9.268 12.502-7.579-3.689-7.804 5.826-8.931 3.962-9.726-8.175-4.317-4.073-12.25-.085-19.965.6-14.805 10.97 1.183 16.017 4.552 14.2 5.895 13.94 8.651 9.172 11.397.677 10.031-3.698 7.887 7.021 7.645 1.18 6.688-1.397 8.087-3.704 8.576 6.344 9.453 7.118 7.37 5.287 7.981-6.87 10.368-10.784 10.736-17.809 12.452-23.593 11.352-18.448 5.944-18.146 3.452-20.713.651-20.307-2.063-22.528-5.938-17.312-8.358-16.488-12.603-11.246-12.494-7.509-10.939-6.516-11.883z"/><path d="M135.613 402.228s18.643-8.554 47.626.094c-.042 2.066-.342 9.468-.342 9.468l-.282 11.535.048 11.249 2.056 10.709s.138 5.123 2.036 6.126l8.175 4.317-1.827 5.005-5.048 9.187-3.756-4.785-9.592 2.809-14.403 1.517-14.586-1.278-11.513-2.867-7.474-2.881-3.38-5.639 5.893-4.935 5.427-10.315 1.894-11.78-.047-12.705-.905-14.831z" fill-rule="evenodd" clip-rule="evenodd" fill="#f9d740"/><path fill-rule="evenodd" clip-rule="evenodd" fill="#fff" d="M158.88 506.433l8.96-9.228 10.156-8.449 9.951-8.441-4.326-4.28 4.434-6.117-3.756-4.785-9.592 2.809-14.404 1.517-11.728-1.028-14.371-3.117-7.474-2.881-3.379-5.639-9.187 3.601 3.319 6.853 4.364 5.64 4.162 4.171-2.552 4.934 8.847 4.59 10.084 5.808 7.926 5.691 8.566 8.351z"/><path fill-rule="evenodd" clip-rule="evenodd" fill="#67559e" d="M78.94 473.964l-5.006 3.644-3.609 1.435-3.47-8.039-2.76-13.283 1.673-15.196 6.795-13.807L84.58 416.75l15.68-7.858 17.535-4.565 17.818-2.099.615 9.719.313 11.464-.416 11.107-2.91 10.995-5.04 7.505-9.417 5.576-4.427 2.144 3.152 6.51 6.446 7.726-1.471 6.501 9.846 5.108 10.963 6.375 9.503 7.229 6.577 5.702-7.179 5.413-7.892-5.446-7.516-3.591-12.314-4.057-11.528-3.056-12.033-4.085-12.706-6.449-5.676-6.459-3.563-4.195z"/><path d="M135.613 402.228c1.265 23.263 5.914 51.739-21.449 58.167m69.075-58.073c-.376 23.802-4.594 48.009 8.353 52.484m-55.979-52.578s-32.184 1.069-51.033 14.522c-15.817 11.29-28.794 34.066-14.255 62.294m112.872-74.655c9.746-2.082 96.652 21.745 53.595 57.079m-113.15-44.404s10.349-2.126 12.766-2.109m57.928 5.158s-7.346-2.05-11.645-2.978M85.979 429.7c.851 51.186 45.654 46.973 71.022 74.674m67.176-69.507c-.138 25.5-44.345 46.962-65.298 71.565m39.436-64.952s-3.14 24.381-16.055 35.844m-55.53-14.891s28.153 13.82 57.568 2.7m-40.848 13.392s11.63 2.602 20.44 1.273m-54.627-32.518s2.283 16.871 16.746 29.78m14.111 24.722s-.662 45.189.658 49.124m-92.723-50.444s17.771-21.41 30.886-26.498" fill="none" stroke="#000" stroke-width="8.504" stroke-linecap="round" stroke-linejoin="round" stroke-miterlimit="22.926"/><path d="M77.429 467.967s2.245 12.79 16.292 20.323c17.677 9.48 42.109 8.349 59.545 23.967m19.313.711s66.481-42.13 72.479-43.267m-.808-15.816s16.541 6.598 3.276 31.187m-6.012-5.988s11.268 9.165 24.81 30.702" fill="none" stroke="#000" stroke-width="8.504" stroke-linecap="round" stroke-linejoin="round" stroke-miterlimit="22.926"/><path d="M48.055 500.462c23.232 47.313 60.646 64.082 108.72 64.444 41.735.316 95.334-26.435 109.549-55.121" fill="none" stroke="#000" stroke-width="8.504" stroke-linecap="round" stroke-linejoin="round" stroke-miterlimit="22.926"/><path d="M139.082 546.552a5.67 5.67 0 1 1 .022 11.339 5.67 5.67 0 0 1-.022-11.339z" fill-rule="evenodd" clip-rule="evenodd"/><path d="M180.051 498.516s.594 15.748 4.547 23.803m-4.654 17.259c.362-6.562 7.291-11.264 4.654-17.259m-2.953 39.978c-.049-.004 3.418-4.655 2.618-10.586-.561-4.163-4.479-6.804-4.32-12.132" fill="none" stroke="#000" stroke-width="8.504" stroke-linecap="round" stroke-linejoin="round" stroke-miterlimit="22.926"/></g></g><g id="n1202"><g><path fill-rule="evenodd" clip-rule="evenodd" fill="#4ab57e" d="M155.612 406.486L45.278 370.819l-7.666-104.333h118z"/><path fill-rule="evenodd" clip-rule="evenodd" fill="#f9d740" d="M255.278 365.819l-100.906 40.768v-140h118z"/><g><path fill-rule="evenodd" clip-rule="evenodd" fill="#4ab57e" d="M31.46 216.378l1.205 12.475 1.898 16.451 1.119 14.518-.094 9.136-4.74 10.919-1.725 10.326 5.314 2.975-4.257 9.565-2.322 8.431-1.059 6.157-6.961-1.441-6.268-4.835-1.214-7.986 1.316-7.013.056-5.946-3.542-15.657-4.994-23.1-.895-14.036 3.487-14.188 5.148-5.486 10.376-2.651 8.152 1.386z"/><path fill-rule="evenodd" clip-rule="evenodd" fill="#fff" d="M34.437 293.178l4.408-6.64 8.899-8.821 14.567-6.638 11.284-5.005 16.124-1.204 14.59 1.535 11.51.62-5.387-12.853 4.095-10.997 11.62-9.661 15.597-8.272 11.805-1.586 11.439 5.041 14.061 10.576 7.583 10.329 2.992 6.852-3.908 6.95.642 2.855 14.599-2.564 15.284-1.073 18.228 1.424 15.977 4.849 9.925 5.854 8.89 8.704 4.808 7.362 3.459-3.611-1.279-11.077-4.862-11.993-5.608-6.919 3.842-12.873 3.839-20.864 1.247-21.581-1.336-18.799-4.019-19.016-7.791-20.002-10.959-17.826-13.58-15.105-20.257-14.182-22.01-8.22-22.39-3.345-22.504-.019-19.302 1.74-21.05 4.262-19.743 7.203-14.791 8.471-14 11.926-12.493 16.669-8.342 16.563-5.567 16.865-2.608 13.898-1.045 13.197.426 18.653 1.918 19.223 1.859 18.509.512 11.829-1.406 6.995-3.381 8.491-1.678 9.229 5.267 4.072z"/><path fill-rule="evenodd" clip-rule="evenodd" fill="#f9d740" d="M273.742 218.596l8.396-2.707 10.385.66 7.95 5.089 4.27 10.733.233 8.885-2.137 13.558-2.59 9.514-3.093 10.664-2.51 12.241-.543 10.546 1.403 9.116-2.273 7.534-5.56 3.283-7.917.769-.528-9.768-1.891-10.24-1.539-9.463 2.514-5.556-2.525-9.154-4.4-10.166-5.608-6.919 3.842-12.873 1.92-10.432 1.71-9.297.491-6.017z"/><path d="M32.097 297.868s-10.385-51.375 52.151-51.541m133.501-2.625s63.375-6.75 59.625 49.126M53.499 127.827c15.375-20.625 41.995-39.189 93.019-42.261 29.439-1.771 86.761 6.253 114.956 61.633M35.588 268.958c2.25-36.376-20.714-84.881 17.911-141.131m220.571 89.841s45.679-16.716 26.179 46.66m-5.625 36.375s-3.375-8.25 5.625-36.375m-20.25 53.624s19.875 3.75 14.625-17.249m-1.301-67.851s-15.949 19.102-3.574 34.477m-9 16.124c4.499-3.875 12.375-9.375 9-16.125M31.46 216.378s-38.993-14.207-23.618 48.23m18.749 54.375c-16.378-6.823-15.7-9.534-12.92-22.928 1.374-6.621-2.925-17.689-5.83-31.447m9.482-34.161c4.688 11.438 9.333 12.406 5.143 27.975m7.767 24.839s-19.7-7.465-7.767-24.839" fill="none" stroke="#000" stroke-width="8.504" stroke-linecap="round" stroke-linejoin="round" stroke-miterlimit="22.926"/><g><path fill-rule="evenodd" clip-rule="evenodd" d="M74.868 167.598l9.549-1.075 10.46-.749.602 8.174-3.31 6.32-7.627 5.502-5.881 4.906-.245 8.113 6.799 7.659 6.47 3.832 4.025 4.969.056 7.241-2.496 6.85-10.665.986-7.448 1.999-1.389-10.336-.912-12.654.135-15.539 1.008-16.851.869-9.347zm123.26-8.52l2.91-9.451 7.146 2.461s7.573.372 7.251 1.38c-.322 1.007 4.126 5.698 4.126 5.698l1.881 8.204.593 8.411-.605 6-8.026 4.17-6.279 5.317-4.07 6.825 4.406 4.824 6.198 6.708 5.824 6.155 1.71 5.184-2.156 10.364-8.851-.423-8.737.783-3.15.573-.933-10.411-.899-13.298-.663-22.086.882-18.937 1.442-8.451z"/><path d="M109.678 165.374s-18.282-.176-36.373 2.444c-4.914.712-7.695 2.652-13.783 5.15m2.531 65.625s24.281-16.876 49.406-5.063m-34.968-37.687c8.03 13.275 17.906 16.032 19.219 19.406m-2.44 14.091s4.315-7.715 2.44-14.091" fill="none" stroke="#000" stroke-width="8.504" stroke-linecap="round" stroke-linejoin="round" stroke-miterlimit="22.926"/><path d="M94.877 165.774c.811 2.917 1.558 10.903-1.57 13.563-5.371 4.568-13.816 8.911-16.629 13.974m-1.81-25.713s-5.478 48.946 1.354 64.377m113.707 2.681s24.75-10.312 49.688 3.188m-67.125-90.189s5.732-1.097 19.658.127c13.385 1.176 22.283 9.772 50.28 11.873m-44.133 72.606s-8.325-78.904 5.435-81.755m14.536 4.932s5.599 13.405 3.162 26.343m-17.438 14.25s2.812-8.251 17.438-14.25m-18.376 16.312s12.668 13.959 18.106 19.396m-2.124 13.839s2.687-7.088 2.124-13.838" fill="none" stroke="#000" stroke-width="8.504" stroke-linecap="round" stroke-linejoin="round" stroke-miterlimit="22.926"/></g><g><path d="M261.474 147.199s22.471 50.62 4.471 107.287" fill="none" stroke="#000" stroke-width="8.504" stroke-linecap="round" stroke-linejoin="round" stroke-miterlimit="22.926"/></g></g></g></g><g id="n1203"><g id="n0103"><path fill-rule="evenodd" clip-rule="evenodd" fill="#e186ae" d="M133.341 383.188l1.351-11.086 1.681-21.434 3.374-10.887 5.966-6.751 7.316-2.045 7.391 2.472 5.385 3.412 2.896 4.384-3.396 5.443-3.115 2.52.369 7.182.486 16.156-.83 5.079-8.242-2.217-8.676 2.042-6.054 3.943-5.902 1.787z"/><path d="M133.055 384.703c3.41-16.719.187-54.615 21.775-53.715m-6.179 20.101c7.768 1.035 40.224-10.2 6.179-20.101m8.635 47.375s-.696-16.62-1.313-29.962" fill="none" stroke="#000" stroke-width="8.504" stroke-linecap="round" stroke-linejoin="round" stroke-miterlimit="22.926"/></g></g><g id="n1204"><g><g><g><path d="M283.068 312.944l-1.914-12.757-6.244-12.478-10.253-11.382-16.778-8.746-13.579-3.439-18.621-.976-15.469 1.304-13.075 2.507-13.636 3.592-14.978 2.223-15.639.271-12.958-1.541-8.61-1.921-7.922-2.272-11.983-1.072-11.374-.971-13.029.973-13.648 5.225-13.1 5.969-10.613 9.652-5.517 8.701-3.75 9.211-2.907 13.205-.143 15.013 1.781 9.909 4.746 13.285 7.361 12.989 7.495 9.816 11.099 11.347 11.709 8.855 12.369 7.203 13.008 6.184 14.116 5.189 15.978 4.061 16.486 2.271 14.814.444 16.164-1.195 15.849-2.855 16.118-4.645 16.078-6.508 13.254-7.071 12.891-9.175 11.42-10.98 8.436-11.124 8.228-16.1 4.657-15.982 1.719-13.327-.036-12.882zm-42.456 54.875c-25.667 20.333-75 42.667-155.667 13 0 0-32.333-14.667-34.667-36.667-2.333-22-2-45.333 17.667-53 19.667-7.667 47.333-.667 65.667-.667s70-2.333 83.333-4.667c13.333-2.333 28.667-2.333 37 17.667 8.334 20.001 12.334 44.001-13.333 64.334z" fill-rule="evenodd" clip-rule="evenodd" fill="#67559e"/><path fill-rule="evenodd" clip-rule="evenodd" fill="#fff" d="M72.653 371.943l3.501-5.189 5.176-7.316 5.358-6.812 6.202-3.721 6.529.617 4.376 2.475 2.864 5.191 7.347 2.109 4.757 5.395 2.074 3.512 8.775-2.132 8.609 3.058 6.259 3.824 7.123-6.382 9.636-4.309 8.869 1.908 6.006 4.003 3.091 3.718 6.012-5.018 7.265-3.44 7.851-.221 6.15-5.522 6.946-5.358 4.552-.215 6.976-7.25 6.533-.056 6.902 3.934 4.613 4.605 6.783 4.729-7.47 9.089-9.422 8.278-13.593 8.231-18.361 6.869-15.426 3.265-17.449 1.69-17.102.034-12.312-.745-18.601-2.591-14.49-3.61-13.072-4.877-9.956-5.099-9.881-6.671z"/><path d="M74.996 290.798l9.708-2.135 13.596-.239 13.453.791 18.735 2.296 15.563.754 17.053-.419 9.22-.893 17.586-2.388 11.279-1.584 11.846-1.39 11.967.488 2.139 6.235 1.072 7.578-1.58 7.312-3.459 5.58-6.123 3.31-10.026-1.079-4.018 4.789-8.591 2.073-7.577-2.349-5.549-3.152-6.093 5.227s-10.034 1.02-9.098 1.155c.937.134-7.94-3.023-7.94-3.023l-7.186-5.254-9.306 5.341-10.608-.2-7.775-3.755-3.762-2.901-6.903 3.733-6.749 1.024-5.664-2.081-2.713-2.43-5.877 3.324-7.062-3.92-5.308-5.381-3.74-8.314-.51-8.123z" fill-rule="evenodd" clip-rule="evenodd" fill="#61f4e5"/><path d="M74.996 290.798s-2.343 27.253 20.685 24.553m-4.959-17.732s4.926 32.021 28.8 15.347m31.451 1.516s-13.073 14.4-31.452-1.516m61.768 3.411s-9.853 16.105-30.316-1.895m59.495-13.074s-.758 33.536-29.179 14.968m46.924-28.237c2.654 2.463 1.327 34.609-21.188 26.876m-131.84 52.708c3.092-10.68 13.825-25.234 29.741-13.676M91.29 372.839s13.642-29.179 27.473-8.147m25.011 9.094s-16.484-19.326-31.452 3.032m66.883-4.926s-14.589-23.115-35.432 1.895m73.516 5.115s-14.02-30.884-38.084-7.01m21.128-8.679c7.389-2.653 12.598-25.805 33.819 2.995m13.074-9.672s-15.497-24.86-30.037-4.556" fill="none" stroke="#000" stroke-width="8.504" stroke-linecap="round" stroke-linejoin="round" stroke-miterlimit="22.926"/><path d="M116.904 266.499c-20.842.189-32.035-7.557-58.06 4.375-15.568 7.138-28.985 21.251-32.105 48.13m151.149-50.549s82.659-27.325 102.744 30.843M66.573 395.295s-44.336-30.885-39.978-76.737m211.45 80.716s-81.094 57.031-171.472-3.979m213.914-96.442c3.218 12.008 9.853 66.316-42.443 100.421M92.72 288.244c35.93.972 26.715 4.044 58.737 4.057 20.125.008 39.083-4.47 61.578-6.711m47.367 50.78s14.021-52.106-47.368-50.779M54.257 352.475c-7.404-10.983-15.16-64.338 38.463-64.231" fill="none" stroke="#000" stroke-width="8.504" stroke-linecap="round" stroke-linejoin="round" stroke-miterlimit="22.926"/><path d="M260.402 336.37c-15.347 47.747-62.145 59.456-101.397 59.315-40.922-.146-81.283-9.246-104.748-43.21" fill="none" stroke="#000" stroke-width="8.504" stroke-linecap="round" stroke-linejoin="round" stroke-miterlimit="22.926"/></g><path d="M116.904 266.499s13.457 3.726 30.636 3.726 35.368-3.368 35.368-3.368" fill-rule="evenodd" clip-rule="evenodd" fill="none" stroke="#000" stroke-width="8.504" stroke-linecap="round" stroke-linejoin="round" stroke-miterlimit="22.926"/></g><g><path fill-rule="evenodd" clip-rule="evenodd" fill="#df85ad" d="M125.276 270.809l-7.855-5.832-3.677-8.774 3.711-9.966 9.536-7.929 8.062-4.574 9.949-4.761 7.817-.425 6.479 2.458 7.444 4.359 6.131 4.598 5 5.388 4.927 6.71 1.814 6.03-1.536 5.072-5.573 5.229-9.77 2.627-13.479 1.845-14.114.87-14.866-2.925z"/><path d="M165.053 271.454c7.143-.984 16.289-3.586 18.929-9.989 1.112-2.699 1.217-6.03-3.436-13.352-4.652-7.322-19.231-17.611-27.727-19.565 0 0-3.946-.802-7.817.425-8.071 2.464-20.362 9.809-26.253 15.803-5.891 5.993-5.615 13.555-4.074 17.567 3.162 8.23 11.217 8.801 18.093 9.537" fill="none" stroke="#000" stroke-width="8.504" stroke-linecap="round" stroke-linejoin="round" stroke-miterlimit="22.926"/><path d="M134.297 254.291c-.41 4.935-4.333 9.006-1.954 10.196 2.379 1.19 4.163-5.947 1.954-10.196zm25.929 1.242c5.581 3.244 8.921 10.487 6.084 11.575-3.007 1.151-4.783-5.159-6.084-11.575zm-27.458 16.346s13.861 3.059 32.286-.425" fill="none" stroke="#000" stroke-width="8.504" stroke-linecap="round" stroke-linejoin="round" stroke-miterlimit="22.926"/></g><path d="M127.749 215.952s19.368-13.79 42.226-.96" fill="none" stroke="#000" stroke-width="8.504" stroke-linecap="round" stroke-linejoin="round" stroke-miterlimit="22.926"/></g></g><g id="n1205"><g><path d="M53.499 127.827c15.375-20.625 41.995-39.189 93.019-42.261 29.439-1.771 70.645-.748 101.231 37.011" fill="none" stroke="#000" stroke-width="8.504" stroke-linecap="round" stroke-linejoin="round" stroke-miterlimit="22.926"/><path fill-rule="evenodd" clip-rule="evenodd" fill="#df85ad" d="M45.57 139.889l-1.363-5.701 5.431-8.168 10.132-7.83 12.759-4.453 15.587-2.819 18.8-1.92 21.072-.943 19.115-.014 18.024.628 23.216 1.681 21.077 2.393 18.6 2.855 21.951 4.395 21.418 5.592 16.276 5.356 12.855 5.122 6.187 1.875-.442 8.655-7.825 4.08-9.605 3.823-8.868 2.832-13.197 2.923-2.743-7.102-2.553-5.95-14.189-3.807-18.854-4.431-18.333-3.567-19.231-2.914-20.817-2.153-18.07-1.003-20.997-.139-18.088.767-15.624 1.32-18.292 2.312-17.161 2.907-16.248 3.398z"/><path d="M35.154 157.836l2.125-15.35 8.292-2.597-.682-2.85 2.034-6.934 7.782-7.999 12.185-6.869s10.666-2.251 13.434-2.908c2.768-.659 20.317-2.822 20.317-2.822l19.075-1.081 17.831-.377 18.569.308 18.331.87 16.159 1.381 18.816 2.137L230.027 116l19.943 3.993 23.874 6.4 15.745 5.259 10.931 4.411 6.188 1.875 4.45 5.142 4.764-7.02-.879-5.128-7.909-7.149-13.848-6.165-13.658-4.185-10.796-2.682-1.527-11.407.059-16.559-1.238-17.506-3.704-13.301-7.659-13.046-10.114-6.993-20.027-10.341-16.868-6.817-22.046-6.449-18.268-3.16-19.199-.802-19.705 2.271-20.317 4.636-21.114 6.942-20.138 9.194-10.3 7.064-3.272 4.649-2.096 7.151-3.352 12.094-2.689 10.47-3.479 15.025-2.544 12.688-2.638 16.273-1.618 14.381-.739 15.412.914 15.216z" fill-rule="evenodd" clip-rule="evenodd" fill="#67559e"/><path fill-rule="evenodd" clip-rule="evenodd" fill="#4ab57e" d="M135.984 98.252l23.871.585.442-10.684 2.192-15.958-7.494-10.448-5.695-7.902-6.327-.346-.854 11.091-1.637 12.846-2.248 11.915-2.25 8.901z"/><path fill-rule="evenodd" clip-rule="evenodd" fill="#f9d740" d="M180.813 99.978l-4.966-8.89-6.578-9.378-5.719-7.803-2.812 3.563-.338 6.919-.324 9.106-.221 5.342 9.712.461 11.246.68z"/><path d="M35.582 160.063s-8.625-32.438 17.812-120.938m199.126-2.249S210.672 7.573 158.958 4.418C118.896 1.976 56.301 27.034 53.394 39.126m104.063-13.313s.375-13.875 1.312-15.375m110.063 100.313c-3.128-10.719-.387-26.899-2.057-41.086-1.738-14.766-7.757-27.81-14.255-32.789M34.239 142.621c90.75-23.062 165.968-14.058 238.531 7.88m-227.25-34.5c15.75-26.812 147.654-24.923 223.312-5.25m-2.062 49.5c6.375.188 106.312-25.5 2.062-49.5" fill="none" stroke="#000" stroke-width="8.504" stroke-linecap="round" stroke-linejoin="round" stroke-miterlimit="22.926"/><path d="M44.207 134.188c1.827-5.036 9.655-15.038 22.682-18.952 41.868-12.577 165.708-9.375 238.311 22.246m1.507.456s2.303 3.996-.442 8.654M145.957 32.381s18.156 28.963 18.343 32.151m17.063-32.062s-8.25 7.5-17.062 32.062M137.99 45.973s6.82 21.065-1.051 48.657m49.674-45.285s-5.062 10.875-4.688 45.188m-43.935-48.56s35.88 33.887 39.811 47.997m-17.063-16.5s-.827 13.567-.882 18.825" fill="none" stroke="#000" stroke-width="8.504" stroke-linecap="round" stroke-linejoin="round" stroke-miterlimit="22.926"/></g></g></svg>