<svg version="1.1" xmlns="http://www.w3.org/2000/svg" xmlns:xlink="http://www.w3.org/1999/xlink" x="0px" y="0px"
	 viewBox="0 0 320.31 569.16" style="enable-background:new 0 0 320.31 569.16;" xml:space="preserve">
<g id="n1201">
	<g>
		<polygon style="fill-rule:evenodd;clip-rule:evenodd;fill:#4AB57E;" points="48.055,500.462 57.674,490.019 67.993,480.712 
			79.876,474.505 85.131,481.813 93.721,488.29 108.046,493.843 127.16,498.979 144.276,505.856 153.266,512.256 158.88,506.433 
			165.905,499.034 176.329,489.766 188.831,482.187 185.142,474.383 190.968,465.452 194.93,455.726 186.755,451.409 
			182.682,439.159 182.597,419.194 183.197,404.389 194.167,405.572 210.184,410.124 224.384,416.019 238.324,424.67 
			247.496,436.067 248.173,446.098 244.475,453.985 251.496,461.63 252.676,468.318 251.279,476.405 247.575,484.981 
			253.919,494.434 261.037,501.804 266.324,509.785 259.454,520.153 248.67,530.889 230.861,543.341 207.268,554.693 
			188.82,560.637 170.674,564.089 149.961,564.74 129.654,562.677 107.126,556.739 89.814,548.381 73.326,535.778 62.08,523.284 
			54.571,512.345 48.055,500.462 		"/>
		<path style="fill-rule:evenodd;clip-rule:evenodd;fill:#F9D740;" d="M135.613,402.228c0,0,18.643-8.554,47.626,0.094
			c-0.042,2.066-0.342,9.468-0.342,9.468l-0.282,11.535l0.048,11.249l2.056,10.709c0,0,0.138,5.123,2.036,6.126
			c1.899,1.002,8.175,4.317,8.175,4.317l-1.827,5.005l-5.048,9.187l-3.756-4.785l-9.592,2.809l-14.403,1.517l-14.586-1.278
			l-11.513-2.867l-7.474-2.881l-3.38-5.639l5.893-4.935l5.427-10.315l1.894-11.78l-0.047-12.705L135.613,402.228L135.613,402.228z"
			/>
		<polygon style="fill-rule:evenodd;clip-rule:evenodd;fill:#FFFFFF;" points="158.88,506.433 167.84,497.205 177.996,488.756 
			187.947,480.315 183.621,476.035 188.055,469.918 184.299,465.133 174.707,467.942 160.303,469.459 148.575,468.431 
			134.204,465.314 126.73,462.433 123.351,456.794 114.164,460.395 117.483,467.248 121.847,472.888 126.009,477.059 
			123.457,481.993 132.304,486.583 142.388,492.391 150.314,498.082 158.88,506.433 		"/>
		<polygon style="fill-rule:evenodd;clip-rule:evenodd;fill:#67559E;" points="78.94,473.964 73.934,477.608 70.325,479.043 
			66.855,471.004 64.095,457.721 65.768,442.525 72.563,428.718 84.58,416.75 100.26,408.892 117.795,404.327 135.613,402.228 
			136.228,411.947 136.541,423.411 136.125,434.518 133.215,445.513 128.175,453.018 118.758,458.594 114.331,460.738 
			117.483,467.248 123.929,474.974 122.458,481.475 132.304,486.583 143.267,492.958 152.77,500.187 159.347,505.889 
			152.168,511.302 144.276,505.856 136.76,502.265 124.446,498.208 112.918,495.152 100.885,491.067 88.179,484.618 82.503,478.159 
			78.94,473.964 		"/>
		
			<path style="fill:none;stroke:#000000;stroke-width:8.5039;stroke-linecap:round;stroke-linejoin:round;stroke-miterlimit:22.9256;" d="
			M135.613,402.228c1.265,23.263,5.914,51.739-21.449,58.167"/>
		
			<path style="fill:none;stroke:#000000;stroke-width:8.5039;stroke-linecap:round;stroke-linejoin:round;stroke-miterlimit:22.9256;" d="
			M183.239,402.322c-0.376,23.802-4.594,48.009,8.353,52.484"/>
		
			<path style="fill:none;stroke:#000000;stroke-width:8.5039;stroke-linecap:round;stroke-linejoin:round;stroke-miterlimit:22.9256;" d="
			M135.613,402.228c0,0-32.184,1.069-51.033,14.522c-15.817,11.29-28.794,34.066-14.255,62.294"/>
		
			<path style="fill:none;stroke:#000000;stroke-width:8.5039;stroke-linecap:round;stroke-linejoin:round;stroke-miterlimit:22.9256;" d="
			M183.197,404.389c9.746-2.082,96.652,21.745,53.595,57.079"/>
		
			<path style="fill:none;stroke:#000000;stroke-width:8.5039;stroke-linecap:round;stroke-linejoin:round;stroke-miterlimit:22.9256;" d="
			M123.642,417.064c0,0,10.349-2.126,12.766-2.109"/>
		
			<path style="fill:none;stroke:#000000;stroke-width:8.5039;stroke-linecap:round;stroke-linejoin:round;stroke-miterlimit:22.9256;" d="
			M194.336,420.113c0,0-7.346-2.05-11.645-2.978"/>
		
			<path style="fill:none;stroke:#000000;stroke-width:8.5039;stroke-linecap:round;stroke-linejoin:round;stroke-miterlimit:22.9256;" d="
			M85.979,429.7c0.851,51.186,45.654,46.973,71.022,74.674"/>
		
			<path style="fill:none;stroke:#000000;stroke-width:8.5039;stroke-linecap:round;stroke-linejoin:round;stroke-miterlimit:22.9256;" d="
			M224.177,434.867c-0.138,25.5-44.345,46.962-65.298,71.565"/>
		
			<path style="fill:none;stroke:#000000;stroke-width:8.5039;stroke-linecap:round;stroke-linejoin:round;stroke-miterlimit:22.9256;" d="
			M198.315,441.48c0,0-3.14,24.381-16.055,35.844"/>
		
			<path style="fill:none;stroke:#000000;stroke-width:8.5039;stroke-linecap:round;stroke-linejoin:round;stroke-miterlimit:22.9256;" d="
			M126.73,462.433c0,0,28.153,13.82,57.568,2.7"/>
		
			<path style="fill:none;stroke:#000000;stroke-width:8.5039;stroke-linecap:round;stroke-linejoin:round;stroke-miterlimit:22.9256;" d="
			M143.45,478.525c0,0,11.63,2.602,20.44,1.273"/>
		
			<path style="fill:none;stroke:#000000;stroke-width:8.5039;stroke-linecap:round;stroke-linejoin:round;stroke-miterlimit:22.9256;" d="
			M109.263,447.28c0,0,2.283,16.871,16.746,29.78"/>
		
			<path style="fill:none;stroke:#000000;stroke-width:8.5039;stroke-linecap:round;stroke-linejoin:round;stroke-miterlimit:22.9256;" d="
			M140.12,501.782c0,0-0.662,45.189,0.658,49.124"/>
		
			<path style="fill:none;stroke:#000000;stroke-width:8.5039;stroke-linecap:round;stroke-linejoin:round;stroke-miterlimit:22.9256;" d="
			M48.055,500.462c0,0,17.771-21.41,30.886-26.498"/>
		
			<path style="fill:none;stroke:#000000;stroke-width:8.5039;stroke-linecap:round;stroke-linejoin:round;stroke-miterlimit:22.9256;" d="
			M77.429,467.967c0,0,2.245,12.79,16.292,20.323c17.677,9.48,42.109,8.349,59.545,23.967"/>
		
			<path style="fill:none;stroke:#000000;stroke-width:8.5039;stroke-linecap:round;stroke-linejoin:round;stroke-miterlimit:22.9256;" d="
			M172.579,512.968c0,0,66.481-42.13,72.479-43.267"/>
		
			<path style="fill:none;stroke:#000000;stroke-width:8.5039;stroke-linecap:round;stroke-linejoin:round;stroke-miterlimit:22.9256;" d="
			M244.25,453.885c0,0,16.541,6.598,3.276,31.187"/>
		
			<path style="fill:none;stroke:#000000;stroke-width:8.5039;stroke-linecap:round;stroke-linejoin:round;stroke-miterlimit:22.9256;" d="
			M241.514,479.084c0,0,11.268,9.165,24.81,30.702"/>
		
			<path style="fill:none;stroke:#000000;stroke-width:8.5039;stroke-linecap:round;stroke-linejoin:round;stroke-miterlimit:22.9256;" d="
			M48.055,500.462c23.232,47.313,60.646,64.082,108.72,64.444c41.735,0.316,95.334-26.435,109.549-55.121"/>
		<path style="fill-rule:evenodd;clip-rule:evenodd;" d="M139.082,546.552c3.132-0.006,5.675,2.527,5.681,5.658
			c0.006,3.132-2.527,5.675-5.659,5.681c-3.131,0.006-5.674-2.527-5.68-5.659C133.419,549.101,135.952,546.558,139.082,546.552
			L139.082,546.552z"/>
		
			<path style="fill:none;stroke:#000000;stroke-width:8.5039;stroke-linecap:round;stroke-linejoin:round;stroke-miterlimit:22.9256;" d="
			M180.051,498.516c0,0,0.594,15.748,4.547,23.803 M179.944,539.578c0.362-6.562,7.291-11.264,4.654-17.259 M181.645,562.297
			c-0.049-0.004,3.418-4.655,2.618-10.586c-0.561-4.163-4.479-6.804-4.32-12.132"/>
	</g>
</g>
<g id="n1202">
	<g>
		<polygon style="fill-rule:evenodd;clip-rule:evenodd;fill:#4AB57E;" points="155.612,406.486 45.278,370.819 37.612,266.486 
			155.612,266.486 		"/>
		<polygon style="fill-rule:evenodd;clip-rule:evenodd;fill:#F9D740;" points="255.278,365.819 154.372,406.587 154.372,266.587 
			272.372,266.587 		"/>
		<g>
			<polygon style="fill-rule:evenodd;clip-rule:evenodd;fill:#4AB57E;" points="31.46,216.378 32.665,228.853 34.563,245.304 
				35.682,259.822 35.588,268.958 30.848,279.877 29.123,290.203 34.437,293.178 30.18,302.743 27.858,311.174 26.799,317.331 
				19.838,315.89 13.57,311.055 12.356,303.069 13.672,296.056 13.728,290.11 10.186,274.453 5.192,251.353 4.297,237.317 
				7.784,223.129 12.932,217.643 23.308,214.992 31.46,216.378 			"/>
			<polygon style="fill-rule:evenodd;clip-rule:evenodd;fill:#FFFFFF;" points="34.437,293.178 38.845,286.538 47.744,277.717 
				62.311,271.079 73.595,266.074 89.719,264.87 104.309,266.405 115.819,267.025 110.432,254.172 114.527,243.175 126.147,233.514 
				141.744,225.242 153.549,223.656 164.988,228.697 179.049,239.273 186.632,249.602 189.624,256.454 185.716,263.404 
				186.358,266.259 200.957,263.695 216.241,262.622 234.469,264.046 250.446,268.895 260.371,274.749 269.261,283.453 
				274.069,290.815 277.528,287.204 276.249,276.127 271.387,264.134 265.779,257.215 269.621,244.342 273.46,223.478 
				274.707,201.897 273.371,183.098 269.352,164.082 261.561,144.08 250.602,126.254 237.022,111.149 216.765,96.967 
				194.755,88.747 172.365,85.402 149.861,85.383 130.559,87.123 109.509,91.385 89.766,98.588 74.975,107.059 60.975,118.985 
				48.482,135.654 40.14,152.217 34.573,169.082 31.965,182.98 30.92,196.177 31.346,214.83 33.264,234.053 35.123,252.562 
				35.635,264.391 34.229,271.386 30.848,279.877 29.17,289.106 34.437,293.178 			"/>
			<polygon style="fill-rule:evenodd;clip-rule:evenodd;fill:#F9D740;" points="273.742,218.596 282.138,215.889 292.523,216.549 
				300.473,221.638 304.743,232.371 304.976,241.256 302.839,254.814 300.249,264.328 297.156,274.992 294.646,287.233 
				294.103,297.779 295.506,306.895 293.233,314.429 287.673,317.712 279.756,318.481 279.228,308.713 277.337,298.473 
				275.798,289.01 278.312,283.454 275.787,274.3 271.387,264.134 265.779,257.215 269.621,244.342 271.541,233.91 273.251,224.613 
				273.742,218.596 			"/>
			
				<path style="fill:none;stroke:#000000;stroke-width:8.5039;stroke-linecap:round;stroke-linejoin:round;stroke-miterlimit:22.9256;" d="
				M32.097,297.868c0,0-10.385-51.375,52.151-51.541"/>
			
				<path style="fill:none;stroke:#000000;stroke-width:8.5039;stroke-linecap:round;stroke-linejoin:round;stroke-miterlimit:22.9256;" d="
				M217.749,243.702c0,0,63.375-6.75,59.625,49.126"/>
			
				<path style="fill:none;stroke:#000000;stroke-width:8.5039;stroke-linecap:round;stroke-linejoin:round;stroke-miterlimit:22.9256;" d="
				M53.499,127.827c15.375-20.625,41.995-39.189,93.019-42.261c29.439-1.771,86.761,6.253,114.956,61.633"/>
			
				<path style="fill:none;stroke:#000000;stroke-width:8.5039;stroke-linecap:round;stroke-linejoin:round;stroke-miterlimit:22.9256;" d="
				M35.588,268.958c2.25-36.376-20.714-84.881,17.911-141.131"/>
			
				<path style="fill:none;stroke:#000000;stroke-width:8.5039;stroke-linecap:round;stroke-linejoin:round;stroke-miterlimit:22.9256;" d="
				M274.07,217.668c0,0,45.679-16.716,26.179,46.66"/>
			
				<path style="fill:none;stroke:#000000;stroke-width:8.5039;stroke-linecap:round;stroke-linejoin:round;stroke-miterlimit:22.9256;" d="
				M294.624,300.703c0,0-3.375-8.25,5.625-36.375"/>
			
				<path style="fill:none;stroke:#000000;stroke-width:8.5039;stroke-linecap:round;stroke-linejoin:round;stroke-miterlimit:22.9256;" d="
				M279.999,317.952c0,0,19.875,3.75,14.625-17.249"/>
			
				<path style="fill:none;stroke:#000000;stroke-width:8.5039;stroke-linecap:round;stroke-linejoin:round;stroke-miterlimit:22.9256;" d="
				M293.323,232.852c0,0-15.949,19.102-3.574,34.477"/>
			
				<path style="fill:none;stroke:#000000;stroke-width:8.5039;stroke-linecap:round;stroke-linejoin:round;stroke-miterlimit:22.9256;" d="
				M280.749,283.453c4.499-3.875,12.375-9.375,9-16.125"/>
			
				<path style="fill:none;stroke:#000000;stroke-width:8.5039;stroke-linecap:round;stroke-linejoin:round;stroke-miterlimit:22.9256;" d="
				M31.46,216.378c0,0-38.993-14.207-23.618,48.23"/>
			
				<path style="fill:none;stroke:#000000;stroke-width:8.5039;stroke-linecap:round;stroke-linejoin:round;stroke-miterlimit:22.9256;" d="
				M26.591,318.983c-16.378-6.823-15.7-9.534-12.92-22.928c1.374-6.621-2.925-17.689-5.83-31.447"/>
			
				<path style="fill:none;stroke:#000000;stroke-width:8.5039;stroke-linecap:round;stroke-linejoin:round;stroke-miterlimit:22.9256;" d="
				M17.323,230.447c4.688,11.438,9.333,12.406,5.143,27.975"/>
			
				<path style="fill:none;stroke:#000000;stroke-width:8.5039;stroke-linecap:round;stroke-linejoin:round;stroke-miterlimit:22.9256;" d="
				M30.233,283.261c0,0-19.7-7.465-7.767-24.839"/>
			<g>
				<polygon style="fill-rule:evenodd;clip-rule:evenodd;" points="74.868,167.598 84.417,166.523 94.877,165.774 95.479,173.948 
					92.169,180.268 84.542,185.77 78.661,190.676 78.416,198.789 85.215,206.448 91.685,210.28 95.71,215.249 95.766,222.49 
					93.27,229.34 82.605,230.326 75.157,232.325 73.768,221.989 72.856,209.335 72.991,193.796 73.999,176.945 74.868,167.598 				
					"/>
				<path style="fill-rule:evenodd;clip-rule:evenodd;" d="M198.128,159.078l2.91-9.451l7.146,2.461c0,0,7.573,0.372,7.251,1.38
					c-0.322,1.007,4.126,5.698,4.126,5.698l1.881,8.204l0.593,8.411l-0.605,6l-8.026,4.17l-6.279,5.317l-4.07,6.825l4.406,4.824
					l6.198,6.708l5.824,6.155l1.71,5.184l-2.156,10.364l-8.851-0.423l-8.737,0.783l-3.15,0.573l-0.933-10.411l-0.899-13.298
					l-0.663-22.086l0.882-18.937L198.128,159.078L198.128,159.078z"/>
				
					<path style="fill:none;stroke:#000000;stroke-width:8.5039;stroke-linecap:round;stroke-linejoin:round;stroke-miterlimit:22.9256;" d="
					M109.678,165.374c0,0-18.282-0.176-36.373,2.444c-4.914,0.712-7.695,2.652-13.783,5.15"/>
				
					<path style="fill:none;stroke:#000000;stroke-width:8.5039;stroke-linecap:round;stroke-linejoin:round;stroke-miterlimit:22.9256;" d="
					M62.053,238.593c0,0,24.281-16.876,49.406-5.063"/>
				
					<path style="fill:none;stroke:#000000;stroke-width:8.5039;stroke-linecap:round;stroke-linejoin:round;stroke-miterlimit:22.9256;" d="
					M76.491,195.843c8.03,13.275,17.906,16.032,19.219,19.406"/>
				
					<path style="fill:none;stroke:#000000;stroke-width:8.5039;stroke-linecap:round;stroke-linejoin:round;stroke-miterlimit:22.9256;" d="
					M93.27,229.34c0,0,4.315-7.715,2.44-14.091"/>
				
					<path style="fill:none;stroke:#000000;stroke-width:8.5039;stroke-linecap:round;stroke-linejoin:round;stroke-miterlimit:22.9256;" d="
					M94.877,165.774c0.811,2.917,1.558,10.903-1.57,13.563c-5.371,4.568-13.816,8.911-16.629,13.974"/>
				
					<path style="fill:none;stroke:#000000;stroke-width:8.5039;stroke-linecap:round;stroke-linejoin:round;stroke-miterlimit:22.9256;" d="
					M74.868,167.598c0,0-5.478,48.946,1.354,64.377"/>
				
					<path style="fill:none;stroke:#000000;stroke-width:8.5039;stroke-linecap:round;stroke-linejoin:round;stroke-miterlimit:22.9256;" d="
					M189.929,234.656c0,0,24.75-10.312,49.688,3.188"/>
				
					<path style="fill:none;stroke:#000000;stroke-width:8.5039;stroke-linecap:round;stroke-linejoin:round;stroke-miterlimit:22.9256;" d="
					M172.492,147.655c0,0,5.732-1.097,19.658,0.127c13.385,1.176,22.283,9.772,50.28,11.873"/>
				
					<path style="fill:none;stroke:#000000;stroke-width:8.5039;stroke-linecap:round;stroke-linejoin:round;stroke-miterlimit:22.9256;" d="
					M198.297,232.261c0,0-8.325-78.904,5.435-81.755"/>
				
					<path style="fill:none;stroke:#000000;stroke-width:8.5039;stroke-linecap:round;stroke-linejoin:round;stroke-miterlimit:22.9256;" d="
					M218.268,155.438c0,0,5.599,13.405,3.162,26.343"/>
				
					<path style="fill:none;stroke:#000000;stroke-width:8.5039;stroke-linecap:round;stroke-linejoin:round;stroke-miterlimit:22.9256;" d="
					M203.992,196.031c0,0,2.812-8.251,17.438-14.25"/>
				
					<path style="fill:none;stroke:#000000;stroke-width:8.5039;stroke-linecap:round;stroke-linejoin:round;stroke-miterlimit:22.9256;" d="
					M203.054,198.093c0,0,12.668,13.959,18.106,19.396"/>
				
					<path style="fill:none;stroke:#000000;stroke-width:8.5039;stroke-linecap:round;stroke-linejoin:round;stroke-miterlimit:22.9256;" d="
					M219.036,231.328c0,0,2.687-7.088,2.124-13.838"/>
			</g>
			<g>
				
					<path style="fill:none;stroke:#000000;stroke-width:8.5039;stroke-linecap:round;stroke-linejoin:round;stroke-miterlimit:22.9256;" d="
					M261.474,147.199c0,0,22.471,50.62,4.471,107.287"/>
			</g>
		</g>
	</g>
</g>
<g id="n1203">
	<g id="n0103">
		<polygon style="fill-rule:evenodd;clip-rule:evenodd;fill:#E186AE;" points="133.341,383.188 134.692,372.102 136.373,350.668 
			139.747,339.781 145.713,333.03 153.029,330.985 160.42,333.457 165.805,336.869 168.701,341.253 165.305,346.696 162.19,349.216 
			162.559,356.398 163.045,372.554 162.215,377.633 153.973,375.416 145.297,377.458 139.243,381.401 133.341,383.188 		"/>
		
			<path style="fill:none;stroke:#000000;stroke-width:8.5039;stroke-linecap:round;stroke-linejoin:round;stroke-miterlimit:22.9256;" d="
			M133.055,384.703c3.41-16.719,0.187-54.615,21.775-53.715"/>
		
			<path style="fill:none;stroke:#000000;stroke-width:8.5039;stroke-linecap:round;stroke-linejoin:round;stroke-miterlimit:22.9256;" d="
			M148.651,351.089c7.768,1.035,40.224-10.2,6.179-20.101"/>
		
			<path style="fill:none;stroke:#000000;stroke-width:8.5039;stroke-linecap:round;stroke-linejoin:round;stroke-miterlimit:22.9256;" d="
			M163.465,378.363c0,0-0.696-16.62-1.313-29.962"/>
	</g>
</g>
<g id="n1204">
	<g>
		<g>
			<g>
				<path style="fill-rule:evenodd;clip-rule:evenodd;fill:#67559E;" d="M283.068,312.944l-1.914-12.757l-6.244-12.478
					l-10.253-11.382l-16.778-8.746l-13.579-3.439l-18.621-0.976l-15.469,1.304l-13.075,2.507l-13.636,3.592l-14.978,2.223
					l-15.639,0.271l-12.958-1.541l-8.61-1.921l-7.922-2.272l-11.983-1.072l-11.374-0.971l-13.029,0.973l-13.648,5.225l-13.1,5.969
					l-10.613,9.652l-5.517,8.701l-3.75,9.211l-2.907,13.205l-0.143,15.013l1.781,9.909l4.746,13.285l7.361,12.989l7.495,9.816
					l11.099,11.347l11.709,8.855l12.369,7.203l13.008,6.184l14.116,5.189l15.978,4.061l16.486,2.271l14.814,0.444l16.164-1.195
					l15.849-2.855l16.118-4.645l16.078-6.508l13.254-7.071l12.891-9.175l11.42-10.98l8.436-11.124l8.228-16.1l4.657-15.982
					l1.719-13.327L283.068,312.944z M240.612,367.819c-25.667,20.333-75,42.667-155.667,13c0,0-32.333-14.667-34.667-36.667
					c-2.333-22-2-45.333,17.667-53c19.667-7.667,47.333-0.667,65.667-0.667s70-2.333,83.333-4.667
					c13.333-2.333,28.667-2.333,37,17.667C262.279,323.486,266.279,347.486,240.612,367.819z"/>
				<polygon style="fill-rule:evenodd;clip-rule:evenodd;fill:#FFFFFF;" points="72.653,371.943 76.154,366.754 81.33,359.438 
					86.688,352.626 92.89,348.905 99.419,349.522 103.795,351.997 106.659,357.188 114.006,359.297 118.763,364.692 
					120.837,368.204 129.612,366.072 138.221,369.13 144.48,372.954 151.603,366.572 161.239,362.263 170.108,364.171 
					176.114,368.174 179.205,371.892 185.217,366.874 192.482,363.434 200.333,363.213 206.483,357.691 213.429,352.333 
					217.981,352.118 224.957,344.868 231.49,344.812 238.392,348.746 243.005,353.351 249.788,358.08 242.318,367.169 
					232.896,375.447 219.303,383.678 200.942,390.547 185.516,393.812 168.067,395.502 150.965,395.536 138.653,394.791 
					120.052,392.2 105.562,388.59 92.49,383.713 82.534,378.614 72.653,371.943 				"/>
				<path style="fill-rule:evenodd;clip-rule:evenodd;fill:#61F4E5;" d="M74.996,290.798l9.708-2.135l13.596-0.239l13.453,0.791
					l18.735,2.296l15.563,0.754l17.053-0.419l9.22-0.893l17.586-2.388l11.279-1.584l11.846-1.39l11.967,0.488l2.139,6.235
					l1.072,7.578l-1.58,7.312l-3.459,5.58l-6.123,3.31l-10.026-1.079l-4.018,4.789l-8.591,2.073l-7.577-2.349l-5.549-3.152
					l-6.093,5.227c0,0-10.034,1.02-9.098,1.155c0.937,0.134-7.94-3.023-7.94-3.023l-7.186-5.254l-9.306,5.341l-10.608-0.2
					l-7.775-3.755l-3.762-2.901l-6.903,3.733l-6.749,1.024l-5.664-2.081l-2.713-2.43l-5.877,3.324l-7.062-3.92l-5.308-5.381
					l-3.74-8.314L74.996,290.798L74.996,290.798z"/>
				
					<path style="fill:none;stroke:#000000;stroke-width:8.5039;stroke-linecap:round;stroke-linejoin:round;stroke-miterlimit:22.9256;" d="
					M74.996,290.798c0,0-2.343,27.253,20.685,24.553"/>
				
					<path style="fill:none;stroke:#000000;stroke-width:8.5039;stroke-linecap:round;stroke-linejoin:round;stroke-miterlimit:22.9256;" d="
					M90.722,297.619c0,0,4.926,32.021,28.8,15.347"/>
				
					<path style="fill:none;stroke:#000000;stroke-width:8.5039;stroke-linecap:round;stroke-linejoin:round;stroke-miterlimit:22.9256;" d="
					M150.973,314.482c0,0-13.073,14.4-31.452-1.516"/>
				
					<path style="fill:none;stroke:#000000;stroke-width:8.5039;stroke-linecap:round;stroke-linejoin:round;stroke-miterlimit:22.9256;" d="
					M181.289,316.377c0,0-9.853,16.105-30.316-1.895"/>
				
					<path style="fill:none;stroke:#000000;stroke-width:8.5039;stroke-linecap:round;stroke-linejoin:round;stroke-miterlimit:22.9256;" d="
					M210.468,301.408c0,0-0.758,33.536-29.179,14.968"/>
				
					<path style="fill:none;stroke:#000000;stroke-width:8.5039;stroke-linecap:round;stroke-linejoin:round;stroke-miterlimit:22.9256;" d="
					M228.213,288.139c2.654,2.463,1.327,34.609-21.188,26.876"/>
				
					<path style="fill:none;stroke:#000000;stroke-width:8.5039;stroke-linecap:round;stroke-linejoin:round;stroke-miterlimit:22.9256;" d="
					M75.185,367.723c3.092-10.68,13.825-25.234,29.741-13.676"/>
				
					<path style="fill:none;stroke:#000000;stroke-width:8.5039;stroke-linecap:round;stroke-linejoin:round;stroke-miterlimit:22.9256;" d="
					M91.29,372.839c0,0,13.642-29.179,27.473-8.147"/>
				
					<path style="fill:none;stroke:#000000;stroke-width:8.5039;stroke-linecap:round;stroke-linejoin:round;stroke-miterlimit:22.9256;" d="
					M143.774,373.786c0,0-16.484-19.326-31.452,3.032"/>
				
					<path style="fill:none;stroke:#000000;stroke-width:8.5039;stroke-linecap:round;stroke-linejoin:round;stroke-miterlimit:22.9256;" d="
					M179.205,371.892c0,0-14.589-23.115-35.432,1.895"/>
				
					<path style="fill:none;stroke:#000000;stroke-width:8.5039;stroke-linecap:round;stroke-linejoin:round;stroke-miterlimit:22.9256;" d="
					M217.289,378.902c0,0-14.02-30.884-38.084-7.01"/>
				
					<path style="fill:none;stroke:#000000;stroke-width:8.5039;stroke-linecap:round;stroke-linejoin:round;stroke-miterlimit:22.9256;" d="
					M200.333,363.213c7.389-2.653,12.598-25.805,33.819,2.995"/>
				
					<path style="fill:none;stroke:#000000;stroke-width:8.5039;stroke-linecap:round;stroke-linejoin:round;stroke-miterlimit:22.9256;" d="
					M247.226,356.536c0,0-15.497-24.86-30.037-4.556"/>
				
					<path style="fill:none;stroke:#000000;stroke-width:8.5039;stroke-linecap:round;stroke-linejoin:round;stroke-miterlimit:22.9256;" d="
					M116.904,266.499c-20.842,0.189-32.035-7.557-58.06,4.375c-15.568,7.138-28.985,21.251-32.105,48.13"/>
				
					<path style="fill:none;stroke:#000000;stroke-width:8.5039;stroke-linecap:round;stroke-linejoin:round;stroke-miterlimit:22.9256;" d="
					M177.888,268.455c0,0,82.659-27.325,102.744,30.843"/>
				
					<path style="fill:none;stroke:#000000;stroke-width:8.5039;stroke-linecap:round;stroke-linejoin:round;stroke-miterlimit:22.9256;" d="
					M66.573,395.295c0,0-44.336-30.885-39.978-76.737"/>
				
					<path style="fill:none;stroke:#000000;stroke-width:8.5039;stroke-linecap:round;stroke-linejoin:round;stroke-miterlimit:22.9256;" d="
					M238.045,399.274c0,0-81.094,57.031-171.472-3.979"/>
				
					<path style="fill:none;stroke:#000000;stroke-width:8.5039;stroke-linecap:round;stroke-linejoin:round;stroke-miterlimit:22.9256;" d="
					M280.487,298.853c3.218,12.008,9.853,66.316-42.443,100.421"/>
				
					<path style="fill:none;stroke:#000000;stroke-width:8.5039;stroke-linecap:round;stroke-linejoin:round;stroke-miterlimit:22.9256;" d="
					M92.72,288.244c35.93,0.972,26.715,4.044,58.737,4.057c20.125,0.008,39.083-4.47,61.578-6.711"/>
				
					<path style="fill:none;stroke:#000000;stroke-width:8.5039;stroke-linecap:round;stroke-linejoin:round;stroke-miterlimit:22.9256;" d="
					M260.402,336.37c0,0,14.021-52.106-47.368-50.779"/>
				
					<path style="fill:none;stroke:#000000;stroke-width:8.5039;stroke-linecap:round;stroke-linejoin:round;stroke-miterlimit:22.9256;" d="
					M54.257,352.475c-7.404-10.983-15.16-64.338,38.463-64.231"/>
				
					<path style="fill:none;stroke:#000000;stroke-width:8.5039;stroke-linecap:round;stroke-linejoin:round;stroke-miterlimit:22.9256;" d="
					M260.402,336.37c-15.347,47.747-62.145,59.456-101.397,59.315c-40.922-0.146-81.283-9.246-104.748-43.21"/>
			</g>
			
				<path style="fill-rule:evenodd;clip-rule:evenodd;fill:none;stroke:#000000;stroke-width:8.5039;stroke-linecap:round;stroke-linejoin:round;stroke-miterlimit:22.9256;" d="
				M116.904,266.499c0,0,13.457,3.726,30.636,3.726s35.368-3.368,35.368-3.368"/>
		</g>
		<g>
			<polygon style="fill-rule:evenodd;clip-rule:evenodd;fill:#DF85AD;" points="125.276,270.809 117.421,264.977 113.744,256.203 
				117.455,246.237 126.991,238.308 135.053,233.734 145.002,228.973 152.819,228.548 159.298,231.006 166.742,235.365 
				172.873,239.963 177.873,245.351 182.8,252.061 184.614,258.091 183.078,263.163 177.505,268.392 167.735,271.019 
				154.256,272.864 140.142,273.734 125.276,270.809 			"/>
			
				<path style="fill:none;stroke:#000000;stroke-width:8.5039;stroke-linecap:round;stroke-linejoin:round;stroke-miterlimit:22.9256;" d="
				M165.053,271.454c7.143-0.984,16.289-3.586,18.929-9.989c1.112-2.699,1.217-6.03-3.436-13.352
				c-4.652-7.322-19.231-17.611-27.727-19.565c0,0-3.946-0.802-7.817,0.425c-8.071,2.464-20.362,9.809-26.253,15.803
				c-5.891,5.993-5.615,13.555-4.074,17.567c3.162,8.23,11.217,8.801,18.093,9.537"/>
			
				<path style="fill:none;stroke:#000000;stroke-width:8.5039;stroke-linecap:round;stroke-linejoin:round;stroke-miterlimit:22.9256;" d="
				M134.297,254.291c-0.41,4.935-4.333,9.006-1.954,10.196C134.722,265.677,136.506,258.54,134.297,254.291L134.297,254.291z"/>
			
				<path style="fill:none;stroke:#000000;stroke-width:8.5039;stroke-linecap:round;stroke-linejoin:round;stroke-miterlimit:22.9256;" d="
				M160.226,255.533c5.581,3.244,8.921,10.487,6.084,11.575C163.303,268.259,161.527,261.949,160.226,255.533L160.226,255.533z"/>
			
				<path style="fill:none;stroke:#000000;stroke-width:8.5039;stroke-linecap:round;stroke-linejoin:round;stroke-miterlimit:22.9256;" d="
				M132.768,271.879c0,0,13.861,3.059,32.286-0.425"/>
		</g>
		
			<path style="fill:none;stroke:#000000;stroke-width:8.5039;stroke-linecap:round;stroke-linejoin:round;stroke-miterlimit:22.9256;" d="
			M127.749,215.952c0,0,19.368-13.79,42.226-0.96"/>
	</g>
</g>
<g id="n1205">
	<g>
		
			<path style="fill:none;stroke:#000000;stroke-width:8.5039;stroke-linecap:round;stroke-linejoin:round;stroke-miterlimit:22.9256;" d="
			M53.499,127.827c15.375-20.625,41.995-39.189,93.019-42.261c29.439-1.771,70.645-0.748,101.231,37.011"/>
		<polygon style="fill-rule:evenodd;clip-rule:evenodd;fill:#DF85AD;" points="45.57,139.889 44.207,134.188 49.638,126.02 
			59.77,118.19 72.529,113.737 88.116,110.918 106.916,108.998 127.988,108.055 147.103,108.041 165.127,108.669 188.343,110.35 
			209.42,112.743 228.02,115.598 249.971,119.993 271.389,125.585 287.665,130.941 300.52,136.063 306.707,137.938 306.265,146.593 
			298.44,150.673 288.835,154.496 279.967,157.328 266.77,160.251 264.027,153.149 261.474,147.199 247.285,143.392 
			228.431,138.961 210.098,135.394 190.867,132.48 170.05,130.327 151.98,129.324 130.983,129.185 112.895,129.952 97.271,131.272 
			78.979,133.584 61.818,136.491 45.57,139.889 		"/>
		<path style="fill-rule:evenodd;clip-rule:evenodd;fill:#67559E;" d="M35.154,157.836l2.125-15.35l8.292-2.597l-0.682-2.85
			l2.034-6.934l7.782-7.999l12.185-6.869c0,0,10.666-2.251,13.434-2.908c2.768-0.659,20.317-2.822,20.317-2.822l19.075-1.081
			l17.831-0.377l18.569,0.308l18.331,0.87l16.159,1.381l18.816,2.137L230.027,116l19.943,3.993l23.874,6.4l15.745,5.259
			l10.931,4.411l6.188,1.875l4.45,5.142l4.764-7.02l-0.879-5.128l-7.909-7.149l-13.848-6.165l-13.658-4.185l-10.796-2.682
			l-1.527-11.407l0.059-16.559l-1.238-17.506l-3.704-13.301l-7.659-13.046l-10.114-6.993l-20.027-10.341l-16.868-6.817
			l-22.046-6.449L167.44,5.172L148.241,4.37l-19.705,2.271l-20.317,4.636l-21.114,6.942l-20.138,9.194l-10.3,7.064l-3.272,4.649
			l-2.096,7.151l-3.352,12.094l-2.689,10.47l-3.479,15.025l-2.544,12.688l-2.638,16.273l-1.618,14.381l-0.739,15.412L35.154,157.836
			L35.154,157.836z"/>
		<polygon style="fill-rule:evenodd;clip-rule:evenodd;fill:#4AB57E;" points="135.984,98.252 159.855,98.837 160.297,88.153 
			162.489,72.195 154.995,61.747 149.3,53.845 142.973,53.499 142.119,64.59 140.482,77.436 138.234,89.351 135.984,98.252 		"/>
		<polygon style="fill-rule:evenodd;clip-rule:evenodd;fill:#F9D740;" points="180.813,99.978 175.847,91.088 169.269,81.71 
			163.55,73.907 160.738,77.47 160.4,84.389 160.076,93.495 159.855,98.837 169.567,99.298 180.813,99.978 		"/>
		
			<path style="fill:none;stroke:#000000;stroke-width:8.5039;stroke-linecap:round;stroke-linejoin:round;stroke-miterlimit:22.9256;" d="
			M35.582,160.063c0,0-8.625-32.438,17.812-120.938"/>
		
			<path style="fill:none;stroke:#000000;stroke-width:8.5039;stroke-linecap:round;stroke-linejoin:round;stroke-miterlimit:22.9256;" d="
			M252.52,36.876c0,0-41.848-29.303-93.562-32.458C118.896,1.976,56.301,27.034,53.394,39.126"/>
		
			<path style="fill:none;stroke:#000000;stroke-width:8.5039;stroke-linecap:round;stroke-linejoin:round;stroke-miterlimit:22.9256;" d="
			M157.457,25.813c0,0,0.375-13.875,1.312-15.375"/>
		
			<path style="fill:none;stroke:#000000;stroke-width:8.5039;stroke-linecap:round;stroke-linejoin:round;stroke-miterlimit:22.9256;" d="
			M268.832,110.751c-3.128-10.719-0.387-26.899-2.057-41.086c-1.738-14.766-7.757-27.81-14.255-32.789"/>
		
			<path style="fill:none;stroke:#000000;stroke-width:8.5039;stroke-linecap:round;stroke-linejoin:round;stroke-miterlimit:22.9256;" d="
			M34.239,142.621c90.75-23.062,165.968-14.058,238.531,7.88"/>
		
			<path style="fill:none;stroke:#000000;stroke-width:8.5039;stroke-linecap:round;stroke-linejoin:round;stroke-miterlimit:22.9256;" d="
			M45.52,116.001c15.75-26.812,147.654-24.923,223.312-5.25"/>
		
			<path style="fill:none;stroke:#000000;stroke-width:8.5039;stroke-linecap:round;stroke-linejoin:round;stroke-miterlimit:22.9256;" d="
			M266.77,160.251c6.375,0.188,106.312-25.5,2.062-49.5"/>
		
			<path style="fill:none;stroke:#000000;stroke-width:8.5039;stroke-linecap:round;stroke-linejoin:round;stroke-miterlimit:22.9256;" d="
			M44.207,134.188c1.827-5.036,9.655-15.038,22.682-18.952c41.868-12.577,165.708-9.375,238.311,22.246"/>
		
			<path style="fill:none;stroke:#000000;stroke-width:8.5039;stroke-linecap:round;stroke-linejoin:round;stroke-miterlimit:22.9256;" d="
			M306.707,137.938c0,0,2.303,3.996-0.442,8.654"/>
		
			<path style="fill:none;stroke:#000000;stroke-width:8.5039;stroke-linecap:round;stroke-linejoin:round;stroke-miterlimit:22.9256;" d="
			M145.957,32.381c0,0,18.156,28.963,18.343,32.151"/>
		
			<path style="fill:none;stroke:#000000;stroke-width:8.5039;stroke-linecap:round;stroke-linejoin:round;stroke-miterlimit:22.9256;" d="
			M181.363,32.47c0,0-8.25,7.5-17.062,32.062"/>
		
			<path style="fill:none;stroke:#000000;stroke-width:8.5039;stroke-linecap:round;stroke-linejoin:round;stroke-miterlimit:22.9256;" d="
			M137.99,45.973c0,0,6.82,21.065-1.051,48.657"/>
		
			<path style="fill:none;stroke:#000000;stroke-width:8.5039;stroke-linecap:round;stroke-linejoin:round;stroke-miterlimit:22.9256;" d="
			M186.613,49.345c0,0-5.062,10.875-4.688,45.188"/>
		
			<path style="fill:none;stroke:#000000;stroke-width:8.5039;stroke-linecap:round;stroke-linejoin:round;stroke-miterlimit:22.9256;" d="
			M137.99,45.973c0,0,35.88,33.887,39.811,47.997"/>
		
			<path style="fill:none;stroke:#000000;stroke-width:8.5039;stroke-linecap:round;stroke-linejoin:round;stroke-miterlimit:22.9256;" d="
			M160.738,77.47c0,0-0.827,13.567-0.882,18.825"/>
	</g>
</g>
</svg>
