<svg version="1.1" xmlns="http://www.w3.org/2000/svg" xmlns:xlink="http://www.w3.org/1999/xlink" x="0px" y="0px"
	 viewBox="0 0 309.345 647.48" style="enable-background:new 0 0 309.345 647.48;" xml:space="preserve">
<g id="n1301">
	<g>
		<polygon style="fill-rule:evenodd;clip-rule:evenodd;fill:#E186AE;" points="27.514,527.563 32.142,523.568 49.136,514.346 
			71.968,499.802 84.577,492.278 103.034,482.899 112.76,492.582 119.915,497.668 131.423,503.3 148.407,506.994 168.141,505.94 
			189.48,499.214 198.834,492.266 205.453,481.625 214.441,483.002 228.139,488.81 241.465,494.625 256.011,501.207 
			270.703,508.247 281.947,514.172 289.266,518.75 291.328,523.438 285.39,533.305 274.732,547.923 260.984,562.634 
			245.467,575.217 226.476,586.302 204.558,594.568 181.184,599.169 161.59,600.28 140.88,598.733 117.635,593.243 97.61,585.2 
			76.796,573.366 60.958,561.759 44.888,547.317 34.751,536.489 27.514,527.563 		"/>
		<polygon style="fill-rule:evenodd;clip-rule:evenodd;fill:#4AB57E;" points="163.077,555.313 168.889,559.438 176.727,565.377 
			179.325,575.006 178.041,582.109 172.137,588.477 164.518,591.145 153.306,589.966 145.474,581.275 144.917,566.958 
			151.906,557.882 163.077,555.313 		"/>
		<path style="fill-rule:evenodd;clip-rule:evenodd;fill:#F9D740;" d="M129.702,422.374c0,0,28.126-8.626,56.813,0.562
			c-0.514,8.034-0.628,11.417-0.628,11.417l0.065,11.705l0.701,9.44l2.549,12.9l5.502,10.083l9.159,5.697l-3.175,5.105l-8.555,7.959
			l-17.041,7.318l-23.247,2.583l-17.023-2.694l-14.907-6.783l-9.229-7.15l-2.546-6.268l8.137-3.686l7.738-8.898l4.333-13.875
			l1.096-11.017l0.229-16.524L129.702,422.374L129.702,422.374z"/>
		
			<path style="fill:none;stroke:#000000;stroke-width:8.5039;stroke-linecap:round;stroke-linejoin:round;stroke-miterlimit:22.9256;" d="
			M139.82,519.521c0,0,32.45,6.499,44.623-0.837"/>
		
			<path style="fill:none;stroke:#000000;stroke-width:8.5039;stroke-linecap:round;stroke-linejoin:round;stroke-miterlimit:22.9256;" d="
			M102.809,481.718c3.198,5.244,21.801,25.567,51.45,24.851c20.992-0.506,44.549-6.862,51.112-25.614"/>
		
			<path style="fill:none;stroke:#000000;stroke-width:8.5039;stroke-linecap:round;stroke-linejoin:round;stroke-miterlimit:22.9256;" d="
			M186.318,422.304c0,0-5.512,57.761,15.302,58.659"/>
		
			<path style="fill:none;stroke:#000000;stroke-width:8.5039;stroke-linecap:round;stroke-linejoin:round;stroke-miterlimit:22.9256;" d="
			M129.504,421.853c-0.328,23.813,3.108,55.307-21.441,61.918"/>
		
			<path style="fill:none;stroke:#000000;stroke-width:8.5039;stroke-linecap:round;stroke-linejoin:round;stroke-miterlimit:22.9256;" d="
			M209.683,480.384c0,0,63.613,25.938,79.574,37.532"/>
		
			<path style="fill:none;stroke:#000000;stroke-width:8.5039;stroke-linecap:round;stroke-linejoin:round;stroke-miterlimit:22.9256;" d="
			M202.179,478.899c-0.568-2.625,10.391-4.323,13.833,4.102"/>
		
			<path style="fill:none;stroke:#000000;stroke-width:8.5039;stroke-linecap:round;stroke-linejoin:round;stroke-miterlimit:22.9256;" d="
			M291.328,522.6c-19.992,36.039-59.401,76.973-129.588,77.096c-71.842,0.126-121.243-55.118-134.217-72.456"/>
		
			<path style="fill:none;stroke:#000000;stroke-width:8.5039;stroke-linecap:round;stroke-linejoin:round;stroke-miterlimit:22.9256;" d="
			M100.563,483.785c-27.539,12.054-47.753,30.468-70.234,40.261"/>
		
			<path style="fill:none;stroke:#000000;stroke-width:8.5039;stroke-linecap:round;stroke-linejoin:round;stroke-miterlimit:22.9256;" d="
			M108.62,481.144c-0.941-1.873-11.429-3.413-11.328,4.117"/>
		
			<path style="fill:none;stroke:#000000;stroke-width:8.5039;stroke-linecap:round;stroke-linejoin:round;stroke-miterlimit:22.9256;" d="
			M108.423,476.269c0,0-0.694,0.741-3.081,3.45"/>
		
			<path style="fill:none;stroke:#000000;stroke-width:8.5039;stroke-linecap:round;stroke-linejoin:round;stroke-miterlimit:22.9256;" d="
			M94.852,486.419c-3.901,18.383,45.993,77.725,66.993,77.309"/>
		
			<path style="fill:none;stroke:#000000;stroke-width:8.5039;stroke-linecap:round;stroke-linejoin:round;stroke-miterlimit:22.9256;" d="
			M216.445,486.934c-1.453,24.753-29.663,76.933-54.6,76.794"/>
		
			<path style="fill:none;stroke:#000000;stroke-width:8.5039;stroke-linecap:round;stroke-linejoin:round;stroke-miterlimit:22.9256;" d="
			M163.139,554.726c-13.126-0.349-18.384,8.293-18.93,15.904c-0.575,8.019,2.571,20.249,16.939,20.287"/>
		
			<path style="fill:none;stroke:#000000;stroke-width:8.5039;stroke-linecap:round;stroke-linejoin:round;stroke-miterlimit:22.9256;" d="
			M168.96,558.839c6.665,2.209,9.77,6.818,10.466,15.548c0.635,7.964-5.257,15.927-18.278,16.53"/>
		
			<line style="fill:none;stroke:#000000;stroke-width:8.5039;stroke-linecap:round;stroke-linejoin:round;stroke-miterlimit:22.9256;" x1="162" y1="643.228" x2="161.148" y2="590.917"/>
		
			<line style="fill:none;stroke:#000000;stroke-width:8.5039;stroke-linecap:round;stroke-linejoin:round;stroke-miterlimit:22.9256;" x1="176.42" y1="634.2" x2="161.857" y2="634.437"/>
		
			<line style="fill:none;stroke:#000000;stroke-width:8.5039;stroke-linecap:round;stroke-linejoin:round;stroke-miterlimit:22.9256;" x1="174.711" y1="623.141" x2="161.677" y2="623.354"/>
	</g>
</g>
<g id="n1302">
	<g>
		<polygon style="fill-rule:evenodd;clip-rule:evenodd;fill:#E186AE;" points="156.196,417.263 45.956,385.351 37.336,284.28 
			155.336,284.28 		"/>
		<polygon style="fill-rule:evenodd;clip-rule:evenodd;fill:#61F4E5;" points="256.956,379.351 154.956,417.351 154.097,284.368 
			272.097,284.368 		"/>
		<g>
			<polygon style="fill-rule:evenodd;clip-rule:evenodd;fill:#F9D740;" points="31.46,240.396 32.665,252.871 34.563,269.322 
				35.682,283.84 35.588,292.976 30.848,303.895 29.123,314.221 34.437,317.196 30.18,326.761 27.858,335.192 26.799,341.349 
				19.838,339.908 13.57,335.073 12.356,327.087 13.672,320.074 13.728,314.128 10.186,298.471 5.192,275.372 4.297,261.335 
				7.784,247.147 12.932,241.661 23.308,239.01 31.46,240.396 			"/>
			<polygon style="fill-rule:evenodd;clip-rule:evenodd;fill:#67559E;" points="34.437,317.196 38.845,310.556 47.744,301.735 
				62.311,295.097 73.595,290.092 89.719,288.888 104.309,290.423 115.819,291.043 127.956,310.351 130.956,317.351 
				127.956,306.351 143.956,300.351 153.549,247.674 154.956,301.351 165.956,304.351 170.956,304.351 171.956,311.351 
				185.716,287.422 186.358,290.277 200.957,287.713 216.241,286.64 234.469,288.064 250.446,292.913 260.371,298.767 
				269.261,307.471 274.069,314.834 277.528,311.222 276.249,300.145 271.387,288.152 265.779,281.233 269.621,268.36 
				273.46,247.497 274.707,225.916 273.371,207.116 269.352,188.1 261.561,168.098 250.602,150.272 237.022,135.167 
				216.765,120.985 194.755,112.765 172.365,109.42 149.861,109.401 130.559,111.141 109.509,115.403 89.766,122.606 
				74.975,131.077 60.975,143.003 48.482,159.672 40.14,176.235 34.573,193.1 31.965,206.999 30.92,220.195 31.346,238.848 
				33.264,258.071 35.123,276.581 35.635,288.409 34.229,295.404 30.848,303.895 29.17,313.125 			"/>
			<g>
				<defs>
					<polygon id="SVGID_1_" points="34.437,316.196 38.845,309.556 47.744,300.735 62.311,294.097 73.595,289.092 89.719,287.888 
						104.309,289.423 115.819,290.043 127.956,310.351 133.956,309.351 140.956,296.351 152.956,308.351 153.549,246.674 
						162.956,314.351 172.956,317.351 173.956,320.351 176.956,314.351 176.956,318.351 186.358,289.277 200.957,286.713 
						216.241,285.64 234.469,287.064 250.446,291.913 260.371,297.767 269.261,306.471 274.069,313.834 277.528,310.222 
						276.249,299.145 271.387,287.152 265.779,280.233 269.621,267.36 273.46,246.497 274.707,224.916 273.371,206.116 
						269.352,187.1 261.561,167.098 250.602,149.272 237.022,134.167 216.765,119.985 194.755,111.765 172.365,108.42 
						149.861,108.401 130.559,110.141 109.509,114.403 89.766,121.606 74.975,130.077 60.975,142.003 48.482,158.672 40.14,175.235 
						34.573,192.1 31.965,205.999 30.92,219.195 31.346,237.848 33.264,257.071 35.123,275.581 35.635,287.409 34.229,294.404 
						30.848,302.895 29.17,312.125 34.437,316.196 					"/>
				</defs>
				<clipPath id="SVGID_2_">
					<use xlink:href="#SVGID_1_"  style="overflow:visible;"/>
				</clipPath>
				
					<rect x="-22.556" y="61.684" style="clip-path:url(#SVGID_2_);fill-rule:evenodd;clip-rule:evenodd;fill:#FFFFFF;" width="176" height="317"/>
			</g>
			<polygon style="fill-rule:evenodd;clip-rule:evenodd;fill:#E186AE;" points="273.742,242.614 282.138,239.907 292.523,240.567 
				300.473,245.656 304.743,256.389 304.976,265.274 302.839,278.833 300.249,288.346 297.156,299.01 294.646,311.251 
				294.103,321.797 295.506,330.914 293.233,338.447 287.673,341.73 279.756,342.5 279.228,332.731 277.337,322.491 
				275.798,313.028 278.312,307.472 275.787,298.318 271.387,288.152 265.779,281.233 269.621,268.36 271.541,257.928 
				273.251,248.631 273.742,242.614 			"/>
			
				<path style="fill:none;stroke:#000000;stroke-width:8.5039;stroke-linecap:round;stroke-linejoin:round;stroke-miterlimit:22.9256;" d="
				M32.097,321.886c0,0-10.385-51.375,52.151-51.541"/>
			
				<path style="fill:none;stroke:#000000;stroke-width:8.5039;stroke-linecap:round;stroke-linejoin:round;stroke-miterlimit:22.9256;" d="
				M217.749,267.72c0,0,63.375-6.75,59.625,49.126"/>
			
				<path style="fill:none;stroke:#000000;stroke-width:8.5039;stroke-linecap:round;stroke-linejoin:round;stroke-miterlimit:22.9256;" d="
				M53.499,151.845c15.375-20.625,41.995-39.19,93.019-42.261c29.439-1.771,70.645-0.748,101.231,37.011"/>
			
				<path style="fill:none;stroke:#000000;stroke-width:8.5039;stroke-linecap:round;stroke-linejoin:round;stroke-miterlimit:22.9256;" d="
				M265.779,281.233c0,0,29.22-76.138-18.03-134.638"/>
			
				<path style="fill:none;stroke:#000000;stroke-width:8.5039;stroke-linecap:round;stroke-linejoin:round;stroke-miterlimit:22.9256;" d="
				M35.588,292.976c2.25-36.376-20.714-84.881,17.911-141.131"/>
			
				<path style="fill:none;stroke:#000000;stroke-width:8.5039;stroke-linecap:round;stroke-linejoin:round;stroke-miterlimit:22.9256;" d="
				M274.07,241.686c0,0,45.679-16.716,26.179,46.66"/>
			
				<path style="fill:none;stroke:#000000;stroke-width:8.5039;stroke-linecap:round;stroke-linejoin:round;stroke-miterlimit:22.9256;" d="
				M294.624,324.721c0,0-3.375-8.25,5.625-36.375"/>
			
				<path style="fill:none;stroke:#000000;stroke-width:8.5039;stroke-linecap:round;stroke-linejoin:round;stroke-miterlimit:22.9256;" d="
				M279.999,341.97c0,0,19.875,3.75,14.625-17.249"/>
			
				<path style="fill:none;stroke:#000000;stroke-width:8.5039;stroke-linecap:round;stroke-linejoin:round;stroke-miterlimit:22.9256;" d="
				M293.323,256.87c0,0-15.949,19.102-3.574,34.477"/>
			
				<path style="fill:none;stroke:#000000;stroke-width:8.5039;stroke-linecap:round;stroke-linejoin:round;stroke-miterlimit:22.9256;" d="
				M280.749,307.471c4.499-3.875,12.375-9.375,9-16.125"/>
			
				<path style="fill:none;stroke:#000000;stroke-width:8.5039;stroke-linecap:round;stroke-linejoin:round;stroke-miterlimit:22.9256;" d="
				M31.46,240.396c0,0-38.993-14.207-23.618,48.23"/>
			
				<path style="fill:none;stroke:#000000;stroke-width:8.5039;stroke-linecap:round;stroke-linejoin:round;stroke-miterlimit:22.9256;" d="
				M26.591,343.001c-16.378-6.823-15.7-9.534-12.92-22.928c1.374-6.621-2.925-17.689-5.83-31.447"/>
			
				<path style="fill:none;stroke:#000000;stroke-width:8.5039;stroke-linecap:round;stroke-linejoin:round;stroke-miterlimit:22.9256;" d="
				M17.323,254.465c4.688,11.438,9.333,12.406,5.143,27.975"/>
			
				<path style="fill:none;stroke:#000000;stroke-width:8.5039;stroke-linecap:round;stroke-linejoin:round;stroke-miterlimit:22.9256;" d="
				M30.233,307.279c0,0-19.7-7.465-7.767-24.839"/>
			
				<line style="fill-rule:evenodd;clip-rule:evenodd;fill:none;stroke:#000000;stroke-width:8.5039;stroke-linecap:round;stroke-linejoin:round;stroke-miterlimit:22.9256;" x1="150.444" y1="113.684" x2="153.549" y2="247.674"/>
		</g>
		<g>
			<polygon style="fill-rule:evenodd;clip-rule:evenodd;" points="85.771,212.54 93.212,208.466 98.218,206.815 100.521,198.494 
				100.393,190.829 94.847,186.103 86.71,186.861 81.343,191.806 79.827,196.802 78.456,206.081 77.466,222.731 77.292,234.14 
				77.383,246.054 77.586,253.933 87.078,252.661 95.136,252.021 99.336,251.839 99.996,242.204 99.023,234.477 92.115,227.82 
				84.435,221.452 83.013,214.634 85.771,212.54 			"/>
			<polygon style="fill-rule:evenodd;clip-rule:evenodd;" points="202.074,216.201 202.53,205.418 203.325,194.856 205.698,187.848 
				213.018,184.197 222.315,184.932 227.156,189.255 228.335,194.838 228.315,203.316 227.967,207.794 221.012,210.482 
				215.445,214.067 210.531,218.236 214.196,224.328 219.311,228.083 224.923,232.309 227.031,235.528 226.671,241.297 
				225.339,249.41 217.695,249.672 210,250.276 201.403,251.328 201.462,244.908 201.623,234.15 201.847,223.866 202.074,216.201 
							"/>
			
				<path style="fill:none;stroke:#000000;stroke-width:8.5039;stroke-linecap:round;stroke-linejoin:round;stroke-miterlimit:22.9256;" d="
				M69.25,182.758c0,0,15.938-22.025,37.5-16.967"/>
			
				<path style="fill:none;stroke:#000000;stroke-width:8.5039;stroke-linecap:round;stroke-linejoin:round;stroke-miterlimit:22.9256;" d="
				M195.938,164.791c0,0,24.563-9.299,47.25,16.967"/>
			
				<path style="fill:none;stroke:#000000;stroke-width:8.5039;stroke-linecap:round;stroke-linejoin:round;stroke-miterlimit:22.9256;" d="
				M196.75,252.087c0,0,25.5-4.894,47.25-1.468"/>
			
				<path style="fill:none;stroke:#000000;stroke-width:8.5039;stroke-linecap:round;stroke-linejoin:round;stroke-miterlimit:22.9256;" d="
				M65.125,256.655c0,0,16.313-5.057,40.688-4.894"/>
			
				<path style="fill:none;stroke:#000000;stroke-width:8.5039;stroke-linecap:round;stroke-linejoin:round;stroke-miterlimit:22.9256;" d="
				M81.343,191.806c1.312-4.405,12.749-10.278,18.75-1.795"/>
			
				<path style="fill:none;stroke:#000000;stroke-width:8.5039;stroke-linecap:round;stroke-linejoin:round;stroke-miterlimit:22.9256;" d="
				M77.586,253.933c0,0-1.868-49.564,3.757-62.126"/>
			
				<path style="fill:none;stroke:#000000;stroke-width:8.5039;stroke-linecap:round;stroke-linejoin:round;stroke-miterlimit:22.9256;" d="
				M98.218,206.815c0,0,4.41-10.956,1.876-16.804"/>
			
				<path style="fill:none;stroke:#000000;stroke-width:8.5039;stroke-linecap:round;stroke-linejoin:round;stroke-miterlimit:22.9256;" d="
				M81.718,215.788c0,0,6.562-6.526,16.499-8.973"/>
			
				<path style="fill:none;stroke:#000000;stroke-width:8.5039;stroke-linecap:round;stroke-linejoin:round;stroke-miterlimit:22.9256;" d="
				M98.218,232.755c-5.25-5.221-16.688-10.767-16.5-16.967"/>
			
				<path style="fill:none;stroke:#000000;stroke-width:8.5039;stroke-linecap:round;stroke-linejoin:round;stroke-miterlimit:22.9256;" d="
				M99.336,251.839c0,0,2.069-14.19-1.118-19.084"/>
			
				<path style="fill:none;stroke:#000000;stroke-width:8.5039;stroke-linecap:round;stroke-linejoin:round;stroke-miterlimit:22.9256;" d="
				M204.156,190.338c2.25-7.015,19.312-10.115,23.438-0.163"/>
			
				<path style="fill:none;stroke:#000000;stroke-width:8.5039;stroke-linecap:round;stroke-linejoin:round;stroke-miterlimit:22.9256;" d="
				M201.403,251.328c0,0,0.316-54.79,2.753-60.989"/>
			
				<path style="fill:none;stroke:#000000;stroke-width:8.5039;stroke-linecap:round;stroke-linejoin:round;stroke-miterlimit:22.9256;" d="
				M227.967,207.794c0,0,1.313-12.072-0.374-17.619"/>
			
				<path style="fill:none;stroke:#000000;stroke-width:8.5039;stroke-linecap:round;stroke-linejoin:round;stroke-miterlimit:22.9256;" d="
				M210.531,218.236c0,0,8.437-8.483,17.437-10.441"/>
			
				<path style="fill:none;stroke:#000000;stroke-width:8.5039;stroke-linecap:round;stroke-linejoin:round;stroke-miterlimit:22.9256;" d="
				M227.031,235.528c0-4.568-18.535-11.935-16.5-17.293"/>
			
				<path style="fill:none;stroke:#000000;stroke-width:8.5039;stroke-linecap:round;stroke-linejoin:round;stroke-miterlimit:22.9256;" d="
				M225.339,249.41c0,0,1.504-5.724,1.692-13.881"/>
		</g>
	</g>
</g>
<g id="n1303">
	<g style="display:none;">
		<polygon style="display:inline;fill-rule:evenodd;clip-rule:evenodd;fill:#F9D740;" points="137.737,396.142 139.088,385.056 
			140.77,363.621 144.144,352.735 150.11,345.984 157.426,343.939 164.817,346.41 170.202,349.822 173.098,354.207 169.701,359.65 
			166.587,362.17 166.956,369.351 167.441,385.507 166.612,390.587 158.37,388.369 149.693,390.412 143.64,394.354 137.737,396.142 
					"/>
		
			<path style="display:inline;fill:none;stroke:#000000;stroke-width:8.5039;stroke-linecap:round;stroke-linejoin:round;stroke-miterlimit:22.9256;" d="
			M137.452,397.656c3.41-16.719,0.187-54.615,21.775-53.715"/>
		
			<path style="display:inline;fill:none;stroke:#000000;stroke-width:8.5039;stroke-linecap:round;stroke-linejoin:round;stroke-miterlimit:22.9256;" d="
			M153.048,364.042c7.768,1.035,40.224-10.2,6.179-20.101"/>
		
			<path style="display:inline;fill:none;stroke:#000000;stroke-width:8.5039;stroke-linecap:round;stroke-linejoin:round;stroke-miterlimit:22.9256;" d="
			M167.862,391.316c0,0-0.696-16.62-1.313-29.962"/>
	</g>
</g>
<g id="n1304">
	<g>
		<g style="display:inline;">
			<g>
				<path style="fill-rule:evenodd;clip-rule:evenodd;fill:#67559E;" d="M283.792,330.738l-1.914-12.757l-6.244-12.478
					l-10.253-11.382l-16.778-8.746l-13.579-3.439l-18.621-0.976l-15.469,1.304l-13.075,2.507l-13.636,3.592l-14.978,2.223
					l-15.639,0.271l-12.958-1.541l-8.61-1.921l-7.922-2.272l-11.983-1.072l-11.374-0.971l-13.029,0.973l-13.648,5.225l-13.1,5.969
					L40.369,304.9l-5.517,8.701l-3.75,9.211l-2.907,13.205l-0.143,15.013l1.781,9.909l4.746,13.285l7.361,12.989l7.495,9.816
					l11.099,11.347l11.709,8.855l12.369,7.203l13.008,6.184l14.116,5.189l15.978,4.061l16.486,2.271l14.814,0.444l16.164-1.195
					l15.849-2.855l16.118-4.645l16.078-6.508l13.254-7.071l12.891-9.175l11.42-10.98l8.436-11.124l8.228-16.1l4.657-15.982
					l1.719-13.327L283.792,330.738z M241.337,385.613c-25.667,20.333-75,42.667-155.667,13c0,0-32.333-14.667-34.667-36.667
					c-2.333-22-2-45.333,17.667-53c19.667-7.667,47.333-0.667,65.667-0.667s70-2.333,83.333-4.667
					c13.333-2.333,28.667-2.333,37,17.667C263.003,341.28,267.003,365.28,241.337,385.613z"/>
				<polygon style="fill-rule:evenodd;clip-rule:evenodd;fill:#FFFFFF;" points="73.378,389.737 76.879,384.548 82.054,377.232 
					87.413,370.42 93.614,366.7 100.143,367.316 104.52,369.791 107.383,374.982 114.731,377.091 119.488,382.486 121.561,385.998 
					130.337,383.867 138.945,386.924 145.205,390.749 152.327,384.366 161.964,380.057 170.832,381.965 176.839,385.968 
					179.93,389.686 185.942,384.668 193.207,381.228 201.058,381.007 207.208,375.485 214.154,370.127 218.705,369.912 
					225.681,362.663 232.215,362.606 239.117,366.54 243.729,371.145 250.513,375.874 243.042,384.963 233.62,393.241 
					220.028,401.473 201.667,408.341 186.241,411.606 168.791,413.296 151.69,413.33 139.378,412.585 120.777,409.994 
					106.287,406.384 93.215,401.507 83.259,396.408 73.378,389.737 				"/>
				<path style="fill-rule:evenodd;clip-rule:evenodd;fill:#61F4E5;" d="M75.72,308.592l9.708-2.135l13.596-0.239l13.453,0.791
					l18.734,2.296l15.563,0.754l17.053-0.419l9.22-0.893l17.586-2.388l11.279-1.584l11.846-1.39l11.967,0.488l2.139,6.235
					l1.072,7.578l-1.58,7.312l-3.459,5.58l-6.123,3.31l-10.026-1.079l-4.018,4.789l-8.591,2.073l-7.577-2.349l-5.549-3.152
					l-6.093,5.227c0,0-10.034,1.02-9.098,1.155c0.937,0.134-7.94-3.023-7.94-3.023l-7.186-5.254l-9.306,5.341l-10.608-0.2
					l-7.775-3.755l-3.762-2.901l-6.903,3.733l-6.749,1.024l-5.664-2.081l-2.713-2.43l-5.877,3.324l-7.062-3.92l-5.308-5.381
					l-3.74-8.314L75.72,308.592L75.72,308.592z"/>
				
					<path style="fill:none;stroke:#000000;stroke-width:8.5039;stroke-linecap:round;stroke-linejoin:round;stroke-miterlimit:22.9256;" d="
					M75.72,308.592c0,0-2.343,27.253,20.685,24.553"/>
				
					<path style="fill:none;stroke:#000000;stroke-width:8.5039;stroke-linecap:round;stroke-linejoin:round;stroke-miterlimit:22.9256;" d="
					M91.446,315.413c0,0,4.926,32.021,28.8,15.347"/>
				
					<path style="fill:none;stroke:#000000;stroke-width:8.5039;stroke-linecap:round;stroke-linejoin:round;stroke-miterlimit:22.9256;" d="
					M151.698,332.276c0,0-13.073,14.4-31.452-1.516"/>
				
					<path style="fill:none;stroke:#000000;stroke-width:8.5039;stroke-linecap:round;stroke-linejoin:round;stroke-miterlimit:22.9256;" d="
					M182.014,334.171c0,0-9.852,16.105-30.316-1.895"/>
				
					<path style="fill:none;stroke:#000000;stroke-width:8.5039;stroke-linecap:round;stroke-linejoin:round;stroke-miterlimit:22.9256;" d="
					M211.193,319.203c0,0-0.758,33.536-29.179,14.968"/>
				
					<path style="fill:none;stroke:#000000;stroke-width:8.5039;stroke-linecap:round;stroke-linejoin:round;stroke-miterlimit:22.9256;" d="
					M228.938,305.933c2.654,2.463,1.327,34.609-21.188,26.876"/>
				
					<path style="fill:none;stroke:#000000;stroke-width:8.5039;stroke-linecap:round;stroke-linejoin:round;stroke-miterlimit:22.9256;" d="
					M75.91,385.517c3.092-10.68,13.825-25.234,29.741-13.676"/>
				
					<path style="fill:none;stroke:#000000;stroke-width:8.5039;stroke-linecap:round;stroke-linejoin:round;stroke-miterlimit:22.9256;" d="
					M92.015,390.633c0,0,13.642-29.179,27.473-8.147"/>
				
					<path style="fill:none;stroke:#000000;stroke-width:8.5039;stroke-linecap:round;stroke-linejoin:round;stroke-miterlimit:22.9256;" d="
					M144.498,391.581c0,0-16.484-19.326-31.452,3.032"/>
				
					<path style="fill:none;stroke:#000000;stroke-width:8.5039;stroke-linecap:round;stroke-linejoin:round;stroke-miterlimit:22.9256;" d="
					M179.93,389.686c0,0-14.589-23.115-35.432,1.895"/>
				
					<path style="fill:none;stroke:#000000;stroke-width:8.5039;stroke-linecap:round;stroke-linejoin:round;stroke-miterlimit:22.9256;" d="
					M218.014,396.696c0,0-14.02-30.884-38.084-7.01"/>
				
					<path style="fill:none;stroke:#000000;stroke-width:8.5039;stroke-linecap:round;stroke-linejoin:round;stroke-miterlimit:22.9256;" d="
					M201.058,381.007c7.389-2.653,12.598-25.805,33.819,2.995"/>
				
					<path style="fill:none;stroke:#000000;stroke-width:8.5039;stroke-linecap:round;stroke-linejoin:round;stroke-miterlimit:22.9256;" d="
					M247.951,374.33c0,0-15.497-24.86-30.037-4.556"/>
				
					<path style="fill:none;stroke:#000000;stroke-width:8.5039;stroke-linecap:round;stroke-linejoin:round;stroke-miterlimit:22.9256;" d="
					M117.629,284.293c-20.842,0.189-32.035-7.557-58.06,4.375c-15.568,7.138-28.985,21.251-32.105,48.13"/>
				
					<path style="fill:none;stroke:#000000;stroke-width:8.5039;stroke-linecap:round;stroke-linejoin:round;stroke-miterlimit:22.9256;" d="
					M178.613,286.249c0,0,82.659-27.325,102.744,30.843"/>
				
					<path style="fill:none;stroke:#000000;stroke-width:8.5039;stroke-linecap:round;stroke-linejoin:round;stroke-miterlimit:22.9256;" d="
					M67.298,413.09c0,0-44.336-30.885-39.978-76.737"/>
				
					<path style="fill:none;stroke:#000000;stroke-width:8.5039;stroke-linecap:round;stroke-linejoin:round;stroke-miterlimit:22.9256;" d="
					M238.769,417.068c0,0-81.094,57.031-171.472-3.979"/>
				
					<path style="fill:none;stroke:#000000;stroke-width:8.5039;stroke-linecap:round;stroke-linejoin:round;stroke-miterlimit:22.9256;" d="
					M281.212,316.648c3.218,12.008,9.853,66.316-42.443,100.421"/>
				
					<path style="fill:none;stroke:#000000;stroke-width:8.5039;stroke-linecap:round;stroke-linejoin:round;stroke-miterlimit:22.9256;" d="
					M93.445,306.038c35.93,0.972,26.715,4.044,58.737,4.057c20.125,0.008,39.083-4.47,61.578-6.711"/>
				
					<path style="fill:none;stroke:#000000;stroke-width:8.5039;stroke-linecap:round;stroke-linejoin:round;stroke-miterlimit:22.9256;" d="
					M261.127,354.164c0,0,14.021-52.106-47.368-50.779"/>
				
					<path style="fill:none;stroke:#000000;stroke-width:8.5039;stroke-linecap:round;stroke-linejoin:round;stroke-miterlimit:22.9256;" d="
					M54.982,370.269c-7.404-10.983-15.16-64.338,38.463-64.231"/>
				
					<path style="fill:none;stroke:#000000;stroke-width:8.5039;stroke-linecap:round;stroke-linejoin:round;stroke-miterlimit:22.9256;" d="
					M261.127,354.164c-15.347,47.747-62.145,59.456-101.397,59.315c-40.922-0.146-81.283-9.246-104.748-43.21"/>
			</g>
			
				<path style="fill-rule:evenodd;clip-rule:evenodd;fill:none;stroke:#000000;stroke-width:8.5039;stroke-linecap:round;stroke-linejoin:round;stroke-miterlimit:22.9256;" d="
				M117.629,284.293c0,0,13.457,3.726,30.636,3.726s35.368-3.368,35.368-3.368"/>
		</g>
		<g style="display:inline;">
			<polygon style="fill-rule:evenodd;clip-rule:evenodd;fill:#DF85AD;" points="126.001,288.603 118.145,282.771 114.469,273.997 
				118.18,264.031 127.715,256.102 135.778,251.528 145.727,246.767 153.543,246.342 160.023,248.8 167.466,253.159 
				173.598,257.757 178.598,263.145 183.525,269.855 185.339,275.885 183.803,280.957 178.23,286.186 168.459,288.813 
				154.981,290.658 140.867,291.528 126.001,288.603 			"/>
			
				<path style="fill:none;stroke:#000000;stroke-width:8.5039;stroke-linecap:round;stroke-linejoin:round;stroke-miterlimit:22.9256;" d="
				M165.778,289.248c7.143-0.984,16.289-3.586,18.929-9.989c1.112-2.699,1.217-6.03-3.436-13.352
				c-4.653-7.322-19.231-17.611-27.727-19.565c0,0-3.946-0.802-7.817,0.425c-8.071,2.464-20.362,9.809-26.253,15.803
				c-5.891,5.993-5.615,13.555-4.074,17.567c3.162,8.23,11.217,8.801,18.093,9.537"/>
			
				<path style="fill:none;stroke:#000000;stroke-width:8.5039;stroke-linecap:round;stroke-linejoin:round;stroke-miterlimit:22.9256;" d="
				M135.021,272.085c-0.41,4.935-4.333,9.006-1.954,10.196C135.446,283.471,137.23,276.334,135.021,272.085L135.021,272.085z"/>
			
				<path style="fill:none;stroke:#000000;stroke-width:8.5039;stroke-linecap:round;stroke-linejoin:round;stroke-miterlimit:22.9256;" d="
				M160.951,273.327c5.581,3.244,8.921,10.487,6.084,11.575C164.028,286.054,162.252,279.743,160.951,273.327L160.951,273.327z"/>
			
				<path style="fill:none;stroke:#000000;stroke-width:8.5039;stroke-linecap:round;stroke-linejoin:round;stroke-miterlimit:22.9256;" d="
				M133.492,289.673c0,0,13.861,3.059,32.286-0.425"/>
		</g>
		
			<path style="display:inline;fill:none;stroke:#000000;stroke-width:8.5039;stroke-linecap:round;stroke-linejoin:round;stroke-miterlimit:22.9256;" d="
			M127.749,239.97c0,0,19.368-13.79,42.226-0.96"/>
	</g>
</g>
<g id="n1305">
	<g>
		<g style="display:inline;">
			<g>
				<polygon style="fill-rule:evenodd;clip-rule:evenodd;fill:#4AB57E;" points="187.796,75.985 200.714,76.819 214.571,80.206 
					231.08,88.128 243.42,98.111 254.576,112.455 261.085,125.555 266.286,142.254 268.695,155.745 269.794,171.548 
					268.738,189.996 258.24,175.037 247.102,161.994 234.001,149.72 217.843,137.328 214.67,129.548 209.622,120.991 201.3,105.616 
					193.722,89.975 187.796,75.985 				"/>
				<path style="fill-rule:evenodd;clip-rule:evenodd;fill:#61F4E5;" d="M42.59,161.452l-7.953-18.894l-8.008-16.341l-6.363-17.55
					l-4.291-21.104l-0.316-15.978l2.726-15.324l5.009-12.339l8.886-12.86l12.242-11.264l14.603-7.978l18.028-5.038l17.177-1.97
					l22.558,0.325l16.239,2.184l15.335,4.838l12.075,7.089l9.004,8.712l6.775,10.936l3.832,13.18l3.203,11.455l4.446,12.455
					l4.833,11.409l7.108,15.144l5.725,10.766l6.685,11.966l2.524,4.279l-2.353,4.916l-14.672-5.832l-17.596-4.637l-13.672-2
					l-20.242-1.854l-19.134,0.371l-16.414,1.822l-17.821,3.783l-12.604,4.067l-11.718,11.171l-5,4l-8.708,2.094l-5.292,10.906
					l-6.012,2.831C43.546,161.712,42.799,161.948,42.59,161.452z"/>
				
					<path style="fill:none;stroke:#000000;stroke-width:8.5039;stroke-linecap:round;stroke-linejoin:round;stroke-miterlimit:22.9256;" d="
					M42.944,166.855c0,0-64.276-101.855,4.642-149.257"/>
				
					<path style="fill:none;stroke:#000000;stroke-width:8.5039;stroke-linecap:round;stroke-linejoin:round;stroke-miterlimit:22.9256;" d="
					M179.203,47.687c0,0-5.211-34.123-50.596-41.183"/>
				
					<path style="fill:none;stroke:#000000;stroke-width:8.5039;stroke-linecap:round;stroke-linejoin:round;stroke-miterlimit:22.9256;" d="
					M214.67,129.548c0,0-28.408-45.553-35.468-81.861"/>
				
					<path style="fill:none;stroke:#000000;stroke-width:8.5039;stroke-linecap:round;stroke-linejoin:round;stroke-miterlimit:22.9256;" d="
					M213.662,111.899c0,0,2.858-10.926,10.086-18.826"/>
				
					<path style="fill:none;stroke:#000000;stroke-width:8.5039;stroke-linecap:round;stroke-linejoin:round;stroke-miterlimit:22.9256;" d="
					M187.796,75.985c0,0,49.902-3.42,72.091,46.672"/>
				
					<path style="fill:none;stroke:#000000;stroke-width:8.5039;stroke-linecap:round;stroke-linejoin:round;stroke-miterlimit:22.9256;" d="
					M203.563,130.725c0,0-24.793-40.444-31.857-67.298c-6.524-24.8-10.287-25.866-18.038-35.303"/>
			</g>
			
				<path style="fill:none;stroke:#000000;stroke-width:8.5039;stroke-linecap:round;stroke-linejoin:round;stroke-miterlimit:22.9256;" d="
				M128.273,6.17c0,0-49.419-8.741-81.021,11.094"/>
			
				<path style="fill:none;stroke:#000000;stroke-width:8.5039;stroke-linecap:round;stroke-linejoin:round;stroke-miterlimit:22.9256;" d="
				M268.738,188.996c0,0,5.605-33.721-8.851-67.339"/>
		</g>
		
			<path style="display:inline;fill:none;stroke:#000000;stroke-width:8.5039;stroke-linecap:round;stroke-linejoin:round;stroke-miterlimit:22.9256;" d="
			M42.944,166.855c27.913-50.042,97.168-57.693,145.012-42.833c44.737,13.895,68.746,48.214,78.793,65.244"/>
	</g>
</g>
</svg>
