<svg xmlns="http://www.w3.org/2000/svg" xmlns:xlink="http://www.w3.org/1999/xlink" viewBox="0 0 309.871 575.22"><g id="n1401"><g><path fill-rule="evenodd" clip-rule="evenodd" fill="#e186ae" d="M51.007 506.521l9.619-10.442 10.319-9.308 11.883-6.206 5.255 7.308 8.59 6.476 14.326 5.553 19.113 5.137 17.117 6.876 8.989 6.401 5.614-5.824 7.025-7.398 10.424-9.269 12.503-7.579-3.69-7.803 5.826-8.932 3.963-9.725-8.176-4.317-4.072-12.251-.085-19.965.599-14.805 10.971 1.183 16.016 4.553 14.2 5.895 13.941 8.65 9.171 11.397.677 10.031-3.697 7.888 7.02 7.645 1.18 6.687-1.397 8.088-3.704 8.575 6.345 9.454 7.118 7.37 5.286 7.981-6.87 10.368-10.783 10.736-17.81 12.451-23.593 11.352-18.448 5.944-18.145 3.453-20.713.651-20.308-2.063-22.527-5.938-17.313-8.358-16.488-12.604-11.245-12.493-7.51-10.94-6.516-11.883z"/><path d="M136.844 374.784s18.643-8.554 47.626.094c-.042 2.066-.121 42.972-.121 42.972l-.282 11.535.048 11.249 2.056 10.709s.138 5.123 2.036 6.126l8.175 4.317-1.827 5.005-5.048 9.187-3.756-4.785-9.592 2.809-14.403 1.517-14.586-1.278-11.513-2.867-7.474-2.881-3.38-5.639 5.893-4.935 5.427-10.315 1.894-11.78-.047-12.705-.905-14.83-.221-33.505z" fill-rule="evenodd" clip-rule="evenodd" fill="#4ab57e"/><path fill-rule="evenodd" clip-rule="evenodd" fill="#fff" d="M161.832 512.492l8.961-9.227 10.155-8.45 9.952-8.44-4.327-4.281 4.435-6.117-3.757-4.785-9.592 2.809-14.403 1.518-11.729-1.028-14.37-3.118-7.474-2.881-3.38-5.638-9.187 3.6 3.319 6.853 4.364 5.64 4.162 4.172-2.552 4.934 8.847 4.59 10.084 5.807 7.927 5.692 8.565 8.35z"/><path fill-rule="evenodd" clip-rule="evenodd" fill="#f9d740" d="M81.893 480.023l-5.007 3.645-3.608 1.435-3.471-8.039-2.759-13.283 1.672-15.197 6.795-13.806 12.017-11.969 15.68-7.858 17.536-4.564 17.817-2.1.615 9.72.314 11.463-.416 11.108-2.911 10.995-5.04 7.505-9.417 5.576-4.427 2.144 3.152 6.509 6.446 7.726-1.47 6.501 9.845 5.109 10.963 6.375 9.504 7.228 6.576 5.702-7.179 5.414-7.891-5.447-7.517-3.59-12.313-4.058-11.528-3.055-12.034-4.086-12.706-6.449-5.675-6.458-3.563-4.196z"/><path d="M137.97 382.378c1.265 23.263 6.509 77.648-20.854 84.076m67.354-82.076c-.376 23.802-2.873 72.013 10.073 76.487" fill="none" stroke="#000" stroke-width="8.504" stroke-linecap="round" stroke-linejoin="round" stroke-miterlimit="22.926"/><path d="M138.565 408.287s-32.184 1.069-51.033 14.522c-15.817 11.29-28.794 34.066-14.255 62.294m112.872-74.655c9.746-2.082 96.652 21.745 53.595 57.079m-113.149-44.404s10.349-2.126 12.766-2.109m57.927 5.159s-7.346-2.05-11.645-2.978M88.931 435.76c.851 51.186 45.654 46.973 71.022 74.674m67.177-69.507c-.138 25.5-44.345 46.962-65.298 71.565m39.435-64.952s-3.14 24.381-16.055 35.844m-55.529-14.892s28.153 13.82 57.568 2.7m-40.849 13.393s11.63 2.602 20.44 1.273m-54.626-32.519s2.283 16.871 16.746 29.78m14.111 24.722s-.662 45.189.658 49.124m-92.724-50.444s17.771-21.41 30.886-26.498" fill="none" stroke="#000" stroke-width="8.504" stroke-linecap="round" stroke-linejoin="round" stroke-miterlimit="22.926"/><path d="M80.381 474.026s2.245 12.79 16.292 20.323c17.677 9.48 42.109 8.349 59.545 23.967m19.314.712s66.481-42.13 72.479-43.267m-.809-15.817s16.541 6.598 3.276 31.187m-6.012-5.988s11.268 9.165 24.81 30.702" fill="none" stroke="#000" stroke-width="8.504" stroke-linecap="round" stroke-linejoin="round" stroke-miterlimit="22.926"/><path d="M51.007 506.521c23.232 47.313 60.646 64.082 108.72 64.444 41.735.316 95.334-26.435 109.549-55.121" fill="none" stroke="#000" stroke-width="8.504" stroke-linecap="round" stroke-linejoin="round" stroke-miterlimit="22.926"/><path d="M142.035 552.611a5.67 5.67 0 1 1 .022 11.339 5.67 5.67 0 0 1-.022-11.339z" fill-rule="evenodd" clip-rule="evenodd"/><path d="M183.003 504.576s.594 15.748 4.547 23.803m-4.654 17.259c.362-6.562 7.291-11.264 4.654-17.259" fill="none" stroke="#000" stroke-width="8.504" stroke-linecap="round" stroke-linejoin="round" stroke-miterlimit="22.926"/></g></g><g id="n1402"><g><path fill-rule="evenodd" clip-rule="evenodd" fill="#61f4e5" d="M153.81 388.697L51.477 341.864 35.81 248.697h118z"/><path fill-rule="evenodd" clip-rule="evenodd" fill="#e186ae" d="M253.476 348.031L152.57 388.799v-140h118zM31.986 183.59l1.205 12.475 1.898 16.451 1.12 14.519-.095 9.135-4.739 10.919-1.725 10.327 5.314 2.974-4.258 9.566-2.322 8.43-1.059 6.158-6.961-1.442-6.268-4.835-1.213-7.985 1.315-7.014.057-5.945-3.542-15.657-4.995-23.1-.895-14.036 3.488-14.189 5.148-5.486 10.376-2.65 8.151 1.385z"/><path fill-rule="evenodd" clip-rule="evenodd" fill="#fff" d="M34.964 260.39l4.408-6.639 8.898-8.822 14.568-6.637 11.284-5.005 16.124-1.204 14.589 1.535 11.51.62-5.386-12.854 4.094-10.997 11.62-9.661 15.598-8.271 11.804-1.586-.598 60.162 12.666-.667-.666 6.667 13.333-1.334 7.333-3.333 4-1.333 12-1.334 16-.666 14.667 4.666 18.163-17.59 9.925 5.855 8.889 8.704 4.808 7.362 3.459-3.611-1.278-11.078-4.863-11.993-5.607-6.919 3.842-12.873 3.839-20.863 1.247-21.581-1.336-18.8-4.02-19.015-7.791-20.002-10.959-17.827-13.58-15.104-20.257-14.183-22.01-8.219-22.389-3.345-22.505-.02-19.302 1.741-21.049 4.261L90.293 65.8l-14.791 8.471-14.001 11.927-12.492 16.669-8.342 16.562-5.567 16.866-2.609 13.898-1.045 13.196.427 18.654 1.918 19.222 1.858 18.51.512 11.828-1.406 6.995-3.38 8.491-1.679 9.23z"/><g><defs><path id="o" d="M34.964 259.39l6.513 4.974 9-.5 9.5 2 11.5.5 16.5-5 7.5 6 10-.5 7.333-12.5 5.333-1.333 9.834 7.833h24.5l1.598-70.995 11.44 5.041 14.06 10.576 7.583 10.328 2.993 6.853-3.909 6.95.642 2.854 14.6-2.563 15.284-1.073 18.227 1.423 15.978 4.849 9.925 5.855 8.889 8.704 4.808 7.362 3.459-3.611-1.278-11.078-4.863-11.993-5.607-6.919 3.842-12.873 3.839-20.863 1.247-21.581-1.336-18.8-4.02-19.015-7.791-20.002-10.959-17.827-13.58-15.104-20.257-14.183-22.01-8.219-22.389-3.345-22.505-.02-19.302 1.741-21.049 4.261L90.293 64.8l-14.791 8.471-14.001 11.927-12.492 16.669-8.342 16.562-5.567 16.866-2.609 13.898-1.045 13.196.427 18.654 1.918 19.222 1.858 18.51.512 11.828-1.406 6.995-3.38 8.491-1.679 9.23 5.268 4.071z"/></defs><clipPath id="p"><use xlink:href="#o" overflow="visible"/></clipPath><path clip-path="url(#p)" fill-rule="evenodd" clip-rule="evenodd" fill="#4ab57e" d="M-23.03 1.878h176v317h-176z"/></g><path fill-rule="evenodd" clip-rule="evenodd" fill="#4ab57e" d="M274.269 185.808l8.395-2.707 10.385.66 7.95 5.089 4.271 10.734.232 8.884-2.137 13.559-2.589 9.514-3.093 10.664-2.511 12.241-.543 10.546 1.403 9.116-2.273 7.533-5.56 3.283-7.917.77-.528-9.769-1.891-10.24-1.539-9.463 2.514-5.555-2.524-9.155-4.401-10.166-5.607-6.919 3.842-12.873 1.92-10.431 1.71-9.297.491-6.018z"/><path d="M32.623 265.081s-10.385-51.375 52.151-51.541m133.502-2.625s63.375-6.75 59.625 49.126M54.025 95.04C69.4 74.415 96.02 55.85 147.044 52.779c29.439-1.771 70.646-.748 101.232 37.011m18.03 134.637s29.22-76.138-18.03-134.638M36.114 236.17c2.25-36.375-20.714-84.88 17.911-141.13m220.572 89.84s45.679-16.716 26.179 46.66m-5.625 36.376s-3.375-8.25 5.625-36.375m-20.25 53.624s19.875 3.75 14.625-17.249m-1.301-67.852s-15.949 19.102-3.574 34.477m-9 16.125c4.499-3.875 12.375-9.375 9-16.125M31.986 183.59s-38.993-14.207-23.618 48.23m18.75 54.376c-16.378-6.823-15.7-9.534-12.92-22.928 1.375-6.621-2.925-17.689-5.83-31.447m9.482-34.161c4.688 11.438 9.334 12.406 5.143 27.975m7.766 24.838s-19.7-7.465-7.767-24.839" fill="none" stroke="#000" stroke-width="8.504" stroke-linecap="round" stroke-linejoin="round" stroke-miterlimit="22.926"/><path fill-rule="evenodd" clip-rule="evenodd" fill="none" stroke="#000" stroke-width="8.504" stroke-linecap="round" stroke-linejoin="round" stroke-miterlimit="22.926" d="M150.97 56.878l2.507 173.486"/><path fill-rule="evenodd" clip-rule="evenodd" d="M76.334 154.204l.453-12.162 1.347-11.553 2.378-8.943 4.856-5.425 6.385-.712 5.438 5.231 1.123 6.568-.619 8.342-1.441 7.591-7.528 6.109-6.672 4.867-.613 9.461 6.249 6.104 7.053 6.289 4.378 6.059-.83 4.251-4.728 5.465-10.117 2.873-4.705-4.192-1.499-8.831-.853-18.39-.055-9.002zm124.835 5.8l-.209-12.359.01-12.767.848-11.86 3.769-6.299 9.769-3.991 7.665 3.774 4.268 7.642.693 7.559-.731 10.415-.498 3.272-8.826 4.847-7.35 6.301-3.324 5.727 6.592 6.168 8.333 8.352 5.138 5.355-3.166 8.051-6.571 3.04-10.321-3.216-5.31-7.019-.779-22.992z"/><path d="M194.878 198.828s22.875-9.188 48.938 2.249m-176.813 6.938s20.624-18.187 47.438-9.374m-55.5-90.751S77.157 91.012 84.97 90.378c6.846-.554 21.154 2.613 35 12m54-1s19-12 32-16c6.697-2.061 23-2.5 36.721 16.137M80.503 121.578c1.617-6.212 12.75-10.313 16.688-.938m-19.5 66.563s-4.5-47.25 2.812-65.625m15.751 21.563s3.937-15.75.937-22.501m-16.313 34.313s12.75-9 15.375-11.812m-14.812 20.437s9.937 10.125 15.937 14.437m-16.5-23.062c-1.785 2.356-2.171 4.455.562 8.625m10.876 29.063s11.062-6.938 5.062-14.626m-19.687 9.188s1.313 8.251 7.875 7.501m116.062-70.501c.75-8.625 15.938-19.312 24.75-3m-24.562 60.75s-1.876-49.5-.188-57.75m25.125 21.187s3-16.312-.375-24.187m-19.125 41.062s1.5-8.625 19.5-16.875m.563 36.75s-11.812-12.563-20.062-19.875m5.062 30.938s-9.562-1.124-10.5-11.249m25.5.186s-.75 11.813-11.062 11.062" fill="none" stroke="#000" stroke-width="8.504" stroke-linecap="round" stroke-linejoin="round" stroke-miterlimit="22.926"/><path fill-rule="evenodd" clip-rule="evenodd" fill="#f9d740" d="M31.906 152.639l3.495-1.819 2.448-14.241 3.603-12.892 6.485-16.401 10.547-15.032 10.061-10.581 14.611-10.761 17.896-8.579 21.84-6.024 24.555-2.721 24.651.52 27.464 4.564 17.666 6.112 12.858 6.763 11.089 8.11 4.501-5.211 1.166-11.553-2.226-15.578-6.057-12.337-10.099-12.205-17.62-9.199-16.626-5.708-19.595-3.091-19.13-.269-17.398 2.175-15.601 4.664-12.759 6.516-10.727 8.198-6.873 7.091-6.14-3.377-6.236 4.384-7.025 4.875-9.603 4.768-10.601 7.124-11.331 10.89-7.835 11.072-7.174 16.558-2.715 12.634-.584 16.104 1.839 13.552 3.215 11.376 3.965 9.529zm216.996-65.527l3.979-4.406 10.15 2.512 9.311 5.305 8.202 8.367 6.02 11.641 2.136 11.978-.752 9.703-2.893 8.69-3.511 10.58-5.932.628-1.126-8.474-2.997-14.027-5.453-15.744-6.967-13.355-5.616-8.03-4.551-5.368z"/><path d="M34.158 178.253c-2.25-93 55.944-127.121 128.227-124.702 112.98 3.782 115.338 93.696 114.023 127.328" fill="none" stroke="#000" stroke-width="8.504" stroke-linecap="round" stroke-linejoin="round" stroke-miterlimit="22.926"/><path d="M252.033 82.628c23.334 1.868 41.913 25.508 35.36 52.141-1.427 5.799-4.643 8.338-6.485 20.235M34.68 157.956C11.227 116.262 21.526 60.988 72.73 39.032c4.538-1.946 17.809-9.261 22.754-11.341m-62.639 91.501s10.025-3.177 18.315-16.518m-1.725-17.313s-.614-31.142 23.295-46.329m60.803 3.285c18.191-12.948 21.204 1.57 39.304 7.383M81.854 82.706s6.59-10.162 10.385-16.651M203.47 51.878c-8.625-36.375-75.464-65.021-111.232 14.177" fill="none" stroke="#000" stroke-width="8.504" stroke-linecap="round" stroke-linejoin="round" stroke-miterlimit="22.926"/><path d="M229.158 64.067s-3.108-2.836-2.697-6.702c1.601-15.027-10.031-37.056-41.929-38.111m-1.686-13.687c14.758 2.081 75.215 15.625 63.996 75.664M63.561 78.572C77.811 62.823 84.221-6.06 182.846 5.566" fill="none" stroke="#000" stroke-width="8.504" stroke-linecap="round" stroke-linejoin="round" stroke-miterlimit="22.926"/></g></g><g id="n1403"><g id="n0103"><g><path fill-rule="evenodd" clip-rule="evenodd" fill="#f9d740" d="M138.039 351.858l1.351-11.396 1.681-22.033 3.374-11.19 5.966-6.94 7.316-2.102 7.391 2.541 5.385 3.507 2.896 4.507-3.396 5.595-3.115 2.59.369 7.382.486 16.607-.83 5.222-8.242-2.28-8.676 2.1-6.054 4.052-5.902 1.838z"/><path d="M137.753 353.414c3.41-17.186.187-56.14 21.775-55.214m-6.179 20.662c7.768 1.064 40.224-10.485 6.179-20.662m8.635 48.698s-.696-17.084-1.313-30.798" fill="none" stroke="#000" stroke-width="8.504" stroke-linecap="round" stroke-linejoin="round" stroke-miterlimit="22.926"/></g></g></g><g id="n1404"><g><g><g><path d="M285.766 280.155l-1.914-12.757-6.244-12.478-10.253-11.382-16.778-8.746-13.579-3.439-18.621-.976-15.469 1.304-13.075 2.507-13.636 3.592-14.978 2.223-15.639.271-12.958-1.541-8.61-1.921-7.922-2.272-11.983-1.072-11.374-.971-13.029.973-13.648 5.225-13.1 5.969-10.613 9.652-5.517 8.701-3.75 9.211-2.907 13.205-.143 15.013 1.781 9.909 4.746 13.285 7.361 12.989 7.495 9.816 11.099 11.347 11.709 8.855 12.369 7.203 13.008 6.184 14.116 5.189 15.978 4.061 16.486 2.271 14.814.444 16.164-1.195 15.849-2.855 16.118-4.645 16.078-6.508 13.254-7.071 12.891-9.175 11.42-10.98 8.436-11.124 8.228-16.1 4.657-15.982 1.719-13.327-.036-12.882zm-42.456 54.876c-25.667 20.333-75 42.667-155.667 13 0 0-32.333-14.667-34.667-36.667-2.333-22-2-45.333 17.667-53 19.667-7.667 47.333-.667 65.667-.667s70-2.333 83.333-4.667c13.333-2.333 28.667-2.333 37 17.667 8.334 20 12.334 44-13.333 64.334z" fill-rule="evenodd" clip-rule="evenodd" fill="#67559e"/><path fill-rule="evenodd" clip-rule="evenodd" fill="#fff" d="M75.351 339.155l3.501-5.189 5.176-7.317 5.358-6.812 6.202-3.72 6.529.617 4.376 2.475 2.863 5.191 7.348 2.108 4.757 5.395 2.074 3.512 8.775-2.131 8.609 3.057 6.259 3.825 7.123-6.383 9.636-4.308 8.869 1.907 6.006 4.004 3.091 3.717 6.012-5.018 7.265-3.44 7.851-.221 6.15-5.521 6.946-5.359 4.552-.215 6.976-7.249 6.533-.056 6.902 3.933 4.613 4.606 6.783 4.729-7.47 9.088-9.422 8.279-13.593 8.231-18.361 6.868-15.426 3.266-17.449 1.689-17.102.035-12.312-.745-18.601-2.592-14.49-3.61-13.072-4.877-9.956-5.098-9.881-6.671zm2.343-81.145l9.708-2.135 13.596-.239 13.453.791 18.734 2.296 15.563.754 17.053-.419 9.22-.893 17.586-2.388 11.279-1.584 11.846-1.39 11.967.488 2.139 6.235 1.072 7.578-1.58 7.312-3.459 5.58-6.123 3.31-10.026-1.079-4.018 4.789-8.591 2.073-7.577-2.349-5.549-3.152-6.093 5.227s-10.034 1.02-9.098 1.155c.937.134-7.94-3.023-7.94-3.023l-7.186-5.254-9.306 5.341-10.608-.2-7.775-3.755-3.762-2.901-6.903 3.733-6.749 1.024-5.664-2.081-2.713-2.43-5.877 3.324-7.062-3.92-5.308-5.381-3.74-8.314-.509-8.123z"/><path d="M77.694 258.01s-2.343 27.253 20.685 24.553m-4.959-17.732s4.926 32.021 28.8 15.347m31.451 1.515s-13.073 14.4-31.452-1.516m61.768 3.411s-9.852 16.105-30.316-1.895m59.495-13.073s-.758 33.536-29.179 14.968m46.924-28.238c2.654 2.463 1.327 34.609-21.188 26.876m-131.84 52.709c3.092-10.68 13.825-25.234 29.741-13.676m-13.636 18.792s13.642-29.179 27.473-8.147m25.011 9.094s-16.484-19.326-31.452 3.032m66.883-4.927s-14.589-23.115-35.432 1.895m73.516 5.116s-14.02-30.884-38.084-7.01m21.128-8.68c7.389-2.653 12.598-25.805 33.819 2.995m13.074-9.672s-15.497-24.86-30.037-4.556" fill="none" stroke="#000" stroke-width="8.504" stroke-linecap="round" stroke-linejoin="round" stroke-miterlimit="22.926"/><path d="M119.602 233.71c-20.842.189-32.035-7.557-58.06 4.375-15.568 7.138-28.985 21.251-32.105 48.13m151.149-50.549s82.659-27.325 102.744 30.843M69.271 362.507s-44.336-30.885-39.978-76.737m211.45 80.716s-81.094 57.031-171.472-3.979m213.914-96.442c3.218 12.008 9.853 66.316-42.443 100.421M95.418 255.456c35.93.972 26.715 4.044 58.737 4.057 20.125.008 39.083-4.47 61.578-6.71m47.367 50.778s14.021-52.106-47.368-50.779M56.955 319.686c-7.404-10.983-15.16-64.338 38.463-64.231M263.1 303.581c-15.347 47.747-62.144 59.456-101.397 59.315-40.922-.146-81.283-9.246-104.748-43.21" fill="none" stroke="#000" stroke-width="8.504" stroke-linecap="round" stroke-linejoin="round" stroke-miterlimit="22.926"/></g><path d="M119.602 233.71s13.457 3.726 30.636 3.726 35.368-3.368 35.368-3.368" fill-rule="evenodd" clip-rule="evenodd" fill="none" stroke="#000" stroke-width="8.504" stroke-linecap="round" stroke-linejoin="round" stroke-miterlimit="22.926"/></g><g><path fill-rule="evenodd" clip-rule="evenodd" fill="#f9d740" d="M127.974 238.021l-7.855-5.833-3.677-8.774 3.711-9.966 9.536-7.928 8.062-4.574 9.949-4.762 7.817-.424 6.479 2.457 7.444 4.359 6.131 4.599 5 5.387 4.927 6.711 1.814 6.029-1.536 5.072-5.573 5.23-9.77 2.626-13.479 1.846-14.114.87-14.866-2.925z"/><path d="M167.751 238.666c7.143-.984 16.289-3.586 18.929-9.989 1.112-2.699 1.217-6.03-3.436-13.352-4.652-7.322-19.231-17.611-27.727-19.565 0 0-3.946-.802-7.817.425-8.071 2.464-20.362 9.809-26.253 15.803-5.891 5.993-5.615 13.555-4.074 17.567 3.162 8.23 11.217 8.801 18.093 9.537" fill="none" stroke="#000" stroke-width="8.504" stroke-linecap="round" stroke-linejoin="round" stroke-miterlimit="22.926"/><path d="M136.995 221.503c-.41 4.935-4.334 9.006-1.954 10.196 2.379 1.189 4.163-5.947 1.954-10.196zm25.929 1.241c5.581 3.244 8.921 10.487 6.084 11.575-3.007 1.152-4.783-5.158-6.084-11.575zm-27.459 16.347s13.861 3.059 32.286-.425" fill="none" stroke="#000" stroke-width="8.504" stroke-linecap="round" stroke-linejoin="round" stroke-miterlimit="22.926"/></g><path d="M128.275 183.165s19.368-13.79 42.226-.96" fill="none" stroke="#000" stroke-width="8.504" stroke-linecap="round" stroke-linejoin="round" stroke-miterlimit="22.926"/></g></g></svg>