<svg version="1.1" id="Layer_1" xmlns="http://www.w3.org/2000/svg" xmlns:xlink="http://www.w3.org/1999/xlink" x="0px" y="0px"
	 viewBox="0 0 309.871 575.22" style="enable-background:new 0 0 309.871 575.22;" xml:space="preserve">
<g id="n1501">
	<g>
		<polygon style="fill:#67559E;" points="51.007,506.521 60.626,496.079 70.945,486.771 82.828,480.565 88.083,487.873 
			96.673,494.349 110.999,499.902 130.112,505.039 147.229,511.915 156.218,518.316 161.832,512.492 168.857,505.094 
			179.281,495.825 191.784,488.246 188.094,480.443 193.92,471.511 197.883,461.786 189.707,457.469 185.635,445.218 
			185.55,425.253 186.149,410.448 197.12,411.631 213.136,416.184 227.336,422.079 241.277,430.729 250.448,442.126 
			251.125,452.157 247.428,460.045 254.448,467.69 255.628,474.377 254.231,482.465 250.527,491.04 256.872,500.494 263.99,507.864 
			269.276,515.845 262.406,526.213 251.623,536.949 233.813,549.4 210.22,560.752 191.772,566.696 173.627,570.149 152.914,570.8 
			132.606,568.737 110.079,562.799 92.766,554.441 76.278,541.837 65.033,529.344 57.523,518.404 		"/>
		<path style="fill:#F9D740;" d="M136.844,374.784c0,0,18.643-8.554,47.626,0.094c-0.042,2.066-0.121,42.972-0.121,42.972
			l-0.282,11.535l0.048,11.249l2.056,10.709c0,0,0.138,5.123,2.036,6.126c1.899,1.002,8.175,4.317,8.175,4.317l-1.827,5.005
			l-5.048,9.187l-3.756-4.785l-9.592,2.809l-14.403,1.517l-14.586-1.278l-11.513-2.867l-7.474-2.881l-3.38-5.639l5.893-4.935
			l5.427-10.315l1.894-11.78l-0.047-12.705l-0.905-14.83L136.844,374.784z"/>
		<polygon style="fill:#4AB57E;" points="161.832,512.492 170.793,503.265 180.948,494.815 190.9,486.375 186.573,482.094 
			191.008,475.977 187.251,471.192 177.659,474.001 163.256,475.519 151.527,474.491 137.157,471.373 129.683,468.492 
			126.303,462.854 117.116,466.454 120.435,473.307 124.799,478.947 128.961,483.119 126.409,488.053 135.256,492.643 
			145.34,498.45 153.267,504.142 		"/>
		<polygon style="fill:#67559E;" points="81.893,480.023 76.886,483.668 73.278,485.103 69.807,477.064 67.048,463.781 
			68.72,448.584 75.515,434.778 87.532,422.809 103.212,414.951 120.748,410.387 138.565,408.287 139.18,418.007 139.494,429.47 
			139.078,440.578 136.167,451.573 131.127,459.078 121.71,464.654 117.283,466.798 120.435,473.307 126.881,481.033 
			125.411,487.534 135.256,492.643 146.219,499.018 155.723,506.246 162.299,511.948 155.12,517.362 147.229,511.915 
			139.712,508.325 127.399,504.267 115.871,501.212 103.837,497.126 91.131,490.677 85.456,484.219 		"/>
		
			<path style="fill:none;stroke:#000000;stroke-width:8.5039;stroke-linecap:round;stroke-linejoin:round;stroke-miterlimit:22.9256;" d="
			M137.97,382.378c1.265,23.263,6.509,77.648-20.854,84.076"/>
		
			<path style="fill:none;stroke:#000000;stroke-width:8.5039;stroke-linecap:round;stroke-linejoin:round;stroke-miterlimit:22.9256;" d="
			M184.47,384.378c-0.376,23.802-2.873,72.013,10.073,76.487"/>
		
			<path style="fill:none;stroke:#000000;stroke-width:8.5039;stroke-linecap:round;stroke-linejoin:round;stroke-miterlimit:22.9256;" d="
			M138.565,408.287c0,0-32.184,1.069-51.033,14.522c-15.817,11.29-28.794,34.066-14.255,62.294"/>
		
			<path style="fill:none;stroke:#000000;stroke-width:8.5039;stroke-linecap:round;stroke-linejoin:round;stroke-miterlimit:22.9256;" d="
			M186.149,410.448c9.746-2.082,96.652,21.745,53.595,57.079"/>
		
			<path style="fill:none;stroke:#000000;stroke-width:8.5039;stroke-linecap:round;stroke-linejoin:round;stroke-miterlimit:22.9256;" d="
			M126.595,423.123c0,0,10.349-2.126,12.766-2.109"/>
		
			<path style="fill:none;stroke:#000000;stroke-width:8.5039;stroke-linecap:round;stroke-linejoin:round;stroke-miterlimit:22.9256;" d="
			M197.288,426.173c0,0-7.346-2.05-11.645-2.978"/>
		
			<path style="fill:none;stroke:#000000;stroke-width:8.5039;stroke-linecap:round;stroke-linejoin:round;stroke-miterlimit:22.9256;" d="
			M88.931,435.76c0.851,51.186,45.654,46.973,71.022,74.674"/>
		
			<path style="fill:none;stroke:#000000;stroke-width:8.5039;stroke-linecap:round;stroke-linejoin:round;stroke-miterlimit:22.9256;" d="
			M227.13,440.927c-0.138,25.5-44.345,46.962-65.298,71.565"/>
		
			<path style="fill:none;stroke:#000000;stroke-width:8.5039;stroke-linecap:round;stroke-linejoin:round;stroke-miterlimit:22.9256;" d="
			M201.267,447.54c0,0-3.14,24.381-16.055,35.844"/>
		
			<path style="fill:none;stroke:#000000;stroke-width:8.5039;stroke-linecap:round;stroke-linejoin:round;stroke-miterlimit:22.9256;" d="
			M129.683,468.492c0,0,28.153,13.82,57.568,2.7"/>
		
			<path style="fill:none;stroke:#000000;stroke-width:8.5039;stroke-linecap:round;stroke-linejoin:round;stroke-miterlimit:22.9256;" d="
			M146.402,484.585c0,0,11.63,2.602,20.44,1.273"/>
		
			<path style="fill:none;stroke:#000000;stroke-width:8.5039;stroke-linecap:round;stroke-linejoin:round;stroke-miterlimit:22.9256;" d="
			M112.216,453.339c0,0,2.283,16.871,16.746,29.78"/>
		
			<path style="fill:none;stroke:#000000;stroke-width:8.5039;stroke-linecap:round;stroke-linejoin:round;stroke-miterlimit:22.9256;" d="
			M143.073,507.841c0,0-0.662,45.189,0.658,49.124"/>
		
			<path style="fill:none;stroke:#000000;stroke-width:8.5039;stroke-linecap:round;stroke-linejoin:round;stroke-miterlimit:22.9256;" d="
			M51.007,506.521c0,0,17.771-21.41,30.886-26.498"/>
		
			<path style="fill:none;stroke:#000000;stroke-width:8.5039;stroke-linecap:round;stroke-linejoin:round;stroke-miterlimit:22.9256;" d="
			M80.381,474.026c0,0,2.245,12.79,16.292,20.323c17.677,9.48,42.109,8.349,59.545,23.967"/>
		
			<path style="fill:none;stroke:#000000;stroke-width:8.5039;stroke-linecap:round;stroke-linejoin:round;stroke-miterlimit:22.9256;" d="
			M175.532,519.028c0,0,66.481-42.13,72.479-43.267"/>
		
			<path style="fill:none;stroke:#000000;stroke-width:8.5039;stroke-linecap:round;stroke-linejoin:round;stroke-miterlimit:22.9256;" d="
			M247.202,459.944c0,0,16.541,6.598,3.276,31.187"/>
		
			<path style="fill:none;stroke:#000000;stroke-width:8.5039;stroke-linecap:round;stroke-linejoin:round;stroke-miterlimit:22.9256;" d="
			M244.466,485.143c0,0,11.268,9.165,24.81,30.702"/>
		
			<path style="fill:none;stroke:#000000;stroke-width:8.5039;stroke-linecap:round;stroke-linejoin:round;stroke-miterlimit:22.9256;" d="
			M51.007,506.521c23.232,47.313,60.646,64.082,108.72,64.444c41.735,0.316,95.334-26.435,109.549-55.121"/>
		<path d="M142.035,552.611c3.132-0.006,5.675,2.527,5.681,5.658c0.006,3.132-2.527,5.675-5.659,5.681
			c-3.131,0.006-5.674-2.527-5.68-5.659C136.371,555.16,138.904,552.617,142.035,552.611L142.035,552.611z"/>
		
			<path style="fill:none;stroke:#000000;stroke-width:8.5039;stroke-linecap:round;stroke-linejoin:round;stroke-miterlimit:22.9256;" d="
			M183.003,504.576c0,0,0.594,15.748,4.547,23.803 M182.896,545.638c0.362-6.562,7.291-11.264,4.654-17.259"/>
	</g>
</g>
<g id="n1502">
	<g>
		<g>
			<polygon style="fill:#4AB57E;" points="153.81,388.697 51.477,341.864 35.81,248.697 153.81,248.697 			"/>
			<polygon style="fill:#4AB57E;" points="253.476,348.031 152.57,388.799 152.57,248.799 270.57,248.799 			"/>
			<polygon style="fill:#67559E;" points="31.986,183.59 33.191,196.065 35.089,212.516 36.209,227.035 36.114,236.17 
				31.375,247.089 29.65,257.416 34.964,260.39 30.706,269.956 28.384,278.386 27.325,284.544 20.364,283.102 14.096,278.267 
				12.883,270.282 14.198,263.268 14.255,257.323 10.713,241.666 5.718,218.566 4.823,204.53 8.311,190.341 13.459,184.855 
				23.835,182.205 			"/>
			<polygon style="fill:#FFFFFF;" points="34.964,260.39 39.372,253.751 48.27,244.929 62.838,238.292 74.122,233.287 
				90.246,232.083 104.835,233.618 116.345,234.238 110.959,221.384 115.053,210.387 126.673,200.726 142.271,192.455 
				154.075,190.869 153.477,251.031 166.143,250.364 165.477,257.031 178.81,255.697 186.143,252.364 190.143,251.031 
				202.143,249.697 218.143,249.031 232.81,253.697 250.973,236.107 260.898,241.962 269.787,250.666 274.595,258.028 
				278.054,254.417 276.776,243.339 271.913,231.346 266.306,224.427 270.148,211.554 273.987,190.691 275.234,169.11 
				273.898,150.31 269.878,131.295 262.087,111.293 251.128,93.466 237.548,78.362 217.291,64.179 195.281,55.96 172.892,52.615 
				150.387,52.595 131.085,54.336 110.036,58.597 90.293,65.8 75.502,74.271 61.501,86.198 49.009,102.867 40.667,119.429 
				35.1,136.295 32.491,150.193 31.446,163.389 31.873,182.043 33.791,201.265 35.649,219.775 36.161,231.603 34.755,238.598 
				31.375,247.089 29.696,256.319 			"/>
			<polygon style="fill:#61F4E5;" points="274.269,185.808 282.664,183.101 293.049,183.761 300.999,188.85 305.27,199.584 
				305.502,208.468 303.365,222.027 300.776,231.541 297.683,242.205 295.172,254.446 294.629,264.992 296.032,274.108 
				293.759,281.641 288.199,284.924 280.282,285.694 279.754,275.925 277.863,265.685 276.324,256.222 278.838,250.667 
				276.314,241.512 271.913,231.346 266.306,224.427 270.148,211.554 272.068,201.123 273.778,191.826 			"/>
			<path style="fill:#F9D740;" d="M35,268.56c0,0-3.678-21.914,1.161-36.957S31,194.56,35,161.56s8.09-57.774,33.545-79.887
				s78.499-28.894,78.499-28.894L154,54.56c0,0-1.477,166.196-1,171S35,268.56,35,268.56z"/>
			
				<path style="fill:none;stroke:#000000;stroke-width:8.5039;stroke-linecap:round;stroke-linejoin:round;stroke-miterlimit:22.9256;" d="
				M32.623,265.081c0,0-10.385-51.375,52.151-51.541"/>
			
				<path style="fill:none;stroke:#000000;stroke-width:8.5039;stroke-linecap:round;stroke-linejoin:round;stroke-miterlimit:22.9256;" d="
				M218.276,210.915c0,0,63.375-6.75,59.625,49.126"/>
			
				<path style="fill:none;stroke:#000000;stroke-width:8.5039;stroke-linecap:round;stroke-linejoin:round;stroke-miterlimit:22.9256;" d="
				M54.025,95.04C69.4,74.415,96.02,55.85,147.044,52.779c29.439-1.771,70.646-0.748,101.232,37.011"/>
			
				<path style="fill:none;stroke:#000000;stroke-width:8.5039;stroke-linecap:round;stroke-linejoin:round;stroke-miterlimit:22.9256;" d="
				M266.306,224.427c0,0,29.22-76.138-18.03-134.638"/>
			
				<path style="fill:none;stroke:#000000;stroke-width:8.5039;stroke-linecap:round;stroke-linejoin:round;stroke-miterlimit:22.9256;" d="
				M36.114,236.17c2.25-36.375-20.714-84.88,17.911-141.13"/>
			
				<path style="fill:none;stroke:#000000;stroke-width:8.5039;stroke-linecap:round;stroke-linejoin:round;stroke-miterlimit:22.9256;" d="
				M274.597,184.88c0,0,45.679-16.716,26.179,46.66"/>
			
				<path style="fill:none;stroke:#000000;stroke-width:8.5039;stroke-linecap:round;stroke-linejoin:round;stroke-miterlimit:22.9256;" d="
				M295.151,267.916c0,0-3.375-8.25,5.625-36.375"/>
			
				<path style="fill:none;stroke:#000000;stroke-width:8.5039;stroke-linecap:round;stroke-linejoin:round;stroke-miterlimit:22.9256;" d="
				M280.526,285.165c0,0,19.875,3.75,14.625-17.249"/>
			
				<path style="fill:none;stroke:#000000;stroke-width:8.5039;stroke-linecap:round;stroke-linejoin:round;stroke-miterlimit:22.9256;" d="
				M293.85,200.064c0,0-15.949,19.102-3.574,34.477"/>
			
				<path style="fill:none;stroke:#000000;stroke-width:8.5039;stroke-linecap:round;stroke-linejoin:round;stroke-miterlimit:22.9256;" d="
				M281.276,250.666c4.499-3.875,12.375-9.375,9-16.125"/>
			
				<path style="fill:none;stroke:#000000;stroke-width:8.5039;stroke-linecap:round;stroke-linejoin:round;stroke-miterlimit:22.9256;" d="
				M31.986,183.59c0,0-38.993-14.207-23.618,48.23"/>
			
				<path style="fill:none;stroke:#000000;stroke-width:8.5039;stroke-linecap:round;stroke-linejoin:round;stroke-miterlimit:22.9256;" d="
				M27.118,286.196c-16.378-6.823-15.7-9.534-12.92-22.928c1.375-6.621-2.925-17.689-5.83-31.447"/>
			
				<path style="fill:none;stroke:#000000;stroke-width:8.5039;stroke-linecap:round;stroke-linejoin:round;stroke-miterlimit:22.9256;" d="
				M17.85,197.66c4.688,11.438,9.334,12.406,5.143,27.975"/>
			
				<path style="fill:none;stroke:#000000;stroke-width:8.5039;stroke-linecap:round;stroke-linejoin:round;stroke-miterlimit:22.9256;" d="
				M30.759,250.473c0,0-19.7-7.465-7.767-24.839"/>
			
				<line style="fill:none;stroke:#000000;stroke-width:8.5039;stroke-linecap:round;stroke-linejoin:round;stroke-miterlimit:22.9256;" x1="150.97" y1="56.878" x2="153.477" y2="230.364"/>
			<polygon points="76.334,154.204 76.787,142.042 78.134,130.489 80.512,121.546 85.368,116.121 91.753,115.409 97.191,120.64 
				98.314,127.208 97.695,135.55 96.254,143.141 88.726,149.25 82.054,154.117 81.441,163.578 87.69,169.682 94.743,175.971 
				99.121,182.03 98.291,186.281 93.563,191.746 83.446,194.619 78.741,190.427 77.242,181.596 76.389,163.206 			"/>
			<polygon points="201.169,160.004 200.96,147.645 200.97,134.878 201.818,123.018 205.587,116.719 215.356,112.728 
				223.021,116.502 227.289,124.144 227.982,131.703 227.251,142.118 226.753,145.39 217.927,150.237 210.577,156.538 
				207.253,162.265 213.845,168.433 222.178,176.785 227.316,182.14 224.15,190.191 217.579,193.231 207.258,190.015 
				201.948,182.996 			"/>
			
				<path style="fill:none;stroke:#000000;stroke-width:8.5039;stroke-linecap:round;stroke-linejoin:round;stroke-miterlimit:22.9256;" d="
				M194.878,198.828c0,0,22.875-9.188,48.938,2.249"/>
			
				<path style="fill:none;stroke:#000000;stroke-width:8.5039;stroke-linecap:round;stroke-linejoin:round;stroke-miterlimit:22.9256;" d="
				M67.003,208.015c0,0,20.624-18.187,47.438-9.374"/>
			
				<path style="fill:none;stroke:#000000;stroke-width:8.5039;stroke-linecap:round;stroke-linejoin:round;stroke-miterlimit:22.9256;" d="
				M58.941,107.89c0,0,18.216-16.878,26.029-17.512c6.846-0.554,21.154,2.613,35,12"/>
			
				<path style="fill:none;stroke:#000000;stroke-width:8.5039;stroke-linecap:round;stroke-linejoin:round;stroke-miterlimit:22.9256;" d="
				M173.97,101.378c0,0,19-12,32-16c6.697-2.061,23-2.5,36.721,16.137"/>
			
				<path style="fill:none;stroke:#000000;stroke-width:8.5039;stroke-linecap:round;stroke-linejoin:round;stroke-miterlimit:22.9256;" d="
				M80.503,121.578c1.617-6.212,12.75-10.313,16.688-0.938"/>
			
				<path style="fill:none;stroke:#000000;stroke-width:8.5039;stroke-linecap:round;stroke-linejoin:round;stroke-miterlimit:22.9256;" d="
				M77.691,187.203c0,0-4.5-47.25,2.812-65.625"/>
			
				<path style="fill:none;stroke:#000000;stroke-width:8.5039;stroke-linecap:round;stroke-linejoin:round;stroke-miterlimit:22.9256;" d="
				M96.254,143.141c0,0,3.937-15.75,0.937-22.501"/>
			
				<path style="fill:none;stroke:#000000;stroke-width:8.5039;stroke-linecap:round;stroke-linejoin:round;stroke-miterlimit:22.9256;" d="
				M80.878,154.953c0,0,12.75-9,15.375-11.812"/>
			
				<path style="fill:none;stroke:#000000;stroke-width:8.5039;stroke-linecap:round;stroke-linejoin:round;stroke-miterlimit:22.9256;" d="
				M81.441,163.578c0,0,9.937,10.125,15.937,14.437"/>
			
				<path style="fill:none;stroke:#000000;stroke-width:8.5039;stroke-linecap:round;stroke-linejoin:round;stroke-miterlimit:22.9256;" d="
				M80.878,154.953c-1.785,2.356-2.171,4.455,0.562,8.625"/>
			
				<path style="fill:none;stroke:#000000;stroke-width:8.5039;stroke-linecap:round;stroke-linejoin:round;stroke-miterlimit:22.9256;" d="
				M92.316,192.641c0,0,11.062-6.938,5.062-14.626"/>
			
				<path style="fill:none;stroke:#000000;stroke-width:8.5039;stroke-linecap:round;stroke-linejoin:round;stroke-miterlimit:22.9256;" d="
				M77.691,187.203c0,0,1.313,8.251,7.875,7.501"/>
			
				<path style="fill:none;stroke:#000000;stroke-width:8.5039;stroke-linecap:round;stroke-linejoin:round;stroke-miterlimit:22.9256;" d="
				M201.628,124.203c0.75-8.625,15.938-19.312,24.75-3"/>
			
				<path style="fill:none;stroke:#000000;stroke-width:8.5039;stroke-linecap:round;stroke-linejoin:round;stroke-miterlimit:22.9256;" d="
				M201.816,181.953c0,0-1.876-49.5-0.188-57.75"/>
			
				<path style="fill:none;stroke:#000000;stroke-width:8.5039;stroke-linecap:round;stroke-linejoin:round;stroke-miterlimit:22.9256;" d="
				M226.753,145.39c0,0,3-16.312-0.375-24.187"/>
			
				<path style="fill:none;stroke:#000000;stroke-width:8.5039;stroke-linecap:round;stroke-linejoin:round;stroke-miterlimit:22.9256;" d="
				M207.253,162.265c0,0,1.5-8.625,19.5-16.875"/>
			
				<path style="fill:none;stroke:#000000;stroke-width:8.5039;stroke-linecap:round;stroke-linejoin:round;stroke-miterlimit:22.9256;" d="
				M227.316,182.14c0,0-11.812-12.563-20.062-19.875"/>
			
				<path style="fill:none;stroke:#000000;stroke-width:8.5039;stroke-linecap:round;stroke-linejoin:round;stroke-miterlimit:22.9256;" d="
				M212.316,193.203c0,0-9.562-1.124-10.5-11.249"/>
			
				<path style="fill:none;stroke:#000000;stroke-width:8.5039;stroke-linecap:round;stroke-linejoin:round;stroke-miterlimit:22.9256;" d="
				M227.316,182.14c0,0-0.75,11.813-11.062,11.062"/>
			<polygon style="fill:#4AB57E;" points="31.906,152.639 35.401,150.82 37.849,136.579 41.452,123.687 47.937,107.286 
				58.484,92.254 68.545,81.673 83.156,70.912 101.052,62.333 122.892,56.309 147.447,53.588 172.098,54.108 199.562,58.672 
				217.228,64.784 230.086,71.547 241.175,79.657 245.676,74.446 246.842,62.893 244.616,47.315 238.559,34.978 228.46,22.773 
				210.84,13.574 194.214,7.866 174.619,4.775 155.489,4.506 138.091,6.681 122.49,11.345 109.731,17.861 99.004,26.059 
				92.131,33.15 85.991,29.773 79.755,34.157 72.73,39.032 63.127,43.8 52.526,50.924 41.195,61.814 33.36,72.886 26.186,89.444 
				23.471,102.078 22.887,118.182 24.726,131.734 27.941,143.11 			"/>
			<polygon style="fill:#4AB57E;" points="248.902,87.112 252.881,82.706 263.031,85.218 272.342,90.523 280.544,98.89 
				286.564,110.531 288.7,122.509 287.948,132.212 285.055,140.902 281.544,151.482 275.612,152.11 274.486,143.636 
				271.489,129.609 266.036,113.865 259.069,100.51 253.453,92.48 			"/>
			
				<path style="fill:none;stroke:#000000;stroke-width:8.5039;stroke-linecap:round;stroke-linejoin:round;stroke-miterlimit:22.9256;" d="
				M34.158,178.253c-2.25-93,55.944-127.121,128.227-124.702c112.98,3.782,115.338,93.696,114.023,127.328"/>
			
				<path style="fill:none;stroke:#000000;stroke-width:8.5039;stroke-linecap:round;stroke-linejoin:round;stroke-miterlimit:22.9256;" d="
				M252.033,82.628c23.334,1.868,41.913,25.508,35.36,52.141c-1.427,5.799-4.643,8.338-6.485,20.235"/>
			
				<path style="fill:none;stroke:#000000;stroke-width:8.5039;stroke-linecap:round;stroke-linejoin:round;stroke-miterlimit:22.9256;" d="
				M34.68,157.956C11.227,116.262,21.526,60.988,72.73,39.032c4.538-1.946,17.809-9.261,22.754-11.341"/>
			
				<path style="fill:none;stroke:#000000;stroke-width:8.5039;stroke-linecap:round;stroke-linejoin:round;stroke-miterlimit:22.9256;" d="
				M32.845,119.192c0,0,10.025-3.177,18.315-16.518"/>
			
				<path style="fill:none;stroke:#000000;stroke-width:8.5039;stroke-linecap:round;stroke-linejoin:round;stroke-miterlimit:22.9256;" d="
				M49.435,85.361c0,0-0.614-31.142,23.295-46.329"/>
			
				<path style="fill:none;stroke:#000000;stroke-width:8.5039;stroke-linecap:round;stroke-linejoin:round;stroke-miterlimit:22.9256;" d="
				M133.533,42.317c18.191-12.948,21.204,1.57,39.304,7.383"/>
			
				<path style="fill:none;stroke:#000000;stroke-width:8.5039;stroke-linecap:round;stroke-linejoin:round;stroke-miterlimit:22.9256;" d="
				M81.854,82.706c0,0,6.59-10.162,10.385-16.651"/>
			
				<path style="fill:none;stroke:#000000;stroke-width:8.5039;stroke-linecap:round;stroke-linejoin:round;stroke-miterlimit:22.9256;" d="
				M203.47,51.878c-8.625-36.375-75.464-65.021-111.232,14.177"/>
			
				<path style="fill:none;stroke:#000000;stroke-width:8.5039;stroke-linecap:round;stroke-linejoin:round;stroke-miterlimit:22.9256;" d="
				M229.158,64.067c0,0-3.108-2.836-2.697-6.702c1.601-15.027-10.031-37.056-41.929-38.111"/>
			
				<path style="fill:none;stroke:#000000;stroke-width:8.5039;stroke-linecap:round;stroke-linejoin:round;stroke-miterlimit:22.9256;" d="
				M182.846,5.567c14.758,2.081,75.215,15.625,63.996,75.664"/>
			
				<path style="fill:none;stroke:#000000;stroke-width:8.5039;stroke-linecap:round;stroke-linejoin:round;stroke-miterlimit:22.9256;" d="
				M63.561,78.572C77.811,62.823,84.221-6.06,182.846,5.566"/>
		</g>
		<g>
			<g>
				<circle cx="172.611" cy="150.031" r="3.75"/>
			</g>
			<g>
				<circle cx="128.613" cy="149.781" r="3.75"/>
			</g>
			<g>
				<circle cx="120.696" cy="128.699" r="3.75"/>
				<circle cx="183.363" cy="129.365" r="3.75"/>
			</g>
		</g>
	</g>
</g>
<g id="n1503">
	<polygon style="fill:#E186AE;" points="138.039,351.858 139.39,340.462 141.071,318.429 144.445,307.239 150.411,300.299 
		157.727,298.197 165.118,300.738 170.503,304.245 173.399,308.752 170.003,314.347 166.888,316.937 167.257,324.319 
		167.743,340.926 166.913,346.148 158.671,343.868 149.995,345.968 143.941,350.02 	"/>
	
		<path style="fill:none;stroke:#000000;stroke-width:8.5039;stroke-linecap:round;stroke-linejoin:round;stroke-miterlimit:22.9256;" d="
		M137.753,353.414c3.41-17.186,0.187-56.14,21.775-55.214"/>
	
		<path style="fill:none;stroke:#000000;stroke-width:8.5039;stroke-linecap:round;stroke-linejoin:round;stroke-miterlimit:22.9256;" d="
		M153.349,318.862c7.768,1.064,40.224-10.485,6.179-20.662"/>
	
		<path style="fill:none;stroke:#000000;stroke-width:8.5039;stroke-linecap:round;stroke-linejoin:round;stroke-miterlimit:22.9256;" d="
		M168.163,346.898c0,0-0.696-17.084-1.313-30.798"/>
</g>
<g id="n1504">
	<g>
		<g>
			<g>
				<path style="fill:#E186AE;" d="M285.766,280.155l-1.914-12.757l-6.244-12.478l-10.253-11.382l-16.778-8.746l-13.579-3.439
					l-18.621-0.976l-15.469,1.304l-13.075,2.507l-13.636,3.592l-14.978,2.223l-15.639,0.271l-12.958-1.541l-8.61-1.921l-7.922-2.272
					l-11.983-1.072l-11.374-0.971l-13.029,0.973l-13.648,5.225l-13.1,5.969l-10.613,9.652l-5.517,8.701l-3.75,9.211l-2.907,13.205
					l-0.143,15.013l1.781,9.909l4.746,13.285l7.361,12.989l7.495,9.816l11.099,11.347l11.709,8.855l12.369,7.203l13.008,6.184
					l14.116,5.189l15.978,4.061l16.486,2.271l14.814,0.444l16.164-1.195l15.849-2.855l16.118-4.645l16.078-6.508l13.254-7.071
					l12.891-9.175l11.42-10.98l8.436-11.124l8.228-16.1l4.657-15.982l1.719-13.327L285.766,280.155z M243.31,335.031
					c-25.667,20.333-75,42.667-155.667,13c0,0-32.333-14.667-34.667-36.667c-2.333-22-2-45.333,17.667-53s47.333-0.667,65.667-0.667
					s70-2.333,83.333-4.667c13.333-2.333,28.667-2.333,37,17.667C264.977,290.697,268.977,314.697,243.31,335.031z"/>
				<polygon style="fill:#FFFFFF;" points="75.351,339.155 78.852,333.966 84.028,326.649 89.386,319.837 95.588,316.117 
					102.117,316.734 106.493,319.209 109.356,324.4 116.704,326.508 121.461,331.903 123.535,335.415 132.31,333.284 
					140.919,336.341 147.178,340.166 154.301,333.783 163.937,329.475 172.806,331.382 178.812,335.386 181.903,339.103 
					187.915,334.085 195.18,330.645 203.031,330.424 209.181,324.903 216.127,319.544 220.679,319.329 227.655,312.08 
					234.188,312.024 241.09,315.957 245.703,320.563 252.486,325.292 245.016,334.38 235.594,342.659 222.001,350.89 
					203.64,357.758 188.214,361.024 170.765,362.713 153.663,362.748 141.351,362.003 122.75,359.411 108.26,355.801 
					95.188,350.924 85.232,345.826 				"/>
				<path style="fill:#FFFFFF;" d="M77.694,258.01l9.708-2.135l13.596-0.239l13.453,0.791l18.734,2.296l15.563,0.754l17.053-0.419
					l9.22-0.893l17.586-2.388l11.279-1.584l11.846-1.39l11.967,0.488l2.139,6.235l1.072,7.578l-1.58,7.312l-3.459,5.58l-6.123,3.31
					l-10.026-1.079l-4.018,4.789l-8.591,2.073l-7.577-2.349l-5.549-3.152l-6.093,5.227c0,0-10.034,1.02-9.098,1.155
					c0.937,0.134-7.94-3.023-7.94-3.023l-7.186-5.254l-9.306,5.341l-10.608-0.2l-7.775-3.755l-3.762-2.901l-6.903,3.733
					l-6.749,1.024l-5.664-2.081l-2.713-2.43l-5.877,3.324l-7.062-3.92l-5.308-5.381l-3.74-8.314L77.694,258.01L77.694,258.01z"/>
				
					<path style="fill:none;stroke:#000000;stroke-width:8.5039;stroke-linecap:round;stroke-linejoin:round;stroke-miterlimit:22.9256;" d="
					M77.694,258.01c0,0-2.343,27.253,20.685,24.553"/>
				
					<path style="fill:none;stroke:#000000;stroke-width:8.5039;stroke-linecap:round;stroke-linejoin:round;stroke-miterlimit:22.9256;" d="
					M93.42,264.831c0,0,4.926,32.021,28.8,15.347"/>
				
					<path style="fill:none;stroke:#000000;stroke-width:8.5039;stroke-linecap:round;stroke-linejoin:round;stroke-miterlimit:22.9256;" d="
					M153.671,281.693c0,0-13.073,14.4-31.452-1.516"/>
				
					<path style="fill:none;stroke:#000000;stroke-width:8.5039;stroke-linecap:round;stroke-linejoin:round;stroke-miterlimit:22.9256;" d="
					M183.987,283.588c0,0-9.852,16.105-30.316-1.895"/>
				
					<path style="fill:none;stroke:#000000;stroke-width:8.5039;stroke-linecap:round;stroke-linejoin:round;stroke-miterlimit:22.9256;" d="
					M213.166,268.62c0,0-0.758,33.536-29.179,14.968"/>
				
					<path style="fill:none;stroke:#000000;stroke-width:8.5039;stroke-linecap:round;stroke-linejoin:round;stroke-miterlimit:22.9256;" d="
					M230.911,255.35c2.654,2.463,1.327,34.609-21.188,26.876"/>
				
					<path style="fill:none;stroke:#000000;stroke-width:8.5039;stroke-linecap:round;stroke-linejoin:round;stroke-miterlimit:22.9256;" d="
					M77.883,334.935c3.092-10.68,13.825-25.234,29.741-13.676"/>
				
					<path style="fill:none;stroke:#000000;stroke-width:8.5039;stroke-linecap:round;stroke-linejoin:round;stroke-miterlimit:22.9256;" d="
					M93.988,340.051c0,0,13.642-29.179,27.473-8.147"/>
				
					<path style="fill:none;stroke:#000000;stroke-width:8.5039;stroke-linecap:round;stroke-linejoin:round;stroke-miterlimit:22.9256;" d="
					M146.472,340.998c0,0-16.484-19.326-31.452,3.032"/>
				
					<path style="fill:none;stroke:#000000;stroke-width:8.5039;stroke-linecap:round;stroke-linejoin:round;stroke-miterlimit:22.9256;" d="
					M181.903,339.103c0,0-14.589-23.115-35.432,1.895"/>
				
					<path style="fill:none;stroke:#000000;stroke-width:8.5039;stroke-linecap:round;stroke-linejoin:round;stroke-miterlimit:22.9256;" d="
					M219.987,346.114c0,0-14.02-30.884-38.084-7.01"/>
				
					<path style="fill:none;stroke:#000000;stroke-width:8.5039;stroke-linecap:round;stroke-linejoin:round;stroke-miterlimit:22.9256;" d="
					M203.031,330.424c7.389-2.653,12.598-25.805,33.819,2.995"/>
				
					<path style="fill:none;stroke:#000000;stroke-width:8.5039;stroke-linecap:round;stroke-linejoin:round;stroke-miterlimit:22.9256;" d="
					M249.924,323.747c0,0-15.497-24.86-30.037-4.556"/>
				
					<path style="fill:none;stroke:#000000;stroke-width:8.5039;stroke-linecap:round;stroke-linejoin:round;stroke-miterlimit:22.9256;" d="
					M119.602,233.71c-20.842,0.189-32.035-7.557-58.06,4.375c-15.568,7.138-28.985,21.251-32.105,48.13"/>
				
					<path style="fill:none;stroke:#000000;stroke-width:8.5039;stroke-linecap:round;stroke-linejoin:round;stroke-miterlimit:22.9256;" d="
					M180.586,235.666c0,0,82.659-27.325,102.744,30.843"/>
				
					<path style="fill:none;stroke:#000000;stroke-width:8.5039;stroke-linecap:round;stroke-linejoin:round;stroke-miterlimit:22.9256;" d="
					M69.271,362.507c0,0-44.336-30.885-39.978-76.737"/>
				
					<path style="fill:none;stroke:#000000;stroke-width:8.5039;stroke-linecap:round;stroke-linejoin:round;stroke-miterlimit:22.9256;" d="
					M240.743,366.486c0,0-81.094,57.031-171.472-3.979"/>
				
					<path style="fill:none;stroke:#000000;stroke-width:8.5039;stroke-linecap:round;stroke-linejoin:round;stroke-miterlimit:22.9256;" d="
					M283.185,266.065c3.218,12.008,9.853,66.316-42.443,100.421"/>
				
					<path style="fill:none;stroke:#000000;stroke-width:8.5039;stroke-linecap:round;stroke-linejoin:round;stroke-miterlimit:22.9256;" d="
					M95.418,255.456c35.93,0.972,26.715,4.044,58.737,4.057c20.125,0.008,39.083-4.47,61.578-6.71"/>
				
					<path style="fill:none;stroke:#000000;stroke-width:8.5039;stroke-linecap:round;stroke-linejoin:round;stroke-miterlimit:22.9256;" d="
					M263.1,303.581c0,0,14.021-52.106-47.368-50.779"/>
				
					<path style="fill:none;stroke:#000000;stroke-width:8.5039;stroke-linecap:round;stroke-linejoin:round;stroke-miterlimit:22.9256;" d="
					M56.955,319.686c-7.404-10.983-15.16-64.338,38.463-64.231"/>
				
					<path style="fill:none;stroke:#000000;stroke-width:8.5039;stroke-linecap:round;stroke-linejoin:round;stroke-miterlimit:22.9256;" d="
					M263.1,303.581c-15.347,47.747-62.144,59.456-101.397,59.315c-40.922-0.146-81.283-9.246-104.748-43.21"/>
			</g>
			
				<path style="fill:none;stroke:#000000;stroke-width:8.5039;stroke-linecap:round;stroke-linejoin:round;stroke-miterlimit:22.9256;" d="
				M119.602,233.71c0,0,13.457,3.726,30.636,3.726s35.368-3.368,35.368-3.368"/>
		</g>
		<g>
			<polygon style="fill:#E186AE;" points="127.974,238.021 120.119,232.188 116.442,223.414 120.153,213.448 129.689,205.52 
				137.751,200.946 147.7,196.184 155.517,195.76 161.996,198.217 169.44,202.576 175.571,207.175 180.571,212.562 185.498,219.273 
				187.312,225.302 185.776,230.374 180.203,235.604 170.433,238.23 156.954,240.076 142.84,240.946 			"/>
			
				<path style="fill:none;stroke:#000000;stroke-width:8.5039;stroke-linecap:round;stroke-linejoin:round;stroke-miterlimit:22.9256;" d="
				M167.751,238.666c7.143-0.984,16.289-3.586,18.929-9.989c1.112-2.699,1.217-6.03-3.436-13.352
				c-4.652-7.322-19.231-17.611-27.727-19.565c0,0-3.946-0.802-7.817,0.425c-8.071,2.464-20.362,9.809-26.253,15.803
				c-5.891,5.993-5.615,13.555-4.074,17.567c3.162,8.23,11.217,8.801,18.093,9.537"/>
			
				<path style="fill:none;stroke:#000000;stroke-width:8.5039;stroke-linecap:round;stroke-linejoin:round;stroke-miterlimit:22.9256;" d="
				M136.995,221.503c-0.41,4.935-4.334,9.006-1.954,10.196C137.42,232.888,139.204,225.752,136.995,221.503L136.995,221.503z"/>
			
				<path style="fill:none;stroke:#000000;stroke-width:8.5039;stroke-linecap:round;stroke-linejoin:round;stroke-miterlimit:22.9256;" d="
				M162.924,222.744c5.581,3.244,8.921,10.487,6.084,11.575C166.001,235.471,164.225,229.161,162.924,222.744L162.924,222.744z"/>
			
				<path style="fill:none;stroke:#000000;stroke-width:8.5039;stroke-linecap:round;stroke-linejoin:round;stroke-miterlimit:22.9256;" d="
				M135.465,239.091c0,0,13.861,3.059,32.286-0.425"/>
		</g>
		
			<path style="fill:none;stroke:#000000;stroke-width:8.5039;stroke-linecap:round;stroke-linejoin:round;stroke-miterlimit:22.9256;" d="
			M128.275,183.165c0,0,19.368-13.79,42.226-0.96"/>
	</g>
</g>
</svg>
