<svg version="1.1" xmlns="http://www.w3.org/2000/svg" xmlns:xlink="http://www.w3.org/1999/xlink" x="0px" y="0px"
	 viewBox="0 0 370 612" style="enable-background:new 0 0 370 612;" xml:space="preserve">
<g id="n1601">
	<g>
		<g>
			<polygon style="fill-rule:evenodd;clip-rule:evenodd;fill:#67559E;" points="69.056,548.679 75.826,531.949 87.412,512.568 
				100.45,496.495 112.621,484.409 130.789,469.701 145.951,459.747 156.438,453.648 168.734,464.385 179.429,470.144 
				194.169,475.219 208.937,477.21 225.186,475.499 239.473,469.933 251.25,461.691 261.821,450.269 274.203,456.422 
				289.682,462.546 306.596,469.994 316.146,476.393 328.044,488.082 339.701,503.463 347.203,516.177 353.622,529.234 
				356.307,535.367 349.458,545.156 338.75,557.917 324.937,570.958 307.024,583.697 284.754,594.742 264.681,601.241 
				235.206,606.143 202.65,606.3 177.552,603.116 142.603,594.042 117.045,583.623 96.503,572.199 80.8,560.592 69.056,548.679 			
				"/>
			<path style="fill-rule:evenodd;clip-rule:evenodd;fill:#FFFFFF;" d="M183.245,372.116c0,0,25.965-12.377,56.812,0
				c-0.134,17.25-0.134,17.25-0.134,17.25l0.302,33.608l1.436,12.48l3.725,9.877l6.979,5.256l7.155,2.761l-8.27,8.345l-11.777,8.242
				l-14.287,5.565l-16.249,1.711l-14.768-1.99l-17.454-6.536l-12.188-7.972l-5.764-5.033l12.631-7.364l7.059-7.901l2.794-12.347
				l1.514-40.574L183.245,372.116L183.245,372.116z"/>
		</g>
		
			<path style="fill:none;stroke:#000000;stroke-width:8.5039;stroke-linecap:round;stroke-linejoin:round;stroke-miterlimit:22.9256;" d="
			M151.557,456.617c0,0-63.188,31.875-82.501,92.062"/>
		
			<path style="fill:none;stroke:#000000;stroke-width:8.5039;stroke-linecap:round;stroke-linejoin:round;stroke-miterlimit:22.9256;" d="
			M156.057,452.867c3.562,9.375,62.437,50.438,104.812-1.125"/>
		
			<path style="fill:none;stroke:#000000;stroke-width:8.5039;stroke-linecap:round;stroke-linejoin:round;stroke-miterlimit:22.9256;" d="
			M161.494,446.304c0,0-9.187,5.812-9.562,8.062"/>
		
			<path style="fill:none;stroke:#000000;stroke-width:8.5039;stroke-linecap:round;stroke-linejoin:round;stroke-miterlimit:22.9256;" d="
			M257.119,447.242c18.375,12.938,43.958,16.295,59.027,29.151c15.301,13.055,28.132,30.56,40.161,58.974"/>
		
			<path style="fill:none;stroke:#000000;stroke-width:8.5039;stroke-linecap:round;stroke-linejoin:round;stroke-miterlimit:22.9256;" d="
			M183.245,372.116c-0.658,23.798-1.236,67.433-7.786,72.932c-5.754,4.831-8.096,6.297-17.255,10.913"/>
		
			<path style="fill:none;stroke:#000000;stroke-width:8.5039;stroke-linecap:round;stroke-linejoin:round;stroke-miterlimit:22.9256;" d="
			M240.057,372.116c-0.041,18.564-0.995,54.72,2.823,68.67c1.844,6.737,10.689,10.998,16.64,12.561"/>
		
			<path style="fill:none;stroke:#000000;stroke-width:8.5039;stroke-linecap:round;stroke-linejoin:round;stroke-miterlimit:22.9256;" d="
			M69.056,548.679c43.592,53.778,211.224,103.881,287.251-13.312"/>
		<g>
			<polygon style="fill-rule:evenodd;clip-rule:evenodd;fill:#F9D740;" points="175.553,572.467 187.763,563.984 205.049,555.016 
				221.564,549.142 241.337,545.48 256.741,545.279 249.896,551.552 239.708,558.81 225.674,565.808 210.165,570.548 193.97,572.86 
				175.553,572.467 			"/>
			
				<path style="fill:none;stroke:#000000;stroke-width:8.5039;stroke-linecap:round;stroke-linejoin:round;stroke-miterlimit:22.9256;" d="
				M216.147,505.175c4.5-4.5,11.716-4.567,9.885,1C224.825,509.844,216.522,508.175,216.147,505.175"/>
			
				<path style="fill:none;stroke:#000000;stroke-width:8.5039;stroke-linecap:round;stroke-linejoin:round;stroke-miterlimit:22.9256;" d="
				M232.985,522.264c0,0-10.953,6.576-28.182-10.36"/>
			
				<path style="fill:none;stroke:#000000;stroke-width:8.5039;stroke-linecap:round;stroke-linejoin:round;stroke-miterlimit:22.9256;" d="
				M204.803,511.904c-16.438,29.604,5.344,24.479,11.344,31.604s1.031,13.688,1.219,15.562"/>
			
				<path style="fill:none;stroke:#000000;stroke-width:8.5039;stroke-linecap:round;stroke-linejoin:round;stroke-miterlimit:22.9256;" d="
				M216.147,532.174c11.625,7.312,25.302,7.855,18.552,19.667"/>
			
				<path style="fill:none;stroke:#000000;stroke-width:8.5039;stroke-linecap:round;stroke-linejoin:round;stroke-miterlimit:22.9256;" d="
				M175.553,572.467c0,0,35.811-30.188,81.188-27.188"/>
			
				<path style="fill:none;stroke:#000000;stroke-width:8.5039;stroke-linecap:round;stroke-linejoin:round;stroke-miterlimit:22.9256;" d="
				M175.553,572.467c0,0,47.249,7.313,81.188-27.188"/>
		</g>
	</g>
</g>
<g id="n1602">
	<g>
		<polygon style="fill-rule:evenodd;clip-rule:evenodd;fill:#4AB57E;" points="215.866,403.333 113.533,356.5 97.866,263.333 
			215.866,263.333 		"/>
		<polygon style="fill-rule:evenodd;clip-rule:evenodd;fill:#67559E;" points="315.532,362.667 214.626,403.435 214.626,263.435 
			332.626,263.435 		"/>
		<path style="fill-rule:evenodd;clip-rule:evenodd;fill:#E186AE;" d="M213.529,259.735c-1.016-1.525-0.508-133.668-0.508-133.668
			s3.558-11.181,5.591-11.69c2.033-0.508,60.989-15.756,60.989-15.756l19.313-13.214l5.591,17.28l10.325,30.501l20.569,26.551
			l-4.5,53.625l-8.606,43.829L213.529,259.735z"/>
		<path style="fill-rule:evenodd;clip-rule:evenodd;fill:#FFFFFF;" d="M97.866,263.333l115.663-3.599l-2.033-145.866
			c0,0-46.25-12.706-63.022-7.115c-16.772,5.591-50.316,25.412-50.316,25.412s-11.181,26.937-8.64,52.349
			S97.866,263.333,97.866,263.333z"/>
		<polygon style="fill-rule:evenodd;clip-rule:evenodd;fill:#4AB57E;" points="91.226,196.383 92.431,208.857 94.329,225.308 
			95.449,239.827 95.354,248.963 90.615,259.882 88.89,270.208 94.204,273.182 89.946,282.748 87.625,291.179 86.565,297.336 
			79.605,295.894 73.337,291.059 72.123,283.074 73.438,276.06 73.495,270.115 69.953,254.458 64.959,231.358 64.063,217.322 
			67.551,203.134 72.699,197.647 83.075,194.997 91.226,196.383 		"/>
		
			<path style="fill-rule:evenodd;clip-rule:evenodd;fill:none;stroke:#000000;stroke-width:8.5039;stroke-linecap:round;stroke-linejoin:round;stroke-miterlimit:22.9256;" d="
			M215.439,42.544c0.201-2.583,1.278-2.487-2.692,75.052c-1.035,20.209-0.847,93.966-0.847,93.966"/>
		<polygon style="fill-rule:evenodd;clip-rule:evenodd;fill:#61F4E5;" points="333.509,198.6 341.904,195.893 352.289,196.554 
			360.24,201.642 364.51,212.376 364.742,221.261 362.606,234.819 360.016,244.333 356.923,254.997 354.412,267.238 
			353.869,277.784 355.273,286.9 352.999,294.433 347.44,297.717 339.523,298.486 338.994,288.718 337.104,278.477 335.565,269.014 
			338.078,263.459 335.554,254.304 331.154,244.138 325.546,237.22 329.388,224.346 331.308,213.915 333.018,204.618 333.509,198.6 
					"/>
		
			<path style="fill:none;stroke:#000000;stroke-width:8.5039;stroke-linecap:round;stroke-linejoin:round;stroke-miterlimit:22.9256;" d="
			M91.863,277.873c0,0-10.385-51.375,52.151-51.541"/>
		
			<path style="fill:none;stroke:#000000;stroke-width:8.5039;stroke-linecap:round;stroke-linejoin:round;stroke-miterlimit:22.9256;" d="
			M277.516,223.707c0,0,63.375-6.75,59.625,49.126"/>
		
			<path style="fill:none;stroke:#000000;stroke-width:8.5039;stroke-linecap:round;stroke-linejoin:round;stroke-miterlimit:22.9256;" d="
			M113.265,107.832c15.374-20.625,41.995-39.189,93.019-42.261c29.439-1.771,70.646-0.748,101.232,37.011"/>
		
			<path style="fill:none;stroke:#000000;stroke-width:8.5039;stroke-linecap:round;stroke-linejoin:round;stroke-miterlimit:22.9256;" d="
			M325.546,237.22c0,0,29.22-76.138-18.03-134.638"/>
		
			<path style="fill:none;stroke:#000000;stroke-width:8.5039;stroke-linecap:round;stroke-linejoin:round;stroke-miterlimit:22.9256;" d="
			M95.354,248.963c2.25-36.376-20.714-84.881,17.911-141.131"/>
		
			<path style="fill:none;stroke:#000000;stroke-width:8.5039;stroke-linecap:round;stroke-linejoin:round;stroke-miterlimit:22.9256;" d="
			M333.837,197.673c0,0,45.679-16.716,26.179,46.66"/>
		
			<path style="fill:none;stroke:#000000;stroke-width:8.5039;stroke-linecap:round;stroke-linejoin:round;stroke-miterlimit:22.9256;" d="
			M354.391,280.708c0,0-3.375-8.25,5.625-36.375"/>
		
			<path style="fill:none;stroke:#000000;stroke-width:8.5039;stroke-linecap:round;stroke-linejoin:round;stroke-miterlimit:22.9256;" d="
			M339.766,297.957c0,0,19.875,3.75,14.625-17.249"/>
		
			<path style="fill:none;stroke:#000000;stroke-width:8.5039;stroke-linecap:round;stroke-linejoin:round;stroke-miterlimit:22.9256;" d="
			M353.09,212.856c0,0-15.949,19.102-3.574,34.477"/>
		
			<path style="fill:none;stroke:#000000;stroke-width:8.5039;stroke-linecap:round;stroke-linejoin:round;stroke-miterlimit:22.9256;" d="
			M340.516,263.458c4.499-3.875,12.375-9.375,9-16.125"/>
		
			<path style="fill:none;stroke:#000000;stroke-width:8.5039;stroke-linecap:round;stroke-linejoin:round;stroke-miterlimit:22.9256;" d="
			M91.226,196.383c0,0-38.993-14.207-23.618,48.23"/>
		
			<path style="fill:none;stroke:#000000;stroke-width:8.5039;stroke-linecap:round;stroke-linejoin:round;stroke-miterlimit:22.9256;" d="
			M86.358,298.988c-16.378-6.823-15.7-9.534-12.92-22.928c1.375-6.621-2.925-17.688-5.83-31.447"/>
		
			<path style="fill:none;stroke:#000000;stroke-width:8.5039;stroke-linecap:round;stroke-linejoin:round;stroke-miterlimit:22.9256;" d="
			M77.09,210.452c4.688,11.438,9.333,12.406,5.143,27.975"/>
		
			<path style="fill:none;stroke:#000000;stroke-width:8.5039;stroke-linecap:round;stroke-linejoin:round;stroke-miterlimit:22.9256;" d="
			M90,263.265c0,0-19.7-7.465-7.767-24.839"/>
		<g>
			<polygon style="fill-rule:evenodd;clip-rule:evenodd;" points="144.898,173.905 152.338,169.222 157.344,167.325 
				159.648,157.761 159.52,148.951 153.974,143.52 145.837,144.391 140.47,150.075 138.953,155.816 137.582,166.48 136.593,185.617 
				136.418,198.73 136.51,212.422 136.713,221.477 146.205,220.015 154.263,219.28 158.463,219.071 159.122,207.997 158.15,199.117 
				151.242,191.466 143.561,184.147 142.14,176.311 144.898,173.905 			"/>
			<polygon style="fill-rule:evenodd;clip-rule:evenodd;" points="261.2,178.112 261.656,165.719 262.451,153.579 264.824,145.525 
				272.144,141.33 281.441,142.174 286.282,147.143 287.462,153.559 287.441,163.304 287.094,168.45 280.138,171.539 
				274.571,175.659 269.657,180.451 273.323,187.452 278.437,191.768 284.05,196.625 286.157,200.325 285.798,206.955 
				284.465,216.279 276.821,216.58 269.127,217.274 260.529,218.483 260.589,211.105 260.749,198.741 260.973,186.922 
				261.2,178.112 			"/>
			
				<path style="fill:none;stroke:#000000;stroke-width:8.5039;stroke-linecap:round;stroke-linejoin:round;stroke-miterlimit:22.9256;" d="
				M131.376,130.481c0,0,15.938-25.313,37.5-19.5"/>
			
				<path style="fill:none;stroke:#000000;stroke-width:8.5039;stroke-linecap:round;stroke-linejoin:round;stroke-miterlimit:22.9256;" d="
				M256.064,110.981c0,0,24.563-10.687,47.25,19.5"/>
			
				<path style="fill:none;stroke:#000000;stroke-width:8.5039;stroke-linecap:round;stroke-linejoin:round;stroke-miterlimit:22.9256;" d="
				M255.876,219.356c0,0,25.5-5.625,47.25-1.687"/>
			
				<path style="fill:none;stroke:#000000;stroke-width:8.5039;stroke-linecap:round;stroke-linejoin:round;stroke-miterlimit:22.9256;" d="
				M124.251,224.606c0,0,16.313-5.812,40.688-5.625"/>
			
				<path style="fill:none;stroke:#000000;stroke-width:8.5039;stroke-linecap:round;stroke-linejoin:round;stroke-miterlimit:22.9256;" d="
				M140.47,150.075c1.312-5.062,12.749-11.812,18.75-2.062"/>
			
				<path style="fill:none;stroke:#000000;stroke-width:8.5039;stroke-linecap:round;stroke-linejoin:round;stroke-miterlimit:22.9256;" d="
				M136.713,221.477c0,0-1.868-56.964,3.757-71.402"/>
			
				<path style="fill:none;stroke:#000000;stroke-width:8.5039;stroke-linecap:round;stroke-linejoin:round;stroke-miterlimit:22.9256;" d="
				M157.344,167.325c0,0,4.41-12.592,1.876-19.312"/>
			
				<path style="fill:none;stroke:#000000;stroke-width:8.5039;stroke-linecap:round;stroke-linejoin:round;stroke-miterlimit:22.9256;" d="
				M140.845,177.638c0,0,6.562-7.5,16.499-10.312"/>
			
				<path style="fill:none;stroke:#000000;stroke-width:8.5039;stroke-linecap:round;stroke-linejoin:round;stroke-miterlimit:22.9256;" d="
				M157.345,197.138c-5.25-6-16.688-12.375-16.5-19.5"/>
			
				<path style="fill:none;stroke:#000000;stroke-width:8.5039;stroke-linecap:round;stroke-linejoin:round;stroke-miterlimit:22.9256;" d="
				M158.463,219.071c0,0,2.069-16.309-1.118-21.934"/>
			
				<path style="fill:none;stroke:#000000;stroke-width:8.5039;stroke-linecap:round;stroke-linejoin:round;stroke-miterlimit:22.9256;" d="
				M263.282,148.388c2.25-8.062,19.312-11.625,23.438-0.188"/>
			
				<path style="fill:none;stroke:#000000;stroke-width:8.5039;stroke-linecap:round;stroke-linejoin:round;stroke-miterlimit:22.9256;" d="
				M260.529,218.483c0,0,0.316-62.971,2.753-70.096"/>
			
				<path style="fill:none;stroke:#000000;stroke-width:8.5039;stroke-linecap:round;stroke-linejoin:round;stroke-miterlimit:22.9256;" d="
				M287.094,168.45c0,0,1.313-13.875-0.374-20.25"/>
			
				<path style="fill:none;stroke:#000000;stroke-width:8.5039;stroke-linecap:round;stroke-linejoin:round;stroke-miterlimit:22.9256;" d="
				M269.657,180.451c0,0,8.437-9.75,17.437-12.001"/>
			
				<path style="fill:none;stroke:#000000;stroke-width:8.5039;stroke-linecap:round;stroke-linejoin:round;stroke-miterlimit:22.9256;" d="
				M286.157,200.325c0-5.25-18.535-13.717-16.5-19.874"/>
			
				<path style="fill:none;stroke:#000000;stroke-width:8.5039;stroke-linecap:round;stroke-linejoin:round;stroke-miterlimit:22.9256;" d="
				M284.465,216.279c0,0,1.504-6.579,1.692-15.954"/>
		</g>
		<g>
			<polygon style="fill-rule:evenodd;clip-rule:evenodd;fill:#67559E;" points="67.244,168.318 73.179,164.708 77.904,157.049 
				85.471,148.019 91.487,142.266 92.613,150.574 91.802,162.799 91.468,173.565 91.418,188.286 91.711,202.338 86.384,200.453 
				80.004,192.344 73.83,182.52 67.244,168.318 			"/>
			<polygon style="fill-rule:evenodd;clip-rule:evenodd;fill:#67559E;" points="66.401,166.005 73.179,164.708 78.687,156.115 
				88.479,145.143 99.181,136.078 113.341,127.105 128.476,120.072 146.667,114.336 163.86,111.199 181.438,109.929 
				202.551,108.645 202.138,116.488 218.705,116.55 235.127,115.132 253.402,111.535 269.097,106.104 284.722,97.203 295.21,87.557 
				302.905,80.732 302.581,88.538 303.217,98.486 305.084,108.816 308.66,120.255 314.83,133.188 322.429,144.552 330.729,154.113 
				335.399,159.739 334.624,173.443 334.038,182.289 333.138,193.901 331.968,205.725 337.589,204.262 344.839,198.136 
				353.618,187.849 359.365,177.724 363.802,164.932 366.091,150.943 366.429,136.341 364.895,119.275 360.628,100.749 
				353.637,86.351 342.896,73.915 330.073,64.679 319.223,59.286 311.224,54.033 306.911,46.352 301.394,38.111 290.582,29.142 
				276.233,21.187 262.827,15.236 244.794,9.197 227.495,5.881 207.674,4.769 186.741,6.092 168.27,8.91 148.966,14.038 
				130.411,21.772 115.324,30.115 100.326,40.656 88.344,51.515 78.026,64.578 71.357,78.602 65.349,95.743 61.564,113.391 
				60.373,127.92 61.061,142.729 63.187,154.995 66.401,166.005 			"/>
			
				<path style="fill:none;stroke:#000000;stroke-width:8.5039;stroke-linecap:round;stroke-linejoin:round;stroke-miterlimit:22.9256;" d="
				M91.836,206.052c0,0-56.625-48.75-18-133.125"/>
			
				<path style="fill:none;stroke:#000000;stroke-width:8.5039;stroke-linecap:round;stroke-linejoin:round;stroke-miterlimit:22.9256;" d="
				M279.336,22.677C252.429,9.659,223.975-1.776,167.144,9.124c-38.815,7.445-83.038,36.845-93.308,63.803"/>
			
				<path style="fill:none;stroke:#000000;stroke-width:8.5039;stroke-linecap:round;stroke-linejoin:round;stroke-miterlimit:22.9256;" d="
				M303.711,40.677c7.5,9.562-1.688,11.25,24.375,22.875"/>
			
				<path style="fill:none;stroke:#000000;stroke-width:8.5039;stroke-linecap:round;stroke-linejoin:round;stroke-miterlimit:22.9256;" d="
				M279.336,22.677c2.845,1.891,14.606,6.509,24.375,18"/>
			
				<path style="fill:none;stroke:#000000;stroke-width:8.5039;stroke-linecap:round;stroke-linejoin:round;stroke-miterlimit:22.9256;" d="
				M331.649,208.302c31.03-19.284,38.226-49.676,33.569-86.602c-2.734-21.675-9.6-42.961-37.132-58.148"/>
			
				<path style="fill:none;stroke:#000000;stroke-width:8.5039;stroke-linecap:round;stroke-linejoin:round;stroke-miterlimit:22.9256;" d="
				M335.399,159.739c0,0-1.875,38.625-4.5,53.625"/>
			
				<path style="fill:none;stroke:#000000;stroke-width:8.5039;stroke-linecap:round;stroke-linejoin:round;stroke-miterlimit:22.9256;" d="
				M344.211,103.302c0,0,23.463,53.538-10.487,83.3"/>
			
				<path style="fill:none;stroke:#000000;stroke-width:8.5039;stroke-linecap:round;stroke-linejoin:round;stroke-miterlimit:22.9256;" d="
				M303.899,74.052c0,0-11.812,47.812,35.249,87.937"/>
			
				<path style="fill:none;stroke:#000000;stroke-width:8.5039;stroke-linecap:round;stroke-linejoin:round;stroke-miterlimit:22.9256;" d="
				M198.523,116.239c0,0,90.188,8.812,108.375-49.875"/>
			
				<path style="fill:none;stroke:#000000;stroke-width:8.5039;stroke-linecap:round;stroke-linejoin:round;stroke-miterlimit:22.9256;" d="
				M93.711,141.177c-2.438,16.5-2.754,40.5-1.875,64.875"/>
			
				<path style="fill:none;stroke:#000000;stroke-width:8.5039;stroke-linecap:round;stroke-linejoin:round;stroke-miterlimit:22.9256;" d="
				M73.179,164.708c11.438-22.313,47.966-52.209,103.498-54.568c53.03-2.253,107.401-7.343,120.002-53.432"/>
			
				<path style="fill:none;stroke:#000000;stroke-width:8.5039;stroke-linecap:round;stroke-linejoin:round;stroke-miterlimit:22.9256;" d="
				M86.679,98.145c0,0,37.5-32.25,102.75-27.75"/>
			
				<path style="fill:none;stroke:#000000;stroke-width:8.5039;stroke-linecap:round;stroke-linejoin:round;stroke-miterlimit:22.9256;" d="
				M76.093,139.489c0,0,34.984-36.895,84.74-46.65c46.098-9.037,68.557,0.011,107.72-37.631"/>
		</g>
	</g>
</g>
<g id="n1603">
	<g id="n0103">
		<g>
			<polygon style="fill-rule:evenodd;clip-rule:evenodd;fill:#E186AE;" points="194.095,360.494 195.446,349.098 197.127,327.065 
				200.501,315.875 206.467,308.935 213.783,306.833 221.174,309.374 226.559,312.881 229.455,317.388 226.059,322.983 
				222.944,325.573 223.313,332.955 223.799,349.563 222.969,354.784 214.727,352.504 206.051,354.604 199.997,358.657 
				194.095,360.494 			"/>
			
				<path style="fill:none;stroke:#000000;stroke-width:8.5039;stroke-linecap:round;stroke-linejoin:round;stroke-miterlimit:22.9256;" d="
				M193.809,362.051c3.41-17.186,0.187-56.14,21.775-55.214"/>
			
				<path style="fill:none;stroke:#000000;stroke-width:8.5039;stroke-linecap:round;stroke-linejoin:round;stroke-miterlimit:22.9256;" d="
				M209.405,327.498c7.768,1.064,40.224-10.485,6.179-20.662"/>
			
				<path style="fill:none;stroke:#000000;stroke-width:8.5039;stroke-linecap:round;stroke-linejoin:round;stroke-miterlimit:22.9256;" d="
				M224.219,355.534c0,0-0.696-17.084-1.313-30.798"/>
		</g>
	</g>
</g>
<g id="n1604">
	<g>
		<g>
			<g>
				<g>
					<path style="fill-rule:evenodd;clip-rule:evenodd;fill:#F9D740;" d="M341.822,288.791l-1.914-12.757l-6.244-12.478
						l-10.253-11.382l-16.778-8.746l-13.579-3.439l-18.621-0.976l-15.469,1.304l-13.075,2.507l-13.636,3.592l-14.978,2.223
						l-15.639,0.271l-12.958-1.541l-8.61-1.921l-7.922-2.272l-11.983-1.072l-11.374-0.971l-13.029,0.973l-13.648,5.225l-13.1,5.969
						l-10.613,9.652l-5.517,8.701l-3.75,9.211l-2.907,13.205l-0.143,15.013l1.781,9.909l4.746,13.285l7.361,12.989l7.495,9.816
						l11.099,11.347l11.709,8.855l12.369,7.203l13.008,6.184l14.116,5.189l15.978,4.061l16.486,2.271l14.814,0.444l16.164-1.195
						l15.849-2.855l16.118-4.645l16.078-6.508l13.254-7.071l12.891-9.175l11.42-10.98l8.436-11.124l8.228-16.1l4.657-15.982
						l1.719-13.327L341.822,288.791z M299.366,343.667c-25.667,20.333-75,42.667-155.667,13c0,0-32.333-14.667-34.667-36.667
						c-2.333-22-2-45.333,17.667-53c19.667-7.667,47.333-0.667,65.667-0.667s70-2.333,83.333-4.667
						c13.333-2.333,28.667-2.333,37,17.667C321.033,299.333,325.033,323.333,299.366,343.667z"/>
					<polygon style="fill-rule:evenodd;clip-rule:evenodd;fill:#FFFFFF;" points="131.407,347.791 134.908,342.602 140.084,335.285 
						145.442,328.473 151.644,324.753 158.173,325.37 162.549,327.845 165.413,333.036 172.76,335.144 177.518,340.539 
						179.591,344.051 188.366,341.92 196.975,344.977 203.234,348.802 210.357,342.419 219.993,338.111 228.862,340.018 
						234.869,344.022 237.959,347.739 243.971,342.721 251.236,339.281 259.087,339.06 265.237,333.539 272.184,328.18 
						276.735,327.965 283.711,320.716 290.244,320.66 297.146,324.593 301.759,329.199 308.542,333.928 301.072,343.016 
						291.65,351.295 278.057,359.526 259.696,366.394 244.27,369.66 226.821,371.349 209.719,371.384 197.408,370.639 
						178.806,368.047 164.316,364.437 151.244,359.561 141.288,354.462 131.407,347.791 					"/>
					<path style="fill-rule:evenodd;clip-rule:evenodd;fill:#FFFFFF;" d="M133.75,266.646l9.708-2.135l13.596-0.239l13.453,0.791
						l18.734,2.296l15.563,0.754l17.053-0.419l9.22-0.893l17.586-2.388l11.279-1.584l11.846-1.39l11.967,0.488l2.139,6.235
						l1.072,7.578l-1.58,7.312l-3.459,5.58l-6.123,3.31l-10.026-1.079l-4.018,4.789l-8.591,2.073l-7.577-2.349l-5.549-3.152
						l-6.093,5.227c0,0-10.034,1.02-9.098,1.155c0.937,0.134-7.94-3.023-7.94-3.023l-7.186-5.254l-9.306,5.341l-10.608-0.2
						l-7.775-3.755l-3.762-2.901l-6.903,3.733l-6.749,1.024l-5.664-2.081l-2.713-2.43l-5.877,3.324l-7.062-3.92L138,283.083
						l-3.74-8.314L133.75,266.646L133.75,266.646z"/>
					
						<path style="fill:none;stroke:#000000;stroke-width:8.5039;stroke-linecap:round;stroke-linejoin:round;stroke-miterlimit:22.9256;" d="
						M133.75,266.646c0,0-2.343,27.253,20.685,24.553"/>
					
						<path style="fill:none;stroke:#000000;stroke-width:8.5039;stroke-linecap:round;stroke-linejoin:round;stroke-miterlimit:22.9256;" d="
						M149.476,273.467c0,0,4.926,32.021,28.8,15.347"/>
					
						<path style="fill:none;stroke:#000000;stroke-width:8.5039;stroke-linecap:round;stroke-linejoin:round;stroke-miterlimit:22.9256;" d="
						M209.727,290.33c0,0-13.073,14.4-31.452-1.516"/>
					
						<path style="fill:none;stroke:#000000;stroke-width:8.5039;stroke-linecap:round;stroke-linejoin:round;stroke-miterlimit:22.9256;" d="
						M240.043,292.224c0,0-9.852,16.105-30.316-1.895"/>
					
						<path style="fill:none;stroke:#000000;stroke-width:8.5039;stroke-linecap:round;stroke-linejoin:round;stroke-miterlimit:22.9256;" d="
						M269.222,277.256c0,0-0.758,33.536-29.179,14.968"/>
					
						<path style="fill:none;stroke:#000000;stroke-width:8.5039;stroke-linecap:round;stroke-linejoin:round;stroke-miterlimit:22.9256;" d="
						M286.967,263.986c2.654,2.463,1.327,34.609-21.188,26.876"/>
					
						<path style="fill:none;stroke:#000000;stroke-width:8.5039;stroke-linecap:round;stroke-linejoin:round;stroke-miterlimit:22.9256;" d="
						M133.939,343.571c3.092-10.68,13.825-25.234,29.741-13.676"/>
					
						<path style="fill:none;stroke:#000000;stroke-width:8.5039;stroke-linecap:round;stroke-linejoin:round;stroke-miterlimit:22.9256;" d="
						M150.044,348.687c0,0,13.642-29.179,27.473-8.147"/>
					
						<path style="fill:none;stroke:#000000;stroke-width:8.5039;stroke-linecap:round;stroke-linejoin:round;stroke-miterlimit:22.9256;" d="
						M202.528,349.634c0,0-16.484-19.326-31.452,3.032"/>
					
						<path style="fill:none;stroke:#000000;stroke-width:8.5039;stroke-linecap:round;stroke-linejoin:round;stroke-miterlimit:22.9256;" d="
						M237.959,347.739c0,0-14.589-23.115-35.432,1.895"/>
					
						<path style="fill:none;stroke:#000000;stroke-width:8.5039;stroke-linecap:round;stroke-linejoin:round;stroke-miterlimit:22.9256;" d="
						M276.043,354.75c0,0-14.02-30.884-38.084-7.01"/>
					
						<path style="fill:none;stroke:#000000;stroke-width:8.5039;stroke-linecap:round;stroke-linejoin:round;stroke-miterlimit:22.9256;" d="
						M259.087,339.06c7.389-2.653,12.598-25.805,33.819,2.995"/>
					
						<path style="fill:none;stroke:#000000;stroke-width:8.5039;stroke-linecap:round;stroke-linejoin:round;stroke-miterlimit:22.9256;" d="
						M305.98,332.383c0,0-15.497-24.86-30.037-4.556"/>
					
						<path style="fill:none;stroke:#000000;stroke-width:8.5039;stroke-linecap:round;stroke-linejoin:round;stroke-miterlimit:22.9256;" d="
						M175.658,242.346c-20.842,0.189-32.035-7.557-58.06,4.375c-15.568,7.138-28.985,21.251-32.105,48.13"/>
					
						<path style="fill:none;stroke:#000000;stroke-width:8.5039;stroke-linecap:round;stroke-linejoin:round;stroke-miterlimit:22.9256;" d="
						M236.642,244.302c0,0,82.659-27.325,102.744,30.843"/>
					
						<path style="fill:none;stroke:#000000;stroke-width:8.5039;stroke-linecap:round;stroke-linejoin:round;stroke-miterlimit:22.9256;" d="
						M125.327,371.143c0,0-44.336-30.885-39.978-76.737"/>
					
						<path style="fill:none;stroke:#000000;stroke-width:8.5039;stroke-linecap:round;stroke-linejoin:round;stroke-miterlimit:22.9256;" d="
						M296.799,375.122c0,0-81.094,57.031-171.472-3.979"/>
					
						<path style="fill:none;stroke:#000000;stroke-width:8.5039;stroke-linecap:round;stroke-linejoin:round;stroke-miterlimit:22.9256;" d="
						M339.241,274.701c3.218,12.008,9.853,66.316-42.443,100.421"/>
					
						<path style="fill:none;stroke:#000000;stroke-width:8.5039;stroke-linecap:round;stroke-linejoin:round;stroke-miterlimit:22.9256;" d="
						M151.474,264.092c35.93,0.972,26.715,4.044,58.737,4.057c20.125,0.008,39.083-4.47,61.578-6.711"/>
					
						<path style="fill:none;stroke:#000000;stroke-width:8.5039;stroke-linecap:round;stroke-linejoin:round;stroke-miterlimit:22.9256;" d="
						M319.156,312.217c0,0,14.021-52.106-47.368-50.779"/>
					
						<path style="fill:none;stroke:#000000;stroke-width:8.5039;stroke-linecap:round;stroke-linejoin:round;stroke-miterlimit:22.9256;" d="
						M113.011,328.322c-7.404-10.983-15.16-64.338,38.463-64.231"/>
					
						<path style="fill:none;stroke:#000000;stroke-width:8.5039;stroke-linecap:round;stroke-linejoin:round;stroke-miterlimit:22.9256;" d="
						M319.156,312.217c-15.347,47.747-62.144,59.456-101.397,59.315c-40.922-0.146-81.283-9.246-104.748-43.21"/>
				</g>
				
					<path style="fill-rule:evenodd;clip-rule:evenodd;fill:none;stroke:#000000;stroke-width:8.5039;stroke-linecap:round;stroke-linejoin:round;stroke-miterlimit:22.9256;" d="
					M175.658,242.346c0,0,13.457,3.726,30.636,3.726s35.368-3.368,35.368-3.368"/>
			</g>
			<g>
				<polygon style="fill-rule:evenodd;clip-rule:evenodd;fill:#4AB57E;" points="184.03,246.657 176.175,240.824 172.498,232.051 
					176.209,222.084 185.745,214.156 193.807,209.582 203.756,204.821 211.573,204.396 218.052,206.853 225.496,211.212 
					231.627,215.811 236.627,221.199 241.554,227.909 243.368,233.938 241.832,239.01 236.259,244.24 226.489,246.866 
					213.01,248.712 198.896,249.582 184.03,246.657 				"/>
				
					<path style="fill:none;stroke:#000000;stroke-width:8.5039;stroke-linecap:round;stroke-linejoin:round;stroke-miterlimit:22.9256;" d="
					M223.807,247.302c7.143-0.984,16.289-3.586,18.929-9.989c1.112-2.699,1.217-6.03-3.436-13.352
					c-4.652-7.322-19.231-17.611-27.727-19.565c0,0-3.946-0.802-7.817,0.425c-8.071,2.464-20.362,9.809-26.253,15.803
					c-5.891,5.993-5.615,13.555-4.074,17.567c3.162,8.23,11.217,8.801,18.093,9.537"/>
				
					<path style="fill:none;stroke:#000000;stroke-width:8.5039;stroke-linecap:round;stroke-linejoin:round;stroke-miterlimit:22.9256;" d="
					M193.051,230.139c-0.41,4.935-4.334,9.006-1.954,10.196C193.476,241.525,195.26,234.388,193.051,230.139L193.051,230.139z"/>
				
					<path style="fill:none;stroke:#000000;stroke-width:8.5039;stroke-linecap:round;stroke-linejoin:round;stroke-miterlimit:22.9256;" d="
					M218.98,231.381c5.581,3.244,8.921,10.487,6.084,11.575C222.057,244.107,220.281,237.797,218.98,231.381L218.98,231.381z"/>
				
					<path style="fill:none;stroke:#000000;stroke-width:8.5039;stroke-linecap:round;stroke-linejoin:round;stroke-miterlimit:22.9256;" d="
					M191.522,247.727c0,0,13.861,3.059,32.286-0.425"/>
			</g>
		</g>
		<g>
			
				<line style="fill:none;stroke:#000000;stroke-width:8.5039;stroke-linecap:round;stroke-linejoin:round;stroke-miterlimit:22.9256;" x1="202.856" y1="259.784" x2="194.375" y2="253.5"/>
			
				<path style="fill:none;stroke:#000000;stroke-width:8.5039;stroke-linecap:round;stroke-linejoin:round;stroke-miterlimit:22.9256;" d="
				M169.251,251.625c7.124,0.562,6.114,7.169,13.296,8.159c3.851,0.531,7.446,1.37,11.829-6.284"/>
			
				<path style="fill:none;stroke:#000000;stroke-width:8.5039;stroke-linecap:round;stroke-linejoin:round;stroke-miterlimit:22.9256;" d="
				M142.626,250.312c6.244-0.612,8.329,3.772,13.808,4.657c2.913,0.469,8.315-3.928,12.817-3.344"/>
			
				<path style="fill:none;stroke:#000000;stroke-width:8.5039;stroke-linecap:round;stroke-linejoin:round;stroke-miterlimit:22.9256;" d="
				M129.875,259.5c0,0,5.063-8.624,12.751-9.188"/>
			
				<path style="fill:none;stroke:#000000;stroke-width:8.5039;stroke-linecap:round;stroke-linejoin:round;stroke-miterlimit:22.9256;" d="
				M105.501,276.562c0,0,5.249-20.062,24.374-17.062"/>
			
				<path style="fill:none;stroke:#000000;stroke-width:8.5039;stroke-linecap:round;stroke-linejoin:round;stroke-miterlimit:22.9256;" d="
				M221,252c0,0,3.884,4.725,9.378,4.444c4.802-0.245,6-5.919,10.497-6.319"/>
			
				<path style="fill:none;stroke:#000000;stroke-width:8.5039;stroke-linecap:round;stroke-linejoin:round;stroke-miterlimit:22.9256;" d="
				M268.438,246.188c-7.125,0.562-4.571,9.084-11.815,9.332c-6.047,0.208-9.099-6.811-15.747-5.395"/>
			
				<path style="fill:none;stroke:#000000;stroke-width:8.5039;stroke-linecap:round;stroke-linejoin:round;stroke-miterlimit:22.9256;" d="
				M296.938,248.437c-8.25-0.188-7.022,6.336-15.189,5.672c-4.129-0.336-5.707-8.691-13.311-7.922"/>
			
				<path style="fill:none;stroke:#000000;stroke-width:8.5039;stroke-linecap:round;stroke-linejoin:round;stroke-miterlimit:22.9256;" d="
				M320.653,268.007c-2.861-0.295-12.43-4.256-14.195-7.081c-2.111-3.379-1.707-11.029-9.521-12.489"/>
			
				<path style="fill:none;stroke:#000000;stroke-width:8.5039;stroke-linecap:round;stroke-linejoin:round;stroke-miterlimit:22.9256;" d="
				M162.764,382.322c-3.535,4.054,18.239-13.216,33.299,5.053"/>
			
				<path style="fill:none;stroke:#000000;stroke-width:8.5039;stroke-linecap:round;stroke-linejoin:round;stroke-miterlimit:22.9256;" d="
				M213.126,386.438c-1.413,2.371-8.089,10.447-17.063,0.938"/>
			
				<path style="fill:none;stroke:#000000;stroke-width:8.5039;stroke-linecap:round;stroke-linejoin:round;stroke-miterlimit:22.9256;" d="
				M228.688,386.062c3.196,3.124-7.016-9.485-15.562,0.375"/>
			
				<path style="fill:none;stroke:#000000;stroke-width:8.5039;stroke-linecap:round;stroke-linejoin:round;stroke-miterlimit:22.9256;" d="
				M244.251,381.938c0,0-5.063,11.625-15.562,4.125"/>
			
				<path style="fill:none;stroke:#000000;stroke-width:8.5039;stroke-linecap:round;stroke-linejoin:round;stroke-miterlimit:22.9256;" d="
				M258.125,380.812c0,0-7.875-7.312-13.875,1.125"/>
			
				<path style="fill:none;stroke:#000000;stroke-width:8.5039;stroke-linecap:round;stroke-linejoin:round;stroke-miterlimit:22.9256;" d="
				M264.5,381.188c-2.279,0.9-4.663,0.856-6.375-0.375"/>
		</g>
		
			<path style="fill:none;stroke:#000000;stroke-width:8.5039;stroke-linecap:round;stroke-linejoin:round;stroke-miterlimit:22.9256;" d="
			M187.515,195.957c0,0,19.368-13.79,42.226-0.96"/>
	</g>
</g>
<g id="n1605">
	<g>
		<polygon style="fill-rule:evenodd;clip-rule:evenodd;fill:#F9D740;" points="9.063,510.277 16.532,508.222 22.808,501.687 
			33.013,495.08 42.23,492.19 42.716,481.656 45.604,470.111 51.004,460.799 52.629,455.076 52.089,447.768 43.515,442.399 
			34.727,443.092 28.36,447.99 23.281,455.544 14.757,458.587 8.202,467.168 4.746,477.633 3.976,486.989 5.181,497.65 
			9.063,510.277 		"/>
		<path style="fill-rule:evenodd;clip-rule:evenodd;fill:#F9D740;" d="M52.052,580.828l2.851,5.107l6.562,3.023l7.747-0.588
			l5.268-2.747l3.481-4.541l0.977-12.565l-0.887-14.212l-2.356-12.827l-1.483-5.397l8.398-4.276l10.893-6.949l7.652-7.166
			l4.439-8.406c0,0,1.413-12.307,0.497-12.016c-0.915,0.29-5.25-9.562-5.25-9.562l-8.255-5.249l-8.242-2.835l-8.501,2.762
			l-2.256,7.584l3.949,8.519l-7.224,2.297l-7.016-6.261l-1.39-9.057l2.616-7.793l4.406,1.648l6.34-0.752l7.51-5.347l1.951-7.892
			l-4.375-7.543l-11.709-4.54l-9.391,1.925l-9.083,6.891l-5.37,10.272l-2.083,9.32L42.23,492.19l-10.483,3.709l-8.94,5.788
			l-6.276,6.535l-6.635,4.048l5.874,8.417l7.356,7.207l6.354,4.35l6.993,3.339l10.173,2.561l3.388,11.012l1.559,7.628
			c0,0,3.062,11.547,1.995,11.547C52.522,568.331,52.052,580.828,52.052,580.828L52.052,580.828z"/>
		
			<path style="fill:none;stroke:#000000;stroke-width:8.5039;stroke-linecap:round;stroke-linejoin:round;stroke-miterlimit:22.9256;" d="
			M16.532,508.222c5.617-6.384,12.865-14.702,30.865-16.952"/>
		
			<path style="fill:none;stroke:#000000;stroke-width:8.5039;stroke-linecap:round;stroke-linejoin:round;stroke-miterlimit:22.9256;" d="
			M28.256,497.751c0,0-4.672-21.294,3.203-28.418"/>
		
			<path style="fill:none;stroke:#000000;stroke-width:8.5039;stroke-linecap:round;stroke-linejoin:round;stroke-miterlimit:22.9256;" d="
			M11.209,462.395c0,0-15.375,17.436-1.312,49.875"/>
		
			<path style="fill:none;stroke:#000000;stroke-width:8.5039;stroke-linecap:round;stroke-linejoin:round;stroke-miterlimit:22.9256;" d="
			M46.647,538.144c0,0-22.688-1.499-36.75-25.874"/>
		
			<path style="fill:none;stroke:#000000;stroke-width:8.5039;stroke-linecap:round;stroke-linejoin:round;stroke-miterlimit:22.9256;" d="
			M52.052,580.828c-0.75-4.688,3.783-17.371-5.405-42.684"/>
		
			<path style="fill:none;stroke:#000000;stroke-width:8.5039;stroke-linecap:round;stroke-linejoin:round;stroke-miterlimit:22.9256;" d="
			M77.96,581.083c-0.866,3.655-7.519,8.467-14.58,8.087c-6.67-0.359-10.783-4.315-11.328-8.342"/>
		
			<path style="fill:none;stroke:#000000;stroke-width:8.5039;stroke-linecap:round;stroke-linejoin:round;stroke-miterlimit:22.9256;" d="
			M74.209,536.082c0,0,7.313,22.126,3.75,45.001"/>
		
			<path style="fill:none;stroke:#000000;stroke-width:8.5039;stroke-linecap:round;stroke-linejoin:round;stroke-miterlimit:22.9256;" d="
			M105.897,500.27c0.505,7.05,3.188,19.311-31.688,35.811"/>
		
			<path style="fill:none;stroke:#000000;stroke-width:8.5039;stroke-linecap:round;stroke-linejoin:round;stroke-miterlimit:22.9256;" d="
			M92.584,482.457c0,0,10.313,4.126,13.312,17.814"/>
		
			<path style="fill:none;stroke:#000000;stroke-width:8.5039;stroke-linecap:round;stroke-linejoin:round;stroke-miterlimit:22.9256;" d="
			M83.959,505.708c0,0-11.625-10.126-10.5-19.126"/>
		
			<path style="fill:none;stroke:#000000;stroke-width:8.5039;stroke-linecap:round;stroke-linejoin:round;stroke-miterlimit:22.9256;" d="
			M92.584,482.457c0,0-14.625-8.812-19.125,4.125"/>
		
			<path style="fill:none;stroke:#000000;stroke-width:8.5039;stroke-linecap:round;stroke-linejoin:round;stroke-miterlimit:22.9256;" d="
			M58.459,471.208c0,0,8.166,15.822,22.979,3.634"/>
		
			<path style="fill:none;stroke:#000000;stroke-width:8.5039;stroke-linecap:round;stroke-linejoin:round;stroke-miterlimit:22.9256;" d="
			M68.643,453.248c9.375-0.938,22.546,11.28,12.796,21.594"/>
		
			<path style="fill:none;stroke:#000000;stroke-width:8.5039;stroke-linecap:round;stroke-linejoin:round;stroke-miterlimit:22.9256;" d="
			M42.23,492.19c0,0-2.593-37.964,26.412-38.942"/>
		
			<path style="fill:none;stroke:#000000;stroke-width:8.5039;stroke-linecap:round;stroke-linejoin:round;stroke-miterlimit:22.9256;" d="
			M64.52,477.673c-5.437,4.312-3.103,31.054,13.014,20.814"/>
		
			<path style="fill:none;stroke:#000000;stroke-width:8.5039;stroke-linecap:round;stroke-linejoin:round;stroke-miterlimit:22.9256;" d="
			M51.522,503.27c-9.938-3.001-12.214,8.66-8.428,13.256c5.391,6.544,19.712,8.74,16.865-4.443"/>
		
			<path style="fill:none;stroke:#000000;stroke-width:8.5039;stroke-linecap:round;stroke-linejoin:round;stroke-miterlimit:22.9256;" d="
			M50.169,462.063c9.938-13.313-12.45-34.27-26.888-6.52"/>
		
			<path style="fill:none;stroke:#000000;stroke-width:8.5039;stroke-linecap:round;stroke-linejoin:round;stroke-miterlimit:22.9256;" d="
			M31.459,469.333c5.625-3.375-6.75-24.563-20.25-6.937"/>
	</g>
</g>
</svg>
