<svg xmlns="http://www.w3.org/2000/svg" viewBox="0 0 311.36 577.697"><g id="n1701"><g><path fill-rule="evenodd" clip-rule="evenodd" fill="#4ab57e" d="M31.215 501.311l4.628-3.995 16.993-9.222 22.832-14.543 12.61-7.525 18.457-9.379 9.726 9.684 7.155 5.086 11.508 5.631 16.984 3.695 19.734-1.055 21.339-6.725 9.354-6.949 6.619-10.64 8.988 1.377 13.698 5.807 13.325 5.816 14.547 6.582 14.692 7.04 11.243 5.925 7.319 4.578 2.063 4.687-5.938 9.867-10.658 14.619-13.748 14.711-15.518 12.583-18.99 11.084-21.918 8.266-23.374 4.602-19.595 1.111-20.709-1.548-23.246-5.489-20.024-8.043-20.815-11.834-15.837-11.607-16.071-14.443-10.136-10.827-7.237-8.927z"/><path d="M133.403 370.121s28.126-8.626 56.813.562c-.514 8.034-.628 11.417-.628 11.417l.065 37.707.701 9.44 2.549 12.9 5.502 10.083 9.159 5.697-3.175 5.105-8.555 7.959-17.041 7.318-23.247 2.583-17.023-2.694-14.907-6.783-9.229-7.15-2.546-6.268 8.137-3.685 7.738-8.898 4.333-13.875 1.096-11.017.229-42.526.029-7.875z" fill-rule="evenodd" clip-rule="evenodd" fill="#e186ae"/><path d="M143.521 493.27s32.45 6.499 44.623-.837m-81.634-36.966c3.198 5.244 21.801 25.567 51.45 24.851 20.992-.506 44.549-6.862 51.112-25.614m-19.053-84.653s-5.512 83.763 15.302 84.66M133.205 369.6c-.328 23.813 3.108 81.309-21.441 87.92m101.619-3.387s63.613 25.938 79.574 37.532m2.071 4.683c-19.992 36.039-59.401 76.973-129.588 77.096-71.842.126-121.243-55.118-134.217-72.456m73.041-43.454c-27.539 12.054-47.753 30.468-70.234 40.261m78.094-47.777s-.694.741-3.081 3.45" fill="none" stroke="#000" stroke-width="8.504" stroke-linecap="round" stroke-linejoin="round" stroke-miterlimit="22.926"/></g></g><g id="n1702"><g><g><path fill-rule="evenodd" clip-rule="evenodd" fill="#61f4e5" d="M33.475 163.787l1.205 12.475 1.898 16.451 1.12 14.519 2.405 12.635-4.739 10.919-4.225 6.827 5.313 2.974-4.257 9.566-2.322 8.43-1.059 6.158-6.961-1.442-6.268-4.835-1.214-7.985 1.316-7.014.057-5.945-3.542-15.657-4.995-23.1-.895-14.036L9.8 170.538l5.148-5.486 10.376-2.65 8.151 1.385z"/><path fill-rule="evenodd" clip-rule="evenodd" fill="#fff" d="M36.452 240.587l4.409-6.639 230.415-3.085 4.808 7.362 3.459-3.611-1.278-11.078-4.863-11.993-5.607-6.919 3.842-12.873 3.838-20.863 1.248-21.581-1.336-18.8-4.02-19.015-7.791-20.002-10.959-17.827-13.58-15.104-20.257-14.183-22.01-8.219-22.389-3.345-22.505-.02-19.302 1.741-21.049 4.261-19.743 7.203-14.791 8.471L62.99 66.395 50.497 83.064l-8.341 16.562-5.567 16.866-2.609 13.898-1.045 13.196.427 18.654 1.918 19.222 1.858 18.51.512 11.828.394 10.228-5.18 5.258-1.679 9.23 5.267 4.071z"/><path fill-rule="evenodd" clip-rule="evenodd" fill="#f9d740" d="M275.758 166.005l8.395-2.707 10.385.66 7.95 5.089 4.271 10.734.232 8.884-2.137 13.559-2.589 9.514-3.093 10.664-2.511 12.241-.543 10.546 1.403 9.116-2.273 7.533-5.56 3.283-7.917.77-.528-9.769-1.891-10.24-1.539-9.463 2.514-5.555-2.524-9.155-4.401-10.166-5.607-6.919 3.842-12.873 1.919-10.431 1.71-9.297.492-6.018z"/><path d="M34.112 245.278s.002-51.38 62.539-51.546m112-.667s74.489-8.704 70.739 47.172m-223.876-165c15.374-20.625 41.995-39.189 93.019-42.261 29.439-1.771 70.646-.748 101.232 37.011m18.03 134.637s29.22-76.138-18.03-134.638M37.603 216.367c2.25-36.376-20.714-84.881 17.911-141.131m220.572 89.841s45.679-16.716 26.179 46.66m-5.625 36.376s-3.375-8.25 5.625-36.375m-20.25 53.624s19.875 3.75 14.625-17.249m-1.301-67.852s-15.949 19.102-3.574 34.477m-9 16.125c4.499-3.875 12.375-9.375 9-16.125m-258.29-50.951s-38.993-14.207-23.618 48.23m18.75 54.376c-16.378-6.823-15.7-9.534-12.92-22.928 1.375-6.621-2.925-17.689-5.83-31.447m9.482-34.161c4.688 11.438 9.333 12.406 5.143 27.975m7.766 24.838s-19.7-7.465-7.767-24.839" fill="none" stroke="#000" stroke-width="8.504" stroke-linecap="round" stroke-linejoin="round" stroke-miterlimit="22.926"/></g><g><path fill-rule="evenodd" clip-rule="evenodd" d="M83.777 146.309l6.823-4.682 4.591-1.897 2.112-9.565-.117-8.809-5.086-5.431-7.462.871-4.922 5.684-1.391 5.741-1.258 10.664-.907 19.137-.16 13.113.084 13.692.186 9.055 8.705-1.462 7.39-.735 3.852-.209.605-11.074-.892-8.88-6.336-7.651-7.043-7.319-1.304-7.836 2.53-2.407zm126.836 5.208l.418-12.393.729-12.139 2.177-8.055 6.712-4.195 8.527.844 4.439 4.969 1.082 6.417-.018 9.744-.319 5.146-6.379 3.089-5.106 4.12-4.506 4.792 3.361 7.001 4.691 4.316 5.147 4.857 1.933 3.7-.33 6.631-1.222 9.323-7.01.301-7.057.694-7.884 1.209.054-7.378.147-12.364.206-11.819.208-8.81z"/><path d="M80.547 97.886s14.616-25.313 34.391-19.5m79.959 0s22.526-10.687 43.333 19.5M79.716 122.48c1.204-5.062 11.692-11.812 17.195-2.062M76.27 193.882s-1.713-56.964 3.445-71.402m15.476 17.25s4.044-12.592 1.72-19.313m-16.852 29.625s6.018-7.5 15.132-10.312m0 29.812c-4.815-6-15.304-12.375-15.132-19.5m16.158 41.434s1.898-16.309-1.025-21.934m117.33-47.749c2.063-8.062 17.71-11.625 21.494-.188m-24.018 70.283s.29-62.971 2.525-70.096m21.837 20.063s1.205-13.875-.343-20.25m-15.648 32.251s7.737-9.75 15.991-12.001m-.859 31.875c0-5.25-16.998-13.717-15.132-19.874m13.58 35.828s1.38-6.579 1.552-15.954" fill="none" stroke="#000" stroke-width="8.504" stroke-linecap="round" stroke-linejoin="round" stroke-miterlimit="22.926"/></g><g><path fill-rule="evenodd" clip-rule="evenodd" fill="#4ab57e" d="M238.922 62.194l9.835-5.683 7.232-6.069 5.749-5.41 7.584 9.171 7.651 10.883 6.364 11.002 5.257 13.522 3.022 13.813.684 14.581-2.275 15.502-4.259 12.304-3.927 7.729-4.849-.036-.219-10.889-1.639-15.534-3.441-14.887-6.837-17.101-7.495-12.523-8.57-10.726-9.867-9.649z"/><path fill-rule="evenodd" clip-rule="evenodd" fill="#67559e" d="M34.488 156.27l.437-16.35 2.349-16.784 5.694-19.478 8.555-18.998L64.09 70.789l13.077-10.941 14.702-3.384 15.716-.824 19.003.944 20.406 2.54 23.013 3.658 19.079 2.714 20.687 1.357 16.673-1.394 12.476-3.265 11.341-6.947 11.102-10.61-8.739-7.359-9.478-5.493-14.595-6.287-16.942-7.872-22.412-7.59-27.106-5.072-23.197-.393-21.611 3.56-22.546 7.776-15.923 8.876-12.625 11.15-7.559 9.774-6.268 11.86-7.581 6.112-12.175 8.58-7.339 8.91-5.556 13.863L18.18 109.6l.904 11.81 3.655 16.551 5.657 15.914 6.092 2.395z"/><path d="M77.676 47.254c69.375-15.938 86.625 6.187 129 6M99.989 32.442s27.75-7.875 49.875-1.688M57.426 66.192c68.25-33.717 154.876 28.125 198.563-15.75M36.426 176.629s-15.97-79.384 42.587-118.03m197.601 109.03c.592-21.54 4.755-68.45-37.692-105.435M35.121 167.981s-32.632-57.164-7.32-90.539m24.563-19.875c-6.938 7.313-17.812 10.687-24.563 19.875m99.188-71.438s-26.614 4.273-46.926 17.924c-15.076 10.13-23.806 23.993-27.699 33.639m180.562-29.625S181.551-3.371 126.988 6.004m148.876 57.563c9.952 13.109 29.062 52.876 4.5 92.438M232.926 27.942c14.625 9 21 2.438 42.937 35.625" fill="none" stroke="#000" stroke-width="8.504" stroke-linecap="round" stroke-linejoin="round" stroke-miterlimit="22.926"/></g><path fill-rule="evenodd" clip-rule="evenodd" fill="#e186ae" d="M156.044 228.028v138l-70.5-4-50-50.5-2.5-39 6-40 22-8z"/><path fill-rule="evenodd" clip-rule="evenodd" fill="#61f4e5" d="M266.044 223.028l-74-1.5-32 7.5-6 1.5 2.5 129 113.5-16 11.5-71z"/></g></g><g id="n1703"><g><path fill-rule="evenodd" clip-rule="evenodd" fill="#67559e" d="M172.539 328.079l-1.538-25.217-1.527-9.695 6.093-3.593.812-4.702-4.874-4.332-8.399-3.772-7.63.664-5.343 5.255-4.326 8.859-1.907 9.255-1.194 25.24.969 7.78 6.876-5.467 8.478-3.299 6.644.135 6.866 2.889z"/><path d="M141.557 333.377c3.375-15.416.186-57.44 21.549-56.609m-6.115 18.535c7.688.954 36.794-7.349 6.115-18.535m8.545 50.763s-.688-22.405-1.3-34.707" fill="none" stroke="#000" stroke-width="8.504" stroke-linecap="round" stroke-linejoin="round" stroke-miterlimit="22.926"/></g></g><g id="n1704"><g><path d="M6.947 133.833l-2.001-8.501.2-11.368 5.069-4.359 10.787-.528 40.15-.187 44.865.039 31.918.159s8.731 4.416 8.114 5.331c-.618.915 12.257 2.196 12.257 2.196l10.374-6.365 22.696-.865s21.125-2.463 21.143-1.465c.018.998 29.576.673 29.576.673l26.563.095 22.993.476 7.518 1.48 3.079 4.201-.282 9.15-1.271 7.238-4.56 4.157-1.303 8.838-2.526 12.616-8.14 24.864-4.42 8.025-6.111 4.749-11.968.603-17.414 1.18-13.273.359-15.465-.05-15.155-.496-6.784.05-3.488-.352-3.805-1.624-4.738-1.689-3.627-4.63-10.359-5.84-1.495-12.755-2.578-2.908-1.994-8.473-3.227-9.851-5.745-4.974-4.703 2.147-3.088 6.042-2.865 9.727-1.514 5.718-6.518 4.552-.794 8.126-4.826 11.068-8.04 2.618-2.831 1.881-28.007 1.667-31.058.27-20.336-1.831-9.784-5.646-6.278-12.156-5.456-16.953-2.128-13.459-2.829-10.28-4.518-2.69zm176.008-6.859l12.604-.498 15.932-.553 16.639-.493 17.647-.415 17.807-.214 7.111.023 5.365 5.482-.628 7.01-1.74 13.594-2.336 11.442-1.921 5.648-4.813 5.969-7.617 3.098-11.592 1.24-11.743.267-16.454-.324-13.263-.64-8.655-1.872-7.078-6.301-5.295-10.048-5.985-9.838-2.495-11.552.662-8.544 7.848-2.481zm-147.178-.696l-4.216 3.418-.117 8.545 1.211 9.124 1.961 11.541 3.207 10.503 4.959 5.676 9.431 2.767 10.61.258 15.266.269 13.451.066 12.858-.445 8.151-2.034 5.534-6.627 6.275-12.001 4.367-9.327 2.084-7.532-.304-9.304-4.832-3.393-10.428-.874-16.634-.492-16.127-.279-17.642-.188-15.958-.097-13.107.426z" fill-rule="evenodd" clip-rule="evenodd" fill="#4ab57e"/><path d="M13.606 109.128s100.293-.771 120.799.31m35.624.625c-6.381.377-6.693 7.036-16.391 7.348-10.339.331-11.987-8.052-19.233-7.972m35.624.624s67.178-2.69 123.813-.83m6.437 23.788s2.822-11.047 1.97-18.178c-.372-3.113-3.881-5.495-8.407-5.611m2.417 25.098s-4.015 38.036-17.45 56.763m-114.868-23.297c-1.946-5.366-4.065-25.101-11.418-24.766-6.246.285-7.522 6.04-12.508 24.916M13.606 109.128c-3.519.186-6.876.987-8.46 4.836-1.572 3.821-1.133 8.941 1.8 19.87m4.385 1.787s5.928 41.442 18.665 56.11m85.885 3.497s-75.05 5.307-84.027-2.56m149.252-65.616c31.411-1.34 71.549-2.412 86.335-2.231m8.619 5.484s-1.932 27.205-6.541 37.423m-2.079-42.907s8.772-1.281 8.619 5.485m-102.041 3.017s.138 2.683.975 9.342c.856 6.817 6.121 15.976 13.226 26.771m-7.113-42.384s-7.722.165-7.088 6.272m27.044 44.102s40.18 2.806 55.943-.36m12.513-9.337s-1.781 7.171-12.514 9.337m-55.942.36c-3.61-.384-9.769-2.613-12.843-7.99m-149.258-43.61s57.936.036 81.16 1.314m10.822 7.532c-.193-3.093.606-7.161-10.822-7.531m-3.615 45.027s7.889-13.803 13.024-26.038c1.616-3.849 1.216-5.662 1.413-11.458m-99.969-.504s2.763 26.049 6.022 33.333m1.965-41.675s-8.908-.395-7.987 8.341m21.238 43.685c4.554.115 43.356 1.188 51.747.157M36.996 167.5s3.129 10.339 15.217 10.352m51.746.157s9.344.112 12.547-5.84m23.56-8.155s-10.817 27.553-22.722 30.896" fill="none" stroke="#000" stroke-width="8.504" stroke-linecap="round" stroke-linejoin="round" stroke-miterlimit="22.926"/><path d="M163.489 166.328s8.866 25.605 32.537 29.507c0 0 45.238 3.029 79.796-2.538" fill="none" stroke="#000" stroke-width="8.504" stroke-linecap="round" stroke-linejoin="round" stroke-miterlimit="22.926"/></g></g><g id="n1705"><g><path d="M299.482 299.422l-.561-12.509-1.32-14.508-1.867-12.317 2.05-3.785-1.403-7.428-3.869-10.649-7.873-11.923-10.175-8.89-15.442-7.353-20.511-3.804-24.695.602-17.651 3.694-18.083 3.286-16.366 3.705-10.989-.284-12.734-3.141-14.257-3.005-18.522-2.48-15.93-.533-12.675.933-14.745 3.103-13.151 5.357-10.466 6.964-9.458 9.908-6.869 11.895-3.389 11.092s3.715 7.631 4.003 4.951c.288-2.681-1.026 11.212-1.026 11.212l-.916 16.839-.207 22.841.863 19.828 2.951 26.046 4.664 21.919 7.744 21.802 2.403 4.931 3.119 7.335 2.54 6.836 6.511 4.433 5.446-1.032 3.858-3.48 7.425-4.82 4.336 1.21 4.735 4.835 5.514 6.39 6.026 1.681 4.32-2.406 3.084-5.499 6.215-1.624 5.139 4.982 5.521 6.408 5.422.309 4.953-3.956 8.109-3.517 4.412 2.695 3.52 4.171 5.287 3.569 4.817-1.081 5.175-5.668 4.727-2.936 6.063 5.048 4.833 4.67 7.562-.046 5.12-6.198 5.672-4.037 7.662 3.94 7.333 6.393 6.774-.244 6.875-5.72 6.027-5.507 6.518-.903 8.551 5.181 6.589 4.582 5.579-.881 5.338-6.242 4.271-4.739 5.137 1.322 7.055 4.883 6.921-2.007 4.246-8.307 4.084-14.92 3.922-16.969 3.316-17.916 2.483-17.994 1.548-16.806.785-16.659-.003-17.058zm-58.697 13.817c-20 12.5-109 59-179.5-11.5 0 0-18-16.5-9-36s14.5-21 14.5-21 9 7.5 18 5 10.5-5.5 18-1c0 0-.5 9.5 8 8.5s11-5.5 20-3.5 36 .5 36 .5l33-5 21-4 11.5-8s7.588 8.44 12.639 6.753 12.861-.753 13.861 7.247 2 49.5-18 62z" fill-rule="evenodd" clip-rule="evenodd" fill="#f9d740"/><path fill-rule="evenodd" clip-rule="evenodd" fill="#e186ae" d="M190.11 205.348l-.785-9.275-6.394-9.417-10.334-9.066-9.304-5.643-11.91-3.181-13.606 4.856-8.472 5.541-11.175 7.771-5.044 9.051 1.39 13.889 11.266 1.61 16.041 3.436 14.187 2.92 10.6-.903 15.064-4.037 7.807-1.126.669-6.426z"/><path d="M73.075 315.829l6.636-6.834 7.086-9.257 6.455-5.137 9.617 1.493 5.52 6.503 6.405 1.663 7.235 9.091 10.39-1.259 9.592 3.311 8.163-2.149 10.596-5.566 9.257 1.042 8.604 6.805 7.896-4.018 10.732-3.082 9.256-5.031 9.803-5.768s7.461-9.285 7.878-8.241c.417 1.044 7.275.841 7.275.841l7.291 4.582 8.36 8.861-8.49 10.073-9.225 7.547-11.398 6.51-14.097 5.345-14.998 3.499-17.403 2.088-18.95.502-19.019-1.268-17.339-2.985-15.063-4.344-13.573-5.743-7.711-4.328-6.781-4.746zm7.737-62.778l7.033-2.896 5.882-5.918 5.307-2.934 6.943 3.57 4.981 5.162 4.958 2.376 5.823-1.574 5.607-5.396 4.313-2.451 4.812 2.078 4.981 4.097 5.903 1.441 7.531-5.138 6.021-4.165 7.071 3.308 9.6 3.499 5.701-3.411 5.104-8.365 5.67-.458 6.322 3.957 8.909 2.779 5.784-1.891 4.709-4.79 6.57-5.502 2.791 7.082-.917 8.379-2.255 8.181-3.268 4.994-6.227 2.876-9.208-1.19-5.208 5.529-9.159.94-8.576-3.565-6.666 1.926s-7.511.697-7.457 1.879c.053 1.182-10.019-1.342-10.019-1.342l-7.73-5.327s-4.344 2.472-5.294 2.892c-.95.419-11.098 2.379-11.098 2.379l-7.206-1.951-8.182-5.386-3.918 3.053-7.472 1.627-9.273-4.64-5.4 4.085-8.46-4.695-5.333-5.104z" fill-rule="evenodd" clip-rule="evenodd" fill="#f2f2f4"/><path d="M190.11 205.348c1.229-2.978 1.343-6.653-3.791-14.732-5.134-8.08-21.22-19.433-30.595-21.589 0 0-4.354-.885-8.625.469-8.906 2.719-22.469 10.824-28.969 17.438-6.5 6.613-6.197 14.956-4.495 19.383" fill="none" stroke="#000" stroke-width="8.504" stroke-linecap="round" stroke-linejoin="round" stroke-miterlimit="22.926"/><path d="M135.286 197.434c-.452 5.445-4.781 9.937-2.156 11.25 2.625 1.312 4.594-6.563 2.156-11.25zm28.612 1.369c6.158 3.579 9.843 11.572 6.712 12.772-3.317 1.271-5.277-5.692-6.712-12.772zm-83.086 54.248s3.711 5.602 13.793 9.797m-2.027-17.298s9.903 30.235 28.09 13.173m31.125 1.499s-12.938 14.251-31.125-1.499m61.125 3.374s-9.75 15.937-30-1.875m58.875-12.937s-.75 33.187-28.875 14.812m45.375-23.813c2.625 2.438 2.374 30.117-19.907 22.465M76.793 312.91c6.375-5.625 12.562-27 28.313-15.562M92.73 317.973s13.501-28.876 27.188-8.063m24.75 9s-16.313-19.125-31.126 3m66.189-4.875s-14.438-22.875-35.062 1.875m72.749 5.063s-13.875-30.563-37.688-6.938m20.909-8.589c7.312-2.625 12.467-25.536 33.467 2.964m10.5-10.5s-15.573-22.536-27.286-3.58M18.408 258.178s8.062-71.813 121.876-43.501m157.5 41.626c-1.125-8.438-9.62-75.738-128.56-39.932m-28.94-1.694c5.624.563 12.045 5.654 28.939 1.694m-49.001 143.244s38.25 8.625 70.125.75" fill="none" stroke="#000" stroke-width="8.504" stroke-linecap="round" stroke-linejoin="round" stroke-miterlimit="22.926"/><path d="M66.971 310.303c12.375 13.125 43.106 29.813 93 28.941 43.199-.755 76.585-13.21 91.875-43.566M37.534 247.865c5.062.375 5.98 4.71 11.241 4.051 4.661-.584 9.025-10.535 18.009-11.363m32.25.75c-6-.75-7.741 11.916-19.889 11.265-4.608-.247-5.541-11.693-12.361-12.015" fill="none" stroke="#000" stroke-width="8.504" stroke-linecap="round" stroke-linejoin="round" stroke-miterlimit="22.926"/><path d="M131.659 242.99c-5.813.938-7.433 9.842-15.744 9.421-6.533-.33-10.218-11.684-16.882-11.108m61.876 0c-6.187.188-5.722 8.703-14.624 9.436-5.734.471-9.948-8.212-14.625-7.748m94.686-12.563c7.158.7 9.599 13.557 18.578 13.563 6.721.005 11.31-9.959 22.485-8.126m-75.375 0c6.562-.938 7.684 7.464 17.25 6.746 10.687-.804 11.293-12.525 17.062-12.183m-65.437 10.875c6.188-.75 7.654 7.761 16.671 6.807 7.768-.822 7.467-11.359 14.454-12.244m-123.416 5.077s-35.209 34.298-1.646 69.36m183.003-67.999c11.438 5.812 13.496 30.686 1.872 53.374M22.534 262.303S10.722 360.365 41.659 412.49m253.875-153.375s14.812 66.75-12.188 158.625m-21.75 3.75c4.312.001 6.267 7.568 13.349 6.646 3.448-.449 5.558-2.475 8.401-10.396m-55.875 6.188c9.405-.842 11.62 10.125 18.985 9.937 9.035-.23 8.827-12.109 15.14-12.374m-73.125 4.499c8.438-.562 8.816 10.876 18.188 10.83 9.339-.046 12.315-13.675 20.812-12.893m-68.25 2.626c5.625.001 5.938 10.436 15.008 10.737 6.601.22 7.863-10.694 14.242-11.3m-57.187-.187c6 1.126 8.049 10.942 14.438 10.472 7.882-.58 8.622-10.906 13.499-9.722m-58.5-5.25c7.125.562 6.915 11.652 14.652 12.393 6.615.634 8.657-9.441 15.911-7.893" fill="none" stroke="#000" stroke-width="8.504" stroke-linecap="round" stroke-linejoin="round" stroke-miterlimit="22.926"/><path d="M67.909 416.99c9.375-.187 10.7 15.316 20.611 14.116 7.513-.911 4.246-10.11 12.202-9.803m-59.063-8.813c1.008 6.48 3.353 14.106 11.299 13.935 6.499-.14 8.631-9.068 14.951-9.435" fill="none" stroke="#000" stroke-width="8.504" stroke-linecap="round" stroke-linejoin="round" stroke-miterlimit="22.926"/></g></g></svg>