<?xml version="1.0" encoding="utf-8"?>
<!-- Generator: Adobe Illustrator 19.2.1, SVG Export Plug-In . SVG Version: 6.00 Build 0)  -->
<svg version="1.1" xmlns="http://www.w3.org/2000/svg" xmlns:xlink="http://www.w3.org/1999/xlink" x="0px" y="0px"
	 viewBox="0 0 311.36 577.697" style="enable-background:new 0 0 311.36 577.697;" xml:space="preserve">
<g id="n1701">
	<g>
		<polygon style="fill-rule:evenodd;clip-rule:evenodd;fill:#4AB57E;" points="31.215,501.311 35.843,497.316 52.836,488.094 
			75.668,473.551 88.278,466.026 106.735,456.647 116.461,466.331 123.616,471.417 135.124,477.048 152.108,480.743 
			171.842,479.688 193.181,472.963 202.535,466.014 209.154,455.374 218.142,456.751 231.84,462.558 245.165,468.374 
			259.712,474.956 274.404,481.996 285.647,487.921 292.966,492.499 295.029,497.186 289.091,507.053 278.433,521.672 
			264.685,536.383 249.167,548.966 230.177,560.05 208.259,568.316 184.885,572.918 165.29,574.029 144.581,572.481 
			121.335,566.992 101.311,558.949 80.496,547.115 64.659,535.508 48.588,521.065 38.452,510.238 31.215,501.311 		"/>
		<path style="fill-rule:evenodd;clip-rule:evenodd;fill:#E186AE;" d="M133.403,370.121c0,0,28.126-8.626,56.813,0.562
			c-0.514,8.034-0.628,11.417-0.628,11.417l0.065,37.707l0.701,9.44l2.549,12.9l5.502,10.083l9.159,5.697l-3.175,5.105l-8.555,7.959
			l-17.041,7.318l-23.247,2.583l-17.023-2.694l-14.907-6.783l-9.229-7.15l-2.546-6.268l8.137-3.685l7.738-8.898l4.333-13.875
			l1.096-11.017l0.229-42.526L133.403,370.121L133.403,370.121z"/>
		
			<path style="fill:none;stroke:#000000;stroke-width:8.5039;stroke-linecap:round;stroke-linejoin:round;stroke-miterlimit:22.9256;" d="
			M143.521,493.27c0,0,32.45,6.499,44.623-0.837"/>
		
			<path style="fill:none;stroke:#000000;stroke-width:8.5039;stroke-linecap:round;stroke-linejoin:round;stroke-miterlimit:22.9256;" d="
			M106.51,455.467c3.198,5.244,21.801,25.567,51.45,24.851c20.992-0.506,44.549-6.862,51.112-25.614"/>
		
			<path style="fill:none;stroke:#000000;stroke-width:8.5039;stroke-linecap:round;stroke-linejoin:round;stroke-miterlimit:22.9256;" d="
			M190.019,370.051c0,0-5.512,83.763,15.302,84.66"/>
		
			<path style="fill:none;stroke:#000000;stroke-width:8.5039;stroke-linecap:round;stroke-linejoin:round;stroke-miterlimit:22.9256;" d="
			M133.205,369.6c-0.328,23.813,3.108,81.309-21.441,87.92"/>
		
			<path style="fill:none;stroke:#000000;stroke-width:8.5039;stroke-linecap:round;stroke-linejoin:round;stroke-miterlimit:22.9256;" d="
			M213.383,454.133c0,0,63.613,25.938,79.574,37.532"/>
		
			<path style="fill:none;stroke:#000000;stroke-width:8.5039;stroke-linecap:round;stroke-linejoin:round;stroke-miterlimit:22.9256;" d="
			M295.028,496.348c-19.992,36.039-59.401,76.973-129.588,77.096c-71.842,0.126-121.243-55.118-134.217-72.456"/>
		
			<path style="fill:none;stroke:#000000;stroke-width:8.5039;stroke-linecap:round;stroke-linejoin:round;stroke-miterlimit:22.9256;" d="
			M104.264,457.534c-27.539,12.054-47.753,30.468-70.234,40.261"/>
		
			<path style="fill:none;stroke:#000000;stroke-width:8.5039;stroke-linecap:round;stroke-linejoin:round;stroke-miterlimit:22.9256;" d="
			M112.124,450.018c0,0-0.694,0.741-3.081,3.45"/>
	</g>
</g>
<g id="n1702">
	<g id="n0103">
	</g>
	<g>
		<g>
			<polygon style="fill-rule:evenodd;clip-rule:evenodd;fill:#61F4E5;" points="33.475,163.787 34.68,176.262 36.578,192.713 
				37.698,207.232 40.103,219.867 35.364,230.786 31.139,237.613 36.452,240.587 32.195,250.153 29.873,258.583 28.814,264.741 
				21.853,263.299 15.585,258.464 14.371,250.479 15.687,243.465 15.744,237.52 12.202,221.863 7.207,198.763 6.312,184.727 
				9.8,170.538 14.948,165.052 25.324,162.402 33.475,163.787 			"/>
			<polygon style="fill-rule:evenodd;clip-rule:evenodd;fill:#FFFFFF;" points="36.452,240.587 40.861,233.948 271.276,230.863 
				276.084,238.225 279.543,234.614 278.265,223.536 273.402,211.543 267.795,204.624 271.637,191.751 275.475,170.888 
				276.723,149.307 275.387,130.507 271.367,111.492 263.576,91.49 252.617,73.663 239.037,58.559 218.78,44.376 196.77,36.157 
				174.381,32.812 151.876,32.792 132.574,34.533 111.525,38.794 91.782,45.997 76.991,54.468 62.99,66.395 50.497,83.064 
				42.156,99.626 36.589,116.492 33.98,130.39 32.935,143.586 33.362,162.24 35.28,181.462 37.138,199.972 37.65,211.8 
				38.044,222.028 32.864,227.286 31.185,236.516 36.452,240.587 			"/>
			<polygon style="fill-rule:evenodd;clip-rule:evenodd;fill:#F9D740;" points="275.758,166.005 284.153,163.298 294.538,163.958 
				302.488,169.047 306.759,179.781 306.991,188.665 304.854,202.224 302.265,211.738 299.172,222.402 296.661,234.643 
				296.118,245.189 297.521,254.305 295.248,261.838 289.688,265.121 281.771,265.891 281.243,256.122 279.352,245.882 
				277.813,236.419 280.327,230.864 277.803,221.709 273.402,211.543 267.795,204.624 271.637,191.751 273.556,181.32 
				275.266,172.023 275.758,166.005 			"/>
			
				<path style="fill:none;stroke:#000000;stroke-width:8.5039;stroke-linecap:round;stroke-linejoin:round;stroke-miterlimit:22.9256;" d="
				M34.112,245.278c0,0,0.002-51.38,62.539-51.546"/>
			
				<path style="fill:none;stroke:#000000;stroke-width:8.5039;stroke-linecap:round;stroke-linejoin:round;stroke-miterlimit:22.9256;" d="
				M208.651,193.065c0,0,74.489-8.704,70.739,47.172"/>
			
				<path style="fill:none;stroke:#000000;stroke-width:8.5039;stroke-linecap:round;stroke-linejoin:round;stroke-miterlimit:22.9256;" d="
				M55.514,75.237c15.374-20.625,41.995-39.189,93.019-42.261c29.439-1.771,70.646-0.748,101.232,37.011"/>
			
				<path style="fill:none;stroke:#000000;stroke-width:8.5039;stroke-linecap:round;stroke-linejoin:round;stroke-miterlimit:22.9256;" d="
				M267.795,204.624c0,0,29.22-76.138-18.03-134.638"/>
			
				<path style="fill:none;stroke:#000000;stroke-width:8.5039;stroke-linecap:round;stroke-linejoin:round;stroke-miterlimit:22.9256;" d="
				M37.603,216.367c2.25-36.376-20.714-84.881,17.911-141.131"/>
			
				<path style="fill:none;stroke:#000000;stroke-width:8.5039;stroke-linecap:round;stroke-linejoin:round;stroke-miterlimit:22.9256;" d="
				M276.086,165.077c0,0,45.679-16.716,26.179,46.66"/>
			
				<path style="fill:none;stroke:#000000;stroke-width:8.5039;stroke-linecap:round;stroke-linejoin:round;stroke-miterlimit:22.9256;" d="
				M296.64,248.113c0,0-3.375-8.25,5.625-36.375"/>
			
				<path style="fill:none;stroke:#000000;stroke-width:8.5039;stroke-linecap:round;stroke-linejoin:round;stroke-miterlimit:22.9256;" d="
				M282.015,265.362c0,0,19.875,3.75,14.625-17.249"/>
			
				<path style="fill:none;stroke:#000000;stroke-width:8.5039;stroke-linecap:round;stroke-linejoin:round;stroke-miterlimit:22.9256;" d="
				M295.339,180.261c0,0-15.949,19.102-3.574,34.477"/>
			
				<path style="fill:none;stroke:#000000;stroke-width:8.5039;stroke-linecap:round;stroke-linejoin:round;stroke-miterlimit:22.9256;" d="
				M282.765,230.863c4.499-3.875,12.375-9.375,9-16.125"/>
			
				<path style="fill:none;stroke:#000000;stroke-width:8.5039;stroke-linecap:round;stroke-linejoin:round;stroke-miterlimit:22.9256;" d="
				M33.475,163.787c0,0-38.993-14.207-23.618,48.23"/>
			
				<path style="fill:none;stroke:#000000;stroke-width:8.5039;stroke-linecap:round;stroke-linejoin:round;stroke-miterlimit:22.9256;" d="
				M28.607,266.393c-16.378-6.823-15.7-9.534-12.92-22.928c1.375-6.621-2.925-17.689-5.83-31.447"/>
			
				<path style="fill:none;stroke:#000000;stroke-width:8.5039;stroke-linecap:round;stroke-linejoin:round;stroke-miterlimit:22.9256;" d="
				M19.339,177.857c4.688,11.438,9.333,12.406,5.143,27.975"/>
			
				<path style="fill:none;stroke:#000000;stroke-width:8.5039;stroke-linecap:round;stroke-linejoin:round;stroke-miterlimit:22.9256;" d="
				M32.248,230.67c0,0-19.7-7.465-7.767-24.839"/>
		</g>
		<g>
			<polygon style="fill-rule:evenodd;clip-rule:evenodd;" points="83.777,146.309 90.6,141.627 95.191,139.73 97.303,130.165 
				97.186,121.356 92.1,115.925 84.638,116.796 79.716,122.48 78.325,128.221 77.067,138.885 76.16,158.022 76,171.135 
				76.084,184.827 76.27,193.882 84.975,192.42 92.365,191.685 96.217,191.476 96.822,180.402 95.93,171.522 89.594,163.871 
				82.551,156.552 81.247,148.716 83.777,146.309 			"/>
			<polygon style="fill-rule:evenodd;clip-rule:evenodd;" points="210.613,151.517 211.031,139.124 211.76,126.985 213.937,118.93 
				220.649,114.735 229.176,115.579 233.615,120.548 234.697,126.965 234.679,136.709 234.36,141.855 227.981,144.944 
				222.875,149.064 218.369,153.856 221.73,160.857 226.421,165.173 231.568,170.03 233.501,173.73 233.171,180.361 
				231.949,189.684 224.939,189.985 217.882,190.679 209.998,191.888 210.052,184.51 210.199,172.146 210.405,160.327 
				210.613,151.517 			"/>
			
				<path style="fill:none;stroke:#000000;stroke-width:8.5039;stroke-linecap:round;stroke-linejoin:round;stroke-miterlimit:22.9256;" d="
				M80.547,97.886c0,0,14.616-25.313,34.391-19.5"/>
			
				<path style="fill:none;stroke:#000000;stroke-width:8.5039;stroke-linecap:round;stroke-linejoin:round;stroke-miterlimit:22.9256;" d="
				M194.897,78.386c0,0,22.526-10.687,43.333,19.5"/>
			
				<path style="fill:none;stroke:#000000;stroke-width:8.5039;stroke-linecap:round;stroke-linejoin:round;stroke-miterlimit:22.9256;" d="
				M79.716,122.48c1.204-5.062,11.692-11.812,17.195-2.062"/>
			
				<path style="fill:none;stroke:#000000;stroke-width:8.5039;stroke-linecap:round;stroke-linejoin:round;stroke-miterlimit:22.9256;" d="
				M76.27,193.882c0,0-1.713-56.964,3.445-71.402"/>
			
				<path style="fill:none;stroke:#000000;stroke-width:8.5039;stroke-linecap:round;stroke-linejoin:round;stroke-miterlimit:22.9256;" d="
				M95.191,139.73c0,0,4.044-12.592,1.72-19.313"/>
			
				<path style="fill:none;stroke:#000000;stroke-width:8.5039;stroke-linecap:round;stroke-linejoin:round;stroke-miterlimit:22.9256;" d="
				M80.059,150.042c0,0,6.018-7.5,15.132-10.312"/>
			
				<path style="fill:none;stroke:#000000;stroke-width:8.5039;stroke-linecap:round;stroke-linejoin:round;stroke-miterlimit:22.9256;" d="
				M95.191,169.542c-4.815-6-15.304-12.375-15.132-19.5"/>
			
				<path style="fill:none;stroke:#000000;stroke-width:8.5039;stroke-linecap:round;stroke-linejoin:round;stroke-miterlimit:22.9256;" d="
				M96.217,191.476c0,0,1.898-16.309-1.025-21.934"/>
			
				<path style="fill:none;stroke:#000000;stroke-width:8.5039;stroke-linecap:round;stroke-linejoin:round;stroke-miterlimit:22.9256;" d="
				M212.522,121.793c2.063-8.062,17.71-11.625,21.494-0.188"/>
			
				<path style="fill:none;stroke:#000000;stroke-width:8.5039;stroke-linecap:round;stroke-linejoin:round;stroke-miterlimit:22.9256;" d="
				M209.998,191.888c0,0,0.29-62.971,2.525-70.096"/>
			
				<path style="fill:none;stroke:#000000;stroke-width:8.5039;stroke-linecap:round;stroke-linejoin:round;stroke-miterlimit:22.9256;" d="
				M234.36,141.855c0,0,1.205-13.875-0.343-20.25"/>
			
				<path style="fill:none;stroke:#000000;stroke-width:8.5039;stroke-linecap:round;stroke-linejoin:round;stroke-miterlimit:22.9256;" d="
				M218.369,153.856c0,0,7.737-9.75,15.991-12.001"/>
			
				<path style="fill:none;stroke:#000000;stroke-width:8.5039;stroke-linecap:round;stroke-linejoin:round;stroke-miterlimit:22.9256;" d="
				M233.501,173.73c0-5.25-16.998-13.717-15.132-19.874"/>
			
				<path style="fill:none;stroke:#000000;stroke-width:8.5039;stroke-linecap:round;stroke-linejoin:round;stroke-miterlimit:22.9256;" d="
				M231.949,189.684c0,0,1.38-6.579,1.552-15.954"/>
		</g>
		<g>
			<polygon style="fill-rule:evenodd;clip-rule:evenodd;fill:#4AB57E;" points="238.922,62.194 248.757,56.511 255.989,50.442 
				261.738,45.032 269.322,54.203 276.973,65.086 283.337,76.088 288.594,89.61 291.616,103.423 292.3,118.004 290.025,133.506 
				285.766,145.81 281.839,153.539 276.99,153.503 276.771,142.614 275.132,127.08 271.691,112.193 264.854,95.092 257.359,82.569 
				248.789,71.843 238.922,62.194 			"/>
			<polygon style="fill-rule:evenodd;clip-rule:evenodd;fill:#67559E;" points="34.488,156.27 34.925,139.92 37.274,123.136 
				42.968,103.658 51.523,84.66 64.09,70.789 77.167,59.848 91.869,56.464 107.585,55.64 126.588,56.584 146.994,59.124 
				170.007,62.782 189.086,65.496 209.773,66.853 226.446,65.459 238.922,62.194 250.263,55.247 261.365,44.637 252.626,37.278 
				243.148,31.785 228.553,25.498 211.611,17.626 189.199,10.036 162.093,4.964 138.896,4.571 117.285,8.131 94.739,15.907 
				78.816,24.783 66.191,35.933 58.632,45.707 52.364,57.567 44.783,63.679 32.608,72.259 25.269,81.169 19.713,95.032 18.18,109.6 
				19.084,121.41 22.739,137.961 28.396,153.875 34.488,156.27 			"/>
			
				<path style="fill:none;stroke:#000000;stroke-width:8.5039;stroke-linecap:round;stroke-linejoin:round;stroke-miterlimit:22.9256;" d="
				M77.676,47.254c69.375-15.938,86.625,6.187,129,6"/>
			
				<path style="fill:none;stroke:#000000;stroke-width:8.5039;stroke-linecap:round;stroke-linejoin:round;stroke-miterlimit:22.9256;" d="
				M99.989,32.442c0,0,27.75-7.875,49.875-1.688"/>
			
				<path style="fill:none;stroke:#000000;stroke-width:8.5039;stroke-linecap:round;stroke-linejoin:round;stroke-miterlimit:22.9256;" d="
				M57.426,66.192c68.25-33.717,154.876,28.125,198.563-15.75"/>
			
				<path style="fill:none;stroke:#000000;stroke-width:8.5039;stroke-linecap:round;stroke-linejoin:round;stroke-miterlimit:22.9256;" d="
				M36.426,176.629c0,0-15.97-79.384,42.587-118.03"/>
			
				<path style="fill:none;stroke:#000000;stroke-width:8.5039;stroke-linecap:round;stroke-linejoin:round;stroke-miterlimit:22.9256;" d="
				M276.614,167.629c0.592-21.54,4.755-68.45-37.692-105.435"/>
			
				<path style="fill:none;stroke:#000000;stroke-width:8.5039;stroke-linecap:round;stroke-linejoin:round;stroke-miterlimit:22.9256;" d="
				M35.121,167.981c0,0-32.632-57.164-7.32-90.539"/>
			
				<path style="fill:none;stroke:#000000;stroke-width:8.5039;stroke-linecap:round;stroke-linejoin:round;stroke-miterlimit:22.9256;" d="
				M52.364,57.567c-6.938,7.313-17.812,10.687-24.563,19.875"/>
			
				<path style="fill:none;stroke:#000000;stroke-width:8.5039;stroke-linecap:round;stroke-linejoin:round;stroke-miterlimit:22.9256;" d="
				M126.989,6.004c0,0-26.614,4.273-46.926,17.924c-15.076,10.13-23.806,23.993-27.699,33.639"/>
			
				<path style="fill:none;stroke:#000000;stroke-width:8.5039;stroke-linecap:round;stroke-linejoin:round;stroke-miterlimit:22.9256;" d="
				M232.926,27.942c0,0-51.375-31.313-105.938-21.938"/>
			
				<path style="fill:none;stroke:#000000;stroke-width:8.5039;stroke-linecap:round;stroke-linejoin:round;stroke-miterlimit:22.9256;" d="
				M275.864,63.567c9.952,13.109,29.062,52.876,4.5,92.438"/>
			
				<path style="fill:none;stroke:#000000;stroke-width:8.5039;stroke-linecap:round;stroke-linejoin:round;stroke-miterlimit:22.9256;" d="
				M232.926,27.942c14.625,9,21,2.438,42.937,35.625"/>
		</g>
		<polygon style="fill-rule:evenodd;clip-rule:evenodd;fill:#E186AE;" points="156.044,228.028 156.044,366.028 85.544,362.028 
			35.544,311.528 33.044,272.528 39.044,232.528 61.044,224.528 		"/>
		<polygon style="fill-rule:evenodd;clip-rule:evenodd;fill:#61F4E5;" points="266.044,223.028 192.044,221.528 160.044,229.028 
			154.044,230.528 156.544,359.528 270.044,343.528 281.544,272.528 		"/>
	</g>
</g>
<g id="n1703">
	<g>
		<polygon style="fill-rule:evenodd;clip-rule:evenodd;fill:#67559E;" points="172.539,328.079 171.001,302.862 169.474,293.167 
			175.567,289.574 176.379,284.872 171.505,280.54 163.106,276.768 155.476,277.432 150.133,282.687 145.807,291.546 143.9,300.801 
			142.706,326.041 143.675,333.821 150.551,328.354 159.029,325.055 165.673,325.19 172.539,328.079 		"/>
		
			<path style="fill:none;stroke:#000000;stroke-width:8.5039;stroke-linecap:round;stroke-linejoin:round;stroke-miterlimit:22.9256;" d="
			M141.557,333.377c3.375-15.416,0.186-57.44,21.549-56.609"/>
		
			<path style="fill:none;stroke:#000000;stroke-width:8.5039;stroke-linecap:round;stroke-linejoin:round;stroke-miterlimit:22.9256;" d="
			M156.991,295.303c7.688,0.954,36.794-7.349,6.115-18.535"/>
		
			<path style="fill:none;stroke:#000000;stroke-width:8.5039;stroke-linecap:round;stroke-linejoin:round;stroke-miterlimit:22.9256;" d="
			M171.651,327.531c0,0-0.688-22.405-1.3-34.707"/>
	</g>
</g>
<g id="n1704">
	<g>
		<path style="fill-rule:evenodd;clip-rule:evenodd;fill:#4AB57E;" d="M6.947,133.833l-2.001-8.501l0.2-11.368l5.069-4.359
			l10.787-0.528l40.15-0.187l44.865,0.039l31.918,0.159c0,0,8.731,4.416,8.114,5.331c-0.618,0.915,12.257,2.196,12.257,2.196
			l10.374-6.365l22.696-0.865c0,0,21.125-2.463,21.143-1.465c0.018,0.998,29.576,0.673,29.576,0.673l26.563,0.095l22.993,0.476
			l7.518,1.48l3.079,4.201l-0.282,9.15l-1.271,7.238l-4.56,4.157l-1.303,8.838l-2.526,12.616l-8.14,24.864l-4.42,8.025l-6.111,4.749
			l-11.968,0.603l-17.414,1.18l-13.273,0.359l-15.465-0.05l-15.155-0.496l-6.784,0.05l-3.488-0.352l-3.805-1.624l-4.738-1.689
			l-3.627-4.63l-10.359-5.84l-1.495-12.755l-2.578-2.908l-1.994-8.473l-3.227-9.851l-5.745-4.974l-4.703,2.147l-3.088,6.042
			l-2.865,9.727l-1.514,5.718l-6.518,4.552l-0.794,8.126l-4.826,11.068l-8.04,2.618l-2.831,1.881l-28.007,1.667l-31.058,0.27
			l-20.336-1.831l-9.784-5.646l-6.278-12.156l-5.456-16.953l-2.128-13.459l-2.829-10.28L6.947,133.833L6.947,133.833z
			 M182.955,126.974l12.604-0.498l15.932-0.553l16.639-0.493l17.647-0.415l17.807-0.214l7.111,0.023l5.365,5.482l-0.628,7.01
			l-1.74,13.594l-2.336,11.442L269.435,168l-4.813,5.969l-7.617,3.098l-11.592,1.24l-11.743,0.267l-16.454-0.324l-13.263-0.64
			l-8.655-1.872l-7.078-6.301l-5.295-10.048l-5.985-9.838l-2.495-11.552l0.662-8.544L182.955,126.974L182.955,126.974z
			 M35.777,126.278l-4.216,3.418l-0.117,8.545l1.211,9.124l1.961,11.541l3.207,10.503l4.959,5.676l9.431,2.767l10.61,0.258
			l15.266,0.269l13.451,0.066L104.398,178l8.151-2.034l5.534-6.627l6.275-12.001l4.367-9.327l2.084-7.532l-0.304-9.304l-4.832-3.393
			l-10.428-0.874l-16.634-0.492l-16.127-0.279l-17.642-0.188l-15.958-0.097L35.777,126.278L35.777,126.278z"/>
		
			<path style="fill:none;stroke:#000000;stroke-width:8.5039;stroke-linecap:round;stroke-linejoin:round;stroke-miterlimit:22.9256;" d="
			M13.606,109.128c0,0,100.293-0.771,120.799,0.31"/>
		
			<path style="fill:none;stroke:#000000;stroke-width:8.5039;stroke-linecap:round;stroke-linejoin:round;stroke-miterlimit:22.9256;" d="
			M170.029,110.063c-6.381,0.377-6.693,7.036-16.391,7.348c-10.339,0.331-11.987-8.052-19.233-7.972"/>
		
			<path style="fill:none;stroke:#000000;stroke-width:8.5039;stroke-linecap:round;stroke-linejoin:round;stroke-miterlimit:22.9256;" d="
			M170.029,110.063c0,0,67.178-2.69,123.813-0.83"/>
		
			<path style="fill:none;stroke:#000000;stroke-width:8.5039;stroke-linecap:round;stroke-linejoin:round;stroke-miterlimit:22.9256;" d="
			M300.279,133.021c0,0,2.822-11.047,1.97-18.178c-0.372-3.113-3.881-5.495-8.407-5.611"/>
		
			<path style="fill:none;stroke:#000000;stroke-width:8.5039;stroke-linecap:round;stroke-linejoin:round;stroke-miterlimit:22.9256;" d="
			M296.259,134.33c0,0-4.015,38.036-17.45,56.763"/>
		
			<path style="fill:none;stroke:#000000;stroke-width:8.5039;stroke-linecap:round;stroke-linejoin:round;stroke-miterlimit:22.9256;" d="
			M163.941,167.796c-1.946-5.366-4.065-25.101-11.418-24.766c-6.246,0.285-7.522,6.04-12.508,24.916"/>
		
			<path style="fill:none;stroke:#000000;stroke-width:8.5039;stroke-linecap:round;stroke-linejoin:round;stroke-miterlimit:22.9256;" d="
			M13.606,109.128c-3.519,0.186-6.876,0.987-8.46,4.836c-1.572,3.821-1.133,8.941,1.8,19.87"/>
		
			<path style="fill:none;stroke:#000000;stroke-width:8.5039;stroke-linecap:round;stroke-linejoin:round;stroke-miterlimit:22.9256;" d="
			M11.331,135.621c0,0,5.928,41.442,18.665,56.11"/>
		
			<path style="fill:none;stroke:#000000;stroke-width:8.5039;stroke-linecap:round;stroke-linejoin:round;stroke-miterlimit:22.9256;" d="
			M115.881,195.228c0,0-75.05,5.307-84.027-2.56"/>
		
			<path style="fill:none;stroke:#000000;stroke-width:8.5039;stroke-linecap:round;stroke-linejoin:round;stroke-miterlimit:22.9256;" d="
			M181.106,127.052c31.411-1.34,71.549-2.412,86.335-2.231"/>
		
			<path style="fill:none;stroke:#000000;stroke-width:8.5039;stroke-linecap:round;stroke-linejoin:round;stroke-miterlimit:22.9256;" d="
			M276.06,130.305c0,0-1.932,27.205-6.541,37.423"/>
		
			<path style="fill:none;stroke:#000000;stroke-width:8.5039;stroke-linecap:round;stroke-linejoin:round;stroke-miterlimit:22.9256;" d="
			M267.44,124.821c0,0,8.772-1.281,8.619,5.485"/>
		
			<path style="fill:none;stroke:#000000;stroke-width:8.5039;stroke-linecap:round;stroke-linejoin:round;stroke-miterlimit:22.9256;" d="
			M174.018,133.323c0,0,0.138,2.683,0.975,9.342c0.856,6.817,6.121,15.976,13.226,26.771"/>
		
			<path style="fill:none;stroke:#000000;stroke-width:8.5039;stroke-linecap:round;stroke-linejoin:round;stroke-miterlimit:22.9256;" d="
			M181.106,127.052c0,0-7.722,0.165-7.088,6.272"/>
		
			<path style="fill:none;stroke:#000000;stroke-width:8.5039;stroke-linecap:round;stroke-linejoin:round;stroke-miterlimit:22.9256;" d="
			M201.062,177.426c0,0,40.18,2.806,55.943-0.36"/>
		
			<path style="fill:none;stroke:#000000;stroke-width:8.5039;stroke-linecap:round;stroke-linejoin:round;stroke-miterlimit:22.9256;" d="
			M269.518,167.729c0,0-1.781,7.171-12.514,9.337"/>
		
			<path style="fill:none;stroke:#000000;stroke-width:8.5039;stroke-linecap:round;stroke-linejoin:round;stroke-miterlimit:22.9256;" d="
			M201.062,177.426c-3.61-0.384-9.769-2.613-12.843-7.99"/>
		
			<path style="fill:none;stroke:#000000;stroke-width:8.5039;stroke-linecap:round;stroke-linejoin:round;stroke-miterlimit:22.9256;" d="
			M38.961,125.826c0,0,57.936,0.036,81.16,1.314"/>
		
			<path style="fill:none;stroke:#000000;stroke-width:8.5039;stroke-linecap:round;stroke-linejoin:round;stroke-miterlimit:22.9256;" d="
			M130.943,134.672c-0.193-3.093,0.606-7.161-10.822-7.531"/>
		
			<path style="fill:none;stroke:#000000;stroke-width:8.5039;stroke-linecap:round;stroke-linejoin:round;stroke-miterlimit:22.9256;" d="
			M116.506,172.168c0,0,7.889-13.803,13.024-26.038c1.616-3.849,1.216-5.662,1.413-11.458"/>
		
			<path style="fill:none;stroke:#000000;stroke-width:8.5039;stroke-linecap:round;stroke-linejoin:round;stroke-miterlimit:22.9256;" d="
			M30.974,134.168c0,0,2.763,26.049,6.022,33.333"/>
		
			<path style="fill:none;stroke:#000000;stroke-width:8.5039;stroke-linecap:round;stroke-linejoin:round;stroke-miterlimit:22.9256;" d="
			M38.961,125.826c0,0-8.908-0.395-7.987,8.341"/>
		
			<path style="fill:none;stroke:#000000;stroke-width:8.5039;stroke-linecap:round;stroke-linejoin:round;stroke-miterlimit:22.9256;" d="
			M52.212,177.852c4.554,0.115,43.356,1.188,51.747,0.157"/>
		
			<path style="fill:none;stroke:#000000;stroke-width:8.5039;stroke-linecap:round;stroke-linejoin:round;stroke-miterlimit:22.9256;" d="
			M36.996,167.5c0,0,3.129,10.339,15.217,10.352"/>
		
			<path style="fill:none;stroke:#000000;stroke-width:8.5039;stroke-linecap:round;stroke-linejoin:round;stroke-miterlimit:22.9256;" d="
			M103.959,178.009c0,0,9.344,0.112,12.547-5.84"/>
		
			<path style="fill:none;stroke:#000000;stroke-width:8.5039;stroke-linecap:round;stroke-linejoin:round;stroke-miterlimit:22.9256;" d="
			M140.066,164.014c0,0-10.817,27.553-22.722,30.896"/>
		
			<path style="fill:none;stroke:#000000;stroke-width:8.5039;stroke-linecap:round;stroke-linejoin:round;stroke-miterlimit:22.9256;" d="
			M163.489,166.328c0,0,8.866,25.605,32.537,29.507c0,0,45.238,3.029,79.796-2.538"/>
	</g>
</g>
<g id="n1705">
	<g>
		<path style="fill-rule:evenodd;clip-rule:evenodd;fill:#F9D740;" d="M299.482,299.422l-0.561-12.509l-1.32-14.508l-1.867-12.317
			l2.05-3.785l-1.403-7.428l-3.869-10.649l-7.873-11.923l-10.175-8.89l-15.442-7.353l-20.511-3.804l-24.695,0.602l-17.651,3.694
			l-18.083,3.286l-16.366,3.705l-10.989-0.284l-12.734-3.141l-14.257-3.005l-18.522-2.48l-15.93-0.533l-12.675,0.933l-14.745,3.103
			l-13.151,5.357l-10.466,6.964l-9.458,9.908L21.92,246.26l-3.389,11.092c0,0,3.715,7.631,4.003,4.951
			c0.288-2.681-1.026,11.212-1.026,11.212l-0.916,16.839l-0.207,22.841l0.863,19.828l2.951,26.046l4.664,21.919l7.744,21.802
			l2.403,4.931l3.119,7.335l2.54,6.836l6.511,4.433l5.446-1.032l3.858-3.48l7.425-4.82l4.336,1.21l4.735,4.835l5.514,6.39
			l6.026,1.681l4.32-2.406l3.084-5.499l6.215-1.624l5.139,4.982l5.521,6.408l5.422,0.309l4.953-3.956l8.109-3.517l4.412,2.695
			l3.52,4.171l5.287,3.569l4.817-1.081l5.175-5.668l4.727-2.936l6.063,5.048l4.833,4.67l7.562-0.046l5.12-6.198l5.672-4.037
			l7.662,3.94l7.333,6.393l6.774-0.244l6.875-5.72l6.027-5.507l6.518-0.903l8.551,5.181l6.589,4.582l5.579-0.881l5.338-6.242
			l4.271-4.739l5.137,1.322l7.055,4.883l6.921-2.007l4.246-8.307l4.084-14.92l3.922-16.969l3.316-17.916l2.483-17.994l1.548-16.806
			l0.785-16.659L299.482,299.422z M240.785,313.239c-20,12.5-109,59-179.5-11.5c0,0-18-16.5-9-36s14.5-21,14.5-21s9,7.5,18,5
			s10.5-5.5,18-1c0,0-0.5,9.5,8,8.5s11-5.5,20-3.5s36,0.5,36,0.5l33-5l21-4l11.5-8c0,0,7.588,8.44,12.639,6.753
			s12.861-0.753,13.861,7.247S260.785,300.739,240.785,313.239z"/>
		<polygon style="fill-rule:evenodd;clip-rule:evenodd;fill:#E186AE;" points="190.11,205.348 189.325,196.073 182.931,186.656 
			172.597,177.59 163.293,171.947 151.383,168.766 137.777,173.622 129.305,179.163 118.13,186.934 113.086,195.985 
			114.476,209.874 125.742,211.484 141.783,214.92 155.97,217.84 166.57,216.937 181.634,212.9 189.441,211.774 190.11,205.348 		
			"/>
		<path style="fill-rule:evenodd;clip-rule:evenodd;fill:#F2F2F4;" d="M73.075,315.829l6.636-6.834l7.086-9.257l6.455-5.137
			l9.617,1.493l5.52,6.503l6.405,1.663l7.235,9.091l10.39-1.259l9.592,3.311l8.163-2.149l10.596-5.566l9.257,1.042l8.604,6.805
			l7.896-4.018l10.732-3.082l9.256-5.031l9.803-5.768c0,0,7.461-9.285,7.878-8.241c0.417,1.044,7.275,0.841,7.275,0.841l7.291,4.582
			l8.36,8.861l-8.49,10.073l-9.225,7.547l-11.398,6.51l-14.097,5.345l-14.998,3.499l-17.403,2.088l-18.95,0.502l-19.019-1.268
			l-17.339-2.985l-15.063-4.344l-13.573-5.743l-7.711-4.328L73.075,315.829L73.075,315.829z"/>
		<path style="fill-rule:evenodd;clip-rule:evenodd;fill:#F2F2F4;" d="M80.812,253.051l7.033-2.896l5.882-5.918l5.307-2.934
			l6.943,3.57l4.981,5.162l4.958,2.376l5.823-1.574l5.607-5.396l4.313-2.451l4.812,2.078l4.981,4.097l5.903,1.441l7.531-5.138
			l6.021-4.165l7.071,3.308l9.6,3.499l5.701-3.411l5.104-8.365l5.67-0.458l6.322,3.957l8.909,2.779l5.784-1.891l4.709-4.79
			l6.57-5.502l2.791,7.082l-0.917,8.379l-2.255,8.181l-3.268,4.994l-6.227,2.876l-9.208-1.19l-5.208,5.529l-9.159,0.94l-8.576-3.565
			l-6.666,1.926c0,0-7.511,0.697-7.457,1.879c0.053,1.182-10.019-1.342-10.019-1.342l-7.73-5.327c0,0-4.344,2.472-5.294,2.892
			c-0.95,0.419-11.098,2.379-11.098,2.379l-7.206-1.951l-8.182-5.386l-3.918,3.053l-7.472,1.627l-9.273-4.64l-5.4,4.085l-8.46-4.695
			L80.812,253.051L80.812,253.051z"/>
		
			<path style="fill:none;stroke:#000000;stroke-width:8.5039;stroke-linecap:round;stroke-linejoin:round;stroke-miterlimit:22.9256;" d="
			M190.11,205.348c1.229-2.978,1.343-6.653-3.791-14.732c-5.134-8.08-21.22-19.433-30.595-21.589c0,0-4.354-0.885-8.625,0.469
			c-8.906,2.719-22.469,10.824-28.969,17.438c-6.5,6.613-6.197,14.956-4.495,19.383"/>
		
			<path style="fill:none;stroke:#000000;stroke-width:8.5039;stroke-linecap:round;stroke-linejoin:round;stroke-miterlimit:22.9256;" d="
			M135.286,197.434c-0.452,5.445-4.781,9.937-2.156,11.25C135.755,209.996,137.724,202.121,135.286,197.434L135.286,197.434z"/>
		
			<path style="fill:none;stroke:#000000;stroke-width:8.5039;stroke-linecap:round;stroke-linejoin:round;stroke-miterlimit:22.9256;" d="
			M163.898,198.803c6.158,3.579,9.843,11.572,6.712,12.772C167.293,212.846,165.333,205.883,163.898,198.803L163.898,198.803z"/>
		
			<path style="fill:none;stroke:#000000;stroke-width:8.5039;stroke-linecap:round;stroke-linejoin:round;stroke-miterlimit:22.9256;" d="
			M80.812,253.051c0,0,3.711,5.602,13.793,9.797"/>
		
			<path style="fill:none;stroke:#000000;stroke-width:8.5039;stroke-linecap:round;stroke-linejoin:round;stroke-miterlimit:22.9256;" d="
			M92.578,245.55c0,0,9.903,30.235,28.09,13.173"/>
		
			<path style="fill:none;stroke:#000000;stroke-width:8.5039;stroke-linecap:round;stroke-linejoin:round;stroke-miterlimit:22.9256;" d="
			M151.793,260.222c0,0-12.938,14.251-31.125-1.499"/>
		
			<path style="fill:none;stroke:#000000;stroke-width:8.5039;stroke-linecap:round;stroke-linejoin:round;stroke-miterlimit:22.9256;" d="
			M181.793,262.097c0,0-9.75,15.937-30-1.875"/>
		
			<path style="fill:none;stroke:#000000;stroke-width:8.5039;stroke-linecap:round;stroke-linejoin:round;stroke-miterlimit:22.9256;" d="
			M210.668,247.285c0,0-0.75,33.187-28.875,14.812"/>
		
			<path style="fill:none;stroke:#000000;stroke-width:8.5039;stroke-linecap:round;stroke-linejoin:round;stroke-miterlimit:22.9256;" d="
			M227.168,238.284c2.625,2.438,2.374,30.117-19.907,22.465"/>
		
			<path style="fill:none;stroke:#000000;stroke-width:8.5039;stroke-linecap:round;stroke-linejoin:round;stroke-miterlimit:22.9256;" d="
			M76.793,312.91c6.375-5.625,12.562-27,28.313-15.562"/>
		
			<path style="fill:none;stroke:#000000;stroke-width:8.5039;stroke-linecap:round;stroke-linejoin:round;stroke-miterlimit:22.9256;" d="
			M92.73,317.973c0,0,13.501-28.876,27.188-8.063"/>
		
			<path style="fill:none;stroke:#000000;stroke-width:8.5039;stroke-linecap:round;stroke-linejoin:round;stroke-miterlimit:22.9256;" d="
			M144.668,318.91c0,0-16.313-19.125-31.126,3"/>
		
			<path style="fill:none;stroke:#000000;stroke-width:8.5039;stroke-linecap:round;stroke-linejoin:round;stroke-miterlimit:22.9256;" d="
			M179.731,317.035c0,0-14.438-22.875-35.062,1.875"/>
		
			<path style="fill:none;stroke:#000000;stroke-width:8.5039;stroke-linecap:round;stroke-linejoin:round;stroke-miterlimit:22.9256;" d="
			M217.418,323.973c0,0-13.875-30.563-37.688-6.938"/>
		
			<path style="fill:none;stroke:#000000;stroke-width:8.5039;stroke-linecap:round;stroke-linejoin:round;stroke-miterlimit:22.9256;" d="
			M200.639,308.446c7.312-2.625,12.467-25.536,33.467,2.964"/>
		
			<path style="fill:none;stroke:#000000;stroke-width:8.5039;stroke-linecap:round;stroke-linejoin:round;stroke-miterlimit:22.9256;" d="
			M244.606,300.91c0,0-15.573-22.536-27.286-3.58"/>
		
			<path style="fill:none;stroke:#000000;stroke-width:8.5039;stroke-linecap:round;stroke-linejoin:round;stroke-miterlimit:22.9256;" d="
			M18.408,258.178c0,0,8.062-71.813,121.876-43.501"/>
		
			<path style="fill:none;stroke:#000000;stroke-width:8.5039;stroke-linecap:round;stroke-linejoin:round;stroke-miterlimit:22.9256;" d="
			M297.784,256.303c-1.125-8.438-9.62-75.738-128.56-39.932"/>
		
			<path style="fill:none;stroke:#000000;stroke-width:8.5039;stroke-linecap:round;stroke-linejoin:round;stroke-miterlimit:22.9256;" d="
			M140.284,214.677c5.624,0.563,12.045,5.654,28.939,1.694"/>
		
			<path style="fill:none;stroke:#000000;stroke-width:8.5039;stroke-linecap:round;stroke-linejoin:round;stroke-miterlimit:22.9256;" d="
			M120.222,359.615c0,0,38.25,8.625,70.125,0.75"/>
		
			<path style="fill:none;stroke:#000000;stroke-width:8.5039;stroke-linecap:round;stroke-linejoin:round;stroke-miterlimit:22.9256;" d="
			M66.971,310.303c12.375,13.125,43.106,29.813,93,28.941c43.199-0.755,76.585-13.21,91.875-43.566"/>
		
			<path style="fill:none;stroke:#000000;stroke-width:8.5039;stroke-linecap:round;stroke-linejoin:round;stroke-miterlimit:22.9256;" d="
			M37.534,247.865c5.062,0.375,5.98,4.71,11.241,4.051c4.661-0.584,9.025-10.535,18.009-11.363"/>
		
			<path style="fill:none;stroke:#000000;stroke-width:8.5039;stroke-linecap:round;stroke-linejoin:round;stroke-miterlimit:22.9256;" d="
			M99.034,241.303c-6-0.75-7.741,11.916-19.889,11.265c-4.608-0.247-5.541-11.693-12.361-12.015"/>
		
			<path style="fill:none;stroke:#000000;stroke-width:8.5039;stroke-linecap:round;stroke-linejoin:round;stroke-miterlimit:22.9256;" d="
			M131.659,242.99c-5.813,0.938-7.433,9.842-15.744,9.421c-6.533-0.33-10.218-11.684-16.882-11.108"/>
		
			<path style="fill:none;stroke:#000000;stroke-width:8.5039;stroke-linecap:round;stroke-linejoin:round;stroke-miterlimit:22.9256;" d="
			M160.909,241.303c-6.187,0.188-5.722,8.703-14.624,9.436c-5.734,0.471-9.948-8.212-14.625-7.748"/>
		
			<path style="fill:none;stroke:#000000;stroke-width:8.5039;stroke-linecap:round;stroke-linejoin:round;stroke-miterlimit:22.9256;" d="
			M226.346,230.428c7.158,0.7,9.599,13.557,18.578,13.563c6.721,0.005,11.31-9.959,22.485-8.126"/>
		
			<path style="fill:none;stroke:#000000;stroke-width:8.5039;stroke-linecap:round;stroke-linejoin:round;stroke-miterlimit:22.9256;" d="
			M192.034,235.865c6.562-0.938,7.684,7.464,17.25,6.746c10.687-0.804,11.293-12.525,17.062-12.183"/>
		
			<path style="fill:none;stroke:#000000;stroke-width:8.5039;stroke-linecap:round;stroke-linejoin:round;stroke-miterlimit:22.9256;" d="
			M160.909,241.303c6.188-0.75,7.654,7.761,16.671,6.807c7.768-0.822,7.467-11.359,14.454-12.244"/>
		
			<path style="fill:none;stroke:#000000;stroke-width:8.5039;stroke-linecap:round;stroke-linejoin:round;stroke-miterlimit:22.9256;" d="
			M68.618,240.943c0,0-35.209,34.298-1.646,69.36"/>
		
			<path style="fill:none;stroke:#000000;stroke-width:8.5039;stroke-linecap:round;stroke-linejoin:round;stroke-miterlimit:22.9256;" d="
			M249.975,242.304c11.438,5.812,13.496,30.686,1.872,53.374"/>
		
			<path style="fill:none;stroke:#000000;stroke-width:8.5039;stroke-linecap:round;stroke-linejoin:round;stroke-miterlimit:22.9256;" d="
			M22.534,262.303c0,0-11.812,98.062,19.125,150.187"/>
		
			<path style="fill:none;stroke:#000000;stroke-width:8.5039;stroke-linecap:round;stroke-linejoin:round;stroke-miterlimit:22.9256;" d="
			M295.534,259.115c0,0,14.812,66.75-12.188,158.625"/>
		
			<path style="fill:none;stroke:#000000;stroke-width:8.5039;stroke-linecap:round;stroke-linejoin:round;stroke-miterlimit:22.9256;" d="
			M261.596,421.49c4.312,0.001,6.267,7.568,13.349,6.646c3.448-0.449,5.558-2.475,8.401-10.396"/>
		
			<path style="fill:none;stroke:#000000;stroke-width:8.5039;stroke-linecap:round;stroke-linejoin:round;stroke-miterlimit:22.9256;" d="
			M227.471,423.928c9.405-0.842,11.62,10.125,18.985,9.937c9.035-0.23,8.827-12.109,15.14-12.374"/>
		
			<path style="fill:none;stroke:#000000;stroke-width:8.5039;stroke-linecap:round;stroke-linejoin:round;stroke-miterlimit:22.9256;" d="
			M188.471,425.99c8.438-0.562,8.816,10.876,18.188,10.83c9.339-0.046,12.315-13.675,20.812-12.893"/>
		
			<path style="fill:none;stroke:#000000;stroke-width:8.5039;stroke-linecap:round;stroke-linejoin:round;stroke-miterlimit:22.9256;" d="
			M159.221,426.553c5.625,0.001,5.938,10.436,15.008,10.737c6.601,0.22,7.863-10.694,14.242-11.3"/>
		
			<path style="fill:none;stroke:#000000;stroke-width:8.5039;stroke-linecap:round;stroke-linejoin:round;stroke-miterlimit:22.9256;" d="
			M131.284,425.803c6,1.126,8.049,10.942,14.438,10.472c7.882-0.58,8.622-10.906,13.499-9.722"/>
		
			<path style="fill:none;stroke:#000000;stroke-width:8.5039;stroke-linecap:round;stroke-linejoin:round;stroke-miterlimit:22.9256;" d="
			M100.721,421.303c7.125,0.562,6.915,11.652,14.652,12.393c6.615,0.634,8.657-9.441,15.911-7.893"/>
		
			<path style="fill:none;stroke:#000000;stroke-width:8.5039;stroke-linecap:round;stroke-linejoin:round;stroke-miterlimit:22.9256;" d="
			M67.909,416.99c9.375-0.187,10.7,15.316,20.611,14.116c7.513-0.911,4.246-10.11,12.202-9.803"/>
		
			<path style="fill:none;stroke:#000000;stroke-width:8.5039;stroke-linecap:round;stroke-linejoin:round;stroke-miterlimit:22.9256;" d="
			M41.659,412.49c1.008,6.48,3.353,14.106,11.299,13.935c6.499-0.14,8.631-9.068,14.951-9.435"/>
	</g>
</g>
</svg>
