<svg xmlns="http://www.w3.org/2000/svg" xmlns:xlink="http://www.w3.org/1999/xlink" viewBox="0 0 309.345 561.744"><g id="n1801"><g><path fill-rule="evenodd" clip-rule="evenodd" fill="#4ab57e" d="M94.375 441.745l5.826 7.776 5.035 8.925 5.544 11.253 3.193 10.524 12.771-3.416 12.438-7.256 9.666-10.89 7.125-.938 7.752-1.174 8.705 3.08 10.636 6.764 10.352 6.974 7.725 4.102 6.142-10.604 8.672-14.028 7.873-7.323 14.645 10.517 12.82 10.477 12.086 11.148 13.162 14.449 9.398 13.599 5.782 13.708-13.442 8.369-20.456 9.355-24.493 8.88-26.8 6.83-23.71 3.521-23.102 1.126-27.029-1.642-23.371-4.104-17.662-5.899-22.431-7.568-19.219-9.956-18.722-13.975 5.472-9.232 9.618-13.673 12.231-14.809 11.419-12.242 12.538-12.195 11.811-10.453z"/><path d="M130.66 345.659s27.565-12.749 57.001-.938c-.25 8.248-.465 35.365-.465 35.365l-.005 11.922.867 10.827 5.415 15.325-6.706 10.441-11.376 10.061-11.687 5.518-7.972 1.611-12.15-6.397-12.74-10.534-9.369-14.074 4.443-9.135 3.851-13.131s2.561-14.094 1.569-14.111c-.992-.02-.676-32.75-.676-32.75z" fill-rule="evenodd" clip-rule="evenodd" fill="#f9d740"/><path fill-rule="evenodd" clip-rule="evenodd" fill="#fff" d="M88.848 431.286l10.111-8.238 6.715-11.769 2.071-6.837 9.334-8.639 12.688-3.283-2.635 9.839-5.659 12.427 4.411 8.694 11.328 10.647 16.237 10.463 6.27.396 12.956-5.04 12.095-9.097 8.703-12.688-3.815-10.799-2.083-10.565 10.388 3.348 8.635 6.953 4.54 10.098 6.373 8.381 10.275 10.396-5.611 8.992-10.152 13.737-9.925 18.896-12.132-6.557-13.398-8.929-12.843-5.563-14.877 2.112-8.167 9.632-13.937 8.514-12.771 3.416-5.965-16.15-6.789-12.748-6.087-10.205-6.284-9.834z"/><path d="M88.848 431.286s16.125-8.25 18-25.688m21.563-13.5s-10.688-.938-21.563 13.5m23.812-59.939s4.5 45.689-9.187 69.126m35.25 31.126c-7.688-.188-35.25-21.938-35.25-31.125m72 3.375s-9.375 22.875-36.75 27.75m30.938-101.189c-.371 17.43-2.626 62.564 5.812 73.439m-44.625 40.5s-9.375 17.812-34.875 21.562m-25.125-48.937s24.376 36.562 25.126 48.938m49.499-23.625c6.938-1.688 32.999 21.188 38.625 20.999m26.438-39s-14.438 11.438-26.438 39m4.5-70.5s.937 10.5 21.188 28.875m-40.356-39.184s10.355.371 19.169 10.309M95.132 441.12s-43.033 34.979-63.846 73.23m124.687-56.627s8.626 39.938 1.876 60.751m8.624.938s-6.188.188-8.625-.938m-126.562-4.125c2.438 5.438 107.812 88.124 255.187 9.186m-62.625-77.999c-1.217-1.086 58.688 38.438 67.875 73.876" fill="none" stroke="#000" stroke-width="8.504" stroke-linecap="round" stroke-linejoin="round" stroke-miterlimit="22.926"/><path d="M177.161 475.409a4.25 4.25 0 0 1 4.251 4.252 4.251 4.251 0 1 1-4.251-4.252zm1.875 24.562a4.251 4.251 0 0 1 4.251 4.253 4.25 4.25 0 1 1-8.503 0 4.253 4.253 0 0 1 4.252-4.253z" fill-rule="evenodd" clip-rule="evenodd"/></g></g><g id="n1802"><g><g><path fill-rule="evenodd" clip-rule="evenodd" fill="#4ab57e" d="M31.46 171.33l1.205 12.474 1.898 16.451 1.119 14.519-.094 9.136-4.74 10.919-1.725 10.326 5.314 2.975-4.257 9.565-2.322 8.431-1.059 6.157-6.961-1.442-6.268-4.835-1.214-7.985 1.316-7.014.056-5.945-3.542-15.657-4.994-23.1-.895-14.036 3.487-14.188 5.148-5.487 10.376-2.65 8.152 1.386z"/><path fill-rule="evenodd" clip-rule="evenodd" fill="#61f4e5" d="M34.437 248.13l4.408-6.64 8.899-8.821 14.567-6.638 11.284-5.005 16.124-1.204 14.59 1.535 11.51.62 2.572-3.579 2-1 5.402 1.771 15.598-8.271 11.804-1.586-1.078 69.723 22.666-1.333 6.667-10 2.667-2 1.333 2.666h6l15.333 2.667 13.334 2 19.333 8 11.333 3.333 12.667 2 5.811-47.963 4.808 7.362 3.459-3.611-1.279-11.077-4.862-11.993-5.608-6.919 3.842-12.873 3.839-20.864 1.247-21.581-1.336-18.8-4.019-19.015-7.791-20.002-10.959-17.826-13.58-15.105-20.257-14.182-22.01-8.22-22.39-3.345-22.504-.019-19.302 1.74-21.05 4.262-19.743 7.203-14.791 8.47-14 11.927-12.493 16.669-8.342 16.563-5.567 16.865-2.608 13.898-1.045 13.197.426 18.653 1.918 19.223 1.859 18.509.512 11.828-1.406 6.996-3.381 8.491-1.678 9.229 5.267 4.072z"/><path fill-rule="evenodd" clip-rule="evenodd" fill="#f9d740" d="M273.742 173.547l8.396-2.707 10.385.661 7.95 5.088 4.27 10.734.233 8.885-2.137 13.558-2.59 9.514-3.093 10.664-2.51 12.241-.543 10.546 1.403 9.116-2.273 7.533-5.56 3.284-7.917.769-.528-9.768-1.891-10.241-1.539-9.462 2.514-5.556-2.525-9.154-4.4-10.166-5.608-6.919 3.842-12.873 1.92-10.432 1.71-9.297.491-6.018z"/><g><defs><path id="M" d="M31.994 282.937l4.544-7.683 10.245 1.781-.666-17 22-15 22-1.5 18.5-.5 14.5-4.5 11-5.5 6 4.5 4 3 8.5-1.5 2.157-36.537 11.792 5.832 14.493 12.237 7.817 11.95 3.084 7.929-4.029 8.042.662 3.302 15.049-2.966 15.755-1.241 18.789 1.647 16.47 5.61 10.23 6.774 9.163 10.071 4.956 8.518 3.566-4.178-1.318-12.817-5.012-13.876-5.78-8.006 3.96-14.894 3.957-24.14 1.285-24.97-1.377-21.752-4.143-22.002-8.031-23.143-11.296-20.626-13.999-17.476-20.88-16.41-22.688-9.511-23.079-3.869-23.198-.023-19.896 2.013-21.698 4.931-20.351 8.335L73.78 67.59 59.348 81.389l-12.877 19.287-8.599 19.163-5.738 19.514.983 8.682-.5 14.5 1.5 23.5 3.5 24.5-4.917 25.408.528 13.686-1.449 8.093-3.485 9.825-1.73 10.679 5.43 4.711z"/></defs><clipPath id="N"><use xlink:href="#M" overflow="visible"/></clipPath><path clip-path="url(#N)" fill-rule="evenodd" clip-rule="evenodd" fill="#fff" d="M-27.786-15.015h181.42v366.781h-181.42z"/></g><path d="M153.987 38.01c.207-2.285 1.315-2.201-2.769 66.399-1.064 17.879-.872 83.133-.872 83.133" fill-rule="evenodd" clip-rule="evenodd" fill="none" stroke="#000" stroke-width="8.504" stroke-linecap="round" stroke-linejoin="round" stroke-miterlimit="22.926"/><path d="M32.097 252.82s-3.706-21.922 7.794-34.922m223-7s13 1.5 14.484 36.882M53.499 82.779c15.375-20.625 41.995-39.189 93.019-42.261 29.439-1.771 70.645-.748 101.231 37.011m18.03 134.638s29.22-76.138-18.03-134.638M35.588 223.91c2.25-36.376-20.714-84.881 17.911-141.131M274.07 172.62s45.679-16.716 26.179 46.66m-5.625 36.375s-3.375-8.25 5.625-36.375m-20.25 53.624s19.875 3.75 14.625-17.249m-1.301-67.852s-15.949 19.102-3.574 34.477m-9 16.125c4.499-3.875 12.375-9.375 9-16.125M31.46 171.33s-38.993-14.207-23.618 48.23m18.749 54.375c-16.378-6.823-15.7-9.534-12.92-22.928 1.374-6.621-2.925-17.689-5.83-31.447m9.482-34.161c4.688 11.438 9.333 12.406 5.143 27.975m7.767 24.839s-19.7-7.465-7.767-24.839" fill="none" stroke="#000" stroke-width="8.504" stroke-linecap="round" stroke-linejoin="round" stroke-miterlimit="22.926"/></g><g><path fill-rule="evenodd" clip-rule="evenodd" d="M85.131 148.852l7.441-4.682 5.006-1.898 2.303-9.564-.128-8.81-5.546-5.431-8.137.871-5.367 5.684-1.516 5.741-1.372 10.664-.989 19.137-.175 13.113.092 13.692.203 9.055 9.492-1.461 8.058-.736 4.2-.209.66-11.074-.973-8.88-6.908-7.651-7.681-7.319-1.421-7.836 2.758-2.406zm116.303 4.207l.456-12.393.795-12.139 2.373-8.055 7.319-4.195 9.298.844 4.841 4.969 1.179 6.417-.02 9.744-.348 5.146-6.955 3.089-5.567 4.12-4.914 4.792 3.665 7.001 5.114 4.316 5.613 4.857 2.108 3.7-.36 6.631-1.332 9.323-7.644.301-7.695.694-8.597 1.209.059-7.378.16-12.364.225-11.819.227-8.81z"/><path d="M71.609 105.428s15.938-25.313 37.5-19.5m87.188 0s24.563-10.687 47.25 19.5m-47.438 88.875s25.501-5.625 47.251-1.687m-178.876 6.937s16.313-5.812 40.688-5.625m-24.469-68.906c1.312-5.062 12.75-11.812 18.75-2.062m-22.507 73.464s-1.868-56.964 3.757-71.402m16.875 17.25s4.41-12.592 1.875-19.313m-18.375 29.626s6.562-7.5 16.5-10.312m0 29.812c-5.25-6-16.688-12.375-16.5-19.5m17.618 41.433s2.069-16.309-1.118-21.934m105.938-48.749c2.25-8.062 19.311-11.625 23.438-.188m-26.191 70.283s.316-62.971 2.753-70.096m23.811 20.063s1.314-13.875-.374-20.25m-17.062 32.251s8.436-9.75 17.436-12m-.936 31.874c0-5.25-18.535-13.717-16.5-19.875m14.808 35.829s1.504-6.579 1.692-15.954" fill="none" stroke="#000" stroke-width="8.504" stroke-linecap="round" stroke-linejoin="round" stroke-miterlimit="22.926"/></g><g><path d="M27.837 145.537l5.913-.702 2.655-15.525s4.793-21.472 5.958-20.912c1.167.56 11.369-19.823 12.375-18.938 1.006.886 13.829-10.677 13.829-10.677l16.22-7.892 22.029-1.392 28.638 6.114 23.352 1.438 32.405-4.217 27.36-5.388 19.07 6.264 12.725 12.542 9.028 12.866 8.634 18.027 3.172 9.759 5.697-1.826 2.258-10.378 2.014-15.734-.101-17.35-3.782-18.901-5.679-12.085-6.104-1.036-3.293-12.22-6.456-9.421-8.498-5.65-6.644.005-9.759-8.338L218.4 9.691l-12.889-2.186-17.008-1.843-20.711-1.316-24.357.076-21.375.702-16.029.999-13.525 2.799-15.356 6.287-12.422 7.897-10.894 7.737-5.522 2.018-5.82 5.857-5.746 8.836-4.732 12.603-2.22 14.546-.052 10.233-7.32 3.243-.555 10.094.327 11.618 1.285 12.672 2.09 12.589 2.268 10.385z" fill-rule="evenodd" clip-rule="evenodd" fill="#67559e"/><path d="M23.703 80.273s-6.563 23.626 5.062 69.001M50.703 31.147s-30.375 17.438-18.188 74.439m93.938-81.376c8.063 23.063 3.938 34.875 11.813 44.625M50.703 31.147c6 3.188 21.937-24.375 63.937-25.687m77.626.938s-11.438-4.125-77.625-.938m130.875 28.688s-1.743-12.251-11.99-18.671c-5.323-3.336-15.797-7.722-41.26-9.079m70.687 75s14.812-51.188-20.438-60.751m28.313 28.875c5.218 7.011 17.625 32.064 5.438 78.001m-102.563-102s.188 27.75.188 34.875m63.75 13.312s41.25 29.062 38.062 96.188m-81-97.875c9.282-1.841 23.25-10.313 42.938 1.687m-111-.187s24.563 9 68.063-1.499M70.765 77.273c6.912-4.35 21.938-13.687 55.875-3.75m-93 98.812s-8.812-64.688 37.125-95.062m43.031-66.468s-14.063 11.813-1.313 35.062m12.134 27.08s-5.384-6.08-12.134-27.08" fill="none" stroke="#000" stroke-width="8.504" stroke-linecap="round" stroke-linejoin="round" stroke-miterlimit="22.926"/></g><path fill-rule="evenodd" clip-rule="evenodd" fill="#e186ae" d="M50.117 246.035l26-13.5 45 1 32 1 2.732 117.01-1.732 22.49-53.5-16-37.5-26-22.5-30.5z"/><path d="M239.117 233.535c2-.5 23.5 15.5 23.5 15.5l5 23-5 27-20.5 45.5-72.5 18-14 1-3-124.5 86.5-5.5z" fill-rule="evenodd" clip-rule="evenodd" fill="#67559e"/></g></g><g id="n1803"><g><path fill-rule="evenodd" clip-rule="evenodd" fill="#4ab57e" d="M139.947 335.909l.076-10.732 1.221-16.367 2.105-8.927 4.565-7.733 6.917-3.736 7.209-.087 6.655 3.366 5.042 4.856-2.44 4.802-3.927 2.033.447 7.766.757 16.92-8.645-1.499-9.852 2.061-10.13 7.277z"/><path d="M138.576 334.768c3.375-14.794.186-47.589 21.548-46.791m-6.114 17.785c7.687.915 36.793-7.052 6.115-17.786m8.545 41.182s-.688-13.969-1.299-25.774" fill="none" stroke="#000" stroke-width="8.504" stroke-linecap="round" stroke-linejoin="round" stroke-miterlimit="22.926"/></g></g><g id="n1804"><g><g><path d="M148.66 183.837l-7.637 2.016-9.618 4.854-5.881 5.285-7.283 4.465-4.614 8.28.501 9.451 5.123 6.361 8.299 2.693 4.841.573s21.718 2.391 32.589-.43c10.87-2.819 14.329-4.654 14.329-4.654l4.777-5.429-.72-8.484-6.454-9.507-8.037-6.822-10.543-6.335-5.702-2.078-3.97-.239z" fill-rule="evenodd" clip-rule="evenodd" fill="#67559e"/><path d="M164.98 227.385c7.21-.993 16.442-3.619 19.107-10.083 1.123-2.725 1.228-6.085-3.468-13.477-4.697-7.391-19.412-17.776-27.988-19.749 0 0-3.983-.809-7.89.429-8.147 2.487-20.555 9.903-26.5 15.951-5.946 6.05-5.668 13.681-4.112 17.731 3.191 8.308 11.323 8.884 18.263 9.627" fill="none" stroke="#000" stroke-width="8.504" stroke-linecap="round" stroke-linejoin="round" stroke-miterlimit="22.926"/><path d="M133.935 210.063c-.414 4.98-4.374 9.09-1.973 10.29 2.402 1.202 4.203-6.003 1.973-10.29zm26.173 1.252c5.633 3.274 9.004 10.585 6.14 11.683-3.034 1.163-4.827-5.206-6.14-11.683z" fill="none" stroke="#000" stroke-width="8.504" stroke-linecap="round" stroke-linejoin="round" stroke-miterlimit="22.926"/></g><g><path d="M279.537 250.35l-6.049-11.07-8.046-7.899-17.107-8.708-21.33-4.73-16.729-.501-16.978 2.904-16.834 5.027-19.484 2.513-19.147-.136-14.123-1.649-16.708-2.858-19.603-2.398-16.81 1.827-15.756 7.023-10.087 7.646-9.595 12.088-5.911 15.095-1.567 19.438 2.086 15.168 4.18 14.354 3.962 10.68 1.743 8.945 3.774 10.15 4.575 5.744 8.223.788 4.549 8.104 5.269 4.802 6.821 5.317 7.795-.538 4.989 5.235 3.051 4.446 3.241 3.278 8.731-2.673 6.238 1.591 4.763 6.319 4.998 2.003 6.195-3.008 6.169-2.941 5.062 1.944 4.343 4.838 4.338 2.726 7.205-1.821 6.389-4.821 5.021-.22 3.724 2.764 4.773 2.597 7.01-3.183 4.401-5.503 4.547-1.569 5.348 2.594 3.286 4.065 4.312-.59 4.472-2.708 2.816-6.159 3.605-3.815 6.15.873 5.25 2.765 5.172-.113 4.792-3.458 3.138-6.562 2.315-5.298 2.218-1.47s9.043 1.79 7.773 1.239c-1.271-.551 6.552.755 6.552.755l3.913-3.462 1.882-6.643 1.264-6.01 3.139-5.39 4.382-.435 4.342.522 1.755-4.106.957-9.312 1.554-8.194 1.799-9.793 2.127-13.184 1.311-11.887.39-17.546-2.315-15.806zm-22.92 47.685c-11.75 19.75-35 61.25-100.25 55.5s-81.5-18.75-98.5-42c0 0-17.25-15.25-6-35.25s13.25-21.75 13.25-21.75 4.75-6.75 11.5 3.25 14.25 12 14.25 12 6 2.75 13.25 3 14.75-5.75 14.75-5.75 8.295 9.815 20.25 6.75 12-5 12-5 9.5 9.25 16.25 8 13.25-7 13.25-7 4.75 7.25 13.5 5.25 11.5-6.75 13.25-11.25-2.25 7.5 7 5.5 10.5-7.25 11.75-12.25 4.5-15 9-10.75 8.75 11.25 12.75 10.25 6.75-2.5 6.75-2.5 13.75 24.25 2 44z" fill-rule="evenodd" clip-rule="evenodd" fill="#f9d740"/><path fill-rule="evenodd" clip-rule="evenodd" fill="#62f5e4" d="M72.582 327.176l8.028-9.634 4.832-6.858 6.092-6.299 7.129.546 5.722 2.915 1.634 5.416 5.912.291 5.192 4.069 5.16 5.698 6.747-1.586 6.898 1.681 8.03 4.033 7.904-5.577 9.898-3.386 8.942.886 9.551 6.97 6.918-5.131 8.034-2.583 5.57.532 5.719-6.219 7.809-5.101 6.822-5.292 9.626-1.811 9.796 6.67 7.213 5.437-7.538 11.042-11.215 8.295-13.713 8.603-18.304 6.68-18.28 3.121-22.861.961-16.371-.766-17.986-2.491-19.433-5.189-15.01-6.474-8.683-5.17-5.784-4.279z"/><path fill-rule="evenodd" clip-rule="evenodd" fill="#f2f2f4" d="M76.569 253.446l6.212.192 4.99-3.081 4.692-2.143 6.541 2.416 6.548 2.704 9.637-3.043 8.033-.669 5.74 4.761 7.521-.171 7.635-4.138 9.699 1.239 5.219 1.852 6.166-.583 8.123-4.295 7.949.577 5.348 2.719 7.075-1.156 6.141-4.411 5.5-1.366 5.926 2.019 5.294 3.607 6.662-.647 3.931-2.381.264 9.847-1.963 7.389-4.226 5.498-6.668 2.374-8.018-1.308-5.208 5.529-7.118 1.278-9.964-3.534-3.178-1.925-5.111 4.694-6.989.845-7.688-1.876-7.927-3.633-2.285-1.906-7.528 4.762-8.209 1.076-8.926-4.424-6.462-2.913-5.284 3.061-8.94 1.559-6.752-3.512-7.33 1.965-7.298-4.982-6.184-7.895-1.59-5.971z"/><path d="M76.449 255.149s2.623 11.822 17.436 18.197m-2.438-19.313s4.875 31.688 28.501 15.188m31.124 1.499s-12.937 14.251-31.124-1.499m61.124 3.375s-9.75 15.937-30.001-1.876m58.876-12.937s-.749 33.188-28.875 14.812m45.375-23.812c2.626 2.438 2.374 30.117-19.907 22.465m-130.468 52.16c6.375-5.625 12.562-27 28.313-15.562m-12.376 20.625s13.501-28.876 27.188-8.062m24.75 8.999s-16.313-19.125-31.126 3m66.189-4.875s-14.437-22.876-35.062 1.875m72.749 5.063s-13.874-30.562-37.688-6.938m20.909-8.589c7.312-2.625 12.467-25.536 33.467 2.964m10.5-10.5s-15.573-22.536-27.287-3.581m-83.448-80.414s19.125 1.874 37.312-.75m76.875-4.312c-41.472-12.55-59.438 1.687-76.875 4.312m111.078 32.573c-1.132-10.996-7.953-28.635-34.203-36.885m26.438 109.125c6.426-33.768 9.265-47.49 7.765-72.241m-228.359-2.102s2.539 1.707 7.149-.126c2.001-.795 4.287-4.685 8.413-4.936m23.72-3.657c-5.719.375-4.222 4.711-11.319 5.499-4.716.523-7.551-2.424-12.4-1.843" fill="none" stroke="#000" stroke-width="8.504" stroke-linecap="round" stroke-linejoin="round" stroke-miterlimit="22.926"/><path d="M67.15 322.288c15.375 15.375 44.669 29.509 91.874 29.261 41.19-.216 68.85-9.682 92.064-43.324m2.25-53.437s15 24.376-2.25 53.437m-19.125-62.25c6.375.75 5.871 9.525 11.514 10.892 4.356 1.056 5.655-1.712 9.861-2.079m-48-9.938c7.5.375 6.85 5.537 13.882 6.173 3.891.352 7.741-5.039 12.743-5.048m-56.25 2.251c8.25-.188 7.557 4.059 13.474 3.769 6.916-.339 8.873-7.542 16.151-7.145m-58.688 4.875c7.688-.562 6.168 3.789 14.344 3.72 7.867-.068 8.329-5.276 14.719-5.219" fill="none" stroke="#000" stroke-width="8.504" stroke-linecap="round" stroke-linejoin="round" stroke-miterlimit="22.926"/><path d="M118.15 249.913c8.438 0 6.532 5.005 14.757 5.413 4.685.232 7.64-5.524 14.922-5.649m-55.366-1.263c6.75-.562 5.558 4.631 13.089 5.12 3.83.249 8.114-3.397 12.598-3.621m-53.924 4.034s-31.389 33.278 2.923 68.341M53.275 230.6c4.59-2.425 11.282-8.986 31.486-9.742 11.808-.441 31.019 4.554 48.389 6.555m-96.187 93.376S7.337 260.975 53.275 230.6M37.9 324.164s3 26.062 14.812 26.625m1.126-6.75s10.126 30 26.813 23.438m21.937 10.124c-4.312-.562-5.813 5.046-10.656 2.834-3.271-1.494-6.933-10.674-11.281-12.959m48.374 14.25c-6.562-.562-5.537 6.165-12.364 5.949-8.209-.258-7.415-10.645-14.073-10.074m56.438 6.563c-6.188-.188-6.273 6.577-15.17 7.108-6.323.378-7.28-9.437-14.83-9.546m56.812-2.25c-6.75-.75-6.581 8.921-14.474 10.167-6.316.998-6.513-6.112-12.338-5.479m51.562-11.625c-7.126 2.062-3.552 11.161-11.805 13.007-5.877 1.315-7.718-6.364-12.946-6.069m52.876-19.876c-5.438 1.125-3.281 13.592-12.463 16.787-7.204 2.506-11.038-5.607-15.662-3.85m52.875-32.624c-5.999 4.5-2.993 17.665-9.158 21.112-6.083 3.401-10.494-3.818-15.592-1.425" fill="none" stroke="#000" stroke-width="8.504" stroke-linecap="round" stroke-linejoin="round" stroke-miterlimit="22.926"/><path d="M273.775 331.476c-.506 3.361.95 6.107-1.814 8.701-1.545 1.451-5.332-2.298-8.724-.087" fill="none" stroke="#000" stroke-width="8.504" stroke-linecap="round" stroke-linejoin="round" stroke-miterlimit="22.926"/></g><path d="M127.749 170.904s19.368-13.79 42.226-.96" fill="none" stroke="#000" stroke-width="8.504" stroke-linecap="round" stroke-linejoin="round" stroke-miterlimit="22.926"/></g></g></svg>