<?xml version="1.0" encoding="utf-8"?>
<!-- Generator: Adobe Illustrator 19.2.1, SVG Export Plug-In . SVG Version: 6.00 Build 0)  -->
<svg version="1.1" xmlns="http://www.w3.org/2000/svg" xmlns:xlink="http://www.w3.org/1999/xlink" x="0px" y="0px"
	 viewBox="0 0 309.345 561.744" style="enable-background:new 0 0 309.345 561.744;" xml:space="preserve">
<g id="n1801">
	<g>
		<polygon style="fill-rule:evenodd;clip-rule:evenodd;fill:#4AB57E;" points="94.375,441.745 100.201,449.521 105.236,458.446 
			110.78,469.699 113.973,480.223 126.744,476.807 139.182,469.551 148.848,458.661 155.973,457.723 163.725,456.549 
			172.43,459.629 183.066,466.393 193.418,473.367 201.143,477.469 207.285,466.865 215.957,452.837 223.83,445.514 
			238.475,456.031 251.295,466.508 263.381,477.656 276.543,492.105 285.941,505.704 291.723,519.412 278.281,527.781 
			257.825,537.136 233.332,546.016 206.532,552.846 182.822,556.367 159.72,557.493 132.691,555.851 109.32,551.747 91.658,545.848 
			69.227,538.28 50.008,528.324 31.286,514.349 36.758,505.117 46.376,491.444 58.607,476.635 70.026,464.393 82.564,452.198 
			94.375,441.745 		"/>
		<path style="fill-rule:evenodd;clip-rule:evenodd;fill:#F9D740;" d="M130.66,345.659c0,0,27.565-12.749,57.001-0.938
			c-0.25,8.248-0.465,35.365-0.465,35.365l-0.005,11.922l0.867,10.827l5.415,15.325l-6.706,10.441l-11.376,10.061l-11.687,5.518
			l-7.972,1.611l-12.15-6.397l-12.74-10.534l-9.369-14.074l4.443-9.135l3.851-13.131c0,0,2.561-14.094,1.569-14.111
			C130.344,378.389,130.66,345.659,130.66,345.659L130.66,345.659z"/>
		<polygon style="fill-rule:evenodd;clip-rule:evenodd;fill:#FFFFFF;" points="88.848,431.286 98.959,423.048 105.674,411.279 
			107.745,404.442 117.079,395.803 129.767,392.52 127.132,402.359 121.473,414.786 125.884,423.48 137.212,434.127 153.449,444.59 
			159.719,444.986 172.675,439.946 184.77,430.849 193.473,418.161 189.658,407.362 187.575,396.797 197.963,400.145 
			206.598,407.098 211.138,417.196 217.511,425.577 227.786,435.973 222.175,444.965 212.023,458.702 202.098,477.598 
			189.966,471.041 176.568,462.112 163.725,456.549 148.848,458.661 140.681,468.293 126.744,476.807 113.973,480.223 
			108.008,464.073 101.219,451.325 95.132,441.12 88.848,431.286 		"/>
		
			<path style="fill:none;stroke:#000000;stroke-width:8.5039;stroke-linecap:round;stroke-linejoin:round;stroke-miterlimit:22.9256;" d="
			M88.848,431.286c0,0,16.125-8.25,18-25.688"/>
		
			<path style="fill:none;stroke:#000000;stroke-width:8.5039;stroke-linecap:round;stroke-linejoin:round;stroke-miterlimit:22.9256;" d="
			M128.411,392.098c0,0-10.688-0.938-21.563,13.5"/>
		
			<path style="fill:none;stroke:#000000;stroke-width:8.5039;stroke-linecap:round;stroke-linejoin:round;stroke-miterlimit:22.9256;" d="
			M130.66,345.659c0,0,4.5,45.689-9.187,69.126"/>
		
			<path style="fill:none;stroke:#000000;stroke-width:8.5039;stroke-linecap:round;stroke-linejoin:round;stroke-miterlimit:22.9256;" d="
			M156.723,445.911c-7.688-0.188-35.25-21.938-35.25-31.125"/>
		
			<path style="fill:none;stroke:#000000;stroke-width:8.5039;stroke-linecap:round;stroke-linejoin:round;stroke-miterlimit:22.9256;" d="
			M193.473,418.161c0,0-9.375,22.875-36.75,27.75"/>
		
			<path style="fill:none;stroke:#000000;stroke-width:8.5039;stroke-linecap:round;stroke-linejoin:round;stroke-miterlimit:22.9256;" d="
			M187.661,344.722c-0.371,17.43-2.626,62.564,5.812,73.439"/>
		
			<path style="fill:none;stroke:#000000;stroke-width:8.5039;stroke-linecap:round;stroke-linejoin:round;stroke-miterlimit:22.9256;" d="
			M148.848,458.661c0,0-9.375,17.812-34.875,21.562"/>
		
			<path style="fill:none;stroke:#000000;stroke-width:8.5039;stroke-linecap:round;stroke-linejoin:round;stroke-miterlimit:22.9256;" d="
			M88.848,431.286c0,0,24.376,36.562,25.126,48.938"/>
		
			<path style="fill:none;stroke:#000000;stroke-width:8.5039;stroke-linecap:round;stroke-linejoin:round;stroke-miterlimit:22.9256;" d="
			M163.473,456.599c6.938-1.688,32.999,21.188,38.625,20.999"/>
		
			<path style="fill:none;stroke:#000000;stroke-width:8.5039;stroke-linecap:round;stroke-linejoin:round;stroke-miterlimit:22.9256;" d="
			M228.536,438.598c0,0-14.438,11.438-26.438,39"/>
		
			<path style="fill:none;stroke:#000000;stroke-width:8.5039;stroke-linecap:round;stroke-linejoin:round;stroke-miterlimit:22.9256;" d="
			M206.598,407.098c0,0,0.937,10.5,21.188,28.875"/>
		
			<path style="fill:none;stroke:#000000;stroke-width:8.5039;stroke-linecap:round;stroke-linejoin:round;stroke-miterlimit:22.9256;" d="
			M187.43,396.789c0,0,10.355,0.371,19.169,10.309"/>
		
			<path style="fill:none;stroke:#000000;stroke-width:8.5039;stroke-linecap:round;stroke-linejoin:round;stroke-miterlimit:22.9256;" d="
			M95.132,441.12c0,0-43.033,34.979-63.846,73.23"/>
		
			<path style="fill:none;stroke:#000000;stroke-width:8.5039;stroke-linecap:round;stroke-linejoin:round;stroke-miterlimit:22.9256;" d="
			M155.973,457.723c0,0,8.626,39.938,1.876,60.751"/>
		
			<path style="fill:none;stroke:#000000;stroke-width:8.5039;stroke-linecap:round;stroke-linejoin:round;stroke-miterlimit:22.9256;" d="
			M166.473,519.412c0,0-6.188,0.188-8.625-0.938"/>
		
			<path style="fill:none;stroke:#000000;stroke-width:8.5039;stroke-linecap:round;stroke-linejoin:round;stroke-miterlimit:22.9256;" d="
			M31.286,514.349c2.438,5.438,107.812,88.124,255.187,9.186"/>
		
			<path style="fill:none;stroke:#000000;stroke-width:8.5039;stroke-linecap:round;stroke-linejoin:round;stroke-miterlimit:22.9256;" d="
			M223.848,445.536c-1.217-1.086,58.688,38.438,67.875,73.876"/>
		<path style="fill-rule:evenodd;clip-rule:evenodd;" d="M177.161,475.409c2.349,0,4.251,1.904,4.251,4.252
			c0,2.35-1.903,4.252-4.251,4.252c-2.348,0-4.252-1.902-4.252-4.252C172.909,477.313,174.813,475.409,177.161,475.409
			L177.161,475.409z"/>
		<path style="fill-rule:evenodd;clip-rule:evenodd;" d="M179.036,499.971c2.349,0,4.251,1.904,4.251,4.253
			c0,2.348-1.903,4.251-4.251,4.251c-2.348,0-4.252-1.903-4.252-4.251C174.784,501.875,176.688,499.971,179.036,499.971
			L179.036,499.971z"/>
	</g>
</g>
<g id="n1802">
	<g>
		<g>
			<polygon style="fill-rule:evenodd;clip-rule:evenodd;fill:#4AB57E;" points="31.46,171.33 32.665,183.804 34.563,200.255 
				35.682,214.774 35.588,223.91 30.848,234.829 29.123,245.155 34.437,248.13 30.18,257.695 27.858,266.126 26.799,272.283 
				19.838,270.841 13.57,266.006 12.356,258.021 13.672,251.007 13.728,245.062 10.186,229.405 5.192,206.305 4.297,192.269 
				7.784,178.081 12.932,172.594 23.308,169.944 31.46,171.33 			"/>
			<polygon style="fill-rule:evenodd;clip-rule:evenodd;fill:#61F4E5;" points="34.437,248.13 38.845,241.49 47.744,232.669 
				62.311,226.031 73.595,221.026 89.719,219.822 104.309,221.357 115.819,221.977 118.391,218.398 120.391,217.398 
				125.793,219.169 141.391,210.898 153.195,209.312 152.117,279.035 174.783,277.702 181.45,267.702 184.117,265.702 
				185.45,268.368 191.45,268.368 206.783,271.035 220.117,273.035 239.45,281.035 250.783,284.368 263.45,286.368 269.261,238.405 
				274.069,245.767 277.528,242.156 276.249,231.079 271.387,219.086 265.779,212.167 269.621,199.294 273.46,178.43 
				274.707,156.849 273.371,138.049 269.352,119.034 261.561,99.032 250.602,81.206 237.022,66.101 216.765,51.919 194.755,43.699 
				172.365,40.354 149.861,40.335 130.559,42.075 109.509,46.337 89.766,53.54 74.975,62.01 60.975,73.937 48.482,90.606 
				40.14,107.169 34.573,124.034 31.965,137.932 30.92,151.129 31.346,169.782 33.264,189.005 35.123,207.514 35.635,219.342 
				34.229,226.338 30.848,234.829 29.17,244.058 34.437,248.13 			"/>
			<polygon style="fill-rule:evenodd;clip-rule:evenodd;fill:#F9D740;" points="273.742,173.547 282.138,170.84 292.523,171.501 
				300.473,176.589 304.743,187.323 304.976,196.208 302.839,209.766 300.249,219.28 297.156,229.944 294.646,242.185 
				294.103,252.731 295.506,261.847 293.233,269.38 287.673,272.664 279.756,273.433 279.228,263.665 277.337,253.424 
				275.798,243.962 278.312,238.406 275.787,229.252 271.387,219.086 265.779,212.167 269.621,199.294 271.541,188.862 
				273.251,179.565 273.742,173.547 			"/>
			<g>
				<defs>
					<polygon id="SVGID_1_" points="31.994,282.937 36.538,275.254 46.783,277.035 46.117,260.035 68.117,245.035 90.117,243.535 
						108.617,243.035 123.117,238.535 134.117,233.035 140.117,237.535 144.117,240.535 152.617,239.035 154.774,202.498 
						166.566,208.33 181.059,220.567 188.876,232.517 191.96,240.446 187.931,248.488 188.593,251.79 203.642,248.824 
						219.397,247.583 238.186,249.23 254.656,254.84 264.886,261.614 274.049,271.685 279.005,280.203 282.571,276.025 
						281.253,263.208 276.241,249.332 270.461,241.326 274.421,226.432 278.378,202.292 279.663,177.322 278.286,155.57 
						274.143,133.568 266.112,110.425 254.816,89.799 240.817,72.323 219.937,55.913 197.249,46.402 174.17,42.533 150.972,42.51 
						131.076,44.523 109.378,49.454 89.027,57.789 73.78,67.59 59.348,81.389 46.471,100.676 37.872,119.839 32.134,139.353 
						33.117,148.035 32.617,162.535 34.117,186.035 37.617,210.535 32.7,235.943 33.228,249.629 31.779,257.722 28.294,267.547 
						26.564,278.226 31.994,282.937 					"/>
				</defs>
				<clipPath id="SVGID_2_">
					<use xlink:href="#SVGID_1_"  style="overflow:visible;"/>
				</clipPath>
				
					<rect x="-27.786" y="-15.015" style="clip-path:url(#SVGID_2_);fill-rule:evenodd;clip-rule:evenodd;fill:#FFFFFF;" width="181.42" height="366.781"/>
			</g>
			
				<path style="fill-rule:evenodd;clip-rule:evenodd;fill:none;stroke:#000000;stroke-width:8.5039;stroke-linecap:round;stroke-linejoin:round;stroke-miterlimit:22.9256;" d="
				M153.987,38.01c0.207-2.285,1.315-2.201-2.769,66.399c-1.064,17.879-0.872,83.133-0.872,83.133"/>
			
				<path style="fill:none;stroke:#000000;stroke-width:8.5039;stroke-linecap:round;stroke-linejoin:round;stroke-miterlimit:22.9256;" d="
				M32.097,252.82c0,0-3.706-21.922,7.794-34.922"/>
			
				<path style="fill:none;stroke:#000000;stroke-width:8.5039;stroke-linecap:round;stroke-linejoin:round;stroke-miterlimit:22.9256;" d="
				M262.891,210.898c0,0,13,1.5,14.484,36.882"/>
			
				<path style="fill:none;stroke:#000000;stroke-width:8.5039;stroke-linecap:round;stroke-linejoin:round;stroke-miterlimit:22.9256;" d="
				M53.499,82.779c15.375-20.625,41.995-39.189,93.019-42.261c29.439-1.771,70.645-0.748,101.231,37.011"/>
			
				<path style="fill:none;stroke:#000000;stroke-width:8.5039;stroke-linecap:round;stroke-linejoin:round;stroke-miterlimit:22.9256;" d="
				M265.779,212.167c0,0,29.22-76.138-18.03-134.638"/>
			
				<path style="fill:none;stroke:#000000;stroke-width:8.5039;stroke-linecap:round;stroke-linejoin:round;stroke-miterlimit:22.9256;" d="
				M35.588,223.91c2.25-36.376-20.714-84.881,17.911-141.131"/>
			
				<path style="fill:none;stroke:#000000;stroke-width:8.5039;stroke-linecap:round;stroke-linejoin:round;stroke-miterlimit:22.9256;" d="
				M274.07,172.62c0,0,45.679-16.716,26.179,46.66"/>
			
				<path style="fill:none;stroke:#000000;stroke-width:8.5039;stroke-linecap:round;stroke-linejoin:round;stroke-miterlimit:22.9256;" d="
				M294.624,255.655c0,0-3.375-8.25,5.625-36.375"/>
			
				<path style="fill:none;stroke:#000000;stroke-width:8.5039;stroke-linecap:round;stroke-linejoin:round;stroke-miterlimit:22.9256;" d="
				M279.999,272.904c0,0,19.875,3.75,14.625-17.249"/>
			
				<path style="fill:none;stroke:#000000;stroke-width:8.5039;stroke-linecap:round;stroke-linejoin:round;stroke-miterlimit:22.9256;" d="
				M293.323,187.803c0,0-15.949,19.102-3.574,34.477"/>
			
				<path style="fill:none;stroke:#000000;stroke-width:8.5039;stroke-linecap:round;stroke-linejoin:round;stroke-miterlimit:22.9256;" d="
				M280.749,238.405c4.499-3.875,12.375-9.375,9-16.125"/>
			
				<path style="fill:none;stroke:#000000;stroke-width:8.5039;stroke-linecap:round;stroke-linejoin:round;stroke-miterlimit:22.9256;" d="
				M31.46,171.33c0,0-38.993-14.207-23.618,48.23"/>
			
				<path style="fill:none;stroke:#000000;stroke-width:8.5039;stroke-linecap:round;stroke-linejoin:round;stroke-miterlimit:22.9256;" d="
				M26.591,273.935c-16.378-6.823-15.7-9.534-12.92-22.928c1.374-6.621-2.925-17.689-5.83-31.447"/>
			
				<path style="fill:none;stroke:#000000;stroke-width:8.5039;stroke-linecap:round;stroke-linejoin:round;stroke-miterlimit:22.9256;" d="
				M17.323,185.399c4.688,11.438,9.333,12.406,5.143,27.975"/>
			
				<path style="fill:none;stroke:#000000;stroke-width:8.5039;stroke-linecap:round;stroke-linejoin:round;stroke-miterlimit:22.9256;" d="
				M30.233,238.213c0,0-19.7-7.465-7.767-24.839"/>
		</g>
		<g>
			<polygon style="fill-rule:evenodd;clip-rule:evenodd;" points="85.131,148.852 92.572,144.17 97.578,142.272 99.881,132.708 
				99.753,123.898 94.207,118.467 86.07,119.338 80.703,125.022 79.187,130.763 77.815,141.427 76.826,160.564 76.651,173.677 
				76.743,187.369 76.946,196.424 86.438,194.963 94.496,194.227 98.696,194.018 99.356,182.944 98.383,174.064 91.475,166.413 
				83.794,159.094 82.373,151.258 85.131,148.852 			"/>
			<polygon style="fill-rule:evenodd;clip-rule:evenodd;" points="201.434,153.059 201.89,140.666 202.685,128.527 205.058,120.472 
				212.377,116.277 221.675,117.121 226.516,122.09 227.695,128.507 227.675,138.251 227.327,143.397 220.372,146.486 
				214.805,150.606 209.891,155.398 213.556,162.399 218.67,166.715 224.283,171.572 226.391,175.272 226.031,181.903 
				224.699,191.226 217.055,191.527 209.36,192.221 200.763,193.43 200.822,186.052 200.982,173.688 201.207,161.869 
				201.434,153.059 			"/>
			
				<path style="fill:none;stroke:#000000;stroke-width:8.5039;stroke-linecap:round;stroke-linejoin:round;stroke-miterlimit:22.9256;" d="
				M71.609,105.428c0,0,15.938-25.313,37.5-19.5"/>
			
				<path style="fill:none;stroke:#000000;stroke-width:8.5039;stroke-linecap:round;stroke-linejoin:round;stroke-miterlimit:22.9256;" d="
				M196.297,85.928c0,0,24.563-10.687,47.25,19.5"/>
			
				<path style="fill:none;stroke:#000000;stroke-width:8.5039;stroke-linecap:round;stroke-linejoin:round;stroke-miterlimit:22.9256;" d="
				M196.109,194.303c0,0,25.501-5.625,47.251-1.687"/>
			
				<path style="fill:none;stroke:#000000;stroke-width:8.5039;stroke-linecap:round;stroke-linejoin:round;stroke-miterlimit:22.9256;" d="
				M64.484,199.553c0,0,16.313-5.812,40.688-5.625"/>
			
				<path style="fill:none;stroke:#000000;stroke-width:8.5039;stroke-linecap:round;stroke-linejoin:round;stroke-miterlimit:22.9256;" d="
				M80.703,125.022c1.312-5.062,12.75-11.812,18.75-2.062"/>
			
				<path style="fill:none;stroke:#000000;stroke-width:8.5039;stroke-linecap:round;stroke-linejoin:round;stroke-miterlimit:22.9256;" d="
				M76.946,196.424c0,0-1.868-56.964,3.757-71.402"/>
			
				<path style="fill:none;stroke:#000000;stroke-width:8.5039;stroke-linecap:round;stroke-linejoin:round;stroke-miterlimit:22.9256;" d="
				M97.578,142.272c0,0,4.41-12.592,1.875-19.313"/>
			
				<path style="fill:none;stroke:#000000;stroke-width:8.5039;stroke-linecap:round;stroke-linejoin:round;stroke-miterlimit:22.9256;" d="
				M81.078,152.585c0,0,6.562-7.5,16.5-10.312"/>
			
				<path style="fill:none;stroke:#000000;stroke-width:8.5039;stroke-linecap:round;stroke-linejoin:round;stroke-miterlimit:22.9256;" d="
				M97.578,172.085c-5.25-6-16.688-12.375-16.5-19.5"/>
			
				<path style="fill:none;stroke:#000000;stroke-width:8.5039;stroke-linecap:round;stroke-linejoin:round;stroke-miterlimit:22.9256;" d="
				M98.696,194.018c0,0,2.069-16.309-1.118-21.934"/>
			
				<path style="fill:none;stroke:#000000;stroke-width:8.5039;stroke-linecap:round;stroke-linejoin:round;stroke-miterlimit:22.9256;" d="
				M203.516,123.335c2.25-8.062,19.311-11.625,23.438-0.188"/>
			
				<path style="fill:none;stroke:#000000;stroke-width:8.5039;stroke-linecap:round;stroke-linejoin:round;stroke-miterlimit:22.9256;" d="
				M200.763,193.43c0,0,0.316-62.971,2.753-70.096"/>
			
				<path style="fill:none;stroke:#000000;stroke-width:8.5039;stroke-linecap:round;stroke-linejoin:round;stroke-miterlimit:22.9256;" d="
				M227.327,143.397c0,0,1.314-13.875-0.374-20.25"/>
			
				<path style="fill:none;stroke:#000000;stroke-width:8.5039;stroke-linecap:round;stroke-linejoin:round;stroke-miterlimit:22.9256;" d="
				M209.891,155.398c0,0,8.436-9.75,17.436-12"/>
			
				<path style="fill:none;stroke:#000000;stroke-width:8.5039;stroke-linecap:round;stroke-linejoin:round;stroke-miterlimit:22.9256;" d="
				M226.391,175.272c0-5.25-18.535-13.717-16.5-19.875"/>
			
				<path style="fill:none;stroke:#000000;stroke-width:8.5039;stroke-linecap:round;stroke-linejoin:round;stroke-miterlimit:22.9256;" d="
				M224.699,191.226c0,0,1.504-6.579,1.692-15.954"/>
		</g>
		<g>
			<path style="fill-rule:evenodd;clip-rule:evenodd;fill:#67559E;" d="M27.837,145.537l5.913-0.702l2.655-15.525
				c0,0,4.793-21.472,5.958-20.912c1.167,0.56,11.369-19.823,12.375-18.938c1.006,0.886,13.829-10.677,13.829-10.677l16.22-7.892
				l22.029-1.392l28.638,6.114l23.352,1.438l32.405-4.217l27.36-5.388l19.07,6.264l12.725,12.542l9.028,12.866l8.634,18.027
				l3.172,9.759l5.697-1.826l2.258-10.378l2.014-15.734l-0.101-17.35l-3.782-18.901l-5.679-12.085l-6.104-1.036l-3.293-12.22
				l-6.456-9.421l-8.498-5.65l-6.644,0.005l-9.759-8.338L218.4,9.691l-12.889-2.186l-17.008-1.843l-20.711-1.316l-24.357,0.076
				L122.06,5.124l-16.029,0.999L92.506,8.922L77.15,15.209l-12.422,7.897l-10.894,7.737l-5.522,2.018l-5.82,5.857l-5.746,8.836
				l-4.732,12.603l-2.22,14.546l-0.052,10.233l-7.32,3.243l-0.555,10.094l0.327,11.618l1.285,12.672l2.09,12.589L27.837,145.537
				L27.837,145.537z"/>
			
				<path style="fill:none;stroke:#000000;stroke-width:8.5039;stroke-linecap:round;stroke-linejoin:round;stroke-miterlimit:22.9256;" d="
				M23.703,80.273c0,0-6.563,23.626,5.062,69.001"/>
			
				<path style="fill:none;stroke:#000000;stroke-width:8.5039;stroke-linecap:round;stroke-linejoin:round;stroke-miterlimit:22.9256;" d="
				M50.703,31.147c0,0-30.375,17.438-18.188,74.439"/>
			
				<path style="fill:none;stroke:#000000;stroke-width:8.5039;stroke-linecap:round;stroke-linejoin:round;stroke-miterlimit:22.9256;" d="
				M126.453,24.21c8.063,23.063,3.938,34.875,11.813,44.625"/>
			
				<path style="fill:none;stroke:#000000;stroke-width:8.5039;stroke-linecap:round;stroke-linejoin:round;stroke-miterlimit:22.9256;" d="
				M50.703,31.147c6,3.188,21.937-24.375,63.937-25.687"/>
			
				<path style="fill:none;stroke:#000000;stroke-width:8.5039;stroke-linecap:round;stroke-linejoin:round;stroke-miterlimit:22.9256;" d="
				M192.266,6.398c0,0-11.438-4.125-77.625-0.938"/>
			
				<path style="fill:none;stroke:#000000;stroke-width:8.5039;stroke-linecap:round;stroke-linejoin:round;stroke-miterlimit:22.9256;" d="
				M245.516,34.148c0,0-1.743-12.251-11.99-18.671c-5.323-3.336-15.797-7.722-41.26-9.079"/>
			
				<path style="fill:none;stroke:#000000;stroke-width:8.5039;stroke-linecap:round;stroke-linejoin:round;stroke-miterlimit:22.9256;" d="
				M262.953,81.398c0,0,14.812-51.188-20.438-60.751"/>
			
				<path style="fill:none;stroke:#000000;stroke-width:8.5039;stroke-linecap:round;stroke-linejoin:round;stroke-miterlimit:22.9256;" d="
				M270.828,49.522c5.218,7.011,17.625,32.064,5.438,78.001"/>
			
				<path style="fill:none;stroke:#000000;stroke-width:8.5039;stroke-linecap:round;stroke-linejoin:round;stroke-miterlimit:22.9256;" d="
				M173.703,25.523c0,0,0.188,27.75,0.188,34.875"/>
			
				<path style="fill:none;stroke:#000000;stroke-width:8.5039;stroke-linecap:round;stroke-linejoin:round;stroke-miterlimit:22.9256;" d="
				M237.641,73.71c0,0,41.25,29.062,38.062,96.188"/>
			
				<path style="fill:none;stroke:#000000;stroke-width:8.5039;stroke-linecap:round;stroke-linejoin:round;stroke-miterlimit:22.9256;" d="
				M194.703,72.023c9.282-1.841,23.25-10.313,42.938,1.687"/>
			
				<path style="fill:none;stroke:#000000;stroke-width:8.5039;stroke-linecap:round;stroke-linejoin:round;stroke-miterlimit:22.9256;" d="
				M126.641,73.523c0,0,24.563,9,68.063-1.499"/>
			
				<path style="fill:none;stroke:#000000;stroke-width:8.5039;stroke-linecap:round;stroke-linejoin:round;stroke-miterlimit:22.9256;" d="
				M70.765,77.273c6.912-4.35,21.938-13.687,55.875-3.75"/>
			
				<path style="fill:none;stroke:#000000;stroke-width:8.5039;stroke-linecap:round;stroke-linejoin:round;stroke-miterlimit:22.9256;" d="
				M33.64,172.335c0,0-8.812-64.688,37.125-95.062"/>
			
				<path style="fill:none;stroke:#000000;stroke-width:8.5039;stroke-linecap:round;stroke-linejoin:round;stroke-miterlimit:22.9256;" d="
				M113.796,10.805c0,0-14.063,11.813-1.313,35.062"/>
			
				<path style="fill:none;stroke:#000000;stroke-width:8.5039;stroke-linecap:round;stroke-linejoin:round;stroke-miterlimit:22.9256;" d="
				M124.617,72.947c0,0-5.384-6.08-12.134-27.08"/>
		</g>
		<polygon style="fill-rule:evenodd;clip-rule:evenodd;fill:#E186AE;" points="50.117,246.035 76.117,232.535 121.117,233.535 
			153.117,234.535 155.849,351.545 154.117,374.035 100.617,358.035 63.117,332.035 40.617,301.535 		"/>
		<path style="fill-rule:evenodd;clip-rule:evenodd;fill:#67559E;" d="M239.117,233.535c2-0.5,23.5,15.5,23.5,15.5l5,23l-5,27
			l-20.5,45.5l-72.5,18l-14,1l-3-124.5L239.117,233.535z"/>
	</g>
</g>
<g id="n1803">
	<g>
		<polygon style="fill-rule:evenodd;clip-rule:evenodd;fill:#4AB57E;" points="139.947,335.909 140.023,325.177 141.244,308.81 
			143.349,299.883 147.914,292.15 154.831,288.414 162.04,288.327 168.695,291.693 173.737,296.549 171.297,301.351 167.37,303.384 
			167.817,311.15 168.574,328.07 159.929,326.571 150.077,328.632 139.947,335.909 		"/>
		
			<path style="fill:none;stroke:#000000;stroke-width:8.5039;stroke-linecap:round;stroke-linejoin:round;stroke-miterlimit:22.9256;" d="
			M138.576,334.768c3.375-14.794,0.186-47.589,21.548-46.791"/>
		
			<path style="fill:none;stroke:#000000;stroke-width:8.5039;stroke-linecap:round;stroke-linejoin:round;stroke-miterlimit:22.9256;" d="
			M154.01,305.762c7.687,0.915,36.793-7.052,6.115-17.786"/>
		
			<path style="fill:none;stroke:#000000;stroke-width:8.5039;stroke-linecap:round;stroke-linejoin:round;stroke-miterlimit:22.9256;" d="
			M168.67,329.158c0,0-0.688-13.969-1.299-25.774"/>
	</g>
</g>
<g id="n1804">
	<g>
		<g>
			<path style="fill-rule:evenodd;clip-rule:evenodd;fill:#67559E;" d="M148.66,183.837l-7.637,2.016l-9.618,4.854l-5.881,5.285
				l-7.283,4.465l-4.614,8.28l0.501,9.451l5.123,6.361l8.299,2.693l4.841,0.573c0,0,21.718,2.391,32.589-0.43
				c10.87-2.819,14.329-4.654,14.329-4.654l4.777-5.429l-0.72-8.484l-6.454-9.507l-8.037-6.822l-10.543-6.335l-5.702-2.078
				L148.66,183.837L148.66,183.837z"/>
			
				<path style="fill:none;stroke:#000000;stroke-width:8.5039;stroke-linecap:round;stroke-linejoin:round;stroke-miterlimit:22.9256;" d="
				M164.98,227.385c7.21-0.993,16.442-3.619,19.107-10.083c1.123-2.725,1.228-6.085-3.468-13.477
				c-4.697-7.391-19.412-17.776-27.988-19.749c0,0-3.983-0.809-7.89,0.429c-8.147,2.487-20.555,9.903-26.5,15.951
				c-5.946,6.05-5.668,13.681-4.112,17.731c3.191,8.308,11.323,8.884,18.263,9.627"/>
			
				<path style="fill:none;stroke:#000000;stroke-width:8.5039;stroke-linecap:round;stroke-linejoin:round;stroke-miterlimit:22.9256;" d="
				M133.935,210.063c-0.414,4.98-4.374,9.09-1.973,10.29C134.364,221.555,136.165,214.35,133.935,210.063L133.935,210.063z"/>
			
				<path style="fill:none;stroke:#000000;stroke-width:8.5039;stroke-linecap:round;stroke-linejoin:round;stroke-miterlimit:22.9256;" d="
				M160.108,211.315c5.633,3.274,9.004,10.585,6.14,11.683C163.214,224.161,161.421,217.792,160.108,211.315L160.108,211.315z"/>
		</g>
		<g>
			<path style="fill-rule:evenodd;clip-rule:evenodd;fill:#F9D740;" d="M279.537,250.35l-6.049-11.07l-8.046-7.899l-17.107-8.708
				l-21.33-4.73l-16.729-0.501l-16.978,2.904l-16.834,5.027l-19.484,2.513l-19.147-0.136l-14.123-1.649l-16.708-2.858l-19.603-2.398
				l-16.81,1.827l-15.756,7.023l-10.087,7.646l-9.595,12.088l-5.911,15.095l-1.567,19.438l2.086,15.168l4.18,14.354l3.962,10.68
				l1.743,8.945l3.774,10.15l4.575,5.744l8.223,0.788l4.549,8.104l5.269,4.802l6.821,5.317l7.795-0.538l4.989,5.235l3.051,4.446
				l3.241,3.278l8.731-2.673l6.238,1.591l4.763,6.319l4.998,2.003l6.195-3.008l6.169-2.941l5.062,1.944l4.343,4.838l4.338,2.726
				l7.205-1.821l6.389-4.821l5.021-0.22l3.724,2.764l4.773,2.597l7.01-3.183l4.401-5.503l4.547-1.569l5.348,2.594l3.286,4.065
				l4.312-0.59l4.472-2.708l2.816-6.159l3.605-3.815l6.15,0.873l5.25,2.765l5.172-0.113l4.792-3.458l3.138-6.562l2.315-5.298
				l2.218-1.47c0,0,9.043,1.79,7.773,1.239c-1.271-0.551,6.552,0.755,6.552,0.755l3.913-3.462l1.882-6.643l1.264-6.01l3.139-5.39
				l4.382-0.435l4.342,0.522l1.755-4.106l0.957-9.312l1.554-8.194l1.799-9.793l2.127-13.184l1.311-11.887l0.39-17.546
				L279.537,250.35z M256.617,298.035c-11.75,19.75-35,61.25-100.25,55.5s-81.5-18.75-98.5-42c0,0-17.25-15.25-6-35.25
				s13.25-21.75,13.25-21.75s4.75-6.75,11.5,3.25c6.75,10,14.25,12,14.25,12s6,2.75,13.25,3s14.75-5.75,14.75-5.75
				s8.295,9.815,20.25,6.75s12-5,12-5s9.5,9.25,16.25,8s13.25-7,13.25-7s4.75,7.25,13.5,5.25s11.5-6.75,13.25-11.25s-2.25,7.5,7,5.5
				s10.5-7.25,11.75-12.25c1.25-5,4.5-15,9-10.75s8.75,11.25,12.75,10.25c4-1,6.75-2.5,6.75-2.5S268.367,278.285,256.617,298.035z"
				/>
			<polygon style="fill-rule:evenodd;clip-rule:evenodd;fill:#62F5E4;" points="72.582,327.176 80.61,317.542 85.442,310.684 
				91.534,304.385 98.663,304.931 104.385,307.846 106.019,313.262 111.931,313.553 117.123,317.622 122.283,323.32 129.03,321.734 
				135.928,323.415 143.958,327.448 151.862,321.871 161.76,318.485 170.702,319.371 180.253,326.341 187.171,321.21 
				195.205,318.627 200.775,319.159 206.494,312.94 214.303,307.839 221.125,302.547 230.751,300.736 240.547,307.406 
				247.76,312.843 240.222,323.885 229.007,332.18 215.294,340.783 196.99,347.463 178.71,350.584 155.849,351.545 139.478,350.779 
				121.492,348.288 102.059,343.099 87.049,336.625 78.366,331.455 72.582,327.176 			"/>
			<polygon style="fill-rule:evenodd;clip-rule:evenodd;fill:#F2F2F4;" points="76.569,253.446 82.781,253.638 87.771,250.557 
				92.463,248.414 99.004,250.83 105.552,253.534 115.189,250.491 123.222,249.822 128.962,254.583 136.483,254.412 
				144.118,250.274 153.817,251.513 159.036,253.365 165.202,252.782 173.325,248.487 181.274,249.064 186.622,251.783 
				193.697,250.627 199.838,246.216 205.338,244.85 211.264,246.869 216.558,250.476 223.22,249.829 227.151,247.448 
				227.415,257.295 225.452,264.684 221.226,270.182 214.558,272.556 206.54,271.248 201.332,276.777 194.214,278.055 
				184.25,274.521 181.072,272.596 175.961,277.29 168.972,278.135 161.284,276.259 153.357,272.626 151.072,270.72 
				143.544,275.482 135.335,276.558 126.409,272.134 119.947,269.221 114.663,272.282 105.723,273.841 98.971,270.329 
				91.641,272.294 84.343,267.312 78.159,259.417 76.569,253.446 			"/>
			
				<path style="fill:none;stroke:#000000;stroke-width:8.5039;stroke-linecap:round;stroke-linejoin:round;stroke-miterlimit:22.9256;" d="
				M76.449,255.149c0,0,2.623,11.822,17.436,18.197"/>
			
				<path style="fill:none;stroke:#000000;stroke-width:8.5039;stroke-linecap:round;stroke-linejoin:round;stroke-miterlimit:22.9256;" d="
				M91.447,254.033c0,0,4.875,31.688,28.501,15.188"/>
			
				<path style="fill:none;stroke:#000000;stroke-width:8.5039;stroke-linecap:round;stroke-linejoin:round;stroke-miterlimit:22.9256;" d="
				M151.072,270.72c0,0-12.937,14.251-31.124-1.499"/>
			
				<path style="fill:none;stroke:#000000;stroke-width:8.5039;stroke-linecap:round;stroke-linejoin:round;stroke-miterlimit:22.9256;" d="
				M181.072,272.596c0,0-9.75,15.937-30.001-1.876"/>
			
				<path style="fill:none;stroke:#000000;stroke-width:8.5039;stroke-linecap:round;stroke-linejoin:round;stroke-miterlimit:22.9256;" d="
				M209.947,257.783c0,0-0.749,33.188-28.875,14.812"/>
			
				<path style="fill:none;stroke:#000000;stroke-width:8.5039;stroke-linecap:round;stroke-linejoin:round;stroke-miterlimit:22.9256;" d="
				M226.447,248.783c2.626,2.438,2.374,30.117-19.907,22.465"/>
			
				<path style="fill:none;stroke:#000000;stroke-width:8.5039;stroke-linecap:round;stroke-linejoin:round;stroke-miterlimit:22.9256;" d="
				M76.072,323.408c6.375-5.625,12.562-27,28.313-15.562"/>
			
				<path style="fill:none;stroke:#000000;stroke-width:8.5039;stroke-linecap:round;stroke-linejoin:round;stroke-miterlimit:22.9256;" d="
				M92.009,328.471c0,0,13.501-28.876,27.188-8.062"/>
			
				<path style="fill:none;stroke:#000000;stroke-width:8.5039;stroke-linecap:round;stroke-linejoin:round;stroke-miterlimit:22.9256;" d="
				M143.947,329.408c0,0-16.313-19.125-31.126,3"/>
			
				<path style="fill:none;stroke:#000000;stroke-width:8.5039;stroke-linecap:round;stroke-linejoin:round;stroke-miterlimit:22.9256;" d="
				M179.01,327.533c0,0-14.437-22.876-35.062,1.875"/>
			
				<path style="fill:none;stroke:#000000;stroke-width:8.5039;stroke-linecap:round;stroke-linejoin:round;stroke-miterlimit:22.9256;" d="
				M216.697,334.471c0,0-13.874-30.562-37.688-6.938"/>
			
				<path style="fill:none;stroke:#000000;stroke-width:8.5039;stroke-linecap:round;stroke-linejoin:round;stroke-miterlimit:22.9256;" d="
				M199.918,318.944c7.312-2.625,12.467-25.536,33.467,2.964"/>
			
				<path style="fill:none;stroke:#000000;stroke-width:8.5039;stroke-linecap:round;stroke-linejoin:round;stroke-miterlimit:22.9256;" d="
				M243.885,311.408c0,0-15.573-22.536-27.287-3.581"/>
			
				<path style="fill:none;stroke:#000000;stroke-width:8.5039;stroke-linecap:round;stroke-linejoin:round;stroke-miterlimit:22.9256;" d="
				M133.15,227.413c0,0,19.125,1.874,37.312-0.75"/>
			
				<path style="fill:none;stroke:#000000;stroke-width:8.5039;stroke-linecap:round;stroke-linejoin:round;stroke-miterlimit:22.9256;" d="
				M247.337,222.351c-41.472-12.55-59.438,1.687-76.875,4.312"/>
			
				<path style="fill:none;stroke:#000000;stroke-width:8.5039;stroke-linecap:round;stroke-linejoin:round;stroke-miterlimit:22.9256;" d="
				M281.54,259.236c-1.132-10.996-7.953-28.635-34.203-36.885"/>
			
				<path style="fill:none;stroke:#000000;stroke-width:8.5039;stroke-linecap:round;stroke-linejoin:round;stroke-miterlimit:22.9256;" d="
				M273.775,331.476c6.426-33.768,9.265-47.49,7.765-72.241"/>
			
				<path style="fill:none;stroke:#000000;stroke-width:8.5039;stroke-linecap:round;stroke-linejoin:round;stroke-miterlimit:22.9256;" d="
				M53.181,257.133c0,0,2.539,1.707,7.149-0.126c2.001-0.795,4.287-4.685,8.413-4.936"/>
			
				<path style="fill:none;stroke:#000000;stroke-width:8.5039;stroke-linecap:round;stroke-linejoin:round;stroke-miterlimit:22.9256;" d="
				M92.463,248.414c-5.719,0.375-4.222,4.711-11.319,5.499c-4.716,0.523-7.551-2.424-12.4-1.843"/>
			
				<path style="fill:none;stroke:#000000;stroke-width:8.5039;stroke-linecap:round;stroke-linejoin:round;stroke-miterlimit:22.9256;" d="
				M67.15,322.288c15.375,15.375,44.669,29.509,91.874,29.261c41.19-0.216,68.85-9.682,92.064-43.324"/>
			
				<path style="fill:none;stroke:#000000;stroke-width:8.5039;stroke-linecap:round;stroke-linejoin:round;stroke-miterlimit:22.9256;" d="
				M253.338,254.788c0,0,15,24.376-2.25,53.437"/>
			
				<path style="fill:none;stroke:#000000;stroke-width:8.5039;stroke-linecap:round;stroke-linejoin:round;stroke-miterlimit:22.9256;" d="
				M231.963,245.975c6.375,0.75,5.871,9.525,11.514,10.892c4.356,1.056,5.655-1.712,9.861-2.079"/>
			
				<path style="fill:none;stroke:#000000;stroke-width:8.5039;stroke-linecap:round;stroke-linejoin:round;stroke-miterlimit:22.9256;" d="
				M205.338,244.85c7.5,0.375,6.85,5.537,13.882,6.173c3.891,0.352,7.741-5.039,12.743-5.048"/>
			
				<path style="fill:none;stroke:#000000;stroke-width:8.5039;stroke-linecap:round;stroke-linejoin:round;stroke-miterlimit:22.9256;" d="
				M175.713,248.226c8.25-0.188,7.557,4.059,13.474,3.769c6.916-0.339,8.873-7.542,16.151-7.145"/>
			
				<path style="fill:none;stroke:#000000;stroke-width:8.5039;stroke-linecap:round;stroke-linejoin:round;stroke-miterlimit:22.9256;" d="
				M146.65,249.725c7.688-0.562,6.168,3.789,14.344,3.72c7.867-0.068,8.329-5.276,14.719-5.219"/>
			
				<path style="fill:none;stroke:#000000;stroke-width:8.5039;stroke-linecap:round;stroke-linejoin:round;stroke-miterlimit:22.9256;" d="
				M118.15,249.913c8.438,0,6.532,5.005,14.757,5.413c4.685,0.232,7.64-5.524,14.922-5.649"/>
			
				<path style="fill:none;stroke:#000000;stroke-width:8.5039;stroke-linecap:round;stroke-linejoin:round;stroke-miterlimit:22.9256;" d="
				M92.463,248.414c6.75-0.562,5.558,4.631,13.089,5.12c3.83,0.249,8.114-3.397,12.598-3.621"/>
			
				<path style="fill:none;stroke:#000000;stroke-width:8.5039;stroke-linecap:round;stroke-linejoin:round;stroke-miterlimit:22.9256;" d="
				M64.226,253.947c0,0-31.389,33.278,2.923,68.341"/>
			
				<path style="fill:none;stroke:#000000;stroke-width:8.5039;stroke-linecap:round;stroke-linejoin:round;stroke-miterlimit:22.9256;" d="
				M53.275,230.6c4.59-2.425,11.282-8.986,31.486-9.742c11.808-0.441,31.019,4.554,48.389,6.555"/>
			
				<path style="fill:none;stroke:#000000;stroke-width:8.5039;stroke-linecap:round;stroke-linejoin:round;stroke-miterlimit:22.9256;" d="
				M36.963,320.789c0,0-29.626-59.814,16.312-90.189"/>
			
				<path style="fill:none;stroke:#000000;stroke-width:8.5039;stroke-linecap:round;stroke-linejoin:round;stroke-miterlimit:22.9256;" d="
				M37.9,324.164c0,0,3,26.062,14.812,26.625"/>
			
				<path style="fill:none;stroke:#000000;stroke-width:8.5039;stroke-linecap:round;stroke-linejoin:round;stroke-miterlimit:22.9256;" d="
				M53.838,344.039c0,0,10.126,30,26.813,23.438"/>
			
				<path style="fill:none;stroke:#000000;stroke-width:8.5039;stroke-linecap:round;stroke-linejoin:round;stroke-miterlimit:22.9256;" d="
				M102.588,377.601c-4.312-0.562-5.813,5.046-10.656,2.834c-3.271-1.494-6.933-10.674-11.281-12.959"/>
			
				<path style="fill:none;stroke:#000000;stroke-width:8.5039;stroke-linecap:round;stroke-linejoin:round;stroke-miterlimit:22.9256;" d="
				M129.025,381.726c-6.562-0.562-5.537,6.165-12.364,5.949c-8.209-0.258-7.415-10.645-14.073-10.074"/>
			
				<path style="fill:none;stroke:#000000;stroke-width:8.5039;stroke-linecap:round;stroke-linejoin:round;stroke-miterlimit:22.9256;" d="
				M159.026,384.164c-6.188-0.188-6.273,6.577-15.17,7.108c-6.323,0.378-7.28-9.437-14.83-9.546"/>
			
				<path style="fill:none;stroke:#000000;stroke-width:8.5039;stroke-linecap:round;stroke-linejoin:round;stroke-miterlimit:22.9256;" d="
				M185.838,379.476c-6.75-0.75-6.581,8.921-14.474,10.167c-6.316,0.998-6.513-6.112-12.338-5.479"/>
			
				<path style="fill:none;stroke:#000000;stroke-width:8.5039;stroke-linecap:round;stroke-linejoin:round;stroke-miterlimit:22.9256;" d="
				M210.588,372.539c-7.126,2.062-3.552,11.161-11.805,13.007c-5.877,1.315-7.718-6.364-12.946-6.069"/>
			
				<path style="fill:none;stroke:#000000;stroke-width:8.5039;stroke-linecap:round;stroke-linejoin:round;stroke-miterlimit:22.9256;" d="
				M238.713,359.601c-5.438,1.125-3.281,13.592-12.463,16.787c-7.204,2.506-11.038-5.607-15.662-3.85"/>
			
				<path style="fill:none;stroke:#000000;stroke-width:8.5039;stroke-linecap:round;stroke-linejoin:round;stroke-miterlimit:22.9256;" d="
				M263.463,339.914c-5.999,4.5-2.993,17.665-9.158,21.112c-6.083,3.401-10.494-3.818-15.592-1.425"/>
			
				<path style="fill:none;stroke:#000000;stroke-width:8.5039;stroke-linecap:round;stroke-linejoin:round;stroke-miterlimit:22.9256;" d="
				M273.775,331.476c-0.506,3.361,0.95,6.107-1.814,8.701c-1.545,1.451-5.332-2.298-8.724-0.087"/>
		</g>
		
			<path style="fill:none;stroke:#000000;stroke-width:8.5039;stroke-linecap:round;stroke-linejoin:round;stroke-miterlimit:22.9256;" d="
			M127.749,170.904c0,0,19.368-13.79,42.226-0.96"/>
	</g>
</g>
</svg>
