<svg xmlns="http://www.w3.org/2000/svg" viewBox="0 0 340.049 625.295"><g id="n1901"><g><path fill-rule="evenodd" clip-rule="evenodd" fill="#81cece" d="M111.552 505.295l5.826 7.776 5.035 8.925 5.545 11.253 3.193 10.525 12.77-3.416 12.438-7.256 9.667-10.891 7.124-.937 7.753-1.174 8.705 3.08 10.635 6.763 10.352 6.974 7.726 4.103 6.142-10.605 8.671-14.027 7.874-7.323 14.644 10.516 12.82 10.478 12.086 11.147 13.162 14.449 9.399 13.599 5.782 13.708-13.442 8.369-20.456 9.356-24.493 8.88-26.801 6.83-23.71 3.52-23.101 1.126-27.03-1.642-23.37-4.103-17.663-5.899-22.431-7.569-19.218-9.956L48.463 577.9l5.472-9.233 9.618-13.673 12.231-14.808 11.419-12.243 12.538-12.195 11.811-10.453z"/><path d="M147.838 411.21s27.565-12.749 57-.938c-.25 8.248-.465 33.364-.465 33.364l-.005 11.922.867 10.827 5.415 15.325-6.706 10.441-11.375 10.06-11.687 5.518-7.972 1.611-12.15-6.397-12.74-10.534-9.369-14.074 4.443-9.135 3.851-13.131s2.561-14.094 1.569-14.111c-.993-.018-.676-30.748-.676-30.748z" fill-rule="evenodd" clip-rule="evenodd" fill="#fff"/><path fill-rule="evenodd" clip-rule="evenodd" fill="#404041" d="M106.025 494.836l10.111-8.237 6.715-11.77 2.071-6.837 9.335-8.638 12.688-3.284-2.636 9.839-5.658 12.427 4.411 8.694 11.327 10.648 16.238 10.463 6.269.395 12.956-5.04 12.095-9.096 8.704-12.689-3.815-10.799-2.083-10.564 10.387 3.347 8.636 6.954 4.539 10.097 6.373 8.381 10.275 10.397-5.61 8.992-10.153 13.736-9.924 18.897-12.133-6.557-13.398-8.93-12.842-5.562-14.877 2.111-8.167 9.633-13.938 8.514-12.77 3.416-5.966-16.151-6.789-12.748-6.087-10.205-6.284-9.834z"/><path d="M106.025 494.836s16.125-8.25 18-25.688m21.563-13.499s-10.688-.938-21.563 13.5m23.813-57.939s4.5 43.689-9.187 67.126m35.25 31.125c-7.688-.188-35.25-21.938-35.25-31.125m72 3.375s-9.375 22.875-36.75 27.75m30.937-99.189c-.371 17.43-2.625 60.564 5.812 71.439m-44.624 40.5s-9.375 17.812-34.875 21.562m-25.126-48.937s24.375 36.563 25.125 48.938m49.501-23.624c6.938-1.688 33 21.188 38.625 20.999m26.437-39s-14.438 11.439-26.438 39m4.501-70.5s.937 10.5 21.188 28.875m-40.357-39.184s10.355.371 19.168 10.309M112.309 504.67s-43.033 34.979-63.846 73.229m124.687-56.625s8.625 39.938 1.875 60.751m8.626.937s-6.188.188-8.625-.938M48.463 577.9c2.438 5.438 107.812 88.124 255.188 9.187m-62.626-78.001c-1.217-1.086 58.688 38.438 67.875 73.876" fill="none" stroke="#000" stroke-width="8.504" stroke-linecap="round" stroke-linejoin="round" stroke-miterlimit="22.926"/><path d="M194.338 538.959a4.25 4.25 0 0 1 4.251 4.252 4.251 4.251 0 1 1-4.251-4.252zm1.875 24.563a4.251 4.251 0 0 1 4.251 4.253 4.25 4.25 0 1 1-8.503 0 4.253 4.253 0 0 1 4.252-4.253z" fill-rule="evenodd" clip-rule="evenodd"/></g></g><g id="n1902"><g><g><path d="M303.74 290.28s-12.83-.609-6-27.75c3.072-12.205-4.715-19.134-8.83-25.11-4.07-5.91 1.241-12.497 1.148-14.454-.187-3.938-.947-21.373 2.995-27.374 3.943-6.001 17.63-6.518 17.63-6.518l13.43 5.84 9.72 17.716 1.943 12.775-1.315 14.054-3.801 12.159-5.557 8.88-5.425 9.834-1.893 9.419-4.243 5.871-9.802 4.658z" fill-rule="evenodd" clip-rule="evenodd" fill="#4ab57e"/><path d="M43.865 197.468l-16.205-2.961-11.284 3.817-7.854 9.89-3.53 12.95-.741 11.459 1.562 9.132 6.926 7.744 7 8.452 3.12 10.751 6.164 10.117 10.717 9.961s18.195-2.933 6.375-31.5c4.583-4.482 5.298-6.869 5.894-11.322 1.388-10.386.725-19.498.462-21.598-.375-2.999 8.18-21.362-8.606-26.892z" fill-rule="evenodd" clip-rule="evenodd" fill="#61f4e5"/><path d="M293.053 195.592s25.688-21 39.188 12.375m-3.188 47.063s12.751-23.064 3.188-47.064M303.74 290.28s13.875-2.625 14.812-14.062m10.501-21.188c-3.325 5.593-9.562 10.125-10.5 21.187m-17.438-13.687s19.125-9.188 2.25-29.251m0 0c-6.375-6.936 4.147-12.561 10.688-25.124M43.865 197.468S2.615 178.343 4.302 236.28m16.876 26.438c-2.619-14.434-16.287-14.741-16.875-26.437M39.74 288.78s-16.132-10.77-18.562-26.062m2.881-47.357s13.056 4.043 11.369 25.982m10.687 15.937s-13.125-.563-10.688-15.937" fill="none" stroke="#000" stroke-width="8.504" stroke-linecap="round" stroke-linejoin="round" stroke-miterlimit="22.926"/></g><g fill="#fff"><path fill-rule="evenodd" clip-rule="evenodd" d="M51.983 274.4l4.754.134 9-.25 18.364-4.016 11.284-5.005 15.874 2.046 110.539-1.174 16.189 2.649 16 .25 20.5 8 6.931-11.563 5.389-.796 4.808 7.362 3.459-3.611-1.278-11.077-4.863-11.993-5.607-6.919 3.842-12.873 3.838-20.864 1.248-21.581-1.336-18.799-4.02-19.016-7.791-20.002-10.959-17.826-13.58-15.105-20.257-14.182-22.01-8.22-22.389-3.345-22.505-.019-19.302 1.74-21.049 4.262-19.743 7.203-14.791 8.47-14.001 11.927-12.493 16.669-8.341 16.563-5.567 16.865-2.609 13.898-1.045 13.197.427 18.653 1.918 19.223 1.858 18.509.512 11.829-1.406 6.995-3.38 8.491-1.679 9.229 5.267 4.072z"/><path d="M72.045 103.049C87.42 82.424 114.04 63.86 165.064 60.788c29.439-1.771 70.646-.748 101.231 37.011m18.031 134.638s29.22-76.138-18.03-134.638M54.134 244.18c2.25-36.376-20.714-84.881 17.911-141.131"/></g><g><path fill-rule="evenodd" clip-rule="evenodd" fill="#e186ae" d="M250.266 92.201l11.339-7.087 5.58-10.217 11.944.089 10.511 3.171 9.637 8.308 4.016 7.774 2.136 11.171-4.736 2.092 3.499 10.734 1.532 9.894.265 11.904-1.45 13.581-3.586 14.613-5.092 12.284-4.819 2.477-1.835-11.629-1.516-11.906-2.628-12.464-7.356-20.703-7.685-13.659-8.969-11.222-10.787-9.205z"/><path fill-rule="evenodd" clip-rule="evenodd" fill="#f9d740" d="M244.632 91.019l5.634 1.182 6.57-4.107 6.613-3.644 4.106-11.075 1.245-14.139-3.136-16.22-6.464-12.545-11.351-11.773-14.744-9.335-18.759-3.877L194.67 4.27l-19.617 1.521-16.127 2.79-10.192 1.751-13.222 1.069-13.967 3.409-15.208 6.709-13.608 9.059-10.357 9.175-7.229 7.786-10.667.075-13.083 7.909-10.191 11.11-7.881 13.194-5.183 13.904-2.739 16.698.491 13.549 4.118 16.39 5.978 12.206 11.961 13.403 2.172-13.467 4.545-15.864 6.95-15.325 11.802-16.818 12.48-11.782 18.169-11.222 16.964-7.267 20.367-.235 21.569 3.301 20.773 5.746 20.414 5.508 15.293 2.482 11.599.622 13.588-.637z"/><path d="M86.757 80.894c78.938-22.688 96.562 16.125 157.875 10.125m-197.25 94.875s-8.085-89.05 77.239-111.932M73.257 46.207C43.07 44.706-2.544 115.781 47.768 167.725m76.864-138.019c32.451-14.396 63.16 9.557 66.889 43.385.165 1.499.978 3.14 2.069 4.147m4.776-43.829c15.375 8.814 9.938 36.375 24 50.063m-170.25.375s30.562-74.813 99-73.5m110.625 76.875c18.751-27.187 6.375-105.188-110.625-76.875m154.313 95.063s.198-34.399-38.245-30.513m14.058 11.95c37.312 17.812 25.961 83.316 8.711 102.441m-3.274-76.753s8.812 3.562 16.312 28.125M248.71 91.253s44.438 23.625 41.063 105.937" fill="none" stroke="#000" stroke-width="8.504" stroke-linecap="round" stroke-linejoin="round" stroke-miterlimit="22.926"/><path d="M156.46 18.691c2.001.762 4.783.535 7.127-.061 36.973-9.408 108.708-7.676 90.936 70.936" fill="none" stroke="#000" stroke-width="8.504" stroke-linecap="round" stroke-linejoin="round" stroke-miterlimit="22.926"/><path d="M174.273 30.691c5.625.375 74.783-25.431 65.533 48.38-.297 2.373 1.135 4.889 4.592 6.37m-70.5-13.313c-3-24-35.44-46.458-63.562-27.188-28.123 19.271-26.626 57-75.188 64.312" fill="none" stroke="#000" stroke-width="8.504" stroke-linecap="round" stroke-linejoin="round" stroke-miterlimit="22.926"/></g><path fill-rule="evenodd" clip-rule="evenodd" fill="#f9d740" d="M41.261 269.427l4.684-1.541 2.374-8.406 4.3-10.949 6.349-8.307 4.853-4.102-3.208-9.66-3.177-8.095-1.893-9.065.513-9.92 2.639-14.558-1.203-10.171-1.797-11.579-6.85-11.532-5.332 7.139-2.792 7.896-1.041 10.372.746 12.383 1.502 12.837.134 8.912-3.604 7.247-5.862 10.431-2.025 10.638 1.081 8.572 3.129 9.193 3.262 6.7 3.218 5.565z"/><path fill-rule="evenodd" clip-rule="evenodd" fill="#e186ae" d="M288.356 146.486l7.802 1.869 5.331 8.726 1.334 8.611-2.121 12.367-2.404 8.356-.773 7.388 4.483 5.559 5.053 8.26 1.964 9.625-.825 8.713-4.431 8.797 1.976 10.153.312 11.958-2.527 9.598-4.184 5.826-5.15-7.217-4.587-6.848 4.112-3.747-4.215-9.351-4.955-6.42-4.721-5.87-.164-12.779 2.033-13.995 2.071-11.858.462-9.197-.178-13.291 1.221-12.038 3.081-13.195z"/><path d="M296.158 148.355c15.938 17.438-2.25 37.686 1.875 47.249m5.626 39.188c3.562-.938 12.562-24.751-5.625-39.188" fill="none" stroke="#000" stroke-width="8.504" stroke-linecap="round" stroke-linejoin="round" stroke-miterlimit="22.926"/><path d="M47.345 278.855s-9.75 15.938-.188 23.062" fill="#61f4e5"/><path d="M42.47 271.355c-27.188-42.563.852-49.713-.06-63.744-1.203-18.495-8.222-41.948 6.436-56.068" fill="none" stroke="#000" stroke-width="8.504" stroke-linecap="round" stroke-linejoin="round" stroke-miterlimit="22.926"/><g><path fill-rule="evenodd" clip-rule="evenodd" d="M94.781 181.618l.454-10.994 1.346-10.443 2.378-8.084 4.857-4.904 6.385-.643 5.438 4.728 1.122 5.937-.619 7.541-1.44 6.861-7.528 5.523-6.672 4.399-.613 8.553 6.248 5.517 7.053 5.684 4.378 5.477-.83 3.843-4.728 4.94-10.117 2.597-4.704-3.789-1.499-7.983-.853-16.623-.056-8.137zm124.835 5.243l-.208-11.172.01-11.54.848-10.721 3.769-5.694 9.769-3.608 7.665 3.412 4.267 6.907.694 6.834-.732 9.414-.497 2.958-8.826 4.381-7.351 5.695-3.323 5.178 6.592 5.575 8.332 7.549 5.139 4.841-3.166 7.277-6.572 2.748-10.32-2.907-5.311-6.344-.779-20.783z"/><path d="M213.326 221.955s22.875-8.305 48.938 2.033m-176.813 6.271s20.624-16.44 47.437-8.474m-55.499-82.031s19.568-25.282 27.382-25.855c6.846-.501 15.737 6.749 26.994 19.415m62.999-2.374s22.501-23.102 33.001-22.996c7.007.071 20.874 6.832 33.374 26.047M98.951 152.126c1.617-5.616 12.75-9.322 16.688-.848m-.937 20.339s3.937-14.237.937-20.339m-16.313 31.017s12.75-8.135 15.375-10.678m-14.812 18.475s9.937 9.152 15.937 13.05m-5.062 13.22s11.062-6.271 5.062-13.22m-19.687 8.304s1.313 7.458 7.875 6.78m116.062-63.727c.75-7.796 15.938-17.457 24.75-2.712m-24.562 54.914s-1.876-44.744-.188-52.202m25.125 19.152s3-14.745-.375-21.864m-19.125 37.118s1.5-7.796 19.5-15.254m.563 33.219s-11.812-11.356-20.062-17.966m5.062 27.966s-9.562-1.016-10.5-10.169m25.5.169s-.75 10.678-11.062 10" fill="none" stroke="#000" stroke-width="8.504" stroke-linecap="round" stroke-linejoin="round" stroke-miterlimit="22.926"/></g><path d="M46.716 270.328s20.04-5.598 23.893-7.628c3.854-2.03 56.155-7.613 56.155-7.613l37.987 5.076 3.854-3.553 3.303 159.879-92.49-25.885-33.931-54.069 1.229-66.207z" fill="#61f4e5"/><path fill="#4ab57e" d="M228.063 404.307l44.594-29.945 22.021-41.62 8.809-41.619-11-30.589-66.076-9-57.806 5.075 2.753 162.925z"/><path d="M289.408 142.917c-10.125 33.188-1.769 35.732-7.24 60.946-2.872 13.235 5.194 47.393 14.319 66.671m1.171-53.554s18.188 39.562 1.688 55.313M48.845 151.542c15.562 24.75 6.082 40.305 6.698 57.76.368 10.409 11.865 28.587-9.598 58.584" fill="none" stroke="#000" stroke-width="8.504" stroke-linecap="round" stroke-linejoin="round" stroke-miterlimit="22.926"/></g></g><g id="n1903"><g><path fill-rule="evenodd" clip-rule="evenodd" fill="#e186ae" d="M149.409 365.356l1.351-11.395 1.681-22.033 3.374-11.191 5.966-6.939 7.316-2.102 7.391 2.54 5.385 3.508 2.896 4.507-3.396 5.595-3.115 2.59.369 7.382.486 16.607-.83 5.221-8.242-2.279-8.676 2.099-6.054 4.053-5.902 1.837z"/><path d="M149.123 366.913c3.41-17.186.187-56.14 21.775-55.214m-6.179 20.662c7.768 1.064 40.224-10.485 6.179-20.662m8.635 48.697s-.696-17.084-1.313-30.798" fill="none" stroke="#000" stroke-width="8.504" stroke-linecap="round" stroke-linejoin="round" stroke-miterlimit="22.926"/></g></g><g id="n1904"><g><path d="M166.255 203.666l-8.349 2.204-10.516 5.305-6.428 5.778-7.961 4.881-5.043 9.051.547 10.332 5.601 6.954 9.072 2.944 5.291.626s23.742 2.614 35.625-.469c11.883-3.083 15.665-5.089 15.665-5.089l5.222-5.934-.786-9.275-7.055-10.393-8.787-7.458-11.525-6.924-6.234-2.271-4.339-.262z" fill-rule="evenodd" clip-rule="evenodd" fill="#f9d740"/><path d="M305.075 289.103l-2.756-10.581-6.888-13.752-10.872-10.841-15.457-9.113-17.979-5.908-15.301-2.106-11.289-.108-15.555.631-13.768 4.016-16.767 6.191-11.391 4.536-9.436.638-13.832-2.481s-9.845-3.526-11.174-3.911c-1.329-.385-10.021-2.012-10.021-2.012l-12.792-1.059-17.368 1.621-15.208 4.993-9.952 5.62-9.722 7.989-7.25 8.569-2.954 6.819-2.767 5.921-1.421 10.556 4.001 6.586L44.5 312.77l-.694 10.617 1.945 16.629 4.02 14.202 5.591 13.835 7.348 14.611 7.605 13.234 7.064 11.419 7.17 7.019 6.671 2.519 4.702-2.96 3.319 4.965 6.916 8.84 9.472 8.856 10.845 4.981 10.024-1.552 4.973-3.629 7.217 7.358 10.021 7.93 13.021 5.76 12.909.629 13.295-5.391 11.546-8.947 9.459-9.005 11.726.001 10.154-4.367s11.583-9.685 12.412-10.583c.83-.899 8.285-10.634 8.285-10.634l6.115-9.967 9.899-9.143 7.775-11.05 9.062-16.744 6.62-17.513 4.702-21.797.892-20.67-1.506-13.12zm-42.088 50.431c-12 10-11.5 28.5-66.5 31.5s-63 1-82.5-6-43.5-29-47.5-43-.5-16.5-.5-16.5-4-20.5 7.5-23.5 17 5 24.5.5 3-10 12-8 4 8.5 16 9.5 24.5-7.5 24.5-7.5l37 9 10-9 15 5.5 20-6.5 13.5-1.5 19 7.5 9.5 17.5s.5 30.5-11.5 40.5z" fill-rule="evenodd" clip-rule="evenodd" fill="#67559e"/><path fill-rule="evenodd" clip-rule="evenodd" fill="#fff" d="M87.409 351.291l8.216-8.847 5.491-7.781 6.313-5.093 7.825-.005 4.571 2.542 1.634 5.416 6.935.79 4.954 4.54 3.222 5.362 6.389-2.161 8.859 1.839 6.198 4.373 7.046-4.398 7.44-4.563 9.143-.808 4.706 1.781 6.357 5.248 1.985 2.028 5.195-4.374 7.684-3.752 7.785-.222 6.292-5.693 6.293-4.94 4.958-1.796 5.021-4.888 6.096-1.332 6.133 2.261 5.565 4.568 6.451 7.096-4.152 5.1-6.294 6.385-7.827 6.29-11.85 7.072-16.341 6.408-16.632 3.721-15.955 1.583-15.58.105-15.207-.866-14.573-1.925-14.316-3.269-13.224-4.637-12.686-6.38-10.12-6.778zm6.613-66.371l7.123-2.49 4.526-3.971 5.049-2.979 7.233 2.432 6.328 6.295 10.818 1.286 8.466-3.981 6.11-5.273 5.295-1.322 7.008 2.912 5.583 3.756 5.774 2.632 8.108.134 7.007-2.699 6.271-5.004 6.593-2.4 6.161 2.831 6.025 3.394 6.365.594 7.733-2.402 5.821-4.845 7.531-2.651 1.782 11.344-2.316 7.392-4.164 4.839-6.109 2.064-8.163-1.299-5.208 5.529-7.264 1.263-7.341-2.248-5.655-3.196-4.711 4.46-6.609 2.071-8.366-1.608-5.798-3.243-4.516-3.556-7.18 4.633-8.558 1.205-7.472-2.073-7.915-5.264-6.816 3.688-7.242.956-7.826-4.496-5.596 3.436-7.66-4.157-3.889-4.008-2.336-3.981z"/><path d="M205.415 238.972c1.228-2.979.91-5.376-4.224-13.455-5.134-8.08-21.22-19.432-30.595-21.588 0 0-4.354-.885-8.625.469-8.906 2.719-22.469 10.824-28.969 17.438-6.5 6.613-6.196 14.955-4.495 19.383" fill="none" stroke="#000" stroke-width="8.504" stroke-linecap="round" stroke-linejoin="round" stroke-miterlimit="22.926"/><path d="M150.158 232.334c-.452 5.445-4.782 9.937-2.156 11.25 2.624 1.313 4.594-6.562 2.156-11.25zm28.612 1.37c6.158 3.579 9.355 9.692 6.224 10.892-3.317 1.271-4.79-3.812-6.224-10.892zM94.022 284.92c1.441.863 1.146 7.53 15.302 12.687m-2.437-19.313s4.876 31.688 28.501 15.188m31.124 1.499s-12.938 14.251-31.125-1.499m61.125 3.375s-9.75 15.937-30-1.876m58.875-12.937s-.75 33.188-28.875 14.812m45.375-23.812c2.625 2.438 2.374 30.117-19.907 22.465m-130.468 52.16c6.375-5.625 12.562-27 28.313-15.562m-12.376 20.625s13.501-28.876 27.188-8.062m24.75 8.999s-16.313-19.125-31.126 3m66.189-4.875s-14.438-22.876-35.062 1.875m72.749 5.063s-13.875-30.562-37.688-6.938m20.908-8.588c7.312-2.626 12.467-25.536 33.467 2.964m10.501-10.501s-15.573-22.536-27.287-3.58m-86.817-135.735s16.126-9.374 36-3.562M49.408 273.417s23.794-41.028 82.044-27.414" fill="none" stroke="#000" stroke-width="8.504" stroke-linecap="round" stroke-linejoin="round" stroke-miterlimit="22.926"/><path d="M131.452 246.004c11.625 3 13.957 6.978 30.509 6.745 9.916-.14 18.191-7.557 30.509-10.644m98.063 17.062s-32.438-36-98.063-17.063m98.063 17.063c25.688 23.812 23.437 97.875-26.25 145.5m-45.345 30.022s27.907 10.853 55.095-48.209" fill="none" stroke="#000" stroke-width="8.504" stroke-linecap="round" stroke-linejoin="round" stroke-miterlimit="22.926"/><path d="M228.658 425.667c-13.5 11.25-29.271 32.635-48.217 32.728-12.4.062-24.206-5.735-38.971-22.041m-49.875-29.812s27 51.75 49.875 29.812m-7.875-45.187s61.313 10.5 93.376-5.25M81.47 346.542c19.688 16.688 45.117 29.024 94.877 28.68 38.309-.266 75.403-13.118 93.936-49.867M76.408 281.48s-26.625 34.125 5.062 65.062m191.438-61.312s4.302 28.626-2.625 40.125M60.658 288.792c6.188.75 9.562-8.25 18.188-9.188" fill="none" stroke="#000" stroke-width="8.504" stroke-linecap="round" stroke-linejoin="round" stroke-miterlimit="22.926"/><path d="M110.72 275.48c-5.879 1.501-8.419 8.935-15.938 9.408-8.614.543-8.484-5.382-15.938-5.283m31.876-4.125c10.382-.883 7.533 10.138 20.241 10.305 14.734.193 14.602-11.296 24.009-10.867m45.188-.751c-7.124.562-9.021 10.42-22.875 10.557-9.514.094-15.035-9.174-22.312-9.807m85.979-3.748c-8.686-.857-9.719 9.381-21.085 9.898-12.24.557-11.35-6.677-19.707-6.899m76.688 10.686c-20.063-1.688-26.043-13.871-35.896-13.686m-193.605 7.687s-9.75 15.938-.188 23.062M91.22 416.855s-8.312-.146-15.667-12.293c-14.294-23.61-41.19-66.001-28.396-102.645" fill="none" stroke="#000" stroke-width="8.504" stroke-linecap="round" stroke-linejoin="round" stroke-miterlimit="22.926"/></g></g></svg>