<?xml version="1.0" encoding="utf-8"?>
<!-- Generator: Adobe Illustrator 19.2.1, SVG Export Plug-In . SVG Version: 6.00 Build 0)  -->
<svg version="1.1" xmlns="http://www.w3.org/2000/svg" xmlns:xlink="http://www.w3.org/1999/xlink" x="0px" y="0px"
	 viewBox="0 0 340.049 625.295" style="enable-background:new 0 0 340.049 625.295;" xml:space="preserve">
<g id="n1901">
	<g>
		<polygon style="fill-rule:evenodd;clip-rule:evenodd;fill:#81CECE;" points="111.552,505.295 117.378,513.071 122.413,521.996 
			127.958,533.249 131.151,543.774 143.921,540.358 156.359,533.102 166.026,522.211 173.15,521.274 180.903,520.1 189.608,523.18 
			200.243,529.943 210.595,536.917 218.321,541.02 224.463,530.415 233.134,516.388 241.008,509.065 255.652,519.581 
			268.472,530.059 280.558,541.206 293.72,555.655 303.119,569.254 308.901,582.962 295.459,591.331 275.003,600.687 
			250.51,609.567 223.709,616.397 199.999,619.917 176.898,621.043 149.868,619.401 126.498,615.298 108.835,609.399 86.404,601.83 
			67.186,591.874 48.463,577.9 53.935,568.667 63.553,554.994 75.784,540.186 87.203,527.943 99.741,515.748 111.552,505.295 		"/>
		<path style="fill-rule:evenodd;clip-rule:evenodd;fill:#FFFFFF;" d="M147.838,411.21c0,0,27.565-12.749,57-0.938
			c-0.25,8.248-0.465,33.364-0.465,33.364l-0.005,11.922l0.867,10.827l5.415,15.325l-6.706,10.441l-11.375,10.06l-11.687,5.518
			l-7.972,1.611l-12.15-6.397l-12.74-10.534l-9.369-14.074l4.443-9.135l3.851-13.131c0,0,2.561-14.094,1.569-14.111
			C147.521,441.94,147.838,411.21,147.838,411.21L147.838,411.21z"/>
		<polygon style="fill-rule:evenodd;clip-rule:evenodd;fill:#404041;" points="106.025,494.836 116.136,486.599 122.851,474.829 
			124.922,467.992 134.257,459.354 146.945,456.07 144.309,465.909 138.651,478.336 143.062,487.03 154.389,497.678 
			170.627,508.141 176.896,508.536 189.852,503.496 201.947,494.4 210.651,481.711 206.836,470.912 204.753,460.348 215.14,463.695 
			223.776,470.649 228.315,480.746 234.688,489.127 244.963,499.524 239.353,508.516 229.2,522.252 219.276,541.149 
			207.143,534.592 193.745,525.662 180.903,520.1 166.026,522.211 157.859,531.844 143.921,540.358 131.151,543.774 
			125.185,527.623 118.396,514.875 112.309,504.67 106.025,494.836 		"/>
		
			<path style="fill:none;stroke:#000000;stroke-width:8.5039;stroke-linecap:round;stroke-linejoin:round;stroke-miterlimit:22.9256;" d="
			M106.025,494.836c0,0,16.125-8.25,18-25.688"/>
		
			<path style="fill:none;stroke:#000000;stroke-width:8.5039;stroke-linecap:round;stroke-linejoin:round;stroke-miterlimit:22.9256;" d="
			M145.588,455.649c0,0-10.688-0.938-21.563,13.5"/>
		
			<path style="fill:none;stroke:#000000;stroke-width:8.5039;stroke-linecap:round;stroke-linejoin:round;stroke-miterlimit:22.9256;" d="
			M147.838,411.21c0,0,4.5,43.689-9.187,67.126"/>
		
			<path style="fill:none;stroke:#000000;stroke-width:8.5039;stroke-linecap:round;stroke-linejoin:round;stroke-miterlimit:22.9256;" d="
			M173.901,509.461c-7.688-0.188-35.25-21.938-35.25-31.125"/>
		
			<path style="fill:none;stroke:#000000;stroke-width:8.5039;stroke-linecap:round;stroke-linejoin:round;stroke-miterlimit:22.9256;" d="
			M210.651,481.711c0,0-9.375,22.875-36.75,27.75"/>
		
			<path style="fill:none;stroke:#000000;stroke-width:8.5039;stroke-linecap:round;stroke-linejoin:round;stroke-miterlimit:22.9256;" d="
			M204.838,410.272c-0.371,17.43-2.625,60.564,5.812,71.439"/>
		
			<path style="fill:none;stroke:#000000;stroke-width:8.5039;stroke-linecap:round;stroke-linejoin:round;stroke-miterlimit:22.9256;" d="
			M166.026,522.211c0,0-9.375,17.812-34.875,21.562"/>
		
			<path style="fill:none;stroke:#000000;stroke-width:8.5039;stroke-linecap:round;stroke-linejoin:round;stroke-miterlimit:22.9256;" d="
			M106.025,494.836c0,0,24.375,36.563,25.125,48.938"/>
		
			<path style="fill:none;stroke:#000000;stroke-width:8.5039;stroke-linecap:round;stroke-linejoin:round;stroke-miterlimit:22.9256;" d="
			M180.651,520.15c6.938-1.688,33,21.188,38.625,20.999"/>
		
			<path style="fill:none;stroke:#000000;stroke-width:8.5039;stroke-linecap:round;stroke-linejoin:round;stroke-miterlimit:22.9256;" d="
			M245.713,502.149c0,0-14.438,11.439-26.438,39"/>
		
			<path style="fill:none;stroke:#000000;stroke-width:8.5039;stroke-linecap:round;stroke-linejoin:round;stroke-miterlimit:22.9256;" d="
			M223.776,470.649c0,0,0.937,10.5,21.188,28.875"/>
		
			<path style="fill:none;stroke:#000000;stroke-width:8.5039;stroke-linecap:round;stroke-linejoin:round;stroke-miterlimit:22.9256;" d="
			M204.607,460.34c0,0,10.355,0.371,19.168,10.309"/>
		
			<path style="fill:none;stroke:#000000;stroke-width:8.5039;stroke-linecap:round;stroke-linejoin:round;stroke-miterlimit:22.9256;" d="
			M112.309,504.67c0,0-43.033,34.979-63.846,73.229"/>
		
			<path style="fill:none;stroke:#000000;stroke-width:8.5039;stroke-linecap:round;stroke-linejoin:round;stroke-miterlimit:22.9256;" d="
			M173.15,521.274c0,0,8.625,39.938,1.875,60.751"/>
		
			<path style="fill:none;stroke:#000000;stroke-width:8.5039;stroke-linecap:round;stroke-linejoin:round;stroke-miterlimit:22.9256;" d="
			M183.651,582.962c0,0-6.188,0.188-8.625-0.938"/>
		
			<path style="fill:none;stroke:#000000;stroke-width:8.5039;stroke-linecap:round;stroke-linejoin:round;stroke-miterlimit:22.9256;" d="
			M48.463,577.9c2.438,5.438,107.812,88.124,255.188,9.187"/>
		
			<path style="fill:none;stroke:#000000;stroke-width:8.5039;stroke-linecap:round;stroke-linejoin:round;stroke-miterlimit:22.9256;" d="
			M241.025,509.086c-1.217-1.086,58.688,38.438,67.875,73.876"/>
		<path style="fill-rule:evenodd;clip-rule:evenodd;" d="M194.338,538.959c2.349,0,4.251,1.904,4.251,4.252
			c0,2.35-1.903,4.252-4.251,4.252c-2.348,0-4.252-1.902-4.252-4.252C190.086,540.863,191.99,538.959,194.338,538.959
			L194.338,538.959z"/>
		<path style="fill-rule:evenodd;clip-rule:evenodd;" d="M196.213,563.522c2.349,0,4.251,1.904,4.251,4.253
			c0,2.348-1.903,4.251-4.251,4.251c-2.348,0-4.252-1.903-4.252-4.251C191.961,565.426,193.865,563.522,196.213,563.522
			L196.213,563.522z"/>
	</g>
</g>
<g id="n1902">
	<g>
		<g>
			<path style="fill-rule:evenodd;clip-rule:evenodd;fill:#4AB57E;" d="M303.74,290.28c0,0-12.83-0.609-6-27.75
				c3.072-12.205-4.715-19.134-8.83-25.11c-4.07-5.91,1.241-12.497,1.148-14.454c-0.187-3.938-0.947-21.373,2.995-27.374
				c3.943-6.001,17.63-6.518,17.63-6.518l13.43,5.84l9.72,17.716l1.943,12.775l-1.315,14.054l-3.801,12.159l-5.557,8.88
				l-5.425,9.834l-1.893,9.419l-4.243,5.871L303.74,290.28L303.74,290.28z"/>
			<path style="fill-rule:evenodd;clip-rule:evenodd;fill:#61F4E5;" d="M43.865,197.468l-16.205-2.961l-11.284,3.817l-7.854,9.89
				l-3.53,12.95l-0.741,11.459l1.562,9.132l6.926,7.744l7,8.452l3.12,10.751l6.164,10.117l10.717,9.961c0,0,18.195-2.933,6.375-31.5
				c4.583-4.482,5.298-6.869,5.894-11.322c1.388-10.386,0.725-19.498,0.462-21.598C52.096,221.361,60.651,202.998,43.865,197.468
				L43.865,197.468z"/>
			
				<path style="fill:none;stroke:#000000;stroke-width:8.5039;stroke-linecap:round;stroke-linejoin:round;stroke-miterlimit:22.9256;" d="
				M293.053,195.592c0,0,25.688-21,39.188,12.375"/>
			
				<path style="fill:none;stroke:#000000;stroke-width:8.5039;stroke-linecap:round;stroke-linejoin:round;stroke-miterlimit:22.9256;" d="
				M329.053,255.03c0,0,12.751-23.064,3.188-47.064"/>
			
				<path style="fill:none;stroke:#000000;stroke-width:8.5039;stroke-linecap:round;stroke-linejoin:round;stroke-miterlimit:22.9256;" d="
				M303.74,290.28c0,0,13.875-2.625,14.812-14.062"/>
			
				<path style="fill:none;stroke:#000000;stroke-width:8.5039;stroke-linecap:round;stroke-linejoin:round;stroke-miterlimit:22.9256;" d="
				M329.053,255.03c-3.325,5.593-9.562,10.125-10.5,21.187"/>
			
				<path style="fill:none;stroke:#000000;stroke-width:8.5039;stroke-linecap:round;stroke-linejoin:round;stroke-miterlimit:22.9256;" d="
				M301.115,262.53c0,0,19.125-9.188,2.25-29.251"/>
			
				<path style="fill:none;stroke:#000000;stroke-width:8.5039;stroke-linecap:round;stroke-linejoin:round;stroke-miterlimit:22.9256;" d="
				M303.365,233.279c-6.375-6.936,4.147-12.561,10.688-25.124"/>
			
				<path style="fill:none;stroke:#000000;stroke-width:8.5039;stroke-linecap:round;stroke-linejoin:round;stroke-miterlimit:22.9256;" d="
				M43.865,197.468c0,0-41.25-19.125-39.563,38.812"/>
			
				<path style="fill:none;stroke:#000000;stroke-width:8.5039;stroke-linecap:round;stroke-linejoin:round;stroke-miterlimit:22.9256;" d="
				M21.178,262.718c-2.619-14.434-16.287-14.741-16.875-26.437"/>
			
				<path style="fill:none;stroke:#000000;stroke-width:8.5039;stroke-linecap:round;stroke-linejoin:round;stroke-miterlimit:22.9256;" d="
				M39.74,288.78c0,0-16.132-10.77-18.562-26.062"/>
			
				<path style="fill:none;stroke:#000000;stroke-width:8.5039;stroke-linecap:round;stroke-linejoin:round;stroke-miterlimit:22.9256;" d="
				M24.059,215.361c0,0,13.056,4.043,11.369,25.982"/>
			
				<path style="fill:none;stroke:#000000;stroke-width:8.5039;stroke-linecap:round;stroke-linejoin:round;stroke-miterlimit:22.9256;" d="
				M46.115,257.28c0,0-13.125-0.563-10.688-15.937"/>
		</g>
		<g>
			<polygon style="fill-rule:evenodd;clip-rule:evenodd;fill:#FFFFFF;" points="51.983,274.4 56.737,274.534 65.737,274.284 
				84.101,270.268 95.385,265.263 111.259,267.309 221.798,266.135 237.987,268.784 253.987,269.034 274.487,277.034 
				281.418,265.471 286.807,264.675 291.615,272.037 295.074,268.426 293.796,257.349 288.933,245.356 283.326,238.437 
				287.168,225.564 291.006,204.7 292.254,183.119 290.918,164.32 286.898,145.304 279.107,125.302 268.148,107.476 254.568,92.371 
				234.311,78.189 212.301,69.969 189.912,66.624 167.407,66.605 148.105,68.345 127.056,72.607 107.313,79.81 92.522,88.28 
				78.521,100.207 66.028,116.876 57.687,133.439 52.12,150.304 49.511,164.202 48.466,177.399 48.893,196.052 50.811,215.275 
				52.669,233.784 53.181,245.613 51.775,252.608 48.395,261.099 46.716,270.328 51.983,274.4 			"/>
			<path style="fill:#FFFFFF;" d="M72.045,103.049C87.42,82.424,114.04,63.86,165.064,60.788
				c29.439-1.771,70.646-0.748,101.231,37.011"/>
			<path style="fill:#FFFFFF;" d="M284.326,232.437c0,0,29.22-76.138-18.03-134.638"/>
			<path style="fill:#FFFFFF;" d="M54.134,244.18c2.25-36.376-20.714-84.881,17.911-141.131"/>
		</g>
		<g>
			<polygon style="fill-rule:evenodd;clip-rule:evenodd;fill:#E186AE;" points="250.266,92.201 261.605,85.114 267.185,74.897 
				279.129,74.986 289.64,78.157 299.277,86.465 303.293,94.239 305.429,105.41 300.693,107.502 304.192,118.236 305.724,128.13 
				305.989,140.034 304.539,153.615 300.953,168.228 295.861,180.512 291.042,182.989 289.207,171.36 287.691,159.454 
				285.063,146.99 277.707,126.287 270.022,112.628 261.053,101.406 250.266,92.201 			"/>
			<polygon style="fill-rule:evenodd;clip-rule:evenodd;fill:#F9D740;" points="244.632,91.019 250.266,92.201 256.836,88.094 
				263.449,84.45 267.555,73.375 268.8,59.236 265.664,43.016 259.2,30.471 247.849,18.698 233.105,9.363 214.346,5.486 
				194.67,4.27 175.053,5.791 158.926,8.581 148.734,10.332 135.512,11.401 121.545,14.81 106.337,21.519 92.729,30.578 
				82.372,39.753 75.143,47.539 64.476,47.614 51.393,55.523 41.202,66.633 33.321,79.827 28.138,93.731 25.399,110.429 
				25.89,123.978 30.008,140.368 35.986,152.574 47.947,165.977 50.119,152.51 54.664,136.646 61.614,121.321 73.416,104.503 
				85.896,92.721 104.065,81.499 121.029,74.232 141.396,73.997 162.965,77.298 183.738,83.044 204.152,88.552 219.445,91.034 
				231.044,91.656 244.632,91.019 			"/>
			
				<path style="fill:none;stroke:#000000;stroke-width:8.5039;stroke-linecap:round;stroke-linejoin:round;stroke-miterlimit:22.9256;" d="
				M86.757,80.894c78.938-22.688,96.562,16.125,157.875,10.125"/>
			
				<path style="fill:none;stroke:#000000;stroke-width:8.5039;stroke-linecap:round;stroke-linejoin:round;stroke-miterlimit:22.9256;" d="
				M47.382,185.894c0,0-8.085-89.05,77.239-111.932"/>
			
				<path style="fill:none;stroke:#000000;stroke-width:8.5039;stroke-linecap:round;stroke-linejoin:round;stroke-miterlimit:22.9256;" d="
				M73.257,46.207C43.07,44.706-2.544,115.781,47.768,167.725"/>
			
				<path style="fill:none;stroke:#000000;stroke-width:8.5039;stroke-linecap:round;stroke-linejoin:round;stroke-miterlimit:22.9256;" d="
				M124.632,29.706c32.451-14.396,63.16,9.557,66.889,43.385c0.165,1.499,0.978,3.14,2.069,4.147"/>
			
				<path style="fill:none;stroke:#000000;stroke-width:8.5039;stroke-linecap:round;stroke-linejoin:round;stroke-miterlimit:22.9256;" d="
				M198.366,33.409c15.375,8.814,9.938,36.375,24,50.063"/>
			
				<path style="fill:none;stroke:#000000;stroke-width:8.5039;stroke-linecap:round;stroke-linejoin:round;stroke-miterlimit:22.9256;" d="
				M52.116,83.847c0,0,30.562-74.813,99-73.5"/>
			
				<path style="fill:none;stroke:#000000;stroke-width:8.5039;stroke-linecap:round;stroke-linejoin:round;stroke-miterlimit:22.9256;" d="
				M261.741,87.222c18.751-27.187,6.375-105.188-110.625-76.875"/>
			
				<path style="fill:none;stroke:#000000;stroke-width:8.5039;stroke-linecap:round;stroke-linejoin:round;stroke-miterlimit:22.9256;" d="
				M305.429,105.41c0,0,0.198-34.399-38.245-30.513"/>
			
				<path style="fill:none;stroke:#000000;stroke-width:8.5039;stroke-linecap:round;stroke-linejoin:round;stroke-miterlimit:22.9256;" d="
				M281.242,86.847c37.312,17.812,25.961,83.316,8.711,102.441"/>
			
				<path style="fill:none;stroke:#000000;stroke-width:8.5039;stroke-linecap:round;stroke-linejoin:round;stroke-miterlimit:22.9256;" d="
				M286.679,112.535c0,0,8.812,3.562,16.312,28.125"/>
			
				<path style="fill:none;stroke:#000000;stroke-width:8.5039;stroke-linecap:round;stroke-linejoin:round;stroke-miterlimit:22.9256;" d="
				M248.71,91.253c0,0,44.438,23.625,41.063,105.937"/>
			
				<path style="fill:none;stroke:#000000;stroke-width:8.5039;stroke-linecap:round;stroke-linejoin:round;stroke-miterlimit:22.9256;" d="
				M156.46,18.691c2.001,0.762,4.783,0.535,7.127-0.061c36.973-9.408,108.708-7.676,90.936,70.936"/>
			
				<path style="fill:none;stroke:#000000;stroke-width:8.5039;stroke-linecap:round;stroke-linejoin:round;stroke-miterlimit:22.9256;" d="
				M174.273,30.691c5.625,0.375,74.783-25.431,65.533,48.38c-0.297,2.373,1.135,4.889,4.592,6.37"/>
			
				<path style="fill:none;stroke:#000000;stroke-width:8.5039;stroke-linecap:round;stroke-linejoin:round;stroke-miterlimit:22.9256;" d="
				M173.898,72.128c-3-24-35.44-46.458-63.562-27.188c-28.123,19.271-26.626,57-75.188,64.312"/>
		</g>
		<polygon style="fill-rule:evenodd;clip-rule:evenodd;fill:#F9D740;" points="41.261,269.427 45.945,267.886 48.319,259.48 
			52.619,248.531 58.968,240.224 63.821,236.122 60.613,226.462 57.436,218.367 55.543,209.302 56.056,199.382 58.695,184.824 
			57.492,174.653 55.695,163.074 48.845,151.542 43.513,158.681 40.721,166.577 39.68,176.949 40.426,189.332 41.928,202.169 
			42.062,211.081 38.458,218.328 32.596,228.759 30.571,239.397 31.652,247.969 34.781,257.162 38.043,263.862 41.261,269.427 		"/>
		<polygon style="fill-rule:evenodd;clip-rule:evenodd;fill:#E186AE;" points="288.356,146.486 296.158,148.355 301.489,157.081 
			302.823,165.692 300.702,178.059 298.298,186.415 297.525,193.803 302.008,199.362 307.061,207.622 309.025,217.247 308.2,225.96 
			303.769,234.757 305.745,244.91 306.057,256.868 303.53,266.466 299.346,272.292 294.196,265.075 289.609,258.227 293.721,254.48 
			289.506,245.129 284.551,238.709 279.83,232.839 279.666,220.06 281.699,206.065 283.77,194.207 284.232,185.01 284.054,171.719 
			285.275,159.681 288.356,146.486 		"/>
		
			<path style="fill:none;stroke:#000000;stroke-width:8.5039;stroke-linecap:round;stroke-linejoin:round;stroke-miterlimit:22.9256;" d="
			M296.158,148.355c15.938,17.438-2.25,37.686,1.875,47.249"/>
		
			<path style="fill:none;stroke:#000000;stroke-width:8.5039;stroke-linecap:round;stroke-linejoin:round;stroke-miterlimit:22.9256;" d="
			M303.659,234.792c3.562-0.938,12.562-24.751-5.625-39.188"/>
		<path style="fill:#61F4E5;" d="M47.345,278.855c0,0-9.75,15.938-0.188,23.062"/>
		
			<path style="fill:none;stroke:#000000;stroke-width:8.5039;stroke-linecap:round;stroke-linejoin:round;stroke-miterlimit:22.9256;" d="
			M42.47,271.355c-27.188-42.563,0.852-49.713-0.06-63.744c-1.203-18.495-8.222-41.948,6.436-56.068"/>
		<g>
			<polygon style="fill-rule:evenodd;clip-rule:evenodd;" points="94.781,181.618 95.235,170.624 96.581,160.181 98.959,152.097 
				103.816,147.193 110.201,146.55 115.639,151.278 116.761,157.215 116.142,164.756 114.702,171.617 107.174,177.14 
				100.502,181.539 99.889,190.092 106.137,195.609 113.19,201.293 117.568,206.77 116.738,210.613 112.01,215.553 101.893,218.15 
				97.189,214.361 95.69,206.378 94.837,189.755 94.781,181.618 			"/>
			<polygon style="fill-rule:evenodd;clip-rule:evenodd;" points="219.616,186.861 219.408,175.689 219.418,164.149 
				220.266,153.428 224.035,147.734 233.804,144.126 241.469,147.538 245.736,154.445 246.43,161.279 245.698,170.693 
				245.201,173.651 236.375,178.032 229.024,183.727 225.701,188.905 232.293,194.48 240.625,202.029 245.764,206.87 
				242.598,214.147 236.026,216.895 225.706,213.988 220.395,207.644 219.616,186.861 			"/>
			
				<path style="fill:none;stroke:#000000;stroke-width:8.5039;stroke-linecap:round;stroke-linejoin:round;stroke-miterlimit:22.9256;" d="
				M213.326,221.955c0,0,22.875-8.305,48.938,2.033"/>
			
				<path style="fill:none;stroke:#000000;stroke-width:8.5039;stroke-linecap:round;stroke-linejoin:round;stroke-miterlimit:22.9256;" d="
				M85.451,230.259c0,0,20.624-16.44,47.437-8.474"/>
			
				<path style="fill:none;stroke:#000000;stroke-width:8.5039;stroke-linecap:round;stroke-linejoin:round;stroke-miterlimit:22.9256;" d="
				M77.389,139.754c0,0,19.568-25.282,27.382-25.855c6.846-0.501,15.737,6.749,26.994,19.415"/>
			
				<path style="fill:none;stroke:#000000;stroke-width:8.5039;stroke-linecap:round;stroke-linejoin:round;stroke-miterlimit:22.9256;" d="
				M194.764,130.94c0,0,22.501-23.102,33.001-22.996c7.007,0.071,20.874,6.832,33.374,26.047"/>
			
				<path style="fill:none;stroke:#000000;stroke-width:8.5039;stroke-linecap:round;stroke-linejoin:round;stroke-miterlimit:22.9256;" d="
				M98.951,152.126c1.617-5.616,12.75-9.322,16.688-0.848"/>
			
				<path style="fill:none;stroke:#000000;stroke-width:8.5039;stroke-linecap:round;stroke-linejoin:round;stroke-miterlimit:22.9256;" d="
				M114.702,171.617c0,0,3.937-14.237,0.937-20.339"/>
			
				<path style="fill:none;stroke:#000000;stroke-width:8.5039;stroke-linecap:round;stroke-linejoin:round;stroke-miterlimit:22.9256;" d="
				M99.326,182.295c0,0,12.75-8.135,15.375-10.678"/>
			
				<path style="fill:none;stroke:#000000;stroke-width:8.5039;stroke-linecap:round;stroke-linejoin:round;stroke-miterlimit:22.9256;" d="
				M99.889,190.092c0,0,9.937,9.152,15.937,13.05"/>
			
				<path style="fill:none;stroke:#000000;stroke-width:8.5039;stroke-linecap:round;stroke-linejoin:round;stroke-miterlimit:22.9256;" d="
				M110.764,216.362c0,0,11.062-6.271,5.062-13.22"/>
			
				<path style="fill:none;stroke:#000000;stroke-width:8.5039;stroke-linecap:round;stroke-linejoin:round;stroke-miterlimit:22.9256;" d="
				M96.139,211.446c0,0,1.313,7.458,7.875,6.78"/>
			
				<path style="fill:none;stroke:#000000;stroke-width:8.5039;stroke-linecap:round;stroke-linejoin:round;stroke-miterlimit:22.9256;" d="
				M220.076,154.499c0.75-7.796,15.938-17.457,24.75-2.712"/>
			
				<path style="fill:none;stroke:#000000;stroke-width:8.5039;stroke-linecap:round;stroke-linejoin:round;stroke-miterlimit:22.9256;" d="
				M220.264,206.701c0,0-1.876-44.744-0.188-52.202"/>
			
				<path style="fill:none;stroke:#000000;stroke-width:8.5039;stroke-linecap:round;stroke-linejoin:round;stroke-miterlimit:22.9256;" d="
				M245.201,173.651c0,0,3-14.745-0.375-21.864"/>
			
				<path style="fill:none;stroke:#000000;stroke-width:8.5039;stroke-linecap:round;stroke-linejoin:round;stroke-miterlimit:22.9256;" d="
				M225.701,188.905c0,0,1.5-7.796,19.5-15.254"/>
			
				<path style="fill:none;stroke:#000000;stroke-width:8.5039;stroke-linecap:round;stroke-linejoin:round;stroke-miterlimit:22.9256;" d="
				M245.764,206.87c0,0-11.812-11.356-20.062-17.966"/>
			
				<path style="fill:none;stroke:#000000;stroke-width:8.5039;stroke-linecap:round;stroke-linejoin:round;stroke-miterlimit:22.9256;" d="
				M230.764,216.87c0,0-9.562-1.016-10.5-10.169"/>
			
				<path style="fill:none;stroke:#000000;stroke-width:8.5039;stroke-linecap:round;stroke-linejoin:round;stroke-miterlimit:22.9256;" d="
				M245.764,206.87c0,0-0.75,10.678-11.062,10"/>
		</g>
		<path style="fill:#61F4E5;" d="M46.716,270.328c0,0,20.04-5.598,23.893-7.628c3.854-2.03,56.155-7.613,56.155-7.613l37.987,5.076
			l3.854-3.553l3.303,159.879l-92.49-25.885l-33.931-54.069L46.716,270.328z"/>
		<polygon style="fill:#4AB57E;" points="228.063,404.307 272.657,374.362 294.678,332.742 303.487,291.123 292.487,260.534 
			226.411,251.534 168.605,256.609 171.358,419.534 		"/>
		
			<path style="fill:none;stroke:#000000;stroke-width:8.5039;stroke-linecap:round;stroke-linejoin:round;stroke-miterlimit:22.9256;" d="
			M289.408,142.917c-10.125,33.188-1.769,35.732-7.24,60.946c-2.872,13.235,5.194,47.393,14.319,66.671"/>
		
			<path style="fill:none;stroke:#000000;stroke-width:8.5039;stroke-linecap:round;stroke-linejoin:round;stroke-miterlimit:22.9256;" d="
			M297.658,216.98c0,0,18.188,39.562,1.688,55.313"/>
		
			<path style="fill:none;stroke:#000000;stroke-width:8.5039;stroke-linecap:round;stroke-linejoin:round;stroke-miterlimit:22.9256;" d="
			M48.845,151.542c15.562,24.75,6.082,40.305,6.698,57.76c0.368,10.409,11.865,28.587-9.598,58.584"/>
	</g>
</g>
<g id="n1903">
	<g>
		<polygon style="fill-rule:evenodd;clip-rule:evenodd;fill:#E186AE;" points="149.409,365.356 150.76,353.961 152.441,331.928 
			155.815,320.737 161.781,313.798 169.097,311.696 176.488,314.236 181.873,317.744 184.769,322.251 181.373,327.846 
			178.258,330.436 178.627,337.818 179.113,354.425 178.283,359.646 170.041,357.367 161.365,359.466 155.311,363.519 
			149.409,365.356 		"/>
		
			<path style="fill:none;stroke:#000000;stroke-width:8.5039;stroke-linecap:round;stroke-linejoin:round;stroke-miterlimit:22.9256;" d="
			M149.123,366.913c3.41-17.186,0.187-56.14,21.775-55.214"/>
		
			<path style="fill:none;stroke:#000000;stroke-width:8.5039;stroke-linecap:round;stroke-linejoin:round;stroke-miterlimit:22.9256;" d="
			M164.719,332.361c7.768,1.064,40.224-10.485,6.179-20.662"/>
		
			<path style="fill:none;stroke:#000000;stroke-width:8.5039;stroke-linecap:round;stroke-linejoin:round;stroke-miterlimit:22.9256;" d="
			M179.533,360.396c0,0-0.696-17.084-1.313-30.798"/>
	</g>
</g>
<g id="n1904">
	<path style="fill-rule:evenodd;clip-rule:evenodd;fill:#F9D740;" d="M166.255,203.666l-8.349,2.204l-10.516,5.305l-6.428,5.778
		l-7.961,4.881l-5.043,9.051l0.547,10.332l5.601,6.954l9.072,2.944l5.291,0.626c0,0,23.742,2.614,35.625-0.469
		c11.883-3.083,15.665-5.089,15.665-5.089l5.222-5.934l-0.786-9.275l-7.055-10.393l-8.787-7.458l-11.525-6.924l-6.234-2.271
		L166.255,203.666L166.255,203.666z"/>
	<path style="fill-rule:evenodd;clip-rule:evenodd;fill:#67559E;" d="M305.075,289.103l-2.756-10.581l-6.888-13.752l-10.872-10.841
		l-15.457-9.113l-17.979-5.908l-15.301-2.106l-11.289-0.108l-15.555,0.631l-13.768,4.016l-16.767,6.191l-11.391,4.536l-9.436,0.638
		l-13.832-2.481c0,0-9.845-3.526-11.174-3.911c-1.329-0.385-10.021-2.012-10.021-2.012l-12.792-1.059l-17.368,1.621l-15.208,4.993
		l-9.952,5.62l-9.722,7.989l-7.25,8.569l-2.954,6.819l-2.767,5.921l-1.421,10.556l4.001,6.586L44.5,312.77l-0.694,10.617
		l1.945,16.629l4.02,14.202l5.591,13.835l7.348,14.611l7.605,13.234l7.064,11.419l7.17,7.019l6.671,2.519l4.702-2.96l3.319,4.965
		l6.916,8.84l9.472,8.856l10.845,4.981l10.024-1.552l4.973-3.629l7.217,7.358l10.021,7.93l13.021,5.76l12.909,0.629l13.295-5.391
		l11.546-8.947l9.459-9.005l11.726,0.001l10.154-4.367c0,0,11.583-9.685,12.412-10.583c0.83-0.899,8.285-10.634,8.285-10.634
		l6.115-9.967l9.899-9.143l7.775-11.05l9.062-16.744l6.62-17.513l4.702-21.797l0.892-20.67L305.075,289.103z M262.987,339.534
		c-12,10-11.5,28.5-66.5,31.5s-63,1-82.5-6s-43.5-29-47.5-43s-0.5-16.5-0.5-16.5s-4-20.5,7.5-23.5s17,5,24.5,0.5s3-10,12-8
		s4,8.5,16,9.5s24.5-7.5,24.5-7.5l37,9l10-9l15,5.5l20-6.5l13.5-1.5l19,7.5l9.5,17.5
		C274.487,299.034,274.987,329.534,262.987,339.534z"/>
	<polygon style="fill-rule:evenodd;clip-rule:evenodd;fill:#FFFFFF;" points="87.409,351.291 95.625,342.444 101.116,334.663 
		107.429,329.57 115.254,329.565 119.825,332.107 121.459,337.523 128.394,338.313 133.348,342.853 136.57,348.215 142.959,346.054 
		151.818,347.893 158.016,352.266 165.062,347.868 172.502,343.305 181.645,342.497 186.351,344.278 192.708,349.526 
		194.693,351.554 199.888,347.18 207.572,343.428 215.357,343.206 221.649,337.513 227.942,332.573 232.9,330.777 237.921,325.889 
		244.017,324.557 250.15,326.818 255.715,331.386 262.166,338.482 258.014,343.582 251.72,349.967 243.893,356.257 232.043,363.329 
		215.702,369.737 199.07,373.458 183.115,375.041 167.535,375.146 152.328,374.28 137.755,372.355 123.439,369.086 110.215,364.449 
		97.529,358.069 87.409,351.291 	"/>
	<polygon style="fill-rule:evenodd;clip-rule:evenodd;fill:#FFFFFF;" points="94.022,284.92 101.145,282.43 105.671,278.459 
		110.72,275.48 117.953,277.912 124.281,284.207 135.099,285.493 143.565,281.512 149.675,276.239 154.97,274.917 161.978,277.829 
		167.561,281.585 173.335,284.217 181.443,284.351 188.45,281.652 194.721,276.648 201.314,274.248 207.475,277.079 213.5,280.473 
		219.865,281.067 227.598,278.665 233.419,273.82 240.95,271.169 242.732,282.513 240.416,289.905 236.252,294.744 230.143,296.808 
		221.98,295.509 216.772,301.038 209.508,302.301 202.167,300.053 196.512,296.857 191.801,301.317 185.192,303.388 176.826,301.78 
		171.028,298.537 166.512,294.981 159.332,299.614 150.774,300.819 143.302,298.746 135.387,293.482 128.571,297.17 
		121.329,298.126 113.503,293.63 107.907,297.066 100.247,292.909 96.358,288.901 94.022,284.92 	"/>
	
		<path style="fill:none;stroke:#000000;stroke-width:8.5039;stroke-linecap:round;stroke-linejoin:round;stroke-miterlimit:22.9256;" d="
		M205.415,238.972c1.228-2.979,0.91-5.376-4.224-13.455c-5.134-8.08-21.22-19.432-30.595-21.588c0,0-4.354-0.885-8.625,0.469
		c-8.906,2.719-22.469,10.824-28.969,17.438c-6.5,6.613-6.196,14.955-4.495,19.383"/>
	
		<path style="fill:none;stroke:#000000;stroke-width:8.5039;stroke-linecap:round;stroke-linejoin:round;stroke-miterlimit:22.9256;" d="
		M150.158,232.334c-0.452,5.445-4.782,9.937-2.156,11.25C150.626,244.897,152.596,237.022,150.158,232.334L150.158,232.334z"/>
	
		<path style="fill:none;stroke:#000000;stroke-width:8.5039;stroke-linecap:round;stroke-linejoin:round;stroke-miterlimit:22.9256;" d="
		M178.77,233.704c6.158,3.579,9.355,9.692,6.224,10.892C181.677,245.867,180.204,240.784,178.77,233.704L178.77,233.704z"/>
	
		<path style="fill:none;stroke:#000000;stroke-width:8.5039;stroke-linecap:round;stroke-linejoin:round;stroke-miterlimit:22.9256;" d="
		M94.022,284.92c1.441,0.863,1.146,7.53,15.302,12.687"/>
	
		<path style="fill:none;stroke:#000000;stroke-width:8.5039;stroke-linecap:round;stroke-linejoin:round;stroke-miterlimit:22.9256;" d="
		M106.887,278.294c0,0,4.876,31.688,28.501,15.188"/>
	
		<path style="fill:none;stroke:#000000;stroke-width:8.5039;stroke-linecap:round;stroke-linejoin:round;stroke-miterlimit:22.9256;" d="
		M166.512,294.981c0,0-12.938,14.251-31.125-1.499"/>
	
		<path style="fill:none;stroke:#000000;stroke-width:8.5039;stroke-linecap:round;stroke-linejoin:round;stroke-miterlimit:22.9256;" d="
		M196.512,296.857c0,0-9.75,15.937-30-1.876"/>
	
		<path style="fill:none;stroke:#000000;stroke-width:8.5039;stroke-linecap:round;stroke-linejoin:round;stroke-miterlimit:22.9256;" d="
		M225.387,282.044c0,0-0.75,33.188-28.875,14.812"/>
	
		<path style="fill:none;stroke:#000000;stroke-width:8.5039;stroke-linecap:round;stroke-linejoin:round;stroke-miterlimit:22.9256;" d="
		M241.887,273.044c2.625,2.438,2.374,30.117-19.907,22.465"/>
	
		<path style="fill:none;stroke:#000000;stroke-width:8.5039;stroke-linecap:round;stroke-linejoin:round;stroke-miterlimit:22.9256;" d="
		M91.512,347.669c6.375-5.625,12.562-27,28.313-15.562"/>
	
		<path style="fill:none;stroke:#000000;stroke-width:8.5039;stroke-linecap:round;stroke-linejoin:round;stroke-miterlimit:22.9256;" d="
		M107.449,352.732c0,0,13.501-28.876,27.188-8.062"/>
	
		<path style="fill:none;stroke:#000000;stroke-width:8.5039;stroke-linecap:round;stroke-linejoin:round;stroke-miterlimit:22.9256;" d="
		M159.387,353.669c0,0-16.313-19.125-31.126,3"/>
	
		<path style="fill:none;stroke:#000000;stroke-width:8.5039;stroke-linecap:round;stroke-linejoin:round;stroke-miterlimit:22.9256;" d="
		M194.45,351.794c0,0-14.438-22.876-35.062,1.875"/>
	
		<path style="fill:none;stroke:#000000;stroke-width:8.5039;stroke-linecap:round;stroke-linejoin:round;stroke-miterlimit:22.9256;" d="
		M232.137,358.732c0,0-13.875-30.562-37.688-6.938"/>
	
		<path style="fill:none;stroke:#000000;stroke-width:8.5039;stroke-linecap:round;stroke-linejoin:round;stroke-miterlimit:22.9256;" d="
		M215.357,343.206c7.312-2.626,12.467-25.536,33.467,2.964"/>
	
		<path style="fill:none;stroke:#000000;stroke-width:8.5039;stroke-linecap:round;stroke-linejoin:round;stroke-miterlimit:22.9256;" d="
		M259.325,335.669c0,0-15.573-22.536-27.287-3.58"/>
	
		<path style="fill:none;stroke:#000000;stroke-width:8.5039;stroke-linecap:round;stroke-linejoin:round;stroke-miterlimit:22.9256;" d="
		M145.221,196.354c0,0,16.126-9.374,36-3.562"/>
	
		<path style="fill:none;stroke:#000000;stroke-width:8.5039;stroke-linecap:round;stroke-linejoin:round;stroke-miterlimit:22.9256;" d="
		M49.408,273.417c0,0,23.794-41.028,82.044-27.414"/>
	
		<path style="fill:none;stroke:#000000;stroke-width:8.5039;stroke-linecap:round;stroke-linejoin:round;stroke-miterlimit:22.9256;" d="
		M131.452,246.004c11.625,3,13.957,6.978,30.509,6.745c9.916-0.14,18.191-7.557,30.509-10.644"/>
	
		<path style="fill:none;stroke:#000000;stroke-width:8.5039;stroke-linecap:round;stroke-linejoin:round;stroke-miterlimit:22.9256;" d="
		M290.533,259.167c0,0-32.438-36-98.063-17.063"/>
	
		<path style="fill:none;stroke:#000000;stroke-width:8.5039;stroke-linecap:round;stroke-linejoin:round;stroke-miterlimit:22.9256;" d="
		M290.533,259.167c25.688,23.812,23.437,97.875-26.25,145.5"/>
	
		<path style="fill:none;stroke:#000000;stroke-width:8.5039;stroke-linecap:round;stroke-linejoin:round;stroke-miterlimit:22.9256;" d="
		M218.938,434.689c0,0,27.907,10.853,55.095-48.209"/>
	
		<path style="fill:none;stroke:#000000;stroke-width:8.5039;stroke-linecap:round;stroke-linejoin:round;stroke-miterlimit:22.9256;" d="
		M228.658,425.667c-13.5,11.25-29.271,32.635-48.217,32.728c-12.4,0.062-24.206-5.735-38.971-22.041"/>
	
		<path style="fill:none;stroke:#000000;stroke-width:8.5039;stroke-linecap:round;stroke-linejoin:round;stroke-miterlimit:22.9256;" d="
		M91.595,406.542c0,0,27,51.75,49.875,29.812"/>
	
		<path style="fill:none;stroke:#000000;stroke-width:8.5039;stroke-linecap:round;stroke-linejoin:round;stroke-miterlimit:22.9256;" d="
		M133.595,391.167c0,0,61.313,10.5,93.376-5.25"/>
	
		<path style="fill:none;stroke:#000000;stroke-width:8.5039;stroke-linecap:round;stroke-linejoin:round;stroke-miterlimit:22.9256;" d="
		M81.47,346.542c19.688,16.688,45.117,29.024,94.877,28.68c38.309-0.266,75.403-13.118,93.936-49.867"/>
	
		<path style="fill:none;stroke:#000000;stroke-width:8.5039;stroke-linecap:round;stroke-linejoin:round;stroke-miterlimit:22.9256;" d="
		M76.408,281.48c0,0-26.625,34.125,5.062,65.062"/>
	
		<path style="fill:none;stroke:#000000;stroke-width:8.5039;stroke-linecap:round;stroke-linejoin:round;stroke-miterlimit:22.9256;" d="
		M272.908,285.23c0,0,4.302,28.626-2.625,40.125"/>
	
		<path style="fill:none;stroke:#000000;stroke-width:8.5039;stroke-linecap:round;stroke-linejoin:round;stroke-miterlimit:22.9256;" d="
		M60.658,288.792c6.188,0.75,9.562-8.25,18.188-9.188"/>
	
		<path style="fill:none;stroke:#000000;stroke-width:8.5039;stroke-linecap:round;stroke-linejoin:round;stroke-miterlimit:22.9256;" d="
		M110.72,275.48c-5.879,1.501-8.419,8.935-15.938,9.408c-8.614,0.543-8.484-5.382-15.938-5.283"/>
	
		<path style="fill:none;stroke:#000000;stroke-width:8.5039;stroke-linecap:round;stroke-linejoin:round;stroke-miterlimit:22.9256;" d="
		M110.72,275.48c10.382-0.883,7.533,10.138,20.241,10.305c14.734,0.193,14.602-11.296,24.009-10.867"/>
	
		<path style="fill:none;stroke:#000000;stroke-width:8.5039;stroke-linecap:round;stroke-linejoin:round;stroke-miterlimit:22.9256;" d="
		M200.158,274.167c-7.124,0.562-9.021,10.42-22.875,10.557c-9.514,0.094-15.035-9.174-22.312-9.807"/>
	
		<path style="fill:none;stroke:#000000;stroke-width:8.5039;stroke-linecap:round;stroke-linejoin:round;stroke-miterlimit:22.9256;" d="
		M240.95,271.169c-8.686-0.857-9.719,9.381-21.085,9.898c-12.24,0.557-11.35-6.677-19.707-6.899"/>
	
		<path style="fill:none;stroke:#000000;stroke-width:8.5039;stroke-linecap:round;stroke-linejoin:round;stroke-miterlimit:22.9256;" d="
		M276.846,284.854c-20.063-1.688-26.043-13.871-35.896-13.686"/>
	
		<path style="fill:none;stroke:#000000;stroke-width:8.5039;stroke-linecap:round;stroke-linejoin:round;stroke-miterlimit:22.9256;" d="
		M47.345,278.855c0,0-9.75,15.938-0.188,23.062"/>
	
		<path style="fill:none;stroke:#000000;stroke-width:8.5039;stroke-linecap:round;stroke-linejoin:round;stroke-miterlimit:22.9256;" d="
		M91.22,416.855c0,0-8.312-0.146-15.667-12.293c-14.294-23.61-41.19-66.001-28.396-102.645"/>
</g>
</svg>
