<svg xmlns="http://www.w3.org/2000/svg" viewBox="0 0 373.987 402.331"><g id="n0201"><g><path fill-rule="evenodd" clip-rule="evenodd" fill="#f8d63f" d="M149.075 275.643l15.555 3.167 21.558 2.841 22.521.379 18.807-1.621 1.089 36.787 1.447 13.107 2.869 18.092-15.186 5.71-23.505 2.416-21.29-2.798-16.529-5.781-6.456-4.088.34-19.401-.862-13.342-.358-35.468z"/><path fill-rule="evenodd" clip-rule="evenodd" fill="#49b37e" d="M79.732 367.717l12.202-7.234 19.594-9.109 23.445-9.106 3.444-8.681 11.826-6.186 2.312 13.531-2.066 3.261 11.007 5.527 14.161 4.612 15.595 2.066 16.672-.497 15.071-3.317 11.065-4.801-2.944-5.487-.824-9.666 8.955.766 7.355 3.841 6.261 9.573 15.432 1.965 15.723 2.177 18.145 3.856-5.749 5.96-11.885 8.603-17.547 10.238-21.191 8.981-23.943 6.351-24.03 2.873-22.168-.103-22.537-2.582-22.68-4.992-21.109-6.808-16.115-6.725-13.477-8.887z"/><path d="M149.075 275.643s.301 50.851 3.48 65.289m74.632-59.899s3.745 55.264 3.93 61.264m-83.812-1.743c4.118 10.315 55.482 27.224 89.996 5.309m-101.813 1.621s-3.929-12.753 9.387-18.368m85.417 3.514s16.956-2.512 22.571 14.18M78.286 368.822s11.909-10.423 56.687-26.554m113.014 5.852s20.438-1.862 55.309 6.973m-225.01 13.729c30.559 18.186 137.21 62.152 225.01-13.729" fill="none" stroke="#000" stroke-width="8.504" stroke-linecap="round" stroke-linejoin="round" stroke-miterlimit="22.926"/></g></g><g id="n0202"><g><path fill-rule="evenodd" clip-rule="evenodd" fill="#f8d63f" d="M41.058 29.137l4.668 6.109 7.16 12.193 6.615 13.184 3.786 10.674.793 8.685-5.05 10.238.524 8.702 7.169 7.678-4.363 11.533-8.935-.762-12.326-9.644-7.373-14.519-4.016-15.554-1.212-18.416 1.833-12.106 4.513-10.882 6.214-7.113z"/><path fill-rule="evenodd" clip-rule="evenodd" fill="#e085ad" d="M41.058 29.137l10.005-3.742 9.111 2.786 8.061 7.108 6.95 6.922 8.78 9.56-3.542 10.184 3.343 4.687-.283 5.659-4.542 7.333-4.282 8.015-4.033 8.862-3.903 10.089-4.167-2.155-4.022-8.476 1.942-8.678 3.604-7.309-.793-8.685-5.22-13.822-6.866-13.03-5.475-9.199-4.668-6.109z"/><path fill-rule="evenodd" clip-rule="evenodd" fill="#68569d" d="M41.43 165.584l11.702-23.517 5.554-12.06 5.234-15.269 6.706-18.227 6.937-14.429 5.92-9.781 9.606-6.97 16.981-10.496 17.687-5.076 16.49.383 15.844 5.804 9.849 8 6.779 11.884 1.003 10.796-3.171 10.343-6.558 9.176-6.911 6.232 6.936 5.072-5.986 5.845-3.457 6.439-1.595 23.787-10.473-4-17.174-3.584-14.394-.412-16.181 2.055-17.745 4.951-14.304 5.749-9.22 4.401-16.855 11.114z"/><path fill-rule="evenodd" clip-rule="evenodd" d="M110.799 109.238l8.887.649 7.633 2.014 1.237-10.039-5.572-6.674-6.42-5.896 7.499-5.389 6.007-3.978-.825-7.879-5.638-3.715-6.529 2.721-2.261 6.899-3.699 24.65-.319 6.637z"/><path fill-rule="evenodd" clip-rule="evenodd" fill="#fff" d="M83.423 63.278l.899 8.415 8.767-6.362 13.686-8.66 16.038-7.898 14.16.569 17.532 3.821 11.164 6.674 8.031 9.214 3.52 12.177-1.083 10.57-4.866 9.759-9.297 10.016 5.888 6.03 8.052-4.561 8.004-1.166 8.446 2.371 5.991-3.17-6.441-11.189-.781-12.204 4.708-12.932 7.61-9.624 11.722-7.882 16.424-3.308 12.077 1.534 13.237 4.991 2.411-2.307-14.076-12.975-11.603-10.179-7.651-12.13-17.147-11.757-15.62-5.092-19.734-.984-18.929 4.932-18.797 4.348-16.983 7.323-14.151 9.187-11.61 10.73-6.36 9.991"/><path fill-rule="evenodd" clip-rule="evenodd" fill="#f8d63f" d="M239.445 40.092l16.258-3.926 14.876 7.559 8.624 14.522 3.946 10.649.018 9.159-5.666 3.54-7.673-11.203-10.506-12.236-10.098-9.31-9.779-8.754z"/><path d="M272.104 51.293l9.391-6.338s12.354-7.804 13.559-8.579c1.201-.776 15.322-10.19 15.322-10.19l12.955-5.472 10.277 3.63 4.158 7.108 1.99 15.381-1.526 19.921-2.63 15.047-5.078 15.365-8.187 13.217-10.717 9.3-14.884 5.733-5.129-15.279-5.74-13.323-8.364-15.219 5.666-3.54-.018-9.159-3.33-8.986-7.715-8.617z" fill-rule="evenodd" clip-rule="evenodd" fill="#49b37e"/><path fill-rule="evenodd" clip-rule="evenodd" fill="#fff" d="M201.114 120.872l4.66-4.076 14.677 5.864 15.611 2.74 12.544.479 2.486 7.41-18.367 2.401-12.568 2.806-13.085 3.814-2.879-5.376 2.928-5.976-2.34-5.94-3.667-4.146z"/><path fill-rule="evenodd" clip-rule="evenodd" fill="#49b37e" d="M250.681 152.385l.03-26.585-13.333-.281-16.927-2.859-14.677-5.864-10.938-10.298-3.9-11.554 1.624-13.021 4.66-9.405 8.904-9.743 13.931-7.283 15.417-1.384 14.112 3.158 11.722 3.579 7.269 7.984 8.457 12.021 8.833 15.964 5.74 13.323 4.728 14.08 4.197 14.066-13.887 15.874-15.567-1.899-16.999-3.424z"/><path d="M238.243 108.428l-3.565-10.907-2.77-11.849-.596-9.941 7.244-4.714 7.753 2.851 2.824 4.447-4.17 4.537-5.69 5.373 1.117 3.473 7.538 3.756 4.566 4.238s.062 8.33 1.016 8.469c.953.138-6.536-.449-6.536-.449l-8.731.716z" fill-rule="evenodd" clip-rule="evenodd"/><path fill-rule="evenodd" clip-rule="evenodd" fill="#e085ad" d="M113.471 144.146l11.374-.921 1.591 7.647 5.77 2.922 6.402 7.243 5.11 2.028 4.337-4.087 5.288 4.078 8.356 1.546 4.266 6.112 9.333 1.632 9.106-6.818 7.076 3.382 9.603 6.026 7.182-3.907 3.05 6.129-7.255 5.499-24.295 39.277-2.891 11.058 1.794 12.826-.785 9.078-13.941 17.773-5.005 2.091-6.275-9.981-13.64 9.435-5.777 1.016-7.924-5.773-3.005-8.556-6.714-2.906-10.633 3.222-11.37-12.991-6.522 4.572-5.515 5.893-6.162-7.02-23.088-22.175-2.477-19.636-1.775-12.266 1.661-12.673 5.927-10.818 9.774-7.64 11.237-4.004 34.14-19.247z"/><path fill-rule="evenodd" clip-rule="evenodd" fill="#f8d63f" d="M271.957 147.771l10.138 4.358 26.944 25.252 5.681 7.406 4.316 12.265-.212 13.13-3.791 11.934-5.126 8.911-26.022 41.816-5.674-9.744-7.994-8.742-10.914-2.809-8.328 5.403-2.756 3.75-11.09 5.596-8.662.583-7.46 4.776-7.892 10.021-6.523-5.294-28.87-18.297-1.65-17.077.7-14.332 2.498-6 29.95-47.731 2.6 4.674 9.166-2.865 3.738-1.792 9.108-5.923 10.365 1.396 9.342-.263 9.342-3.081 3.588 3.073 3.797-11.016 1.691-9.378z"/><path d="M83.423 63.278c2.416-48.45 119.031-91.601 154.3-24.533M83.965 51.771c.998.597-21.546-23.827-26.983-25.517m5.378 91.879s-21.379 5.611-31.103-33.208c-9.725-38.819 6.979-64.683 25.725-58.67m104.861-.701s36.071 22.49 53.613 2.674m70.824 59.101s-6.513-69.544-48.557-48.584" fill="none" stroke="#000" stroke-width="8.504" stroke-linecap="round" stroke-linejoin="round" stroke-miterlimit="22.926"/><path d="M83.483 72.301c53.463-40.652 75.955-27.325 103.139-21.87 27.184 5.454 36.567-7.853 38.443-8.976m70.273 61.358c19.137-17.238-12.849-36.98 24.604-64.859" fill="none" stroke="#000" stroke-width="8.504" stroke-linecap="round" stroke-linejoin="round" stroke-miterlimit="22.926"/><path d="M278.313 46.928s21.007-12.924 33.202-21.542c12.193-8.617 30.006-8.231 28.108 25.331-1.898 33.561-8.668 63.182-37.737 73.663m-76.821-82.925c20.044-2.731 57.342 25.439 74.002 92.673m-41.993-9.027c-11.249 2.243-50.626.905-62.238-18.603-11.61-19.507 5.463-38.059 5.463-38.059m69.849 2.448c-5.674-9.518-44.706-31.495-69.85-2.448M83.483 72.301c-24.023 36.172-26.502 74.664-38.105 89.997m60.529-105.126c48.206-27.157 100.199 21.958 54.05 56.054m67.876-1.831s17.817-8.426 38.249.212m-172.687 1.014s21.006-9.174 41.061 2.651m-88.73-80.026c39.896 64.713.16 42.75 16.831 69.199m168.577-27.642c.194-6 13.509-9.929 18 1.512m-12.953 23.242s-4.681-10.316-5.047-24.753m5.804 13.503s8.819-7.681 12.195-11.992" fill="none" stroke="#000" stroke-width="8.504" stroke-linecap="round" stroke-linejoin="round" stroke-miterlimit="22.926"/><path d="M253.511 108.161s.294-4.343-1.016-8.469c-1.31-4.126-15.557-9.385-15.557-9.385m-125.82 12.294c.354-4.607 2.163-19.261 4.706-28.872m14.246 6.196c3.382-11.06-11.239-16.507-14.246-6.196m.74 15.563s9.379-6.932 13.506-9.367m-1.514 21.937c-2.7-4.437-7.369-8.391-11.992-12.57m10.755 22.609s2.546-4.975 1.237-10.039" fill="none" stroke="#000" stroke-width="8.504" stroke-linecap="round" stroke-linejoin="round" stroke-miterlimit="22.926"/></g></g><g id="n0203"><g><g><path fill-rule="evenodd" clip-rule="evenodd" fill="#68569d" d="M172.526 255.832l.915-10.834 2.036-11.902 3.794-12.194 9.306-7.194 14.327-3.838 9.133 2.063 4.104 3.59-4.786 6.368-4.763 2.851-.761 9.857.037 10.513.529 14.241-9.453-.832-10.472 6.171-7.869-5.92-6.077-2.94z"/><path d="M187.631 231.068s26.628-5.421 28.51-15.545m-42.96 33.911c1.8-51.622 42.588-39.909 42.96-33.91" fill="none" stroke="#000" stroke-width="8.504" stroke-linecap="round" stroke-linejoin="round" stroke-miterlimit="22.926"/></g><path d="M206.18 260.897s-1.479-26.511.194-34.61" fill="none" stroke="#000" stroke-width="8.504" stroke-linecap="round" stroke-linejoin="round" stroke-miterlimit="22.926"/></g></g><g id="n0204"><g><path fill-rule="evenodd" clip-rule="evenodd" fill="#414141" d="M157.48 120.445l2.574-5.498 6.461-6.82 7.957-4.726 7.978-1.331 9.471 2.695 6.765 4.869 6.124 8.093.998 5.815-3.914 3.75-6.033.471-.198 4.854-10.262 3.269-9.041-.916-7.255-6.67-6.945-1.584-4.68-6.271z"/><path d="M366.097 191.533l-7.239-11.617-7.134-10.382 16.863 3.767-9.016-10.344-12.33-11.616-14.072-10.322-15.459-8.381-18.129-6.562-17.062-3.462-24.173-1.074-21.159 2.294-17.958 4.107-13.003 4.082-4.332-4.73-4.637.605-6.725 6.354-9.651 1.177-9.204-2.251-2.572-4.877-6.945-1.584-2.587 1.742-11.446-4.331-15.688-3.504-25.751.731-27.371 7.14-22.867 10.649-17.404 9.979-19.191 11.587s-14.153 7.256-15.516 7.784c-1.363.527 2.935 8.842 2.935 8.842l8.701 6.48-6.043 11.196 9.215 12.472 15.435 17.579 22.88 20.611 23.703 16.421 27.155 14.113 25.914 9.607 27.565 6.562 26.894 2.981 27.184-.394 31.172-4.892 26.854-8.46 24.576-11.818 21.717-14.446 16.385-14.062 14.196-15.04 10.657-13.551 8.303-12.283-3.64-8.879zm-72.879 43.482c-11.185 11.622-38.463 38.407-107.349 32.493-68.885-5.916-94.023-20.411-109.332-44.899-15.308-24.486-10.471-45.664 12.107-59.892 22.578-14.227 66.991 3.282 82.194 7.644 15.202 4.36 14.203-9.625 14.203-9.625 1.751 6.539-.02 12.764 25.365 5.6 25.388-7.165 39.312-8.169 73.291.827 33.978 8.998 20.707 56.228 9.521 67.852z" fill-rule="evenodd" clip-rule="evenodd" fill="#fff"/><path fill-rule="evenodd" clip-rule="evenodd" fill="#81cece" d="M105.796 158.57l.239 8.957 2.677 10.616 6.583 9.647 8.408 4.208 4.252-4.174 5.371 3.968 8.386 1.374 4.391 6.024 6.508 2.181 7.719-3.769 4.101-3.976 7.144 3.235 11.239-.251 7.101-4.054 9.407 2.543 9.635.38 10.817-2.365 7.398-3.738 8.154 4.466 8.74 1.774 7.964-3.608 2.815-3.963 6.947 1.767 6.295-4.847 2.988-6.874 1.663-7.813 1.138-7.059-14.979-2.93-19.378 1.23-20.489 4.506-15.435 4.359-10.326-1.372-8.229-8.275-6.12 8.056-8.966 1.74L155.635 166l-15.66-4.663-13.937-2.358-11.017-.672-9.225.263zm-18.597 77.774l7.575-7.133 9.238-6.473 13.341-5.964 9.284 1.09 4.562 9.713 5.944 3.64 7.854.835 8.215 3.5 5.693 7.67 2.305 3.099 8.454-4.107 7.735.606 8.731 5.052 3.42 3.439 8.493-6.086 8.777-1.172 9.899 5.846 4.921-7.088 7.436-6.539 8.032-2.285 10.12 3.204 7.924 7.013 7.806 10.981-10.431 3.624-17.409 4.581-20.417 3.286-20.772 1.192-21.794-.976-19.786-2.864-18.961-4.622-17.037-5.979-15.433-7.436-13.719-9.647z"/><path fill-rule="evenodd" clip-rule="evenodd" fill="#fff" d="M286.278 241.918l-7.638-12.423-9.747-8.204-9.042-.081-6.483 4.815-7.349 4.516-5.489 3.702 6.576 4.634 6.01 5.442 8.668 12.408 8.143-3.588 10.123-6.175 6.228-5.046z"/><path fill-rule="evenodd" clip-rule="evenodd" fill="#fff" d="M287.14 239.875l-7.893-12.262-9.912-8.002-9.043.105-6.381 4.947-7.254 4.666-5.412 3.815 6.671 4.496 6.118 5.317 8.924 12.228 8.065-3.755 9.995-6.38 6.122-5.175z"/><path d="M170.532 132.555s12.153 7.634 25.131.062m-29.721-4.472s7.747 2.847 9.004-9.369m14.809-.295s-2.824 8.871 7.502 9.417m-37.203-12.951s20.04-29.654 44.467.99m-38.579 12.208s-14.13-3.283-5.888-13.198m44.467.99c1.519 2.512 4.74 12.096-7.264 11.961M4.339 168.495c30.531-11.297 89.933-70.242 155.234-40.036M14.024 184.054s-10.845-7.848-9.686-15.56m21.787 1.628s-13.731 16.776-16.194 24.891m359.804 5.402C282.729 338.577 94.042 317.254 9.931 195.013M204.8 132.486c14.542-4.585 101.018-38.725 164.699 41.962m-19.983-5.229s14.713 13.584 20.22 31.196m-.237-25.967s-14.537-4.774-19.983-5.229M173.109 280.846s23.117 2.541 36.941-.174m-24.943-131.905s2.261 28.837-19.847 20.462m42.569-.098c-11.733 4.173-23.568 3.096-22.722-20.364" fill="none" stroke="#000" stroke-width="8.504" stroke-linecap="round" stroke-linejoin="round" stroke-miterlimit="22.926"/><path d="M165.26 169.229c-11.505-3.334-27.804-11.824-57.04-10.867-54.87 3.905-43.513 55.63-22.29 76.771 21.224 21.143 97.256 48.772 174.268 21.1 52.779-18.965 66.496-84.078 4.312-95.267-14.932-2.687-34.096 1.645-56.682 8.165m2.349-13.925s6.678-22.636 22.38-6.259m22.044-4.376s-15.551-18.069-22.044 4.377m40.901-8.503s-13.308-18.488-18.857 4.126m36.687-3.543s-6.721-17.307-17.83-.583m38.325 12.739s-5.98-17.696-20.495-12.156m-124.029 15.595s7.059-22.27-11.175-5.591m-13.613-5.542s10.625-12.587 13.613 5.543m-34.859-8.308s13.409-14.145 21.247 2.765m-40.784-4.44s11.972-10.927 19.537 1.675m-41.081-.495s12.28-4.933 21.544-1.18m20.521 107.802s23.477-36.383 38.403-2.078m28.053 5.443s-10.507-19.105-28.052-5.443m55.952 3.387s-11.185-15.53-27.9 2.056m70.073-3.269s-21.315-34.457-42.173 1.214m23.694-15.871s11.498-15.772 25.217 4.583m-14.245-10.406s14.94-28.186 35.908 11.407m-179.382-1.049s14.347-23.251 31.483-5.64m-46.274-2.505s35.293-30.14 38.233-3.104m5.489-52.153s5.173 43.219 27.743 18.202m25.484-1.07s-10.667 10.527-25.484 1.07m62.741-4.25s-15.522 11.562-37.257 3.18m68.441-19.366s-.395 36.768-31.185 16.186m45.567-19.098s-2.954 26.815-17.894 17.768m-138.045-22.541s6.752 29.924 24.914 27.661m-35.772-26.695s1.187 21.919 17.761 25.527" fill="none" stroke="#000" stroke-width="8.504" stroke-linecap="round" stroke-linejoin="round" stroke-miterlimit="22.926"/></g></g></svg>