<?xml version="1.0" encoding="utf-8"?>
<!-- Generator: Adobe Illustrator 19.2.1, SVG Export Plug-In . SVG Version: 6.00 Build 0)  -->
<svg version="1.1" id="Layer_1" xmlns="http://www.w3.org/2000/svg" xmlns:xlink="http://www.w3.org/1999/xlink" x="0px" y="0px"
	 viewBox="0 0 347.457 565.012" style="enable-background:new 0 0 347.457 565.012;" xml:space="preserve">
<g id="n2001">
	<g>
		<polygon style="fill:#F2F2F4;" points="140.759,427.184 146.969,429.611 145.821,433.746 157.092,445.335 167.936,453.516 
			172.071,455.496 173.196,462.621 168.787,471.214 161.288,478.465 153.695,484.934 142.013,475.975 131.913,464.543 
			125.247,454.217 121.446,446.496 131.103,436.84 		"/>
		<path style="fill:#FFFFFF;" d="M147.696,373.87c0,0,26.721-10.406,46.875,1.125c-2.533,9.093-1.259,31.091-1.259,31.091
			l0.866,11.874l2.83,16.349l-6.356,6.77l-8.216,7.526l-10.365,6.892l-9.557-6.07l-11.058-9.885l-5.635-5.795l1.825-10.175
			l0.431-11.656l-0.067-11.811L147.696,373.87L147.696,373.87z"/>
		<polygon style="fill:#F9D740;" points="198.134,485.684 206.732,476.504 214.252,464.982 219.884,453.996 218.288,445.653 
			210.348,437.258 203.475,427.278 196.015,428.569 197.009,434.309 190.653,441.078 183.215,447.892 172.071,455.496 
			172.6,464.112 179.978,471.032 186.662,477.455 		"/>
		<path style="fill:#61F4E5;" d="M108.695,467.871l6.12-7.145c0,0,10.519-6.912,10.69-6.05c0.172,0.862,5.789,9.021,5.789,9.021
			l7.44,9.004l10.342,9.147l4.619,3.084l8.396-5.898l10.508-14.924l7.378,6.921l9.048,8.383l9.107,6.269l8.598-9.18l8.385-12.991
			l14.512,10.915l-6.455,8.36l-7.034,4.94l-10.867,7.136l-14.024,6.174l-12.286,2.911l-15.001,0.403l-17.051-4.108l-13.632-7.327
			L120.699,482.3l-7.501-8.455L108.695,467.871L108.695,467.871z"/>
		<polygon style="fill:#4AB57E;" points="53.384,491.121 63.52,483.173 75.682,474.667 88.208,467.272 99.576,463.186 
			109.696,466.271 114.177,474.945 121.536,483.003 129.882,490.048 140.097,496.581 155.439,502.299 169.107,504.615 
			191.25,501.038 205.274,494.864 219.658,485.259 228.851,475.436 231.001,472.502 221.799,466.623 230.594,463.289 
			243.226,462.528 252.602,468.337 264.039,476.529 276.506,486.414 287.383,495.621 289.821,500.871 284.271,509.248 
			272.512,522.192 256.916,534.437 236.07,545.938 217.654,552.903 195.039,558.161 174.982,560.07 153.579,559.298 
			129.533,554.893 109.912,547.982 92.089,538.285 77.741,527.147 63.551,511.331 57.212,501.365 		"/>
		
			<path style="fill:none;stroke:#000000;stroke-width:8.5039;stroke-linecap:round;stroke-linejoin:round;stroke-miterlimit:22.9256;" d="
			M99.222,459.994c0,0,4.491-4.321,10.119-2.832"/>
		
			<path style="fill:none;stroke:#000000;stroke-width:8.5039;stroke-linecap:round;stroke-linejoin:round;stroke-miterlimit:22.9256;" d="
			M88.183,472.203c0,0,3.538-12.757,18.175-6.598"/>
		
			<path style="fill:none;stroke:#000000;stroke-width:8.5039;stroke-linecap:round;stroke-linejoin:round;stroke-miterlimit:22.9256;" d="
			M53.347,491.959c0,0,21.215-17.971,39.636-26.292"/>
		
			<path style="fill:none;stroke:#000000;stroke-width:8.5039;stroke-linecap:round;stroke-linejoin:round;stroke-miterlimit:22.9256;" d="
			M121.322,447.201c7.115-5.264,12.908-15.213,19.275-19.35"/>
		
			<path style="fill:none;stroke:#000000;stroke-width:8.5039;stroke-linecap:round;stroke-linejoin:round;stroke-miterlimit:22.9256;" d="
			M145.672,434.403c0,0,14.659,17.409,26.292,21.699"/>
		
			<path style="fill:none;stroke:#000000;stroke-width:8.5039;stroke-linecap:round;stroke-linejoin:round;stroke-miterlimit:22.9256;" d="
			M196.86,434.866c0,0-13.843,16.152-24.896,21.236"/>
		
			<path style="fill:none;stroke:#000000;stroke-width:8.5039;stroke-linecap:round;stroke-linejoin:round;stroke-miterlimit:22.9256;" d="
			M194.338,375.557c0,0-4.098,29.697,2.522,59.309"/>
		
			<path style="fill:none;stroke:#000000;stroke-width:8.5039;stroke-linecap:round;stroke-linejoin:round;stroke-miterlimit:22.9256;" d="
			M147.461,374.524c0,0,1.76,52.935-1.789,59.88"/>
		
			<path style="fill:none;stroke:#000000;stroke-width:8.5039;stroke-linecap:round;stroke-linejoin:round;stroke-miterlimit:22.9256;" d="
			M200.217,425.671c0,0,14.659,17.221,19.361,24.712"/>
		
			<path style="fill:none;stroke:#000000;stroke-width:8.5039;stroke-linecap:round;stroke-linejoin:round;stroke-miterlimit:22.9256;" d="
			M198.086,486.238c3.188,0.369,18.883-23.611,21.688-31.73"/>
		
			<path style="fill:none;stroke:#000000;stroke-width:8.5039;stroke-linecap:round;stroke-linejoin:round;stroke-miterlimit:22.9256;" d="
			M173.103,463.225c0,0,8.651,13.483,24.983,23.014"/>
		
			<path style="fill:none;stroke:#000000;stroke-width:8.5039;stroke-linecap:round;stroke-linejoin:round;stroke-miterlimit:22.9256;" d="
			M153.646,485.575c0,0,13.303-6.026,19.457-22.351"/>
		
			<path style="fill:none;stroke:#000000;stroke-width:8.5039;stroke-linecap:round;stroke-linejoin:round;stroke-miterlimit:22.9256;" d="
			M121.322,447.201c0,0,9.797,24.731,32.324,38.374"/>
		
			<path style="fill:none;stroke:#000000;stroke-width:8.5039;stroke-linecap:round;stroke-linejoin:round;stroke-miterlimit:22.9256;" d="
			M172.381,478.038c0,0-1.282,15.378,0.603,20.811"/>
		
			<path style="fill:none;stroke:#000000;stroke-width:8.5039;stroke-linecap:round;stroke-linejoin:round;stroke-miterlimit:22.9256;" d="
			M108.613,468.601c0,0,5.275-10.161,17.248-12.421"/>
		
			<path style="fill:none;stroke:#000000;stroke-width:8.5039;stroke-linecap:round;stroke-linejoin:round;stroke-miterlimit:22.9256;" d="
			M231.62,471.923c-14.392,23.091-75.438,63.335-123.007-3.322"/>
		
			<path style="fill:none;stroke:#000000;stroke-width:8.5039;stroke-linecap:round;stroke-linejoin:round;stroke-miterlimit:22.9256;" d="
			M95.703,483.063c0,0,3.542-10.694,13.858-8.465"/>
		
			<path style="fill:none;stroke:#000000;stroke-width:8.5039;stroke-linecap:round;stroke-linejoin:round;stroke-miterlimit:22.9256;" d="
			M122.76,511.886c0,0,32.476,19.812,77.452,7.161"/>
		
			<path style="fill:none;stroke:#000000;stroke-width:8.5039;stroke-linecap:round;stroke-linejoin:round;stroke-miterlimit:22.9256;" d="
			M105.096,492.045c0,0,0.364-5.813,10.295-8.833"/>
		
			<path style="fill:none;stroke:#000000;stroke-width:8.5039;stroke-linecap:round;stroke-linejoin:round;stroke-miterlimit:22.9256;" d="
			M116.546,498.398c0,0,0.366-4.688,9.733-8.644"/>
		
			<path style="fill:none;stroke:#000000;stroke-width:8.5039;stroke-linecap:round;stroke-linejoin:round;stroke-miterlimit:22.9256;" d="
			M210.4,492.291c0,0,8.7,1.968,11.525,8.15"/>
		
			<path style="fill:none;stroke:#000000;stroke-width:8.5039;stroke-linecap:round;stroke-linejoin:round;stroke-miterlimit:22.9256;" d="
			M222.462,482.803c0,0,6.376,4.5,8.447,9.371"/>
		
			<path style="fill:none;stroke:#000000;stroke-width:8.5039;stroke-linecap:round;stroke-linejoin:round;stroke-miterlimit:22.9256;" d="
			M215.026,464.034c0,0,7.765,3.956,14.534,10.887"/>
		
			<path style="fill:none;stroke:#000000;stroke-width:8.5039;stroke-linecap:round;stroke-linejoin:round;stroke-miterlimit:22.9256;" d="
			M220.891,467.652c0,0,11.454-8.105,25.715-2.508"/>
		
			<path style="fill:none;stroke:#000000;stroke-width:8.5039;stroke-linecap:round;stroke-linejoin:round;stroke-miterlimit:22.9256;" d="
			M287.354,496.001c0,0-25.169-22.076-40.748-30.858"/>
		
			<path style="fill:none;stroke:#000000;stroke-width:8.5039;stroke-linecap:round;stroke-linejoin:round;stroke-miterlimit:22.9256;" d="
			M53.162,493.834c11.72,28.343,45.261,61.475,103.423,66.376c58.053,4.891,112.957-23.518,133.217-58.964"/>
	</g>
</g>
<g id="n2002">
	<g>
		<g>
			<g>
				<polygon style="fill:#67559E;" points="43.314,213.012 44.519,224.57 46.417,239.813 47.537,253.265 47.442,261.73 
					49.272,274.712 40.978,281.414 46.292,284.17 42.034,293.033 39.712,300.845 38.653,306.55 31.692,305.214 25.424,300.734 
					24.211,293.335 25.526,286.837 25.583,281.328 22.041,266.821 17.046,245.418 16.151,232.413 19.639,219.267 24.787,214.184 
					35.163,211.728 				"/>
				<polygon style="fill:#FFFFFF;" points="48.539,285.993 52.948,279.011 61.846,269.736 76.413,262.757 87.698,257.494 
					103.822,256.228 118.411,257.842 129.921,258.494 124.535,244.979 128.629,233.416 140.249,223.257 155.847,214.56 
					167.651,212.892 167.052,276.151 179.719,275.45 179.052,282.46 192.386,281.058 199.719,277.553 203.719,276.151 
					215.719,274.749 231.719,274.048 246.386,278.955 264.549,260.46 274.474,266.616 283.363,275.768 288.171,283.509 
					291.63,279.712 290.352,268.064 285.489,255.454 279.882,248.179 283.724,234.643 287.562,212.705 288.81,190.013 
					287.474,170.246 283.454,150.251 275.663,129.219 264.704,110.476 251.124,94.593 230.867,79.681 208.857,71.038 
					186.468,67.521 163.963,67.5 144.661,69.33 123.612,73.811 103.868,81.385 89.077,90.292 75.077,102.833 62.584,120.36 
					54.243,137.775 48.676,155.509 46.067,170.122 45.022,183.998 45.449,203.612 47.367,223.824 49.225,243.287 49.737,255.724 
					48.331,263.079 50.186,274.535 43.272,281.712 				"/>
				<path style="fill:#FFFFFF;" d="M53,298.56"/>
				<polygon style="fill:#4AB57E;" points="285.597,215.067 293.992,212.558 304.377,213.17 312.327,217.885 316.598,227.83 
					316.83,236.062 314.693,248.625 312.104,257.44 309.011,267.321 306.5,278.663 305.957,288.434 307.36,296.881 305.087,303.86 
					299.527,306.902 291.61,307.615 291.082,298.564 289.191,289.076 287.652,280.309 290.166,275.161 287.642,266.679 
					283.241,257.26 277.634,250.849 281.476,238.922 283.396,229.256 285.106,220.642 				"/>
				<polygon style="fill:#67559E;" points="164.772,392.212 62.805,356.725 47.138,262.618 165.138,262.618 				"/>
				<polygon style="fill:#67559E;" points="264.804,362.953 164.772,392.212 163.898,262.721 281.898,262.721 				"/>
				
					<path style="fill:none;stroke:#000000;stroke-width:8.5039;stroke-linecap:round;stroke-linejoin:round;stroke-miterlimit:22.9256;" d="
					M65.353,110.307C80.728,88.62,107.348,69.1,158.372,65.871c29.439-1.863,70.646-0.787,101.232,38.916"/>
				
					<path style="fill:none;stroke:#000000;stroke-width:8.5039;stroke-linecap:round;stroke-linejoin:round;stroke-miterlimit:22.9256;" d="
					M274.772,251.712c0,0,32.082-85.224-15.168-146.214"/>
				
					<path style="fill:none;stroke:#000000;stroke-width:8.5039;stroke-linecap:round;stroke-linejoin:round;stroke-miterlimit:22.9256;" d="
					M47.272,271.212c10-45.5-20.544-101.596,18.081-160.24"/>
				
					<path style="fill:none;stroke:#000000;stroke-width:8.5039;stroke-linecap:round;stroke-linejoin:round;stroke-miterlimit:22.9256;" d="
					M285.925,214.207c0,0,45.679-15.488,26.179,43.233"/>
				
					<path style="fill:none;stroke:#000000;stroke-width:8.5039;stroke-linecap:round;stroke-linejoin:round;stroke-miterlimit:22.9256;" d="
					M306.479,291.143c0,0-3.375-7.644,5.625-33.703"/>
				
					<path style="fill:none;stroke:#000000;stroke-width:8.5039;stroke-linecap:round;stroke-linejoin:round;stroke-miterlimit:22.9256;" d="
					M291.854,307.125c0,0,19.875,3.475,14.625-15.982"/>
				
					<path style="fill:none;stroke:#000000;stroke-width:8.5039;stroke-linecap:round;stroke-linejoin:round;stroke-miterlimit:22.9256;" d="
					M305.178,228.275c0,0-15.949,17.699-3.574,31.944"/>
				
					<path style="fill:none;stroke:#000000;stroke-width:8.5039;stroke-linecap:round;stroke-linejoin:round;stroke-miterlimit:22.9256;" d="
					M292.604,275.16c4.499-3.59,12.375-8.686,9-14.941"/>
				
					<path style="fill:none;stroke:#000000;stroke-width:8.5039;stroke-linecap:round;stroke-linejoin:round;stroke-miterlimit:22.9256;" d="
					M43.314,213.012c0,0-38.993-13.164-23.618,44.688"/>
				
					<path style="fill:none;stroke:#000000;stroke-width:8.5039;stroke-linecap:round;stroke-linejoin:round;stroke-miterlimit:22.9256;" d="
					M38.446,308.081c-16.378-6.322-15.7-8.834-12.92-21.244c1.375-6.135-2.925-16.389-5.83-29.137"/>
				
					<path style="fill:none;stroke:#000000;stroke-width:8.5039;stroke-linecap:round;stroke-linejoin:round;stroke-miterlimit:22.9256;" d="
					M29.178,226.048c4.688,10.597,9.333,11.495,5.143,25.92"/>
				
					<path style="fill:none;stroke:#000000;stroke-width:8.5039;stroke-linecap:round;stroke-linejoin:round;stroke-miterlimit:22.9256;" d="
					M42.087,274.982c0,0-19.7-6.917-7.767-23.014"/>
				
					<line style="fill:none;stroke:#000000;stroke-width:8.5039;stroke-linecap:round;stroke-linejoin:round;stroke-miterlimit:22.9256;" x1="162.298" y1="67.607" x2="164.805" y2="256.35"/>
				<g>
					<polygon points="85.132,175.301 85.598,163.245 86.981,151.792 89.423,142.928 94.411,137.55 100.968,136.844 106.553,142.03 
						107.706,148.54 107.071,156.81 105.591,164.334 97.86,170.39 91.007,175.214 90.377,184.593 96.795,190.644 104.039,196.877 
						108.535,202.883 107.683,207.097 102.827,212.515 92.437,215.363 87.605,211.207 86.065,202.454 85.189,184.224 					"/>
					<polygon points="213.343,181.05 213.129,168.799 213.139,156.144 214.01,144.387 217.882,138.143 227.915,134.187 
						235.787,137.928 240.17,145.503 240.882,152.997 240.131,163.321 239.62,166.564 230.555,171.369 223.006,177.614 
						219.593,183.292 226.363,189.405 234.921,197.684 240.198,202.993 236.946,210.973 230.197,213.987 219.598,210.799 
						214.143,203.842 					"/>
					
						<path style="fill:none;stroke:#000000;stroke-width:8.5039;stroke-linecap:round;stroke-linejoin:round;stroke-miterlimit:22.9256;" d="
						M206.883,219.535c0,0,23.494-9.108,50.261,2.23"/>
					
						<path style="fill:none;stroke:#000000;stroke-width:8.5039;stroke-linecap:round;stroke-linejoin:round;stroke-miterlimit:22.9256;" d="
						M75.549,228.642c0,0,21.182-18.028,48.72-9.293"/>
					
						<path style="fill:none;stroke:#000000;stroke-width:8.5039;stroke-linecap:round;stroke-linejoin:round;stroke-miterlimit:22.9256;" d="
						M74.269,131.392c0,0,17.42-18.168,24.892-18.851c6.547-0.597,16.111-7.829,36.111,2.171"/>
					
						<path style="fill:none;stroke:#000000;stroke-width:8.5039;stroke-linecap:round;stroke-linejoin:round;stroke-miterlimit:22.9256;" d="
						M184.272,115.712c0,0,14.568,0.306,27-4c6.405-2.218,29.879,1.938,43,22"/>
					
						<path style="fill:none;stroke:#000000;stroke-width:8.5039;stroke-linecap:round;stroke-linejoin:round;stroke-miterlimit:22.9256;" d="
						M89.415,142.96c1.66-6.158,13.095-10.223,17.139-0.93"/>
					
						<path style="fill:none;stroke:#000000;stroke-width:8.5039;stroke-linecap:round;stroke-linejoin:round;stroke-miterlimit:22.9256;" d="
						M86.526,208.012c0,0-4.622-46.837,2.889-65.052"/>
					
						<path style="fill:none;stroke:#000000;stroke-width:8.5039;stroke-linecap:round;stroke-linejoin:round;stroke-miterlimit:22.9256;" d="
						M105.591,164.334c0,0,4.043-15.613,0.962-22.305"/>
					
						<path style="fill:none;stroke:#000000;stroke-width:8.5039;stroke-linecap:round;stroke-linejoin:round;stroke-miterlimit:22.9256;" d="
						M89.8,176.044c0,0,13.095-8.921,15.791-11.709"/>
					
						<path style="fill:none;stroke:#000000;stroke-width:8.5039;stroke-linecap:round;stroke-linejoin:round;stroke-miterlimit:22.9256;" d="
						M90.377,184.593c0,0,10.206,10.037,16.368,14.311"/>
					
						<path style="fill:none;stroke:#000000;stroke-width:8.5039;stroke-linecap:round;stroke-linejoin:round;stroke-miterlimit:22.9256;" d="
						M89.8,176.044c-1.833,2.336-2.23,4.416,0.578,8.55"/>
					
						<path style="fill:none;stroke:#000000;stroke-width:8.5039;stroke-linecap:round;stroke-linejoin:round;stroke-miterlimit:22.9256;" d="
						M101.547,213.402c0,0,11.361-6.877,5.199-14.498"/>
					
						<path style="fill:none;stroke:#000000;stroke-width:8.5039;stroke-linecap:round;stroke-linejoin:round;stroke-miterlimit:22.9256;" d="
						M86.526,208.012c0,0,1.349,8.178,8.089,7.435"/>
					
						<path style="fill:none;stroke:#000000;stroke-width:8.5039;stroke-linecap:round;stroke-linejoin:round;stroke-miterlimit:22.9256;" d="
						M213.815,145.562c0.77-8.55,16.369-19.144,25.419-2.974"/>
					
						<path style="fill:none;stroke:#000000;stroke-width:8.5039;stroke-linecap:round;stroke-linejoin:round;stroke-miterlimit:22.9256;" d="
						M214.008,202.808c0,0-1.927-49.068-0.193-57.246"/>
					
						<path style="fill:none;stroke:#000000;stroke-width:8.5039;stroke-linecap:round;stroke-linejoin:round;stroke-miterlimit:22.9256;" d="
						M239.62,166.564c0,0,3.081-16.17-0.385-23.976"/>
					
						<path style="fill:none;stroke:#000000;stroke-width:8.5039;stroke-linecap:round;stroke-linejoin:round;stroke-miterlimit:22.9256;" d="
						M219.593,183.292c0,0,1.541-8.55,20.027-16.728"/>
					
						<path style="fill:none;stroke:#000000;stroke-width:8.5039;stroke-linecap:round;stroke-linejoin:round;stroke-miterlimit:22.9256;" d="
						M240.198,202.993c0,0-12.132-12.453-20.605-19.701"/>
					
						<path style="fill:none;stroke:#000000;stroke-width:8.5039;stroke-linecap:round;stroke-linejoin:round;stroke-miterlimit:22.9256;" d="
						M224.792,213.959c0,0-9.821-1.115-10.784-11.151"/>
					
						<path style="fill:none;stroke:#000000;stroke-width:8.5039;stroke-linecap:round;stroke-linejoin:round;stroke-miterlimit:22.9256;" d="
						M240.198,202.993c0,0-0.77,11.71-11.362,10.966"/>
				</g>
			</g>
		</g>
		<path style="fill:#F9D740;" d="M43.546,227.655l7.474-0.389l-0.638-11.414l-1.221-19.697l-0.782-17.758l-0.934-20.329l2.39-14.492
			l-2.578-10.063l9.114-7.695l6.032-8.095l5.862-10.375l3.406-9.517l5.968-2.566l6.586,8.222l7.64,5.905l9.394,4.364l9.482,2.38
			l9.645,0.982l12.001-0.254l11.846-1.122l17.462-0.196l24.816,2.238l20.491,1.109l20.285-1.895l15.09-3.814l12.576,5.114
			l12.986,1.601l3.541,7.317l6.22,6.657l6.03,10.459l3.906,12.183l1.824,15.666l0.039,13.839c0,0-0.737,11.642-0.829,12.657
			c-0.093,1.015-1.896,17.167-1.896,17.167l-2.665,21.069l7.646,0.442l8.561-3.23l6.749-5.495l7.184-6.081l8.91-6.257l6.808-6.515
			l5.289-9.143l1.519-8.338l-0.54-6.709l-5.199-2.931l4.581-7.012l4.607-9.892l2.855-13.278l-0.299-9.793l-1.709-11.385
			l-6.303-10.235l-6.653-9.103l-7.069-7.277l-3.374-2.824l-0.897-11.233l-3.893-12.727l-8.105-10.824l-11.003-6.261l-7.039-1.425
			l-3.379-9.899l-5.978-8.156l-9.051-5.668l-6.511-4.874l-7.659-9.277l-9.689-8.186l-9.695-5.391L224.31,4.823l-11.792-0.267
			l-11.564,2.956l-8.95,2.368l-12.145-0.845l-13.347-2.15l-15.01-2.081l-16.874,0.44L116.445,9.32l-13.786,6.247l-10.366,7.148
			l-6.454,6.271l-8.392,8.315l-9.944,7.031l-12.2,4.991l-9.87,4.541l-8.782,7.61l-4.729,6.165l3.235,6.163l-12.048,9.452
			l-10.414,12.8l-7.002,13.058l-1.44,9.305l1.895,10.117l4.51,7.656c0,0,3.067,2.039,3.076,3.307
			c0.01,1.268,0.155,10.324,0.155,10.324l-0.566,10.722l-2.461,9.282l-2.327,8.382l0.789,13.29l4.164,10.704l7.221,9.725
			l8.254,7.296l7.947,5.159L43.546,227.655L43.546,227.655z"/>
		
			<path style="fill:none;stroke:#000000;stroke-width:8.5039;stroke-linecap:round;stroke-linejoin:round;stroke-miterlimit:22.9256;" d="
			M83.296,67.238c15.376,2.617,13.313,40.657,50.626,38.443"/>
		
			<path style="fill:none;stroke:#000000;stroke-width:8.5039;stroke-linecap:round;stroke-linejoin:round;stroke-miterlimit:22.9256;" d="
			M58.359,66.232c0,0-31.5-0.403-51.75,40.456"/>
		
			<path style="fill:none;stroke:#000000;stroke-width:8.5039;stroke-linecap:round;stroke-linejoin:round;stroke-miterlimit:22.9256;" d="
			M5.108,106.688c0,0-8.624,17.915,7.125,32.809"/>
		
			<path style="fill:none;stroke:#000000;stroke-width:8.5039;stroke-linecap:round;stroke-linejoin:round;stroke-miterlimit:22.9256;" d="
			M39.422,142.717c0,0,26.062-20.33,32.25-44.885"/>
		
			<path style="fill:none;stroke:#000000;stroke-width:8.5039;stroke-linecap:round;stroke-linejoin:round;stroke-miterlimit:22.9256;" d="
			M43.546,227.655c0,0-42.563-16.706-34.125-54.948"/>
		
			<path style="fill:none;stroke:#000000;stroke-width:8.5039;stroke-linecap:round;stroke-linejoin:round;stroke-miterlimit:22.9256;" d="
			M12.233,139.497c0.04,11.231,1.338,23.393-4.312,33.21"/>
		
			<path style="fill:none;stroke:#000000;stroke-width:8.5039;stroke-linecap:round;stroke-linejoin:round;stroke-miterlimit:22.9256;" d="
			M51.234,237.316c0.375-21.335-7.312-78.296,0.562-102.046"/>
		
			<path style="fill:none;stroke:#000000;stroke-width:8.5039;stroke-linecap:round;stroke-linejoin:round;stroke-miterlimit:22.9256;" d="
			M31.921,67.642c8.438-11.674,11.813-14.29,28.875-20.329c17.062-6.038,24.375-19.525,33-25.763"/>
		
			<path style="fill:none;stroke:#000000;stroke-width:8.5039;stroke-linecap:round;stroke-linejoin:round;stroke-miterlimit:22.9256;" d="
			M160.171,5.849c0,0-36.397-7.767-66.375,15.7"/>
		
			<path style="fill:none;stroke:#000000;stroke-width:8.5039;stroke-linecap:round;stroke-linejoin:round;stroke-miterlimit:22.9256;" d="
			M208.547,5.247c-21.001,5.837-11.25,6.641-48.376,0.603"/>
		
			<path style="fill:none;stroke:#000000;stroke-width:8.5039;stroke-linecap:round;stroke-linejoin:round;stroke-miterlimit:22.9256;" d="
			M256.547,24.166c0,0-20.062-25.159-48-18.92"/>
		
			<path style="fill:none;stroke:#000000;stroke-width:8.5039;stroke-linecap:round;stroke-linejoin:round;stroke-miterlimit:22.9256;" d="
			M69.609,57.175c0,0-8.25,66.018,64.125,59.577"/>
		
			<path style="fill:none;stroke:#000000;stroke-width:8.5039;stroke-linecap:round;stroke-linejoin:round;stroke-miterlimit:22.9256;" d="
			M189.609,118.162c0,0,85.688,11.271,92.625-52.935"/>
		
			<path style="fill:none;stroke:#000000;stroke-width:8.5039;stroke-linecap:round;stroke-linejoin:round;stroke-miterlimit:22.9256;" d="
			M297.422,78.108c11.812,5.636,4.003,59.688-56.874,35.681"/>
		
			<path style="fill:none;stroke:#000000;stroke-width:8.5039;stroke-linecap:round;stroke-linejoin:round;stroke-miterlimit:22.9256;" d="
			M133.734,116.753c13.016-1.175,20.063-3.02,55.876,1.409"/>
		
			<path style="fill:none;stroke:#000000;stroke-width:8.5039;stroke-linecap:round;stroke-linejoin:round;stroke-miterlimit:22.9256;" d="
			M91.546,55.766c6.26,0.393,8.25-1.811,30.001,12.68"/>
		
			<path style="fill:none;stroke:#000000;stroke-width:8.5039;stroke-linecap:round;stroke-linejoin:round;stroke-miterlimit:22.9256;" d="
			M176.484,55.766c-3.2,3.587-24.188,31.6-54.938,12.68"/>
		
			<path style="fill:none;stroke:#000000;stroke-width:8.5039;stroke-linecap:round;stroke-linejoin:round;stroke-miterlimit:22.9256;" d="
			M222.984,26.783c-6.957-0.454-21.564-4.832-46.5,28.984"/>
		
			<path style="fill:none;stroke:#000000;stroke-width:8.5039;stroke-linecap:round;stroke-linejoin:round;stroke-miterlimit:22.9256;" d="
			M115.63,89.161c13.688,0,21.752,4.206,37.123,10.25c15.37,6.043,78.497,13.805,92.935-45.571"/>
		
			<path style="fill:none;stroke:#000000;stroke-width:8.5039;stroke-linecap:round;stroke-linejoin:round;stroke-miterlimit:22.9256;" d="
			M268.734,125.005c30.562,22.744,19.875,73.264,15.375,111.909"/>
		
			<path style="fill:none;stroke:#000000;stroke-width:8.5039;stroke-linecap:round;stroke-linejoin:round;stroke-miterlimit:22.9256;" d="
			M323.672,171.902c0,0-27.972,13.142-36.486-16.878"/>
		
			<path style="fill:none;stroke:#000000;stroke-width:8.5039;stroke-linecap:round;stroke-linejoin:round;stroke-miterlimit:22.9256;" d="
			M303.609,210.748c0,0-7.875,3.422-12.938-8.051"/>
		
			<path style="fill:none;stroke:#000000;stroke-width:8.5039;stroke-linecap:round;stroke-linejoin:round;stroke-miterlimit:22.9256;" d="
			M286.922,238.121c17.438-2.012,16.232-8.599,31.397-18.394c12.474-8.056,20.726-18.602,17.915-34.139"/>
		
			<path style="fill:none;stroke:#000000;stroke-width:8.5039;stroke-linecap:round;stroke-linejoin:round;stroke-miterlimit:22.9256;" d="
			M317.672,101.858c0,0,48,35.424,12.375,82.12"/>
		
			<path style="fill:none;stroke:#000000;stroke-width:8.5039;stroke-linecap:round;stroke-linejoin:round;stroke-miterlimit:22.9256;" d="
			M286.734,59.389c0,0,30.75,0.805,30.938,42.469"/>
		
			<path style="fill:none;stroke:#000000;stroke-width:8.5039;stroke-linecap:round;stroke-linejoin:round;stroke-miterlimit:22.9256;" d="
			M256.547,24.166c3.733,4.339,4.842,8.447,14.953,13.098c7.483,3.443,13.353,12.183,15.235,22.125"/>
	</g>
</g>
<g id="n2003">
	<g>
		<polygon style="fill:#E186AE;" points="148.903,365.361 150.424,355.101 152.318,330.261 156.117,320.185 162.837,313.937 
			171.077,312.044 179.4,314.332 185.465,317.49 188.727,321.548 184.902,326.585 181.394,328.918 181.81,335.565 182.357,355.518 
			181.422,360.22 172.139,358.167 162.368,360.058 155.551,363.707 		"/>
		
			<path style="fill:none;stroke:#000000;stroke-width:8.5039;stroke-linecap:round;stroke-linejoin:round;stroke-miterlimit:22.9256;" d="
			M148.581,366.763c3.84-15.474,0.211-55.55,24.524-54.716"/>
		
			<path style="fill:none;stroke:#000000;stroke-width:8.5039;stroke-linecap:round;stroke-linejoin:round;stroke-miterlimit:22.9256;" d="
			M168.677,330.651c7.768,0.958,40.224-9.441,6.179-18.604"/>
		
			<path style="fill:none;stroke:#000000;stroke-width:8.5039;stroke-linecap:round;stroke-linejoin:round;stroke-miterlimit:22.9256;" d="
			M182.83,360.895c0,0-0.783-20.383-1.479-32.732"/>
	</g>
</g>
<g id="n2004">
	<g>
		<g>
			<g>
				<path style="fill:#E186AE;" d="M297.094,293.503l-1.914-12.757l-6.244-12.478l-10.253-11.382l-16.778-8.746l-13.579-3.439
					l-18.621-0.976l-15.469,1.304l-13.075,2.507l-13.636,3.592l-14.978,2.223l-15.639,0.271l-12.958-1.541l-8.61-1.921l-7.922-2.272
					l-11.983-1.072l-11.374-0.971l-13.029,0.973l-13.648,5.225l-13.1,5.969l-10.613,9.652l-5.517,8.701l-3.75,9.211l-2.907,13.205
					l-0.143,15.013l1.781,9.909l4.746,13.285l7.361,12.989l7.495,9.816l11.099,11.347l11.709,8.855l12.369,7.203l13.008,6.184
					l14.116,5.189l15.978,4.061l16.486,2.271l14.814,0.444l16.164-1.195l15.849-2.855l16.118-4.645l16.078-6.508l13.254-7.071
					l12.891-9.175l11.42-10.98l8.436-11.124l8.228-16.1l4.657-15.982l1.719-13.327L297.094,293.503z M254.638,348.379
					c-25.667,20.333-75,42.667-155.667,13c0,0-32.333-14.667-34.667-36.667c-2.333-22-2-45.333,17.667-53s47.333-0.667,65.667-0.667
					s70-2.333,83.333-4.667c13.333-2.333,28.667-2.333,37,17.667C276.305,304.045,280.305,328.045,254.638,348.379z"/>
				<polygon style="fill:#FFFFFF;" points="86.679,352.503 90.18,347.314 95.356,339.998 100.714,333.185 106.916,329.465 
					113.445,330.082 117.821,332.557 120.684,337.748 128.032,339.856 132.789,345.251 134.863,348.764 143.638,346.632 
					152.247,349.689 158.506,353.514 165.629,347.131 175.265,342.823 184.134,344.73 190.14,348.734 193.231,352.451 
					199.243,347.433 206.508,343.993 214.359,343.772 220.509,338.251 227.455,332.892 232.007,332.677 238.983,325.428 
					245.516,325.372 252.418,329.305 257.031,333.911 263.814,338.64 256.344,347.728 246.922,356.007 233.329,364.238 
					214.968,371.106 199.542,374.372 182.093,376.061 164.991,376.096 152.679,375.351 134.078,372.759 119.588,369.149 
					106.516,364.273 96.56,359.174 				"/>
				<path style="fill:#61F4E5;" d="M89.022,271.358l9.708-2.135l13.596-0.239l13.453,0.791l18.734,2.296l15.563,0.754l17.053-0.419
					l9.22-0.893l17.586-2.388l11.279-1.584l11.846-1.39l11.967,0.488l2.139,6.235l1.072,7.578l-1.58,7.312l-3.459,5.58l-6.123,3.31
					l-10.026-1.079l-4.018,4.789l-8.591,2.073l-7.577-2.349l-5.549-3.152l-6.093,5.227c0,0-10.034,1.02-9.098,1.155
					c0.937,0.134-7.94-3.023-7.94-3.023l-7.186-5.254l-9.306,5.341l-10.608-0.2l-7.775-3.755l-3.762-2.901l-6.903,3.733
					l-6.749,1.024l-5.664-2.081l-2.713-2.43l-5.877,3.324l-7.062-3.92l-5.308-5.381l-3.74-8.314L89.022,271.358L89.022,271.358z"/>
				
					<path style="fill:none;stroke:#000000;stroke-width:8.5039;stroke-linecap:round;stroke-linejoin:round;stroke-miterlimit:22.9256;" d="
					M89.022,271.358c0,0-2.343,27.253,20.685,24.553"/>
				
					<path style="fill:none;stroke:#000000;stroke-width:8.5039;stroke-linecap:round;stroke-linejoin:round;stroke-miterlimit:22.9256;" d="
					M104.748,278.179c0,0,4.926,32.021,28.8,15.347"/>
				
					<path style="fill:none;stroke:#000000;stroke-width:8.5039;stroke-linecap:round;stroke-linejoin:round;stroke-miterlimit:22.9256;" d="
					M164.999,295.042c0,0-13.073,14.4-31.452-1.516"/>
				
					<path style="fill:none;stroke:#000000;stroke-width:8.5039;stroke-linecap:round;stroke-linejoin:round;stroke-miterlimit:22.9256;" d="
					M195.315,296.936c0,0-9.852,16.105-30.316-1.895"/>
				
					<path style="fill:none;stroke:#000000;stroke-width:8.5039;stroke-linecap:round;stroke-linejoin:round;stroke-miterlimit:22.9256;" d="
					M224.494,281.968c0,0-0.758,33.536-29.179,14.968"/>
				
					<path style="fill:none;stroke:#000000;stroke-width:8.5039;stroke-linecap:round;stroke-linejoin:round;stroke-miterlimit:22.9256;" d="
					M242.239,268.698c2.654,2.463,1.327,34.609-21.188,26.876"/>
				
					<path style="fill:none;stroke:#000000;stroke-width:8.5039;stroke-linecap:round;stroke-linejoin:round;stroke-miterlimit:22.9256;" d="
					M89.211,348.283c3.092-10.68,13.825-25.234,29.741-13.676"/>
				
					<path style="fill:none;stroke:#000000;stroke-width:8.5039;stroke-linecap:round;stroke-linejoin:round;stroke-miterlimit:22.9256;" d="
					M105.316,353.399c0,0,13.642-29.179,27.473-8.147"/>
				
					<path style="fill:none;stroke:#000000;stroke-width:8.5039;stroke-linecap:round;stroke-linejoin:round;stroke-miterlimit:22.9256;" d="
					M157.8,354.346c0,0-16.484-19.326-31.452,3.032"/>
				
					<path style="fill:none;stroke:#000000;stroke-width:8.5039;stroke-linecap:round;stroke-linejoin:round;stroke-miterlimit:22.9256;" d="
					M193.231,352.451c0,0-14.589-23.115-35.432,1.895"/>
				
					<path style="fill:none;stroke:#000000;stroke-width:8.5039;stroke-linecap:round;stroke-linejoin:round;stroke-miterlimit:22.9256;" d="
					M231.315,359.462c0,0-14.02-30.884-38.084-7.01"/>
				
					<path style="fill:none;stroke:#000000;stroke-width:8.5039;stroke-linecap:round;stroke-linejoin:round;stroke-miterlimit:22.9256;" d="
					M214.359,343.772c7.389-2.653,12.598-25.805,33.819,2.995"/>
				
					<path style="fill:none;stroke:#000000;stroke-width:8.5039;stroke-linecap:round;stroke-linejoin:round;stroke-miterlimit:22.9256;" d="
					M261.252,337.095c0,0-15.497-24.86-30.037-4.556"/>
				
					<path style="fill:none;stroke:#000000;stroke-width:8.5039;stroke-linecap:round;stroke-linejoin:round;stroke-miterlimit:22.9256;" d="
					M130.93,247.058c-20.842,0.189-32.035-7.557-58.06,4.375c-15.568,7.138-28.985,21.251-32.105,48.13"/>
				
					<path style="fill:none;stroke:#000000;stroke-width:8.5039;stroke-linecap:round;stroke-linejoin:round;stroke-miterlimit:22.9256;" d="
					M191.914,249.014c0,0,82.659-27.325,102.744,30.843"/>
				
					<path style="fill:none;stroke:#000000;stroke-width:8.5039;stroke-linecap:round;stroke-linejoin:round;stroke-miterlimit:22.9256;" d="
					M80.599,375.855c0,0-44.336-30.885-39.978-76.737"/>
				
					<path style="fill:none;stroke:#000000;stroke-width:8.5039;stroke-linecap:round;stroke-linejoin:round;stroke-miterlimit:22.9256;" d="
					M252.071,379.834c0,0-81.094,57.031-171.472-3.979"/>
				
					<path style="fill:none;stroke:#000000;stroke-width:8.5039;stroke-linecap:round;stroke-linejoin:round;stroke-miterlimit:22.9256;" d="
					M294.513,279.413c3.218,12.008,9.853,66.316-42.443,100.421"/>
				
					<path style="fill:none;stroke:#000000;stroke-width:8.5039;stroke-linecap:round;stroke-linejoin:round;stroke-miterlimit:22.9256;" d="
					M106.746,268.804c35.93,0.972,26.715,4.044,58.737,4.057c20.125,0.008,39.083-4.47,61.578-6.711"/>
				
					<path style="fill:none;stroke:#000000;stroke-width:8.5039;stroke-linecap:round;stroke-linejoin:round;stroke-miterlimit:22.9256;" d="
					M274.428,316.929c0,0,14.021-52.106-47.368-50.779"/>
				
					<path style="fill:none;stroke:#000000;stroke-width:8.5039;stroke-linecap:round;stroke-linejoin:round;stroke-miterlimit:22.9256;" d="
					M68.283,333.034c-7.404-10.983-15.16-64.338,38.463-64.231"/>
				
					<path style="fill:none;stroke:#000000;stroke-width:8.5039;stroke-linecap:round;stroke-linejoin:round;stroke-miterlimit:22.9256;" d="
					M274.428,316.929c-15.347,47.747-62.144,59.456-101.397,59.315c-40.922-0.146-81.283-9.246-104.748-43.21"/>
			</g>
			
				<path style="fill:none;stroke:#000000;stroke-width:8.5039;stroke-linecap:round;stroke-linejoin:round;stroke-miterlimit:22.9256;" d="
				M130.93,247.058c0,0,13.457,3.726,30.636,3.726s35.368-3.368,35.368-3.368"/>
		</g>
		<g>
			<polygon style="fill:#67559E;" points="139.302,251.369 131.447,245.536 127.77,236.763 131.481,226.796 141.017,218.868 
				149.079,214.294 159.028,209.533 166.845,209.108 173.324,211.565 180.768,215.924 186.899,220.523 191.899,225.911 
				196.826,232.621 198.64,238.65 197.104,243.722 191.531,248.952 181.761,251.578 168.282,253.424 154.168,254.294 			"/>
			
				<path style="fill:none;stroke:#000000;stroke-width:8.5039;stroke-linecap:round;stroke-linejoin:round;stroke-miterlimit:22.9256;" d="
				M179.079,252.014c7.143-0.984,16.289-3.586,18.929-9.989c1.112-2.699,1.217-6.03-3.436-13.352
				c-4.652-7.322-19.231-17.611-27.727-19.565c0,0-3.946-0.802-7.817,0.425c-8.071,2.464-20.362,9.809-26.253,15.803
				c-5.891,5.993-5.615,13.555-4.074,17.567c3.162,8.23,11.217,8.801,18.093,9.537"/>
			
				<path style="fill:none;stroke:#000000;stroke-width:8.5039;stroke-linecap:round;stroke-linejoin:round;stroke-miterlimit:22.9256;" d="
				M148.323,234.851c-0.41,4.935-4.334,9.006-1.954,10.196C148.748,246.237,150.532,239.1,148.323,234.851L148.323,234.851z"/>
			
				<path style="fill:none;stroke:#000000;stroke-width:8.5039;stroke-linecap:round;stroke-linejoin:round;stroke-miterlimit:22.9256;" d="
				M174.252,236.093c5.581,3.244,8.921,10.487,6.084,11.575C177.329,248.819,175.553,242.509,174.252,236.093L174.252,236.093z"/>
			
				<path style="fill:none;stroke:#000000;stroke-width:8.5039;stroke-linecap:round;stroke-linejoin:round;stroke-miterlimit:22.9256;" d="
				M146.793,252.439c0,0,13.861,3.059,32.286-0.425"/>
		</g>
		
			<path style="fill:none;stroke:#000000;stroke-width:8.5039;stroke-linecap:round;stroke-linejoin:round;stroke-miterlimit:22.9256;" d="
			M139.603,196.513c0,0,19.368-13.79,42.226-0.96"/>
	</g>
</g>
</svg>
