<svg xmlns="http://www.w3.org/2000/svg" xmlns:xlink="http://www.w3.org/1999/xlink" viewBox="0 0 309.345 577.769"><g id="n2101"><g><g><path fill-rule="evenodd" clip-rule="evenodd" fill="#61f4e5" d="M97.204 457.77l5.825 7.776 5.035 8.925 5.545 11.253 3.193 10.524 12.77-3.416 12.438-7.256 9.667-10.89 7.124-.938 7.753-1.173 8.705 3.08 10.635 6.763 10.353 6.974 7.725 4.102 6.142-10.604 8.671-14.027 7.874-7.324 14.644 10.517 12.82 10.477 12.086 11.148 13.163 14.449 9.398 13.599 5.782 13.708-13.442 8.369-20.456 9.355-24.493 8.88-26.801 6.83-23.71 3.521-23.101 1.126-27.03-1.642-23.37-4.103-17.663-5.9-22.431-7.568-19.218-9.956-18.723-13.975 5.472-9.232 9.618-13.673 12.231-14.809 11.419-12.242 12.538-12.195 11.812-10.453z"/><path d="M133.489 367.685s27.565-12.749 57.001-.938c-.25 8.248-.465 29.364-.465 29.364l-.005 11.922.867 10.827 5.415 15.325-6.706 10.441-11.376 10.06-11.687 5.518-7.972 1.611-12.15-6.397-12.74-10.534-9.369-14.074 4.443-9.135 3.851-13.131s2.561-14.094 1.569-14.111c-.993-.019-.676-26.748-.676-26.748z" fill-rule="evenodd" clip-rule="evenodd" fill="#f9d740"/><path fill-rule="evenodd" clip-rule="evenodd" fill="#67559e" d="M91.676 447.311l10.112-8.237 6.714-11.77 2.071-6.837 9.335-8.639 12.688-3.283-2.636 9.839-5.658 12.427 4.411 8.694 11.327 10.648 16.238 10.463 6.269.395 12.956-5.04 12.095-9.097 8.704-12.688-3.815-10.799-2.083-10.564 10.387 3.347 8.636 6.953 4.539 10.098 6.373 8.381 10.275 10.396-5.61 8.993-10.153 13.736-9.924 18.896-12.133-6.556-13.398-8.93-12.842-5.562-14.877 2.111-8.167 9.633-13.938 8.513-12.77 3.416-5.966-16.15-6.789-12.748-6.087-10.205-6.284-9.834z"/><path d="M91.676 447.311s16.125-8.25 18-25.688m21.563-13.5s-10.688-.938-21.563 13.5m23.813-53.938s4.5 39.688-9.187 63.126m35.25 31.125c-7.688-.188-35.25-21.938-35.25-31.125m72 3.375s-9.375 22.875-36.75 27.75m30.937-95.189c-.371 17.43-2.626 56.563 5.812 67.438m-44.624 40.501s-9.375 17.812-34.875 21.562m-25.126-48.937s24.375 36.562 25.125 48.938m49.501-23.625c6.938-1.688 32.999 21.188 38.625 20.999m26.437-39s-14.438 11.439-26.438 39m4.501-70.5s.937 10.5 21.188 28.875m-40.357-39.183s10.355.371 19.169 10.309M97.96 457.145s-43.033 34.979-63.846 73.23m124.687-56.627s8.626 39.939 1.876 60.751m8.625.938s-6.188.188-8.625-.938m-126.563-4.125c2.438 5.438 107.812 88.124 255.188 9.186m-62.626-77.999c-1.217-1.086 58.688 38.438 67.876 73.876" fill="none" stroke="#000" stroke-width="8.504" stroke-linecap="round" stroke-linejoin="round" stroke-miterlimit="22.926"/></g><g><path fill-rule="evenodd" clip-rule="evenodd" d="M219.63 533.558l4.741 1.095 5.935-3.518 1.593-5.846-4.27-6.314-7.325.211-2.941 3.969-.333 5.495 2.6 4.908z"/><path d="M226.965 506.352c-2.72-.648-21.737-3.067-24.671 16.671m15.602 22.27c-2.801-.399-18.137-6.267-15.603-22.27m15.603 22.27s19.604 4.134 23.471-18.537m-14.402-20.404c3.723.837 15.603 6.268 14.403 20.404m-29.286-18.639c2.4 2 .102 14.423-9.578 13.664m21.493-15.818s2.173 8.239 12.862 6.491m-29.573 26.78c1.2-1.467 9.126-2.573 8.934 5.611m-5.814-26.507l6.957 4.817m11.739-11.449l-4.004 6.248m6.801 7.335l9.536.366m-12.737 7.102l6.154 7.756m-15.222-6.955l-5.272 5.957m3.005-16.36s1.467-5.468 7.735-5.201m6.801 7.335s.133-5.334-6.801-7.335m-5.468 15.604s-4.535-4.934-2.267-10.403m2.267 10.403s6.134 2.934 9.068-.801m3.201-7.468s-.155 5.683-3.201 7.468" fill="none" stroke="#000" stroke-width="8.504" stroke-linecap="round" stroke-linejoin="round" stroke-miterlimit="22.926"/></g></g></g><g id="n2102"><g><g><path fill-rule="evenodd" clip-rule="evenodd" fill="#67559e" d="M156.196 371.439l-110.24-31.911-8.62-101.071h118z"/><path fill-rule="evenodd" clip-rule="evenodd" fill="#67559e" d="M256.956 333.528l-102 38-.859-132.983h118z"/><g><path fill-rule="evenodd" clip-rule="evenodd" fill="#e186ae" d="M31.46 194.573l1.205 12.474 1.898 16.451 1.119 14.519-.094 9.136-4.74 10.919-1.725 10.326 5.314 2.975-4.257 9.565-2.322 8.431-1.059 6.157-6.961-1.442-6.268-4.835-1.214-7.985 1.316-7.014.056-5.945-3.542-15.657-4.994-23.1-.895-14.036 3.487-14.188 5.148-5.487 10.376-2.65 8.152 1.386z"/><path fill-rule="evenodd" clip-rule="evenodd" fill="#f9d740" d="M34.437 271.373l4.408-6.64 8.899-8.821 14.567-6.638 11.284-5.005 16.124-1.204 14.59 1.535 11.51.62 12.137 19.308 3 7-3-11 16-6 9.593-52.677 1.407 53.677 11 3h5l1 7 13.76-23.929.642 2.855 14.599-2.564 15.284-1.073 18.228 1.424 15.977 4.848 9.925 5.855 8.89 8.704 4.808 7.362 3.459-3.611-1.279-11.077-4.862-11.993-5.608-6.919 3.842-12.873 3.839-20.864 1.247-21.581-1.336-18.8-4.019-19.015-7.791-20.002-10.959-17.826-13.58-15.105-20.257-14.182-22.01-8.22-22.39-3.345-22.504-.019-19.302 1.74-21.05 4.262-19.743 7.203-14.791 8.47-14 11.927-12.493 16.669-8.342 16.563-5.567 16.865-2.608 13.898-1.045 13.197.426 18.653 1.918 19.223 1.859 18.509.512 11.828-1.406 6.996-3.381 8.491-1.678 9.229z"/><g><defs><path id="ac" d="M34.437 270.373l4.408-6.64 8.899-8.821 14.567-6.638 11.284-5.005 16.124-1.204 14.59 1.535 11.51.62 12.137 20.308 6-1 7-13 12 12 .593-61.677 9.407 67.677 10 3 1 3 3-6v4l9.402-29.074 14.599-2.564 15.284-1.073 18.228 1.424 15.977 4.848 9.925 5.855 8.89 8.704 4.808 7.362 3.459-3.611-1.279-11.077-4.862-11.993-5.608-6.919 3.842-12.873 3.839-20.864 1.247-21.581-1.336-18.8-4.019-19.015-7.791-20.002-10.959-17.826-13.58-15.105-20.257-14.182-22.01-8.22-22.39-3.345-22.504-.019-19.302 1.74-21.05 4.262-19.743 7.203-14.791 8.47-14 11.927-12.493 16.669-8.342 16.563-5.567 16.865-2.608 13.898-1.045 13.197.426 18.653 1.918 19.223 1.859 18.509.512 11.828-1.406 6.996-3.381 8.491-1.678 9.229 5.267 4.072z"/></defs><clipPath id="ad"><use xlink:href="#ac" overflow="visible"/></clipPath><path clip-path="url(#ad)" fill-rule="evenodd" clip-rule="evenodd" fill="#fff" d="M-22.556 15.861h176v317h-176z"/></g><path fill-rule="evenodd" clip-rule="evenodd" fill="#61f4e5" d="M273.742 196.79l8.396-2.707 10.385.661 7.95 5.088 4.27 10.734.233 8.885-2.137 13.558-2.59 9.514-3.093 10.664-2.51 12.241-.543 10.546 1.403 9.116-2.273 7.533-5.56 3.284-7.917.769-.528-9.768-1.891-10.241-1.539-9.462 2.514-5.556-2.525-9.154-4.4-10.166-5.608-6.919 3.842-12.873 1.92-10.432 1.71-9.297.491-6.018z"/><path d="M32.097 276.063s-10.385-51.375 52.151-51.541m133.501-2.625s63.375-6.75 59.625 49.126M53.499 106.022c15.375-20.625 41.995-39.189 93.019-42.261 29.439-1.771 70.645-.748 101.231 37.011m18.03 134.638s29.22-76.138-18.03-134.638M35.588 247.153c2.25-36.376-20.714-84.881 17.911-141.131m220.571 89.841s45.679-16.716 26.179 46.66m-5.625 36.375s-3.375-8.25 5.625-36.375m-20.25 53.624s19.875 3.75 14.625-17.249m-1.301-67.852s-15.949 19.102-3.574 34.477m-9 16.125c4.499-3.875 12.375-9.375 9-16.125M31.46 194.573s-38.993-14.207-23.618 48.23m18.749 54.375c-16.378-6.823-15.7-9.534-12.92-22.928 1.374-6.621-2.925-17.689-5.83-31.447m9.482-34.161c4.688 11.437 9.333 12.406 5.143 27.975m7.767 24.839s-19.7-7.465-7.767-24.839" fill="none" stroke="#000" stroke-width="8.504" stroke-linecap="round" stroke-linejoin="round" stroke-miterlimit="22.926"/><path fill-rule="evenodd" clip-rule="evenodd" fill="none" stroke="#000" stroke-width="8.504" stroke-linecap="round" stroke-linejoin="round" stroke-miterlimit="22.926" d="M150.444 67.861l3.105 133.99"/></g><g><path fill-rule="evenodd" clip-rule="evenodd" d="M88.469 162.246l7.059-4.18 4.749-1.694 2.185-8.54-.122-7.866-5.261-4.848-7.719.777-5.092 5.075-1.439 5.126-1.301 9.521-.938 17.087-.166 11.707.087 12.225.193 8.085 9.005-1.305 7.644-.656 3.985-.187.625-9.887-.922-7.929-6.554-6.831-7.286-6.535-1.349-6.996 2.617-2.149zm110.335 3.757l.433-11.066.754-10.838 2.251-7.191 6.945-3.746 8.82.753 4.593 4.437 1.119 5.729-.02 8.7-.33 4.595-6.598 2.758-5.281 3.679-4.662 4.278 3.477 6.251 4.852 3.853 5.325 4.337 1.999 3.304-.341 5.92-1.264 8.324-7.252.269-7.3.62-8.156 1.079.056-6.588.152-11.039.213-10.553.215-7.865z"/><path d="M75.641 123.476s15.12-22.601 35.576-17.411m82.715 0s23.303-9.542 44.826 17.411m-45.005 79.352s24.192-5.022 44.826-1.507m-169.698 6.194s15.476-5.19 38.601-5.022M84.268 140.97c1.245-4.52 12.095-10.547 17.788-1.841m-21.352 65.592s-1.772-50.861 3.564-63.751m16.009 15.402s4.183-11.243 1.779-17.243m-17.432 26.45s6.225-6.696 15.653-9.208m0 26.619c-4.981-5.357-15.831-11.049-15.653-17.411m16.714 36.994s1.963-14.561-1.061-19.583m100.503-43.527c2.135-7.199 18.321-10.379 22.235-.167m-24.847 62.752s.3-56.223 2.612-62.585m22.589 17.913s1.246-12.388-.355-18.08m-16.186 28.795s8.004-8.705 16.542-10.715m-.889 28.46c0-4.687-17.584-12.247-15.653-17.745m14.048 31.989s1.427-5.874 1.605-14.245" fill="none" stroke="#000" stroke-width="8.504" stroke-linecap="round" stroke-linejoin="round" stroke-miterlimit="22.926"/></g></g><g><path fill-rule="evenodd" clip-rule="evenodd" fill="#49b37e" d="M236.07 92.201l11.339-7.087 5.58-10.217 11.944.089 10.512 3.171 9.636 8.308 4.016 7.774 2.137 11.171-4.737 2.092 3.499 10.734 1.532 9.894.266 11.904-1.45 13.581-3.587 14.613-5.091 12.284-4.819 2.477-1.836-11.629-1.515-11.906-2.628-12.464-7.356-20.703-7.685-13.659-8.969-11.222-10.788-9.205z"/><path fill-rule="evenodd" clip-rule="evenodd" fill="#49b37e" d="M230.437 91.019l5.633 1.182 6.57-4.107 6.614-3.644 4.106-11.075 1.245-14.139-3.137-16.22-6.463-12.545-11.352-11.773-14.744-9.335-18.758-3.877-19.677-1.216-19.616 1.521-16.127 2.79-10.193 1.751-13.221 1.069-13.967 3.409-15.208 6.709-13.609 9.059-10.357 9.175-7.228 7.786-10.668.075-13.083 7.909-10.19 11.11-7.882 13.194-5.182 13.904-2.739 16.698.491 13.549 4.117 16.39 5.979 12.206 11.96 13.403 2.173-13.467 4.544-15.864 6.95-15.325 11.802-16.818L71.7 92.721l18.169-11.222 16.964-7.267 20.367-.235 21.57 3.301 20.773 5.746 20.413 5.508 15.293 2.482 11.6.622 13.588-.637z"/><path d="M72.562 80.894c78.938-22.688 96.562 16.125 157.875 10.125m-197.25 94.875s-8.085-89.05 77.239-111.932M59.062 46.207c-30.188-1.501-75.801 69.574-25.489 121.518m76.864-138.019c32.451-14.396 63.16 9.557 66.889 43.385.165 1.499.978 3.14 2.069 4.147m4.776-43.829c15.375 8.814 9.938 36.375 24 50.063m-170.25.375s30.562-74.813 99-73.5m110.625 76.875c18.75-27.187 6.375-105.188-110.625-76.875m154.313 95.063s.198-34.399-38.245-30.513m14.058 11.95c37.312 17.812 25.961 83.316 8.711 102.441m-3.274-76.753s8.812 3.562 16.312 28.125m-54.282-49.407s44.438 23.625 41.062 105.937" fill="none" stroke="#000" stroke-width="8.504" stroke-linecap="round" stroke-linejoin="round" stroke-miterlimit="22.926"/><path d="M142.265 18.691c2.001.762 4.783.535 7.127-.061 36.973-9.408 108.708-7.676 90.936 70.936" fill="none" stroke="#000" stroke-width="8.504" stroke-linecap="round" stroke-linejoin="round" stroke-miterlimit="22.926"/><path d="M160.077 30.691c5.625.375 74.783-25.431 65.533 48.38-.297 2.373 1.135 4.889 4.592 6.37m-70.5-13.313c-3-24-35.44-46.458-63.562-27.188-28.123 19.271-26.626 57-75.188 64.312" fill="none" stroke="#000" stroke-width="8.504" stroke-linecap="round" stroke-linejoin="round" stroke-miterlimit="22.926"/></g></g></g><g id="n2103"><g><path fill-rule="evenodd" clip-rule="evenodd" fill="#f9d740" d="M137.737 350.318l1.351-11.085 1.682-21.435 3.374-10.887 5.966-6.751 7.316-2.045 7.391 2.472 5.385 3.412 2.896 4.384-3.397 5.443-3.114 2.52.369 7.182.485 16.156-.829 5.079-8.242-2.217-8.677 2.042-6.053 3.943-5.903 1.787z"/><path d="M137.452 351.833c3.41-16.719.187-54.615 21.775-53.715m-6.179 20.101c7.768 1.035 40.224-10.2 6.179-20.101m8.635 47.375s-.696-16.62-1.313-29.962" fill="none" stroke="#000" stroke-width="8.504" stroke-linecap="round" stroke-linejoin="round" stroke-miterlimit="22.926"/></g></g><g id="n2104"><g><g><g><path d="M282.459 285.581l-1.914-12.757-6.244-12.478-10.253-11.382-16.778-8.746-13.579-3.439-18.621-.976-15.469 1.304-13.075 2.507-13.636 3.592-14.978 2.223-15.639.271-12.958-1.541-8.61-1.921-7.922-2.272-11.983-1.072-11.374-.971-13.029.973-13.648 5.225-13.1 5.969-10.613 9.652-5.517 8.701-3.75 9.211-2.907 13.205-.143 15.013 1.781 9.909 4.746 13.285 7.361 12.989 7.495 9.816 11.099 11.347 11.709 8.855 12.369 7.203 13.008 6.184 14.116 5.189 15.978 4.061 16.486 2.271 14.814.444 16.164-1.195 15.849-2.855 16.118-4.645 16.078-6.508 13.254-7.071 12.891-9.175 11.42-10.98 8.436-11.124 8.228-16.1 4.657-15.982 1.719-13.327-.036-12.882zm-42.456 54.876c-25.667 20.333-75 42.667-155.667 13 0 0-32.333-14.667-34.667-36.667-2.333-22-2-45.333 17.667-53 19.667-7.667 47.333-.667 65.667-.667s70-2.333 83.333-4.667c13.333-2.333 28.667-2.333 37 17.667 8.334 20 12.334 44-13.333 64.334z" fill-rule="evenodd" clip-rule="evenodd" fill="#df85ad"/><path fill-rule="evenodd" clip-rule="evenodd" fill="#fff" d="M72.044 344.581l3.501-5.189 5.176-7.317 5.358-6.812 6.202-3.72 6.529.617 4.377 2.475 2.863 5.191 7.347 2.108 4.758 5.395 2.073 3.512 8.775-2.131 8.609 3.057 6.259 3.825 7.123-6.383 9.636-4.308 8.869 1.907 6.007 4.004 3.091 3.717 6.011-5.018 7.265-3.44 7.852-.221 6.149-5.521 6.947-5.359 4.551-.215 6.976-7.249 6.534-.056 6.902 3.933 4.612 4.606 6.783 4.729-7.47 9.088-9.422 8.279-13.593 8.231-18.361 6.868-15.426 3.266-17.449 1.689-17.102.035-12.311-.745-18.601-2.592-14.491-3.61-13.072-4.877-9.956-5.098-9.881-6.671z"/><path d="M74.387 263.436l9.708-2.135 13.596-.239 13.453.791 18.734 2.296 15.563.754 17.053-.419 9.22-.893 17.586-2.388 11.279-1.584 11.846-1.39 11.967.488 2.139 6.235 1.072 7.578-1.58 7.312-3.459 5.58-6.123 3.31-10.026-1.079-4.018 4.789-8.591 2.073-7.577-2.349-5.549-3.152-6.093 5.227s-10.034 1.02-9.098 1.155c.937.134-7.94-3.023-7.94-3.023l-7.186-5.254-9.306 5.341-10.608-.2-7.775-3.755-3.762-2.901-6.903 3.733-6.749 1.024-5.664-2.081-2.713-2.43-5.877 3.324-7.062-3.92-5.308-5.381-3.74-8.314-.509-8.123z" fill-rule="evenodd" clip-rule="evenodd" fill="#61f4e5"/><path d="M74.387 263.436s-2.343 27.253 20.685 24.553m-4.959-17.732s4.926 32.021 28.8 15.347m31.451 1.515s-13.073 14.4-31.452-1.516m61.769 3.411s-9.852 16.105-30.316-1.895m59.494-13.073s-.758 33.536-29.179 14.968m46.924-28.238c2.654 2.463 1.327 34.609-21.188 26.876m-131.84 52.709c3.092-10.68 13.825-25.234 29.741-13.676m-13.636 18.792s13.642-29.179 27.473-8.147m25.011 9.094s-16.484-19.326-31.452 3.032m66.884-4.927s-14.589-23.115-35.432 1.895m73.515 5.116s-14.02-30.884-38.084-7.01m21.129-8.68c7.389-2.653 12.598-25.805 33.819 2.995m13.074-9.672s-15.497-24.86-30.037-4.556" fill="none" stroke="#000" stroke-width="8.504" stroke-linecap="round" stroke-linejoin="round" stroke-miterlimit="22.926"/><path d="M116.296 239.136c-20.842.189-32.035-7.557-58.06 4.375-15.568 7.138-28.985 21.251-32.105 48.13m151.149-50.549s82.659-27.325 102.744 30.843m-214.06 95.998s-44.336-30.885-39.978-76.737m211.45 80.716s-81.094 57.031-171.472-3.979m213.915-96.442c3.218 12.008 9.853 66.316-42.443 100.421M92.111 260.882c35.93.972 26.715 4.044 58.737 4.057 20.125.008 39.083-4.47 61.578-6.711m47.368 50.779s14.021-52.106-47.368-50.779M53.649 325.112c-7.404-10.983-15.16-64.338 38.463-64.231" fill="none" stroke="#000" stroke-width="8.504" stroke-linecap="round" stroke-linejoin="round" stroke-miterlimit="22.926"/><path d="M259.794 309.007c-15.347 47.747-62.144 59.456-101.397 59.315-40.922-.146-81.283-9.246-104.748-43.21" fill="none" stroke="#000" stroke-width="8.504" stroke-linecap="round" stroke-linejoin="round" stroke-miterlimit="22.926"/></g><path d="M116.296 239.136s13.457 3.726 30.636 3.726 35.368-3.368 35.368-3.368" fill-rule="evenodd" clip-rule="evenodd" fill="none" stroke="#000" stroke-width="8.504" stroke-linecap="round" stroke-linejoin="round" stroke-miterlimit="22.926"/></g><g><path fill-rule="evenodd" clip-rule="evenodd" fill="#67559e" d="M124.667 243.447l-7.855-5.833-3.676-8.774 3.71-9.966 9.536-7.928 8.062-4.574 9.949-4.761 7.817-.425 6.479 2.457 7.444 4.359 6.131 4.599 5.001 5.388 4.926 6.71 1.815 6.029-1.537 5.072-5.573 5.23-9.77 2.626-13.479 1.846-14.113.87-14.867-2.925z"/><path d="M164.444 244.092c7.143-.984 16.289-3.586 18.929-9.989 1.112-2.699 1.217-6.03-3.436-13.352-4.652-7.322-19.231-17.611-27.727-19.565 0 0-3.946-.802-7.817.425-8.071 2.464-20.362 9.809-26.253 15.803-5.891 5.993-5.615 13.555-4.074 17.567 3.162 8.23 11.217 8.801 18.093 9.537" fill="none" stroke="#000" stroke-width="8.504" stroke-linecap="round" stroke-linejoin="round" stroke-miterlimit="22.926"/><path d="M133.688 226.929c-.41 4.935-4.334 9.006-1.954 10.196 2.379 1.19 4.163-5.947 1.954-10.196zm25.93 1.242c5.581 3.244 8.921 10.487 6.084 11.575-3.007 1.151-4.784-5.159-6.084-11.575zm-27.459 16.346s13.861 3.059 32.286-.425" fill="none" stroke="#000" stroke-width="8.504" stroke-linecap="round" stroke-linejoin="round" stroke-miterlimit="22.926"/></g><path d="M126.415 194.814s19.368-13.79 42.226-.96" fill="none" stroke="#000" stroke-width="8.504" stroke-linecap="round" stroke-linejoin="round" stroke-miterlimit="22.926"/></g></g></svg>