<?xml version="1.0" encoding="utf-8"?>
<!-- Generator: Adobe Illustrator 19.2.1, SVG Export Plug-In . SVG Version: 6.00 Build 0)  -->
<svg version="1.1" xmlns="http://www.w3.org/2000/svg" xmlns:xlink="http://www.w3.org/1999/xlink" x="0px" y="0px"
	 viewBox="0 0 309.345 577.769" style="enable-background:new 0 0 309.345 577.769;" xml:space="preserve">
<g id="n2101">
	<g>
		<g>
			<polygon style="fill-rule:evenodd;clip-rule:evenodd;fill:#61F4E5;" points="97.204,457.77 103.029,465.546 108.064,474.471 
				113.609,485.724 116.802,496.248 129.572,492.832 142.01,485.576 151.677,474.686 158.801,473.748 166.554,472.575 
				175.259,475.655 185.894,482.418 196.247,489.392 203.972,493.494 210.114,482.89 218.785,468.863 226.659,461.539 
				241.303,472.056 254.123,482.533 266.209,493.681 279.372,508.13 288.77,521.729 294.552,535.437 281.11,543.806 
				260.654,553.161 236.161,562.041 209.36,568.871 185.65,572.392 162.549,573.518 135.519,571.876 112.149,567.773 
				94.486,561.873 72.055,554.305 52.837,544.349 34.114,530.374 39.586,521.142 49.204,507.469 61.435,492.66 72.854,480.418 
				85.392,468.223 97.204,457.77 			"/>
			<path style="fill-rule:evenodd;clip-rule:evenodd;fill:#F9D740;" d="M133.489,367.685c0,0,27.565-12.749,57.001-0.938
				c-0.25,8.248-0.465,29.364-0.465,29.364l-0.005,11.922l0.867,10.827l5.415,15.325l-6.706,10.441l-11.376,10.06l-11.687,5.518
				l-7.972,1.611l-12.15-6.397l-12.74-10.534l-9.369-14.074l4.443-9.135l3.851-13.131c0,0,2.561-14.094,1.569-14.111
				C133.172,394.414,133.489,367.685,133.489,367.685L133.489,367.685z"/>
			<polygon style="fill-rule:evenodd;clip-rule:evenodd;fill:#67559E;" points="91.676,447.311 101.788,439.074 108.502,427.304 
				110.573,420.467 119.908,411.828 132.596,408.545 129.96,418.384 124.302,430.811 128.713,439.505 140.04,450.153 
				156.278,460.616 162.547,461.011 175.503,455.971 187.598,446.874 196.302,434.186 192.487,423.387 190.404,412.823 
				200.791,416.17 209.427,423.123 213.966,433.221 220.339,441.602 230.614,451.998 225.004,460.991 214.851,474.727 
				204.927,493.623 192.794,487.067 179.396,478.137 166.554,472.575 151.677,474.686 143.51,484.319 129.572,492.832 
				116.802,496.248 110.836,480.098 104.047,467.35 97.96,457.145 91.676,447.311 			"/>
			
				<path style="fill:none;stroke:#000000;stroke-width:8.5039;stroke-linecap:round;stroke-linejoin:round;stroke-miterlimit:22.9256;" d="
				M91.676,447.311c0,0,16.125-8.25,18-25.688"/>
			
				<path style="fill:none;stroke:#000000;stroke-width:8.5039;stroke-linecap:round;stroke-linejoin:round;stroke-miterlimit:22.9256;" d="
				M131.239,408.123c0,0-10.688-0.938-21.563,13.5"/>
			
				<path style="fill:none;stroke:#000000;stroke-width:8.5039;stroke-linecap:round;stroke-linejoin:round;stroke-miterlimit:22.9256;" d="
				M133.489,367.685c0,0,4.5,39.688-9.187,63.126"/>
			
				<path style="fill:none;stroke:#000000;stroke-width:8.5039;stroke-linecap:round;stroke-linejoin:round;stroke-miterlimit:22.9256;" d="
				M159.552,461.936c-7.688-0.188-35.25-21.938-35.25-31.125"/>
			
				<path style="fill:none;stroke:#000000;stroke-width:8.5039;stroke-linecap:round;stroke-linejoin:round;stroke-miterlimit:22.9256;" d="
				M196.302,434.186c0,0-9.375,22.875-36.75,27.75"/>
			
				<path style="fill:none;stroke:#000000;stroke-width:8.5039;stroke-linecap:round;stroke-linejoin:round;stroke-miterlimit:22.9256;" d="
				M190.489,366.747c-0.371,17.43-2.626,56.563,5.812,67.438"/>
			
				<path style="fill:none;stroke:#000000;stroke-width:8.5039;stroke-linecap:round;stroke-linejoin:round;stroke-miterlimit:22.9256;" d="
				M151.677,474.686c0,0-9.375,17.812-34.875,21.562"/>
			
				<path style="fill:none;stroke:#000000;stroke-width:8.5039;stroke-linecap:round;stroke-linejoin:round;stroke-miterlimit:22.9256;" d="
				M91.676,447.311c0,0,24.375,36.562,25.125,48.938"/>
			
				<path style="fill:none;stroke:#000000;stroke-width:8.5039;stroke-linecap:round;stroke-linejoin:round;stroke-miterlimit:22.9256;" d="
				M166.302,472.624c6.938-1.688,32.999,21.188,38.625,20.999"/>
			
				<path style="fill:none;stroke:#000000;stroke-width:8.5039;stroke-linecap:round;stroke-linejoin:round;stroke-miterlimit:22.9256;" d="
				M231.364,454.623c0,0-14.438,11.439-26.438,39"/>
			
				<path style="fill:none;stroke:#000000;stroke-width:8.5039;stroke-linecap:round;stroke-linejoin:round;stroke-miterlimit:22.9256;" d="
				M209.427,423.123c0,0,0.937,10.5,21.188,28.875"/>
			
				<path style="fill:none;stroke:#000000;stroke-width:8.5039;stroke-linecap:round;stroke-linejoin:round;stroke-miterlimit:22.9256;" d="
				M190.258,412.815c0,0,10.355,0.371,19.169,10.309"/>
			
				<path style="fill:none;stroke:#000000;stroke-width:8.5039;stroke-linecap:round;stroke-linejoin:round;stroke-miterlimit:22.9256;" d="
				M97.96,457.145c0,0-43.033,34.979-63.846,73.23"/>
			
				<path style="fill:none;stroke:#000000;stroke-width:8.5039;stroke-linecap:round;stroke-linejoin:round;stroke-miterlimit:22.9256;" d="
				M158.801,473.748c0,0,8.626,39.939,1.876,60.751"/>
			
				<path style="fill:none;stroke:#000000;stroke-width:8.5039;stroke-linecap:round;stroke-linejoin:round;stroke-miterlimit:22.9256;" d="
				M169.302,535.437c0,0-6.188,0.188-8.625-0.938"/>
			
				<path style="fill:none;stroke:#000000;stroke-width:8.5039;stroke-linecap:round;stroke-linejoin:round;stroke-miterlimit:22.9256;" d="
				M34.114,530.374c2.438,5.438,107.812,88.124,255.188,9.186"/>
			
				<path style="fill:none;stroke:#000000;stroke-width:8.5039;stroke-linecap:round;stroke-linejoin:round;stroke-miterlimit:22.9256;" d="
				M226.676,461.561c-1.217-1.086,58.688,38.438,67.876,73.876"/>
		</g>
		<g>
			<polygon style="fill-rule:evenodd;clip-rule:evenodd;" points="219.63,533.558 224.371,534.653 230.306,531.135 231.899,525.289 
				227.629,518.975 220.304,519.186 217.363,523.155 217.03,528.65 219.63,533.558 			"/>
			
				<path style="fill:none;stroke:#000000;stroke-width:8.5039;stroke-linecap:round;stroke-linejoin:round;stroke-miterlimit:22.9256;" d="
				M226.965,506.352c-2.72-0.648-21.737-3.067-24.671,16.671"/>
			
				<path style="fill:none;stroke:#000000;stroke-width:8.5039;stroke-linecap:round;stroke-linejoin:round;stroke-miterlimit:22.9256;" d="
				M217.896,545.293c-2.801-0.399-18.137-6.267-15.603-22.27"/>
			
				<path style="fill:none;stroke:#000000;stroke-width:8.5039;stroke-linecap:round;stroke-linejoin:round;stroke-miterlimit:22.9256;" d="
				M217.896,545.293c0,0,19.604,4.134,23.471-18.537"/>
			
				<path style="fill:none;stroke:#000000;stroke-width:8.5039;stroke-linecap:round;stroke-linejoin:round;stroke-miterlimit:22.9256;" d="
				M226.965,506.352c3.723,0.837,15.603,6.268,14.403,20.404"/>
			
				<path style="fill:none;stroke:#000000;stroke-width:8.5039;stroke-linecap:round;stroke-linejoin:round;stroke-miterlimit:22.9256;" d="
				M212.082,508.117c2.4,2,0.102,14.423-9.578,13.664"/>
			
				<path style="fill:none;stroke:#000000;stroke-width:8.5039;stroke-linecap:round;stroke-linejoin:round;stroke-miterlimit:22.9256;" d="
				M223.997,505.963c0,0,2.173,8.239,12.862,6.491"/>
			
				<path style="fill:none;stroke:#000000;stroke-width:8.5039;stroke-linecap:round;stroke-linejoin:round;stroke-miterlimit:22.9256;" d="
				M207.286,539.234c1.2-1.467,9.126-2.573,8.934,5.611"/>
			
				<line style="fill:none;stroke:#000000;stroke-width:8.5039;stroke-linecap:round;stroke-linejoin:round;stroke-miterlimit:22.9256;" x1="210.406" y1="518.338" x2="217.363" y2="523.155"/>
			
				<line style="fill:none;stroke:#000000;stroke-width:8.5039;stroke-linecap:round;stroke-linejoin:round;stroke-miterlimit:22.9256;" x1="229.102" y1="511.706" x2="225.098" y2="517.954"/>
			
				<line style="fill:none;stroke:#000000;stroke-width:8.5039;stroke-linecap:round;stroke-linejoin:round;stroke-miterlimit:22.9256;" x1="231.899" y1="525.289" x2="241.435" y2="525.655"/>
			
				<line style="fill:none;stroke:#000000;stroke-width:8.5039;stroke-linecap:round;stroke-linejoin:round;stroke-miterlimit:22.9256;" x1="228.698" y1="532.757" x2="234.852" y2="540.513"/>
			
				<line style="fill:none;stroke:#000000;stroke-width:8.5039;stroke-linecap:round;stroke-linejoin:round;stroke-miterlimit:22.9256;" x1="219.63" y1="533.558" x2="214.358" y2="539.515"/>
			
				<path style="fill:none;stroke:#000000;stroke-width:8.5039;stroke-linecap:round;stroke-linejoin:round;stroke-miterlimit:22.9256;" d="
				M217.363,523.155c0,0,1.467-5.468,7.735-5.201"/>
			
				<path style="fill:none;stroke:#000000;stroke-width:8.5039;stroke-linecap:round;stroke-linejoin:round;stroke-miterlimit:22.9256;" d="
				M231.899,525.289c0,0,0.133-5.334-6.801-7.335"/>
			
				<path style="fill:none;stroke:#000000;stroke-width:8.5039;stroke-linecap:round;stroke-linejoin:round;stroke-miterlimit:22.9256;" d="
				M219.63,533.558c0,0-4.535-4.934-2.267-10.403"/>
			
				<path style="fill:none;stroke:#000000;stroke-width:8.5039;stroke-linecap:round;stroke-linejoin:round;stroke-miterlimit:22.9256;" d="
				M219.63,533.558c0,0,6.134,2.934,9.068-0.801"/>
			
				<path style="fill:none;stroke:#000000;stroke-width:8.5039;stroke-linecap:round;stroke-linejoin:round;stroke-miterlimit:22.9256;" d="
				M231.899,525.289c0,0-0.155,5.683-3.201,7.468"/>
		</g>
	</g>
</g>
<g id="n2102">
	<g>
		<g>
			<polygon style="fill-rule:evenodd;clip-rule:evenodd;fill:#67559E;" points="156.196,371.439 45.956,339.528 37.336,238.457 
				155.336,238.457 			"/>
			<polygon style="fill-rule:evenodd;clip-rule:evenodd;fill:#67559E;" points="256.956,333.528 154.956,371.528 154.097,238.545 
				272.097,238.545 			"/>
			<g>
				<polygon style="fill-rule:evenodd;clip-rule:evenodd;fill:#E186AE;" points="31.46,194.573 32.665,207.047 34.563,223.498 
					35.682,238.017 35.588,247.153 30.848,258.072 29.123,268.398 34.437,271.373 30.18,280.938 27.858,289.369 26.799,295.526 
					19.838,294.084 13.57,289.249 12.356,281.264 13.672,274.25 13.728,268.305 10.186,252.648 5.192,229.548 4.297,215.512 
					7.784,201.324 12.932,195.837 23.308,193.187 31.46,194.573 				"/>
				<polygon style="fill-rule:evenodd;clip-rule:evenodd;fill:#F9D740;" points="34.437,271.373 38.845,264.733 47.744,255.912 
					62.311,249.274 73.595,244.269 89.719,243.065 104.309,244.6 115.819,245.22 127.956,264.528 130.956,271.528 127.956,260.528 
					143.956,254.528 153.549,201.851 154.956,255.528 165.956,258.528 170.956,258.528 171.956,265.528 185.716,241.599 
					186.358,244.454 200.957,241.89 216.241,240.817 234.469,242.241 250.446,247.089 260.371,252.944 269.261,261.648 
					274.069,269.01 277.528,265.399 276.249,254.322 271.387,242.329 265.779,235.41 269.621,222.537 273.46,201.673 
					274.707,180.092 273.371,161.292 269.352,142.277 261.561,122.275 250.602,104.449 237.022,89.344 216.765,75.162 
					194.755,66.942 172.365,63.597 149.861,63.578 130.559,65.318 109.509,69.58 89.766,76.783 74.975,85.253 60.975,97.18 
					48.482,113.849 40.14,130.412 34.573,147.277 31.965,161.175 30.92,174.372 31.346,193.025 33.264,212.248 35.123,230.757 
					35.635,242.585 34.229,249.581 30.848,258.072 29.17,267.301 				"/>
				<g>
					<defs>
						<polygon id="SVGID_1_" points="34.437,270.373 38.845,263.733 47.744,254.912 62.311,248.274 73.595,243.269 89.719,242.065 
							104.309,243.6 115.819,244.22 127.956,264.528 133.956,263.528 140.956,250.528 152.956,262.528 153.549,200.851 
							162.956,268.528 172.956,271.528 173.956,274.528 176.956,268.528 176.956,272.528 186.358,243.454 200.957,240.89 
							216.241,239.817 234.469,241.241 250.446,246.089 260.371,251.944 269.261,260.648 274.069,268.01 277.528,264.399 
							276.249,253.322 271.387,241.329 265.779,234.41 269.621,221.537 273.46,200.673 274.707,179.092 273.371,160.292 
							269.352,141.277 261.561,121.275 250.602,103.449 237.022,88.344 216.765,74.162 194.755,65.942 172.365,62.597 
							149.861,62.578 130.559,64.318 109.509,68.58 89.766,75.783 74.975,84.253 60.975,96.18 48.482,112.849 40.14,129.412 
							34.573,146.277 31.965,160.175 30.92,173.372 31.346,192.025 33.264,211.248 35.123,229.757 35.635,241.585 34.229,248.581 
							30.848,257.072 29.17,266.301 34.437,270.373 						"/>
					</defs>
					<clipPath id="SVGID_2_">
						<use xlink:href="#SVGID_1_"  style="overflow:visible;"/>
					</clipPath>
					
						<rect x="-22.556" y="15.861" style="clip-path:url(#SVGID_2_);fill-rule:evenodd;clip-rule:evenodd;fill:#FFFFFF;" width="176" height="317"/>
				</g>
				<polygon style="fill-rule:evenodd;clip-rule:evenodd;fill:#61F4E5;" points="273.742,196.79 282.138,194.083 292.523,194.744 
					300.473,199.832 304.743,210.566 304.976,219.451 302.839,233.009 300.249,242.523 297.156,253.187 294.646,265.428 
					294.103,275.974 295.506,285.09 293.233,292.623 287.673,295.907 279.756,296.676 279.228,286.908 277.337,276.667 
					275.798,267.205 278.312,261.649 275.787,252.495 271.387,242.329 265.779,235.41 269.621,222.537 271.541,212.105 
					273.251,202.808 273.742,196.79 				"/>
				
					<path style="fill:none;stroke:#000000;stroke-width:8.5039;stroke-linecap:round;stroke-linejoin:round;stroke-miterlimit:22.9256;" d="
					M32.097,276.063c0,0-10.385-51.375,52.151-51.541"/>
				
					<path style="fill:none;stroke:#000000;stroke-width:8.5039;stroke-linecap:round;stroke-linejoin:round;stroke-miterlimit:22.9256;" d="
					M217.749,221.897c0,0,63.375-6.75,59.625,49.126"/>
				
					<path style="fill:none;stroke:#000000;stroke-width:8.5039;stroke-linecap:round;stroke-linejoin:round;stroke-miterlimit:22.9256;" d="
					M53.499,106.022c15.375-20.625,41.995-39.189,93.019-42.261c29.439-1.771,70.645-0.748,101.231,37.011"/>
				
					<path style="fill:none;stroke:#000000;stroke-width:8.5039;stroke-linecap:round;stroke-linejoin:round;stroke-miterlimit:22.9256;" d="
					M265.779,235.41c0,0,29.22-76.138-18.03-134.638"/>
				
					<path style="fill:none;stroke:#000000;stroke-width:8.5039;stroke-linecap:round;stroke-linejoin:round;stroke-miterlimit:22.9256;" d="
					M35.588,247.153c2.25-36.376-20.714-84.881,17.911-141.131"/>
				
					<path style="fill:none;stroke:#000000;stroke-width:8.5039;stroke-linecap:round;stroke-linejoin:round;stroke-miterlimit:22.9256;" d="
					M274.07,195.863c0,0,45.679-16.716,26.179,46.66"/>
				
					<path style="fill:none;stroke:#000000;stroke-width:8.5039;stroke-linecap:round;stroke-linejoin:round;stroke-miterlimit:22.9256;" d="
					M294.624,278.898c0,0-3.375-8.25,5.625-36.375"/>
				
					<path style="fill:none;stroke:#000000;stroke-width:8.5039;stroke-linecap:round;stroke-linejoin:round;stroke-miterlimit:22.9256;" d="
					M279.999,296.147c0,0,19.875,3.75,14.625-17.249"/>
				
					<path style="fill:none;stroke:#000000;stroke-width:8.5039;stroke-linecap:round;stroke-linejoin:round;stroke-miterlimit:22.9256;" d="
					M293.323,211.046c0,0-15.949,19.102-3.574,34.477"/>
				
					<path style="fill:none;stroke:#000000;stroke-width:8.5039;stroke-linecap:round;stroke-linejoin:round;stroke-miterlimit:22.9256;" d="
					M280.749,261.648c4.499-3.875,12.375-9.375,9-16.125"/>
				
					<path style="fill:none;stroke:#000000;stroke-width:8.5039;stroke-linecap:round;stroke-linejoin:round;stroke-miterlimit:22.9256;" d="
					M31.46,194.573c0,0-38.993-14.207-23.618,48.23"/>
				
					<path style="fill:none;stroke:#000000;stroke-width:8.5039;stroke-linecap:round;stroke-linejoin:round;stroke-miterlimit:22.9256;" d="
					M26.591,297.178c-16.378-6.823-15.7-9.534-12.92-22.928c1.374-6.621-2.925-17.689-5.83-31.447"/>
				
					<path style="fill:none;stroke:#000000;stroke-width:8.5039;stroke-linecap:round;stroke-linejoin:round;stroke-miterlimit:22.9256;" d="
					M17.323,208.642c4.688,11.437,9.333,12.406,5.143,27.975"/>
				
					<path style="fill:none;stroke:#000000;stroke-width:8.5039;stroke-linecap:round;stroke-linejoin:round;stroke-miterlimit:22.9256;" d="
					M30.233,261.456c0,0-19.7-7.465-7.767-24.839"/>
				
					<line style="fill-rule:evenodd;clip-rule:evenodd;fill:none;stroke:#000000;stroke-width:8.5039;stroke-linecap:round;stroke-linejoin:round;stroke-miterlimit:22.9256;" x1="150.444" y1="67.861" x2="153.549" y2="201.851"/>
			</g>
			<g>
				<polygon style="fill-rule:evenodd;clip-rule:evenodd;" points="88.469,162.246 95.528,158.066 100.277,156.372 102.462,147.832 
					102.34,139.966 97.079,135.118 89.36,135.895 84.268,140.97 82.829,146.096 81.528,155.617 80.59,172.704 80.424,184.411 
					80.511,196.636 80.704,204.721 89.709,203.416 97.353,202.76 101.338,202.573 101.963,192.686 101.041,184.757 94.487,177.926 
					87.201,171.391 85.852,164.395 88.469,162.246 				"/>
				<polygon style="fill-rule:evenodd;clip-rule:evenodd;" points="198.804,166.003 199.237,154.937 199.991,144.099 
					202.242,136.908 209.187,133.162 218.007,133.915 222.6,138.352 223.719,144.081 223.699,152.781 223.369,157.376 
					216.771,160.134 211.49,163.813 206.828,168.091 210.305,174.342 215.157,178.195 220.482,182.532 222.481,185.836 
					222.14,191.756 220.876,200.08 213.624,200.349 206.324,200.969 198.168,202.048 198.224,195.46 198.376,184.421 
					198.589,173.868 198.804,166.003 				"/>
				
					<path style="fill:none;stroke:#000000;stroke-width:8.5039;stroke-linecap:round;stroke-linejoin:round;stroke-miterlimit:22.9256;" d="
					M75.641,123.476c0,0,15.12-22.601,35.576-17.411"/>
				
					<path style="fill:none;stroke:#000000;stroke-width:8.5039;stroke-linecap:round;stroke-linejoin:round;stroke-miterlimit:22.9256;" d="
					M193.932,106.065c0,0,23.303-9.542,44.826,17.411"/>
				
					<path style="fill:none;stroke:#000000;stroke-width:8.5039;stroke-linecap:round;stroke-linejoin:round;stroke-miterlimit:22.9256;" d="
					M193.753,202.828c0,0,24.192-5.022,44.826-1.507"/>
				
					<path style="fill:none;stroke:#000000;stroke-width:8.5039;stroke-linecap:round;stroke-linejoin:round;stroke-miterlimit:22.9256;" d="
					M68.881,207.515c0,0,15.476-5.19,38.601-5.022"/>
				
					<path style="fill:none;stroke:#000000;stroke-width:8.5039;stroke-linecap:round;stroke-linejoin:round;stroke-miterlimit:22.9256;" d="
					M84.268,140.97c1.245-4.52,12.095-10.547,17.788-1.841"/>
				
					<path style="fill:none;stroke:#000000;stroke-width:8.5039;stroke-linecap:round;stroke-linejoin:round;stroke-miterlimit:22.9256;" d="
					M80.704,204.721c0,0-1.772-50.861,3.564-63.751"/>
				
					<path style="fill:none;stroke:#000000;stroke-width:8.5039;stroke-linecap:round;stroke-linejoin:round;stroke-miterlimit:22.9256;" d="
					M100.277,156.372c0,0,4.183-11.243,1.779-17.243"/>
				
					<path style="fill:none;stroke:#000000;stroke-width:8.5039;stroke-linecap:round;stroke-linejoin:round;stroke-miterlimit:22.9256;" d="
					M84.624,165.579c0,0,6.225-6.696,15.653-9.208"/>
				
					<path style="fill:none;stroke:#000000;stroke-width:8.5039;stroke-linecap:round;stroke-linejoin:round;stroke-miterlimit:22.9256;" d="
					M100.277,182.99c-4.981-5.357-15.831-11.049-15.653-17.411"/>
				
					<path style="fill:none;stroke:#000000;stroke-width:8.5039;stroke-linecap:round;stroke-linejoin:round;stroke-miterlimit:22.9256;" d="
					M101.338,202.573c0,0,1.963-14.561-1.061-19.583"/>
				
					<path style="fill:none;stroke:#000000;stroke-width:8.5039;stroke-linecap:round;stroke-linejoin:round;stroke-miterlimit:22.9256;" d="
					M200.78,139.463c2.135-7.199,18.321-10.379,22.235-0.167"/>
				
					<path style="fill:none;stroke:#000000;stroke-width:8.5039;stroke-linecap:round;stroke-linejoin:round;stroke-miterlimit:22.9256;" d="
					M198.168,202.048c0,0,0.3-56.223,2.612-62.585"/>
				
					<path style="fill:none;stroke:#000000;stroke-width:8.5039;stroke-linecap:round;stroke-linejoin:round;stroke-miterlimit:22.9256;" d="
					M223.369,157.376c0,0,1.246-12.388-0.355-18.08"/>
				
					<path style="fill:none;stroke:#000000;stroke-width:8.5039;stroke-linecap:round;stroke-linejoin:round;stroke-miterlimit:22.9256;" d="
					M206.828,168.091c0,0,8.004-8.705,16.542-10.715"/>
				
					<path style="fill:none;stroke:#000000;stroke-width:8.5039;stroke-linecap:round;stroke-linejoin:round;stroke-miterlimit:22.9256;" d="
					M222.481,185.836c0-4.687-17.584-12.247-15.653-17.745"/>
				
					<path style="fill:none;stroke:#000000;stroke-width:8.5039;stroke-linecap:round;stroke-linejoin:round;stroke-miterlimit:22.9256;" d="
					M220.876,200.08c0,0,1.427-5.874,1.605-14.245"/>
			</g>
		</g>
		<g>
			<polygon style="fill-rule:evenodd;clip-rule:evenodd;fill:#49B37E;" points="236.07,92.201 247.409,85.114 252.989,74.897 
				264.933,74.986 275.445,78.157 285.081,86.465 289.097,94.239 291.234,105.41 286.497,107.502 289.996,118.236 291.528,128.13 
				291.794,140.034 290.344,153.615 286.757,168.228 281.666,180.512 276.847,182.989 275.011,171.36 273.496,159.454 
				270.868,146.99 263.512,126.287 255.827,112.628 246.858,101.406 236.07,92.201 			"/>
			<polygon style="fill-rule:evenodd;clip-rule:evenodd;fill:#49B37E;" points="230.437,91.019 236.07,92.201 242.64,88.094 
				249.254,84.45 253.36,73.375 254.605,59.236 251.468,43.016 245.005,30.471 233.653,18.698 218.909,9.363 200.151,5.486 
				180.474,4.27 160.858,5.791 144.731,8.581 134.538,10.332 121.317,11.401 107.35,14.81 92.142,21.519 78.533,30.578 
				68.176,39.753 60.948,47.539 50.28,47.614 37.197,55.523 27.007,66.633 19.125,79.827 13.943,93.731 11.204,110.429 
				11.695,123.978 15.812,140.368 21.791,152.574 33.751,165.977 35.924,152.51 40.468,136.646 47.418,121.321 59.22,104.503 
				71.7,92.721 89.869,81.499 106.833,74.232 127.2,73.997 148.77,77.298 169.543,83.044 189.956,88.552 205.249,91.034 
				216.849,91.656 230.437,91.019 			"/>
			
				<path style="fill:none;stroke:#000000;stroke-width:8.5039;stroke-linecap:round;stroke-linejoin:round;stroke-miterlimit:22.9256;" d="
				M72.562,80.894c78.938-22.688,96.562,16.125,157.875,10.125"/>
			
				<path style="fill:none;stroke:#000000;stroke-width:8.5039;stroke-linecap:round;stroke-linejoin:round;stroke-miterlimit:22.9256;" d="
				M33.187,185.894c0,0-8.085-89.05,77.239-111.932"/>
			
				<path style="fill:none;stroke:#000000;stroke-width:8.5039;stroke-linecap:round;stroke-linejoin:round;stroke-miterlimit:22.9256;" d="
				M59.062,46.207c-30.188-1.501-75.801,69.574-25.489,121.518"/>
			
				<path style="fill:none;stroke:#000000;stroke-width:8.5039;stroke-linecap:round;stroke-linejoin:round;stroke-miterlimit:22.9256;" d="
				M110.437,29.706c32.451-14.396,63.16,9.557,66.889,43.385c0.165,1.499,0.978,3.14,2.069,4.147"/>
			
				<path style="fill:none;stroke:#000000;stroke-width:8.5039;stroke-linecap:round;stroke-linejoin:round;stroke-miterlimit:22.9256;" d="
				M184.171,33.409c15.375,8.814,9.938,36.375,24,50.063"/>
			
				<path style="fill:none;stroke:#000000;stroke-width:8.5039;stroke-linecap:round;stroke-linejoin:round;stroke-miterlimit:22.9256;" d="
				M37.921,83.847c0,0,30.562-74.813,99-73.5"/>
			
				<path style="fill:none;stroke:#000000;stroke-width:8.5039;stroke-linecap:round;stroke-linejoin:round;stroke-miterlimit:22.9256;" d="
				M247.546,87.222c18.75-27.187,6.375-105.188-110.625-76.875"/>
			
				<path style="fill:none;stroke:#000000;stroke-width:8.5039;stroke-linecap:round;stroke-linejoin:round;stroke-miterlimit:22.9256;" d="
				M291.234,105.41c0,0,0.198-34.399-38.245-30.513"/>
			
				<path style="fill:none;stroke:#000000;stroke-width:8.5039;stroke-linecap:round;stroke-linejoin:round;stroke-miterlimit:22.9256;" d="
				M267.047,86.847c37.312,17.812,25.961,83.316,8.711,102.441"/>
			
				<path style="fill:none;stroke:#000000;stroke-width:8.5039;stroke-linecap:round;stroke-linejoin:round;stroke-miterlimit:22.9256;" d="
				M272.484,112.535c0,0,8.812,3.562,16.312,28.125"/>
			
				<path style="fill:none;stroke:#000000;stroke-width:8.5039;stroke-linecap:round;stroke-linejoin:round;stroke-miterlimit:22.9256;" d="
				M234.514,91.253c0,0,44.438,23.625,41.062,105.937"/>
			
				<path style="fill:none;stroke:#000000;stroke-width:8.5039;stroke-linecap:round;stroke-linejoin:round;stroke-miterlimit:22.9256;" d="
				M142.265,18.691c2.001,0.762,4.783,0.535,7.127-0.061c36.973-9.408,108.708-7.676,90.936,70.936"/>
			
				<path style="fill:none;stroke:#000000;stroke-width:8.5039;stroke-linecap:round;stroke-linejoin:round;stroke-miterlimit:22.9256;" d="
				M160.077,30.691c5.625,0.375,74.783-25.431,65.533,48.38c-0.297,2.373,1.135,4.889,4.592,6.37"/>
			
				<path style="fill:none;stroke:#000000;stroke-width:8.5039;stroke-linecap:round;stroke-linejoin:round;stroke-miterlimit:22.9256;" d="
				M159.702,72.128c-3-24-35.44-46.458-63.562-27.188c-28.123,19.271-26.626,57-75.188,64.312"/>
		</g>
	</g>
</g>
<g id="n2103">
	<g>
		<polygon style="fill-rule:evenodd;clip-rule:evenodd;fill:#F9D740;" points="137.737,350.318 139.088,339.233 140.77,317.798 
			144.144,306.911 150.11,300.16 157.426,298.115 164.817,300.587 170.202,303.999 173.098,308.383 169.701,313.826 
			166.587,316.346 166.956,323.528 167.441,339.684 166.612,344.763 158.37,342.546 149.693,344.588 143.64,348.531 
			137.737,350.318 		"/>
		
			<path style="fill:none;stroke:#000000;stroke-width:8.5039;stroke-linecap:round;stroke-linejoin:round;stroke-miterlimit:22.9256;" d="
			M137.452,351.833c3.41-16.719,0.187-54.615,21.775-53.715"/>
		
			<path style="fill:none;stroke:#000000;stroke-width:8.5039;stroke-linecap:round;stroke-linejoin:round;stroke-miterlimit:22.9256;" d="
			M153.048,318.219c7.768,1.035,40.224-10.2,6.179-20.101"/>
		
			<path style="fill:none;stroke:#000000;stroke-width:8.5039;stroke-linecap:round;stroke-linejoin:round;stroke-miterlimit:22.9256;" d="
			M167.862,345.493c0,0-0.696-16.62-1.313-29.962"/>
	</g>
</g>
<g id="n2104">
	<g>
		<g>
			<g>
				<path style="fill-rule:evenodd;clip-rule:evenodd;fill:#DF85AD;" d="M282.459,285.581l-1.914-12.757l-6.244-12.478
					l-10.253-11.382l-16.778-8.746l-13.579-3.439l-18.621-0.976l-15.469,1.304l-13.075,2.507l-13.636,3.592l-14.978,2.223
					l-15.639,0.271l-12.958-1.541l-8.61-1.921l-7.922-2.272l-11.983-1.072l-11.374-0.971l-13.029,0.973l-13.648,5.225l-13.1,5.969
					l-10.613,9.652l-5.517,8.701l-3.75,9.211l-2.907,13.205l-0.143,15.013l1.781,9.909l4.746,13.285l7.361,12.989l7.495,9.816
					l11.099,11.347l11.709,8.855l12.369,7.203l13.008,6.184l14.116,5.189l15.978,4.061l16.486,2.271l14.814,0.444l16.164-1.195
					l15.849-2.855l16.118-4.645l16.078-6.508l13.254-7.071l12.891-9.175l11.42-10.98l8.436-11.124l8.228-16.1l4.657-15.982
					l1.719-13.327L282.459,285.581z M240.003,340.457c-25.667,20.333-75,42.667-155.667,13c0,0-32.333-14.667-34.667-36.667
					c-2.333-22-2-45.333,17.667-53c19.667-7.667,47.333-0.667,65.667-0.667s70-2.333,83.333-4.667
					c13.333-2.333,28.667-2.333,37,17.667C261.67,296.123,265.67,320.123,240.003,340.457z"/>
				<polygon style="fill-rule:evenodd;clip-rule:evenodd;fill:#FFFFFF;" points="72.044,344.581 75.545,339.392 80.721,332.075 
					86.079,325.263 92.281,321.543 98.81,322.16 103.187,324.635 106.05,329.826 113.397,331.934 118.155,337.329 120.228,340.841 
					129.003,338.71 137.612,341.767 143.871,345.592 150.994,339.209 160.63,334.901 169.499,336.808 175.506,340.812 
					178.597,344.529 184.608,339.511 191.873,336.071 199.725,335.85 205.874,330.329 212.821,324.97 217.372,324.755 
					224.348,317.506 230.882,317.45 237.784,321.383 242.396,325.989 249.179,330.718 241.709,339.806 232.287,348.085 
					218.694,356.316 200.333,363.184 184.907,366.45 167.458,368.139 150.356,368.174 138.045,367.429 119.444,364.837 
					104.953,361.227 91.881,356.35 81.925,351.252 72.044,344.581 				"/>
				<path style="fill-rule:evenodd;clip-rule:evenodd;fill:#61F4E5;" d="M74.387,263.436l9.708-2.135l13.596-0.239l13.453,0.791
					l18.734,2.296l15.563,0.754l17.053-0.419l9.22-0.893l17.586-2.388l11.279-1.584l11.846-1.39l11.967,0.488l2.139,6.235
					l1.072,7.578l-1.58,7.312l-3.459,5.58l-6.123,3.31l-10.026-1.079l-4.018,4.789l-8.591,2.073l-7.577-2.349l-5.549-3.152
					l-6.093,5.227c0,0-10.034,1.02-9.098,1.155c0.937,0.134-7.94-3.023-7.94-3.023l-7.186-5.254l-9.306,5.341l-10.608-0.2
					l-7.775-3.755l-3.762-2.901l-6.903,3.733l-6.749,1.024l-5.664-2.081l-2.713-2.43l-5.877,3.324l-7.062-3.92l-5.308-5.381
					l-3.74-8.314L74.387,263.436L74.387,263.436z"/>
				
					<path style="fill:none;stroke:#000000;stroke-width:8.5039;stroke-linecap:round;stroke-linejoin:round;stroke-miterlimit:22.9256;" d="
					M74.387,263.436c0,0-2.343,27.253,20.685,24.553"/>
				
					<path style="fill:none;stroke:#000000;stroke-width:8.5039;stroke-linecap:round;stroke-linejoin:round;stroke-miterlimit:22.9256;" d="
					M90.113,270.257c0,0,4.926,32.021,28.8,15.347"/>
				
					<path style="fill:none;stroke:#000000;stroke-width:8.5039;stroke-linecap:round;stroke-linejoin:round;stroke-miterlimit:22.9256;" d="
					M150.364,287.119c0,0-13.073,14.4-31.452-1.516"/>
				
					<path style="fill:none;stroke:#000000;stroke-width:8.5039;stroke-linecap:round;stroke-linejoin:round;stroke-miterlimit:22.9256;" d="
					M180.681,289.014c0,0-9.852,16.105-30.316-1.895"/>
				
					<path style="fill:none;stroke:#000000;stroke-width:8.5039;stroke-linecap:round;stroke-linejoin:round;stroke-miterlimit:22.9256;" d="
					M209.859,274.046c0,0-0.758,33.536-29.179,14.968"/>
				
					<path style="fill:none;stroke:#000000;stroke-width:8.5039;stroke-linecap:round;stroke-linejoin:round;stroke-miterlimit:22.9256;" d="
					M227.604,260.776c2.654,2.463,1.327,34.609-21.188,26.876"/>
				
					<path style="fill:none;stroke:#000000;stroke-width:8.5039;stroke-linecap:round;stroke-linejoin:round;stroke-miterlimit:22.9256;" d="
					M74.576,340.361c3.092-10.68,13.825-25.234,29.741-13.676"/>
				
					<path style="fill:none;stroke:#000000;stroke-width:8.5039;stroke-linecap:round;stroke-linejoin:round;stroke-miterlimit:22.9256;" d="
					M90.681,345.477c0,0,13.642-29.179,27.473-8.147"/>
				
					<path style="fill:none;stroke:#000000;stroke-width:8.5039;stroke-linecap:round;stroke-linejoin:round;stroke-miterlimit:22.9256;" d="
					M143.165,346.424c0,0-16.484-19.326-31.452,3.032"/>
				
					<path style="fill:none;stroke:#000000;stroke-width:8.5039;stroke-linecap:round;stroke-linejoin:round;stroke-miterlimit:22.9256;" d="
					M178.597,344.529c0,0-14.589-23.115-35.432,1.895"/>
				
					<path style="fill:none;stroke:#000000;stroke-width:8.5039;stroke-linecap:round;stroke-linejoin:round;stroke-miterlimit:22.9256;" d="
					M216.68,351.54c0,0-14.02-30.884-38.084-7.01"/>
				
					<path style="fill:none;stroke:#000000;stroke-width:8.5039;stroke-linecap:round;stroke-linejoin:round;stroke-miterlimit:22.9256;" d="
					M199.725,335.85c7.389-2.653,12.598-25.805,33.819,2.995"/>
				
					<path style="fill:none;stroke:#000000;stroke-width:8.5039;stroke-linecap:round;stroke-linejoin:round;stroke-miterlimit:22.9256;" d="
					M246.618,329.173c0,0-15.497-24.86-30.037-4.556"/>
				
					<path style="fill:none;stroke:#000000;stroke-width:8.5039;stroke-linecap:round;stroke-linejoin:round;stroke-miterlimit:22.9256;" d="
					M116.296,239.136c-20.842,0.189-32.035-7.557-58.06,4.375c-15.568,7.138-28.985,21.251-32.105,48.13"/>
				
					<path style="fill:none;stroke:#000000;stroke-width:8.5039;stroke-linecap:round;stroke-linejoin:round;stroke-miterlimit:22.9256;" d="
					M177.28,241.092c0,0,82.659-27.325,102.744,30.843"/>
				
					<path style="fill:none;stroke:#000000;stroke-width:8.5039;stroke-linecap:round;stroke-linejoin:round;stroke-miterlimit:22.9256;" d="
					M65.964,367.933c0,0-44.336-30.885-39.978-76.737"/>
				
					<path style="fill:none;stroke:#000000;stroke-width:8.5039;stroke-linecap:round;stroke-linejoin:round;stroke-miterlimit:22.9256;" d="
					M237.436,371.912c0,0-81.094,57.031-171.472-3.979"/>
				
					<path style="fill:none;stroke:#000000;stroke-width:8.5039;stroke-linecap:round;stroke-linejoin:round;stroke-miterlimit:22.9256;" d="
					M279.879,271.491c3.218,12.008,9.853,66.316-42.443,100.421"/>
				
					<path style="fill:none;stroke:#000000;stroke-width:8.5039;stroke-linecap:round;stroke-linejoin:round;stroke-miterlimit:22.9256;" d="
					M92.111,260.882c35.93,0.972,26.715,4.044,58.737,4.057c20.125,0.008,39.083-4.47,61.578-6.711"/>
				
					<path style="fill:none;stroke:#000000;stroke-width:8.5039;stroke-linecap:round;stroke-linejoin:round;stroke-miterlimit:22.9256;" d="
					M259.794,309.007c0,0,14.021-52.106-47.368-50.779"/>
				
					<path style="fill:none;stroke:#000000;stroke-width:8.5039;stroke-linecap:round;stroke-linejoin:round;stroke-miterlimit:22.9256;" d="
					M53.649,325.112c-7.404-10.983-15.16-64.338,38.463-64.231"/>
				
					<path style="fill:none;stroke:#000000;stroke-width:8.5039;stroke-linecap:round;stroke-linejoin:round;stroke-miterlimit:22.9256;" d="
					M259.794,309.007c-15.347,47.747-62.144,59.456-101.397,59.315c-40.922-0.146-81.283-9.246-104.748-43.21"/>
			</g>
			
				<path style="fill-rule:evenodd;clip-rule:evenodd;fill:none;stroke:#000000;stroke-width:8.5039;stroke-linecap:round;stroke-linejoin:round;stroke-miterlimit:22.9256;" d="
				M116.296,239.136c0,0,13.457,3.726,30.636,3.726s35.368-3.368,35.368-3.368"/>
		</g>
		<g>
			<polygon style="fill-rule:evenodd;clip-rule:evenodd;fill:#67559E;" points="124.667,243.447 116.812,237.614 113.136,228.84 
				116.846,218.874 126.382,210.946 134.444,206.372 144.393,201.611 152.21,201.186 158.689,203.643 166.133,208.002 
				172.264,212.601 177.265,217.989 182.191,224.699 184.006,230.728 182.469,235.8 176.896,241.03 167.126,243.656 
				153.647,245.502 139.534,246.372 124.667,243.447 			"/>
			
				<path style="fill:none;stroke:#000000;stroke-width:8.5039;stroke-linecap:round;stroke-linejoin:round;stroke-miterlimit:22.9256;" d="
				M164.444,244.092c7.143-0.984,16.289-3.586,18.929-9.989c1.112-2.699,1.217-6.03-3.436-13.352
				c-4.652-7.322-19.231-17.611-27.727-19.565c0,0-3.946-0.802-7.817,0.425c-8.071,2.464-20.362,9.809-26.253,15.803
				c-5.891,5.993-5.615,13.555-4.074,17.567c3.162,8.23,11.217,8.801,18.093,9.537"/>
			
				<path style="fill:none;stroke:#000000;stroke-width:8.5039;stroke-linecap:round;stroke-linejoin:round;stroke-miterlimit:22.9256;" d="
				M133.688,226.929c-0.41,4.935-4.334,9.006-1.954,10.196C134.113,238.315,135.897,231.178,133.688,226.929L133.688,226.929z"/>
			
				<path style="fill:none;stroke:#000000;stroke-width:8.5039;stroke-linecap:round;stroke-linejoin:round;stroke-miterlimit:22.9256;" d="
				M159.618,228.171c5.581,3.244,8.921,10.487,6.084,11.575C162.695,240.897,160.918,234.587,159.618,228.171L159.618,228.171z"/>
			
				<path style="fill:none;stroke:#000000;stroke-width:8.5039;stroke-linecap:round;stroke-linejoin:round;stroke-miterlimit:22.9256;" d="
				M132.159,244.517c0,0,13.861,3.059,32.286-0.425"/>
		</g>
		
			<path style="fill:none;stroke:#000000;stroke-width:8.5039;stroke-linecap:round;stroke-linejoin:round;stroke-miterlimit:22.9256;" d="
			M126.415,194.814c0,0,19.368-13.79,42.226-0.96"/>
	</g>
</g>
</svg>
