<svg xmlns="http://www.w3.org/2000/svg" xmlns:xlink="http://www.w3.org/1999/xlink" viewBox="0 0 309.345 559.642"><g id="n2201"><g><path fill-rule="evenodd" clip-rule="evenodd" fill="#4ab57e" d="M49.419 490.943l9.62-10.442 10.318-9.308 11.884-6.206 5.254 7.308 8.591 6.476 14.325 5.553 19.114 5.137 17.116 6.876 8.99 6.401 5.613-5.824 7.025-7.398 10.425-9.269 12.502-7.579-3.69-7.803 5.827-8.932 3.962-9.725-8.175-4.317-4.073-12.251-.085-19.965.599-14.805 10.971 1.183 16.017 4.553 14.2 5.895 13.94 8.65 9.172 11.397.677 10.031-3.698 7.888 7.021 7.645 1.18 6.687-1.398 8.088-3.704 8.575 6.345 9.454 7.118 7.37 5.287 7.981-6.87 10.368-10.784 10.736-17.81 12.451-23.592 11.352-18.448 5.944-18.146 3.453-20.713.651-20.308-2.063-22.527-5.938-17.312-8.358-16.488-12.604-11.246-12.493-7.509-10.94-6.517-11.883z"/><path d="M135.257 359.206s18.643-8.554 47.626.094c-.042 2.066-.121 42.972-.121 42.972l-.282 11.535.048 11.249 2.056 10.709s.138 5.123 2.036 6.126l8.175 4.317-1.827 5.005-5.048 9.187-3.756-4.785-9.592 2.809-14.403 1.517-14.586-1.278-11.513-2.867-7.474-2.881-3.38-5.639 5.893-4.935 5.427-10.315 1.894-11.78-.047-12.705-.905-14.83-.221-33.505z" fill-rule="evenodd" clip-rule="evenodd" fill="#4ab57e"/><path fill-rule="evenodd" clip-rule="evenodd" fill="#fff" d="M160.244 496.914l8.961-9.227 10.156-8.45 9.951-8.44-4.326-4.281 4.434-6.117-3.756-4.785-9.592 2.809-14.404 1.518-11.728-1.028-14.371-3.118-7.474-2.881-3.379-5.638-9.187 3.6 3.319 6.853 4.363 5.64 4.163 4.172-2.553 4.934 8.847 4.59 10.085 5.807 7.926 5.692 8.565 8.35z"/><path fill-rule="evenodd" clip-rule="evenodd" fill="#67559e" d="M80.305 464.445l-5.006 3.645-3.609 1.435-3.471-8.039-2.759-13.283 1.673-15.197 6.795-13.806 12.017-11.969 15.679-7.858 17.536-4.564 17.818-2.1.615 9.72.313 11.463L137.49 425l-2.91 10.995-5.04 7.504-9.418 5.577-4.426 2.144 3.152 6.509 6.446 7.726-1.471 6.501 9.845 5.109 10.964 6.375 9.503 7.228 6.577 5.702-7.179 5.414-7.892-5.447-7.516-3.591-12.314-4.057-11.528-3.055-12.034-4.086-12.706-6.449-5.675-6.458-3.563-4.196z"/><path d="M136.383 366.8c1.265 23.263 6.509 77.648-20.854 84.076m67.354-82.076c-.376 23.802-2.873 72.013 10.073 76.487" fill="none" stroke="#000" stroke-width="8.504" stroke-linecap="round" stroke-linejoin="round" stroke-miterlimit="22.926"/><path d="M136.978 392.709s-32.184 1.069-51.033 14.522c-15.817 11.29-28.794 34.066-14.255 62.294m112.871-74.655c9.746-2.082 96.652 21.745 53.595 57.079m-113.149-44.404s10.349-2.126 12.766-2.109m57.928 5.159s-7.346-2.05-11.645-2.978m-96.712 12.565c.851 51.186 45.654 46.973 71.022 74.674m67.176-69.507c-.138 25.5-44.345 46.962-65.298 71.565m39.436-64.952s-3.14 24.381-16.055 35.844m-55.53-14.892s28.153 13.82 57.568 2.7m-40.848 13.393s11.63 2.602 20.44 1.273m-54.627-32.519s2.283 16.871 16.746 29.78m14.111 24.722s-.662 45.189.658 49.124m-92.724-50.444s17.771-21.41 30.886-26.498" fill="none" stroke="#000" stroke-width="8.504" stroke-linecap="round" stroke-linejoin="round" stroke-miterlimit="22.926"/><path d="M78.793 458.448s2.245 12.79 16.292 20.323c17.677 9.48 42.109 8.349 59.545 23.967m19.314.712s66.481-42.13 72.479-43.267m-.809-15.817s16.541 6.598 3.276 31.187m-6.011-5.988s11.268 9.165 24.81 30.702" fill="none" stroke="#000" stroke-width="8.504" stroke-linecap="round" stroke-linejoin="round" stroke-miterlimit="22.926"/><path d="M49.419 490.943c23.232 47.313 60.646 64.082 108.72 64.444 41.735.316 95.334-26.435 109.549-55.121" fill="none" stroke="#000" stroke-width="8.504" stroke-linecap="round" stroke-linejoin="round" stroke-miterlimit="22.926"/><path d="M140.447 537.033a5.67 5.67 0 1 1 .022 11.339 5.67 5.67 0 0 1-.022-11.339z" fill-rule="evenodd" clip-rule="evenodd"/><path d="M181.416 488.998s.594 15.748 4.547 23.803m2.955 27.563c.362-6.562 5-15.5-2.955-27.563" fill="none" stroke="#000" stroke-width="8.504" stroke-linecap="round" stroke-linejoin="round" stroke-miterlimit="22.926"/></g></g><g id="n2202"><g><path fill-rule="evenodd" clip-rule="evenodd" fill="#4ab57e" d="M153.283 388.697L50.95 341.864l-15.667-93.167h118z"/><path fill-rule="evenodd" clip-rule="evenodd" fill="#f9d740" d="M252.95 348.031l-100.906 40.768v-140h118z"/><path fill-rule="evenodd" clip-rule="evenodd" fill="#4ab57e" d="M31.46 183.59l1.205 12.475 1.898 16.451 1.119 14.519-.094 9.135-4.74 10.919-1.725 10.327 5.314 2.974-4.257 9.566-2.322 8.43-1.059 6.158-6.961-1.442-6.268-4.835-1.214-7.985 1.316-7.014.056-5.945-3.542-15.657-4.994-23.1-.895-14.036 3.487-14.189 5.148-5.486 10.376-2.65 8.152 1.385z"/><path fill-rule="evenodd" clip-rule="evenodd" fill="#e186ae" d="M34.437 260.39l4.408-6.639 8.899-8.822 14.567-6.637 11.284-5.005 16.124-1.204 14.59 1.535 11.51.62-5.387-12.854 4.095-10.997 11.62-9.661 15.597-8.271 11.805-1.586-.599 60.162 12.667-.667-.667 6.667 13.334-1.334 7.333-3.333 4-1.333 12-1.334 16-.666 14.667 4.666 18.162-17.59 9.925 5.855 8.89 8.704 4.808 7.362 3.459-3.611-1.279-11.078-4.862-11.993-5.608-6.919 3.842-12.873 3.839-20.863 1.247-21.581-1.336-18.8-4.019-19.015-7.791-20.002-10.959-17.827-13.58-15.104-20.257-14.183-22.01-8.219-22.39-3.345-22.504-.02-19.302 1.741-21.05 4.261L89.766 65.8l-14.791 8.471-14 11.927-12.493 16.669-8.342 16.562-5.567 16.866-2.608 13.898-1.045 13.196.426 18.654 1.918 19.222 1.859 18.51.512 11.828-1.406 6.995-3.381 8.491-1.678 9.23z"/><g><defs><path id="ak" d="M34.437 259.39l6.513 4.974 9-.5 9.5 2 11.5.5 16.5-5 7.5 6 10-.5 7.334-12.5 5.333-1.333 9.833 7.833h24.5l-5.532-71.5 18.57 5.546 14.061 10.576 7.583 10.328 2.992 6.853-3.908 6.95.642 2.854 14.599-2.563 15.284-1.073 18.228 1.423 15.977 4.849 9.925 5.855 8.89 8.704 4.808 7.362 3.459-3.611-1.279-11.078-4.862-11.993-5.608-6.919 3.842-12.873 3.839-20.863 1.247-21.581-1.336-18.8-4.019-19.015-7.791-20.002-10.959-17.827-13.58-15.104-20.257-14.183-22.01-8.219-22.39-3.345-22.504-.02-19.302 1.741-21.05 4.261L89.766 64.8l-14.791 8.471-14 11.927-12.493 16.669-8.342 16.562-5.567 16.866-2.608 13.898-1.045 13.196.426 18.654 1.918 19.222 1.859 18.51.512 11.828-1.406 6.995-3.381 8.491-1.678 9.23 5.267 4.071z"/></defs><clipPath id="al"><use xlink:href="#ak" overflow="visible"/></clipPath><path clip-path="url(#al)" fill-rule="evenodd" clip-rule="evenodd" fill="#fff" d="M147.444 312.378l-171 6.5v-317l171-6.5z"/></g><path fill-rule="evenodd" clip-rule="evenodd" fill="#f9d740" d="M273.742 185.808l8.396-2.707 10.385.66 7.95 5.089 4.27 10.734.233 8.884-2.137 13.559-2.59 9.514-3.093 10.664-2.51 12.241-.543 10.546 1.403 9.116-2.273 7.533-5.56 3.283-7.917.77-.528-9.769-1.891-10.24-1.539-9.463 2.514-5.555-2.525-9.155-4.4-10.166-5.608-6.919 3.842-12.873 1.92-10.431 1.71-9.297.491-6.018z"/><path d="M32.097 265.081s-10.385-51.375 52.151-51.541m133.501-2.625s63.375-6.75 59.625 49.126M53.499 95.04c15.375-20.625 41.995-39.19 93.019-42.261 29.439-1.771 70.645-.748 101.231 37.011m18.03 134.637s29.22-76.138-18.03-134.638M35.588 236.17c2.25-36.376-20.714-84.881 17.911-141.131M274.07 184.88s45.679-16.716 26.179 46.66m-5.625 36.376s-3.375-8.25 5.625-36.375m-20.25 53.624s19.875 3.75 14.625-17.249m-1.301-67.852s-15.949 19.102-3.574 34.477m-9 16.125c4.499-3.875 12.375-9.375 9-16.125M31.46 183.59s-38.993-14.207-23.618 48.23m18.749 54.376c-16.378-6.823-15.7-9.534-12.92-22.928 1.374-6.621-2.925-17.689-5.83-31.447m9.482-34.161c4.688 11.438 9.333 12.406 5.143 27.975m7.767 24.838s-19.7-7.465-7.767-24.839" fill="none" stroke="#000" stroke-width="8.504" stroke-linecap="round" stroke-linejoin="round" stroke-miterlimit="22.926"/><path fill-rule="evenodd" clip-rule="evenodd" fill="#f9d740" d="M31.38 152.639l3.495-1.819 2.448-14.241 3.602-12.892 6.486-16.401 10.547-15.032 10.061-10.581L82.63 70.912l17.895-8.579 21.841-6.024 24.555-2.721 24.65.52 27.464 4.564 17.667 6.112 12.857 6.763 11.09 8.11 4.5-5.211 1.167-11.553-2.226-15.578-6.057-12.337-10.099-12.205-17.62-9.199-16.626-5.708-19.595-3.091-19.131-.269-17.397 2.175-15.602 4.664-12.758 6.516-10.727 8.198-6.873 7.091-6.141-3.377-6.235 4.384-7.025 4.875-9.603 4.768L52 50.924l-11.331 10.89-7.835 11.072-7.175 16.558-2.715 12.634-.584 16.104 1.839 13.552 3.216 11.376 3.965 9.529zm216.996-65.527l3.979-4.406 10.15 2.512 9.311 5.305 8.202 8.367 6.019 11.641 2.137 11.978-.753 9.703-2.892 8.69-3.511 10.58-5.932.628-1.126-8.474-2.998-14.027-5.452-15.744-6.967-13.355-5.617-8.03-4.55-5.368z"/><path d="M33.631 178.253c-2.25-93 55.944-127.121 128.227-124.702 112.98 3.782 115.338 93.696 114.023 127.328" fill="none" stroke="#000" stroke-width="8.504" stroke-linecap="round" stroke-linejoin="round" stroke-miterlimit="22.926"/><path d="M251.506 82.628c23.334 1.868 41.913 25.508 35.36 52.141-1.427 5.799-4.642 8.338-6.485 20.235m-246.228 2.952C10.7 116.262 21 60.988 72.204 39.032c4.538-1.946 17.809-9.261 22.754-11.341m-62.639 91.501s10.025-3.177 18.315-16.518m-1.726-17.313s-.614-31.142 23.295-46.329m60.803 3.285c18.191-12.948 21.204 1.57 39.304 7.383M81.327 82.706s6.59-10.162 10.385-16.651m111.232-14.177c-8.625-36.375-75.464-65.021-111.232 14.177" fill="none" stroke="#000" stroke-width="8.504" stroke-linecap="round" stroke-linejoin="round" stroke-miterlimit="22.926"/><path d="M228.632 64.067s-3.108-2.836-2.697-6.702c1.601-15.027-10.031-37.056-41.929-38.111m-1.687-13.687c14.758 2.081 75.215 15.625 63.996 75.664m-183.28-2.659C77.285 62.823 83.695-6.06 182.32 5.566" fill="none" stroke="#000" stroke-width="8.504" stroke-linecap="round" stroke-linejoin="round" stroke-miterlimit="22.926"/><path d="M150.444 61.928c.207-2.285 1.315-2.201-2.769 66.399-1.064 17.879-.872 83.133-.872 83.133" fill-rule="evenodd" clip-rule="evenodd" fill="none" stroke="#000" stroke-width="8.504" stroke-linecap="round" stroke-linejoin="round" stroke-miterlimit="22.926"/><g><path fill-rule="evenodd" clip-rule="evenodd" d="M83.636 162.781l7.44-4.682 5.006-1.897 2.303-9.565-.128-8.809-5.546-5.431-8.136.871-5.368 5.684-1.516 5.741-1.371 10.664-.99 19.137-.174 13.113.091 13.692.204 9.055 9.491-1.462 8.058-.735 4.201-.209.659-11.074-.972-8.88-6.909-7.651-7.68-7.319-1.422-7.836 2.759-2.407zm116.302 4.208l.456-12.394.795-12.139 2.373-8.054 7.32-4.195 9.297.843 4.841 4.97 1.18 6.416-.021 9.744-.348 5.147-6.955 3.089-5.567 4.12-4.914 4.791 3.665 7.002 5.115 4.316 5.612 4.857 2.108 3.7-.36 6.63-1.332 9.324-7.644.301-7.694.694-8.598 1.209.06-7.378.16-12.364.224-11.819.227-8.81z"/><path d="M70.114 119.358s15.938-25.313 37.5-19.5m87.188 0s24.563-10.687 47.25 19.5m-47.438 88.875s25.501-5.625 47.251-1.687m-178.876 6.937s16.313-5.812 40.688-5.625m-24.47-68.906c1.312-5.062 12.75-11.813 18.75-2.062m-22.506 73.464s-1.868-56.964 3.757-71.402m16.874 17.25s4.41-12.592 1.875-19.312m-18.375 29.624s6.562-7.5 16.5-10.312m0 29.812c-5.25-6-16.688-12.375-16.5-19.5m17.619 41.434s2.069-16.309-1.118-21.934m105.937-48.75c2.25-8.062 19.311-11.625 23.438-.188m-26.191 70.284s.316-62.971 2.753-70.096m23.811 20.063s1.314-13.875-.374-20.25m-17.062 32.25s8.436-9.75 17.436-12.001m-.936 31.876c0-5.25-18.535-13.717-16.5-19.874m14.808 35.828s1.504-6.579 1.692-15.954" fill="none" stroke="#000" stroke-width="8.504" stroke-linecap="round" stroke-linejoin="round" stroke-miterlimit="22.926"/></g></g></g><g id="n2203"><g id="_x3C_Group_x3E_"><g><path fill-rule="evenodd" clip-rule="evenodd" fill="#e186ae" d="M137.512 351.858l1.351-11.396 1.682-22.033 3.373-11.19 5.967-6.94 7.316-2.102 7.39 2.541 5.385 3.507 2.897 4.507-3.397 5.595-3.114 2.59.369 7.382.485 16.607-.83 5.222-8.242-2.28-8.676 2.1-6.053 4.052-5.903 1.838z"/><path d="M137.227 353.414c3.41-17.186.187-56.14 21.775-55.214m-6.18 20.662c7.768 1.064 40.224-10.485 6.179-20.662m8.636 48.698s-.696-17.084-1.313-30.798" fill="none" stroke="#000" stroke-width="8.504" stroke-linecap="round" stroke-linejoin="round" stroke-miterlimit="22.926"/></g></g></g><g id="n2204"><g><g><g><path d="M285.239 280.155l-1.914-12.757-6.244-12.478-10.253-11.382-16.778-8.746-13.579-3.439-18.621-.976-15.469 1.304-13.075 2.507-13.636 3.592-14.978 2.223-15.639.271-12.958-1.541-8.61-1.921-7.922-2.272-11.983-1.072-11.374-.971-13.029.973-13.648 5.225-13.1 5.969-10.613 9.652-5.517 8.701-3.75 9.211-2.907 13.205-.143 15.013 1.781 9.909 4.746 13.285 7.361 12.989 7.495 9.816 11.099 11.347 11.709 8.855 12.369 7.203 13.008 6.184 14.116 5.189 15.978 4.061 16.486 2.271 14.814.444 16.164-1.195 15.849-2.855 16.118-4.645 16.078-6.508 13.254-7.071 12.891-9.175 11.42-10.98 8.436-11.124 8.228-16.1 4.657-15.982 1.719-13.327-.036-12.882zm-42.455 54.876c-25.667 20.333-75 42.667-155.667 13 0 0-32.333-14.667-34.667-36.667-2.333-22-2-45.333 17.667-53 19.667-7.667 47.333-.667 65.667-.667s70-2.333 83.333-4.667c13.333-2.333 28.667-2.333 37 17.667 8.333 20 12.333 44-13.333 64.334z" fill-rule="evenodd" clip-rule="evenodd" fill="#67559e"/><path fill-rule="evenodd" clip-rule="evenodd" fill="#fff" d="M74.824 339.155l3.502-5.189 5.175-7.317 5.359-6.812 6.201-3.72 6.529.617 4.377 2.475 2.863 5.191 7.348 2.108 4.757 5.395 2.073 3.512 8.776-2.131 8.608 3.057 6.26 3.825 7.122-6.383 9.637-4.308 8.868 1.907 6.007 4.004 3.091 3.717 6.012-5.018 7.265-3.44 7.851-.221 6.15-5.521 6.946-5.359 4.551-.215 6.976-7.249 6.534-.056 6.902 3.933 4.612 4.606 6.784 4.729-7.471 9.088-9.422 8.279-13.592 8.231-18.361 6.868-15.426 3.266-17.45 1.689-17.101.035-12.312-.745-18.601-2.592-14.49-3.61-13.072-4.877-9.956-5.098-9.882-6.671z"/><path d="M77.167 258.01l9.708-2.135 13.596-.239 13.453.791 18.734 2.296 15.563.754 17.053-.419 9.22-.893 17.586-2.388 11.279-1.584 11.846-1.39 11.967.488 2.139 6.235 1.072 7.578-1.58 7.312-3.459 5.58-6.123 3.31-10.026-1.079-4.018 4.789-8.591 2.073-7.577-2.349-5.549-3.152-6.093 5.227s-10.034 1.02-9.098 1.155c.937.134-7.94-3.023-7.94-3.023l-7.186-5.254-9.306 5.341-10.608-.2-7.775-3.755-3.762-2.901-6.903 3.733-6.749 1.024-5.664-2.081-2.713-2.43-5.877 3.324-7.062-3.92-5.308-5.381-3.74-8.314-.509-8.123z" fill-rule="evenodd" clip-rule="evenodd" fill="#61f4e5"/><path d="M77.167 258.01s-2.343 27.253 20.685 24.553m-4.959-17.732s4.926 32.021 28.8 15.347m31.452 1.515s-13.073 14.4-31.452-1.516m61.768 3.411s-9.852 16.105-30.316-1.895m59.495-13.073s-.758 33.536-29.179 14.968m46.924-28.238c2.654 2.463 1.327 34.609-21.188 26.876m-131.84 52.709c3.092-10.68 13.825-25.234 29.741-13.676m-13.636 18.792s13.642-29.179 27.473-8.147m25.01 9.094s-16.484-19.326-31.452 3.032m66.884-4.927s-14.589-23.115-35.432 1.895m73.516 5.116s-14.02-30.884-38.084-7.01m21.128-8.68c7.389-2.653 12.598-25.805 33.819 2.995m13.074-9.672s-15.497-24.86-30.037-4.556" fill="none" stroke="#000" stroke-width="8.504" stroke-linecap="round" stroke-linejoin="round" stroke-miterlimit="22.926"/><path d="M119.076 233.71c-20.842.189-32.035-7.557-58.06 4.375-15.568 7.138-28.985 21.251-32.105 48.13m151.149-50.549s82.659-27.325 102.744 30.843M68.745 362.507s-44.336-30.885-39.978-76.737m211.449 80.716s-81.094 57.031-171.472-3.979m213.915-96.442c3.218 12.008 9.852 66.316-42.443 100.421M94.892 255.456c35.93.972 26.715 4.044 58.737 4.057 20.125.008 39.083-4.47 61.578-6.71m47.367 50.778s14.021-52.106-47.368-50.779M56.429 319.686c-7.404-10.983-15.16-64.338 38.463-64.231m167.682 48.126c-15.347 47.747-62.144 59.456-101.397 59.315-40.922-.146-81.283-9.246-104.748-43.21" fill="none" stroke="#000" stroke-width="8.504" stroke-linecap="round" stroke-linejoin="round" stroke-miterlimit="22.926"/></g><path d="M119.076 233.71s13.457 3.726 30.636 3.726 35.368-3.368 35.368-3.368" fill-rule="evenodd" clip-rule="evenodd" fill="none" stroke="#000" stroke-width="8.504" stroke-linecap="round" stroke-linejoin="round" stroke-miterlimit="22.926"/></g><g><path fill-rule="evenodd" clip-rule="evenodd" fill="#e186ae" d="M127.448 238.021l-7.856-5.833-3.676-8.774 3.711-9.966 9.535-7.928 8.063-4.574 9.948-4.762 7.817-.424 6.479 2.457 7.444 4.359 6.132 4.599 5 5.387 4.927 6.711 1.814 6.029-1.536 5.072-5.573 5.23-9.771 2.626-13.478 1.846-14.114.87-14.866-2.925z"/><path d="M167.225 238.666c7.143-.984 16.289-3.586 18.929-9.989 1.112-2.699 1.217-6.03-3.436-13.352-4.652-7.322-19.231-17.611-27.727-19.565 0 0-3.946-.802-7.817.425-8.071 2.464-20.362 9.809-26.253 15.803-5.891 5.993-5.615 13.555-4.074 17.567 3.162 8.23 11.217 8.801 18.093 9.537" fill="none" stroke="#000" stroke-width="8.504" stroke-linecap="round" stroke-linejoin="round" stroke-miterlimit="22.926"/><path d="M136.468 221.503c-.41 4.935-4.334 9.006-1.954 10.196 2.379 1.189 4.163-5.947 1.954-10.196zm25.93 1.241c5.581 3.244 8.921 10.487 6.084 11.575-3.007 1.152-4.783-5.158-6.084-11.575zm-27.459 16.347s13.861 3.059 32.286-.425" fill="none" stroke="#000" stroke-width="8.504" stroke-linecap="round" stroke-linejoin="round" stroke-miterlimit="22.926"/></g><path d="M127.749 183.165s19.368-13.79 42.226-.96" fill="none" stroke="#000" stroke-width="8.504" stroke-linecap="round" stroke-linejoin="round" stroke-miterlimit="22.926"/></g></g></svg>