<svg version="1.1" xmlns="http://www.w3.org/2000/svg" xmlns:xlink="http://www.w3.org/1999/xlink" x="0px" y="0px"
	 viewBox="0 0 309.345 559.642" style="enable-background:new 0 0 309.345 559.642;" xml:space="preserve">
<g id="n2201">
	<g>
		<polygon style="fill-rule:evenodd;clip-rule:evenodd;fill:#4AB57E;" points="49.419,490.943 59.039,480.501 69.357,471.193 
			81.241,464.987 86.495,472.295 95.086,478.771 109.411,484.324 128.525,489.461 145.641,496.337 154.631,502.738 160.244,496.914 
			167.269,489.516 177.694,480.247 190.196,472.668 186.506,464.865 192.333,455.933 196.295,446.208 188.12,441.891 
			184.047,429.64 183.962,409.675 184.561,394.87 195.532,396.053 211.549,400.606 225.749,406.501 239.689,415.151 
			248.861,426.548 249.538,436.579 245.84,444.467 252.861,452.112 254.041,458.799 252.643,466.887 248.939,475.462 
			255.284,484.916 262.402,492.286 267.689,500.267 260.819,510.635 250.035,521.371 232.225,533.822 208.633,545.174 
			190.185,551.118 172.039,554.571 151.326,555.222 131.018,553.159 108.491,547.221 91.179,538.863 74.691,526.259 63.445,513.766 
			55.936,502.826 49.419,490.943 		"/>
		<path style="fill-rule:evenodd;clip-rule:evenodd;fill:#4AB57E;" d="M135.257,359.206c0,0,18.643-8.554,47.626,0.094
			c-0.042,2.066-0.121,42.972-0.121,42.972l-0.282,11.535l0.048,11.249l2.056,10.709c0,0,0.138,5.123,2.036,6.126
			c1.899,1.002,8.175,4.317,8.175,4.317l-1.827,5.005l-5.048,9.187l-3.756-4.785l-9.592,2.809l-14.403,1.517l-14.586-1.278
			l-11.513-2.867l-7.474-2.881l-3.38-5.639l5.893-4.935l5.427-10.315l1.894-11.78l-0.047-12.705l-0.905-14.83L135.257,359.206z"/>
		<polygon style="fill-rule:evenodd;clip-rule:evenodd;fill:#FFFFFF;" points="160.244,496.914 169.205,487.687 179.361,479.237 
			189.312,470.797 184.986,466.516 189.42,460.399 185.664,455.614 176.072,458.423 161.668,459.941 149.94,458.913 
			135.569,455.795 128.095,452.914 124.716,447.276 115.529,450.876 118.848,457.729 123.211,463.369 127.374,467.541 
			124.821,472.475 133.668,477.065 143.753,482.872 151.679,488.564 160.244,496.914 		"/>
		<polygon style="fill-rule:evenodd;clip-rule:evenodd;fill:#67559E;" points="80.305,464.445 75.299,468.09 71.69,469.525 
			68.219,461.486 65.46,448.203 67.133,433.006 73.928,419.2 85.945,407.231 101.624,399.373 119.16,394.809 136.978,392.709 
			137.593,402.429 137.906,413.892 137.49,425 134.58,435.995 129.54,443.499 120.122,449.076 115.696,451.22 118.848,457.729 
			125.294,465.455 123.823,471.956 133.668,477.065 144.632,483.44 154.135,490.668 160.712,496.37 153.533,501.784 
			145.641,496.337 138.125,492.746 125.811,488.689 114.283,485.634 102.249,481.548 89.543,475.099 83.868,468.641 80.305,464.445 
					"/>
		
			<path style="fill:none;stroke:#000000;stroke-width:8.5039;stroke-linecap:round;stroke-linejoin:round;stroke-miterlimit:22.9256;" d="
			M136.383,366.8c1.265,23.263,6.509,77.648-20.854,84.076"/>
		
			<path style="fill:none;stroke:#000000;stroke-width:8.5039;stroke-linecap:round;stroke-linejoin:round;stroke-miterlimit:22.9256;" d="
			M182.883,368.8c-0.376,23.802-2.873,72.013,10.073,76.487"/>
		
			<path style="fill:none;stroke:#000000;stroke-width:8.5039;stroke-linecap:round;stroke-linejoin:round;stroke-miterlimit:22.9256;" d="
			M136.978,392.709c0,0-32.184,1.069-51.033,14.522c-15.817,11.29-28.794,34.066-14.255,62.294"/>
		
			<path style="fill:none;stroke:#000000;stroke-width:8.5039;stroke-linecap:round;stroke-linejoin:round;stroke-miterlimit:22.9256;" d="
			M184.561,394.87c9.746-2.082,96.652,21.745,53.595,57.079"/>
		
			<path style="fill:none;stroke:#000000;stroke-width:8.5039;stroke-linecap:round;stroke-linejoin:round;stroke-miterlimit:22.9256;" d="
			M125.007,407.545c0,0,10.349-2.126,12.766-2.109"/>
		
			<path style="fill:none;stroke:#000000;stroke-width:8.5039;stroke-linecap:round;stroke-linejoin:round;stroke-miterlimit:22.9256;" d="
			M195.701,410.595c0,0-7.346-2.05-11.645-2.978"/>
		
			<path style="fill:none;stroke:#000000;stroke-width:8.5039;stroke-linecap:round;stroke-linejoin:round;stroke-miterlimit:22.9256;" d="
			M87.344,420.182c0.851,51.186,45.654,46.973,71.022,74.674"/>
		
			<path style="fill:none;stroke:#000000;stroke-width:8.5039;stroke-linecap:round;stroke-linejoin:round;stroke-miterlimit:22.9256;" d="
			M225.542,425.349c-0.138,25.5-44.345,46.962-65.298,71.565"/>
		
			<path style="fill:none;stroke:#000000;stroke-width:8.5039;stroke-linecap:round;stroke-linejoin:round;stroke-miterlimit:22.9256;" d="
			M199.68,431.962c0,0-3.14,24.381-16.055,35.844"/>
		
			<path style="fill:none;stroke:#000000;stroke-width:8.5039;stroke-linecap:round;stroke-linejoin:round;stroke-miterlimit:22.9256;" d="
			M128.095,452.914c0,0,28.153,13.82,57.568,2.7"/>
		
			<path style="fill:none;stroke:#000000;stroke-width:8.5039;stroke-linecap:round;stroke-linejoin:round;stroke-miterlimit:22.9256;" d="
			M144.815,469.007c0,0,11.63,2.602,20.44,1.273"/>
		
			<path style="fill:none;stroke:#000000;stroke-width:8.5039;stroke-linecap:round;stroke-linejoin:round;stroke-miterlimit:22.9256;" d="
			M110.628,437.761c0,0,2.283,16.871,16.746,29.78"/>
		
			<path style="fill:none;stroke:#000000;stroke-width:8.5039;stroke-linecap:round;stroke-linejoin:round;stroke-miterlimit:22.9256;" d="
			M141.485,492.263c0,0-0.662,45.189,0.658,49.124"/>
		
			<path style="fill:none;stroke:#000000;stroke-width:8.5039;stroke-linecap:round;stroke-linejoin:round;stroke-miterlimit:22.9256;" d="
			M49.419,490.943c0,0,17.771-21.41,30.886-26.498"/>
		
			<path style="fill:none;stroke:#000000;stroke-width:8.5039;stroke-linecap:round;stroke-linejoin:round;stroke-miterlimit:22.9256;" d="
			M78.793,458.448c0,0,2.245,12.79,16.292,20.323c17.677,9.48,42.109,8.349,59.545,23.967"/>
		
			<path style="fill:none;stroke:#000000;stroke-width:8.5039;stroke-linecap:round;stroke-linejoin:round;stroke-miterlimit:22.9256;" d="
			M173.944,503.45c0,0,66.481-42.13,72.479-43.267"/>
		
			<path style="fill:none;stroke:#000000;stroke-width:8.5039;stroke-linecap:round;stroke-linejoin:round;stroke-miterlimit:22.9256;" d="
			M245.614,444.366c0,0,16.541,6.598,3.276,31.187"/>
		
			<path style="fill:none;stroke:#000000;stroke-width:8.5039;stroke-linecap:round;stroke-linejoin:round;stroke-miterlimit:22.9256;" d="
			M242.879,469.565c0,0,11.268,9.165,24.81,30.702"/>
		
			<path style="fill:none;stroke:#000000;stroke-width:8.5039;stroke-linecap:round;stroke-linejoin:round;stroke-miterlimit:22.9256;" d="
			M49.419,490.943c23.232,47.313,60.646,64.082,108.72,64.444c41.735,0.316,95.334-26.435,109.549-55.121"/>
		<path style="fill-rule:evenodd;clip-rule:evenodd;" d="M140.447,537.033c3.132-0.006,5.675,2.527,5.681,5.658
			c0.006,3.132-2.527,5.675-5.659,5.681c-3.131,0.006-5.674-2.527-5.68-5.659C134.783,539.582,137.316,537.039,140.447,537.033
			L140.447,537.033z"/>
		
			<path style="fill:none;stroke:#000000;stroke-width:8.5039;stroke-linecap:round;stroke-linejoin:round;stroke-miterlimit:22.9256;" d="
			M181.416,488.998c0,0,0.594,15.748,4.547,23.803 M188.918,540.364c0.362-6.562,5-15.5-2.955-27.563"/>
	</g>
</g>
<g id="n2202">
	<g>
		<polygon style="fill-rule:evenodd;clip-rule:evenodd;fill:#4AB57E;" points="153.283,388.697 50.95,341.864 35.283,248.697 
			153.283,248.697 		"/>
		<polygon style="fill-rule:evenodd;clip-rule:evenodd;fill:#F9D740;" points="252.95,348.031 152.044,388.799 152.044,248.799 
			270.044,248.799 		"/>
		<polygon style="fill-rule:evenodd;clip-rule:evenodd;fill:#4AB57E;" points="31.46,183.59 32.665,196.065 34.563,212.516 
			35.682,227.035 35.588,236.17 30.848,247.089 29.123,257.416 34.437,260.39 30.18,269.956 27.858,278.386 26.799,284.544 
			19.838,283.102 13.57,278.267 12.356,270.282 13.672,263.268 13.728,257.323 10.186,241.666 5.192,218.566 4.297,204.53 
			7.784,190.341 12.932,184.855 23.308,182.205 31.46,183.59 		"/>
		<polygon style="fill-rule:evenodd;clip-rule:evenodd;fill:#E186AE;" points="34.437,260.39 38.845,253.751 47.744,244.929 
			62.311,238.292 73.595,233.287 89.719,232.083 104.309,233.618 115.819,234.238 110.432,221.384 114.527,210.387 126.147,200.726 
			141.744,192.455 153.549,190.869 152.95,251.031 165.617,250.364 164.95,257.031 178.284,255.697 185.617,252.364 
			189.617,251.031 201.617,249.697 217.617,249.031 232.284,253.697 250.446,236.107 260.371,241.962 269.261,250.666 
			274.069,258.028 277.528,254.417 276.249,243.339 271.387,231.346 265.779,224.427 269.621,211.554 273.46,190.691 
			274.707,169.11 273.371,150.31 269.352,131.295 261.561,111.293 250.602,93.466 237.022,78.362 216.765,64.179 194.755,55.96 
			172.365,52.615 149.861,52.595 130.559,54.336 109.509,58.597 89.766,65.8 74.975,74.271 60.975,86.198 48.482,102.867 
			40.14,119.429 34.573,136.295 31.965,150.193 30.92,163.389 31.346,182.043 33.264,201.265 35.123,219.775 35.635,231.603 
			34.229,238.598 30.848,247.089 29.17,256.319 		"/>
		<g>
			<defs>
				<polygon id="SVGID_1_" points="34.437,259.39 40.95,264.364 49.95,263.864 59.45,265.864 70.95,266.364 87.45,261.364 
					94.95,267.364 104.95,266.864 112.284,254.364 117.617,253.031 127.45,260.864 151.95,260.864 146.418,189.364 164.988,194.91 
					179.049,205.486 186.632,215.814 189.624,222.667 185.716,229.617 186.358,232.471 200.957,229.908 216.241,228.835 
					234.469,230.258 250.446,235.107 260.371,240.962 269.261,249.666 274.069,257.028 277.528,253.417 276.249,242.339 
					271.387,230.346 265.779,223.427 269.621,210.554 273.46,189.691 274.707,168.11 273.371,149.31 269.352,130.295 
					261.561,110.293 250.602,92.466 237.022,77.362 216.765,63.179 194.755,54.96 172.365,51.615 149.861,51.595 130.559,53.336 
					109.509,57.597 89.766,64.8 74.975,73.271 60.975,85.198 48.482,101.867 40.14,118.429 34.573,135.295 31.965,149.193 
					30.92,162.389 31.346,181.043 33.264,200.265 35.123,218.775 35.635,230.603 34.229,237.598 30.848,246.089 29.17,255.319 
					34.437,259.39 				"/>
			</defs>
			<clipPath id="SVGID_2_">
				<use xlink:href="#SVGID_1_"  style="overflow:visible;"/>
			</clipPath>
			<polygon style="clip-path:url(#SVGID_2_);fill-rule:evenodd;clip-rule:evenodd;fill:#FFFFFF;" points="147.444,312.378 
				-23.556,318.878 -23.556,1.878 147.444,-4.622 			"/>
		</g>
		<polygon style="fill-rule:evenodd;clip-rule:evenodd;fill:#F9D740;" points="273.742,185.808 282.138,183.101 292.523,183.761 
			300.473,188.85 304.743,199.584 304.976,208.468 302.839,222.027 300.249,231.541 297.156,242.205 294.646,254.446 
			294.103,264.992 295.506,274.108 293.233,281.641 287.673,284.924 279.756,285.694 279.228,275.925 277.337,265.685 
			275.798,256.222 278.312,250.667 275.787,241.512 271.387,231.346 265.779,224.427 269.621,211.554 271.541,201.123 
			273.251,191.826 273.742,185.808 		"/>
		
			<path style="fill:none;stroke:#000000;stroke-width:8.5039;stroke-linecap:round;stroke-linejoin:round;stroke-miterlimit:22.9256;" d="
			M32.097,265.081c0,0-10.385-51.375,52.151-51.541"/>
		
			<path style="fill:none;stroke:#000000;stroke-width:8.5039;stroke-linecap:round;stroke-linejoin:round;stroke-miterlimit:22.9256;" d="
			M217.749,210.915c0,0,63.375-6.75,59.625,49.126"/>
		
			<path style="fill:none;stroke:#000000;stroke-width:8.5039;stroke-linecap:round;stroke-linejoin:round;stroke-miterlimit:22.9256;" d="
			M53.499,95.04c15.375-20.625,41.995-39.19,93.019-42.261c29.439-1.771,70.645-0.748,101.231,37.011"/>
		
			<path style="fill:none;stroke:#000000;stroke-width:8.5039;stroke-linecap:round;stroke-linejoin:round;stroke-miterlimit:22.9256;" d="
			M265.779,224.427c0,0,29.22-76.138-18.03-134.638"/>
		
			<path style="fill:none;stroke:#000000;stroke-width:8.5039;stroke-linecap:round;stroke-linejoin:round;stroke-miterlimit:22.9256;" d="
			M35.588,236.17c2.25-36.376-20.714-84.881,17.911-141.131"/>
		
			<path style="fill:none;stroke:#000000;stroke-width:8.5039;stroke-linecap:round;stroke-linejoin:round;stroke-miterlimit:22.9256;" d="
			M274.07,184.88c0,0,45.679-16.716,26.179,46.66"/>
		
			<path style="fill:none;stroke:#000000;stroke-width:8.5039;stroke-linecap:round;stroke-linejoin:round;stroke-miterlimit:22.9256;" d="
			M294.624,267.916c0,0-3.375-8.25,5.625-36.375"/>
		
			<path style="fill:none;stroke:#000000;stroke-width:8.5039;stroke-linecap:round;stroke-linejoin:round;stroke-miterlimit:22.9256;" d="
			M279.999,285.165c0,0,19.875,3.75,14.625-17.249"/>
		
			<path style="fill:none;stroke:#000000;stroke-width:8.5039;stroke-linecap:round;stroke-linejoin:round;stroke-miterlimit:22.9256;" d="
			M293.323,200.064c0,0-15.949,19.102-3.574,34.477"/>
		
			<path style="fill:none;stroke:#000000;stroke-width:8.5039;stroke-linecap:round;stroke-linejoin:round;stroke-miterlimit:22.9256;" d="
			M280.749,250.666c4.499-3.875,12.375-9.375,9-16.125"/>
		
			<path style="fill:none;stroke:#000000;stroke-width:8.5039;stroke-linecap:round;stroke-linejoin:round;stroke-miterlimit:22.9256;" d="
			M31.46,183.59c0,0-38.993-14.207-23.618,48.23"/>
		
			<path style="fill:none;stroke:#000000;stroke-width:8.5039;stroke-linecap:round;stroke-linejoin:round;stroke-miterlimit:22.9256;" d="
			M26.591,286.196c-16.378-6.823-15.7-9.534-12.92-22.928c1.374-6.621-2.925-17.689-5.83-31.447"/>
		
			<path style="fill:none;stroke:#000000;stroke-width:8.5039;stroke-linecap:round;stroke-linejoin:round;stroke-miterlimit:22.9256;" d="
			M17.323,197.66c4.688,11.438,9.333,12.406,5.143,27.975"/>
		
			<path style="fill:none;stroke:#000000;stroke-width:8.5039;stroke-linecap:round;stroke-linejoin:round;stroke-miterlimit:22.9256;" d="
			M30.233,250.473c0,0-19.7-7.465-7.767-24.839"/>
		<polygon style="fill-rule:evenodd;clip-rule:evenodd;fill:#F9D740;" points="31.38,152.639 34.875,150.82 37.323,136.579 
			40.925,123.687 47.411,107.286 57.958,92.254 68.019,81.673 82.63,70.912 100.525,62.333 122.366,56.309 146.921,53.588 
			171.571,54.108 199.035,58.672 216.702,64.784 229.559,71.547 240.649,79.657 245.149,74.446 246.316,62.893 244.09,47.315 
			238.033,34.978 227.934,22.773 210.314,13.574 193.688,7.866 174.093,4.775 154.962,4.506 137.565,6.681 121.963,11.345 
			109.205,17.861 98.478,26.059 91.605,33.15 85.464,29.773 79.229,34.157 72.204,39.032 62.601,43.8 52,50.924 40.669,61.814 
			32.834,72.886 25.659,89.444 22.944,102.078 22.36,118.182 24.199,131.734 27.415,143.11 31.38,152.639 		"/>
		<polygon style="fill-rule:evenodd;clip-rule:evenodd;fill:#F9D740;" points="248.376,87.112 252.355,82.706 262.505,85.218 
			271.816,90.523 280.018,98.89 286.037,110.531 288.174,122.509 287.421,132.212 284.529,140.902 281.018,151.482 275.086,152.11 
			273.96,143.636 270.962,129.609 265.51,113.865 258.543,100.51 252.926,92.48 248.376,87.112 		"/>
		
			<path style="fill:none;stroke:#000000;stroke-width:8.5039;stroke-linecap:round;stroke-linejoin:round;stroke-miterlimit:22.9256;" d="
			M33.631,178.253c-2.25-93,55.944-127.121,128.227-124.702c112.98,3.782,115.338,93.696,114.023,127.328"/>
		
			<path style="fill:none;stroke:#000000;stroke-width:8.5039;stroke-linecap:round;stroke-linejoin:round;stroke-miterlimit:22.9256;" d="
			M251.506,82.628c23.334,1.868,41.913,25.508,35.36,52.141c-1.427,5.799-4.642,8.338-6.485,20.235"/>
		
			<path style="fill:none;stroke:#000000;stroke-width:8.5039;stroke-linecap:round;stroke-linejoin:round;stroke-miterlimit:22.9256;" d="
			M34.153,157.956C10.7,116.262,21,60.988,72.204,39.032c4.538-1.946,17.809-9.261,22.754-11.341"/>
		
			<path style="fill:none;stroke:#000000;stroke-width:8.5039;stroke-linecap:round;stroke-linejoin:round;stroke-miterlimit:22.9256;" d="
			M32.319,119.192c0,0,10.025-3.177,18.315-16.518"/>
		
			<path style="fill:none;stroke:#000000;stroke-width:8.5039;stroke-linecap:round;stroke-linejoin:round;stroke-miterlimit:22.9256;" d="
			M48.908,85.361c0,0-0.614-31.142,23.295-46.329"/>
		
			<path style="fill:none;stroke:#000000;stroke-width:8.5039;stroke-linecap:round;stroke-linejoin:round;stroke-miterlimit:22.9256;" d="
			M133.006,42.317c18.191-12.948,21.204,1.57,39.304,7.383"/>
		
			<path style="fill:none;stroke:#000000;stroke-width:8.5039;stroke-linecap:round;stroke-linejoin:round;stroke-miterlimit:22.9256;" d="
			M81.327,82.706c0,0,6.59-10.162,10.385-16.651"/>
		
			<path style="fill:none;stroke:#000000;stroke-width:8.5039;stroke-linecap:round;stroke-linejoin:round;stroke-miterlimit:22.9256;" d="
			M202.944,51.878c-8.625-36.375-75.464-65.021-111.232,14.177"/>
		
			<path style="fill:none;stroke:#000000;stroke-width:8.5039;stroke-linecap:round;stroke-linejoin:round;stroke-miterlimit:22.9256;" d="
			M228.632,64.067c0,0-3.108-2.836-2.697-6.702c1.601-15.027-10.031-37.056-41.929-38.111"/>
		
			<path style="fill:none;stroke:#000000;stroke-width:8.5039;stroke-linecap:round;stroke-linejoin:round;stroke-miterlimit:22.9256;" d="
			M182.319,5.567c14.758,2.081,75.215,15.625,63.996,75.664"/>
		
			<path style="fill:none;stroke:#000000;stroke-width:8.5039;stroke-linecap:round;stroke-linejoin:round;stroke-miterlimit:22.9256;" d="
			M63.035,78.572c14.25-15.749,20.66-84.632,119.285-73.006"/>
		
			<path style="fill-rule:evenodd;clip-rule:evenodd;fill:none;stroke:#000000;stroke-width:8.5039;stroke-linecap:round;stroke-linejoin:round;stroke-miterlimit:22.9256;" d="
			M150.444,61.928c0.207-2.285,1.315-2.201-2.769,66.399c-1.064,17.879-0.872,83.133-0.872,83.133"/>
		<g>
			<polygon style="fill-rule:evenodd;clip-rule:evenodd;" points="83.636,162.781 91.076,158.099 96.082,156.202 98.385,146.637 
				98.257,137.828 92.711,132.397 84.575,133.268 79.207,138.952 77.691,144.693 76.32,155.357 75.33,174.494 75.156,187.607 
				75.247,201.299 75.451,210.354 84.942,208.892 93,208.157 97.201,207.948 97.86,196.874 96.888,187.994 89.979,180.343 
				82.299,173.024 80.877,165.188 83.636,162.781 			"/>
			<polygon style="fill-rule:evenodd;clip-rule:evenodd;" points="199.938,166.989 200.394,154.595 201.189,142.456 
				203.562,134.402 210.882,130.207 220.179,131.05 225.02,136.02 226.2,142.436 226.179,152.18 225.831,157.327 218.876,160.416 
				213.309,164.536 208.395,169.327 212.06,176.329 217.175,180.645 222.787,185.502 224.895,189.202 224.535,195.832 
				223.203,205.156 215.559,205.457 207.865,206.151 199.267,207.36 199.327,199.982 199.487,187.618 199.711,175.799 
				199.938,166.989 			"/>
			
				<path style="fill:none;stroke:#000000;stroke-width:8.5039;stroke-linecap:round;stroke-linejoin:round;stroke-miterlimit:22.9256;" d="
				M70.114,119.358c0,0,15.938-25.313,37.5-19.5"/>
			
				<path style="fill:none;stroke:#000000;stroke-width:8.5039;stroke-linecap:round;stroke-linejoin:round;stroke-miterlimit:22.9256;" d="
				M194.802,99.858c0,0,24.563-10.687,47.25,19.5"/>
			
				<path style="fill:none;stroke:#000000;stroke-width:8.5039;stroke-linecap:round;stroke-linejoin:round;stroke-miterlimit:22.9256;" d="
				M194.614,208.233c0,0,25.501-5.625,47.251-1.687"/>
			
				<path style="fill:none;stroke:#000000;stroke-width:8.5039;stroke-linecap:round;stroke-linejoin:round;stroke-miterlimit:22.9256;" d="
				M62.989,213.483c0,0,16.313-5.812,40.688-5.625"/>
			
				<path style="fill:none;stroke:#000000;stroke-width:8.5039;stroke-linecap:round;stroke-linejoin:round;stroke-miterlimit:22.9256;" d="
				M79.207,138.952c1.312-5.062,12.75-11.813,18.75-2.062"/>
			
				<path style="fill:none;stroke:#000000;stroke-width:8.5039;stroke-linecap:round;stroke-linejoin:round;stroke-miterlimit:22.9256;" d="
				M75.451,210.354c0,0-1.868-56.964,3.757-71.402"/>
			
				<path style="fill:none;stroke:#000000;stroke-width:8.5039;stroke-linecap:round;stroke-linejoin:round;stroke-miterlimit:22.9256;" d="
				M96.082,156.202c0,0,4.41-12.592,1.875-19.312"/>
			
				<path style="fill:none;stroke:#000000;stroke-width:8.5039;stroke-linecap:round;stroke-linejoin:round;stroke-miterlimit:22.9256;" d="
				M79.582,166.514c0,0,6.562-7.5,16.5-10.312"/>
			
				<path style="fill:none;stroke:#000000;stroke-width:8.5039;stroke-linecap:round;stroke-linejoin:round;stroke-miterlimit:22.9256;" d="
				M96.082,186.014c-5.25-6-16.688-12.375-16.5-19.5"/>
			
				<path style="fill:none;stroke:#000000;stroke-width:8.5039;stroke-linecap:round;stroke-linejoin:round;stroke-miterlimit:22.9256;" d="
				M97.201,207.948c0,0,2.069-16.309-1.118-21.934"/>
			
				<path style="fill:none;stroke:#000000;stroke-width:8.5039;stroke-linecap:round;stroke-linejoin:round;stroke-miterlimit:22.9256;" d="
				M202.02,137.264c2.25-8.062,19.311-11.625,23.438-0.188"/>
			
				<path style="fill:none;stroke:#000000;stroke-width:8.5039;stroke-linecap:round;stroke-linejoin:round;stroke-miterlimit:22.9256;" d="
				M199.267,207.36c0,0,0.316-62.971,2.753-70.096"/>
			
				<path style="fill:none;stroke:#000000;stroke-width:8.5039;stroke-linecap:round;stroke-linejoin:round;stroke-miterlimit:22.9256;" d="
				M225.831,157.327c0,0,1.314-13.875-0.374-20.25"/>
			
				<path style="fill:none;stroke:#000000;stroke-width:8.5039;stroke-linecap:round;stroke-linejoin:round;stroke-miterlimit:22.9256;" d="
				M208.395,169.327c0,0,8.436-9.75,17.436-12.001"/>
			
				<path style="fill:none;stroke:#000000;stroke-width:8.5039;stroke-linecap:round;stroke-linejoin:round;stroke-miterlimit:22.9256;" d="
				M224.895,189.202c0-5.25-18.535-13.717-16.5-19.874"/>
			
				<path style="fill:none;stroke:#000000;stroke-width:8.5039;stroke-linecap:round;stroke-linejoin:round;stroke-miterlimit:22.9256;" d="
				M223.203,205.156c0,0,1.504-6.579,1.692-15.954"/>
		</g>
	</g>
</g>
<g id="n2203">
	<g id="_x3C_Group_x3E_">
		<g>
			<polygon style="fill-rule:evenodd;clip-rule:evenodd;fill:#E186AE;" points="137.512,351.858 138.863,340.462 140.545,318.429 
				143.918,307.239 149.885,300.299 157.201,298.197 164.591,300.738 169.976,304.245 172.873,308.752 169.476,314.347 
				166.362,316.937 166.731,324.319 167.216,340.926 166.386,346.148 158.144,343.868 149.468,345.968 143.415,350.02 
				137.512,351.858 			"/>
			
				<path style="fill:none;stroke:#000000;stroke-width:8.5039;stroke-linecap:round;stroke-linejoin:round;stroke-miterlimit:22.9256;" d="
				M137.227,353.414c3.41-17.186,0.187-56.14,21.775-55.214"/>
			
				<path style="fill:none;stroke:#000000;stroke-width:8.5039;stroke-linecap:round;stroke-linejoin:round;stroke-miterlimit:22.9256;" d="
				M152.822,318.862c7.768,1.064,40.224-10.485,6.179-20.662"/>
			
				<path style="fill:none;stroke:#000000;stroke-width:8.5039;stroke-linecap:round;stroke-linejoin:round;stroke-miterlimit:22.9256;" d="
				M167.637,346.898c0,0-0.696-17.084-1.313-30.798"/>
		</g>
	</g>
</g>
<g id="n2204">
	<g>
		<g>
			<g>
				<path style="fill-rule:evenodd;clip-rule:evenodd;fill:#67559E;" d="M285.239,280.155l-1.914-12.757l-6.244-12.478
					l-10.253-11.382l-16.778-8.746l-13.579-3.439l-18.621-0.976l-15.469,1.304l-13.075,2.507l-13.636,3.592l-14.978,2.223
					l-15.639,0.271l-12.958-1.541l-8.61-1.921l-7.922-2.272l-11.983-1.072l-11.374-0.971l-13.029,0.973l-13.648,5.225l-13.1,5.969
					l-10.613,9.652l-5.517,8.701l-3.75,9.211l-2.907,13.205l-0.143,15.013l1.781,9.909l4.746,13.285l7.361,12.989l7.495,9.816
					l11.099,11.347l11.709,8.855l12.369,7.203l13.008,6.184l14.116,5.189l15.978,4.061l16.486,2.271l14.814,0.444l16.164-1.195
					l15.849-2.855l16.118-4.645l16.078-6.508l13.254-7.071l12.891-9.175l11.42-10.98l8.436-11.124l8.228-16.1l4.657-15.982
					l1.719-13.327L285.239,280.155z M242.784,335.031c-25.667,20.333-75,42.667-155.667,13c0,0-32.333-14.667-34.667-36.667
					c-2.333-22-2-45.333,17.667-53c19.667-7.667,47.333-0.667,65.667-0.667s70-2.333,83.333-4.667
					c13.333-2.333,28.667-2.333,37,17.667C264.45,290.697,268.45,314.697,242.784,335.031z"/>
				<polygon style="fill-rule:evenodd;clip-rule:evenodd;fill:#FFFFFF;" points="74.824,339.155 78.326,333.966 83.501,326.649 
					88.86,319.837 95.061,316.117 101.59,316.734 105.967,319.209 108.83,324.4 116.178,326.508 120.935,331.903 123.008,335.415 
					131.784,333.284 140.392,336.341 146.652,340.166 153.774,333.783 163.411,329.475 172.279,331.382 178.286,335.386 
					181.377,339.103 187.389,334.085 194.654,330.645 202.505,330.424 208.655,324.903 215.601,319.544 220.152,319.329 
					227.128,312.08 233.662,312.024 240.564,315.957 245.176,320.563 251.96,325.292 244.489,334.38 235.067,342.659 
					221.475,350.89 203.114,357.758 187.688,361.024 170.238,362.713 153.137,362.748 140.825,362.003 122.224,359.411 
					107.734,355.801 94.662,350.924 84.706,345.826 74.824,339.155 				"/>
				<path style="fill-rule:evenodd;clip-rule:evenodd;fill:#61F4E5;" d="M77.167,258.01l9.708-2.135l13.596-0.239l13.453,0.791
					l18.734,2.296l15.563,0.754l17.053-0.419l9.22-0.893l17.586-2.388l11.279-1.584l11.846-1.39l11.967,0.488l2.139,6.235
					l1.072,7.578l-1.58,7.312l-3.459,5.58l-6.123,3.31l-10.026-1.079l-4.018,4.789l-8.591,2.073l-7.577-2.349l-5.549-3.152
					l-6.093,5.227c0,0-10.034,1.02-9.098,1.155c0.937,0.134-7.94-3.023-7.94-3.023l-7.186-5.254l-9.306,5.341l-10.608-0.2
					l-7.775-3.755l-3.762-2.901l-6.903,3.733l-6.749,1.024l-5.664-2.081l-2.713-2.43l-5.877,3.324l-7.062-3.92l-5.308-5.381
					l-3.74-8.314L77.167,258.01L77.167,258.01z"/>
				
					<path style="fill:none;stroke:#000000;stroke-width:8.5039;stroke-linecap:round;stroke-linejoin:round;stroke-miterlimit:22.9256;" d="
					M77.167,258.01c0,0-2.343,27.253,20.685,24.553"/>
				
					<path style="fill:none;stroke:#000000;stroke-width:8.5039;stroke-linecap:round;stroke-linejoin:round;stroke-miterlimit:22.9256;" d="
					M92.893,264.831c0,0,4.926,32.021,28.8,15.347"/>
				
					<path style="fill:none;stroke:#000000;stroke-width:8.5039;stroke-linecap:round;stroke-linejoin:round;stroke-miterlimit:22.9256;" d="
					M153.145,281.693c0,0-13.073,14.4-31.452-1.516"/>
				
					<path style="fill:none;stroke:#000000;stroke-width:8.5039;stroke-linecap:round;stroke-linejoin:round;stroke-miterlimit:22.9256;" d="
					M183.461,283.588c0,0-9.852,16.105-30.316-1.895"/>
				
					<path style="fill:none;stroke:#000000;stroke-width:8.5039;stroke-linecap:round;stroke-linejoin:round;stroke-miterlimit:22.9256;" d="
					M212.64,268.62c0,0-0.758,33.536-29.179,14.968"/>
				
					<path style="fill:none;stroke:#000000;stroke-width:8.5039;stroke-linecap:round;stroke-linejoin:round;stroke-miterlimit:22.9256;" d="
					M230.385,255.35c2.654,2.463,1.327,34.609-21.188,26.876"/>
				
					<path style="fill:none;stroke:#000000;stroke-width:8.5039;stroke-linecap:round;stroke-linejoin:round;stroke-miterlimit:22.9256;" d="
					M77.357,334.935c3.092-10.68,13.825-25.234,29.741-13.676"/>
				
					<path style="fill:none;stroke:#000000;stroke-width:8.5039;stroke-linecap:round;stroke-linejoin:round;stroke-miterlimit:22.9256;" d="
					M93.462,340.051c0,0,13.642-29.179,27.473-8.147"/>
				
					<path style="fill:none;stroke:#000000;stroke-width:8.5039;stroke-linecap:round;stroke-linejoin:round;stroke-miterlimit:22.9256;" d="
					M145.945,340.998c0,0-16.484-19.326-31.452,3.032"/>
				
					<path style="fill:none;stroke:#000000;stroke-width:8.5039;stroke-linecap:round;stroke-linejoin:round;stroke-miterlimit:22.9256;" d="
					M181.377,339.103c0,0-14.589-23.115-35.432,1.895"/>
				
					<path style="fill:none;stroke:#000000;stroke-width:8.5039;stroke-linecap:round;stroke-linejoin:round;stroke-miterlimit:22.9256;" d="
					M219.461,346.114c0,0-14.02-30.884-38.084-7.01"/>
				
					<path style="fill:none;stroke:#000000;stroke-width:8.5039;stroke-linecap:round;stroke-linejoin:round;stroke-miterlimit:22.9256;" d="
					M202.505,330.424c7.389-2.653,12.598-25.805,33.819,2.995"/>
				
					<path style="fill:none;stroke:#000000;stroke-width:8.5039;stroke-linecap:round;stroke-linejoin:round;stroke-miterlimit:22.9256;" d="
					M249.398,323.747c0,0-15.497-24.86-30.037-4.556"/>
				
					<path style="fill:none;stroke:#000000;stroke-width:8.5039;stroke-linecap:round;stroke-linejoin:round;stroke-miterlimit:22.9256;" d="
					M119.076,233.71c-20.842,0.189-32.035-7.557-58.06,4.375c-15.568,7.138-28.985,21.251-32.105,48.13"/>
				
					<path style="fill:none;stroke:#000000;stroke-width:8.5039;stroke-linecap:round;stroke-linejoin:round;stroke-miterlimit:22.9256;" d="
					M180.06,235.666c0,0,82.659-27.325,102.744,30.843"/>
				
					<path style="fill:none;stroke:#000000;stroke-width:8.5039;stroke-linecap:round;stroke-linejoin:round;stroke-miterlimit:22.9256;" d="
					M68.745,362.507c0,0-44.336-30.885-39.978-76.737"/>
				
					<path style="fill:none;stroke:#000000;stroke-width:8.5039;stroke-linecap:round;stroke-linejoin:round;stroke-miterlimit:22.9256;" d="
					M240.216,366.486c0,0-81.094,57.031-171.472-3.979"/>
				
					<path style="fill:none;stroke:#000000;stroke-width:8.5039;stroke-linecap:round;stroke-linejoin:round;stroke-miterlimit:22.9256;" d="
					M282.659,266.065c3.218,12.008,9.852,66.316-42.443,100.421"/>
				
					<path style="fill:none;stroke:#000000;stroke-width:8.5039;stroke-linecap:round;stroke-linejoin:round;stroke-miterlimit:22.9256;" d="
					M94.892,255.456c35.93,0.972,26.715,4.044,58.737,4.057c20.125,0.008,39.083-4.47,61.578-6.71"/>
				
					<path style="fill:none;stroke:#000000;stroke-width:8.5039;stroke-linecap:round;stroke-linejoin:round;stroke-miterlimit:22.9256;" d="
					M262.574,303.581c0,0,14.021-52.106-47.368-50.779"/>
				
					<path style="fill:none;stroke:#000000;stroke-width:8.5039;stroke-linecap:round;stroke-linejoin:round;stroke-miterlimit:22.9256;" d="
					M56.429,319.686c-7.404-10.983-15.16-64.338,38.463-64.231"/>
				
					<path style="fill:none;stroke:#000000;stroke-width:8.5039;stroke-linecap:round;stroke-linejoin:round;stroke-miterlimit:22.9256;" d="
					M262.574,303.581c-15.347,47.747-62.144,59.456-101.397,59.315c-40.922-0.146-81.283-9.246-104.748-43.21"/>
			</g>
			
				<path style="fill-rule:evenodd;clip-rule:evenodd;fill:none;stroke:#000000;stroke-width:8.5039;stroke-linecap:round;stroke-linejoin:round;stroke-miterlimit:22.9256;" d="
				M119.076,233.71c0,0,13.457,3.726,30.636,3.726s35.368-3.368,35.368-3.368"/>
		</g>
		<g>
			<polygon style="fill-rule:evenodd;clip-rule:evenodd;fill:#E186AE;" points="127.448,238.021 119.592,232.188 115.916,223.414 
				119.627,213.448 129.162,205.52 137.225,200.946 147.173,196.184 154.99,195.76 161.469,198.217 168.913,202.576 
				175.045,207.175 180.045,212.562 184.972,219.273 186.786,225.302 185.25,230.374 179.677,235.604 169.906,238.23 
				156.428,240.076 142.314,240.946 127.448,238.021 			"/>
			
				<path style="fill:none;stroke:#000000;stroke-width:8.5039;stroke-linecap:round;stroke-linejoin:round;stroke-miterlimit:22.9256;" d="
				M167.225,238.666c7.143-0.984,16.289-3.586,18.929-9.989c1.112-2.699,1.217-6.03-3.436-13.352
				c-4.652-7.322-19.231-17.611-27.727-19.565c0,0-3.946-0.802-7.817,0.425c-8.071,2.464-20.362,9.809-26.253,15.803
				c-5.891,5.993-5.615,13.555-4.074,17.567c3.162,8.23,11.217,8.801,18.093,9.537"/>
			
				<path style="fill:none;stroke:#000000;stroke-width:8.5039;stroke-linecap:round;stroke-linejoin:round;stroke-miterlimit:22.9256;" d="
				M136.468,221.503c-0.41,4.935-4.334,9.006-1.954,10.196C136.893,232.888,138.677,225.752,136.468,221.503L136.468,221.503z"/>
			
				<path style="fill:none;stroke:#000000;stroke-width:8.5039;stroke-linecap:round;stroke-linejoin:round;stroke-miterlimit:22.9256;" d="
				M162.398,222.744c5.581,3.244,8.921,10.487,6.084,11.575C165.475,235.471,163.699,229.161,162.398,222.744L162.398,222.744z"/>
			
				<path style="fill:none;stroke:#000000;stroke-width:8.5039;stroke-linecap:round;stroke-linejoin:round;stroke-miterlimit:22.9256;" d="
				M134.939,239.091c0,0,13.861,3.059,32.286-0.425"/>
		</g>
		
			<path style="fill:none;stroke:#000000;stroke-width:8.5039;stroke-linecap:round;stroke-linejoin:round;stroke-miterlimit:22.9256;" d="
			M127.749,183.165c0,0,19.368-13.79,42.226-0.96"/>
	</g>
</g>
</svg>
