<svg xmlns="http://www.w3.org/2000/svg" viewBox="0 0 371.258 540.679"><g id="n2301"><g><path fill-rule="evenodd" clip-rule="evenodd" fill="#e186ae" d="M186.254 402.851l6.211 2.427-1.148 4.136 11.27 11.589 10.844 8.18 4.136 1.981 1.125 7.125-4.41 8.593-7.499 7.251-7.592 6.468-11.683-8.959-10.1-11.431-6.666-10.327-3.8-7.72 9.656-9.656 9.656-9.657z"/><path d="M193.192 354.538s26.721-10.406 46.875 1.125c-2.533 9.093-1.259 26.091-1.259 26.091l.866 11.874 2.83 16.349-6.356 6.77-8.216 7.526-10.365 6.892-9.557-6.07-11.058-9.885-5.635-5.795 1.825-10.175.431-11.656-.067-22.812-.314-10.234z" fill-rule="evenodd" clip-rule="evenodd" fill="#67559e"/><path fill-rule="evenodd" clip-rule="evenodd" fill="#e186ae" d="M243.629 461.351l8.598-9.179 7.521-11.523 5.631-10.985-1.596-8.344-7.94-8.394-6.873-9.981-7.46 1.291.994 5.74-6.356 6.77-7.437 6.813-11.144 7.605.528 8.615 7.379 6.921 6.683 6.423 11.472 8.228z"/><path d="M154.191 443.539l6.12-7.145s10.519-6.912 10.69-6.05c.172.862 5.789 9.022 5.789 9.022l7.44 9.004 10.342 9.147 4.619 3.084 8.396-5.898 10.508-14.924 7.378 6.921 9.048 8.383 9.107 6.268 8.598-9.18 8.385-12.991 14.512 10.915-6.455 8.36-7.034 4.94-10.867 7.136-14.024 6.174-12.286 2.911-15.001.403-17.051-4.108-13.632-7.327-12.578-10.616-7.501-8.455-4.503-5.974z" fill-rule="evenodd" clip-rule="evenodd" fill="#4ab57e"/><path fill-rule="evenodd" clip-rule="evenodd" fill="#404041" d="M98.879 466.789l10.136-7.948 12.162-8.506 12.527-7.396 11.367-4.086 10.12 3.085 4.482 8.674 7.358 8.059 8.346 7.045 10.215 6.533 15.342 5.718 13.668 2.316 22.143-3.577 14.024-6.174 14.384-9.606 9.193-9.823 2.151-2.933-9.202-5.879 8.794-3.334 12.632-.762 9.376 5.81 11.437 8.191 12.467 9.886 10.878 9.207 2.437 5.25-5.55 8.377-11.759 12.943-15.596 12.245-20.845 11.501-18.417 6.965-22.615 5.259-20.056 1.908-21.404-.771-24.046-4.406-19.621-6.911-17.822-9.696-14.349-11.139-14.189-15.815-6.339-9.966-3.829-10.244z"/><path d="M144.717 435.661s4.491-4.321 10.119-2.832m-21.158 15.042s3.538-12.757 18.175-6.598m-53.011 26.353s21.215-17.971 39.636-26.292m28.339-18.466c7.115-5.264 12.908-15.213 19.275-19.35m5.075 6.553s14.659 17.409 26.292 21.699m24.897-21.237s-13.843 16.152-24.896 21.236m22.373-75.544s-4.098 24.696 2.522 54.308m-49.399-55.342s1.76 47.935-1.789 54.879m54.546-8.731s14.659 17.221 19.361 24.712m-21.493 35.855c3.188.369 18.883-23.611 21.688-31.73m-46.671 8.716s8.651 13.483 24.983 23.014m-44.44-.663s13.303-6.026 19.457-22.351m-51.781-16.024s9.797 24.731 32.324 38.374m18.735-7.536s-1.282 15.378.603 20.811m-64.371-30.249s5.275-10.161 17.248-12.421m105.759 15.743c-14.392 23.091-75.438 63.335-123.007-3.322m-12.909 14.463s3.542-10.694 13.858-8.465m13.198 37.287s32.476 19.812 77.452 7.161m-95.116-27.001s.364-5.813 10.295-8.833m1.155 15.185s.366-4.688 9.733-8.644m84.122 2.538s8.7 1.968 11.525 8.15m.536-17.639s6.376 4.5 8.447 9.371m-15.883-28.139s7.765 3.956 14.534 10.887m-8.668-7.27s11.454-8.105 25.715-2.508m40.748 30.858s-25.169-22.076-40.748-30.858" fill="none" stroke="#000" stroke-width="8.504" stroke-linecap="round" stroke-linejoin="round" stroke-miterlimit="22.926"/><path d="M98.657 469.502c11.72 28.343 45.261 61.475 103.423 66.376 58.053 4.891 112.957-23.518 133.217-58.964" fill="none" stroke="#000" stroke-width="8.504" stroke-linecap="round" stroke-linejoin="round" stroke-miterlimit="22.926"/></g></g><g id="n2302"><g><path fill-rule="evenodd" clip-rule="evenodd" fill="#4ab57e" d="M218.109 344.299l-110.24-31.911-8.62-101.071h118z"/><path fill-rule="evenodd" clip-rule="evenodd" fill="#e186ae" d="M318.869 306.388l-102 38-.859-132.983h118z"/><path fill-rule="evenodd" clip-rule="evenodd" fill="#4ab57e" d="M93.373 167.433l1.205 12.474 1.898 16.451 1.119 14.519-.095 9.136-4.739 10.919-1.725 10.326 5.314 2.974-4.257 9.566-2.322 8.431-1.06 6.157-6.96-1.442-6.268-4.835-1.214-7.985 1.315-7.014.057-5.945-3.542-15.657-4.994-23.1-.896-14.036 3.488-14.188 5.148-5.487 10.376-2.65 8.152 1.386z"/><path fill-rule="evenodd" clip-rule="evenodd" fill="#fff" d="M96.35 244.233l4.408-6.64 8.899-8.821 14.567-6.638 11.284-5.005 16.124-1.204 14.59 1.535 11.509.62 12.138 19.308 3 7-3-11 16-6 3.667 6.667 7.333-5.667 11 3h5l1 7 13.76-23.929.642 2.855 14.599-2.564 15.284-1.073 18.228 1.424 15.977 4.848 9.925 5.855 8.89 8.704 4.807 7.362 3.459-3.611-1.278-11.077-4.862-11.993-5.608-6.919 3.842-12.873 3.839-20.864 1.247-21.581-1.336-18.8-4.019-19.015-7.791-20.002-10.959-17.826-13.58-15.105-20.257-14.182-22.01-8.22-22.39-3.345-22.505-.019-19.301 1.74-21.05 4.261-19.743 7.204-14.791 8.47-14 11.927-12.493 16.669-8.342 16.563-5.567 16.865-2.609 13.898-1.044 13.197.426 18.653 1.918 19.223 1.859 18.509.512 11.828-1.406 6.995-3.381 8.492-1.678 9.229z"/><path fill-rule="evenodd" clip-rule="evenodd" fill="#f9d740" d="M335.655 169.65l8.396-2.707 10.385.661 7.95 5.088 4.27 10.734.233 8.885-2.137 13.558-2.59 9.514-3.093 10.664-2.51 12.241-.543 10.546 1.403 9.116-2.273 7.533-5.56 3.284-7.917.769-.528-9.768-1.891-10.241-1.539-9.463 2.514-5.555-2.525-9.155-4.4-10.166-5.608-6.918 3.842-12.874 1.92-10.431 1.71-9.297.491-6.018z"/><path d="M94.01 248.923s-7.141-18.202 4.859-31.535m228.823-9.118s15.177 8.452 13.04 35.613M115.412 78.882c15.375-20.625 41.995-39.19 93.019-42.261 29.44-1.771 70.645-.748 101.232 37.011m18.029 134.638s29.22-76.138-18.03-134.638M97.5 220.013c2.25-36.376-20.714-84.881 17.911-141.131m220.572 89.841s45.679-16.716 26.179 46.66m-5.625 36.375s-3.375-8.25 5.625-36.375m-20.25 53.624s19.875 3.75 14.625-17.249m-1.301-67.852s-15.949 19.102-3.574 34.477m-9 16.125c4.499-3.875 12.375-9.375 9-16.125m-258.289-50.95s-38.993-14.207-23.618 48.23m18.749 54.375c-16.378-6.823-15.7-9.534-12.92-22.928 1.374-6.621-2.925-17.688-5.83-31.447m9.482-34.161c4.688 11.438 9.333 12.406 5.143 27.975m7.767 24.838s-19.7-7.465-7.767-24.839" fill="none" stroke="#000" stroke-width="8.504" stroke-linecap="round" stroke-linejoin="round" stroke-miterlimit="22.926"/><g><g><path fill-rule="evenodd" clip-rule="evenodd" d="M145.971 143.12l7.44-4.683 5.006-1.897 2.303-9.564-.128-8.81-5.546-5.431-8.136.871-5.367 5.684-1.517 5.741-1.371 10.664-.989 19.137-.175 13.113.092 13.692.203 9.055 9.491-1.462 8.059-.735 4.2-.209.659-11.074-.972-8.88-6.908-7.651-7.681-7.319-1.422-7.836 2.759-2.406zm116.302 4.207l.456-12.393.795-12.14 2.373-8.054 7.32-4.195 9.297.844 4.841 4.969 1.18 6.416-.021 9.745-.347 5.146-6.956 3.089-5.567 4.12-4.914 4.792 3.666 7.001 5.114 4.316 5.613 4.857 2.107 3.7-.359 6.63-1.333 9.324-7.644.301-7.694.694-8.598 1.209.06-7.378.16-12.364.224-11.819.227-8.81z"/><path d="M132.449 99.696s15.938-25.313 37.5-19.5m87.188 0s24.563-10.687 47.25 19.5m-47.438 88.875s25.5-5.625 47.25-1.687m-178.875 6.937s16.313-5.812 40.688-5.625m-24.469-68.906c1.312-5.062 12.749-11.812 18.75-2.062m-22.507 73.464s-1.868-56.964 3.757-71.402m16.874 17.25s4.41-12.592 1.876-19.312m-18.375 29.625s6.562-7.5 16.499-10.312m.001 29.812c-5.25-6-16.688-12.375-16.5-19.5m17.618 41.433s2.069-16.309-1.118-21.934m105.937-48.749c2.25-8.062 19.311-11.625 23.438-.188m-26.191 70.283s.316-62.971 2.753-70.096m23.812 20.063s1.314-13.875-.374-20.25m-17.063 32.251s8.436-9.75 17.436-12.001m-.936 31.875c0-5.25-18.535-13.717-16.5-19.874m14.808 35.828s1.504-6.579 1.692-15.954" fill="none" stroke="#000" stroke-width="8.504" stroke-linecap="round" stroke-linejoin="round" stroke-miterlimit="22.926"/></g><g><path fill-rule="evenodd" clip-rule="evenodd" fill="#4ab57e" d="M297.963 62.194l9.835-5.683 7.232-6.069 5.749-5.41 7.584 9.171 7.651 10.883 6.364 11.002 5.257 13.522 3.022 13.813.684 14.581-2.275 15.502-4.259 12.304-3.927 7.729-4.849-.036-.22-10.889-1.638-15.534-3.441-14.887-6.837-17.101-7.495-12.523-8.57-10.726-9.867-9.649z"/><path fill-rule="evenodd" clip-rule="evenodd" fill="#67559e" d="M93.529 156.27l.437-16.35 2.349-16.784 5.694-19.478 8.555-18.998 12.567-13.871 13.077-10.941 14.702-3.384 15.716-.824 19.003.944 20.406 2.54 23.013 3.658 19.079 2.714 20.687 1.357 16.673-1.394 12.476-3.265 11.341-6.947 11.102-10.61-8.739-7.359-9.478-5.493-14.595-6.287-16.942-7.872-22.412-7.59-27.106-5.072-23.197-.393-21.611 3.56-22.546 7.776-15.923 8.876-12.625 11.15-7.559 9.774-6.268 11.86-7.581 6.112-12.175 8.58-7.34 8.91-5.555 13.863-1.533 14.568.904 11.81 3.655 16.551 5.657 15.914 6.092 2.395z"/><path d="M136.717 47.254c69.375-15.938 86.625 6.187 129 6M159.03 32.442s27.75-7.875 49.875-1.688m-92.438 35.438c68.25-33.717 154.876 28.125 198.563-15.75M95.467 176.629s-15.97-79.384 42.587-118.03m197.601 109.03c.592-21.54 4.755-68.45-37.692-105.435M94.162 167.981s-32.632-57.164-7.32-90.539m24.563-19.875c-6.938 7.313-17.812 10.687-24.562 19.875M186.03 6.004s-26.614 4.273-46.926 17.924c-15.076 10.13-23.806 23.993-27.699 33.639m180.562-29.625S240.592-3.371 186.029 6.004m148.876 57.563c9.952 13.109 29.062 52.876 4.5 92.438M291.967 27.942c14.625 9 21 2.438 42.938 35.625" fill="none" stroke="#000" stroke-width="8.504" stroke-linecap="round" stroke-linejoin="round" stroke-miterlimit="22.926"/></g></g></g></g><g id="n2303"><g><path fill-rule="evenodd" clip-rule="evenodd" fill="#f9d740" d="M199.65 323.178l1.351-11.086 1.682-21.434 3.373-10.887 5.967-6.751 7.316-2.045 7.39 2.472 5.386 3.412 2.896 4.384-3.397 5.443-3.114 2.52.369 7.182.485 16.156-.83 5.079-8.241-2.217-8.677 2.042-6.053 3.943-5.903 1.787z"/><path d="M199.365 324.693c3.41-16.719.187-54.615 21.775-53.715m-6.179 20.101c7.768 1.035 40.224-10.2 6.179-20.101m8.635 47.375s-.696-16.62-1.313-29.962" fill="none" stroke="#000" stroke-width="8.504" stroke-linecap="round" stroke-linejoin="round" stroke-miterlimit="22.926"/></g></g><g id="n2304"><g><g><g><path d="M344.372 258.441l-1.914-12.757-6.244-12.478-10.253-11.382-16.778-8.746-13.579-3.439-18.621-.976-15.469 1.304-13.075 2.507-13.636 3.592-14.978 2.223-15.639.271-12.958-1.541-8.61-1.921-7.922-2.272-11.983-1.072-11.374-.971-13.029.973-13.648 5.225-13.1 5.969-10.613 9.652-5.517 8.701-3.75 9.211-2.907 13.205-.143 15.013 1.781 9.909 4.746 13.285 7.361 12.989 7.495 9.816 11.099 11.347 11.709 8.855 12.369 7.203 13.008 6.184 14.116 5.189 15.978 4.061 16.486 2.271 14.814.444 16.164-1.195 15.849-2.855 16.118-4.645 16.078-6.508 13.254-7.071 12.891-9.175 11.42-10.98 8.436-11.124 8.228-16.1 4.657-15.982 1.719-13.327-.036-12.882zm-42.456 54.876c-25.667 20.333-75 42.667-155.667 13 0 0-32.333-14.667-34.667-36.667-2.333-22-2-45.333 17.667-53 19.667-7.667 47.333-.667 65.667-.667s70-2.333 83.333-4.667c13.333-2.333 28.667-2.333 37 17.667 8.334 20 12.334 44-13.333 64.334z" fill-rule="evenodd" clip-rule="evenodd" fill="#fff"/><path fill-rule="evenodd" clip-rule="evenodd" fill="#fff" d="M133.957 317.441l3.501-5.189 5.176-7.317 5.358-6.812 6.202-3.72 6.529.617 4.376 2.475 2.864 5.191 7.347 2.108 4.758 5.395 2.073 3.512 8.775-2.131 8.609 3.057 6.259 3.825 7.123-6.383 9.636-4.308 8.869 1.907 6.007 4.004 3.09 3.717 6.012-5.018 7.265-3.44 7.851-.221 6.15-5.521 6.947-5.359 4.551-.215 6.976-7.249 6.534-.056 6.901 3.933 4.613 4.606 6.783 4.729-7.47 9.088-9.422 8.279-13.593 8.231-18.361 6.868-15.426 3.266-17.449 1.689-17.102.035-12.311-.745-18.602-2.592-14.49-3.61-13.072-4.877-9.956-5.098-9.881-6.671z"/><path d="M136.3 236.296l9.708-2.135 13.596-.239 13.453.791 18.734 2.296 15.563.754 17.053-.419 9.22-.893 17.586-2.388 11.279-1.584 11.846-1.39 11.967.488 2.139 6.235 1.072 7.578-1.58 7.312-3.459 5.58-6.123 3.31-10.026-1.079-4.018 4.789-8.591 2.073-7.577-2.349-5.549-3.152-6.093 5.227s-10.034 1.02-9.098 1.155c.937.134-7.94-3.023-7.94-3.023l-7.186-5.254-9.306 5.341-10.608-.2-7.775-3.755-3.762-2.901-6.903 3.733-6.749 1.024-5.664-2.081-2.713-2.43-5.877 3.324-7.062-3.92-5.308-5.381-3.74-8.314-.509-8.123z" fill-rule="evenodd" clip-rule="evenodd" fill="#61f4e5"/><path d="M136.3 236.296s-2.343 27.253 20.685 24.553m-4.959-17.732s4.926 32.021 28.8 15.347m31.451 1.515s-13.073 14.4-31.452-1.516m61.769 3.411s-9.852 16.105-30.316-1.895m59.494-13.073s-.758 33.536-29.179 14.968m46.924-28.238c2.654 2.463 1.327 34.609-21.188 26.876m-131.84 52.709c3.092-10.68 13.825-25.234 29.741-13.676m-13.636 18.792s13.642-29.179 27.473-8.147m25.011 9.094s-16.484-19.326-31.452 3.032m66.883-4.927s-14.589-23.115-35.432 1.895m73.516 5.116s-14.02-30.884-38.084-7.01m21.128-8.68c7.389-2.653 12.598-25.805 33.819 2.995m13.075-9.672s-15.497-24.86-30.037-4.556" fill="none" stroke="#000" stroke-width="8.504" stroke-linecap="round" stroke-linejoin="round" stroke-miterlimit="22.926"/><path d="M178.208 211.996c-20.842.189-32.035-7.557-58.06 4.375-15.568 7.138-28.985 21.251-32.105 48.13m151.149-50.549s82.659-27.325 102.744 30.843m-214.059 95.998s-44.336-30.885-39.978-76.737m211.45 80.716s-81.094 57.031-171.472-3.979m213.915-96.442c3.218 12.008 9.852 66.316-42.443 100.421m-145.325-111.03c35.93.972 26.715 4.044 58.737 4.057 20.125.008 39.083-4.47 61.578-6.711m47.368 50.779s14.021-52.106-47.368-50.779m-158.777 66.884c-7.404-10.983-15.16-64.338 38.463-64.231m167.682 48.126c-15.347 47.747-62.144 59.456-101.397 59.315-40.922-.146-81.283-9.246-104.748-43.21" fill="none" stroke="#000" stroke-width="8.504" stroke-linecap="round" stroke-linejoin="round" stroke-miterlimit="22.926"/></g><path d="M178.208 211.996s13.457 3.726 30.636 3.726 35.368-3.368 35.368-3.368" fill-rule="evenodd" clip-rule="evenodd" fill="none" stroke="#000" stroke-width="8.504" stroke-linecap="round" stroke-linejoin="round" stroke-miterlimit="22.926"/></g><g><path fill-rule="evenodd" clip-rule="evenodd" fill="#67559e" d="M187.205 216.148l-8.281-6.147-3.875-9.249 3.912-10.505 10.051-8.358 8.499-4.821 10.487-5.019 8.24-.448 6.83 2.59 7.846 4.595 6.463 4.847 5.271 5.68 5.194 7.073 1.912 6.356-1.62 5.346-5.874 5.513-10.299 2.768-14.208 1.946-14.877.917-15.671-3.084z"/><path d="M229.134 216.828c7.529-1.037 17.17-3.78 19.953-10.53 1.173-2.845 1.283-6.357-3.621-14.075-4.904-7.718-20.272-18.564-29.228-20.623 0 0-4.16-.845-8.24.448-8.508 2.597-21.464 10.34-27.673 16.658-6.209 6.318-5.919 14.288-4.295 18.517 3.333 8.675 11.824 9.278 19.072 10.053" fill="none" stroke="#000" stroke-width="8.504" stroke-linecap="round" stroke-linejoin="round" stroke-miterlimit="22.926"/><path d="M196.714 198.737c-.432 5.202-4.568 9.493-2.06 10.748 2.508 1.254 4.388-6.269 2.06-10.748zm27.332 1.309c5.883 3.419 9.404 11.055 6.413 12.201-3.169 1.214-5.042-5.438-6.413-12.201zm-28.944 17.23s14.611 3.225 34.032-.448" fill="none" stroke="#000" stroke-width="8.504" stroke-linecap="round" stroke-linejoin="round" stroke-miterlimit="22.926"/></g><path d="M189.048 164.884s20.416-14.536 44.511-1.012" fill="none" stroke="#000" stroke-width="8.504" stroke-linecap="round" stroke-linejoin="round" stroke-miterlimit="22.926"/></g></g><g id="n2305"><g><path fill-rule="evenodd" clip-rule="evenodd" fill="#f9d740" d="M23.846 413.214l-3.631-8.796L15.967 391l-1.352-11.927 3.102-7.416 5.226-2.093 8.152 5 2.78 6.794 2.354 8.512 1.928 8.619 5.53 11.987 3.732-3.731L49 401.123l2.115-10.762 1.552-10.674 1.63-8.318 4.833-5.85 7.835.109 4.087 5.301.317 7.208-.487 9.279-2.001 12.547-2.59 11.542-2.071 10.09-2.011 8.039-6.872-6.627-8.157-.498-4.475 3.71-3.019-1.898-3.467-6.996-7.21-4.083-5.163-.028z"/><path d="M16.587 415.015l7.259-1.801 8.056 1.101 4.317 3.01 3.196 5.373 4.728 1.598 6.378-2.236 7.158 2.252s3.619 5.236 4.53 5.321c.911.086 5.296 8.949 5.296 8.949l5.972 11.066.939 10.522-2.629 7.488-6.146 6.817-10.92 5.869-.089 8.953-.063 9.947-.008 9.172.138 9.64-.779 7.418-5.163 5.496-7.964 1.525-8.538-1.596-5.042-5.538.026-10.893-.641-13.526-1.167-11.228-2.44-10.425-4.493-6.904-8.613-12.528-3.504-13.472-2.087-11.639 2.33-9.874 3.572-5.41 6.391-4.447z" fill-rule="evenodd" clip-rule="evenodd" fill="#f9d740"/><path d="M16.714 424.546c.155 4.353 13.37 19.433 21.299 7.151m-10.416-18.655c3.576 0 16.79 6.062 10.416 18.656m-33.736 5.441s-1.71-24.253 23.32-24.097m-11.971 55.967s-10.417-11.505-11.35-31.87m21.377 54.49c-1.064-8.988-1.088-12.593-10.027-22.62m11.738 50.448s-.314-18.938-1.71-27.828m29.067-11.283s-.462 38.023.16 39.889m-2.954-39.022s32.959-7.929 19.433-37.156m-13.68-19.744c-2.643-2.487-18.375-6.755-16.169 11.971m27.673 5.441s-8.131-15.759-11.504-17.412m-33.834-11.099s-10.319-22.326-9.23-34.141m16.479-4.509c6.995 13.992 6.219 31.559 12.593 35.912m3.731-3.731c2.798-8.084 5.13-25.03 5.752-31.56m18.034-2.642c.155-8.551-14.77-13.526-18.034 2.642m9.847 55.703c1.631-20.096 9.587-35.026 8.187-58.345m-40.11 2.021c-3.109-7.151-15.702-7.463-16.479 4.508" fill="none" stroke="#000" stroke-width="8.504" stroke-linecap="round" stroke-linejoin="round" stroke-miterlimit="22.926"/><path d="M27.364 519.457c.285 13.327 8.516 12.983 13.429 13.04 3.462.04 13.877-.419 14.089-12.262m-22.078-59.388s6.685-7.773 18.656-11.349m-9.949-13.214s1.866 8.24 9.95 13.215m-36.535-9.484s6.512-5.364 9.553-5.636" fill="none" stroke="#000" stroke-width="8.504" stroke-linecap="round" stroke-linejoin="round" stroke-miterlimit="22.926"/></g></g></svg>