<svg version="1.1" xmlns="http://www.w3.org/2000/svg" xmlns:xlink="http://www.w3.org/1999/xlink" x="0px" y="0px"
	 viewBox="0 0 371.258 540.679" style="enable-background:new 0 0 371.258 540.679;" xml:space="preserve">
<g id="n2301">
	<g>
		<polygon style="fill-rule:evenodd;clip-rule:evenodd;fill:#E186AE;" points="186.254,402.851 192.465,405.278 191.317,409.414 
			202.587,421.003 213.431,429.183 217.567,431.164 218.692,438.289 214.282,446.882 206.783,454.133 199.191,460.601 
			187.508,451.642 177.408,440.211 170.742,429.884 166.942,422.164 176.598,412.508 186.254,402.851 		"/>
		<path style="fill-rule:evenodd;clip-rule:evenodd;fill:#67559E;" d="M193.192,354.538c0,0,26.721-10.406,46.875,1.125
			c-2.533,9.093-1.259,26.091-1.259,26.091l0.866,11.874l2.83,16.349l-6.356,6.77l-8.216,7.526l-10.365,6.892l-9.557-6.07
			l-11.058-9.885l-5.635-5.795l1.825-10.175l0.431-11.656l-0.067-22.812L193.192,354.538L193.192,354.538z"/>
		<polygon style="fill-rule:evenodd;clip-rule:evenodd;fill:#E186AE;" points="243.629,461.351 252.227,452.172 259.748,440.649 
			265.379,429.664 263.783,421.32 255.843,412.926 248.97,402.945 241.51,404.236 242.504,409.976 236.148,416.746 228.711,423.559 
			217.567,431.164 218.095,439.779 225.474,446.7 232.157,453.123 243.629,461.351 		"/>
		<path style="fill-rule:evenodd;clip-rule:evenodd;fill:#4AB57E;" d="M154.191,443.539l6.12-7.145c0,0,10.519-6.912,10.69-6.05
			c0.172,0.862,5.789,9.022,5.789,9.022l7.44,9.004l10.342,9.147l4.619,3.084l8.396-5.898l10.508-14.924l7.378,6.921l9.048,8.383
			l9.107,6.268l8.598-9.18l8.385-12.991l14.512,10.915l-6.455,8.36l-7.034,4.94l-10.867,7.136l-14.024,6.174l-12.286,2.911
			l-15.001,0.403l-17.051-4.108l-13.632-7.327l-12.578-10.616l-7.501-8.455L154.191,443.539L154.191,443.539z"/>
		<polygon style="fill-rule:evenodd;clip-rule:evenodd;fill:#404041;" points="98.879,466.789 109.015,458.841 121.177,450.335 
			133.704,442.939 145.071,438.853 155.191,441.938 159.673,450.612 167.031,458.671 175.377,465.716 185.592,472.249 
			200.934,477.967 214.602,480.283 236.745,476.706 250.769,470.532 265.153,460.926 274.346,451.103 276.497,448.17 
			267.295,442.291 276.089,438.957 288.721,438.195 298.097,444.005 309.534,452.196 322.001,462.082 332.879,471.289 
			335.316,476.539 329.766,484.916 318.007,497.859 302.411,510.104 281.566,521.605 263.149,528.57 240.534,533.829 
			220.478,535.737 199.074,534.966 175.028,530.56 155.407,523.649 137.585,513.953 123.236,502.814 109.047,486.999 
			102.708,477.033 98.879,466.789 		"/>
		
			<path style="fill:none;stroke:#000000;stroke-width:8.5039;stroke-linecap:round;stroke-linejoin:round;stroke-miterlimit:22.9256;" d="
			M144.717,435.661c0,0,4.491-4.321,10.119-2.832"/>
		
			<path style="fill:none;stroke:#000000;stroke-width:8.5039;stroke-linecap:round;stroke-linejoin:round;stroke-miterlimit:22.9256;" d="
			M133.678,447.871c0,0,3.538-12.757,18.175-6.598"/>
		
			<path style="fill:none;stroke:#000000;stroke-width:8.5039;stroke-linecap:round;stroke-linejoin:round;stroke-miterlimit:22.9256;" d="
			M98.842,467.626c0,0,21.215-17.971,39.636-26.292"/>
		
			<path style="fill:none;stroke:#000000;stroke-width:8.5039;stroke-linecap:round;stroke-linejoin:round;stroke-miterlimit:22.9256;" d="
			M166.817,422.868c7.115-5.264,12.908-15.213,19.275-19.35"/>
		
			<path style="fill:none;stroke:#000000;stroke-width:8.5039;stroke-linecap:round;stroke-linejoin:round;stroke-miterlimit:22.9256;" d="
			M191.167,410.071c0,0,14.659,17.409,26.292,21.699"/>
		
			<path style="fill:none;stroke:#000000;stroke-width:8.5039;stroke-linecap:round;stroke-linejoin:round;stroke-miterlimit:22.9256;" d="
			M242.356,410.533c0,0-13.843,16.152-24.896,21.236"/>
		
			<path style="fill:none;stroke:#000000;stroke-width:8.5039;stroke-linecap:round;stroke-linejoin:round;stroke-miterlimit:22.9256;" d="
			M239.833,356.225c0,0-4.098,24.696,2.522,54.308"/>
		
			<path style="fill:none;stroke:#000000;stroke-width:8.5039;stroke-linecap:round;stroke-linejoin:round;stroke-miterlimit:22.9256;" d="
			M192.956,355.191c0,0,1.76,47.935-1.789,54.879"/>
		
			<path style="fill:none;stroke:#000000;stroke-width:8.5039;stroke-linecap:round;stroke-linejoin:round;stroke-miterlimit:22.9256;" d="
			M245.713,401.339c0,0,14.659,17.221,19.361,24.712"/>
		
			<path style="fill:none;stroke:#000000;stroke-width:8.5039;stroke-linecap:round;stroke-linejoin:round;stroke-miterlimit:22.9256;" d="
			M243.581,461.906c3.188,0.369,18.883-23.611,21.688-31.73"/>
		
			<path style="fill:none;stroke:#000000;stroke-width:8.5039;stroke-linecap:round;stroke-linejoin:round;stroke-miterlimit:22.9256;" d="
			M218.598,438.892c0,0,8.651,13.483,24.983,23.014"/>
		
			<path style="fill:none;stroke:#000000;stroke-width:8.5039;stroke-linecap:round;stroke-linejoin:round;stroke-miterlimit:22.9256;" d="
			M199.141,461.243c0,0,13.303-6.026,19.457-22.351"/>
		
			<path style="fill:none;stroke:#000000;stroke-width:8.5039;stroke-linecap:round;stroke-linejoin:round;stroke-miterlimit:22.9256;" d="
			M166.817,422.868c0,0,9.797,24.731,32.324,38.374"/>
		
			<path style="fill:none;stroke:#000000;stroke-width:8.5039;stroke-linecap:round;stroke-linejoin:round;stroke-miterlimit:22.9256;" d="
			M217.876,453.706c0,0-1.282,15.378,0.603,20.811"/>
		
			<path style="fill:none;stroke:#000000;stroke-width:8.5039;stroke-linecap:round;stroke-linejoin:round;stroke-miterlimit:22.9256;" d="
			M154.108,444.268c0,0,5.275-10.161,17.248-12.421"/>
		
			<path style="fill:none;stroke:#000000;stroke-width:8.5039;stroke-linecap:round;stroke-linejoin:round;stroke-miterlimit:22.9256;" d="
			M277.115,447.59c-14.392,23.091-75.438,63.335-123.007-3.322"/>
		
			<path style="fill:none;stroke:#000000;stroke-width:8.5039;stroke-linecap:round;stroke-linejoin:round;stroke-miterlimit:22.9256;" d="
			M141.199,458.731c0,0,3.542-10.694,13.858-8.465"/>
		
			<path style="fill:none;stroke:#000000;stroke-width:8.5039;stroke-linecap:round;stroke-linejoin:round;stroke-miterlimit:22.9256;" d="
			M168.255,487.553c0,0,32.476,19.812,77.452,7.161"/>
		
			<path style="fill:none;stroke:#000000;stroke-width:8.5039;stroke-linecap:round;stroke-linejoin:round;stroke-miterlimit:22.9256;" d="
			M150.591,467.713c0,0,0.364-5.813,10.295-8.833"/>
		
			<path style="fill:none;stroke:#000000;stroke-width:8.5039;stroke-linecap:round;stroke-linejoin:round;stroke-miterlimit:22.9256;" d="
			M162.041,474.065c0,0,0.366-4.688,9.733-8.644"/>
		
			<path style="fill:none;stroke:#000000;stroke-width:8.5039;stroke-linecap:round;stroke-linejoin:round;stroke-miterlimit:22.9256;" d="
			M255.896,467.959c0,0,8.7,1.968,11.525,8.15"/>
		
			<path style="fill:none;stroke:#000000;stroke-width:8.5039;stroke-linecap:round;stroke-linejoin:round;stroke-miterlimit:22.9256;" d="
			M267.957,458.47c0,0,6.376,4.5,8.447,9.371"/>
		
			<path style="fill:none;stroke:#000000;stroke-width:8.5039;stroke-linecap:round;stroke-linejoin:round;stroke-miterlimit:22.9256;" d="
			M260.521,439.702c0,0,7.765,3.956,14.534,10.887"/>
		
			<path style="fill:none;stroke:#000000;stroke-width:8.5039;stroke-linecap:round;stroke-linejoin:round;stroke-miterlimit:22.9256;" d="
			M266.387,443.319c0,0,11.454-8.105,25.715-2.508"/>
		
			<path style="fill:none;stroke:#000000;stroke-width:8.5039;stroke-linecap:round;stroke-linejoin:round;stroke-miterlimit:22.9256;" d="
			M332.85,471.669c0,0-25.169-22.076-40.748-30.858"/>
		
			<path style="fill:none;stroke:#000000;stroke-width:8.5039;stroke-linecap:round;stroke-linejoin:round;stroke-miterlimit:22.9256;" d="
			M98.657,469.502c11.72,28.343,45.261,61.475,103.423,66.376c58.053,4.891,112.957-23.518,133.217-58.964"/>
	</g>
</g>
<g id="n2302">
	<g>
		<polygon style="fill-rule:evenodd;clip-rule:evenodd;fill:#4AB57E;" points="218.109,344.299 107.869,312.388 99.249,211.317 
			217.249,211.317 		"/>
		<polygon style="fill-rule:evenodd;clip-rule:evenodd;fill:#E186AE;" points="318.869,306.388 216.869,344.388 216.01,211.405 
			334.01,211.405 		"/>
		<polygon style="fill-rule:evenodd;clip-rule:evenodd;fill:#4AB57E;" points="93.373,167.433 94.578,179.907 96.476,196.358 
			97.595,210.877 97.5,220.013 92.761,230.932 91.036,241.258 96.35,244.232 92.093,253.798 89.771,262.229 88.711,268.386 
			81.751,266.944 75.483,262.109 74.269,254.124 75.584,247.11 75.641,241.165 72.099,225.508 67.105,202.408 66.209,188.372 
			69.697,174.184 74.845,168.697 85.221,166.047 93.373,167.433 		"/>
		<polygon style="fill-rule:evenodd;clip-rule:evenodd;fill:#FFFFFF;" points="96.35,244.233 100.758,237.593 109.657,228.772 
			124.224,222.134 135.508,217.129 151.632,215.925 166.222,217.46 177.731,218.08 189.869,237.388 192.869,244.388 
			189.869,233.388 205.869,227.388 209.536,234.055 216.869,228.388 227.869,231.388 232.869,231.388 233.869,238.388 
			247.629,214.459 248.271,217.314 262.87,214.75 278.154,213.677 296.382,215.101 312.359,219.949 322.284,225.804 
			331.174,234.508 335.981,241.87 339.44,238.259 338.162,227.182 333.3,215.189 327.692,208.27 331.534,195.397 335.373,174.533 
			336.62,152.952 335.284,134.152 331.265,115.137 323.474,95.135 312.515,77.309 298.935,62.204 278.678,48.022 256.668,39.802 
			234.278,36.457 211.773,36.438 192.472,38.178 171.422,42.439 151.679,49.643 136.888,58.113 122.888,70.04 110.395,86.709 
			102.053,103.272 96.486,120.137 93.877,134.035 92.833,147.232 93.259,165.885 95.177,185.108 97.036,203.617 97.548,215.445 
			96.142,222.44 92.761,230.932 91.083,240.161 		"/>
		<polygon style="fill-rule:evenodd;clip-rule:evenodd;fill:#F9D740;" points="335.655,169.65 344.051,166.943 354.436,167.604 
			362.386,172.692 366.656,183.426 366.889,192.311 364.752,205.869 362.162,215.383 359.069,226.047 356.559,238.288 
			356.016,248.834 357.419,257.95 355.146,265.483 349.586,268.767 341.669,269.536 341.141,259.768 339.25,249.527 
			337.711,240.064 340.225,234.509 337.7,225.354 333.3,215.188 327.692,208.27 331.534,195.396 333.454,184.965 335.164,175.668 
			335.655,169.65 		"/>
		
			<path style="fill:none;stroke:#000000;stroke-width:8.5039;stroke-linecap:round;stroke-linejoin:round;stroke-miterlimit:22.9256;" d="
			M94.01,248.923c0,0-7.141-18.202,4.859-31.535"/>
		
			<path style="fill:none;stroke:#000000;stroke-width:8.5039;stroke-linecap:round;stroke-linejoin:round;stroke-miterlimit:22.9256;" d="
			M327.692,208.27c0,0,15.177,8.452,13.04,35.613"/>
		
			<path style="fill:none;stroke:#000000;stroke-width:8.5039;stroke-linecap:round;stroke-linejoin:round;stroke-miterlimit:22.9256;" d="
			M115.412,78.882c15.375-20.625,41.995-39.19,93.019-42.261c29.44-1.771,70.645-0.748,101.232,37.011"/>
		
			<path style="fill:none;stroke:#000000;stroke-width:8.5039;stroke-linecap:round;stroke-linejoin:round;stroke-miterlimit:22.9256;" d="
			M327.692,208.27c0,0,29.22-76.138-18.03-134.638"/>
		
			<path style="fill:none;stroke:#000000;stroke-width:8.5039;stroke-linecap:round;stroke-linejoin:round;stroke-miterlimit:22.9256;" d="
			M97.5,220.013c2.25-36.376-20.714-84.881,17.911-141.131"/>
		
			<path style="fill:none;stroke:#000000;stroke-width:8.5039;stroke-linecap:round;stroke-linejoin:round;stroke-miterlimit:22.9256;" d="
			M335.983,168.723c0,0,45.679-16.716,26.179,46.66"/>
		
			<path style="fill:none;stroke:#000000;stroke-width:8.5039;stroke-linecap:round;stroke-linejoin:round;stroke-miterlimit:22.9256;" d="
			M356.537,251.758c0,0-3.375-8.25,5.625-36.375"/>
		
			<path style="fill:none;stroke:#000000;stroke-width:8.5039;stroke-linecap:round;stroke-linejoin:round;stroke-miterlimit:22.9256;" d="
			M341.912,269.007c0,0,19.875,3.75,14.625-17.249"/>
		
			<path style="fill:none;stroke:#000000;stroke-width:8.5039;stroke-linecap:round;stroke-linejoin:round;stroke-miterlimit:22.9256;" d="
			M355.236,183.906c0,0-15.949,19.102-3.574,34.477"/>
		
			<path style="fill:none;stroke:#000000;stroke-width:8.5039;stroke-linecap:round;stroke-linejoin:round;stroke-miterlimit:22.9256;" d="
			M342.662,234.508c4.499-3.875,12.375-9.375,9-16.125"/>
		
			<path style="fill:none;stroke:#000000;stroke-width:8.5039;stroke-linecap:round;stroke-linejoin:round;stroke-miterlimit:22.9256;" d="
			M93.373,167.433c0,0-38.993-14.207-23.618,48.23"/>
		
			<path style="fill:none;stroke:#000000;stroke-width:8.5039;stroke-linecap:round;stroke-linejoin:round;stroke-miterlimit:22.9256;" d="
			M88.504,270.038c-16.378-6.823-15.7-9.534-12.92-22.928c1.374-6.621-2.925-17.688-5.83-31.447"/>
		
			<path style="fill:none;stroke:#000000;stroke-width:8.5039;stroke-linecap:round;stroke-linejoin:round;stroke-miterlimit:22.9256;" d="
			M79.236,181.502c4.688,11.438,9.333,12.406,5.143,27.975"/>
		
			<path style="fill:none;stroke:#000000;stroke-width:8.5039;stroke-linecap:round;stroke-linejoin:round;stroke-miterlimit:22.9256;" d="
			M92.146,234.315c0,0-19.7-7.465-7.767-24.839"/>
		<g>
			<g>
				<polygon style="fill-rule:evenodd;clip-rule:evenodd;" points="145.971,143.12 153.411,138.437 158.417,136.54 160.72,126.976 
					160.592,118.166 155.046,112.735 146.91,113.606 141.543,119.29 140.026,125.031 138.655,135.695 137.666,154.832 
					137.491,167.945 137.583,181.637 137.786,190.692 147.277,189.23 155.336,188.495 159.536,188.286 160.195,177.212 
					159.223,168.332 152.315,160.681 144.634,153.362 143.212,145.526 145.971,143.12 				"/>
				<polygon style="fill-rule:evenodd;clip-rule:evenodd;" points="262.273,147.327 262.729,134.934 263.524,122.794 
					265.897,114.74 273.217,110.545 282.514,111.389 287.355,116.358 288.535,122.774 288.514,132.519 288.167,137.665 
					281.211,140.754 275.644,144.874 270.73,149.666 274.396,156.667 279.51,160.983 285.123,165.84 287.23,169.54 286.871,176.17 
					285.538,185.494 277.894,185.795 270.2,186.489 261.602,187.698 261.662,180.32 261.822,167.956 262.046,156.137 
					262.273,147.327 				"/>
				
					<path style="fill:none;stroke:#000000;stroke-width:8.5039;stroke-linecap:round;stroke-linejoin:round;stroke-miterlimit:22.9256;" d="
					M132.449,99.696c0,0,15.938-25.313,37.5-19.5"/>
				
					<path style="fill:none;stroke:#000000;stroke-width:8.5039;stroke-linecap:round;stroke-linejoin:round;stroke-miterlimit:22.9256;" d="
					M257.137,80.196c0,0,24.563-10.687,47.25,19.5"/>
				
					<path style="fill:none;stroke:#000000;stroke-width:8.5039;stroke-linecap:round;stroke-linejoin:round;stroke-miterlimit:22.9256;" d="
					M256.949,188.571c0,0,25.5-5.625,47.25-1.687"/>
				
					<path style="fill:none;stroke:#000000;stroke-width:8.5039;stroke-linecap:round;stroke-linejoin:round;stroke-miterlimit:22.9256;" d="
					M125.324,193.821c0,0,16.313-5.812,40.688-5.625"/>
				
					<path style="fill:none;stroke:#000000;stroke-width:8.5039;stroke-linecap:round;stroke-linejoin:round;stroke-miterlimit:22.9256;" d="
					M141.543,119.29c1.312-5.062,12.749-11.812,18.75-2.062"/>
				
					<path style="fill:none;stroke:#000000;stroke-width:8.5039;stroke-linecap:round;stroke-linejoin:round;stroke-miterlimit:22.9256;" d="
					M137.786,190.692c0,0-1.868-56.964,3.757-71.402"/>
				
					<path style="fill:none;stroke:#000000;stroke-width:8.5039;stroke-linecap:round;stroke-linejoin:round;stroke-miterlimit:22.9256;" d="
					M158.417,136.54c0,0,4.41-12.592,1.876-19.312"/>
				
					<path style="fill:none;stroke:#000000;stroke-width:8.5039;stroke-linecap:round;stroke-linejoin:round;stroke-miterlimit:22.9256;" d="
					M141.918,146.853c0,0,6.562-7.5,16.499-10.312"/>
				
					<path style="fill:none;stroke:#000000;stroke-width:8.5039;stroke-linecap:round;stroke-linejoin:round;stroke-miterlimit:22.9256;" d="
					M158.418,166.353c-5.25-6-16.688-12.375-16.5-19.5"/>
				
					<path style="fill:none;stroke:#000000;stroke-width:8.5039;stroke-linecap:round;stroke-linejoin:round;stroke-miterlimit:22.9256;" d="
					M159.536,188.286c0,0,2.069-16.309-1.118-21.934"/>
				
					<path style="fill:none;stroke:#000000;stroke-width:8.5039;stroke-linecap:round;stroke-linejoin:round;stroke-miterlimit:22.9256;" d="
					M264.355,117.603c2.25-8.062,19.311-11.625,23.438-0.188"/>
				
					<path style="fill:none;stroke:#000000;stroke-width:8.5039;stroke-linecap:round;stroke-linejoin:round;stroke-miterlimit:22.9256;" d="
					M261.602,187.698c0,0,0.316-62.971,2.753-70.096"/>
				
					<path style="fill:none;stroke:#000000;stroke-width:8.5039;stroke-linecap:round;stroke-linejoin:round;stroke-miterlimit:22.9256;" d="
					M288.167,137.665c0,0,1.314-13.875-0.374-20.25"/>
				
					<path style="fill:none;stroke:#000000;stroke-width:8.5039;stroke-linecap:round;stroke-linejoin:round;stroke-miterlimit:22.9256;" d="
					M270.73,149.666c0,0,8.436-9.75,17.436-12.001"/>
				
					<path style="fill:none;stroke:#000000;stroke-width:8.5039;stroke-linecap:round;stroke-linejoin:round;stroke-miterlimit:22.9256;" d="
					M287.23,169.54c0-5.25-18.535-13.717-16.5-19.874"/>
				
					<path style="fill:none;stroke:#000000;stroke-width:8.5039;stroke-linecap:round;stroke-linejoin:round;stroke-miterlimit:22.9256;" d="
					M285.538,185.494c0,0,1.504-6.579,1.692-15.954"/>
			</g>
			<g>
				<polygon style="fill-rule:evenodd;clip-rule:evenodd;fill:#4AB57E;" points="297.963,62.194 307.798,56.511 315.03,50.442 
					320.779,45.032 328.363,54.203 336.014,65.086 342.378,76.088 347.635,89.61 350.657,103.423 351.341,118.004 349.066,133.506 
					344.807,145.81 340.88,153.539 336.031,153.503 335.811,142.614 334.173,127.08 330.732,112.193 323.895,95.092 316.4,82.569 
					307.83,71.843 297.963,62.194 				"/>
				<polygon style="fill-rule:evenodd;clip-rule:evenodd;fill:#67559E;" points="93.529,156.27 93.966,139.92 96.315,123.136 
					102.009,103.658 110.564,84.66 123.131,70.789 136.208,59.848 150.91,56.464 166.626,55.64 185.629,56.584 206.035,59.124 
					229.048,62.782 248.127,65.496 268.814,66.853 285.487,65.459 297.963,62.194 309.304,55.247 320.406,44.637 311.667,37.278 
					302.189,31.785 287.594,25.498 270.652,17.626 248.24,10.036 221.134,4.964 197.937,4.571 176.326,8.131 153.78,15.907 
					137.857,24.783 125.232,35.933 117.673,45.707 111.405,57.567 103.824,63.679 91.649,72.259 84.309,81.169 78.754,95.032 
					77.221,109.6 78.125,121.41 81.78,137.961 87.437,153.875 93.529,156.27 				"/>
				
					<path style="fill:none;stroke:#000000;stroke-width:8.5039;stroke-linecap:round;stroke-linejoin:round;stroke-miterlimit:22.9256;" d="
					M136.717,47.254c69.375-15.938,86.625,6.187,129,6"/>
				
					<path style="fill:none;stroke:#000000;stroke-width:8.5039;stroke-linecap:round;stroke-linejoin:round;stroke-miterlimit:22.9256;" d="
					M159.03,32.442c0,0,27.75-7.875,49.875-1.688"/>
				
					<path style="fill:none;stroke:#000000;stroke-width:8.5039;stroke-linecap:round;stroke-linejoin:round;stroke-miterlimit:22.9256;" d="
					M116.467,66.192c68.25-33.717,154.876,28.125,198.563-15.75"/>
				
					<path style="fill:none;stroke:#000000;stroke-width:8.5039;stroke-linecap:round;stroke-linejoin:round;stroke-miterlimit:22.9256;" d="
					M95.467,176.629c0,0-15.97-79.384,42.587-118.03"/>
				
					<path style="fill:none;stroke:#000000;stroke-width:8.5039;stroke-linecap:round;stroke-linejoin:round;stroke-miterlimit:22.9256;" d="
					M335.655,167.629c0.592-21.54,4.755-68.45-37.692-105.435"/>
				
					<path style="fill:none;stroke:#000000;stroke-width:8.5039;stroke-linecap:round;stroke-linejoin:round;stroke-miterlimit:22.9256;" d="
					M94.162,167.981c0,0-32.632-57.164-7.32-90.539"/>
				
					<path style="fill:none;stroke:#000000;stroke-width:8.5039;stroke-linecap:round;stroke-linejoin:round;stroke-miterlimit:22.9256;" d="
					M111.405,57.567c-6.938,7.313-17.812,10.687-24.562,19.875"/>
				
					<path style="fill:none;stroke:#000000;stroke-width:8.5039;stroke-linecap:round;stroke-linejoin:round;stroke-miterlimit:22.9256;" d="
					M186.03,6.004c0,0-26.614,4.273-46.926,17.924c-15.076,10.13-23.806,23.993-27.699,33.639"/>
				
					<path style="fill:none;stroke:#000000;stroke-width:8.5039;stroke-linecap:round;stroke-linejoin:round;stroke-miterlimit:22.9256;" d="
					M291.967,27.942c0,0-51.375-31.313-105.938-21.938"/>
				
					<path style="fill:none;stroke:#000000;stroke-width:8.5039;stroke-linecap:round;stroke-linejoin:round;stroke-miterlimit:22.9256;" d="
					M334.905,63.567c9.952,13.109,29.062,52.876,4.5,92.438"/>
				
					<path style="fill:none;stroke:#000000;stroke-width:8.5039;stroke-linecap:round;stroke-linejoin:round;stroke-miterlimit:22.9256;" d="
					M291.967,27.942c14.625,9,21,2.438,42.938,35.625"/>
			</g>
		</g>
	</g>
</g>
<g id="n2303">
	<g>
		<polygon style="fill-rule:evenodd;clip-rule:evenodd;fill:#F9D740;" points="199.65,323.178 201.001,312.092 202.683,290.658 
			206.056,279.771 212.023,273.02 219.339,270.975 226.729,273.447 232.115,276.859 235.011,281.243 231.614,286.686 228.5,289.206 
			228.869,296.388 229.354,312.544 228.524,317.623 220.283,315.406 211.606,317.448 205.553,321.391 199.65,323.178 		"/>
		
			<path style="fill:none;stroke:#000000;stroke-width:8.5039;stroke-linecap:round;stroke-linejoin:round;stroke-miterlimit:22.9256;" d="
			M199.365,324.693c3.41-16.719,0.187-54.615,21.775-53.715"/>
		
			<path style="fill:none;stroke:#000000;stroke-width:8.5039;stroke-linecap:round;stroke-linejoin:round;stroke-miterlimit:22.9256;" d="
			M214.961,291.079c7.768,1.035,40.224-10.2,6.179-20.101"/>
		
			<path style="fill:none;stroke:#000000;stroke-width:8.5039;stroke-linecap:round;stroke-linejoin:round;stroke-miterlimit:22.9256;" d="
			M229.775,318.353c0,0-0.696-16.62-1.313-29.962"/>
	</g>
</g>
<g id="n2304">
	<g>
		<g>
			<g>
				<path style="fill-rule:evenodd;clip-rule:evenodd;fill:#FFFFFF;" d="M344.372,258.441l-1.914-12.757l-6.244-12.478
					l-10.253-11.382l-16.778-8.746l-13.579-3.439l-18.621-0.976l-15.469,1.304l-13.075,2.507l-13.636,3.592l-14.978,2.223
					l-15.639,0.271l-12.958-1.541l-8.61-1.921l-7.922-2.272l-11.983-1.072l-11.374-0.971l-13.029,0.973l-13.648,5.225l-13.1,5.969
					l-10.613,9.652l-5.517,8.701l-3.75,9.211l-2.907,13.205l-0.143,15.013l1.781,9.909l4.746,13.285l7.361,12.989l7.495,9.816
					l11.099,11.347l11.709,8.855l12.369,7.203l13.008,6.184l14.116,5.189l15.978,4.061l16.486,2.271l14.814,0.444l16.164-1.195
					l15.849-2.855l16.118-4.645l16.078-6.508l13.254-7.071l12.891-9.175l11.42-10.98l8.436-11.124l8.228-16.1l4.657-15.982
					l1.719-13.327L344.372,258.441z M301.916,313.317c-25.667,20.333-75,42.667-155.667,13c0,0-32.333-14.667-34.667-36.667
					c-2.333-22-2-45.333,17.667-53c19.667-7.667,47.333-0.667,65.667-0.667s70-2.333,83.333-4.667
					c13.333-2.333,28.667-2.333,37,17.667C323.583,268.983,327.583,292.983,301.916,313.317z"/>
				<polygon style="fill-rule:evenodd;clip-rule:evenodd;fill:#FFFFFF;" points="133.957,317.441 137.458,312.252 142.634,304.935 
					147.992,298.123 154.194,294.403 160.723,295.02 165.099,297.495 167.963,302.686 175.31,304.794 180.068,310.189 
					182.141,313.701 190.916,311.57 199.525,314.627 205.784,318.452 212.907,312.069 222.543,307.761 231.412,309.668 
					237.419,313.672 240.509,317.389 246.521,312.371 253.786,308.931 261.637,308.71 267.787,303.189 274.734,297.83 
					279.285,297.615 286.261,290.366 292.795,290.31 299.696,294.243 304.309,298.849 311.092,303.578 303.622,312.666 
					294.2,320.945 280.607,329.176 262.246,336.044 246.82,339.31 229.371,340.999 212.269,341.034 199.958,340.289 
					181.356,337.697 166.866,334.087 153.794,329.21 143.838,324.112 133.957,317.441 				"/>
				<path style="fill-rule:evenodd;clip-rule:evenodd;fill:#61F4E5;" d="M136.3,236.296l9.708-2.135l13.596-0.239l13.453,0.791
					l18.734,2.296l15.563,0.754l17.053-0.419l9.22-0.893l17.586-2.388l11.279-1.584l11.846-1.39l11.967,0.488l2.139,6.235
					l1.072,7.578l-1.58,7.312l-3.459,5.58l-6.123,3.31l-10.026-1.079l-4.018,4.789l-8.591,2.073l-7.577-2.349l-5.549-3.152
					l-6.093,5.227c0,0-10.034,1.02-9.098,1.155c0.937,0.134-7.94-3.023-7.94-3.023l-7.186-5.254l-9.306,5.341l-10.608-0.2
					l-7.775-3.755l-3.762-2.901l-6.903,3.733l-6.749,1.024l-5.664-2.081l-2.713-2.43l-5.877,3.324l-7.062-3.92l-5.308-5.381
					l-3.74-8.314L136.3,236.296L136.3,236.296z"/>
				
					<path style="fill:none;stroke:#000000;stroke-width:8.5039;stroke-linecap:round;stroke-linejoin:round;stroke-miterlimit:22.9256;" d="
					M136.3,236.296c0,0-2.343,27.253,20.685,24.553"/>
				
					<path style="fill:none;stroke:#000000;stroke-width:8.5039;stroke-linecap:round;stroke-linejoin:round;stroke-miterlimit:22.9256;" d="
					M152.026,243.117c0,0,4.926,32.021,28.8,15.347"/>
				
					<path style="fill:none;stroke:#000000;stroke-width:8.5039;stroke-linecap:round;stroke-linejoin:round;stroke-miterlimit:22.9256;" d="
					M212.277,259.979c0,0-13.073,14.4-31.452-1.516"/>
				
					<path style="fill:none;stroke:#000000;stroke-width:8.5039;stroke-linecap:round;stroke-linejoin:round;stroke-miterlimit:22.9256;" d="
					M242.594,261.874c0,0-9.852,16.105-30.316-1.895"/>
				
					<path style="fill:none;stroke:#000000;stroke-width:8.5039;stroke-linecap:round;stroke-linejoin:round;stroke-miterlimit:22.9256;" d="
					M271.772,246.906c0,0-0.758,33.536-29.179,14.968"/>
				
					<path style="fill:none;stroke:#000000;stroke-width:8.5039;stroke-linecap:round;stroke-linejoin:round;stroke-miterlimit:22.9256;" d="
					M289.517,233.636c2.654,2.463,1.327,34.609-21.188,26.876"/>
				
					<path style="fill:none;stroke:#000000;stroke-width:8.5039;stroke-linecap:round;stroke-linejoin:round;stroke-miterlimit:22.9256;" d="
					M136.489,313.221c3.092-10.68,13.825-25.234,29.741-13.676"/>
				
					<path style="fill:none;stroke:#000000;stroke-width:8.5039;stroke-linecap:round;stroke-linejoin:round;stroke-miterlimit:22.9256;" d="
					M152.594,318.337c0,0,13.642-29.179,27.473-8.147"/>
				
					<path style="fill:none;stroke:#000000;stroke-width:8.5039;stroke-linecap:round;stroke-linejoin:round;stroke-miterlimit:22.9256;" d="
					M205.078,319.284c0,0-16.484-19.326-31.452,3.032"/>
				
					<path style="fill:none;stroke:#000000;stroke-width:8.5039;stroke-linecap:round;stroke-linejoin:round;stroke-miterlimit:22.9256;" d="
					M240.509,317.389c0,0-14.589-23.115-35.432,1.895"/>
				
					<path style="fill:none;stroke:#000000;stroke-width:8.5039;stroke-linecap:round;stroke-linejoin:round;stroke-miterlimit:22.9256;" d="
					M278.593,324.4c0,0-14.02-30.884-38.084-7.01"/>
				
					<path style="fill:none;stroke:#000000;stroke-width:8.5039;stroke-linecap:round;stroke-linejoin:round;stroke-miterlimit:22.9256;" d="
					M261.637,308.71c7.389-2.653,12.598-25.805,33.819,2.995"/>
				
					<path style="fill:none;stroke:#000000;stroke-width:8.5039;stroke-linecap:round;stroke-linejoin:round;stroke-miterlimit:22.9256;" d="
					M308.531,302.033c0,0-15.497-24.86-30.037-4.556"/>
				
					<path style="fill:none;stroke:#000000;stroke-width:8.5039;stroke-linecap:round;stroke-linejoin:round;stroke-miterlimit:22.9256;" d="
					M178.208,211.996c-20.842,0.189-32.035-7.557-58.06,4.375c-15.568,7.138-28.985,21.251-32.105,48.13"/>
				
					<path style="fill:none;stroke:#000000;stroke-width:8.5039;stroke-linecap:round;stroke-linejoin:round;stroke-miterlimit:22.9256;" d="
					M239.192,213.952c0,0,82.659-27.325,102.744,30.843"/>
				
					<path style="fill:none;stroke:#000000;stroke-width:8.5039;stroke-linecap:round;stroke-linejoin:round;stroke-miterlimit:22.9256;" d="
					M127.877,340.793c0,0-44.336-30.885-39.978-76.737"/>
				
					<path style="fill:none;stroke:#000000;stroke-width:8.5039;stroke-linecap:round;stroke-linejoin:round;stroke-miterlimit:22.9256;" d="
					M299.349,344.772c0,0-81.094,57.031-171.472-3.979"/>
				
					<path style="fill:none;stroke:#000000;stroke-width:8.5039;stroke-linecap:round;stroke-linejoin:round;stroke-miterlimit:22.9256;" d="
					M341.792,244.351c3.218,12.008,9.852,66.316-42.443,100.421"/>
				
					<path style="fill:none;stroke:#000000;stroke-width:8.5039;stroke-linecap:round;stroke-linejoin:round;stroke-miterlimit:22.9256;" d="
					M154.024,233.742c35.93,0.972,26.715,4.044,58.737,4.057c20.125,0.008,39.083-4.47,61.578-6.711"/>
				
					<path style="fill:none;stroke:#000000;stroke-width:8.5039;stroke-linecap:round;stroke-linejoin:round;stroke-miterlimit:22.9256;" d="
					M321.707,281.867c0,0,14.021-52.106-47.368-50.779"/>
				
					<path style="fill:none;stroke:#000000;stroke-width:8.5039;stroke-linecap:round;stroke-linejoin:round;stroke-miterlimit:22.9256;" d="
					M115.562,297.972c-7.404-10.983-15.16-64.338,38.463-64.231"/>
				
					<path style="fill:none;stroke:#000000;stroke-width:8.5039;stroke-linecap:round;stroke-linejoin:round;stroke-miterlimit:22.9256;" d="
					M321.707,281.867c-15.347,47.747-62.144,59.456-101.397,59.315c-40.922-0.146-81.283-9.246-104.748-43.21"/>
			</g>
			
				<path style="fill-rule:evenodd;clip-rule:evenodd;fill:none;stroke:#000000;stroke-width:8.5039;stroke-linecap:round;stroke-linejoin:round;stroke-miterlimit:22.9256;" d="
				M178.208,211.996c0,0,13.457,3.726,30.636,3.726s35.368-3.368,35.368-3.368"/>
		</g>
		<g>
			<polygon style="fill-rule:evenodd;clip-rule:evenodd;fill:#67559E;" points="187.205,216.148 178.924,210.001 175.049,200.752 
				178.961,190.247 189.012,181.889 197.511,177.068 207.998,172.049 216.238,171.601 223.068,174.191 230.914,178.786 
				237.377,183.633 242.648,189.313 247.842,196.386 249.754,202.742 248.134,208.088 242.26,213.601 231.961,216.369 
				217.753,218.315 202.876,219.232 187.205,216.148 			"/>
			
				<path style="fill:none;stroke:#000000;stroke-width:8.5039;stroke-linecap:round;stroke-linejoin:round;stroke-miterlimit:22.9256;" d="
				M229.134,216.828c7.529-1.037,17.17-3.78,19.953-10.53c1.173-2.845,1.283-6.357-3.621-14.075
				c-4.904-7.718-20.272-18.564-29.228-20.623c0,0-4.16-0.845-8.24,0.448c-8.508,2.597-21.464,10.34-27.673,16.658
				c-6.209,6.318-5.919,14.288-4.295,18.517c3.333,8.675,11.824,9.278,19.072,10.053"/>
			
				<path style="fill:none;stroke:#000000;stroke-width:8.5039;stroke-linecap:round;stroke-linejoin:round;stroke-miterlimit:22.9256;" d="
				M196.714,198.737c-0.432,5.202-4.568,9.493-2.06,10.748C197.162,210.739,199.042,203.216,196.714,198.737L196.714,198.737z"/>
			
				<path style="fill:none;stroke:#000000;stroke-width:8.5039;stroke-linecap:round;stroke-linejoin:round;stroke-miterlimit:22.9256;" d="
				M224.046,200.046c5.883,3.419,9.404,11.055,6.413,12.201C227.29,213.461,225.417,206.809,224.046,200.046L224.046,200.046z"/>
			
				<path style="fill:none;stroke:#000000;stroke-width:8.5039;stroke-linecap:round;stroke-linejoin:round;stroke-miterlimit:22.9256;" d="
				M195.102,217.276c0,0,14.611,3.225,34.032-0.448"/>
		</g>
		
			<path style="fill:none;stroke:#000000;stroke-width:8.5039;stroke-linecap:round;stroke-linejoin:round;stroke-miterlimit:22.9256;" d="
			M189.048,164.884c0,0,20.416-14.536,44.511-1.012"/>
	</g>
</g>
<g id="n2305">
	<g>
		<polygon style="fill-rule:evenodd;clip-rule:evenodd;fill:#F9D740;" points="23.846,413.214 20.215,404.418 15.967,391 
			14.615,379.073 17.717,371.657 22.943,369.564 31.095,374.564 33.875,381.358 36.229,389.87 38.157,398.489 43.687,410.476 
			47.419,406.745 49,401.123 51.115,390.361 52.667,379.687 54.297,371.369 59.13,365.519 66.965,365.628 71.052,370.929 
			71.369,378.137 70.882,387.416 68.881,399.963 66.291,411.505 64.22,421.595 62.209,429.634 55.337,423.007 47.18,422.509 
			42.705,426.219 39.686,424.321 36.219,417.325 29.009,413.242 23.846,413.214 		"/>
		<path style="fill-rule:evenodd;clip-rule:evenodd;fill:#F9D740;" d="M16.587,415.015l7.259-1.801l8.056,1.101l4.317,3.01
			l3.196,5.373l4.728,1.598l6.378-2.236l7.158,2.252c0,0,3.619,5.236,4.53,5.321c0.911,0.086,5.296,8.949,5.296,8.949l5.972,11.066
			l0.939,10.522l-2.629,7.488l-6.146,6.817l-10.92,5.869l-0.089,8.953l-0.063,9.947l-0.008,9.172l0.138,9.64l-0.779,7.418
			l-5.163,5.496l-7.964,1.525l-8.538-1.596l-5.042-5.538l0.026-10.893l-0.641-13.526l-1.167-11.228l-2.44-10.425l-4.493-6.904
			l-8.613-12.528l-3.504-13.472l-2.087-11.639l2.33-9.874l3.572-5.41L16.587,415.015L16.587,415.015z"/>
		
			<path style="fill:none;stroke:#000000;stroke-width:8.5039;stroke-linecap:round;stroke-linejoin:round;stroke-miterlimit:22.9256;" d="
			M16.714,424.546c0.155,4.353,13.37,19.433,21.299,7.151"/>
		
			<path style="fill:none;stroke:#000000;stroke-width:8.5039;stroke-linecap:round;stroke-linejoin:round;stroke-miterlimit:22.9256;" d="
			M27.597,413.042c3.576,0,16.79,6.062,10.416,18.656"/>
		
			<path style="fill:none;stroke:#000000;stroke-width:8.5039;stroke-linecap:round;stroke-linejoin:round;stroke-miterlimit:22.9256;" d="
			M4.277,437.139c0,0-1.71-24.253,23.32-24.097"/>
		
			<path style="fill:none;stroke:#000000;stroke-width:8.5039;stroke-linecap:round;stroke-linejoin:round;stroke-miterlimit:22.9256;" d="
			M15.626,469.009c0,0-10.417-11.505-11.35-31.87"/>
		
			<path style="fill:none;stroke:#000000;stroke-width:8.5039;stroke-linecap:round;stroke-linejoin:round;stroke-miterlimit:22.9256;" d="
			M25.653,491.629c-1.064-8.988-1.088-12.593-10.027-22.62"/>
		
			<path style="fill:none;stroke:#000000;stroke-width:8.5039;stroke-linecap:round;stroke-linejoin:round;stroke-miterlimit:22.9256;" d="
			M27.364,519.457c0,0-0.314-18.938-1.71-27.828"/>
		
			<path style="fill:none;stroke:#000000;stroke-width:8.5039;stroke-linecap:round;stroke-linejoin:round;stroke-miterlimit:22.9256;" d="
			M54.721,480.346c0,0-0.462,38.023,0.16,39.889"/>
		
			<path style="fill:none;stroke:#000000;stroke-width:8.5039;stroke-linecap:round;stroke-linejoin:round;stroke-miterlimit:22.9256;" d="
			M51.927,481.213c0,0,32.959-7.929,19.433-37.156"/>
		
			<path style="fill:none;stroke:#000000;stroke-width:8.5039;stroke-linecap:round;stroke-linejoin:round;stroke-miterlimit:22.9256;" d="
			M57.68,424.313c-2.643-2.487-18.375-6.755-16.169,11.971"/>
		
			<path style="fill:none;stroke:#000000;stroke-width:8.5039;stroke-linecap:round;stroke-linejoin:round;stroke-miterlimit:22.9256;" d="
			M69.184,441.725c0,0-8.131-15.759-11.504-17.412"/>
		
			<path style="fill:none;stroke:#000000;stroke-width:8.5039;stroke-linecap:round;stroke-linejoin:round;stroke-miterlimit:22.9256;" d="
			M23.846,413.214c0,0-10.319-22.326-9.23-34.141"/>
		
			<path style="fill:none;stroke:#000000;stroke-width:8.5039;stroke-linecap:round;stroke-linejoin:round;stroke-miterlimit:22.9256;" d="
			M31.095,374.564c6.995,13.992,6.219,31.559,12.593,35.912"/>
		
			<path style="fill:none;stroke:#000000;stroke-width:8.5039;stroke-linecap:round;stroke-linejoin:round;stroke-miterlimit:22.9256;" d="
			M47.419,406.745c2.798-8.084,5.13-25.03,5.752-31.56"/>
		
			<path style="fill:none;stroke:#000000;stroke-width:8.5039;stroke-linecap:round;stroke-linejoin:round;stroke-miterlimit:22.9256;" d="
			M71.205,372.543c0.155-8.551-14.77-13.526-18.034,2.642"/>
		
			<path style="fill:none;stroke:#000000;stroke-width:8.5039;stroke-linecap:round;stroke-linejoin:round;stroke-miterlimit:22.9256;" d="
			M63.018,430.888c1.631-20.096,9.587-35.026,8.187-58.345"/>
		
			<path style="fill:none;stroke:#000000;stroke-width:8.5039;stroke-linecap:round;stroke-linejoin:round;stroke-miterlimit:22.9256;" d="
			M31.095,374.564c-3.109-7.151-15.702-7.463-16.479,4.508"/>
		
			<path style="fill:none;stroke:#000000;stroke-width:8.5039;stroke-linecap:round;stroke-linejoin:round;stroke-miterlimit:22.9256;" d="
			M27.364,519.457c0.285,13.327,8.516,12.983,13.429,13.04c3.462,0.04,13.877-0.419,14.089-12.262"/>
		
			<path style="fill:none;stroke:#000000;stroke-width:8.5039;stroke-linecap:round;stroke-linejoin:round;stroke-miterlimit:22.9256;" d="
			M32.804,460.847c0,0,6.685-7.773,18.656-11.349"/>
		
			<path style="fill:none;stroke:#000000;stroke-width:8.5039;stroke-linecap:round;stroke-linejoin:round;stroke-miterlimit:22.9256;" d="
			M41.511,436.284c0,0,1.866,8.24,9.95,13.215"/>
		
			<path style="fill:none;stroke:#000000;stroke-width:8.5039;stroke-linecap:round;stroke-linejoin:round;stroke-miterlimit:22.9256;" d="
			M14.926,440.015c0,0,6.512-5.364,9.553-5.636"/>
	</g>
</g>
</svg>
