<?xml version="1.0" encoding="utf-8"?>
<!-- Generator: Adobe Illustrator 19.2.1, SVG Export Plug-In . SVG Version: 6.00 Build 0)  -->
<svg version="1.1" xmlns="http://www.w3.org/2000/svg" xmlns:xlink="http://www.w3.org/1999/xlink" x="0px" y="0px"
	 viewBox="0 0 331.938 562.579" style="enable-background:new 0 0 331.938 562.579;" xml:space="preserve">
<g id="n2401">
	<g>
		<g>
			<polygon style="fill-rule:evenodd;clip-rule:evenodd;fill:#F9D740;" points="63.805,529.605 61.042,516.752 58.551,498.337 
				56.827,470.786 56.595,452.16 57.445,420.151 58.348,390.242 58.762,360.711 58.92,333.377 58.934,310.418 58.84,284.546 
				58.657,260.133 58.227,218.605 60.425,161.433 64.502,119.017 70.747,81.392 86.418,69.088 102.881,50.377 118.83,40.079 
				137.323,32.527 148.329,30.033 144.485,23.271 130.233,22.685 110.896,23.977 91.048,29.033 74.812,38.056 63.312,49.732 
				53.223,68.597 47.973,85.49 42.546,104.006 37.701,123.266 32.701,146.808 28.289,172.848 24.936,199.546 22.695,227.264 
				21.946,245.153 21.873,266.702 21.984,290.367 20.258,313.756 17.784,337.634 14.585,364.781 12.147,384.954 8.732,413.038 
				7.253,440.142 9.029,465.175 14.51,484.047 22.763,498.584 33.182,511.125 45.784,521.859 63.805,529.605 			"/>
			<polygon style="fill-rule:evenodd;clip-rule:evenodd;fill:#F9D740;" points="149.402,31.47 141.485,25.271 151.437,18.78 
				169.503,11.85 187.91,7.393 210.484,5.584 228.992,7.539 248.145,13.572 263.9,22.436 276.164,32.527 289.381,52.533 
				297.227,69.987 305.098,91.084 312.459,114.051 319.164,140.744 322.566,164.163 325.238,194.725 326.803,226.789 
				327.494,255.572 327.672,290.194 327.213,328.783 326.17,367.459 324.797,401.258 323.277,430.787 321.893,460.708 
				320.889,485.505 320.111,508.137 319.625,527.032 312.053,526.211 308.83,515.815 304.365,496.006 301.029,474.04 
				298.705,451.544 296.727,422.444 295.49,393.646 294.481,355.045 294.004,327.361 293.498,290.546 292.615,250.198 
				290.828,226.024 287.193,190.693 281.373,151.727 275.762,125.76 268.002,101.834 256.283,81.756 244.035,66.215 230.59,52.866 
				204.9,36.135 188.623,30.466 165.44,31.061 149.402,31.47 			"/>
			<polygon style="fill-rule:evenodd;clip-rule:evenodd;fill:#67559E;" points="298.807,210.807 304.139,205.149 308.018,191.011 
				310.063,175.387 308.246,162.23 302.252,154.091 293.561,154.69 294.545,166.234 295.957,181.144 297.506,197.206 
				298.807,210.807 			"/>
			<path style="fill-rule:evenodd;clip-rule:evenodd;fill:#F9D740;" d="M55.367,234.091l0.332,32.784l0.18,30.603l0.051,33.889
				l-0.168,31.344l-0.644,39.698l-1.445,43.753l0.677,34.973l1.633,23.231l26.146-14.013l35.516-10.568l38.406-5.255l43.183-0.649
				l37.627,2.935l18.492,2.45l10.506,3.323l14.321,3.739l11.483,3.371l7.561,2.53l4.754,1.632l-3.705-26.271l-3.195-40.023
				l-1.586-33.92l-1.109-44.404l-0.611-38.294l-0.551-33.149l-0.518-23.681l-1.268-20.709l-2.422-25.05
				C289.012,208.359,221.359,275.253,55.367,234.091L55.367,234.091z"/>
			<path style="fill-rule:evenodd;clip-rule:evenodd;fill:#61F4E5;" d="M90.435,59.087l17.421-11.859l20.513-10.744l23.23-5.07
				l26.312,1.277l17.008,4.891l20.359,9.829l15.918,10.671l12.84,8.133l12.248,15.541l10.354,16.98l6.662,19.433l7.537,30.672
				l3.447,22.369l3.285,23.131l1.248,10.629l3.799,45.228c0,0-98.825,64.055-236.958,11.934
				c-0.141-13.487-0.341-47.723-0.341-47.723l1.01-22.39l0.808-21.017l1.227-19.933l2.816-26.674l2.399-18.091l7.039-21.416
				L81.117,70.24L90.435,59.087L90.435,59.087z"/>
			<path style="fill-rule:evenodd;clip-rule:evenodd;fill:#FFFFFF;" d="M55.751,267.051c0,0-1.333-51.438,0.667-79.215
				s2.667-85.387,9.667-97.047s42.333-40.465,43.667-41.493c1.333-1.029,26-20.232,37-20.918c11-0.686,22,0,22,0l-3.667,90.874
				l-0.667,103.219l1.667,66.527l-66.333,1.372L55.751,267.051z"/>
			
				<path style="fill-rule:evenodd;clip-rule:evenodd;fill:none;stroke:#000000;stroke-width:8.5039;stroke-linecap:round;stroke-linejoin:round;stroke-miterlimit:22.9256;" d="
				M165.44,31.061c2.645-2.727,4.156-7.767,0.186,77.572c-1.035,22.241-0.847,103.418-0.847,103.418"/>
			
				<path style="fill:none;stroke:#000000;stroke-width:8.5039;stroke-linecap:round;stroke-linejoin:round;stroke-miterlimit:22.9256;" d="
				M135.847,23.159c0,0,68.667-49.04,141.821,10.839"/>
			
				<path style="fill:none;stroke:#000000;stroke-width:8.5039;stroke-linecap:round;stroke-linejoin:round;stroke-miterlimit:22.9256;" d="
				M315.918,126.186c0,0-11.941-71.095-38.25-92.188"/>
			
				<path style="fill:none;stroke:#000000;stroke-width:8.5039;stroke-linecap:round;stroke-linejoin:round;stroke-miterlimit:22.9256;" d="
				M319.762,553.146c-1.313-13.664,1.818-91.982,4.5-141.379c2.682-49.397,9.187-220.994-8.344-285.581"/>
			
				<path style="fill:none;stroke:#000000;stroke-width:8.5039;stroke-linecap:round;stroke-linejoin:round;stroke-miterlimit:22.9256;" d="
				M298.854,152.601c0,0,26.873,0.088,5.123,58.207"/>
			
				<path style="fill:none;stroke:#000000;stroke-width:8.5039;stroke-linecap:round;stroke-linejoin:round;stroke-miterlimit:22.9256;" d="
				M298.854,166.448c0,0-0.584,7.979-1.74,11.338"/>
			
				<path style="fill:none;stroke:#000000;stroke-width:8.5039;stroke-linecap:round;stroke-linejoin:round;stroke-miterlimit:22.9256;" d="
				M293.322,150.141c0,10.567,18.428,114.184,16.74,131.674"/>
			
				<path style="fill:none;stroke:#000000;stroke-width:8.5039;stroke-linecap:round;stroke-linejoin:round;stroke-miterlimit:22.9256;" d="
				M229.847,31.413c0,0,62.538,35.103,63.476,118.728"/>
			
				<path style="fill:none;stroke:#000000;stroke-width:8.5039;stroke-linecap:round;stroke-linejoin:round;stroke-miterlimit:22.9256;" d="
				M144.165,29.622c13.5-0.547,69.749-17.126,119.436,63.22"/>
			
				<path style="fill:none;stroke:#000000;stroke-width:8.5039;stroke-linecap:round;stroke-linejoin:round;stroke-miterlimit:22.9256;" d="
				M293.039,257.724c0,0-5.812-124.071-29.438-164.882"/>
			
				<path style="fill:none;stroke:#000000;stroke-width:8.5039;stroke-linecap:round;stroke-linejoin:round;stroke-miterlimit:22.9256;" d="
				M312.727,528.093c-18.562-50.649-17.812-146.117-19.688-270.369"/>
			
				<path style="fill:none;stroke:#000000;stroke-width:8.5039;stroke-linecap:round;stroke-linejoin:round;stroke-miterlimit:22.9256;" d="
				M260.227,476.715"/>
			
				<path style="fill:none;stroke:#000000;stroke-width:8.5039;stroke-linecap:round;stroke-linejoin:round;stroke-miterlimit:22.9256;" d="
				M276.352,375.6c0,0,0.75,72.329,7.125,95.832"/>
			
				<path style="fill:none;stroke:#000000;stroke-width:8.5039;stroke-linecap:round;stroke-linejoin:round;stroke-miterlimit:22.9256;" d="
				M70.664,366.855c0,0,0.375,63.584-0.188,82.714"/>
			
				<path style="fill:none;stroke:#000000;stroke-width:8.5039;stroke-linecap:round;stroke-linejoin:round;stroke-miterlimit:22.9256;" d="
				M58.102,503.315c0,0,97.079-61.666,245.875-9.455"/>
			
				<path style="fill:none;stroke:#000000;stroke-width:8.5039;stroke-linecap:round;stroke-linejoin:round;stroke-miterlimit:22.9256;" d="
				M67.008,94.027"/>
			
				<path style="fill:none;stroke:#000000;stroke-width:8.5039;stroke-linecap:round;stroke-linejoin:round;stroke-miterlimit:22.9256;" d="
				M144.165,29.622c0,0-44.318,16.4-75.828,59.726"/>
			
				<path style="fill:none;stroke:#000000;stroke-width:8.5039;stroke-linecap:round;stroke-linejoin:round;stroke-miterlimit:22.9256;" d="
				M74.695,57.771c0,0-18.375,45.548-19.5,165.793"/>
			
				<path style="fill:none;stroke:#000000;stroke-width:8.5039;stroke-linecap:round;stroke-linejoin:round;stroke-miterlimit:22.9256;" d="
				M69.82,552.598c0,0-20.624-19.312-15.375-130.447"/>
			
				<path style="fill:none;stroke:#000000;stroke-width:8.5039;stroke-linecap:round;stroke-linejoin:round;stroke-miterlimit:22.9256;" d="
				M55.195,223.564c1.201,81.621,0.946,161.393-0.75,198.586"/>
			
				<path style="fill:none;stroke:#000000;stroke-width:8.5039;stroke-linecap:round;stroke-linejoin:round;stroke-miterlimit:22.9256;" d="
				M42.445,96.031c7.688-22.227,22.068-81.75,93.401-72.872"/>
			
				<path style="fill:none;stroke:#000000;stroke-width:8.5039;stroke-linecap:round;stroke-linejoin:round;stroke-miterlimit:22.9256;" d="
				M19.195,277.309c0,0-5.476-82.888,23.324-181.911"/>
			
				<path style="fill:none;stroke:#000000;stroke-width:8.5039;stroke-linecap:round;stroke-linejoin:round;stroke-miterlimit:22.9256;" d="
				M61.501,534.161c0,0-33.321-11.487-49.991-48.114c-8.229-18.08-9.823-46.845-2.909-94.414"/>
			
				<path style="fill:none;stroke:#000000;stroke-width:8.5039;stroke-linecap:round;stroke-linejoin:round;stroke-miterlimit:22.9256;" d="
				M19.195,277.309c0.938,25.507-7.121,84.005-10.595,114.324"/>
			
				<path style="fill:none;stroke:#000000;stroke-width:8.5039;stroke-linecap:round;stroke-linejoin:round;stroke-miterlimit:22.9256;" d="
				M39.726,314.747c1.124,36.439-8.625,173.081,0.375,192.028"/>
		</g>
		<g>
			<polygon style="fill-rule:evenodd;clip-rule:evenodd;" points="98.066,196.144 95.303,191.12 93.187,182.933 92.087,172.321 
				91.921,161.237 92.501,148.395 93.526,137.137 95.139,129.007 98.312,124.455 105.246,121.736 113.247,123.891 116.655,127.445 
				117.745,133.044 117.896,140.729 115.334,144.69 106.43,149.796 98.686,153.272 98.974,156.49 105.548,160.333 112.838,165.638 
				117.989,170.254 117.997,177.195 116.666,184.358 114.729,189.882 110.805,197.092 107.385,199.883 103.54,200.383 
				98.066,196.144 			"/>
			<polygon style="fill-rule:evenodd;clip-rule:evenodd;" points="215.16,158.696 214.928,148.71 214.812,138.846 216.031,132.256 
				220.493,127.821 229.834,125.225 237.22,127.501 240.357,135.896 239.592,143.974 230.951,150.994 223.957,156.577 
				224.23,160.733 231.221,165.696 239.5,172.969 242.041,176.736 242.479,182.44 241.997,186.209 240.271,190.562 237.017,194.07 
				233.479,197.496 226.818,195.803 219.742,189.433 216.241,180.75 215.522,168.605 215.16,158.696 			"/>
			
				<path style="fill:none;stroke:#000000;stroke-width:8.5039;stroke-linecap:round;stroke-linejoin:round;stroke-miterlimit:22.9256;" d="
				M114.446,100.202c0,0-2.775,14.483,0.568,25.532"/>
			
				<path style="fill:none;stroke:#000000;stroke-width:8.5039;stroke-linecap:round;stroke-linejoin:round;stroke-miterlimit:22.9256;" d="
				M95.931,100.117c0,0-2.667,10.079,6.507,21.924"/>
			
				<path style="fill:none;stroke:#000000;stroke-width:8.5039;stroke-linecap:round;stroke-linejoin:round;stroke-miterlimit:22.9256;" d="
				M80.738,109.673c0,0-0.79,6,16.686,18.781"/>
			
				<path style="fill:none;stroke:#000000;stroke-width:8.5039;stroke-linecap:round;stroke-linejoin:round;stroke-miterlimit:22.9256;" d="
				M117.574,131.686c0.896-10.582-21.058-16.429-23.6,1.751"/>
			
				<path style="fill:none;stroke:#000000;stroke-width:8.5039;stroke-linecap:round;stroke-linejoin:round;stroke-miterlimit:22.9256;" d="
				M98.686,153.272c0,0,17.141-6.977,19.018-11.056"/>
			
				<path style="fill:none;stroke:#000000;stroke-width:8.5039;stroke-linecap:round;stroke-linejoin:round;stroke-miterlimit:22.9256;" d="
				M117.574,131.686c0,0,0.91,5.904,0.13,10.531"/>
			
				<path style="fill:none;stroke:#000000;stroke-width:8.5039;stroke-linecap:round;stroke-linejoin:round;stroke-miterlimit:22.9256;" d="
				M93.974,133.436c0,0-7.611,55.593,6.282,64.728"/>
			
				<path style="fill:none;stroke:#000000;stroke-width:8.5039;stroke-linecap:round;stroke-linejoin:round;stroke-miterlimit:22.9256;" d="
				M117.989,170.254c0,0,2.155,14.06-8.206,28.301"/>
			
				<path style="fill:none;stroke:#000000;stroke-width:8.5039;stroke-linecap:round;stroke-linejoin:round;stroke-miterlimit:22.9256;" d="
				M97.49,155.755c0,0,10.831,4.951,20.499,14.499"/>
			
				<path style="fill:none;stroke:#000000;stroke-width:8.5039;stroke-linecap:round;stroke-linejoin:round;stroke-miterlimit:22.9256;" d="
				M117.209,199.856c0,0-19.789-2.708-37.044,10.4"/>
			
				<path style="fill:none;stroke:#000000;stroke-width:8.5039;stroke-linecap:round;stroke-linejoin:round;stroke-miterlimit:22.9256;" d="
				M110.835,209.636c0,0,2.243-6.539,3.223-9.993"/>
			
				<path style="fill:none;stroke:#000000;stroke-width:8.5039;stroke-linecap:round;stroke-linejoin:round;stroke-miterlimit:22.9256;" d="
				M98.52,211.4c0,0,4.095-7.328,5.02-11.017"/>
			
				<path style="fill:none;stroke:#000000;stroke-width:8.5039;stroke-linecap:round;stroke-linejoin:round;stroke-miterlimit:22.9256;" d="
				M206.952,107.669c0,0,6.948,4.654,10.66,16.755"/>
			
				<path style="fill:none;stroke:#000000;stroke-width:8.5039;stroke-linecap:round;stroke-linejoin:round;stroke-miterlimit:22.9256;" d="
				M222.509,98.813c0,0,7.926,10.981,5.327,25.463"/>
			
				<path style="fill:none;stroke:#000000;stroke-width:8.5039;stroke-linecap:round;stroke-linejoin:round;stroke-miterlimit:22.9256;" d="
				M246.517,112.204c0,0-2.3,10.955-10.334,16.003"/>
			
				<path style="fill:none;stroke:#000000;stroke-width:8.5039;stroke-linecap:round;stroke-linejoin:round;stroke-miterlimit:22.9256;" d="
				M212.053,198.835c0,0,24.595-5.816,41.862,4.854"/>
			
				<path style="fill:none;stroke:#000000;stroke-width:8.5039;stroke-linecap:round;stroke-linejoin:round;stroke-miterlimit:22.9256;" d="
				M236.539,197.833c0,0-0.789,5.591,4.394,10.096"/>
			
				<path style="fill:none;stroke:#000000;stroke-width:8.5039;stroke-linecap:round;stroke-linejoin:round;stroke-miterlimit:22.9256;" d="
				M225.075,197.294c0,0-1.336,4.718,1.92,10.131"/>
			
				<path style="fill:none;stroke:#000000;stroke-width:8.5039;stroke-linecap:round;stroke-linejoin:round;stroke-miterlimit:22.9256;" d="
				M214.802,136.619c-0.33-10.036,21.92-19.34,25.555-0.722"/>
			
				<path style="fill:none;stroke:#000000;stroke-width:8.5039;stroke-linecap:round;stroke-linejoin:round;stroke-miterlimit:22.9256;" d="
				M240.644,143.114c0,0-16.194,13.269-19.508,15.606"/>
			
				<path style="fill:none;stroke:#000000;stroke-width:8.5039;stroke-linecap:round;stroke-linejoin:round;stroke-miterlimit:22.9256;" d="
				M240.357,135.896c0,0,0.591,4.043,0.287,7.217"/>
			
				<path style="fill:none;stroke:#000000;stroke-width:8.5039;stroke-linecap:round;stroke-linejoin:round;stroke-miterlimit:22.9256;" d="
				M214.802,136.619c0,0,0.011,25.595,1.439,44.132c0.587,7.612,5.3,10.615,10.577,15.052"/>
			
				<path style="fill:none;stroke:#000000;stroke-width:8.5039;stroke-linecap:round;stroke-linejoin:round;stroke-miterlimit:22.9256;" d="
				M221.135,158.72c0,0,18.514,11.533,20.906,18.016"/>
			
				<path style="fill:none;stroke:#000000;stroke-width:8.5039;stroke-linecap:round;stroke-linejoin:round;stroke-miterlimit:22.9256;" d="
				M237.017,194.07c0,0,7.342-4.157,5.024-17.334"/>
		</g>
	</g>
</g>
<g id="n2402">
	<g>
		
			<path style="fill:none;stroke:#000000;stroke-width:8.5039;stroke-linecap:round;stroke-linejoin:round;stroke-miterlimit:22.9256;" d="
			M195.81,72.15c0,0,25.138-4.943,41.81,12.958"/>
		
			<path style="fill:none;stroke:#000000;stroke-width:8.5039;stroke-linecap:round;stroke-linejoin:round;stroke-miterlimit:22.9256;" d="
			M82.642,97.039c0,0,12.357-22.02,34.246-20.4"/>
	</g>
</g>
<g id="n2403">
	<g>
		<path style="fill-rule:evenodd;clip-rule:evenodd;fill:#67559E;" d="M134.425,445.096c-1.512-1.778,1.996,7.083,1.996,7.083
			l5.541,6.42l9.604,4.325l15.551,1.187l14.81,1.278l17.104-3.407l11.545-5.618l8.24-8.974l3.053-11.176l9.697,5.462l9.59,7.588
			l9.672,9.83l7.918,9.704l7.922,11.253l7.781,12.622l5.15,9.248l3.326,6.362l-9.121,10.387l-12.508,11.08l-17.723,11.648
			l-15.479,7.372l-20.555,6.505l-18.695,2.816l-21.367-0.653l-15.238-2.247l-19.793-5.4l-12.732-5.5l-12.297-7.38L94.99,526.816
			l-8.379-8.407l3.326-10.709l5.08-13.115l7.498-14.752l8.775-13.346l10.344-12.413L134.425,445.096L134.425,445.096z"/>
		<path style="fill-rule:evenodd;clip-rule:evenodd;fill:#FFFFFF;" d="M157.3,365.409c0,0,20.932-15.077,39,2.25
			c-0.424,4.209-0.781,8.522-0.781,8.522l-0.641,11.631l-0.131,10.495l0.207,6.897l1.199,12.036l2.195,9.091l3.285,6.339
			l5.418,3.511l4.049-3.223l7.498,1.937l2.412,4.461l-2.195,8.035l-5.391,6.752l-7.992,5.221l-11.695,4.155l-17.615,1.993
			l-11.988-1.628l-12.568-0.959l-12.375-7.535l-4.539-8.019l-0.213-5.328l7.976-6.067l7.621-4.895l6.889-5.296l1.406-11.008
			l0.363-13.104l-0.207-12.925l-0.553-13.098L157.3,365.409L157.3,365.409z"/>
		
			<path style="fill:none;stroke:#000000;stroke-width:8.5039;stroke-linecap:round;stroke-linejoin:round;stroke-miterlimit:22.9256;" d="
			M155.8,428.034c0,0-49.688,21.75-68.25,87.375"/>
		
			<path style="fill:none;stroke:#000000;stroke-width:8.5039;stroke-linecap:round;stroke-linejoin:round;stroke-miterlimit:22.9256;" d="
			M203.988,432.909c0,0,36-8.812,78.938,75.375"/>
		
			<path style="fill:none;stroke:#000000;stroke-width:8.5039;stroke-linecap:round;stroke-linejoin:round;stroke-miterlimit:22.9256;" d="
			M172.113,441.534c0,0,7.312,3.562,12,0.188"/>
		
			<path style="fill:none;stroke:#000000;stroke-width:8.5039;stroke-linecap:round;stroke-linejoin:round;stroke-miterlimit:22.9256;" d="
			M147.932,475.428c26.214,10.147,52.069,2.593,59.993-2.582"/>
		
			<path style="fill:none;stroke:#000000;stroke-width:8.5039;stroke-linecap:round;stroke-linejoin:round;stroke-miterlimit:22.9256;" d="
			M144.175,441.721c0,0,10.1-5.507,13.369-19.161"/>
		
			<path style="fill:none;stroke:#000000;stroke-width:8.5039;stroke-linecap:round;stroke-linejoin:round;stroke-miterlimit:22.9256;" d="
			M157.3,365.409c0,0,3.375,44.812-0.375,60.375"/>
		
			<path style="fill:none;stroke:#000000;stroke-width:8.5039;stroke-linecap:round;stroke-linejoin:round;stroke-miterlimit:22.9256;" d="
			M196.3,367.659c0,0-8.25,70.5,13.125,68.625"/>
		
			<path style="fill:none;stroke:#000000;stroke-width:8.5039;stroke-linecap:round;stroke-linejoin:round;stroke-miterlimit:22.9256;" d="
			M134.425,445.096c1.873,17.25,19.545,20.298,43.5,20.432c13.877,0.077,43.482-6.424,43.125-27.932"/>
		
			<path style="fill:none;stroke:#000000;stroke-width:8.5039;stroke-linecap:round;stroke-linejoin:round;stroke-miterlimit:22.9256;" d="
			M86.611,518.409c16.5,17.626,39.178,36.798,89.988,39.764c34.533,2.017,79.777-15.742,106.326-49.889"/>
	</g>
</g>
<g id="n2404">
	<g>
		<path style="fill-rule:evenodd;clip-rule:evenodd;fill:#67559E;" d="M145.473,232.719l2.656-6.64l-3.771-6.67l1.139-6.954
			l5.127-8.186l6.344-6.583l7.1-5.931l7.385-2.719l7.803,1.076l5.85,3.093l6.191,5.424l4.766,5.612l3.664,6.211l1.449,6.33
			l-1.199,3.993l-10.596,4.938l2.65,5.254c0.4,0.791-10.986,8.596-18.432,10.675C165.811,243.817,158.44,236.117,145.473,232.719
			L145.473,232.719z"/>
		<path style="fill-rule:evenodd;clip-rule:evenodd;fill:#E186AE;" d="M161.676,239.244l-16.203-6.524l-22.764-4.027l-16.1,0.921
			l-11.877,2.818l-17.271,7.73l-9.224,6.265l-11.246,11.001c0,0-8.944,11.431-7.979,11.789c0.966,0.358-1.647,9.874-1.647,9.874
			l0.594,21.185l3.651,12.425l9.718,18.387l9.434,12.252l17.311,11.421l16.801,9.104l21.191,7.8l18.916,4.335l27.814,2.886
			l20.209-0.081l20.832-2.359l19.002-4.884l12.295-5.04l17.816-12.228l13.174-10.912l10.779-14.282l8.789-18.95l4.145-19.183
			l-1.996-21.339l-4.986-11.801L280.38,243.15l-13.334-9.362l-16.842-7.673l-21.572-3.708l-17.855,2.21l-15.277,5.957l-13.982,8.744
			l-9.713,2.657L161.676,239.244L161.676,239.244z"/>
		<path style="fill-rule:evenodd;clip-rule:evenodd;fill:#FFFFFF;" d="M103.307,272.105l5.629,9.741l7.553,3.132l6.976,1.249
			l9.287,2.021l8.674-2.813l10.967,4.78c0,0,11.959,2.409,11.746,1.275c-0.215-1.134,5.135-1.174,5.135-1.174l9.902,4.436
			c0,0,11.355-2.464,11.775-1.253c0.42,1.21,10.781-3.648,10.781-3.648l9.523,3.025l10.449-2.109l7.479-2.913l9.955-3.119
			l5.678-4.036l4.635-6.736l0.379-6.467l-8.619-1.379l-12.189,2.313l-12.225,3.384l-15.689,3.099l-14.484,1.276l-13.918-0.098
			l-13.227-1.674l-15.106-3.202l-11.56-1.902l-11.242-0.674l-9.252,0.841L103.307,272.105L103.307,272.105z"/>
		<polygon style="fill-rule:evenodd;clip-rule:evenodd;fill:#F9D740;" points="157.833,308.348 166.991,300.924 175.967,297.608 
			184.131,297.951 190.747,300.919 197.217,306.626 196.473,310.082 186.077,311.207 179.702,314.312 174.02,314.15 
			166.407,310.235 157.833,308.348 		"/>
		<path style="fill-rule:evenodd;clip-rule:evenodd;fill:#FFFFFF;" d="M105.026,312.474l5.936-6.912l8.711-3.079l7.451,1.033
			l5.772,3.007l9.746,1.197l8.348,5.558l9.166-3.626l10.059,2.542l5.432,3.366l10.432-4.352l10.396-1.125l8.141,3.195l4.961-3.211
			l10.008-2.587c0,0,4.963-3.452,5.838-4.031c0.877-0.579,9.221-3.539,9.221-3.539l8.066,1.61l7.562,6.282l5.682,4.233l-5.641,5.556
			l-9.092,5.162l-12.947,3.103l-15.262,2.11l-12.316,1.043l-15.361,0.563l-18.219-0.453l-20.621-2.269l-13.316-2.771l-18.039-6.194
			L105.026,312.474L105.026,312.474z"/>
		<polygon style="fill-rule:evenodd;clip-rule:evenodd;fill:#67559E;" points="102.296,310.642 96.823,306.088 92.008,297.732 
			90.923,289.662 92.272,282.736 96.682,276.343 103.307,272.105 107.057,278.594 111.59,283.543 116.489,284.979 121.485,284.255 
			128.108,287.238 139.624,286.243 147.37,288.685 163.337,290.455 173.206,292.078 179.176,294.752 175.967,297.608 
			168.987,300.186 162.6,303.903 157.833,308.348 153.35,312.343 146.958,309.737 137.276,307.06 131.532,308.331 127.124,303.515 
			116.747,302.977 109.969,306.718 104.864,311.177 102.296,310.642 		"/>
		<path style="fill-rule:evenodd;clip-rule:evenodd;fill:#4AB57E;" d="M251.163,268.266l5.039,2.776l2.811,6.581l2.613,7.48
			l0.826,6.589l-0.822,8.437l-2.178,6.263l-4.09,5.204l-5.092-3.795l-6.018-5.435l-7.627-2.478l-6.629,1.71l-6.637,6.018
			l-7.094,0.722l-6.691,1.73l-4.961,3.211l-8.141-3.195l-0.994-5.295l-4.732-3.868l-6.615-2.969l6.82-4.452l6.803-1.888l1.984-2.798
			l11.518,4.063l6.594-0.422l7.801-5.146l7.527,0.492l5.949-1.895l5.689-5.204l3.285-6.333
			C248.102,274.367,251.53,268.468,251.163,268.266L251.163,268.266z"/>
		
			<path style="fill:none;stroke:#000000;stroke-width:8.5039;stroke-linecap:round;stroke-linejoin:round;stroke-miterlimit:22.9256;" d="
			M148.13,226.079c0,0-14.878-11.011,16.622-35.293c0,0,7-2.921,13-0.649"/>
		
			<path style="fill:none;stroke:#000000;stroke-width:8.5039;stroke-linecap:round;stroke-linejoin:round;stroke-miterlimit:22.9256;" d="
			M179.255,190.113c9.188,2.008,37.875,32.315,10.125,35.601"/>
		
			<path style="fill:none;stroke:#000000;stroke-width:8.5039;stroke-linecap:round;stroke-linejoin:round;stroke-miterlimit:22.9256;" d="
			M181.88,217.864c0,0,1.875,2.373,2.812,2.739"/>
		
			<path style="fill:none;stroke:#000000;stroke-width:8.5039;stroke-linecap:round;stroke-linejoin:round;stroke-miterlimit:22.9256;" d="
			M157.505,216.951c0,0-1.875,3.469-3.375,4.199"/>
		
			<path style="fill:none;stroke:#000000;stroke-width:8.5039;stroke-linecap:round;stroke-linejoin:round;stroke-miterlimit:22.9256;" d="
			M69.098,340.251c8.649,7.199,37.051,35.058,100.318,38.476c59.402,3.208,92.551-15.594,113.994-44.136"/>
		
			<path style="fill:none;stroke:#000000;stroke-width:8.5039;stroke-linecap:round;stroke-linejoin:round;stroke-miterlimit:22.9256;" d="
			M161.676,239.244c0,0,11.906,6.754,23.156-2.1"/>
		
			<path style="fill:none;stroke:#000000;stroke-width:8.5039;stroke-linecap:round;stroke-linejoin:round;stroke-miterlimit:22.9256;" d="
			M287.77,250.289c-1.406-2.373-48.75-51.851-102.938-13.145"/>
		
			<path style="fill:none;stroke:#000000;stroke-width:8.5039;stroke-linecap:round;stroke-linejoin:round;stroke-miterlimit:22.9256;" d="
			M283.411,334.591c4.104-5.961,32.484-48.701,4.359-84.302"/>
		
			<path style="fill:none;stroke:#000000;stroke-width:8.5039;stroke-linecap:round;stroke-linejoin:round;stroke-miterlimit:22.9256;" d="
			M62.02,251.932c0,0,39.373-42.54,99.656-12.689"/>
		
			<path style="fill:none;stroke:#000000;stroke-width:8.5039;stroke-linecap:round;stroke-linejoin:round;stroke-miterlimit:22.9256;" d="
			M69.098,340.251c-14.204-13.02-38.531-58.332-7.078-88.319"/>
		
			<path style="fill:none;stroke:#000000;stroke-width:8.5039;stroke-linecap:round;stroke-linejoin:round;stroke-miterlimit:22.9256;" d="
			M119.674,268.638c28.608-0.2,37.363,8.108,62.723,7.675c32.623-0.559,45.089-10.647,61.31-10.231"/>
		
			<path style="fill:none;stroke:#000000;stroke-width:8.5039;stroke-linecap:round;stroke-linejoin:round;stroke-miterlimit:22.9256;" d="
			M100.174,309.078c-18.329-18.307-6.643-38.877,19.5-40.44"/>
		
			<path style="fill:none;stroke:#000000;stroke-width:8.5039;stroke-linecap:round;stroke-linejoin:round;stroke-miterlimit:22.9256;" d="
			M236.418,324.24c-19.572,9.46-95.821,21.086-136.243-15.162"/>
		
			<path style="fill:none;stroke:#000000;stroke-width:8.5039;stroke-linecap:round;stroke-linejoin:round;stroke-miterlimit:22.9256;" d="
			M243.708,266.082c21.442-0.841,37.236,35.596-7.29,58.158"/>
		
			<path style="fill:none;stroke:#000000;stroke-width:8.5039;stroke-linecap:round;stroke-linejoin:round;stroke-miterlimit:22.9256;" d="
			M157.833,308.348c0,0,20.906-24.647,40.688-0.183"/>
		
			<path style="fill:none;stroke:#000000;stroke-width:8.5039;stroke-linecap:round;stroke-linejoin:round;stroke-miterlimit:22.9256;" d="
			M105.239,272.837c0,0-1.219,10.224,11.25,12.141"/>
		
			<path style="fill:none;stroke:#000000;stroke-width:8.5039;stroke-linecap:round;stroke-linejoin:round;stroke-miterlimit:22.9256;" d="
			M118.873,279.04c0,0,6.14,15.712,22.554,6.395"/>
		
			<path style="fill:none;stroke:#000000;stroke-width:8.5039;stroke-linecap:round;stroke-linejoin:round;stroke-miterlimit:22.9256;" d="
			M167.77,289.36c0,0-13.312,5.203-26.344-3.925"/>
		
			<path style="fill:none;stroke:#000000;stroke-width:8.5039;stroke-linecap:round;stroke-linejoin:round;stroke-miterlimit:22.9256;" d="
			M199.739,288.812c0,0-10.031,14.972-31.969,0.548"/>
		
			<path style="fill:none;stroke:#000000;stroke-width:8.5039;stroke-linecap:round;stroke-linejoin:round;stroke-miterlimit:22.9256;" d="
			M229.926,279.227c0,0-5.812,23.004-30.188,9.585"/>
		
			<path style="fill:none;stroke:#000000;stroke-width:8.5039;stroke-linecap:round;stroke-linejoin:round;stroke-miterlimit:22.9256;" d="
			M249.831,267.496c0,0-2.674,24.604-24.18,19.811"/>
		
			<path style="fill:none;stroke:#000000;stroke-width:8.5039;stroke-linecap:round;stroke-linejoin:round;stroke-miterlimit:22.9256;" d="
			M104.864,311.177c0,0,13.719-20.406,28.031-4.656"/>
		
			<path style="fill:none;stroke:#000000;stroke-width:8.5039;stroke-linecap:round;stroke-linejoin:round;stroke-miterlimit:22.9256;" d="
			M150.989,313.277c0,0-6.414-15.722-23.477-0.934"/>
		
			<path style="fill:none;stroke:#000000;stroke-width:8.5039;stroke-linecap:round;stroke-linejoin:round;stroke-miterlimit:22.9256;" d="
			M175.645,315.559c0,0-11.438-11.775-24.656-2.282"/>
		
			<path style="fill:none;stroke:#000000;stroke-width:8.5039;stroke-linecap:round;stroke-linejoin:round;stroke-miterlimit:22.9256;" d="
			M204.614,313.277c0,0-14.156-9.676-28.969,2.282"/>
		
			<path style="fill:none;stroke:#000000;stroke-width:8.5039;stroke-linecap:round;stroke-linejoin:round;stroke-miterlimit:22.9256;" d="
			M232.512,312.343c0,0-12.898-11.116-27.898,0.934"/>
		
			<path style="fill:none;stroke:#000000;stroke-width:8.5039;stroke-linecap:round;stroke-linejoin:round;stroke-miterlimit:22.9256;" d="
			M250.27,307.8c0,0-11.812-16.705-28.219-1.643"/>
	</g>
</g>
</svg>
