<svg xmlns="http://www.w3.org/2000/svg" viewBox="0 0 331.938 562.579"><g id="n2501"><g><path fill-rule="evenodd" clip-rule="evenodd" fill="#f9d740" d="M132.615 433.565l10.134 9.567 11.616 8.245 24-18.75 25.875 18 9.838-7.789 11.162-12.461 11.107 16.309 9.915 17.141 8.044 16.083 6.008 13.79 4.916 12.94 4.129 16.295-8.449 6.195-11.75 7.578-14.104 6.434-12.445 6.176-20.885 5.601-17.839 2.056-17.131.007-18.136-3.528-14.926-2.837-16.588-7.548-12.8-8.953-10.073-10.423-7.18-13.816 4.234-10.074 6.267-13.505 7.226-13.975 8.57-14.522 10.227-14.38 9.038-9.856z"/><path fill-rule="evenodd" clip-rule="evenodd" fill="#f9d740" d="M155.49 398.502l-1.062 8.566-1.012 4.957 6.792 8.008 8.099 4.796 7.986 3.524.986 4.87-11.191 8.409-7.722 6.364-4.772 2.833-10.845-7.697-6.971-6.581-5.653-6.77 6.266-13.61 6.316-8.722 3.513-5.203 9.27-3.744z"/><path fill-rule="evenodd" clip-rule="evenodd" fill="#fff" d="M200.5 399.469l7.211.385 5.769 3.801 5.34 7.24 4.586 7.497 4.084 7.11-4.844 7.772-5.218 6.227-6 5.436-6.35 5.144-8.4-5.453-7.643-5.644-10.67-6.357-.123-4.282 8.705-1.385 8.99-4.384 6.885-5.954 2.99-3.414-3.83-7.631-1.482-6.108z"/><path d="M156.615 342.002s25.059-14.326 40.688 2.812c-.594 5.734-.803 13.635-.803 13.635l.072 12.024.959 11.623 1.594 10.607 2.117 9.819 4.57 10.686-5.713 6.071-8.656 5.488-7.875 3.02-8.45.48-9.592-4.049-8.335-7.172-3.775-5.022 1.543-9.24 1.941-11.358.617-12.673.025-10.936-.342-11.636-.585-14.179z" fill-rule="evenodd" clip-rule="evenodd" fill="#e186ae"/><path d="M87.053 509.877s20.625-53.062 45.562-76.312m92.625-3.188s29.25 37.312 45 91.875m-91.687-77.25s3.375 82.875 0 110.625" fill="none" stroke="#000" stroke-width="8.504" stroke-linecap="round" stroke-linejoin="round" stroke-miterlimit="22.926"/><path d="M87.053 509.877c2.625 13.689 30.464 48.536 91.127 47.307 25.398-.515 55.342-6.379 92.061-34.932M153.053 411.065c.75 3.564 13.409 17.086 23.24 17.288 9.83.201 20.635-3.037 31.322-17.476m-53.25 40.5s19.5-16.688 24-18.75m25.875 18s-18.375-15.188-25.875-18m22.135-33.158c9.75.562 10.49-3.217 26.99 26.033m-72-27c-9.025.438-9.817 4.735-13.469 9.962-3.285 4.703-6.174 9.166-14.094 16.852m76.313 25.311s15.188-9.375 23.25-25.125m-99.562-.186s2.625 11.062 26.438 26.061m42.937-106.562s-4.668 32.388 7.322 69.851m-48.01-72.664s3.75 52-3.562 69.063" fill="none" stroke="#000" stroke-width="8.504" stroke-linecap="round" stroke-linejoin="round" stroke-miterlimit="22.926"/></g></g><g id="n2502"><g><g><g><path d="M57.87 289.832l-1.216-15.693-.934-18.85 1.169-16.457-.545-14.676 1.648-11.934.336-12.105L56.74 182l.205-18.978-2.194-14.985 2-24 7-10 13-25 19-15 15-11 14-7 15-10 10.746-2.797 5.298-9.868 4.477 6.666 11.311 8.031 12.975 6.306 14.539 8.057 16.174 10.267 20.48 8.338 9.887 8.966 16.113 7.034 14 20 1.463 24.169 4.117 14.866 1.332 15.73.902 18.463.641 15.017.727 18.702 2.906 12.479 2.369 15.621 1.326 19.894-.039 8.816s-34.96-2.602-80.833-2.949c-7.521-.057-15.547-14.402-22.741-18.424-12.928-7.227-33.272-8.725-41.25.43-8.17 9.376-5.987 19.505-12.638 19.935-27.036 1.75-53.637 4.854-76.163 10.046z" fill-rule="evenodd" clip-rule="evenodd" fill="#fff"/><path fill-rule="evenodd" clip-rule="evenodd" fill="#f9d740" d="M40.579 181.167l2.521 10.474 6.805 10.379 5.479 8.313.494 14.459.442 13.493.943 11.712.607 6.837-7.903-.983-6.452-5.831-2.507-9.785-6.03-11.622-6.191-12.846-.945-15.211 4.662-11.427 8.075-7.962z"/><path fill-rule="evenodd" clip-rule="evenodd" fill="#e186ae" d="M284.064 180.124l8.98-4.002 7.647-.519 7.685 5.56 2.912 9.477.444 8.301-1.907 10.678-2.98 12.249-1.287 7.59-3.775 9.174-5.813 6.802-4.475 3.524-.127-12.127-1.16-12.889-2.369-13.611-2.906-10.873-.869-19.334z"/><path d="M153.126 14.297l.828 8.087 1.841 10.987-4.933 8.006-8.719 8.681-10.211 4.838-13.475 6.195-14.674 8.604-14.589 11.651-10.218 10.763-10.581 16.055-6.237 15.044-4.022 15.845-1.257 12.617.251 15.08 1.199 11.911-.336 10.548s-3.127 12.582-2.252 14.688c.876 2.105-5.836-1.876-5.836-1.876l-8.065-15.616-4.792-18.48-.583-12.473 1.548-15.21-.767-11.471-.81-12.333.579-16.566 2.453-16.455 3.827-13.842 7.051-15.802 8.899-12.852 11.184-10.757 11.921-7.656 16.688-6.595 20.431-3.764 18.652-.566 15.005 2.714z" fill-rule="evenodd" clip-rule="evenodd" fill="#67559e"/><path fill-rule="evenodd" clip-rule="evenodd" fill="#4ab57e" d="M159.965 12.547l11.718-5.089 13.754-2.294 10.494-.183 11.352 1.084 12.113 2.602 13.988 4.922 13.84 7.044 9.967 6.546 10.398 8.284L279.872 47.4l11.414 14.707 6.166 11.231 6.051 16.549 2.565 13.671.689 11.749-1.06 17.815-1.536 11.183-1.939 12.43-1.275 10.574-.256 8.294-7.647.519-8.98 4.002-.498-10.047-.903-16.087-1.332-13.706-4.117-12.953-10.648-17.039-12.61-13.759-13.488-11.906-13.623-9.737-19.66-11.725-15.358-7.983-12.832-5.912-13.067-6.591-7.895-6.404-3.159-8.398-1.379-8.232-.369-5.348 6.839-1.75zM72.02 332.575l11.38-1.646 10.566 11.5 9.09 4.809 10.446 6.418 14.443 11.063 11.07 11.165 6.777 8.887 7.11 12.852 4.637 14.122 1.76 14.836-.49 10.645-2.218 12.266-3.999 3.554 3.326 13.111.758 15.622-2.206 11.567-6.201 5.646-1.879 10.128-4.27 9.969-7.491 9.692-7.218 3.333.181-9.533-3.245-16.55-3.408-8.598-6.616-11.375-8.619-10.168-10.315-9.543-11.62-12.031-7.853-9.706-8.9-16.493-4.374-17.614-1.105-17.695.907-13.455 2.229-13.849 2.609-11.239 3.635-13.166 1.103-8.524z"/><path fill-rule="evenodd" clip-rule="evenodd" fill="#67559e" d="M113.279 495.617l5.223-2.923 4.141 9.039 2.514 6.955 2.033 9.802.311 8.858-.407 7.116-2.033 7.787-3.72 6.991-8.381 7.412-13.426 5.708-11.622-1.419-9.139-5.724-4.528-4.617 4.721-3.048 8.701-1.312 6.509-3.811 5.475-4.77 6.724-8.638 4.033-8.197 2.919-11.827.384-6.701-.432-6.681z"/><path d="M74.245 546.871c9.562 3 44.391-25.751 40.078-60.813m-52.982 37.121c.938 14.438 25.687 62.438 60 26.062m-18.187-75.749c25.5 22.875 30.375 59.063 18.188 75.75M93.966 342.429c11.467 5.865 79.688 38.625 62.625 107.062m-75.375-92.624c11.812 32.25 31.929 38.815 48.998 58.35 22.205 25.413 32.552 57.255 23.189 81.15" fill="none" stroke="#000" stroke-width="8.504" stroke-linecap="round" stroke-linejoin="round" stroke-miterlimit="22.926"/><path d="M76.154 339.804c-5.251 30 1.604 49.234 39.253 86.322 32.256 31.772 46.437 78.764 16.997 104.74" fill="none" stroke="#000" stroke-width="8.504" stroke-linecap="round" stroke-linejoin="round" stroke-miterlimit="22.926"/><path d="M70.341 326.304s3.015 5.46 1.125 12.75c-3.845 14.832-18.452 55.541-2.999 92.812 5.999 14.471 23.242 31.52 34.687 41.625m70.473-440.12c13.578 5.04 87.698 20.666 110.436 69.999m-105.068-54.1s98.437 39.563 103.125 96.75m2.813 53.438c-.828-5.627-.289-6.993-.727-16.296-.555-11.859-1.35-27.475-2.086-37.142m9.375 102.938s1.312-24.562-6.563-49.5m-.868-19.334s21.119-14.041 26.369 6.209m0 21.187s3-9.188 0-21.188m-4.875 43.126s1.021-8.948 4.875-21.938m-18.938 41.438s11.777-7.321 14.062-19.5" fill="none" stroke="#000" stroke-width="8.504" stroke-linecap="round" stroke-linejoin="round" stroke-miterlimit="22.926"/><path d="M299.183 189.52s-2.67 6.493-2.707 13.875c-.049 9.902 2.729 21.743-6.002 22.719M153.495 19.645c2.251 9-4.312 18.375 25.5 29.625m-7.312-41.812s58.688-18.938 114 46.5m15.008 121.645c-.938-29.812 21.742-72.521-15.008-121.646M138.121 11.583c6 .75 6.605 3.157 15.005 2.714 6.346-.335 12.619-5.111 18.557-6.839M37.245 128.77S20.37 8.208 138.121 11.583" fill="none" stroke="#000" stroke-width="8.504" stroke-linecap="round" stroke-linejoin="round" stroke-miterlimit="22.926"/><path d="M91.992 56.703C42.856 99.37 35.971 132.949 36.419 160.644c.355 22.05 14.977 39.104 17.514 53.063m99.562-194.062c1.168 10.222 3.562 26.437-21.563 35.25M57.309 167.958S43.246 89.396 131.933 54.896" fill="none" stroke="#000" stroke-width="8.504" stroke-linecap="round" stroke-linejoin="round" stroke-miterlimit="22.926"/><path d="M57.87 256.834s-2.5-22.137-2.486-46.501c.009-14.558 5.202-19.252 1.925-42.375m-16.73 13.209s-14.995 8.539-13.12 28.977m15.036 36.939s-.493-7.155-4.543-13.148c-7.097-10.504-8.228-13.439-10.493-23.791m30.411 46.69s-12.706 1.711-15.375-9.751m9.375-15s-7.218.905-6.422-13.681c.795-14.586-.486-15.132-2.349-26.761" fill="none" stroke="#000" stroke-width="8.504" stroke-linecap="round" stroke-linejoin="round" stroke-miterlimit="22.926"/></g><g><path fill-rule="evenodd" clip-rule="evenodd" d="M107.486 201.122l-2.612-4.359-1.994-7.107-1.026-9.214-.14-9.626.57-11.155.99-9.778 1.543-7.063 3.018-3.959 6.58-2.372 7.585 1.859 3.227 3.082 1.025 4.86.131 6.674-2.436 3.444-8.454 4.449-7.35 3.03.268 2.795 6.229 3.328 6.906 4.595 4.878 4.001-.005 6.028-1.273 6.223-1.846 4.801-3.734 6.267-3.247 2.429-3.648.44-5.185-3.672zm111.118-32.706l-.204-8.672-.095-8.566 1.167-5.725 4.239-3.859 8.864-2.269 7.001 1.965 2.962 7.286-.738 7.017-8.207 6.11-6.643 4.859.253 3.61 6.622 4.299 7.841 6.303 2.404 3.268.407 4.953-.464 3.274-1.644 3.783-3.091 3.052-3.362 2.981-6.315-1.46-6.701-5.521-3.307-7.535-.662-10.547-.327-8.606z"/><path d="M203.237 92.41s23.85-4.332 39.634 11.189M95.863 114.202s11.756-19.143 32.513-17.77m-5.2 21.341s-2.655 12.583.498 22.173m-18.058-22.218s-2.545 8.758 6.137 19.03M91.19 126.051s-.758 5.212 15.795 16.285m19.107 2.775c.866-9.192-19.946-14.235-22.386 1.557m4.437 17.219s16.269-6.086 18.055-9.631m-.106-9.145s.853 5.126.107 9.145m-22.493-7.588s-7.307 48.293 5.855 56.205m16.863-24.267s2.022 12.207-7.828 24.591m-11.591-37.151s10.265 4.283 19.419 12.56m-.788 25.71s-18.765-2.321-35.151 9.09m29.09-.587s2.138-5.682 3.072-8.684m-14.755 10.235s3.896-6.37 4.779-9.576m98.23-80.68s6.582 4.031 10.083 14.535m4.686-22.25s7.5 9.524 5.012 22.105m17.737-10.514s-2.199 9.518-9.827 13.914m-22.999 61.377s23.337-5.09 39.696 4.15m-16.471-5.059s-.757 4.857 4.151 8.761m-15.023-9.21s-1.275 4.1 1.805 8.796m-11.452-61.476c-.297-8.715 20.821-16.831 24.239-.667m.261 6.268s-15.381 11.549-18.528 13.584m18.267-19.852s.554 3.51.261 6.268m-24.5-5.601s-.031 22.228 1.294 38.325c.544 6.61 5.01 9.211 10.007 13.056m-5.329-32.196s17.541 9.987 19.799 15.613m-4.792 15.063s6.97-3.622 4.793-15.062" fill="none" stroke="#000" stroke-width="8.504" stroke-linecap="round" stroke-linejoin="round" stroke-miterlimit="22.926"/></g></g><path d="M60.251 302.536s-13.5-17.5-4.5-32.5 19-28 43.5-34 73 2.5 73 2.5l.5 114.5s-31.5-.5-53.5-11.5-59-39-59-39z" fill-rule="evenodd" clip-rule="evenodd" fill="#4ab57e"/><path d="M209.251 349.036c9.5-1.5 49.5-1 62-35.5s19.5-44.5 6.5-60.5-25.5-26.5-58-20.5-49.5 6.5-49.5 6.5l2.5 114 36.5-4z" fill-rule="evenodd" clip-rule="evenodd" fill="#f9d740"/></g></g><g id="n2503"><g><path d="M158.781 324.056l1.773-23.948 3.276-9.197 6.141-5.876 11.694-.426 7.864.393 3.969 3.897s1.582 6.404.649 5.913c-.934-.491-4.918 3.282-4.918 3.282l.976 6.704-.841 16.886-8.438 2.646-9.827 5.096-6.13-3.33-6.188-2.04z" fill-rule="evenodd" clip-rule="evenodd" fill="#e186ae"/><path d="M177.062 298.158s25.448.883 13.998-13.4m-1.831 13.336s.979 19.758-.478 23.609m-29.97 2.353s-6.03-48.02 30.97-40.353" fill="none" stroke="#000" stroke-width="8.504" stroke-linecap="round" stroke-linejoin="round" stroke-miterlimit="22.926"/></g></g><g id="n2504"><g><g><path d="M154.706 228.35l-3.482-6.325 1.051-6.594 4.735-7.762 5.856-6.243 6.556-5.625 6.819-2.579 7.205 1.021 5.401 2.934 5.715 5.143 4.402 5.322 3.382 5.89 1.338 6.002-1.106 3.787-4.307 3.352-5.477 1.33c.001.001-21.847 7.125-38.088.347z" fill-rule="evenodd" clip-rule="evenodd" fill="#f9d740"/><path d="M154.706 228.35s-14.37-9.521 14.716-32.548m14.024-1.558c8.483 1.904 34.972 30.644 9.349 33.76m-9.349-33.76c-3.117-1.384-8.657-2.078-14.024 1.558m16.447 24.757s1.731 2.251 2.597 2.597m-25.103-3.462s-1.731 3.289-3.116 3.982" fill="none" stroke="#000" stroke-width="8.504" stroke-linecap="round" stroke-linejoin="round" stroke-miterlimit="22.926"/></g><path d="M297.313 263.312l-3.833-11.053-7.126-12.38-11.118-10.963-15.581-7.713-15.119-2.832-14.813.198-16.85 2.551-12.562 2.658-17.163 3.446-13.947 1.787-15.963-.851-14.73-3.321-15.204-1.38-11.633-.666-13.418 1.957-19.682 7.3-12.686 9.274-10.412 13.16-5.632 12.935-1.861 14.186 1.123 12.767 3.822 12.325 6.751 11.816 9.95 10.467 14.443 9.997 13.59 7.223 19.962 8.032 18.62 5.26 18.016 3.323 17.767 1.737 19.756-.013 19.875-2.314 15.485-3.489 13.688-4.591 10.901-4.989 12.205-7.622 9.731-8.578 7.685-9.807 5.794-10.383 5.079-11.192 4.509-14.23 1.666-10.597-1.085-13.435zm-31.562 34.724c-11 16.333-25.667 37.667-60 38-34.333.333-65.667 2-89.333-12.667-23.667-14.667-43.333-23-39-52.667 0 0 2.667-20 21-21.333 18.333-1.333 42.667 6.667 56.667 6 14-.667 65.333-5.667 81-9.333 15.667-3.667 28.667-2.333 31.667 7.667 2.999 10 8.999 28-2.001 44.333z" fill-rule="evenodd" clip-rule="evenodd" fill="#e186ae"/><path fill-rule="evenodd" clip-rule="evenodd" fill="#fff" d="M94.875 252.194l1.393 5.437.464 6.444 3.671 6.723 6.672 4.385 5.903-.35 8.342 3.131 9.778-1.523 3.942-1.685 9.261 5.821 10.263 3.251 10.956.459 5.029-3.512 9.165 3.381 11.346.602 5.988-2.354 6.793-5.793 6.26 2.467 9.098.755 6.474-1.611 3.942-3.109 7.298 1.572 7.085-1.441 4.384-3.335 4.499-8.348 1.754-8.709 1.523-5.617-9.357-2.618-7.521-.328-13.115 1.533-12.26 2.442-15.981 2.801-17.17 1.525-17.239.379-15.02-1.625-12.428-3.054-16.038-2.533-13.277.824-11.877 3.613zm.572 59.331l3.176-5.552 6-6.816 6.996-3.24 6.717.912 3.478 2.008 1.512 6.164 6.998.286 5.464 2.928 5.49 5.409 7.753-3.129 8.74-.251 8.1 2.388 6.13 3.33 4.871-3.592 8.341-3.517 9.15-.346 6.182 1.841 3.886 2.225 6.964-4.369 6.779-2.876 4.058-5.92 5.462-4.157 7.33-7.849 6.371-2.874 9.014.344 7.089 3.962 3.28 4.117 4.303 4.163-3.188 6.147-6.1 8.438-8.411 8.047-7.604 5.17-10.114 4.874-14.018 4.165-15.687 2.224-12.188.471-18.32-.563-13.113-1.354-13.228-2.483-15.389-4.675-16.347-6.951-10.778-5.558-5.149-3.541z"/><path d="M96.268 257.631s-1.427 18.247 16.71 17.202m22.062-.077s-18.64 10.002-25.461-12.574m61.153 18.46s-13.951 10.881-35.692-5.887m67.942 1.428s-7.972 16.768-32.25 4.46m67.158-21.039c-.544 6.6-3.175 12.465-14.712 18.836-4.735 2.614-11.376 2.236-20.196-2.257m29.668-4.65s20.79 9.99 23.508-22.298m-120.937 69.581s13.588-17.838 36.779-2.854m34.587 0s-17.012-15.162-34.586 0m67.76-3.746s-19.646-17.863-33.174 3.746m42.958-15.163s-12.972-16.794-26.544 4.482m37.777-12.33c-4.167-8.206-19.02-15.146-30.991 4.531m-131.164 8.491s12.301-17.328 24.703-.972m-7.087 7.073s11.648-19.665 28.056.333m-95.216-41.881s8.515-50.304 75.914-47.985m97.654-3.033c4.333-.483 60.876-12.665 75.189 45.844M124.992 222.54c16.306.892 17.612 6.593 44.209 6.471 15.37-.07 30.659-6.307 53.446-9.503M67.016 326.716s-24.459-20.157-17.937-56.19m248.757-5.174s5.979 20.692-16.487 57.796m-214.333 3.568c11.052 10.167 48.331 35.279 107.614 37.969 34.318 1.558 85.535-8.222 106.72-41.537m-156.448-75.01c21.741 3.389 22.053 7.52 47.667 6.783 28.277-.813 37.689-4.235 50.35-6.426m46.744 13.914s.681-26.565-46.744-13.914m-98.017-.357s-44.57-6.422-47.469 30.503m0 0s-2.718 23.011 28.083 39.244m164.147-55.476s6.522 31.217-19.024 54.585" fill="none" stroke="#000" stroke-width="8.504" stroke-linecap="round" stroke-linejoin="round" stroke-miterlimit="22.926"/><path d="M105.516 317.885c21.806 10.215 39.457 18.873 82.255 18.765 21.66-.054 45.447-3.9 62.869-19.657" fill="none" stroke="#000" stroke-width="8.504" stroke-linecap="round" stroke-linejoin="round" stroke-miterlimit="22.926"/></g></g></svg>