<svg version="1.1" xmlns="http://www.w3.org/2000/svg" xmlns:xlink="http://www.w3.org/1999/xlink" x="0px" y="0px"
	 viewBox="0 0 331.938 562.579" style="enable-background:new 0 0 331.938 562.579;" xml:space="preserve">
<g id="n2501">
	<g>
		<polygon style="fill-rule:evenodd;clip-rule:evenodd;fill:#F9D740;" points="132.615,433.565 142.749,443.132 154.365,451.377 
			178.365,432.627 204.24,450.627 214.078,442.838 225.24,430.377 236.347,446.686 246.262,463.827 254.306,479.91 260.314,493.7 
			265.23,506.64 269.359,522.935 260.91,529.13 249.16,536.708 235.056,543.142 222.611,549.318 201.726,554.919 183.887,556.975 
			166.756,556.982 148.62,553.454 133.694,550.617 117.106,543.069 104.306,534.116 94.233,523.693 87.053,509.877 91.287,499.803 
			97.554,486.298 104.78,472.323 113.35,457.801 123.577,443.421 132.615,433.565 		"/>
		<polygon style="fill-rule:evenodd;clip-rule:evenodd;fill:#F9D740;" points="155.49,398.502 154.428,407.068 153.416,412.025 
			160.208,420.033 168.307,424.829 176.293,428.353 177.279,433.223 166.088,441.632 158.366,447.996 153.594,450.829 
			142.749,443.132 135.778,436.551 130.125,429.781 136.391,416.171 142.707,407.449 146.22,402.246 155.49,398.502 		"/>
		<polygon style="fill-rule:evenodd;clip-rule:evenodd;fill:#FFFFFF;" points="200.5,399.469 207.711,399.854 213.48,403.655 
			218.82,410.895 223.406,418.392 227.49,425.502 222.646,433.274 217.428,439.501 211.428,444.937 205.078,450.081 
			196.678,444.628 189.035,438.984 178.365,432.627 178.242,428.345 186.947,426.96 195.937,422.576 202.822,416.622 
			205.812,413.208 201.982,405.577 200.5,399.469 		"/>
		<path style="fill-rule:evenodd;clip-rule:evenodd;fill:#E186AE;" d="M156.615,342.002c0,0,25.059-14.326,40.688,2.812
			c-0.594,5.734-0.803,13.635-0.803,13.635l0.072,12.024l0.959,11.623l1.594,10.607l2.117,9.819l4.57,10.686l-5.713,6.071
			l-8.656,5.488l-7.875,3.02l-8.45,0.48l-9.592-4.049l-8.335-7.172l-3.775-5.022l1.543-9.24l1.941-11.358l0.617-12.673l0.025-10.936
			l-0.342-11.636L156.615,342.002L156.615,342.002z"/>
		
			<path style="fill:none;stroke:#000000;stroke-width:8.5039;stroke-linecap:round;stroke-linejoin:round;stroke-miterlimit:22.9256;" d="
			M87.053,509.877c0,0,20.625-53.062,45.562-76.312"/>
		
			<path style="fill:none;stroke:#000000;stroke-width:8.5039;stroke-linecap:round;stroke-linejoin:round;stroke-miterlimit:22.9256;" d="
			M225.24,430.377c0,0,29.25,37.312,45,91.875"/>
		
			<path style="fill:none;stroke:#000000;stroke-width:8.5039;stroke-linecap:round;stroke-linejoin:round;stroke-miterlimit:22.9256;" d="
			M178.553,445.002c0,0,3.375,82.875,0,110.625"/>
		
			<path style="fill:none;stroke:#000000;stroke-width:8.5039;stroke-linecap:round;stroke-linejoin:round;stroke-miterlimit:22.9256;" d="
			M87.053,509.877c2.625,13.689,30.464,48.536,91.127,47.307c25.398-0.515,55.342-6.379,92.061-34.932"/>
		
			<path style="fill:none;stroke:#000000;stroke-width:8.5039;stroke-linecap:round;stroke-linejoin:round;stroke-miterlimit:22.9256;" d="
			M153.053,411.065c0.75,3.564,13.409,17.086,23.24,17.288c9.83,0.201,20.635-3.037,31.322-17.476"/>
		
			<path style="fill:none;stroke:#000000;stroke-width:8.5039;stroke-linecap:round;stroke-linejoin:round;stroke-miterlimit:22.9256;" d="
			M154.365,451.377c0,0,19.5-16.688,24-18.75"/>
		
			<path style="fill:none;stroke:#000000;stroke-width:8.5039;stroke-linecap:round;stroke-linejoin:round;stroke-miterlimit:22.9256;" d="
			M204.24,450.627c0,0-18.375-15.188-25.875-18"/>
		
			<path style="fill:none;stroke:#000000;stroke-width:8.5039;stroke-linecap:round;stroke-linejoin:round;stroke-miterlimit:22.9256;" d="
			M200.5,399.469c9.75,0.562,10.49-3.217,26.99,26.033"/>
		
			<path style="fill:none;stroke:#000000;stroke-width:8.5039;stroke-linecap:round;stroke-linejoin:round;stroke-miterlimit:22.9256;" d="
			M155.49,398.502c-9.025,0.438-9.817,4.735-13.469,9.962c-3.285,4.703-6.174,9.166-14.094,16.852"/>
		
			<path style="fill:none;stroke:#000000;stroke-width:8.5039;stroke-linecap:round;stroke-linejoin:round;stroke-miterlimit:22.9256;" d="
			M204.24,450.627c0,0,15.188-9.375,23.25-25.125"/>
		
			<path style="fill:none;stroke:#000000;stroke-width:8.5039;stroke-linecap:round;stroke-linejoin:round;stroke-miterlimit:22.9256;" d="
			M127.928,425.316c0,0,2.625,11.062,26.438,26.061"/>
		
			<path style="fill:none;stroke:#000000;stroke-width:8.5039;stroke-linecap:round;stroke-linejoin:round;stroke-miterlimit:22.9256;" d="
			M197.303,344.815c0,0-4.668,32.388,7.322,69.851"/>
		
			<path style="fill:none;stroke:#000000;stroke-width:8.5039;stroke-linecap:round;stroke-linejoin:round;stroke-miterlimit:22.9256;" d="
			M156.615,342.002c0,0,3.75,52-3.562,69.063"/>
	</g>
</g>
<g id="n2502">
	<g>
		<g>
			<g>
				<path style="fill-rule:evenodd;clip-rule:evenodd;fill:#FFFFFF;" d="M57.87,289.832l-1.216-15.693l-0.934-18.85l1.169-16.457
					l-0.545-14.676l1.648-11.934l0.336-12.105L56.74,182l0.205-18.978l-2.194-14.985l2-24l7-10l13-25l19-15l15-11l14-7l15-10
					l10.746-2.797l5.298-9.868l4.477,6.666l11.311,8.031l12.975,6.306l14.539,8.057l16.174,10.267l20.48,8.338l9.887,8.966
					l16.113,7.034l14,20l1.463,24.169l4.117,14.866l1.332,15.73l0.902,18.463l0.641,15.017l0.727,18.702l2.906,12.479l2.369,15.621
					l1.326,19.894l-0.039,8.816c0,0-34.96-2.602-80.833-2.949c-7.521-0.057-15.547-14.402-22.741-18.424
					c-12.928-7.227-33.272-8.725-41.25,0.43c-8.17,9.376-5.987,19.505-12.638,19.935C106.997,281.536,80.396,284.64,57.87,289.832
					L57.87,289.832z"/>
				<polygon style="fill-rule:evenodd;clip-rule:evenodd;fill:#F9D740;" points="40.579,181.167 43.1,191.641 49.905,202.02 
					55.384,210.333 55.878,224.792 56.32,238.285 57.263,249.997 57.87,256.834 49.967,255.851 43.515,250.02 41.008,240.235 
					34.978,228.613 28.787,215.767 27.842,200.556 32.504,189.129 40.579,181.167 				"/>
				<polygon style="fill-rule:evenodd;clip-rule:evenodd;fill:#E186AE;" points="284.064,180.124 293.044,176.122 300.691,175.603 
					308.376,181.163 311.288,190.64 311.732,198.941 309.825,209.619 306.845,221.868 305.558,229.458 301.783,238.632 
					295.97,245.434 291.495,248.958 291.368,236.831 290.208,223.942 287.839,210.331 284.933,199.458 284.064,180.124 				"/>
				<path style="fill-rule:evenodd;clip-rule:evenodd;fill:#67559E;" d="M153.126,14.297l0.828,8.087l1.841,10.987l-4.933,8.006
					l-8.719,8.681l-10.211,4.838l-13.475,6.195l-14.674,8.604L89.194,81.346L78.976,92.109l-10.581,16.055l-6.237,15.044
					l-4.022,15.845l-1.257,12.617l0.251,15.08l1.199,11.911l-0.336,10.548c0,0-3.127,12.582-2.252,14.688
					c0.876,2.105-5.836-1.876-5.836-1.876l-8.065-15.616l-4.792-18.48l-0.583-12.473l1.548-15.21l-0.767-11.471l-0.81-12.333
					l0.579-16.566l2.453-16.455l3.827-13.842l7.051-15.802l8.899-12.852l11.184-10.757l11.921-7.656l16.688-6.595l20.431-3.764
					l18.652-0.566L153.126,14.297L153.126,14.297z"/>
				<polygon style="fill-rule:evenodd;clip-rule:evenodd;fill:#4AB57E;" points="159.965,12.547 171.683,7.458 185.437,5.164 
					195.931,4.981 207.283,6.065 219.396,8.667 233.384,13.589 247.224,20.633 257.191,27.179 267.589,35.463 279.872,47.4 
					291.286,62.107 297.452,73.338 303.503,89.887 306.068,103.558 306.757,115.307 305.697,133.122 304.161,144.305 
					302.222,156.735 300.947,167.309 300.691,175.603 293.044,176.122 284.064,180.124 283.566,170.077 282.663,153.99 
					281.331,140.284 277.214,127.331 266.566,110.292 253.956,96.533 240.468,84.627 226.845,74.89 207.185,63.165 191.827,55.182 
					178.995,49.27 165.928,42.679 158.033,36.275 154.874,27.877 153.495,19.645 153.126,14.297 159.965,12.547 				"/>
				<polygon style="fill-rule:evenodd;clip-rule:evenodd;fill:#4AB57E;" points="72.02,332.575 83.4,330.929 93.966,342.429 
					103.056,347.238 113.502,353.656 127.945,364.719 139.015,375.884 145.792,384.771 152.902,397.623 157.539,411.745 
					159.299,426.581 158.809,437.226 156.591,449.492 152.592,453.046 155.918,466.157 156.676,481.779 154.47,493.346 
					148.269,498.992 146.39,509.12 142.12,519.089 134.629,528.781 127.411,532.114 127.592,522.581 124.347,506.031 
					120.939,497.433 114.323,486.058 105.704,475.89 95.389,466.347 83.769,454.316 75.916,444.61 67.016,428.117 62.642,410.503 
					61.537,392.808 62.444,379.353 64.673,365.504 67.282,354.265 70.917,341.099 72.02,332.575 				"/>
				<polygon style="fill-rule:evenodd;clip-rule:evenodd;fill:#67559E;" points="113.279,495.617 118.502,492.694 122.643,501.733 
					125.157,508.688 127.19,518.49 127.501,527.348 127.094,534.464 125.061,542.251 121.341,549.242 112.96,556.654 
					99.534,562.362 87.912,560.943 78.773,555.219 74.245,550.602 78.966,547.554 87.667,546.242 94.176,542.431 99.651,537.661 
					106.375,529.023 110.408,520.826 113.327,508.999 113.711,502.298 113.279,495.617 				"/>
				
					<path style="fill:none;stroke:#000000;stroke-width:8.5039;stroke-linecap:round;stroke-linejoin:round;stroke-miterlimit:22.9256;" d="
					M74.245,546.871c9.562,3,44.391-25.751,40.078-60.813"/>
				
					<path style="fill:none;stroke:#000000;stroke-width:8.5039;stroke-linecap:round;stroke-linejoin:round;stroke-miterlimit:22.9256;" d="
					M61.341,523.179c0.938,14.438,25.687,62.438,60,26.062"/>
				
					<path style="fill:none;stroke:#000000;stroke-width:8.5039;stroke-linecap:round;stroke-linejoin:round;stroke-miterlimit:22.9256;" d="
					M103.154,473.492c25.5,22.875,30.375,59.063,18.188,75.75"/>
				
					<path style="fill:none;stroke:#000000;stroke-width:8.5039;stroke-linecap:round;stroke-linejoin:round;stroke-miterlimit:22.9256;" d="
					M93.966,342.429c11.467,5.865,79.688,38.625,62.625,107.062"/>
				
					<path style="fill:none;stroke:#000000;stroke-width:8.5039;stroke-linecap:round;stroke-linejoin:round;stroke-miterlimit:22.9256;" d="
					M81.216,356.867c11.812,32.25,31.929,38.815,48.998,58.35c22.205,25.413,32.552,57.255,23.189,81.15"/>
				
					<path style="fill:none;stroke:#000000;stroke-width:8.5039;stroke-linecap:round;stroke-linejoin:round;stroke-miterlimit:22.9256;" d="
					M76.154,339.804c-5.251,30,1.604,49.234,39.253,86.322c32.256,31.772,46.437,78.764,16.997,104.74"/>
				
					<path style="fill:none;stroke:#000000;stroke-width:8.5039;stroke-linecap:round;stroke-linejoin:round;stroke-miterlimit:22.9256;" d="
					M70.341,326.304c0,0,3.015,5.46,1.125,12.75c-3.845,14.832-18.452,55.541-2.999,92.812c5.999,14.471,23.242,31.52,34.687,41.625
					"/>
				
					<path style="fill:none;stroke:#000000;stroke-width:8.5039;stroke-linecap:round;stroke-linejoin:round;stroke-miterlimit:22.9256;" d="
					M173.627,33.371c13.578,5.04,87.698,20.666,110.436,69.999"/>
				
					<path style="fill:none;stroke:#000000;stroke-width:8.5039;stroke-linecap:round;stroke-linejoin:round;stroke-miterlimit:22.9256;" d="
					M178.995,49.27c0,0,98.437,39.563,103.125,96.75"/>
				
					<path style="fill:none;stroke:#000000;stroke-width:8.5039;stroke-linecap:round;stroke-linejoin:round;stroke-miterlimit:22.9256;" d="
					M284.933,199.458c-0.828-5.627-0.289-6.993-0.727-16.296c-0.555-11.859-1.35-27.475-2.086-37.142"/>
				
					<path style="fill:none;stroke:#000000;stroke-width:8.5039;stroke-linecap:round;stroke-linejoin:round;stroke-miterlimit:22.9256;" d="
					M291.495,248.958c0,0,1.312-24.562-6.563-49.5"/>
				
					<path style="fill:none;stroke:#000000;stroke-width:8.5039;stroke-linecap:round;stroke-linejoin:round;stroke-miterlimit:22.9256;" d="
					M284.064,180.124c0,0,21.119-14.041,26.369,6.209"/>
				
					<path style="fill:none;stroke:#000000;stroke-width:8.5039;stroke-linecap:round;stroke-linejoin:round;stroke-miterlimit:22.9256;" d="
					M310.433,207.52c0,0,3-9.188,0-21.188"/>
				
					<path style="fill:none;stroke:#000000;stroke-width:8.5039;stroke-linecap:round;stroke-linejoin:round;stroke-miterlimit:22.9256;" d="
					M305.558,229.458c0,0,1.021-8.948,4.875-21.938"/>
				
					<path style="fill:none;stroke:#000000;stroke-width:8.5039;stroke-linecap:round;stroke-linejoin:round;stroke-miterlimit:22.9256;" d="
					M291.495,248.958c0,0,11.777-7.321,14.062-19.5"/>
				
					<path style="fill:none;stroke:#000000;stroke-width:8.5039;stroke-linecap:round;stroke-linejoin:round;stroke-miterlimit:22.9256;" d="
					M299.183,189.52c0,0-2.67,6.493-2.707,13.875c-0.049,9.902,2.729,21.743-6.002,22.719"/>
				
					<path style="fill:none;stroke:#000000;stroke-width:8.5039;stroke-linecap:round;stroke-linejoin:round;stroke-miterlimit:22.9256;" d="
					M153.495,19.645c2.251,9-4.312,18.375,25.5,29.625"/>
				
					<path style="fill:none;stroke:#000000;stroke-width:8.5039;stroke-linecap:round;stroke-linejoin:round;stroke-miterlimit:22.9256;" d="
					M171.683,7.458c0,0,58.688-18.938,114,46.5"/>
				
					<path style="fill:none;stroke:#000000;stroke-width:8.5039;stroke-linecap:round;stroke-linejoin:round;stroke-miterlimit:22.9256;" d="
					M300.691,175.603c-0.938-29.812,21.742-72.521-15.008-121.646"/>
				
					<path style="fill:none;stroke:#000000;stroke-width:8.5039;stroke-linecap:round;stroke-linejoin:round;stroke-miterlimit:22.9256;" d="
					M138.121,11.583c6,0.75,6.605,3.157,15.005,2.714c6.346-0.335,12.619-5.111,18.557-6.839"/>
				
					<path style="fill:none;stroke:#000000;stroke-width:8.5039;stroke-linecap:round;stroke-linejoin:round;stroke-miterlimit:22.9256;" d="
					M37.245,128.77c0,0-16.875-120.562,100.876-117.187"/>
				
					<path style="fill:none;stroke:#000000;stroke-width:8.5039;stroke-linecap:round;stroke-linejoin:round;stroke-miterlimit:22.9256;" d="
					M91.992,56.703c-49.136,42.667-56.021,76.246-55.573,103.941c0.355,22.05,14.977,39.104,17.514,53.063"/>
				
					<path style="fill:none;stroke:#000000;stroke-width:8.5039;stroke-linecap:round;stroke-linejoin:round;stroke-miterlimit:22.9256;" d="
					M153.495,19.645c1.168,10.222,3.562,26.437-21.563,35.25"/>
				
					<path style="fill:none;stroke:#000000;stroke-width:8.5039;stroke-linecap:round;stroke-linejoin:round;stroke-miterlimit:22.9256;" d="
					M57.309,167.958c0,0-14.063-78.562,74.624-113.062"/>
				
					<path style="fill:none;stroke:#000000;stroke-width:8.5039;stroke-linecap:round;stroke-linejoin:round;stroke-miterlimit:22.9256;" d="
					M57.87,256.834c0,0-2.5-22.137-2.486-46.501c0.009-14.558,5.202-19.252,1.925-42.375"/>
				
					<path style="fill:none;stroke:#000000;stroke-width:8.5039;stroke-linecap:round;stroke-linejoin:round;stroke-miterlimit:22.9256;" d="
					M40.579,181.167c0,0-14.995,8.539-13.12,28.977"/>
				
					<path style="fill:none;stroke:#000000;stroke-width:8.5039;stroke-linecap:round;stroke-linejoin:round;stroke-miterlimit:22.9256;" d="
					M42.495,247.083c0,0-0.493-7.155-4.543-13.148c-7.097-10.504-8.228-13.439-10.493-23.791"/>
				
					<path style="fill:none;stroke:#000000;stroke-width:8.5039;stroke-linecap:round;stroke-linejoin:round;stroke-miterlimit:22.9256;" d="
					M57.87,256.834c0,0-12.706,1.711-15.375-9.751"/>
				
					<path style="fill:none;stroke:#000000;stroke-width:8.5039;stroke-linecap:round;stroke-linejoin:round;stroke-miterlimit:22.9256;" d="
					M51.87,232.083c0,0-7.218,0.905-6.422-13.681c0.795-14.586-0.486-15.132-2.349-26.761"/>
			</g>
			<g>
				<polygon style="fill-rule:evenodd;clip-rule:evenodd;" points="107.486,201.122 104.874,196.763 102.88,189.656 
					101.854,180.442 101.714,170.816 102.284,159.661 103.274,149.883 104.817,142.82 107.835,138.861 114.415,136.489 122,138.348 
					125.227,141.43 126.252,146.29 126.383,152.964 123.947,156.408 115.493,160.857 108.143,163.887 108.411,166.682 
					114.64,170.01 121.546,174.605 126.424,178.606 126.419,184.634 125.146,190.857 123.3,195.658 119.566,201.925 
					116.319,204.354 112.671,204.794 107.486,201.122 				"/>
				<polygon style="fill-rule:evenodd;clip-rule:evenodd;" points="218.604,168.416 218.4,159.744 218.305,151.178 219.472,145.453 
					223.711,141.594 232.575,139.325 239.576,141.29 242.538,148.576 241.8,155.593 233.593,161.703 226.95,166.562 
					227.203,170.172 233.825,174.471 241.666,180.774 244.07,184.042 244.477,188.995 244.013,192.269 242.369,196.052 
					239.278,199.104 235.916,202.085 229.601,200.625 222.9,195.104 219.593,187.569 218.931,177.022 218.604,168.416 				"/>
				
					<path style="fill:none;stroke:#000000;stroke-width:8.5039;stroke-linecap:round;stroke-linejoin:round;stroke-miterlimit:22.9256;" d="
					M203.237,92.41c0,0,23.85-4.332,39.634,11.189"/>
				
					<path style="fill:none;stroke:#000000;stroke-width:8.5039;stroke-linecap:round;stroke-linejoin:round;stroke-miterlimit:22.9256;" d="
					M95.863,114.202c0,0,11.756-19.143,32.513-17.77"/>
				
					<path style="fill:none;stroke:#000000;stroke-width:8.5039;stroke-linecap:round;stroke-linejoin:round;stroke-miterlimit:22.9256;" d="
					M123.176,117.773c0,0-2.655,12.583,0.498,22.173"/>
				
					<path style="fill:none;stroke:#000000;stroke-width:8.5039;stroke-linecap:round;stroke-linejoin:round;stroke-miterlimit:22.9256;" d="
					M105.616,117.728c0,0-2.545,8.758,6.137,19.03"/>
				
					<path style="fill:none;stroke:#000000;stroke-width:8.5039;stroke-linecap:round;stroke-linejoin:round;stroke-miterlimit:22.9256;" d="
					M91.19,126.051c0,0-0.758,5.212,15.795,16.285"/>
				
					<path style="fill:none;stroke:#000000;stroke-width:8.5039;stroke-linecap:round;stroke-linejoin:round;stroke-miterlimit:22.9256;" d="
					M126.092,145.111c0.866-9.192-19.946-14.235-22.386,1.557"/>
				
					<path style="fill:none;stroke:#000000;stroke-width:8.5039;stroke-linecap:round;stroke-linejoin:round;stroke-miterlimit:22.9256;" d="
					M108.143,163.887c0,0,16.269-6.086,18.055-9.631"/>
				
					<path style="fill:none;stroke:#000000;stroke-width:8.5039;stroke-linecap:round;stroke-linejoin:round;stroke-miterlimit:22.9256;" d="
					M126.092,145.111c0,0,0.853,5.126,0.107,9.145"/>
				
					<path style="fill:none;stroke:#000000;stroke-width:8.5039;stroke-linecap:round;stroke-linejoin:round;stroke-miterlimit:22.9256;" d="
					M103.706,146.668c0,0-7.307,48.293,5.855,56.205"/>
				
					<path style="fill:none;stroke:#000000;stroke-width:8.5039;stroke-linecap:round;stroke-linejoin:round;stroke-miterlimit:22.9256;" d="
					M126.424,178.606c0,0,2.022,12.207-7.828,24.591"/>
				
					<path style="fill:none;stroke:#000000;stroke-width:8.5039;stroke-linecap:round;stroke-linejoin:round;stroke-miterlimit:22.9256;" d="
					M107.005,166.046c0,0,10.265,4.283,19.419,12.56"/>
				
					<path style="fill:none;stroke:#000000;stroke-width:8.5039;stroke-linecap:round;stroke-linejoin:round;stroke-miterlimit:22.9256;" d="
					M125.636,204.316c0,0-18.765-2.321-35.151,9.09"/>
				
					<path style="fill:none;stroke:#000000;stroke-width:8.5039;stroke-linecap:round;stroke-linejoin:round;stroke-miterlimit:22.9256;" d="
					M119.575,212.819c0,0,2.138-5.682,3.072-8.684"/>
				
					<path style="fill:none;stroke:#000000;stroke-width:8.5039;stroke-linecap:round;stroke-linejoin:round;stroke-miterlimit:22.9256;" d="
					M107.892,214.37c0,0,3.896-6.37,4.779-9.576"/>
				
					<path style="fill:none;stroke:#000000;stroke-width:8.5039;stroke-linecap:round;stroke-linejoin:round;stroke-miterlimit:22.9256;" d="
					M210.901,124.114c0,0,6.582,4.031,10.083,14.535"/>
				
					<path style="fill:none;stroke:#000000;stroke-width:8.5039;stroke-linecap:round;stroke-linejoin:round;stroke-miterlimit:22.9256;" d="
					M225.67,116.399c0,0,7.5,9.524,5.012,22.105"/>
				
					<path style="fill:none;stroke:#000000;stroke-width:8.5039;stroke-linecap:round;stroke-linejoin:round;stroke-miterlimit:22.9256;" d="
					M248.419,127.99c0,0-2.199,9.518-9.827,13.914"/>
				
					<path style="fill:none;stroke:#000000;stroke-width:8.5039;stroke-linecap:round;stroke-linejoin:round;stroke-miterlimit:22.9256;" d="
					M215.593,203.281c0,0,23.337-5.09,39.696,4.15"/>
				
					<path style="fill:none;stroke:#000000;stroke-width:8.5039;stroke-linecap:round;stroke-linejoin:round;stroke-miterlimit:22.9256;" d="
					M238.818,202.372c0,0-0.757,4.857,4.151,8.761"/>
				
					<path style="fill:none;stroke:#000000;stroke-width:8.5039;stroke-linecap:round;stroke-linejoin:round;stroke-miterlimit:22.9256;" d="
					M227.946,201.923c0,0-1.275,4.1,1.805,8.796"/>
				
					<path style="fill:none;stroke:#000000;stroke-width:8.5039;stroke-linecap:round;stroke-linejoin:round;stroke-miterlimit:22.9256;" d="
					M218.299,149.243c-0.297-8.715,20.821-16.831,24.239-0.667"/>
				
					<path style="fill:none;stroke:#000000;stroke-width:8.5039;stroke-linecap:round;stroke-linejoin:round;stroke-miterlimit:22.9256;" d="
					M242.799,154.844c0,0-15.381,11.549-18.528,13.584"/>
				
					<path style="fill:none;stroke:#000000;stroke-width:8.5039;stroke-linecap:round;stroke-linejoin:round;stroke-miterlimit:22.9256;" d="
					M242.538,148.576c0,0,0.554,3.51,0.261,6.268"/>
				
					<path style="fill:none;stroke:#000000;stroke-width:8.5039;stroke-linecap:round;stroke-linejoin:round;stroke-miterlimit:22.9256;" d="
					M218.299,149.243c0,0-0.031,22.228,1.294,38.325c0.544,6.61,5.01,9.211,10.007,13.056"/>
				
					<path style="fill:none;stroke:#000000;stroke-width:8.5039;stroke-linecap:round;stroke-linejoin:round;stroke-miterlimit:22.9256;" d="
					M224.271,168.428c0,0,17.541,9.987,19.799,15.613"/>
				
					<path style="fill:none;stroke:#000000;stroke-width:8.5039;stroke-linecap:round;stroke-linejoin:round;stroke-miterlimit:22.9256;" d="
					M239.278,199.104c0,0,6.97-3.622,4.793-15.062"/>
			</g>
		</g>
		<path style="fill-rule:evenodd;clip-rule:evenodd;fill:#4AB57E;" d="M60.251,302.536c0,0-13.5-17.5-4.5-32.5c9-15,19-28,43.5-34
			s73,2.5,73,2.5l0.5,114.5c0,0-31.5-0.5-53.5-11.5S60.251,302.536,60.251,302.536z"/>
		<path style="fill-rule:evenodd;clip-rule:evenodd;fill:#F9D740;" d="M209.251,349.036c9.5-1.5,49.5-1,62-35.5s19.5-44.5,6.5-60.5
			s-25.5-26.5-58-20.5s-49.5,6.5-49.5,6.5l2.5,114L209.251,349.036z"/>
	</g>
</g>
<g id="n2503">
	<g>
		<path style="fill-rule:evenodd;clip-rule:evenodd;fill:#E186AE;" d="M158.781,324.056l1.773-23.948l3.276-9.197l6.141-5.876
			l11.694-0.426l7.864,0.393l3.969,3.897c0,0,1.582,6.404,0.649,5.913c-0.934-0.491-4.918,3.282-4.918,3.282l0.976,6.704
			l-0.841,16.886l-8.438,2.646l-9.827,5.096l-6.13-3.33L158.781,324.056L158.781,324.056z"/>
		
			<path style="fill:none;stroke:#000000;stroke-width:8.5039;stroke-linecap:round;stroke-linejoin:round;stroke-miterlimit:22.9256;" d="
			M177.062,298.158c0,0,25.448,0.883,13.998-13.4"/>
		
			<path style="fill:none;stroke:#000000;stroke-width:8.5039;stroke-linecap:round;stroke-linejoin:round;stroke-miterlimit:22.9256;" d="
			M189.229,298.094c0,0,0.979,19.758-0.478,23.609"/>
		
			<path style="fill:none;stroke:#000000;stroke-width:8.5039;stroke-linecap:round;stroke-linejoin:round;stroke-miterlimit:22.9256;" d="
			M158.781,324.056c0,0-6.03-48.02,30.97-40.353"/>
	</g>
</g>
<g id="n2504">
	<g>
		<g>
			<path style="fill-rule:evenodd;clip-rule:evenodd;fill:#F9D740;" d="M154.706,228.35l-3.482-6.325l1.051-6.594l4.735-7.762
				l5.856-6.243l6.556-5.625l6.819-2.579l7.205,1.021l5.401,2.934l5.715,5.143l4.402,5.322l3.382,5.89l1.338,6.002l-1.106,3.787
				l-4.307,3.352l-5.477,1.33C192.795,228.004,170.947,235.128,154.706,228.35L154.706,228.35z"/>
			
				<path style="fill:none;stroke:#000000;stroke-width:8.5039;stroke-linecap:round;stroke-linejoin:round;stroke-miterlimit:22.9256;" d="
				M154.706,228.35c0,0-14.37-9.521,14.716-32.548"/>
			
				<path style="fill:none;stroke:#000000;stroke-width:8.5039;stroke-linecap:round;stroke-linejoin:round;stroke-miterlimit:22.9256;" d="
				M183.446,194.244c8.483,1.904,34.972,30.644,9.349,33.76"/>
			
				<path style="fill:none;stroke:#000000;stroke-width:8.5039;stroke-linecap:round;stroke-linejoin:round;stroke-miterlimit:22.9256;" d="
				M183.446,194.244c-3.117-1.384-8.657-2.078-14.024,1.558"/>
			
				<path style="fill:none;stroke:#000000;stroke-width:8.5039;stroke-linecap:round;stroke-linejoin:round;stroke-miterlimit:22.9256;" d="
				M185.869,220.559c0,0,1.731,2.251,2.597,2.597"/>
			
				<path style="fill:none;stroke:#000000;stroke-width:8.5039;stroke-linecap:round;stroke-linejoin:round;stroke-miterlimit:22.9256;" d="
				M163.363,219.694c0,0-1.731,3.289-3.116,3.982"/>
		</g>
		<path style="fill-rule:evenodd;clip-rule:evenodd;fill:#E186AE;" d="M297.313,263.312l-3.833-11.053l-7.126-12.38l-11.118-10.963
			l-15.581-7.713l-15.119-2.832l-14.813,0.198l-16.85,2.551l-12.562,2.658l-17.163,3.446l-13.947,1.787l-15.963-0.851l-14.73-3.321
			l-15.204-1.38l-11.633-0.666l-13.418,1.957l-19.682,7.3l-12.686,9.274l-10.412,13.16l-5.632,12.935l-1.861,14.186l1.123,12.767
			l3.822,12.325l6.751,11.816l9.95,10.467l14.443,9.997l13.59,7.223l19.962,8.032l18.62,5.26l18.016,3.323l17.767,1.737
			l19.756-0.013l19.875-2.314l15.485-3.489l13.688-4.591l10.901-4.989l12.205-7.622l9.731-8.578l7.685-9.807l5.794-10.383
			l5.079-11.192l4.509-14.23l1.666-10.597L297.313,263.312z M265.751,298.036c-11,16.333-25.667,37.667-60,38
			c-34.333,0.333-65.667,2-89.333-12.667c-23.667-14.667-43.333-23-39-52.667c0,0,2.667-20,21-21.333
			c18.333-1.333,42.667,6.667,56.667,6c14-0.667,65.333-5.667,81-9.333c15.667-3.667,28.667-2.333,31.667,7.667
			C270.751,263.703,276.751,281.703,265.751,298.036z"/>
		<polygon style="fill-rule:evenodd;clip-rule:evenodd;fill:#FFFFFF;" points="94.875,252.194 96.268,257.631 96.732,264.075 
			100.403,270.798 107.075,275.183 112.978,274.833 121.32,277.964 131.098,276.441 135.04,274.756 144.301,280.577 
			154.564,283.828 165.52,284.287 170.549,280.775 179.714,284.156 191.06,284.758 197.048,282.404 203.841,276.611 
			210.101,279.078 219.199,279.833 225.673,278.222 229.615,275.113 236.913,276.685 243.998,275.244 248.382,271.909 
			252.881,263.561 254.635,254.852 256.158,249.235 246.801,246.617 239.28,246.289 226.165,247.822 213.905,250.264 
			197.924,253.065 180.754,254.59 163.515,254.969 148.495,253.344 136.067,250.29 120.029,247.757 106.752,248.581 94.875,252.194 
					"/>
		<polygon style="fill-rule:evenodd;clip-rule:evenodd;fill:#FFFFFF;" points="95.447,311.525 98.623,305.973 104.623,299.157 
			111.619,295.917 118.336,296.829 121.814,298.837 123.326,305.001 130.324,305.287 135.788,308.215 141.278,313.624 
			149.031,310.495 157.771,310.244 165.871,312.632 172.001,315.962 176.872,312.37 185.213,308.853 194.363,308.507 
			200.545,310.348 204.431,312.573 211.395,308.204 218.174,305.328 222.232,299.408 227.694,295.251 235.024,287.402 
			241.395,284.528 250.409,284.872 257.498,288.834 260.778,292.951 265.081,297.114 261.893,303.261 255.793,311.699 
			247.382,319.746 239.778,324.916 229.664,329.79 215.646,333.955 199.959,336.179 187.771,336.65 169.451,336.087 
			156.338,334.733 143.11,332.25 127.721,327.575 111.374,320.624 100.596,315.066 95.447,311.525 		"/>
		
			<path style="fill:none;stroke:#000000;stroke-width:8.5039;stroke-linecap:round;stroke-linejoin:round;stroke-miterlimit:22.9256;" d="
			M96.268,257.631c0,0-1.427,18.247,16.71,17.202"/>
		
			<path style="fill:none;stroke:#000000;stroke-width:8.5039;stroke-linecap:round;stroke-linejoin:round;stroke-miterlimit:22.9256;" d="
			M135.04,274.756c0,0-18.64,10.002-25.461-12.574"/>
		
			<path style="fill:none;stroke:#000000;stroke-width:8.5039;stroke-linecap:round;stroke-linejoin:round;stroke-miterlimit:22.9256;" d="
			M112.031,271.367"/>
		
			<path style="fill:none;stroke:#000000;stroke-width:8.5039;stroke-linecap:round;stroke-linejoin:round;stroke-miterlimit:22.9256;" d="
			M170.732,280.642c0,0-13.951,10.881-35.692-5.887"/>
		
			<path style="fill:none;stroke:#000000;stroke-width:8.5039;stroke-linecap:round;stroke-linejoin:round;stroke-miterlimit:22.9256;" d="
			M202.982,276.183c0,0-7.972,16.768-32.25,4.46"/>
		
			<path style="fill:none;stroke:#000000;stroke-width:8.5039;stroke-linecap:round;stroke-linejoin:round;stroke-miterlimit:22.9256;" d="
			M237.89,259.604c-0.544,6.6-3.175,12.465-14.712,18.836c-4.735,2.614-11.376,2.236-20.196-2.257"/>
		
			<path style="fill:none;stroke:#000000;stroke-width:8.5039;stroke-linecap:round;stroke-linejoin:round;stroke-miterlimit:22.9256;" d="
			M232.65,271.533c0,0,20.79,9.99,23.508-22.298"/>
		
			<path style="fill:none;stroke:#000000;stroke-width:8.5039;stroke-linecap:round;stroke-linejoin:round;stroke-miterlimit:22.9256;" d="
			M135.221,318.816c0,0,13.588-17.838,36.779-2.854"/>
		
			<path style="fill:none;stroke:#000000;stroke-width:8.5039;stroke-linecap:round;stroke-linejoin:round;stroke-miterlimit:22.9256;" d="
			M206.587,315.962c0,0-17.012-15.162-34.586,0"/>
		
			<path style="fill:none;stroke:#000000;stroke-width:8.5039;stroke-linecap:round;stroke-linejoin:round;stroke-miterlimit:22.9256;" d="
			M239.761,312.216c0,0-19.646-17.863-33.174,3.746"/>
		
			<path style="fill:none;stroke:#000000;stroke-width:8.5039;stroke-linecap:round;stroke-linejoin:round;stroke-miterlimit:22.9256;" d="
			M249.545,300.799c0,0-12.972-16.794-26.544,4.482"/>
		
			<path style="fill:none;stroke:#000000;stroke-width:8.5039;stroke-linecap:round;stroke-linejoin:round;stroke-miterlimit:22.9256;" d="
			M260.778,292.951c-4.167-8.206-19.02-15.146-30.991,4.531"/>
		
			<path style="fill:none;stroke:#000000;stroke-width:8.5039;stroke-linecap:round;stroke-linejoin:round;stroke-miterlimit:22.9256;" d="
			M98.623,305.973c0,0,12.301-17.328,24.703-0.972"/>
		
			<path style="fill:none;stroke:#000000;stroke-width:8.5039;stroke-linecap:round;stroke-linejoin:round;stroke-miterlimit:22.9256;" d="
			M116.239,312.074c0,0,11.648-19.665,28.056,0.333"/>
		
			<path style="fill:none;stroke:#000000;stroke-width:8.5039;stroke-linecap:round;stroke-linejoin:round;stroke-miterlimit:22.9256;" d="
			M49.079,270.526c0,0,8.515-50.304,75.914-47.985"/>
		
			<path style="fill:none;stroke:#000000;stroke-width:8.5039;stroke-linecap:round;stroke-linejoin:round;stroke-miterlimit:22.9256;" d="
			M222.647,219.508c4.333-0.483,60.876-12.665,75.189,45.844"/>
		
			<path style="fill:none;stroke:#000000;stroke-width:8.5039;stroke-linecap:round;stroke-linejoin:round;stroke-miterlimit:22.9256;" d="
			M124.992,222.54c16.306,0.892,17.612,6.593,44.209,6.471c15.37-0.07,30.659-6.307,53.446-9.503"/>
		
			<path style="fill:none;stroke:#000000;stroke-width:8.5039;stroke-linecap:round;stroke-linejoin:round;stroke-miterlimit:22.9256;" d="
			M67.016,326.716c0,0-24.459-20.157-17.937-56.19"/>
		
			<path style="fill:none;stroke:#000000;stroke-width:8.5039;stroke-linecap:round;stroke-linejoin:round;stroke-miterlimit:22.9256;" d="
			M297.836,265.352c0,0,5.979,20.692-16.487,57.796"/>
		
			<path style="fill:none;stroke:#000000;stroke-width:8.5039;stroke-linecap:round;stroke-linejoin:round;stroke-miterlimit:22.9256;" d="
			M67.016,326.716c11.052,10.167,48.331,35.279,107.614,37.969c34.318,1.558,85.535-8.222,106.72-41.537"/>
		
			<path style="fill:none;stroke:#000000;stroke-width:8.5039;stroke-linecap:round;stroke-linejoin:round;stroke-miterlimit:22.9256;" d="
			M124.902,248.138c21.741,3.389,22.053,7.52,47.667,6.783c28.277-0.813,37.689-4.235,50.35-6.426"/>
		
			<path style="fill:none;stroke:#000000;stroke-width:8.5039;stroke-linecap:round;stroke-linejoin:round;stroke-miterlimit:22.9256;" d="
			M269.663,262.409c0,0,0.681-26.565-46.744-13.914"/>
		
			<path style="fill:none;stroke:#000000;stroke-width:8.5039;stroke-linecap:round;stroke-linejoin:round;stroke-miterlimit:22.9256;" d="
			M124.902,248.138c0,0-44.57-6.422-47.469,30.503"/>
		
			<path style="fill:none;stroke:#000000;stroke-width:8.5039;stroke-linecap:round;stroke-linejoin:round;stroke-miterlimit:22.9256;" d="
			M77.433,278.641c0,0-2.718,23.011,28.083,39.244"/>
		
			<path style="fill:none;stroke:#000000;stroke-width:8.5039;stroke-linecap:round;stroke-linejoin:round;stroke-miterlimit:22.9256;" d="
			M269.663,262.409c0,0,6.522,31.217-19.024,54.585"/>
		
			<path style="fill:none;stroke:#000000;stroke-width:8.5039;stroke-linecap:round;stroke-linejoin:round;stroke-miterlimit:22.9256;" d="
			M105.516,317.885c21.806,10.215,39.457,18.873,82.255,18.765c21.66-0.054,45.447-3.9,62.869-19.657"/>
	</g>
</g>
</svg>
