<svg xmlns="http://www.w3.org/2000/svg" xmlns:xlink="http://www.w3.org/1999/xlink" viewBox="0 0 337.006 549.587"><g id="n2601"><g><path fill-rule="evenodd" clip-rule="evenodd" fill="#4ab57e" d="M44.377 430.589l-1.275-18.079-1.258-28.167-1.002-37.818-.273-43.495.812-45.416 2.043-43.134 3.78-42.139 5.445-33.304 7.951-30.67 8.162-21.468 9.625-17.978 12.678-15.957 5.885 2.67 6.302-12.42-1.881-2.179 10.784-8.321 13.98-7.953 15.533-5.124 12.584-.798 5.252-2.251 10.823 7.137 14.464 8.36 15.444 8.579 20.564 11.82 21.059 13.591 19.258 15.249 14.722 15.844 9.653 16.428 3.4 10.911 1.127 10.53 2.186 12.166.504 8.537-.481 6.86 1.783 14.777.77 20.29.099 17.615-.261 25.509-.516 26.642-.65 28.095-1.348 19.152-1.033 22.876-.375 18.356-.02 28.493.36 22.159.5 17.998.906 22.715 5.351-1.268 8.176-6.009 11.074-9.851 8.088-9.343 6.485-10.793-.951-7.518-1.53-21.067-.842-28.119-.238-24.776.151-40.875.474-38.26.606-41.608-.512-30.783-1.77-24.01-1.629-15.752-2.791-16.784-7.619-25.629-10.422-20.824-15.582-20.898-17.882-17.268-16.604-11.734-22.068-10.603-26.405-6.636-17.392-1.147-11.389.835-11.082 1.246-9.422-.049-8.933.678-13.286-3.827-13.271.14-14.262 3.701-12.474 6.118-11.489 8.025-7.468 4.102-7.334 5.566-9.077 10.553-10.75 17.383-9.683 20.343-8.494 21.816-6.289 18.783-5.965 20.098-3.469 12.81-1.971 7.671 1.5 6-1.418 15.776-1.402 17.423-1.445 20.019-1.073 16.524-.918 15.715-1.14 22.428-.807 19.118-.752 22.612-.47 20.176-.278 21.41-.037 18.737.111 14.251.254 14.686 5.743 6.408 8.128 6.929 11.53 6.73 14.349 3.933z"/><path fill-rule="evenodd" clip-rule="evenodd" fill="#67559e" d="M42.473 398.427l6.779 1.037 2.217-13.003 2.057-17.294 1.338-18.485.564-22.504.629-26.265 1.234-26.99 1.733-26.139 2.711-30.552 3.426-29.814 3.976-27.605 4.379-24.805 5.389-24.933 5.084-19.323 8.652-25.869 4.309-10.249-5.885-2.67-6.34 7.979-8.906 12.177-8.799 17.786-6.42 17.461-4.656 17.966-4.223 18.386-2.578 15.759-3.293 23.767-1.818 21.327-1.096 16.889-.906 17.964-.809 22.502-.541 26.982-.133 25.497.205 25.491.34 18.004.473 17.232.406 11.619.502 10.675z"/><path d="M62.838 207.808l-1.703 16.477-1.564 18.336-1.793 24.109-1.103 21.689-.744 17.276-.502 22.483-.564 22.504-1.338 18.485-1.512 13.353-2.762 16.944-6.719.301.252 10.668 17.801-2.691 30.059-3.233 30.377-1.952 33.828-.684 26.994.617 29.748 1.964 27.588 3.139 20.332 3.212 13.648 2.626 18.125 2.133-.531-24.419-.059-35.232.892-29.793 1.863-30.591.58-25.086.586-29.65.246-21.764-.033-12.553s-29.401-21.887-87.438-18.144c-10.86.7-45.267 4.488-56.814 4.222-31.343-.724-57.135 27.831-87.74 15.254z" fill-rule="evenodd" clip-rule="evenodd" fill="#67559e"/><path d="M156.504 17.588l10.822 7.137 14.465 8.36 12.641 7.02 23.367 13.379 18.258 11.647 15.807 12.243 10.209 9.208 10.766 11.587 4.826 8.214 6.525 13.67 2.266 10.72 1.656 11.348 1.344 10.352-.201 7.243.494 8.204 1.494 14.264.555 19.465.033 5.828s-39.041 22.092-85.857 24.986c-12.095.747-16.604 9.242-22.805 9.731-11.638.918-16.119-6.126-28.645-6.876-5.712-.342-4.978-2.107-20.323-2.12-24.722-.021-85.677 44.12-74.361-24.387-5.698 34.498 2.727-22.475 2.727-22.475l3.572-24.52 5.453-30.207 5.111-22.801 6.957-24.88 5.982-17.042 9.314-20.111-2.635-2.931s5.316-4.12 7.441-5.967c2.127-1.847 16.354-10.662 16.354-10.662l10.787-4.013 14.059-2.962 6.291-.398 5.251-2.254z" fill-rule="evenodd" clip-rule="evenodd" fill="#e186ae"/><g><defs><path id="aA" d="M55.101 290.843l4.418-8.683 8.918-11.537 14.599-8.681 11.309-6.545 16.159-1.575 14.622 2.008 11.535.811-5.398-16.81 4.103-14.382 11.645-12.635 15.632-10.818 11.831-2.074 11.464 6.593 14.091 13.831 7.6 13.508 2.999 8.961-3.917 9.09.643 3.733 14.632-3.352 15.317-1.404 18.268 1.862 16.012 6.341 9.947 7.657 8.909 11.383 4.818 9.629 3.467-4.723-1.281-14.487-4.874-15.685-5.619-9.049 3.85-16.835 3.847-27.285 1.25-28.224-1.339-24.587-4.028-24.869-7.808-26.158-10.983-23.314-13.61-19.754-20.301-18.548-22.058-10.749-22.439-4.375-21.808 7.87-22.667-9.333-18.518 9.287-19.787 9.42-9.695 11.96-5.333 22-12.667 28-3.333 27.333-5.334 22.667-6 20-3.028 20.102-.305 18.564-3.721 17.303.388 18.697-5.222 10.213-1.409 9.148 2.399 12.58-1.768 10.059-.422 5.861z"/></defs><clipPath id="aB"><use xlink:href="#aA" overflow="visible"/></clipPath><path clip-path="url(#aB)" fill-rule="evenodd" clip-rule="evenodd" fill="#fff" d="M-3.019-39.934h176.385v414.576H-3.019z"/></g><path d="M66.456 278.963s-13.5-17.5-4.5-32.5 19-28 43.5-34 73 2.5 73 2.5l.5 114.5s-31.5-.5-53.5-11.5-59-39-59-39z" fill-rule="evenodd" clip-rule="evenodd" fill="#4ab57e"/><path d="M215.456 325.463c9.5-1.5 49.5-1 62-35.5s19.5-44.5 6.5-60.5-25.5-26.5-58-20.5-49.5 6.5-49.5 6.5l2.5 114 36.5-4z" fill-rule="evenodd" clip-rule="evenodd" fill="#61f4e5"/><path d="M173.709 14.001c.201-2.583 1.278-2.487-2.692 75.052-1.035 20.209-.847 93.966-.847 93.966" fill-rule="evenodd" clip-rule="evenodd" fill="none" stroke="#000" stroke-width="8.504" stroke-linecap="round" stroke-linejoin="round" stroke-miterlimit="22.926"/><path d="M42.786 410.433s128.184-19.977 248.559 7.961m-29.372-59.711s-.92 41.194 4.977 53.503M73.348 367.495s-2.812 24.75-5.438 33.562m85.72-384.469c34.125 25.125 141.2 57.863 138.825 134.883m.001 0c-.853 15.513 2.99 60.869.924 147.118m-.938 148.688s-4.688-91.687.938-148.688m39.374 108.375s-4.875 19.312-37.688 40.875m9.563-99.938c-.562 24.75 2.869 70.386 1.34 92.1m-24.31-364.444s28.719 40.395 18.219 75.895M147.784 8.432s20.915-12.481 56.594 8.156m77.281 58.969s-31.781-41.605-77.281-58.969" fill="none" stroke="#000" stroke-width="8.504" stroke-linecap="round" stroke-linejoin="round" stroke-miterlimit="22.926"/><path d="M183.716 7.492s47.265-10.634 95.827 35.867c48.562 46.5 45.803 95.762 49.74 139.824m3.471 223.781c-6-47.438-2.531-199.03-3.471-223.781M47.377 406.952s7.695-34.259 8.006-74.25c.674-87.067 16.656-235.064 51.379-295.827m46.868-20.287s-24.503-1.874-56.753 28.501" fill="none" stroke="#000" stroke-width="8.504" stroke-linecap="round" stroke-linejoin="round" stroke-miterlimit="22.926"/><path d="M96.877 45.089c-7.565 7.972-43.5 45.375-52.125 151.125s-1.5 226.875-.375 234.375m-39.75-24s15.75 21.375 39.75 24M14.002 167.714s-12 121.125-9.375 238.875m78.375-384s-65.125 58.862-69 145.125M147.784 8.432S120.503-7.411 83.003 22.589" fill="none" stroke="#000" stroke-width="8.504" stroke-linecap="round" stroke-linejoin="round" stroke-miterlimit="22.926"/><g><path fill-rule="evenodd" clip-rule="evenodd" d="M109.519 176.551l-2.616-4.686-2.002-7.637-1.036-9.901-.151-10.342.558-11.983.979-10.505 1.535-7.587 3.013-4.249 6.579-2.541 7.586 2.005 3.231 3.315 1.03 5.223.139 7.171-2.433 3.697-8.449 4.77-7.346 3.248.271 3.003 6.232 3.581 6.911 4.945 4.883 4.304.002 6.476-1.266 6.684-1.841 5.157-3.727 6.729-3.245 2.606-3.647.469-5.19-3.952zm111.084-35.014l-.213-9.318-.104-9.203 1.16-6.149 4.234-4.141 8.863-2.428 7.003 2.118 2.97 7.832-.731 7.537-8.199 6.556-6.638 5.213.256 3.878 6.628 4.626 7.848 6.782 2.407 3.513.412 5.322-.46 3.517-1.639 4.062-3.089 3.276-3.358 3.199-6.317-1.576-6.707-5.939-3.315-8.099-.674-11.332-.337-9.246z"/><path d="M205.152 59.862s23.845-4.627 39.647 12.065M97.801 83.155s11.734-20.554 32.494-19.055m-5.178 22.922s-2.642 13.516.522 23.822m-18.082-23.89s-2.536 9.406 6.158 20.452M93.141 95.88s-.753 5.599 15.814 17.514m19.109 3.002c.856-9.874-19.962-15.316-22.385 1.648m4.457 18.505s16.262-6.521 18.045-10.327m-.117-9.826s.859 5.508.117 9.826m-22.502-8.178s-7.254 51.876 5.917 60.391m16.837-26.053s2.035 13.117-7.801 26.412m-11.633-39.928s10.27 4.613 19.433 13.515m-.758 27.622s-18.768-2.514-35.141 9.727m29.089-.598s2.132-6.102 3.063-9.326m-14.744 10.98s3.889-6.84 4.768-10.283m98.142-86.571s6.587 4.338 10.1 15.627m4.66-23.9s7.511 10.241 5.037 23.755m17.726-11.277s-2.189 10.223-9.811 14.938m-22.932 65.916s23.332-5.442 39.702 4.503m-16.478-5.453s-.751 5.217 4.161 9.417m-15.033-9.913s-1.271 4.403 1.815 9.452m-11.521-66.059c-.307-9.364 20.802-18.059 24.239-.69m.267 6.734s-15.368 12.391-18.513 14.574m18.246-21.308s.558 3.772.268 6.734m-24.507-6.044s-.006 23.882 1.337 41.177c.552 7.102 5.02 9.901 10.022 14.038m-5.366-34.597s17.553 10.75 19.817 16.797m-4.776 16.177s6.966-3.884 4.776-16.177" fill="none" stroke="#000" stroke-width="8.504" stroke-linecap="round" stroke-linejoin="round" stroke-miterlimit="22.926"/></g></g></g><g id="n2602"><g><path d="M130.686 432.105c-1.512-1.778 1.996 7.083 1.996 7.083l5.541 6.42 9.604 4.325 15.551 1.187 14.81 1.278 17.104-3.407 11.545-5.618 8.24-8.974 3.053-11.176 9.697 5.462 9.59 7.588 9.672 9.83 7.918 9.704 7.922 11.253 7.781 12.622 5.15 9.248 3.326 6.362-9.121 10.387-12.508 11.08-17.723 11.648-15.479 7.372-20.555 6.505-18.695 2.816-21.367-.653L148.5 542.2l-19.793-5.4-12.732-5.5-12.297-7.38-12.428-10.096-8.379-8.407 3.326-10.709 5.08-13.115 7.498-14.752 8.775-13.346 10.344-12.413 12.792-8.977z" fill-rule="evenodd" clip-rule="evenodd" fill="#f9d740"/><path d="M153.561 345.417s20.932-15.077 39 2.25c-.424 4.209-.781 8.521-.781 8.521l-.641 18.631-.131 10.495.207 6.897 1.199 12.036 2.195 9.091 3.285 6.339 5.418 3.511 4.049-3.223 7.498 1.937 2.412 4.461-2.195 8.035-5.391 6.752-7.992 5.221-11.695 4.155-17.615 1.993-11.988-1.628-12.568-.959-12.375-7.535-4.539-8.02-.213-5.328 7.977-6.067 7.621-4.895 6.889-5.296 1.406-11.008.363-13.103-.207-12.925-.553-20.098-.635-10.24z" fill-rule="evenodd" clip-rule="evenodd" fill="#61f4e5"/><path d="M152.061 415.042s-49.687 21.75-68.25 87.375m116.437-82.5s36-8.812 78.938 75.375m-110.813-66.75s7.312 3.562 12 .188m-36.18 33.707c26.214 10.147 52.069 2.593 59.993-2.582m-63.75-31.125s10.1-5.507 13.369-19.161m-.244-64.152s3.375 51.813-.375 67.375m39.375-65.125s-8.25 77.5 13.125 75.625" fill="none" stroke="#000" stroke-width="8.504" stroke-linecap="round" stroke-linejoin="round" stroke-miterlimit="22.926"/><path d="M130.686 432.105c1.873 17.25 19.545 20.298 43.5 20.432 13.877.077 43.482-6.424 43.125-27.932m-134.44 80.812c16.5 17.626 39.178 36.798 89.988 39.764 34.533 2.017 79.777-15.742 106.326-49.889" fill="none" stroke="#000" stroke-width="8.504" stroke-linecap="round" stroke-linejoin="round" stroke-miterlimit="22.926"/></g></g><g id="n2603"><g><path d="M159.986 302.022l1.773-24.262 3.276-9.317 6.141-5.953 11.694-.431 7.864.398 3.969 3.948s1.582 6.488.649 5.99c-.934-.498-4.918 3.325-4.918 3.325l.976 6.792-.841 17.108-8.438 2.681-9.827 5.163-6.13-3.373-6.188-2.069z" fill-rule="evenodd" clip-rule="evenodd" fill="#e186ae"/><path d="M178.267 275.785s25.448.894 13.998-13.576m-1.831 13.511s.979 20.017-.478 23.919m-29.97 2.383s-6.03-48.649 30.97-40.882" fill="none" stroke="#000" stroke-width="8.504" stroke-linecap="round" stroke-linejoin="round" stroke-miterlimit="22.926"/></g></g><g id="n2604"><g><g><path d="M154.795 204.592l-3.482-6.325 1.051-6.594 4.735-7.762 5.856-6.243 6.556-5.625 6.819-2.579 7.205 1.021 5.401 2.934 5.715 5.143 4.402 5.322 3.382 5.89 1.338 6.002-1.106 3.787-4.307 3.352-5.477 1.33s-21.848 7.124-38.088.347z" fill-rule="evenodd" clip-rule="evenodd" fill="#67559e"/><path d="M154.795 204.592s-14.37-9.521 14.716-32.548m14.023-1.559c8.483 1.904 34.972 30.644 9.349 33.76m-9.349-33.76c-3.117-1.384-8.657-2.078-14.024 1.558m16.448 24.758s1.731 2.251 2.597 2.597m-25.104-3.463s-1.731 3.289-3.116 3.982" fill="none" stroke="#000" stroke-width="8.504" stroke-linecap="round" stroke-linejoin="round" stroke-miterlimit="22.926"/></g><path d="M297.402 239.554l-3.833-11.053-7.126-12.38-11.118-10.963-15.581-7.713-15.119-2.832-14.813.198-16.85 2.551-12.562 2.658-17.163 3.446-13.947 1.787-15.963-.851-14.73-3.321-15.204-1.38-11.633-.666-13.418 1.957-19.682 7.3-12.686 9.274-10.412 13.16-5.632 12.935-1.861 14.186 1.123 12.767 3.822 12.325 6.751 11.816 9.95 10.467 14.443 9.997 13.59 7.223 19.962 8.032 18.62 5.26 18.016 3.323 17.767 1.737 19.756-.013 19.875-2.314 15.485-3.489 13.688-4.591 10.901-4.989 12.205-7.622 9.731-8.578 7.685-9.807 5.794-10.383 5.079-11.192 4.509-14.23 1.666-10.597-1.085-13.435zm-31.562 34.724c-11 16.333-25.667 37.667-60 38-34.333.333-65.667 2-89.333-12.667-23.667-14.667-43.333-23-39-52.667 0 0 2.667-20 21-21.333 18.333-1.333 42.667 6.667 56.667 6s65.333-5.667 81-9.333c15.667-3.667 28.667-2.333 31.667 7.667s8.999 27.999-2.001 44.333z" fill-rule="evenodd" clip-rule="evenodd" fill="#f9d740"/><path fill-rule="evenodd" clip-rule="evenodd" fill="#fff" d="M94.964 228.436l1.393 5.436.464 6.444 3.671 6.723 6.671 4.385 5.904-.35 8.341 3.131 9.778-1.523 3.943-1.685 9.261 5.822 10.263 3.25 10.955.459 5.03-3.512 9.164 3.381 11.347.602 5.988-2.354 6.792-5.793 6.26 2.467 9.099.755 6.473-1.611 3.943-3.109 7.298 1.572 7.085-1.441 4.384-3.335 4.499-8.348 1.753-8.709 1.523-5.616-9.357-2.619-7.521-.328-13.114 1.533-12.26 2.442-15.981 2.801-17.171 1.526-17.238.378-15.021-1.625-12.427-3.054-16.038-2.533-13.277.824-11.877 3.614zm.572 59.33l3.176-5.552 6-6.816 6.996-3.24 6.717.912 3.478 2.008 1.512 6.164 6.998.286 5.463 2.928 5.49 5.409 7.753-3.129 8.74-.25 8.1 2.387 6.13 3.33 4.871-3.592 8.342-3.517 9.149-.346 6.183 1.842 3.886 2.224 6.964-4.369 6.779-2.876 4.058-5.92 5.462-4.157 7.33-7.849 6.371-2.874 9.014.344 7.088 3.962 3.28 4.117 4.303 4.163-3.187 6.147-6.1 8.438-8.411 8.047-7.604 5.17-10.114 4.874-14.019 4.165-15.687 2.224-12.188.472-18.32-.563-13.112-1.355-13.228-2.483-15.389-4.675-16.348-6.951-10.778-5.558-5.148-3.541z"/><path d="M96.357 233.872s-1.427 18.247 16.71 17.202m22.062-.077s-18.64 10.002-25.461-12.574m61.153 18.461s-13.951 10.881-35.692-5.887m67.942 1.427s-7.972 16.768-32.25 4.46" fill="none" stroke="#000" stroke-width="8.504" stroke-linecap="round" stroke-linejoin="round" stroke-miterlimit="22.926"/><path d="M237.978 235.845c-.544 6.6-3.175 12.465-14.712 18.836-4.735 2.614-11.376 2.236-20.196-2.257m29.668-4.65s20.79 9.99 23.508-22.298M135.31 295.057s13.588-17.838 36.779-2.854m34.586 0s-17.012-15.162-34.586 0m67.761-3.746s-19.646-17.863-33.174 3.746m42.957-15.162s-12.972-16.794-26.544 4.482m37.777-12.331c-4.167-8.206-19.02-15.146-30.991 4.531m-131.163 8.491s12.301-17.328 24.703-.972m-7.087 7.073s11.648-19.665 28.056.333m-95.216-41.881s8.515-50.304 75.914-47.985m97.654-3.033c4.333-.483 60.876-12.665 75.189 45.844" fill="none" stroke="#000" stroke-width="8.504" stroke-linecap="round" stroke-linejoin="round" stroke-miterlimit="22.926"/><path d="M125.081 198.782c16.306.892 17.612 6.593 44.209 6.471 15.37-.07 30.659-6.307 53.446-9.503M67.104 302.957s-24.459-20.157-17.937-56.19m248.758-5.174s5.979 20.692-16.487 57.796m-214.334 3.568c11.052 10.167 48.331 35.279 107.614 37.969 34.318 1.558 85.535-8.222 106.719-41.537m-156.447-75.01c21.741 3.389 22.053 7.52 47.667 6.783 28.277-.813 37.689-4.235 50.35-6.426m46.745 13.914s.681-26.565-46.744-13.914m-98.018-.357s-44.57-6.422-47.469 30.503m.001 0s-2.718 23.011 28.083 39.244m164.147-55.476s6.522 31.217-19.024 54.585" fill="none" stroke="#000" stroke-width="8.504" stroke-linecap="round" stroke-linejoin="round" stroke-miterlimit="22.926"/><path d="M105.604 294.126c21.806 10.215 39.457 18.873 82.255 18.765 21.66-.054 45.447-3.9 62.869-19.657" fill="none" stroke="#000" stroke-width="8.504" stroke-linecap="round" stroke-linejoin="round" stroke-miterlimit="22.926"/></g></g></svg>