<?xml version="1.0" encoding="utf-8"?>
<!-- Generator: Adobe Illustrator 19.2.1, SVG Export Plug-In . SVG Version: 6.00 Build 0)  -->
<svg version="1.1" xmlns="http://www.w3.org/2000/svg" xmlns:xlink="http://www.w3.org/1999/xlink" x="0px" y="0px"
	 viewBox="0 0 337.006 549.587" style="enable-background:new 0 0 337.006 549.587;" xml:space="preserve">
<g id="n2601">
	<polygon style="fill-rule:evenodd;clip-rule:evenodd;fill:#4AB57E;" points="44.377,430.589 43.102,412.51 41.844,384.343 
		40.842,346.525 40.569,303.03 41.381,257.614 43.424,214.48 47.204,172.341 52.649,139.037 60.6,108.367 68.762,86.899 
		78.387,68.921 91.065,52.964 96.95,55.634 103.252,43.214 101.371,41.035 112.155,32.714 126.135,24.761 141.668,19.637 
		154.252,18.839 159.504,16.588 170.327,23.725 184.791,32.085 200.235,40.664 220.799,52.484 241.858,66.075 261.116,81.324 
		275.838,97.168 285.491,113.596 288.891,124.507 290.018,135.037 292.204,147.203 292.708,155.74 292.227,162.6 294.01,177.377 
		294.78,197.667 294.879,215.282 294.618,240.791 294.102,267.433 293.452,295.528 292.104,314.68 291.071,337.556 290.696,355.912 
		290.676,384.405 291.036,406.564 291.536,424.562 292.442,447.277 297.793,446.009 305.969,440 317.043,430.149 325.131,420.806 
		331.616,410.013 330.665,402.495 329.135,381.428 328.293,353.309 328.055,328.533 328.206,287.658 328.68,249.398 329.286,207.79 
		328.774,177.007 327.004,152.997 325.375,137.245 322.584,120.461 314.965,94.832 304.543,74.008 288.961,53.11 271.079,35.842 
		254.475,24.108 232.407,13.505 206.002,6.869 188.61,5.722 177.221,6.557 166.139,7.803 156.717,7.754 147.784,8.432 
		134.498,4.605 121.227,4.745 106.965,8.446 94.491,14.564 83.002,22.589 75.534,26.691 68.2,32.257 59.123,42.81 48.373,60.193 
		38.69,80.536 30.196,102.352 23.907,121.135 17.942,141.233 14.473,154.043 12.502,161.714 14.002,167.714 12.584,183.49 
		11.182,200.913 9.737,220.932 8.664,237.456 7.746,253.171 6.606,275.599 5.799,294.717 5.047,317.329 4.577,337.505 
		4.299,358.915 4.262,377.652 4.373,391.903 4.627,406.589 10.37,412.997 18.498,419.926 30.028,426.656 44.377,430.589 	"/>
	<polygon style="fill-rule:evenodd;clip-rule:evenodd;fill:#67559E;" points="42.473,398.427 49.252,399.464 51.469,386.461 
		53.526,369.167 54.864,350.682 55.428,328.178 56.057,301.913 57.291,274.923 59.024,248.784 61.735,218.232 65.161,188.418 
		69.137,160.813 73.516,136.008 78.905,111.075 83.989,91.752 92.641,65.883 96.95,55.634 91.065,52.964 84.725,60.943 
		75.819,73.12 67.02,90.906 60.6,108.367 55.944,126.333 51.721,144.719 49.143,160.478 45.85,184.245 44.032,205.572 
		42.936,222.461 42.03,240.425 41.221,262.927 40.68,289.909 40.547,315.406 40.752,340.897 41.092,358.901 41.565,376.133 
		41.971,387.752 42.473,398.427 	"/>
	<path style="fill-rule:evenodd;clip-rule:evenodd;fill:#67559E;" d="M62.838,207.808l-1.703,16.477l-1.564,18.336l-1.793,24.109
		l-1.103,21.689l-0.744,17.276l-0.502,22.483l-0.564,22.504l-1.338,18.485l-1.512,13.353l-2.762,16.944l-6.719,0.301l0.252,10.668
		l17.801-2.691l30.059-3.233l30.377-1.952l33.828-0.684l26.994,0.617l29.748,1.964l27.588,3.139l20.332,3.212l13.648,2.626
		l18.125,2.133l-0.531-24.419l-0.059-35.232l0.892-29.793l1.863-30.591l0.58-25.086l0.586-29.65l0.246-21.764l-0.033-12.553
		c0,0-29.401-21.887-87.438-18.144c-10.86,0.7-45.267,4.488-56.814,4.222C119.235,191.83,93.443,220.385,62.838,207.808
		L62.838,207.808z"/>
	<path style="fill-rule:evenodd;clip-rule:evenodd;fill:#E186AE;" d="M156.504,17.588l10.822,7.137l14.465,8.36l12.641,7.02
		l23.367,13.379l18.258,11.647l15.807,12.243l10.209,9.208l10.766,11.587l4.826,8.214l6.525,13.67l2.266,10.72l1.656,11.348
		l1.344,10.352l-0.201,7.243l0.494,8.204l1.494,14.264l0.555,19.465l0.033,5.828c0,0-39.041,22.092-85.857,24.986
		c-12.095,0.747-16.604,9.242-22.805,9.731c-11.638,0.918-16.119-6.126-28.645-6.876c-5.712-0.342-4.978-2.107-20.323-2.12
		c-24.722-0.021-85.677,44.12-74.361-24.387c-5.698,34.498,2.727-22.475,2.727-22.475l3.572-24.52l5.453-30.207l5.111-22.801
		l6.957-24.88l5.982-17.042l9.314-20.111l-2.635-2.931c0,0,5.316-4.12,7.441-5.967c2.127-1.847,16.354-10.662,16.354-10.662
		l10.787-4.013l14.059-2.962l6.291-0.398L156.504,17.588L156.504,17.588z"/>
	<g>
		<defs>
			<polygon id="SVGID_1_" points="55.101,290.843 59.519,282.16 68.437,270.623 83.036,261.942 94.345,255.397 110.504,253.822 
				125.126,255.83 136.661,256.641 131.263,239.831 135.366,225.449 147.011,212.814 162.643,201.996 174.474,199.922 
				185.938,206.515 200.029,220.346 207.629,233.854 210.628,242.815 206.711,251.905 207.354,255.638 221.986,252.286 
				237.303,250.882 255.571,252.744 271.583,259.085 281.53,266.742 290.439,278.125 295.257,287.754 298.724,283.031 
				297.443,268.544 292.569,252.859 286.95,243.81 290.8,226.975 294.647,199.69 295.897,171.466 294.558,146.879 290.53,122.01 
				282.722,95.852 271.739,72.538 258.129,52.784 237.828,34.236 215.77,23.487 193.331,19.112 171.523,26.982 148.856,17.649 
				130.338,26.936 110.551,36.356 100.856,48.316 95.523,70.316 82.856,98.316 79.523,125.649 74.189,148.316 68.189,168.316 
				65.161,188.418 64.856,206.982 61.135,224.285 61.523,242.982 56.301,253.195 54.892,262.343 57.291,274.923 55.523,284.982 
				55.101,290.843 			"/>
		</defs>
		<clipPath id="SVGID_2_">
			<use xlink:href="#SVGID_1_"  style="overflow:visible;"/>
		</clipPath>
		
			<rect x="-3.019" y="-39.934" style="clip-path:url(#SVGID_2_);fill-rule:evenodd;clip-rule:evenodd;fill:#FFFFFF;" width="176.385" height="414.576"/>
	</g>
	<path style="fill-rule:evenodd;clip-rule:evenodd;fill:#4AB57E;" d="M66.456,278.963c0,0-13.5-17.5-4.5-32.5c9-15,19-28,43.5-34
		s73,2.5,73,2.5l0.5,114.5c0,0-31.5-0.5-53.5-11.5S66.456,278.963,66.456,278.963z"/>
	<path style="fill-rule:evenodd;clip-rule:evenodd;fill:#61F4E5;" d="M215.456,325.463c9.5-1.5,49.5-1,62-35.5s19.5-44.5,6.5-60.5
		s-25.5-26.5-58-20.5s-49.5,6.5-49.5,6.5l2.5,114L215.456,325.463z"/>
	
		<path style="fill-rule:evenodd;clip-rule:evenodd;fill:none;stroke:#000000;stroke-width:8.5039;stroke-linecap:round;stroke-linejoin:round;stroke-miterlimit:22.9256;" d="
		M173.709,14.001c0.201-2.583,1.278-2.487-2.692,75.052c-1.035,20.209-0.847,93.966-0.847,93.966"/>
	
		<path style="fill:none;stroke:#000000;stroke-width:8.5039;stroke-linecap:round;stroke-linejoin:round;stroke-miterlimit:22.9256;" d="
		M42.786,410.433c0,0,128.184-19.977,248.559,7.961"/>
	
		<path style="fill:none;stroke:#000000;stroke-width:8.5039;stroke-linecap:round;stroke-linejoin:round;stroke-miterlimit:22.9256;" d="
		M261.973,358.683c0,0-0.92,41.194,4.977,53.503"/>
	
		<path style="fill:none;stroke:#000000;stroke-width:8.5039;stroke-linecap:round;stroke-linejoin:round;stroke-miterlimit:22.9256;" d="
		M73.348,367.495c0,0-2.812,24.75-5.438,33.562"/>
	
		<path style="fill:none;stroke:#000000;stroke-width:8.5039;stroke-linecap:round;stroke-linejoin:round;stroke-miterlimit:22.9256;" d="
		M153.63,16.588c34.125,25.125,141.2,57.863,138.825,134.883"/>
	
		<path style="fill:none;stroke:#000000;stroke-width:8.5039;stroke-linecap:round;stroke-linejoin:round;stroke-miterlimit:22.9256;" d="
		M292.456,151.471c-0.853,15.513,2.99,60.869,0.924,147.118"/>
	
		<path style="fill:none;stroke:#000000;stroke-width:8.5039;stroke-linecap:round;stroke-linejoin:round;stroke-miterlimit:22.9256;" d="
		M292.442,447.277c0,0-4.688-91.687,0.938-148.688"/>
	
		<path style="fill:none;stroke:#000000;stroke-width:8.5039;stroke-linecap:round;stroke-linejoin:round;stroke-miterlimit:22.9256;" d="
		M332.754,406.964c0,0-4.875,19.312-37.688,40.875"/>
	
		<path style="fill:none;stroke:#000000;stroke-width:8.5039;stroke-linecap:round;stroke-linejoin:round;stroke-miterlimit:22.9256;" d="
		M304.629,347.901c-0.562,24.75,2.869,70.386,1.34,92.1"/>
	
		<path style="fill:none;stroke:#000000;stroke-width:8.5039;stroke-linecap:round;stroke-linejoin:round;stroke-miterlimit:22.9256;" d="
		M281.659,75.557c0,0,28.719,40.395,18.219,75.895"/>
	
		<path style="fill:none;stroke:#000000;stroke-width:8.5039;stroke-linecap:round;stroke-linejoin:round;stroke-miterlimit:22.9256;" d="
		M147.784,8.432c0,0,20.915-12.481,56.594,8.156"/>
	
		<path style="fill:none;stroke:#000000;stroke-width:8.5039;stroke-linecap:round;stroke-linejoin:round;stroke-miterlimit:22.9256;" d="
		M281.659,75.557c0,0-31.781-41.605-77.281-58.969"/>
	
		<path style="fill:none;stroke:#000000;stroke-width:8.5039;stroke-linecap:round;stroke-linejoin:round;stroke-miterlimit:22.9256;" d="
		M183.716,7.492c0,0,47.265-10.634,95.827,35.867c48.562,46.5,45.803,95.762,49.74,139.824"/>
	
		<path style="fill:none;stroke:#000000;stroke-width:8.5039;stroke-linecap:round;stroke-linejoin:round;stroke-miterlimit:22.9256;" d="
		M332.754,406.964c-6-47.438-2.531-199.03-3.471-223.781"/>
	
		<path style="fill:none;stroke:#000000;stroke-width:8.5039;stroke-linecap:round;stroke-linejoin:round;stroke-miterlimit:22.9256;" d="
		M47.377,406.952c0,0,7.695-34.259,8.006-74.25c0.674-87.067,16.656-235.064,51.379-295.827"/>
	
		<path style="fill:none;stroke:#000000;stroke-width:8.5039;stroke-linecap:round;stroke-linejoin:round;stroke-miterlimit:22.9256;" d="
		M153.63,16.588c0,0-24.503-1.874-56.753,28.501"/>
	
		<path style="fill:none;stroke:#000000;stroke-width:8.5039;stroke-linecap:round;stroke-linejoin:round;stroke-miterlimit:22.9256;" d="
		M96.877,45.089c-7.565,7.972-43.5,45.375-52.125,151.125s-1.5,226.875-0.375,234.375"/>
	
		<path style="fill:none;stroke:#000000;stroke-width:8.5039;stroke-linecap:round;stroke-linejoin:round;stroke-miterlimit:22.9256;" d="
		M4.627,406.589c0,0,15.75,21.375,39.75,24"/>
	
		<path style="fill:none;stroke:#000000;stroke-width:8.5039;stroke-linecap:round;stroke-linejoin:round;stroke-miterlimit:22.9256;" d="
		M14.002,167.714c0,0-12,121.125-9.375,238.875"/>
	
		<path style="fill:none;stroke:#000000;stroke-width:8.5039;stroke-linecap:round;stroke-linejoin:round;stroke-miterlimit:22.9256;" d="
		M83.002,22.589c0,0-65.125,58.862-69,145.125"/>
	
		<path style="fill:none;stroke:#000000;stroke-width:8.5039;stroke-linecap:round;stroke-linejoin:round;stroke-miterlimit:22.9256;" d="
		M147.784,8.432c0,0-27.281-15.843-64.781,14.157"/>
	<g>
		<polygon style="fill-rule:evenodd;clip-rule:evenodd;" points="109.519,176.551 106.903,171.865 104.901,164.228 103.865,154.327 
			103.714,143.985 104.272,132.002 105.251,121.497 106.786,113.91 109.799,109.661 116.378,107.12 123.964,109.125 127.195,112.44 
			128.225,117.663 128.364,124.834 125.931,128.531 117.482,133.301 110.136,136.549 110.407,139.552 116.639,143.133 
			123.55,148.078 128.433,152.382 128.435,158.858 127.169,165.542 125.328,170.699 121.601,177.428 118.356,180.034 
			114.709,180.503 109.519,176.551 		"/>
		<polygon style="fill-rule:evenodd;clip-rule:evenodd;" points="220.603,141.537 220.39,132.219 220.286,123.016 221.446,116.867 
			225.68,112.726 234.543,110.298 241.546,112.416 244.516,120.248 243.785,127.785 235.586,134.341 228.948,139.554 
			229.204,143.432 235.832,148.058 243.68,154.84 246.087,158.353 246.499,163.675 246.039,167.192 244.4,171.254 241.311,174.53 
			237.953,177.729 231.636,176.153 224.929,170.214 221.614,162.115 220.94,150.783 220.603,141.537 		"/>
		
			<path style="fill:none;stroke:#000000;stroke-width:8.5039;stroke-linecap:round;stroke-linejoin:round;stroke-miterlimit:22.9256;" d="
			M205.152,59.862c0,0,23.845-4.627,39.647,12.065"/>
		
			<path style="fill:none;stroke:#000000;stroke-width:8.5039;stroke-linecap:round;stroke-linejoin:round;stroke-miterlimit:22.9256;" d="
			M97.801,83.155c0,0,11.734-20.554,32.494-19.055"/>
		
			<path style="fill:none;stroke:#000000;stroke-width:8.5039;stroke-linecap:round;stroke-linejoin:round;stroke-miterlimit:22.9256;" d="
			M125.117,87.022c0,0-2.642,13.516,0.522,23.822"/>
		
			<path style="fill:none;stroke:#000000;stroke-width:8.5039;stroke-linecap:round;stroke-linejoin:round;stroke-miterlimit:22.9256;" d="
			M107.557,86.954c0,0-2.536,9.406,6.158,20.452"/>
		
			<path style="fill:none;stroke:#000000;stroke-width:8.5039;stroke-linecap:round;stroke-linejoin:round;stroke-miterlimit:22.9256;" d="
			M93.141,95.88c0,0-0.753,5.599,15.814,17.514"/>
		
			<path style="fill:none;stroke:#000000;stroke-width:8.5039;stroke-linecap:round;stroke-linejoin:round;stroke-miterlimit:22.9256;" d="
			M128.064,116.396c0.856-9.874-19.962-15.316-22.385,1.648"/>
		
			<path style="fill:none;stroke:#000000;stroke-width:8.5039;stroke-linecap:round;stroke-linejoin:round;stroke-miterlimit:22.9256;" d="
			M110.136,136.549c0,0,16.262-6.521,18.045-10.327"/>
		
			<path style="fill:none;stroke:#000000;stroke-width:8.5039;stroke-linecap:round;stroke-linejoin:round;stroke-miterlimit:22.9256;" d="
			M128.064,116.396c0,0,0.859,5.508,0.117,9.826"/>
		
			<path style="fill:none;stroke:#000000;stroke-width:8.5039;stroke-linecap:round;stroke-linejoin:round;stroke-miterlimit:22.9256;" d="
			M105.679,118.044c0,0-7.254,51.876,5.917,60.391"/>
		
			<path style="fill:none;stroke:#000000;stroke-width:8.5039;stroke-linecap:round;stroke-linejoin:round;stroke-miterlimit:22.9256;" d="
			M128.433,152.382c0,0,2.035,13.117-7.801,26.412"/>
		
			<path style="fill:none;stroke:#000000;stroke-width:8.5039;stroke-linecap:round;stroke-linejoin:round;stroke-miterlimit:22.9256;" d="
			M108.999,138.866c0,0,10.27,4.613,19.433,13.515"/>
		
			<path style="fill:none;stroke:#000000;stroke-width:8.5039;stroke-linecap:round;stroke-linejoin:round;stroke-miterlimit:22.9256;" d="
			M127.674,180.003c0,0-18.768-2.514-35.141,9.727"/>
		
			<path style="fill:none;stroke:#000000;stroke-width:8.5039;stroke-linecap:round;stroke-linejoin:round;stroke-miterlimit:22.9256;" d="
			M121.622,189.132c0,0,2.132-6.102,3.063-9.326"/>
		
			<path style="fill:none;stroke:#000000;stroke-width:8.5039;stroke-linecap:round;stroke-linejoin:round;stroke-miterlimit:22.9256;" d="
			M109.941,190.786c0,0,3.889-6.84,4.768-10.283"/>
		
			<path style="fill:none;stroke:#000000;stroke-width:8.5039;stroke-linecap:round;stroke-linejoin:round;stroke-miterlimit:22.9256;" d="
			M212.851,93.932c0,0,6.587,4.338,10.1,15.627"/>
		
			<path style="fill:none;stroke:#000000;stroke-width:8.5039;stroke-linecap:round;stroke-linejoin:round;stroke-miterlimit:22.9256;" d="
			M227.611,85.659c0,0,7.511,10.241,5.037,23.755"/>
		
			<path style="fill:none;stroke:#000000;stroke-width:8.5039;stroke-linecap:round;stroke-linejoin:round;stroke-miterlimit:22.9256;" d="
			M250.374,98.137c0,0-2.189,10.223-9.811,14.938"/>
		
			<path style="fill:none;stroke:#000000;stroke-width:8.5039;stroke-linecap:round;stroke-linejoin:round;stroke-miterlimit:22.9256;" d="
			M217.631,178.991c0,0,23.332-5.442,39.702,4.503"/>
		
			<path style="fill:none;stroke:#000000;stroke-width:8.5039;stroke-linecap:round;stroke-linejoin:round;stroke-miterlimit:22.9256;" d="
			M240.855,178.041c0,0-0.751,5.217,4.161,9.417"/>
		
			<path style="fill:none;stroke:#000000;stroke-width:8.5039;stroke-linecap:round;stroke-linejoin:round;stroke-miterlimit:22.9256;" d="
			M229.983,177.545c0,0-1.271,4.403,1.815,9.452"/>
		
			<path style="fill:none;stroke:#000000;stroke-width:8.5039;stroke-linecap:round;stroke-linejoin:round;stroke-miterlimit:22.9256;" d="
			M220.277,120.938c-0.307-9.364,20.802-18.059,24.239-0.69"/>
		
			<path style="fill:none;stroke:#000000;stroke-width:8.5039;stroke-linecap:round;stroke-linejoin:round;stroke-miterlimit:22.9256;" d="
			M244.783,126.982c0,0-15.368,12.391-18.513,14.574"/>
		
			<path style="fill:none;stroke:#000000;stroke-width:8.5039;stroke-linecap:round;stroke-linejoin:round;stroke-miterlimit:22.9256;" d="
			M244.516,120.248c0,0,0.558,3.772,0.268,6.734"/>
		
			<path style="fill:none;stroke:#000000;stroke-width:8.5039;stroke-linecap:round;stroke-linejoin:round;stroke-miterlimit:22.9256;" d="
			M220.277,120.938c0,0-0.006,23.882,1.337,41.177c0.552,7.102,5.02,9.901,10.022,14.038"/>
		
			<path style="fill:none;stroke:#000000;stroke-width:8.5039;stroke-linecap:round;stroke-linejoin:round;stroke-miterlimit:22.9256;" d="
			M226.27,141.556c0,0,17.553,10.75,19.817,16.797"/>
		
			<path style="fill:none;stroke:#000000;stroke-width:8.5039;stroke-linecap:round;stroke-linejoin:round;stroke-miterlimit:22.9256;" d="
			M241.311,174.53c0,0,6.966-3.884,4.776-16.177"/>
	</g>
</g>
<g id="n2602">
	<g>
		<path style="fill-rule:evenodd;clip-rule:evenodd;fill:#F9D740;" d="M130.686,432.105c-1.512-1.778,1.996,7.083,1.996,7.083
			l5.541,6.42l9.604,4.325l15.551,1.187l14.81,1.278l17.104-3.407l11.545-5.618l8.24-8.974l3.053-11.176l9.697,5.462l9.59,7.588
			l9.672,9.83l7.918,9.704l7.922,11.253l7.781,12.622l5.15,9.248l3.326,6.362l-9.121,10.387l-12.508,11.08l-17.723,11.648
			l-15.479,7.372l-20.555,6.505l-18.695,2.816l-21.367-0.653L148.5,542.2l-19.793-5.4l-12.732-5.5l-12.297-7.38L91.25,513.824
			l-8.379-8.407l3.326-10.709l5.08-13.115l7.498-14.752l8.775-13.346l10.344-12.413L130.686,432.105L130.686,432.105z"/>
		<path style="fill-rule:evenodd;clip-rule:evenodd;fill:#61F4E5;" d="M153.561,345.417c0,0,20.932-15.077,39,2.25
			c-0.424,4.209-0.781,8.521-0.781,8.521l-0.641,18.631l-0.131,10.495l0.207,6.897l1.199,12.036l2.195,9.091l3.285,6.339
			l5.418,3.511l4.049-3.223l7.498,1.937l2.412,4.461l-2.195,8.035l-5.391,6.752l-7.992,5.221l-11.695,4.155l-17.615,1.993
			l-11.988-1.628l-12.568-0.959l-12.375-7.535l-4.539-8.02l-0.213-5.328l7.977-6.067l7.621-4.895l6.889-5.296l1.406-11.008
			l0.363-13.103l-0.207-12.925l-0.553-20.098L153.561,345.417L153.561,345.417z"/>
		
			<path style="fill:none;stroke:#000000;stroke-width:8.5039;stroke-linecap:round;stroke-linejoin:round;stroke-miterlimit:22.9256;" d="
			M152.061,415.042c0,0-49.687,21.75-68.25,87.375"/>
		
			<path style="fill:none;stroke:#000000;stroke-width:8.5039;stroke-linecap:round;stroke-linejoin:round;stroke-miterlimit:22.9256;" d="
			M200.248,419.917c0,0,36-8.812,78.938,75.375"/>
		
			<path style="fill:none;stroke:#000000;stroke-width:8.5039;stroke-linecap:round;stroke-linejoin:round;stroke-miterlimit:22.9256;" d="
			M168.373,428.542c0,0,7.312,3.562,12,0.188"/>
		
			<path style="fill:none;stroke:#000000;stroke-width:8.5039;stroke-linecap:round;stroke-linejoin:round;stroke-miterlimit:22.9256;" d="
			M144.193,462.437c26.214,10.147,52.069,2.593,59.993-2.582"/>
		
			<path style="fill:none;stroke:#000000;stroke-width:8.5039;stroke-linecap:round;stroke-linejoin:round;stroke-miterlimit:22.9256;" d="
			M140.436,428.73c0,0,10.1-5.507,13.369-19.161"/>
		
			<path style="fill:none;stroke:#000000;stroke-width:8.5039;stroke-linecap:round;stroke-linejoin:round;stroke-miterlimit:22.9256;" d="
			M153.561,345.417c0,0,3.375,51.813-0.375,67.375"/>
		
			<path style="fill:none;stroke:#000000;stroke-width:8.5039;stroke-linecap:round;stroke-linejoin:round;stroke-miterlimit:22.9256;" d="
			M192.561,347.667c0,0-8.25,77.5,13.125,75.625"/>
		
			<path style="fill:none;stroke:#000000;stroke-width:8.5039;stroke-linecap:round;stroke-linejoin:round;stroke-miterlimit:22.9256;" d="
			M130.686,432.105c1.873,17.25,19.545,20.298,43.5,20.432c13.877,0.077,43.482-6.424,43.125-27.932"/>
		
			<path style="fill:none;stroke:#000000;stroke-width:8.5039;stroke-linecap:round;stroke-linejoin:round;stroke-miterlimit:22.9256;" d="
			M82.871,505.417c16.5,17.626,39.178,36.798,89.988,39.764c34.533,2.017,79.777-15.742,106.326-49.889"/>
	</g>
</g>
<g id="n2603">
	<g>
		<path style="fill-rule:evenodd;clip-rule:evenodd;fill:#E186AE;" d="M159.986,302.022l1.773-24.262l3.276-9.317l6.141-5.953
			l11.694-0.431l7.864,0.398l3.969,3.948c0,0,1.582,6.488,0.649,5.99c-0.934-0.498-4.918,3.325-4.918,3.325l0.976,6.792
			l-0.841,17.108l-8.438,2.681l-9.827,5.163l-6.13-3.373L159.986,302.022L159.986,302.022z"/>
		
			<path style="fill:none;stroke:#000000;stroke-width:8.5039;stroke-linecap:round;stroke-linejoin:round;stroke-miterlimit:22.9256;" d="
			M178.267,275.785c0,0,25.448,0.894,13.998-13.576"/>
		
			<path style="fill:none;stroke:#000000;stroke-width:8.5039;stroke-linecap:round;stroke-linejoin:round;stroke-miterlimit:22.9256;" d="
			M190.434,275.72c0,0,0.979,20.017-0.478,23.919"/>
		
			<path style="fill:none;stroke:#000000;stroke-width:8.5039;stroke-linecap:round;stroke-linejoin:round;stroke-miterlimit:22.9256;" d="
			M159.986,302.022c0,0-6.03-48.649,30.97-40.882"/>
	</g>
</g>
<g id="n2604">
	<g>
		<g>
			<path style="fill-rule:evenodd;clip-rule:evenodd;fill:#67559E;" d="M154.795,204.592l-3.482-6.325l1.051-6.594l4.735-7.762
				l5.856-6.243l6.556-5.625l6.819-2.579l7.205,1.021l5.401,2.934l5.715,5.143l4.402,5.322l3.382,5.89l1.338,6.002l-1.106,3.787
				l-4.307,3.352l-5.477,1.33C192.883,204.245,171.035,211.369,154.795,204.592L154.795,204.592z"/>
			
				<path style="fill:none;stroke:#000000;stroke-width:8.5039;stroke-linecap:round;stroke-linejoin:round;stroke-miterlimit:22.9256;" d="
				M154.795,204.592c0,0-14.37-9.521,14.716-32.548"/>
			
				<path style="fill:none;stroke:#000000;stroke-width:8.5039;stroke-linecap:round;stroke-linejoin:round;stroke-miterlimit:22.9256;" d="
				M183.534,170.485c8.483,1.904,34.972,30.644,9.349,33.76"/>
			
				<path style="fill:none;stroke:#000000;stroke-width:8.5039;stroke-linecap:round;stroke-linejoin:round;stroke-miterlimit:22.9256;" d="
				M183.534,170.485c-3.117-1.384-8.657-2.078-14.024,1.558"/>
			
				<path style="fill:none;stroke:#000000;stroke-width:8.5039;stroke-linecap:round;stroke-linejoin:round;stroke-miterlimit:22.9256;" d="
				M185.958,196.801c0,0,1.731,2.251,2.597,2.597"/>
			
				<path style="fill:none;stroke:#000000;stroke-width:8.5039;stroke-linecap:round;stroke-linejoin:round;stroke-miterlimit:22.9256;" d="
				M163.451,195.935c0,0-1.731,3.289-3.116,3.982"/>
		</g>
		<path style="fill-rule:evenodd;clip-rule:evenodd;fill:#F9D740;" d="M297.402,239.554l-3.833-11.053l-7.126-12.38l-11.118-10.963
			l-15.581-7.713l-15.119-2.832l-14.813,0.198l-16.85,2.551L200.4,200.02l-17.163,3.446l-13.947,1.787l-15.963-0.851l-14.73-3.321
			l-15.204-1.38l-11.633-0.666l-13.418,1.957l-19.682,7.3l-12.686,9.274l-10.412,13.16l-5.632,12.935l-1.861,14.186l1.123,12.767
			l3.822,12.325l6.751,11.816l9.95,10.467l14.443,9.997l13.59,7.223l19.962,8.032l18.62,5.26l18.016,3.323l17.767,1.737
			l19.756-0.013l19.875-2.314l15.485-3.489l13.688-4.591l10.901-4.989l12.205-7.622l9.731-8.578l7.685-9.807l5.794-10.383
			l5.079-11.192l4.509-14.23l1.666-10.597L297.402,239.554z M265.84,274.278c-11,16.333-25.667,37.667-60,38
			c-34.333,0.333-65.667,2-89.333-12.667c-23.667-14.667-43.333-23-39-52.667c0,0,2.667-20,21-21.333
			c18.333-1.333,42.667,6.667,56.667,6s65.333-5.667,81-9.333c15.667-3.667,28.667-2.333,31.667,7.667
			S276.84,257.944,265.84,274.278z"/>
		<polygon style="fill-rule:evenodd;clip-rule:evenodd;fill:#FFFFFF;" points="94.964,228.436 96.357,233.872 96.821,240.316 
			100.492,247.039 107.163,251.424 113.067,251.074 121.408,254.205 131.186,252.682 135.129,250.997 144.39,256.819 
			154.653,260.069 165.608,260.528 170.638,257.016 179.802,260.397 191.149,260.999 197.137,258.645 203.929,252.852 
			210.189,255.319 219.288,256.074 225.761,254.463 229.704,251.354 237.002,252.926 244.087,251.485 248.471,248.15 
			252.97,239.802 254.723,231.093 256.246,225.477 246.889,222.858 239.368,222.53 226.254,224.063 213.994,226.505 
			198.013,229.306 180.842,230.832 163.604,231.21 148.583,229.585 136.156,226.531 120.118,223.998 106.841,224.822 
			94.964,228.436 		"/>
		<polygon style="fill-rule:evenodd;clip-rule:evenodd;fill:#FFFFFF;" points="95.536,287.766 98.712,282.214 104.712,275.398 
			111.708,272.158 118.425,273.07 121.903,275.078 123.415,281.242 130.413,281.528 135.876,284.456 141.366,289.865 
			149.119,286.736 157.859,286.486 165.959,288.873 172.089,292.203 176.96,288.611 185.302,285.094 194.451,284.748 
			200.634,286.59 204.52,288.814 211.484,284.445 218.263,281.569 222.321,275.649 227.783,271.492 235.113,263.643 
			241.484,260.769 250.498,261.113 257.586,265.075 260.866,269.192 265.169,273.355 261.982,279.502 255.882,287.94 
			247.471,295.987 239.867,301.157 229.753,306.031 215.734,310.196 200.047,312.42 187.859,312.892 169.539,312.329 
			156.427,310.974 143.199,308.491 127.81,303.816 111.462,296.865 100.684,291.307 95.536,287.766 		"/>
		
			<path style="fill:none;stroke:#000000;stroke-width:8.5039;stroke-linecap:round;stroke-linejoin:round;stroke-miterlimit:22.9256;" d="
			M96.357,233.872c0,0-1.427,18.247,16.71,17.202"/>
		
			<path style="fill:none;stroke:#000000;stroke-width:8.5039;stroke-linecap:round;stroke-linejoin:round;stroke-miterlimit:22.9256;" d="
			M135.129,250.997c0,0-18.64,10.002-25.461-12.574"/>
		
			<path style="fill:none;stroke:#000000;stroke-width:8.5039;stroke-linecap:round;stroke-linejoin:round;stroke-miterlimit:22.9256;" d="
			M112.119,247.608"/>
		
			<path style="fill:none;stroke:#000000;stroke-width:8.5039;stroke-linecap:round;stroke-linejoin:round;stroke-miterlimit:22.9256;" d="
			M170.821,256.884c0,0-13.951,10.881-35.692-5.887"/>
		
			<path style="fill:none;stroke:#000000;stroke-width:8.5039;stroke-linecap:round;stroke-linejoin:round;stroke-miterlimit:22.9256;" d="
			M203.071,252.424c0,0-7.972,16.768-32.25,4.46"/>
		
			<path style="fill:none;stroke:#000000;stroke-width:8.5039;stroke-linecap:round;stroke-linejoin:round;stroke-miterlimit:22.9256;" d="
			M237.978,235.845c-0.544,6.6-3.175,12.465-14.712,18.836c-4.735,2.614-11.376,2.236-20.196-2.257"/>
		
			<path style="fill:none;stroke:#000000;stroke-width:8.5039;stroke-linecap:round;stroke-linejoin:round;stroke-miterlimit:22.9256;" d="
			M232.738,247.774c0,0,20.79,9.99,23.508-22.298"/>
		
			<path style="fill:none;stroke:#000000;stroke-width:8.5039;stroke-linecap:round;stroke-linejoin:round;stroke-miterlimit:22.9256;" d="
			M135.31,295.057c0,0,13.588-17.838,36.779-2.854"/>
		
			<path style="fill:none;stroke:#000000;stroke-width:8.5039;stroke-linecap:round;stroke-linejoin:round;stroke-miterlimit:22.9256;" d="
			M206.675,292.203c0,0-17.012-15.162-34.586,0"/>
		
			<path style="fill:none;stroke:#000000;stroke-width:8.5039;stroke-linecap:round;stroke-linejoin:round;stroke-miterlimit:22.9256;" d="
			M239.85,288.457c0,0-19.646-17.863-33.174,3.746"/>
		
			<path style="fill:none;stroke:#000000;stroke-width:8.5039;stroke-linecap:round;stroke-linejoin:round;stroke-miterlimit:22.9256;" d="
			M249.633,277.041c0,0-12.972-16.794-26.544,4.482"/>
		
			<path style="fill:none;stroke:#000000;stroke-width:8.5039;stroke-linecap:round;stroke-linejoin:round;stroke-miterlimit:22.9256;" d="
			M260.866,269.192c-4.167-8.206-19.02-15.146-30.991,4.531"/>
		
			<path style="fill:none;stroke:#000000;stroke-width:8.5039;stroke-linecap:round;stroke-linejoin:round;stroke-miterlimit:22.9256;" d="
			M98.712,282.214c0,0,12.301-17.328,24.703-0.972"/>
		
			<path style="fill:none;stroke:#000000;stroke-width:8.5039;stroke-linecap:round;stroke-linejoin:round;stroke-miterlimit:22.9256;" d="
			M116.328,288.315c0,0,11.648-19.665,28.056,0.333"/>
		
			<path style="fill:none;stroke:#000000;stroke-width:8.5039;stroke-linecap:round;stroke-linejoin:round;stroke-miterlimit:22.9256;" d="
			M49.168,246.767c0,0,8.515-50.304,75.914-47.985"/>
		
			<path style="fill:none;stroke:#000000;stroke-width:8.5039;stroke-linecap:round;stroke-linejoin:round;stroke-miterlimit:22.9256;" d="
			M222.736,195.749c4.333-0.483,60.876-12.665,75.189,45.844"/>
		
			<path style="fill:none;stroke:#000000;stroke-width:8.5039;stroke-linecap:round;stroke-linejoin:round;stroke-miterlimit:22.9256;" d="
			M125.081,198.782c16.306,0.892,17.612,6.593,44.209,6.471c15.37-0.07,30.659-6.307,53.446-9.503"/>
		
			<path style="fill:none;stroke:#000000;stroke-width:8.5039;stroke-linecap:round;stroke-linejoin:round;stroke-miterlimit:22.9256;" d="
			M67.104,302.957c0,0-24.459-20.157-17.937-56.19"/>
		
			<path style="fill:none;stroke:#000000;stroke-width:8.5039;stroke-linecap:round;stroke-linejoin:round;stroke-miterlimit:22.9256;" d="
			M297.925,241.593c0,0,5.979,20.692-16.487,57.796"/>
		
			<path style="fill:none;stroke:#000000;stroke-width:8.5039;stroke-linecap:round;stroke-linejoin:round;stroke-miterlimit:22.9256;" d="
			M67.104,302.957c11.052,10.167,48.331,35.279,107.614,37.969c34.318,1.558,85.535-8.222,106.719-41.537"/>
		
			<path style="fill:none;stroke:#000000;stroke-width:8.5039;stroke-linecap:round;stroke-linejoin:round;stroke-miterlimit:22.9256;" d="
			M124.99,224.379c21.741,3.389,22.053,7.52,47.667,6.783c28.277-0.813,37.689-4.235,50.35-6.426"/>
		
			<path style="fill:none;stroke:#000000;stroke-width:8.5039;stroke-linecap:round;stroke-linejoin:round;stroke-miterlimit:22.9256;" d="
			M269.752,238.65c0,0,0.681-26.565-46.744-13.914"/>
		
			<path style="fill:none;stroke:#000000;stroke-width:8.5039;stroke-linecap:round;stroke-linejoin:round;stroke-miterlimit:22.9256;" d="
			M124.99,224.379c0,0-44.57-6.422-47.469,30.503"/>
		
			<path style="fill:none;stroke:#000000;stroke-width:8.5039;stroke-linecap:round;stroke-linejoin:round;stroke-miterlimit:22.9256;" d="
			M77.522,254.882c0,0-2.718,23.011,28.083,39.244"/>
		
			<path style="fill:none;stroke:#000000;stroke-width:8.5039;stroke-linecap:round;stroke-linejoin:round;stroke-miterlimit:22.9256;" d="
			M269.752,238.65c0,0,6.522,31.217-19.024,54.585"/>
		
			<path style="fill:none;stroke:#000000;stroke-width:8.5039;stroke-linecap:round;stroke-linejoin:round;stroke-miterlimit:22.9256;" d="
			M105.604,294.126c21.806,10.215,39.457,18.873,82.255,18.765c21.66-0.054,45.447-3.9,62.869-19.657"/>
	</g>
</g>
</svg>
