<svg xmlns="http://www.w3.org/2000/svg" viewBox="0 0 305.245 638.305"><g id="n2701"><g><path fill-rule="evenodd" clip-rule="evenodd" fill="#e186ae" d="M103.18 526.103l5.394 3.428-5.363 7.293-.152 7.169 14.063 8.813 12.912 2.722 18.57 3.29 14.68.245 17.025-4.195 12.625-3.612 10.223-6.887 9.199-9.915 3.699-5.726-6.016-11.218 8.022 1 22.349 9.539 18.979 10.084 17.644 11.479 12.699 10.062 11.261 10.866-5.667 11.741-7.475 8.675-13.548 10.677-18.961 10.465-23.096 9.143-28.592 7.761-29.733 4.453-28.684.13-24.036-2.909-19.831-4.925-15.558-5.928-20.34-11.295-15.187-11.721-12.168-11.701-6.187-6.691 11.567-11.274 16.112-13.851 14.804-11.027 12.568-7.993 16.199-8.167z"/><path fill-rule="evenodd" clip-rule="evenodd" fill="#fff" d="M159.972 509.387l-3.399 7.154-4.786 9.639-4.616 7.968-4.017 4.735-12.588-2.112-13.764-4.195-12.519-5.772 4.645-10.816 7.677-14.506 7.551-11.98 7.108-7.359 7.062-1.905-.072 7.7-.199 6.852 8.314 7.107 7.083 4.344 6.52 3.146z"/><path d="M163.742 512.228l7.801 10.799 7.22 11.246 5.776 9.244 7.908-2.953 9.582-5.899s9.594-2.664 8.655-3.983c-.938-1.319-2.928 8.731-2.928 8.731l-6.775 6.705-10.792 5.924-14.48 5.362-16.412 1.811-14.978-.865-14.287-2.821-13.427-4.65-9.513-5.258-5.226-7.704 10.553-7.359 8.108 3.214 10.038 3.001 8.114 1.991 4.473.121 5.968-7.896 4.609-8.722 3.45-7.038 1.798-3.749 4.765.748z" fill-rule="evenodd" clip-rule="evenodd" fill="#61f4e5"/><path fill-rule="evenodd" clip-rule="evenodd" fill="#4ab57e" d="M177.859 481.723l8.163-.075 5.635 2.692 4.331 5.133 3.793 6.348 4.627 9.225 3.703 8.091 4.223 8.651 2.034 5.815-8.033 4.149-7.546 5.016-10.295 5.272-3.954 1.477-8.543-11.711-6.349-11.404-8.156-10.612 10.703-7.483 8.482-7.484-1.552-3.538-1.266-9.562z"/><path d="M138.242 424.853s19.996-13.953 38.625.375c-.016 5.329-.014 10.016-.014 10.016l.064 12.564.168 12.377.301 11.618.472 9.92.889 8.244 1.929 4.857-7.747 5.779-7.359 6.97-5.4 4.094-6.718-5.425-9.831-6.693-5.566-4.758.235-10.702.073-16.033-.021-19.311-.053-14.629-.047-9.263z" fill-rule="evenodd" clip-rule="evenodd" fill="#f9d740"/><path d="M31.93 578.415s34.688-36.938 71.25-52.312m108.188-9.938s55.126 17.25 89.626 54.375M138.242 424.853s.375 63-.188 69.938m38.813-69.563s-.375 62.812 2.438 66.375m-45.375 1.687s20.812 15.375 27.562 16.5m22.875-18.375s-19.312 18.188-22.875 18.375m-23.158-31.128c-7.106 4.178-10.967-.935-33.279 45.19m72.804-42.129c13.125-.562 15.509-3.807 36.509 45.88m-50.626-15.375c3.563 3.375 18 26.812 20.812 31.312m27.376-15.75s-22.501 16.5-27.375 15.75m-27.375-28.312s-10.875 24-15 24m-31.313-8.625s24.563 8.438 31.313 8.625m-40.313-1.313c-3.375 13.126 83.25 45 114.188-9.188m-111-4.874s.013 4.821 5.812 6.75m-9 7.312l9-7.312m20.438 39s25.003 9.181 55.688-1.688m-155.063 10.5c24.375 27.188 57.478 55.311 127.476 55.637 49.145.229 131.012-25.315 141.588-63.512" fill="none" stroke="#000" stroke-width="8.504" stroke-linecap="round" stroke-linejoin="round" stroke-miterlimit="22.926"/></g></g><g id="n2702"><g><g><path d="M37.06 270.601l-12.084-2.02-10.563 5.252-6.114 10.072-1.173 12.166 3.622 12.771 3.84 5.574s3.42 11.046 4.32 10.772c.9-.273 4.128 11.159 4.128 11.159l5.042 5.599 8.262 1.921 3.384-2.455-3.191-10.974.937-15-3.048-14.521 2.154-14.759 1.312-10.49-.828-5.067z" fill-rule="evenodd" clip-rule="evenodd" fill="#e186ae"/><path d="M38.181 268.937l-8.402-.606s-8.873 3.21-10.084 2.877c-1.212-.333-6.828-6.624-6.828-6.624l-5.978-25.675-3.543-22.283 2.278-24.43 5.088-19.194 9.829-18.345 9.679-11.472 13.007-11.058 10.973-7.118 5.562 4.094-11.44 10.045-10.102 10.915-6.254 14.188-3.639 11.569-1.904 13.948 1.021 18.463 1.858 9.312 3.11 10.619 5.816.371-.33 13.598.307 14.071-.024 12.735z" fill-rule="evenodd" clip-rule="evenodd" fill="#f9d740"/><path d="M39.724 356.411l-4.052-26.641s-.039-19.02-1.25-19.399c-1.212-.379 2.154-16.78 2.154-16.78l1.461-16.909v-12.834l-.139-20.315 1.583-28.548 9.737-32.871L68.96 155.09l21.045-16.329 11.544-5.073 21.4 1.016 25.091 2.522 22.976.979 24.464-.426 17.536 2.997 11.277 8.77 17.956 15.126 10.776 16.139 5.326 17.827 3.283 25.442 2.184 35.34.814 34.85 1.536 8.716 3.743 20.273v17.602l.534 15.444c-33.069-3.042-63.389-5.307-90.426-5.307-13.002 0-7.218-3.925-13.042-3.986-9.299-.098-33.138-.094-41.5 0-4.831.054.04 3.917-8.71 3.917-51.913 0-77.043 5.482-77.043 5.482z" fill-rule="evenodd" clip-rule="evenodd" fill="#fff"/><path fill-rule="evenodd" clip-rule="evenodd" fill="#f9d740" d="M94.107 76.255l-3.195-6.531-4.158-9.62-4.97-15.951-1.506-11.086L83.181 20.1l6.039-6.537 14.571-5.566 17.065-3.566 14.541.524 13.927 3.436 11.434 5.002 12.574 8.139 7.627 8.867 2.462 11.669-1.763 9.745-2.96 10.744-5.475 6.884-4.686 3.659-5.451 4.279-9.167-6.554-13.136-6.449-13.497-.092-12.001 1.79-11.391 4.188-9.787 5.993z"/><path fill-rule="evenodd" clip-rule="evenodd" fill="#4ab57e" d="M38.336 226.975l-6.653-1.301-4.454-18.911-.807-16.995 3.506-19.846 6.379-14.655 4.969-7.699 9.745-11.128 8.74-7.337-.513-6.904 11.536-5.59 15.627-6.169 3.478-7.339 4.873-4.204-6.097-4.639 5.545-5.888-5.361-5.895 8.745-8.693 11.995-5.614 11.696-2.989 14.383-.838 16.358 5.453 8.446 5.717 4.315 3.401.937 5.437 6.005 6.093 3.354 2.299-2.056 6.561 9.355 8.998 13.479 4.405 11.694 2.442 12.502 4.095 13.536 4.973 16.459 7.02 14.074 7.384 11.199 7.948 5.994 7.064 4.584 11.265 4.012 9.648 3.229 12.57 1.186 11.248-.582 14.26-2.749 14.946-4.625 15.256-3.715 9.716-3.551 9.821-7.509 1.125-6.475 3.972-1.307-11.354-.752-13.691-1.432-17.392-2.284-17.183-3.841-15.337-7.137-12.816-10.674-11.019-13.405-9.201-19.817-10.766-18.35.701-21.017-.006-13.913-.564-21.658-1.95-13.173-.938-14.816-.425-9.661 2.211-11.027 7.73-11.9 8.884-9.364 9.175-8.406 11.238-5.923 11.483-3.585 10.475-2.201 10.309-1.145 9.953z"/><path fill-rule="evenodd" clip-rule="evenodd" fill="#67559e" d="M270.6 334.894l4.977-1.546 4.528-3.84 3.388-5.167 1.828-7.207 1.289-9.121 2.845-9.522 1.458-9.159.208-8.246-1.028-7.858-4.032-7.518-6.953-3.349-7.509 1.125-6.613 2.767-.521 9.181.149 9.013.483 6.648 2.465 7.669 1.784 8.702.825 7.935.422 9.739.007 9.754z"/><path d="M84.725 149.224s19.749-5.465 44.812-2.345c37.413 4.659 73.579 1.852 85.501 1.22" fill="none" stroke="#000" stroke-width="8.504" stroke-linecap="round" stroke-linejoin="round" stroke-miterlimit="22.926"/><path d="M63.819 159.256s-13.5-31.125 37.125-46.312 115.239-1.608 127.687 30.938m-55.875-37.501c25.963 4.219 90.562 26.628 108.562 47.25m-24.469-13.9s20.533 22.337 3.657 39.774m18.358 81.847c16.994-37.675 23.319-91.351 2.455-107.722m-81.555-4.697s46.304 12.573 56.617 46.136m8.25 91.688s-.188-66.75-8.25-91.688m14.063 146.25c1.501-46.126-6.187-45.188-5.812-54.562m-.347-18.183c2.062-4.125 21.948-14.877 26.408 7.12m-2.437 27s4.313-11.626 2.438-27" fill="none" stroke="#000" stroke-width="8.504" stroke-linecap="round" stroke-linejoin="round" stroke-miterlimit="22.926"/><path d="M278.881 276.257s-4.125 13.124-1.5 21c2.625 7.875-3.318 16.495-7.472 14.997m.667 23.994c19.5-9.75 12.243-20.616 17.68-33.554M88.286 104.787s43.563-27.408 95.134-2.786m-95.321-6.963s34.049-42.558 86.984-2.297M88.849 82.475c.187-6.001 41.603-35.63 75.938-3.563m-49.502-12.838s9.188-11.35 11.813-35.912m39.084 19.839s0 14.34-14.478 19.627M98.411 44.412s-8.062-11.438-3.562-18.75m2.745 48.12s12.817-46.808-2.745-48.12m-3.937 44.062s-20.438-41.062-4.688-52.875m88.687 6s-41.437-37.5-88.688-6m78.564 62.063s16.85-13.14 18.35-30.329c.732-8.391.735-18.453-8.226-25.733M53.515 130.001S9.408 159.916 34.158 232.668m62.566-125.63c-80.251 24.75-108.938 71.437-83.438 159m24.75 5.25c2.438-31.688-14.553-88.016 57.248-124.086m-55.56 194.211s-4.813-19.539-5.303-40.494c-.239-10.244 3.378-12.714 3.615-29.631m-14.611 8.306s1.3 5.094 2.252 14.4c.973 9.513-3.621 17.21 3.735 24.92m8.437 24.749s-15 3.562-17.438-16.5" fill="none" stroke="#000" stroke-width="8.504" stroke-linecap="round" stroke-linejoin="round" stroke-miterlimit="22.926"/><path d="M38.036 271.288c-10.363-8.071-36.176-.569-30.102 30.832 1.665 8.607 9.501 12.367 12.477 25.043" fill="none" stroke="#000" stroke-width="8.504" stroke-linecap="round" stroke-linejoin="round" stroke-miterlimit="22.926"/></g><g><path fill-rule="evenodd" clip-rule="evenodd" d="M87.151 253.834l7.052-2.354 7.235-3.152 3.911-2.604.219-8.358-1.497-4.857-5.33-3.545-8.788 1.178-4.834 3.276-1.975 4.655-.765 5.732-.684 6.262-.755 12.335.212 9.786 1.476 9.657 2.588 6.413 5.05 5.229 5.341-.557 3.179-4.349 4.393-4.65.92-8.163.197-6.624-4.795-4.229-9.416-5.713-3.691-1.696.757-3.672z"/><path d="M192.053 206.964s22.402-9.747 38.088 4.14m-154.806-4.8s12.271-21.155 32.822-16.437m81.656 96.697s17.85-11.526 43.124 1.857m-17.362 6.73s-2.636-8.773-9.533-13.119m23.255 16.6c-.503-2.068-2.297-11.888-8.78-15.114m-31.798-7.829s31.066-8.292 47.565 3.345m8.413-23.103c.241 4.557.249 15.589-15.899 19.372m-13.222-14.077s2.8 8.862-13.33 12.119m29.474-15.257s-1.024 16.249-15.16 14.903m9.544-29.012s1.238-5.957 0-15.565m-28.609 3.782c-1.229-8.437 18.956-19.492 28.609-3.782m-30.297 45.809s2.916-17.154 1.688-42.028m-96.448-21.75s-1.39 15.758-.162 19.249M85.34 210.667s-2.633 9.891 7.197 18.619M70.421 217.65c.773 2.3 1.229 6.546 14.744 14.692m18.956 60.803s-18.078-2.764-35.103 8.291m29.135-.291s1.028-2.612 2.093-8.288m-13.852 9.597s3.006-5.715 3.872-8.967m-6.857-57.218c1.756-6.546 18.667-12.647 21.94-.874m-17.025 55.859s-12.637-3.491-4.915-54.984m21.94-.874s.878 5.964 0 10.328m-19.833 8.582s14.919-4.073 19.833-8.582m-18.955 11.782s11.233 4.51 17.903 11.638m-6.846 20.51s7.547-4.218 6.845-20.51" fill="none" stroke="#000" stroke-width="8.504" stroke-linecap="round" stroke-linejoin="round" stroke-miterlimit="22.926"/></g><path d="M44.364 394.355s-13.5-17.5-4.5-32.5 19-28 43.5-34 73 2.5 73 2.5l.5 114.5s-31.5-.5-53.5-11.5-59-39-59-39z" fill-rule="evenodd" clip-rule="evenodd" fill="#f9d740"/><path d="M193.364 440.855c9.5-1.5 49.5-1 62-35.5s19.5-44.5 6.5-60.5-25.5-26.5-58-20.5-49.5 6.5-49.5 6.5l2.5 114 36.5-4z" fill-rule="evenodd" clip-rule="evenodd" fill="#67559e"/></g></g><g id="n2703"><g><path d="M136.894 413.874l1.773-23.948 3.276-9.197 6.141-5.876 11.694-.426 7.864.393 3.969 3.896s1.582 6.404.649 5.913c-.934-.491-4.918 3.282-4.918 3.282l.976 6.704-.841 16.886-8.438 2.646-9.827 5.096-6.13-3.33-6.188-2.039z" fill-rule="evenodd" clip-rule="evenodd" fill="#e186ae"/><path d="M155.175 387.975s25.448.883 13.998-13.4m-1.831 13.336s.979 19.758-.478 23.609m-29.97 2.354s-6.03-48.02 30.97-40.353" fill="none" stroke="#000" stroke-width="8.504" stroke-linecap="round" stroke-linejoin="round" stroke-miterlimit="22.926"/></g></g><g id="n2704"><g><g><path d="M134.044 317.895l-3.457-6.245 1.043-6.511 4.701-7.664 5.814-6.164 6.509-5.554 6.769-2.546 7.152 1.008 5.362 2.897 5.674 5.078 4.37 5.255 3.358 5.815 1.328 5.926-1.098 3.739-4.275 3.309-5.438 1.313c-.001.003-21.69 7.036-37.812.344z" fill-rule="evenodd" clip-rule="evenodd" fill="#f9d740"/><path d="M134.044 317.895s-14.265-9.401 14.609-32.136m13.921-1.539c8.422 1.88 34.718 30.256 9.281 33.333m-9.281-33.333c-3.094-1.367-8.594-2.051-13.922 1.538m16.328 24.445s1.719 2.222 2.578 2.564m-24.921-3.419s-1.719 3.248-3.094 3.932" fill="none" stroke="#000" stroke-width="8.504" stroke-linecap="round" stroke-linejoin="round" stroke-miterlimit="22.926"/></g><path d="M275.615 352.415l-3.805-10.913-7.075-12.223-11.037-10.824-15.468-7.616-15.009-2.796-14.706.195-16.727 2.519-12.47 2.625-17.038 3.402-13.846 1.764-15.847-.84-14.623-3.279-15.093-1.362-11.549-.658-13.321 1.932-19.539 7.207-12.594 9.157-10.336 12.994-5.591 12.771-1.847 14.006 1.115 12.606 3.794 12.169 6.702 11.666 9.877 10.334 14.338 9.87 13.492 7.131 19.817 7.93 18.484 5.194 17.885 3.281 17.638 1.715 19.612-.013 19.73-2.285 15.373-3.444 13.589-4.532 10.822-4.926 12.116-7.526 9.66-8.469 7.629-9.683 5.752-10.252 5.042-11.05 4.476-14.049 1.654-10.463-1.076-13.265zm-31.333 34.284c-10.92 16.127-25.48 37.19-59.564 37.519-34.084.329-65.19 1.975-88.684-12.506-23.495-14.481-43.019-22.709-38.717-52 0 0 2.647-19.747 20.847-21.063 18.2-1.316 42.357 6.582 56.255 5.924 13.898-.658 64.859-5.595 80.412-9.215 15.553-3.62 28.458-2.304 31.437 7.57 2.978 9.873 8.934 27.645-1.986 43.771z" fill-rule="evenodd" clip-rule="evenodd" fill="#e186ae"/><path fill-rule="evenodd" clip-rule="evenodd" fill="#61f4e5" d="M74.648 341.438l1.382 5.368.461 6.362 3.644 6.638 6.623 4.329 5.861-.345 8.281 3.091 9.707-1.503 3.914-1.664 9.193 5.747 10.189 3.21 10.876.453 4.993-3.467 9.098 3.338 11.263.594 5.945-2.324 6.743-5.72 6.215 2.436 9.032.746 6.427-1.591 3.913-3.07 7.246 1.552 7.033-1.423 4.352-3.292 4.467-8.243 1.74-8.599 1.512-5.545-9.289-2.585-7.466-.324-13.019 1.514-12.171 2.41-15.865 2.766-17.046 1.506-17.113.374-14.912-1.605-12.337-3.015-15.922-2.5-13.18.813-11.79 3.568z"/><path fill-rule="evenodd" clip-rule="evenodd" fill="#fff" d="M75.215 400.017l3.153-5.482 5.956-6.729 6.946-3.199 6.668.9 3.453 1.983 1.5 6.086 6.948.282 5.424 2.891 5.45 5.341 7.696-3.089 8.677-.248 8.041 2.357 6.085 3.288 4.836-3.546 8.281-3.473 9.083-.342 6.138 1.819 3.858 2.196 6.913-4.314 6.73-2.84 4.028-5.845 5.422-4.104 7.277-7.749 6.325-2.838 8.948.339 7.037 3.912 3.257 4.065 4.271 4.111-3.164 6.068-6.055 8.332-8.351 7.945-7.548 5.105-10.041 4.812-13.917 4.113-15.573 2.195-12.099.466-18.187-.556-13.017-1.338-13.132-2.451-15.277-4.616-16.229-6.863-10.7-5.487-5.111-3.497z"/><path d="M76.03 346.806s-1.416 18.016 16.589 16.984m21.902-.076s-18.504 9.876-25.276-12.415m60.708 18.227s-13.849 10.743-35.433-5.812m67.449 1.409s-7.914 16.556-32.015 4.403m66.669-20.773c-.54 6.517-3.152 12.307-14.605 18.597-4.701 2.581-11.294 2.208-20.049-2.228m29.452-4.591s20.639 9.864 23.337-22.015m-120.058 68.7s13.49-17.612 36.512-2.818m34.335 0s-16.888-14.97-34.335 0m67.269-3.699s-19.504-17.637-32.933 3.699m42.645-14.97s-12.878-16.581-26.351 4.425m37.503-12.175c-4.137-8.102-18.882-14.954-30.766 4.474m-130.211 8.383s12.212-17.109 24.523-.96m-7.035 6.984s11.564-19.416 27.852.328m-94.524-41.35s8.453-49.668 75.362-47.378m96.945-2.994c4.302-.477 60.434-12.505 74.643 45.264m-171.588-42.27c16.188.881 17.484 6.509 43.888 6.389 15.258-.069 30.436-6.227 53.057-9.383M46.99 415.016s-24.281-19.902-17.806-55.479m246.95-5.108s5.935 20.43-16.367 57.065M46.99 415.016c10.972 10.038 47.98 34.832 106.832 37.488 34.069 1.538 84.914-8.118 105.944-41.011m-155.31-74.06c21.583 3.346 21.893 7.425 47.32 6.697 28.072-.803 37.415-4.181 49.985-6.345m46.404 13.738s.676-26.229-46.404-13.738m-97.305-.352s-44.246-6.34-47.124 30.117m0 0s-2.698 22.72 27.879 38.747m162.954-54.774s6.475 30.822-18.885 53.894" fill="none" stroke="#000" stroke-width="8.504" stroke-linecap="round" stroke-linejoin="round" stroke-miterlimit="22.926"/><path d="M85.211 406.297c21.647 10.086 39.171 18.634 81.657 18.528 21.503-.053 45.117-3.851 62.412-19.408" fill="none" stroke="#000" stroke-width="8.504" stroke-linecap="round" stroke-linejoin="round" stroke-miterlimit="22.926"/></g></g></svg>