<svg version="1.1" xmlns="http://www.w3.org/2000/svg" xmlns:xlink="http://www.w3.org/1999/xlink" x="0px" y="0px"
	 viewBox="0 0 305.245 638.305" style="enable-background:new 0 0 305.245 638.305;" xml:space="preserve">
<g id="n2701">
	<g>
		<polygon style="fill-rule:evenodd;clip-rule:evenodd;fill:#E186AE;" points="103.18,526.103 108.574,529.531 103.211,536.824 
			103.059,543.993 117.122,552.806 130.034,555.528 148.604,558.818 163.284,559.063 180.309,554.868 192.934,551.256 
			203.157,544.369 212.356,534.454 216.055,528.728 210.039,517.51 218.061,518.51 240.41,528.049 259.389,538.133 277.033,549.612 
			289.732,559.674 300.993,570.54 295.326,582.281 287.851,590.956 274.303,601.633 255.342,612.098 232.246,621.241 
			203.654,629.002 173.921,633.455 145.237,633.585 121.201,630.676 101.37,625.751 85.812,619.823 65.472,608.528 50.285,596.807 
			38.117,585.106 31.93,578.415 43.497,567.141 59.609,553.29 74.413,542.263 86.981,534.27 103.18,526.103 		"/>
		<polygon style="fill-rule:evenodd;clip-rule:evenodd;fill:#FFFFFF;" points="159.972,509.387 156.573,516.541 151.787,526.18 
			147.171,534.148 143.154,538.883 130.566,536.771 116.802,532.576 104.283,526.804 108.928,515.988 116.605,501.482 
			124.156,489.502 131.264,482.143 138.326,480.238 138.254,487.938 138.055,494.79 146.369,501.897 153.452,506.241 
			159.972,509.387 		"/>
		<path style="fill-rule:evenodd;clip-rule:evenodd;fill:#61F4E5;" d="M163.742,512.228l7.801,10.799l7.22,11.246l5.776,9.244
			l7.908-2.953l9.582-5.899c0,0,9.594-2.664,8.655-3.983c-0.938-1.319-2.928,8.731-2.928,8.731l-6.775,6.705l-10.792,5.924
			l-14.48,5.362l-16.412,1.811l-14.978-0.865l-14.287-2.821l-13.427-4.65l-9.513-5.258l-5.226-7.704l10.553-7.359l8.108,3.214
			l10.038,3.001l8.114,1.991l4.473,0.121l5.968-7.896l4.609-8.722l3.45-7.038l1.798-3.749L163.742,512.228L163.742,512.228z"/>
		<polygon style="fill-rule:evenodd;clip-rule:evenodd;fill:#4AB57E;" points="177.859,481.723 186.022,481.648 191.657,484.34 
			195.988,489.473 199.781,495.821 204.408,505.046 208.111,513.137 212.334,521.788 214.368,527.603 206.335,531.752 
			198.789,536.768 188.494,542.04 184.54,543.517 175.997,531.806 169.648,520.402 161.492,509.79 172.195,502.307 180.677,494.823 
			179.125,491.285 177.859,481.723 		"/>
		<path style="fill-rule:evenodd;clip-rule:evenodd;fill:#F9D740;" d="M138.242,424.853c0,0,19.996-13.953,38.625,0.375
			c-0.016,5.329-0.014,10.016-0.014,10.016l0.064,12.564l0.168,12.377l0.301,11.618l0.472,9.92l0.889,8.244l1.929,4.857
			l-7.747,5.779l-7.359,6.97l-5.4,4.094l-6.718-5.425l-9.831-6.693l-5.566-4.758l0.235-10.702l0.073-16.033l-0.021-19.311
			l-0.053-14.629L138.242,424.853L138.242,424.853z"/>
		
			<path style="fill:none;stroke:#000000;stroke-width:8.5039;stroke-linecap:round;stroke-linejoin:round;stroke-miterlimit:22.9256;" d="
			M31.93,578.415c0,0,34.688-36.938,71.25-52.312"/>
		
			<path style="fill:none;stroke:#000000;stroke-width:8.5039;stroke-linecap:round;stroke-linejoin:round;stroke-miterlimit:22.9256;" d="
			M211.368,516.165c0,0,55.126,17.25,89.626,54.375"/>
		
			<path style="fill:none;stroke:#000000;stroke-width:8.5039;stroke-linecap:round;stroke-linejoin:round;stroke-miterlimit:22.9256;" d="
			M138.242,424.853c0,0,0.375,63-0.188,69.938"/>
		
			<path style="fill:none;stroke:#000000;stroke-width:8.5039;stroke-linecap:round;stroke-linejoin:round;stroke-miterlimit:22.9256;" d="
			M176.867,425.228c0,0-0.375,62.812,2.438,66.375"/>
		
			<path style="fill:none;stroke:#000000;stroke-width:8.5039;stroke-linecap:round;stroke-linejoin:round;stroke-miterlimit:22.9256;" d="
			M133.93,493.29c0,0,20.812,15.375,27.562,16.5"/>
		
			<path style="fill:none;stroke:#000000;stroke-width:8.5039;stroke-linecap:round;stroke-linejoin:round;stroke-miterlimit:22.9256;" d="
			M184.367,491.415c0,0-19.312,18.188-22.875,18.375"/>
		
			<path style="fill:none;stroke:#000000;stroke-width:8.5039;stroke-linecap:round;stroke-linejoin:round;stroke-miterlimit:22.9256;" d="
			M138.334,478.662c-7.106,4.178-10.967-0.935-33.279,45.19"/>
		
			<path style="fill:none;stroke:#000000;stroke-width:8.5039;stroke-linecap:round;stroke-linejoin:round;stroke-miterlimit:22.9256;" d="
			M177.859,481.723c13.125-0.562,15.509-3.807,36.509,45.88"/>
		
			<path style="fill:none;stroke:#000000;stroke-width:8.5039;stroke-linecap:round;stroke-linejoin:round;stroke-miterlimit:22.9256;" d="
			M163.742,512.228c3.563,3.375,18,26.812,20.812,31.312"/>
		
			<path style="fill:none;stroke:#000000;stroke-width:8.5039;stroke-linecap:round;stroke-linejoin:round;stroke-miterlimit:22.9256;" d="
			M211.93,527.79c0,0-22.501,16.5-27.375,15.75"/>
		
			<path style="fill:none;stroke:#000000;stroke-width:8.5039;stroke-linecap:round;stroke-linejoin:round;stroke-miterlimit:22.9256;" d="
			M157.18,515.228c0,0-10.875,24-15,24"/>
		
			<path style="fill:none;stroke:#000000;stroke-width:8.5039;stroke-linecap:round;stroke-linejoin:round;stroke-miterlimit:22.9256;" d="
			M110.867,530.603c0,0,24.563,8.438,31.313,8.625"/>
		
			<path style="fill:none;stroke:#000000;stroke-width:8.5039;stroke-linecap:round;stroke-linejoin:round;stroke-miterlimit:22.9256;" d="
			M101.867,537.915c-3.375,13.126,83.25,45,114.188-9.188"/>
		
			<path style="fill:none;stroke:#000000;stroke-width:8.5039;stroke-linecap:round;stroke-linejoin:round;stroke-miterlimit:22.9256;" d="
			M105.055,523.853c0,0,0.013,4.821,5.812,6.75"/>
		
			<line style="fill:none;stroke:#000000;stroke-width:8.5039;stroke-linecap:round;stroke-linejoin:round;stroke-miterlimit:22.9256;" x1="101.867" y1="537.915" x2="110.867" y2="530.603"/>
		
			<path style="fill:none;stroke:#000000;stroke-width:8.5039;stroke-linecap:round;stroke-linejoin:round;stroke-miterlimit:22.9256;" d="
			M131.305,569.603c0,0,25.003,9.181,55.688-1.688"/>
		
			<path style="fill:none;stroke:#000000;stroke-width:8.5039;stroke-linecap:round;stroke-linejoin:round;stroke-miterlimit:22.9256;" d="
			M31.93,578.415c24.375,27.188,57.478,55.311,127.476,55.637c49.145,0.229,131.012-25.315,141.588-63.512"/>
	</g>
</g>
<g id="n2702">
	<g>
		<g>
			<path style="fill-rule:evenodd;clip-rule:evenodd;fill:#E186AE;" d="M37.06,270.601l-12.084-2.02l-10.563,5.252l-6.114,10.072
				l-1.173,12.166l3.622,12.771l3.84,5.574c0,0,3.42,11.046,4.32,10.772c0.9-0.273,4.128,11.159,4.128,11.159l5.042,5.599
				l8.262,1.921l3.384-2.455l-3.191-10.974l0.937-15l-3.048-14.521l2.154-14.759l1.312-10.49L37.06,270.601L37.06,270.601z"/>
			<path style="fill-rule:evenodd;clip-rule:evenodd;fill:#F9D740;" d="M38.181,268.937l-8.402-0.606c0,0-8.873,3.21-10.084,2.877
				c-1.212-0.333-6.828-6.624-6.828-6.624l-5.978-25.675l-3.543-22.283l2.278-24.43l5.088-19.194l9.829-18.345l9.679-11.472
				l13.007-11.058l10.973-7.118l5.562,4.094l-11.44,10.045L38.22,150.063l-6.254,14.188l-3.639,11.569l-1.904,13.948l1.021,18.463
				l1.858,9.312l3.11,10.619l5.816,0.371l-0.33,13.598l0.307,14.071L38.181,268.937L38.181,268.937z"/>
			<path style="fill-rule:evenodd;clip-rule:evenodd;fill:#FFFFFF;" d="M39.724,356.411l-4.052-26.641c0,0-0.039-19.02-1.25-19.399
				c-1.212-0.379,2.154-16.78,2.154-16.78l1.461-16.909v-12.834l-0.139-20.315l1.583-28.548l9.737-32.871L68.96,155.09
				l21.045-16.329l11.544-5.073l21.4,1.016l25.091,2.522l22.976,0.979l24.464-0.426l17.536,2.997l11.277,8.77l17.956,15.126
				l10.776,16.139l5.326,17.827l3.283,25.442l2.184,35.34l0.814,34.85l1.536,8.716l3.743,20.273v17.602l0.534,15.444
				c-33.069-3.042-63.389-5.307-90.426-5.307c-13.002,0-7.218-3.925-13.042-3.986c-9.299-0.098-33.138-0.094-41.5,0
				c-4.831,0.054,0.04,3.917-8.71,3.917C64.854,350.929,39.724,356.411,39.724,356.411z"/>
			<polygon style="fill-rule:evenodd;clip-rule:evenodd;fill:#F9D740;" points="94.107,76.255 90.912,69.724 86.754,60.104 
				81.784,44.153 80.278,33.067 83.181,20.1 89.22,13.563 103.791,7.997 120.856,4.431 135.397,4.955 149.324,8.391 160.758,13.393 
				173.332,21.532 180.959,30.399 183.421,42.068 181.658,51.813 178.698,62.557 173.223,69.441 168.537,73.1 163.086,77.379 
				153.919,70.825 140.783,64.376 127.286,64.284 115.285,66.074 103.894,70.262 94.107,76.255 			"/>
			<polygon style="fill-rule:evenodd;clip-rule:evenodd;fill:#4AB57E;" points="38.336,226.975 31.683,225.674 27.229,206.763 
				26.422,189.768 29.928,169.922 36.307,155.267 41.276,147.568 51.021,136.44 59.761,129.103 59.248,122.199 70.784,116.609 
				86.411,110.44 89.889,103.101 94.762,98.897 88.665,94.258 94.21,88.37 88.849,82.475 97.594,73.782 109.589,68.168 
				121.285,65.179 135.668,64.341 152.026,69.794 160.472,75.511 164.787,78.912 165.724,84.349 171.729,90.442 175.083,92.741 
				173.027,99.302 182.382,108.3 195.861,112.705 207.555,115.147 220.057,119.242 233.593,124.215 250.052,131.235 
				264.126,138.619 275.325,146.567 281.319,153.631 285.903,164.896 289.915,174.544 293.144,187.114 294.33,198.362 
				293.748,212.622 290.999,227.568 286.374,242.824 282.659,252.54 279.108,262.361 271.599,263.486 265.124,267.458 
				263.817,256.104 263.065,242.413 261.633,225.021 259.349,207.838 255.508,192.501 248.371,179.685 237.697,168.666 
				224.292,159.465 204.475,148.699 186.125,149.4 165.108,149.394 151.195,148.83 129.537,146.88 116.364,145.942 101.548,145.517 
				91.887,147.728 80.86,155.458 68.96,164.342 59.596,173.517 51.19,184.755 45.267,196.238 41.682,206.713 39.481,217.022 
				38.336,226.975 			"/>
			<polygon style="fill-rule:evenodd;clip-rule:evenodd;fill:#67559E;" points="270.6,334.894 275.577,333.348 280.105,329.508 
				283.493,324.341 285.321,317.134 286.61,308.013 289.455,298.491 290.913,289.332 291.121,281.086 290.093,273.228 
				286.061,265.71 279.108,262.361 271.599,263.486 264.986,266.253 264.465,275.434 264.614,284.447 265.097,291.095 
				267.562,298.764 269.346,307.466 270.171,315.401 270.593,325.14 270.6,334.894 			"/>
			
				<path style="fill:none;stroke:#000000;stroke-width:8.5039;stroke-linecap:round;stroke-linejoin:round;stroke-miterlimit:22.9256;" d="
				M84.725,149.224c0,0,19.749-5.465,44.812-2.345c37.413,4.659,73.579,1.852,85.501,1.22"/>
			
				<path style="fill:none;stroke:#000000;stroke-width:8.5039;stroke-linecap:round;stroke-linejoin:round;stroke-miterlimit:22.9256;" d="
				M63.819,159.256c0,0-13.5-31.125,37.125-46.312s115.239-1.608,127.687,30.938"/>
			
				<path style="fill:none;stroke:#000000;stroke-width:8.5039;stroke-linecap:round;stroke-linejoin:round;stroke-miterlimit:22.9256;" d="
				M172.756,106.381c25.963,4.219,90.562,26.628,108.562,47.25"/>
			
				<path style="fill:none;stroke:#000000;stroke-width:8.5039;stroke-linecap:round;stroke-linejoin:round;stroke-miterlimit:22.9256;" d="
				M256.849,139.731c0,0,20.533,22.337,3.657,39.774"/>
			
				<path style="fill:none;stroke:#000000;stroke-width:8.5039;stroke-linecap:round;stroke-linejoin:round;stroke-miterlimit:22.9256;" d="
				M278.864,261.352c16.994-37.675,23.319-91.351,2.455-107.722"/>
			
				<path style="fill:none;stroke:#000000;stroke-width:8.5039;stroke-linecap:round;stroke-linejoin:round;stroke-miterlimit:22.9256;" d="
				M199.764,148.933c0,0,46.304,12.573,56.617,46.136"/>
			
				<path style="fill:none;stroke:#000000;stroke-width:8.5039;stroke-linecap:round;stroke-linejoin:round;stroke-miterlimit:22.9256;" d="
				M264.631,286.757c0,0-0.188-66.75-8.25-91.688"/>
			
				<path style="fill:none;stroke:#000000;stroke-width:8.5039;stroke-linecap:round;stroke-linejoin:round;stroke-miterlimit:22.9256;" d="
				M270.444,341.319c1.501-46.126-6.187-45.188-5.812-54.562"/>
			
				<path style="fill:none;stroke:#000000;stroke-width:8.5039;stroke-linecap:round;stroke-linejoin:round;stroke-miterlimit:22.9256;" d="
				M264.285,268.574c2.062-4.125,21.948-14.877,26.408,7.12"/>
			
				<path style="fill:none;stroke:#000000;stroke-width:8.5039;stroke-linecap:round;stroke-linejoin:round;stroke-miterlimit:22.9256;" d="
				M288.256,302.694c0,0,4.313-11.626,2.438-27"/>
			
				<path style="fill:none;stroke:#000000;stroke-width:8.5039;stroke-linecap:round;stroke-linejoin:round;stroke-miterlimit:22.9256;" d="
				M278.881,276.257c0,0-4.125,13.124-1.5,21c2.625,7.875-3.318,16.495-7.472,14.997"/>
			
				<path style="fill:none;stroke:#000000;stroke-width:8.5039;stroke-linecap:round;stroke-linejoin:round;stroke-miterlimit:22.9256;" d="
				M270.576,336.248c19.5-9.75,12.243-20.616,17.68-33.554"/>
			
				<path style="fill:none;stroke:#000000;stroke-width:8.5039;stroke-linecap:round;stroke-linejoin:round;stroke-miterlimit:22.9256;" d="
				M88.286,104.787c0,0,43.563-27.408,95.134-2.786"/>
			
				<path style="fill:none;stroke:#000000;stroke-width:8.5039;stroke-linecap:round;stroke-linejoin:round;stroke-miterlimit:22.9256;" d="
				M165.724,84.349"/>
			
				<path style="fill:none;stroke:#000000;stroke-width:8.5039;stroke-linecap:round;stroke-linejoin:round;stroke-miterlimit:22.9256;" d="
				M88.099,95.038c0,0,34.049-42.558,86.984-2.297"/>
			
				<path style="fill:none;stroke:#000000;stroke-width:8.5039;stroke-linecap:round;stroke-linejoin:round;stroke-miterlimit:22.9256;" d="
				M88.849,82.475c0.187-6.001,41.603-35.63,75.938-3.563"/>
			
				<path style="fill:none;stroke:#000000;stroke-width:8.5039;stroke-linecap:round;stroke-linejoin:round;stroke-miterlimit:22.9256;" d="
				M115.285,66.074c0,0,9.188-11.35,11.813-35.912"/>
			
				<path style="fill:none;stroke:#000000;stroke-width:8.5039;stroke-linecap:round;stroke-linejoin:round;stroke-miterlimit:22.9256;" d="
				M166.182,50.001c0,0,0,14.34-14.478,19.627"/>
			
				<path style="fill:none;stroke:#000000;stroke-width:8.5039;stroke-linecap:round;stroke-linejoin:round;stroke-miterlimit:22.9256;" d="
				M98.411,44.412c0,0-8.062-11.438-3.562-18.75"/>
			
				<path style="fill:none;stroke:#000000;stroke-width:8.5039;stroke-linecap:round;stroke-linejoin:round;stroke-miterlimit:22.9256;" d="
				M97.594,73.782c0,0,12.817-46.808-2.745-48.12"/>
			
				<path style="fill:none;stroke:#000000;stroke-width:8.5039;stroke-linecap:round;stroke-linejoin:round;stroke-miterlimit:22.9256;" d="
				M90.912,69.724c0,0-20.438-41.062-4.688-52.875"/>
			
				<path style="fill:none;stroke:#000000;stroke-width:8.5039;stroke-linecap:round;stroke-linejoin:round;stroke-miterlimit:22.9256;" d="
				M174.911,22.849c0,0-41.437-37.5-88.688-6"/>
			
				<path style="fill:none;stroke:#000000;stroke-width:8.5039;stroke-linecap:round;stroke-linejoin:round;stroke-miterlimit:22.9256;" d="
				M164.787,78.912c0,0,16.85-13.14,18.35-30.329c0.732-8.391,0.735-18.453-8.226-25.733"/>
			
				<path style="fill:none;stroke:#000000;stroke-width:8.5039;stroke-linecap:round;stroke-linejoin:round;stroke-miterlimit:22.9256;" d="
				M53.515,130.001c0,0-44.107,29.915-19.357,102.667"/>
			
				<path style="fill:none;stroke:#000000;stroke-width:8.5039;stroke-linecap:round;stroke-linejoin:round;stroke-miterlimit:22.9256;" d="
				M96.724,107.038c-80.251,24.75-108.938,71.437-83.438,159"/>
			
				<path style="fill:none;stroke:#000000;stroke-width:8.5039;stroke-linecap:round;stroke-linejoin:round;stroke-miterlimit:22.9256;" d="
				M38.036,271.288c2.438-31.688-14.553-88.016,57.248-124.086"/>
			
				<path style="fill:none;stroke:#000000;stroke-width:8.5039;stroke-linecap:round;stroke-linejoin:round;stroke-miterlimit:22.9256;" d="
				M39.724,341.413c0,0-4.813-19.539-5.303-40.494c-0.239-10.244,3.378-12.714,3.615-29.631"/>
			
				<path style="fill:none;stroke:#000000;stroke-width:8.5039;stroke-linecap:round;stroke-linejoin:round;stroke-miterlimit:22.9256;" d="
				M23.425,279.594c0,0,1.3,5.094,2.252,14.4c0.973,9.513-3.621,17.21,3.735,24.92"/>
			
				<path style="fill:none;stroke:#000000;stroke-width:8.5039;stroke-linecap:round;stroke-linejoin:round;stroke-miterlimit:22.9256;" d="
				M37.849,343.663c0,0-15,3.562-17.438-16.5"/>
			
				<path style="fill:none;stroke:#000000;stroke-width:8.5039;stroke-linecap:round;stroke-linejoin:round;stroke-miterlimit:22.9256;" d="
				M38.036,271.288c-10.363-8.071-36.176-0.569-30.102,30.832c1.665,8.607,9.501,12.367,12.477,25.043"/>
		</g>
		<g>
			<polygon style="fill-rule:evenodd;clip-rule:evenodd;" points="87.151,253.834 94.203,251.48 101.438,248.328 105.349,245.724 
				105.568,237.366 104.071,232.509 98.741,228.964 89.953,230.142 85.119,233.418 83.144,238.073 82.379,243.805 81.695,250.067 
				80.94,262.402 81.152,272.188 82.628,281.845 85.216,288.258 90.266,293.487 95.607,292.93 98.786,288.581 103.179,283.931 
				104.099,275.768 104.296,269.144 99.501,264.915 90.085,259.202 86.394,257.506 87.151,253.834 			"/>
			
				<path style="fill:none;stroke:#000000;stroke-width:8.5039;stroke-linecap:round;stroke-linejoin:round;stroke-miterlimit:22.9256;" d="
				M192.053,206.964c0,0,22.402-9.747,38.088,4.14"/>
			
				<path style="fill:none;stroke:#000000;stroke-width:8.5039;stroke-linecap:round;stroke-linejoin:round;stroke-miterlimit:22.9256;" d="
				M75.335,206.304c0,0,12.271-21.155,32.822-16.437"/>
			
				<path style="fill:none;stroke:#000000;stroke-width:8.5039;stroke-linecap:round;stroke-linejoin:round;stroke-miterlimit:22.9256;" d="
				M189.813,286.564c0,0,17.85-11.526,43.124,1.857"/>
			
				<path style="fill:none;stroke:#000000;stroke-width:8.5039;stroke-linecap:round;stroke-linejoin:round;stroke-miterlimit:22.9256;" d="
				M215.575,295.151c0,0-2.636-8.773-9.533-13.119"/>
			
				<path style="fill:none;stroke:#000000;stroke-width:8.5039;stroke-linecap:round;stroke-linejoin:round;stroke-miterlimit:22.9256;" d="
				M229.297,298.632c-0.503-2.068-2.297-11.888-8.78-15.114"/>
			
				<path style="fill:none;stroke:#000000;stroke-width:8.5039;stroke-linecap:round;stroke-linejoin:round;stroke-miterlimit:22.9256;" d="
				M188.719,275.689c0,0,31.066-8.292,47.565,3.345"/>
			
				<path style="fill:none;stroke:#000000;stroke-width:8.5039;stroke-linecap:round;stroke-linejoin:round;stroke-miterlimit:22.9256;" d="
				M244.697,255.931c0.241,4.557,0.249,15.589-15.899,19.372"/>
			
				<path style="fill:none;stroke:#000000;stroke-width:8.5039;stroke-linecap:round;stroke-linejoin:round;stroke-miterlimit:22.9256;" d="
				M215.576,261.226c0,0,2.8,8.862-13.33,12.119"/>
			
				<path style="fill:none;stroke:#000000;stroke-width:8.5039;stroke-linecap:round;stroke-linejoin:round;stroke-miterlimit:22.9256;" d="
				M231.72,258.088c0,0-1.024,16.249-15.16,14.903"/>
			
				<path style="fill:none;stroke:#000000;stroke-width:8.5039;stroke-linecap:round;stroke-linejoin:round;stroke-miterlimit:22.9256;" d="
				M226.104,243.979c0,0,1.238-5.957,0-15.565"/>
			
				<path style="fill:none;stroke:#000000;stroke-width:8.5039;stroke-linecap:round;stroke-linejoin:round;stroke-miterlimit:22.9256;" d="
				M197.495,232.196c-1.229-8.437,18.956-19.492,28.609-3.782"/>
			
				<path style="fill:none;stroke:#000000;stroke-width:8.5039;stroke-linecap:round;stroke-linejoin:round;stroke-miterlimit:22.9256;" d="
				M195.807,274.223c0,0,2.916-17.154,1.688-42.028"/>
			
				<path style="fill:none;stroke:#000000;stroke-width:8.5039;stroke-linecap:round;stroke-linejoin:round;stroke-miterlimit:22.9256;" d="
				M101.047,210.445c0,0-1.39,15.758-0.162,19.249"/>
			
				<path style="fill:none;stroke:#000000;stroke-width:8.5039;stroke-linecap:round;stroke-linejoin:round;stroke-miterlimit:22.9256;" d="
				M85.34,210.667c0,0-2.633,9.891,7.197,18.619"/>
			
				<path style="fill:none;stroke:#000000;stroke-width:8.5039;stroke-linecap:round;stroke-linejoin:round;stroke-miterlimit:22.9256;" d="
				M70.421,217.65c0.773,2.3,1.229,6.546,14.744,14.692"/>
			
				<path style="fill:none;stroke:#000000;stroke-width:8.5039;stroke-linecap:round;stroke-linejoin:round;stroke-miterlimit:22.9256;" d="
				M104.121,293.145c0,0-18.078-2.764-35.103,8.291"/>
			
				<path style="fill:none;stroke:#000000;stroke-width:8.5039;stroke-linecap:round;stroke-linejoin:round;stroke-miterlimit:22.9256;" d="
				M98.153,301.145c0,0,1.028-2.612,2.093-8.288"/>
			
				<path style="fill:none;stroke:#000000;stroke-width:8.5039;stroke-linecap:round;stroke-linejoin:round;stroke-miterlimit:22.9256;" d="
				M86.394,302.454c0,0,3.006-5.715,3.872-8.967"/>
			
				<path style="fill:none;stroke:#000000;stroke-width:8.5039;stroke-linecap:round;stroke-linejoin:round;stroke-miterlimit:22.9256;" d="
				M83.409,236.269c1.756-6.546,18.667-12.647,21.94-0.874"/>
			
				<path style="fill:none;stroke:#000000;stroke-width:8.5039;stroke-linecap:round;stroke-linejoin:round;stroke-miterlimit:22.9256;" d="
				M88.324,291.254c0,0-12.637-3.491-4.915-54.984"/>
			
				<path style="fill:none;stroke:#000000;stroke-width:8.5039;stroke-linecap:round;stroke-linejoin:round;stroke-miterlimit:22.9256;" d="
				M105.349,235.396c0,0,0.878,5.964,0,10.328"/>
			
				<path style="fill:none;stroke:#000000;stroke-width:8.5039;stroke-linecap:round;stroke-linejoin:round;stroke-miterlimit:22.9256;" d="
				M85.516,254.306c0,0,14.919-4.073,19.833-8.582"/>
			
				<path style="fill:none;stroke:#000000;stroke-width:8.5039;stroke-linecap:round;stroke-linejoin:round;stroke-miterlimit:22.9256;" d="
				M86.394,257.506c0,0,11.233,4.51,17.903,11.638"/>
			
				<path style="fill:none;stroke:#000000;stroke-width:8.5039;stroke-linecap:round;stroke-linejoin:round;stroke-miterlimit:22.9256;" d="
				M97.451,289.654c0,0,7.547-4.218,6.845-20.51"/>
		</g>
		<path style="fill-rule:evenodd;clip-rule:evenodd;fill:#F9D740;" d="M44.364,394.355c0,0-13.5-17.5-4.5-32.5s19-28,43.5-34
			s73,2.5,73,2.5l0.5,114.5c0,0-31.5-0.5-53.5-11.5S44.364,394.355,44.364,394.355z"/>
		<path style="fill-rule:evenodd;clip-rule:evenodd;fill:#67559E;" d="M193.364,440.855c9.5-1.5,49.5-1,62-35.5s19.5-44.5,6.5-60.5
			s-25.5-26.5-58-20.5s-49.5,6.5-49.5,6.5l2.5,114L193.364,440.855z"/>
	</g>
</g>
<g id="n2703">
	<g>
		<path style="fill-rule:evenodd;clip-rule:evenodd;fill:#E186AE;" d="M136.894,413.874l1.773-23.948l3.276-9.197l6.141-5.876
			l11.694-0.426l7.864,0.393l3.969,3.896c0,0,1.582,6.404,0.649,5.913c-0.934-0.491-4.918,3.282-4.918,3.282l0.976,6.704
			l-0.841,16.886l-8.438,2.646l-9.827,5.096l-6.13-3.33L136.894,413.874L136.894,413.874z"/>
		
			<path style="fill:none;stroke:#000000;stroke-width:8.5039;stroke-linecap:round;stroke-linejoin:round;stroke-miterlimit:22.9256;" d="
			M155.175,387.975c0,0,25.448,0.883,13.998-13.4"/>
		
			<path style="fill:none;stroke:#000000;stroke-width:8.5039;stroke-linecap:round;stroke-linejoin:round;stroke-miterlimit:22.9256;" d="
			M167.342,387.911c0,0,0.979,19.758-0.478,23.609"/>
		
			<path style="fill:none;stroke:#000000;stroke-width:8.5039;stroke-linecap:round;stroke-linejoin:round;stroke-miterlimit:22.9256;" d="
			M136.894,413.874c0,0-6.03-48.02,30.97-40.353"/>
	</g>
</g>
<g id="n2704">
	<g>
		<g>
			<path style="fill-rule:evenodd;clip-rule:evenodd;fill:#F9D740;" d="M134.044,317.895l-3.457-6.245l1.043-6.511l4.701-7.664
				l5.814-6.164l6.509-5.554l6.769-2.546l7.152,1.008l5.362,2.897l5.674,5.078l4.37,5.255l3.358,5.815l1.328,5.926l-1.098,3.739
				l-4.275,3.309l-5.438,1.313C171.855,317.554,150.166,324.587,134.044,317.895L134.044,317.895z"/>
			
				<path style="fill:none;stroke:#000000;stroke-width:8.5039;stroke-linecap:round;stroke-linejoin:round;stroke-miterlimit:22.9256;" d="
				M134.044,317.895c0,0-14.265-9.401,14.609-32.136"/>
			
				<path style="fill:none;stroke:#000000;stroke-width:8.5039;stroke-linecap:round;stroke-linejoin:round;stroke-miterlimit:22.9256;" d="
				M162.574,284.22c8.422,1.88,34.718,30.256,9.281,33.333"/>
			
				<path style="fill:none;stroke:#000000;stroke-width:8.5039;stroke-linecap:round;stroke-linejoin:round;stroke-miterlimit:22.9256;" d="
				M162.574,284.22c-3.094-1.367-8.594-2.051-13.922,1.538"/>
			
				<path style="fill:none;stroke:#000000;stroke-width:8.5039;stroke-linecap:round;stroke-linejoin:round;stroke-miterlimit:22.9256;" d="
				M164.98,310.203c0,0,1.719,2.222,2.578,2.564"/>
			
				<path style="fill:none;stroke:#000000;stroke-width:8.5039;stroke-linecap:round;stroke-linejoin:round;stroke-miterlimit:22.9256;" d="
				M142.637,309.348c0,0-1.719,3.248-3.094,3.932"/>
		</g>
		<path style="fill-rule:evenodd;clip-rule:evenodd;fill:#E186AE;" d="M275.615,352.415l-3.805-10.913l-7.075-12.223l-11.037-10.824
			l-15.468-7.616l-15.009-2.796l-14.706,0.195l-16.727,2.519l-12.47,2.625l-17.038,3.402l-13.846,1.764l-15.847-0.84l-14.623-3.279
			l-15.093-1.362l-11.549-0.658l-13.321,1.932l-19.539,7.207l-12.594,9.157l-10.336,12.994l-5.591,12.771l-1.847,14.006
			l1.115,12.606l3.794,12.169l6.702,11.666l9.877,10.334l14.338,9.87l13.492,7.131l19.817,7.93l18.484,5.194l17.885,3.281
			l17.638,1.715l19.612-0.013l19.73-2.285l15.373-3.444l13.589-4.532l10.822-4.926l12.116-7.526l9.66-8.469l7.629-9.683
			l5.752-10.252l5.042-11.05l4.476-14.049l1.654-10.463L275.615,352.415z M244.282,386.699c-10.92,16.127-25.48,37.19-59.564,37.519
			c-34.084,0.329-65.19,1.975-88.684-12.506c-23.495-14.481-43.019-22.709-38.717-52c0,0,2.647-19.747,20.847-21.063
			c18.2-1.316,42.357,6.582,56.255,5.924c13.898-0.658,64.859-5.595,80.412-9.215c15.553-3.62,28.458-2.304,31.437,7.57
			C249.246,352.801,255.202,370.573,244.282,386.699z"/>
		<polygon style="fill-rule:evenodd;clip-rule:evenodd;fill:#61F4E5;" points="74.648,341.438 76.03,346.806 76.491,353.168 
			80.135,359.806 86.758,364.135 92.619,363.79 100.9,366.881 110.607,365.378 114.521,363.714 123.714,369.461 133.903,372.671 
			144.779,373.124 149.772,369.657 158.87,372.995 170.133,373.589 176.078,371.265 182.821,365.545 189.036,367.981 
			198.068,368.727 204.495,367.136 208.408,364.066 215.654,365.618 222.687,364.195 227.039,360.903 231.506,352.66 
			233.246,344.061 234.758,338.516 225.469,335.931 218.003,335.607 204.984,337.121 192.813,339.531 176.948,342.297 
			159.902,343.803 142.789,344.177 127.877,342.572 115.54,339.557 99.618,337.057 86.438,337.87 74.648,341.438 		"/>
		<polygon style="fill-rule:evenodd;clip-rule:evenodd;fill:#FFFFFF;" points="75.215,400.017 78.368,394.535 84.324,387.806 
			91.27,384.607 97.938,385.507 101.391,387.49 102.891,393.576 109.839,393.858 115.263,396.749 120.713,402.09 128.409,399.001 
			137.086,398.753 145.127,401.11 151.212,404.398 156.048,400.852 164.329,397.379 173.412,397.037 179.55,398.856 
			183.408,401.052 190.321,396.738 197.051,393.898 201.079,388.053 206.501,383.949 213.778,376.2 220.103,373.362 
			229.051,373.701 236.088,377.613 239.345,381.678 243.616,385.789 240.452,391.857 234.397,400.189 226.046,408.134 
			218.498,413.239 208.457,418.051 194.54,422.164 178.967,424.359 166.868,424.825 148.681,424.269 135.664,422.931 
			122.532,420.48 107.255,415.864 91.026,409.001 80.326,403.514 75.215,400.017 		"/>
		
			<path style="fill:none;stroke:#000000;stroke-width:8.5039;stroke-linecap:round;stroke-linejoin:round;stroke-miterlimit:22.9256;" d="
			M76.03,346.806c0,0-1.416,18.016,16.589,16.984"/>
		
			<path style="fill:none;stroke:#000000;stroke-width:8.5039;stroke-linecap:round;stroke-linejoin:round;stroke-miterlimit:22.9256;" d="
			M114.521,363.714c0,0-18.504,9.876-25.276-12.415"/>
		
			<path style="fill:none;stroke:#000000;stroke-width:8.5039;stroke-linecap:round;stroke-linejoin:round;stroke-miterlimit:22.9256;" d="
			M91.678,360.367"/>
		
			<path style="fill:none;stroke:#000000;stroke-width:8.5039;stroke-linecap:round;stroke-linejoin:round;stroke-miterlimit:22.9256;" d="
			M149.953,369.526c0,0-13.849,10.743-35.433-5.812"/>
		
			<path style="fill:none;stroke:#000000;stroke-width:8.5039;stroke-linecap:round;stroke-linejoin:round;stroke-miterlimit:22.9256;" d="
			M181.969,365.123c0,0-7.914,16.556-32.015,4.403"/>
		
			<path style="fill:none;stroke:#000000;stroke-width:8.5039;stroke-linecap:round;stroke-linejoin:round;stroke-miterlimit:22.9256;" d="
			M216.623,348.753c-0.54,6.517-3.152,12.307-14.605,18.597c-4.701,2.581-11.294,2.208-20.049-2.228"/>
		
			<path style="fill:none;stroke:#000000;stroke-width:8.5039;stroke-linecap:round;stroke-linejoin:round;stroke-miterlimit:22.9256;" d="
			M211.421,360.531c0,0,20.639,9.864,23.337-22.015"/>
		
			<path style="fill:none;stroke:#000000;stroke-width:8.5039;stroke-linecap:round;stroke-linejoin:round;stroke-miterlimit:22.9256;" d="
			M114.7,407.216c0,0,13.49-17.612,36.512-2.818"/>
		
			<path style="fill:none;stroke:#000000;stroke-width:8.5039;stroke-linecap:round;stroke-linejoin:round;stroke-miterlimit:22.9256;" d="
			M185.547,404.398c0,0-16.888-14.97-34.335,0"/>
		
			<path style="fill:none;stroke:#000000;stroke-width:8.5039;stroke-linecap:round;stroke-linejoin:round;stroke-miterlimit:22.9256;" d="
			M218.481,400.699c0,0-19.504-17.637-32.933,3.699"/>
		
			<path style="fill:none;stroke:#000000;stroke-width:8.5039;stroke-linecap:round;stroke-linejoin:round;stroke-miterlimit:22.9256;" d="
			M228.193,389.428c0,0-12.878-16.581-26.351,4.425"/>
		
			<path style="fill:none;stroke:#000000;stroke-width:8.5039;stroke-linecap:round;stroke-linejoin:round;stroke-miterlimit:22.9256;" d="
			M239.345,381.678c-4.137-8.102-18.882-14.954-30.766,4.474"/>
		
			<path style="fill:none;stroke:#000000;stroke-width:8.5039;stroke-linecap:round;stroke-linejoin:round;stroke-miterlimit:22.9256;" d="
			M78.368,394.535c0,0,12.212-17.109,24.523-0.96"/>
		
			<path style="fill:none;stroke:#000000;stroke-width:8.5039;stroke-linecap:round;stroke-linejoin:round;stroke-miterlimit:22.9256;" d="
			M95.856,400.559c0,0,11.564-19.416,27.852,0.328"/>
		
			<path style="fill:none;stroke:#000000;stroke-width:8.5039;stroke-linecap:round;stroke-linejoin:round;stroke-miterlimit:22.9256;" d="
			M29.184,359.537c0,0,8.453-49.668,75.362-47.378"/>
		
			<path style="fill:none;stroke:#000000;stroke-width:8.5039;stroke-linecap:round;stroke-linejoin:round;stroke-miterlimit:22.9256;" d="
			M201.491,309.165c4.302-0.477,60.434-12.505,74.643,45.264"/>
		
			<path style="fill:none;stroke:#000000;stroke-width:8.5039;stroke-linecap:round;stroke-linejoin:round;stroke-miterlimit:22.9256;" d="
			M104.546,312.159c16.188,0.881,17.484,6.509,43.888,6.389c15.258-0.069,30.436-6.227,53.057-9.383"/>
		
			<path style="fill:none;stroke:#000000;stroke-width:8.5039;stroke-linecap:round;stroke-linejoin:round;stroke-miterlimit:22.9256;" d="
			M46.99,415.016c0,0-24.281-19.902-17.806-55.479"/>
		
			<path style="fill:none;stroke:#000000;stroke-width:8.5039;stroke-linecap:round;stroke-linejoin:round;stroke-miterlimit:22.9256;" d="
			M276.134,354.429c0,0,5.935,20.43-16.367,57.065"/>
		
			<path style="fill:none;stroke:#000000;stroke-width:8.5039;stroke-linecap:round;stroke-linejoin:round;stroke-miterlimit:22.9256;" d="
			M46.99,415.016c10.972,10.038,47.98,34.832,106.832,37.488c34.069,1.538,84.914-8.118,105.944-41.011"/>
		
			<path style="fill:none;stroke:#000000;stroke-width:8.5039;stroke-linecap:round;stroke-linejoin:round;stroke-miterlimit:22.9256;" d="
			M104.456,337.433c21.583,3.346,21.893,7.425,47.32,6.697c28.072-0.803,37.415-4.181,49.985-6.345"/>
		
			<path style="fill:none;stroke:#000000;stroke-width:8.5039;stroke-linecap:round;stroke-linejoin:round;stroke-miterlimit:22.9256;" d="
			M248.165,351.523c0,0,0.676-26.229-46.404-13.738"/>
		
			<path style="fill:none;stroke:#000000;stroke-width:8.5039;stroke-linecap:round;stroke-linejoin:round;stroke-miterlimit:22.9256;" d="
			M104.456,337.433c0,0-44.246-6.34-47.124,30.117"/>
		
			<path style="fill:none;stroke:#000000;stroke-width:8.5039;stroke-linecap:round;stroke-linejoin:round;stroke-miterlimit:22.9256;" d="
			M57.332,367.55c0,0-2.698,22.72,27.879,38.747"/>
		
			<path style="fill:none;stroke:#000000;stroke-width:8.5039;stroke-linecap:round;stroke-linejoin:round;stroke-miterlimit:22.9256;" d="
			M248.165,351.523c0,0,6.475,30.822-18.885,53.894"/>
		
			<path style="fill:none;stroke:#000000;stroke-width:8.5039;stroke-linecap:round;stroke-linejoin:round;stroke-miterlimit:22.9256;" d="
			M85.211,406.297c21.647,10.086,39.171,18.634,81.657,18.528c21.503-0.053,45.117-3.851,62.412-19.408"/>
	</g>
</g>
</svg>
