<?xml version="1.0" encoding="utf-8"?>
<!-- Generator: Adobe Illustrator 19.2.1, SVG Export Plug-In . SVG Version: 6.00 Build 0)  -->
<svg version="1.1" xmlns="http://www.w3.org/2000/svg" xmlns:xlink="http://www.w3.org/1999/xlink" x="0px" y="0px"
	 viewBox="0 0 337.006 544.194" style="enable-background:new 0 0 337.006 544.194;" xml:space="preserve">
<g id="n2801">
	<g>
		<polygon style="fill-rule:evenodd;clip-rule:evenodd;fill:#404041;" points="44.377,448.197 43.102,430.118 41.844,401.951 
			40.842,364.132 40.569,320.637 41.381,275.221 43.424,232.088 47.204,189.949 52.649,156.645 60.6,125.974 68.762,104.507 
			78.387,86.529 91.065,70.572 96.95,73.242 103.252,60.822 101.371,58.642 112.155,50.322 126.135,42.369 141.668,37.245 
			154.252,36.447 159.504,34.196 170.327,41.333 184.791,49.693 200.235,58.272 220.799,70.091 241.858,83.682 261.116,98.931 
			275.838,114.776 285.491,131.204 288.891,142.115 290.018,152.644 292.204,164.81 292.708,173.347 292.227,180.208 
			294.01,194.985 294.78,215.275 294.879,232.889 294.618,258.399 294.102,285.041 293.452,313.135 292.104,332.288 
			291.071,355.164 290.696,373.519 290.676,402.012 291.036,424.172 291.536,442.17 292.442,464.884 297.793,463.617 
			305.969,457.608 317.043,447.757 325.131,438.414 331.616,427.621 330.665,420.103 329.135,399.036 328.293,370.917 
			328.055,346.14 328.206,305.265 328.68,267.006 329.286,225.398 328.774,194.615 327.004,170.605 325.375,154.853 
			322.584,138.069 314.965,112.44 304.543,91.616 288.961,70.717 271.079,53.45 254.475,41.715 232.407,31.113 206.002,24.476 
			188.61,23.33 177.221,24.165 166.139,25.411 156.717,25.362 147.784,26.04 134.498,22.213 121.227,22.352 106.965,26.053 
			94.491,32.172 83.002,40.197 75.534,44.299 68.2,49.865 59.123,60.418 48.373,77.8 38.69,98.143 30.196,119.96 23.907,138.743 
			17.942,158.84 14.473,171.651 12.502,179.322 14.002,185.322 12.584,201.097 11.182,218.521 9.737,238.54 8.664,255.064 
			7.746,270.779 6.606,293.207 5.799,312.325 5.047,334.936 4.577,355.113 4.299,376.523 4.262,395.259 4.373,409.51 4.627,424.197 
			10.37,430.605 18.498,437.534 30.028,444.263 44.377,448.197 		"/>
		<polygon style="fill-rule:evenodd;clip-rule:evenodd;fill:#67559E;" points="42.473,416.035 49.252,417.072 51.469,404.069 
			53.526,386.775 54.864,368.29 55.428,345.786 56.057,319.521 57.291,292.531 59.024,266.391 61.735,235.84 65.161,206.026 
			69.137,178.421 73.516,153.616 78.905,128.682 83.989,109.36 92.641,83.491 96.95,73.242 91.065,70.572 84.725,78.55 
			75.819,90.727 67.02,108.513 60.6,125.974 55.944,143.941 51.721,162.327 49.143,178.086 45.85,201.853 44.032,223.179 
			42.936,240.069 42.03,258.033 41.221,280.535 40.68,307.516 40.547,333.013 40.752,358.505 41.092,376.508 41.565,393.741 
			41.971,405.36 42.473,416.035 		"/>
		<path style="fill-rule:evenodd;clip-rule:evenodd;fill:#3F3558;" d="M62.838,225.416l-1.703,16.477l-1.564,18.336l-1.793,24.109
			l-1.103,21.689l-0.744,17.276l-0.502,22.483l-0.564,22.504l-1.338,18.485l-1.512,13.353l-2.762,16.944l-6.719,0.301l0.252,10.668
			l17.801-2.691l30.059-3.233l30.377-1.952l33.828-0.684l26.994,0.617l29.748,1.964l27.588,3.139l20.332,3.212l13.648,2.626
			l18.125,2.133l-0.531-24.419l-0.059-35.232l0.892-29.793l1.863-30.591l0.58-25.086l0.586-29.65l0.246-21.764l-0.033-12.553
			c0,0-29.401-21.887-87.438-18.144c-10.86,0.7-45.267,4.488-56.814,4.222C119.235,209.438,93.443,237.993,62.838,225.416
			L62.838,225.416z"/>
		<path style="fill-rule:evenodd;clip-rule:evenodd;fill:#61F4E4;" d="M156.504,35.196l10.822,7.137l14.465,8.36l12.641,7.02
			l23.367,13.379l18.258,11.646l15.807,12.243l10.209,9.208l10.766,11.587l4.826,8.214l6.525,13.67l2.266,10.72l1.656,11.348
			l1.344,10.352l-0.201,7.243l0.494,8.204l1.494,14.264l0.555,19.465l0.033,5.828c0,0-39.041,22.092-85.857,24.986
			c-12.095,0.747-16.604,9.242-22.805,9.731c-11.638,0.918-16.119-6.126-28.645-6.876c-5.712-0.342-4.978-2.107-20.323-2.12
			c-24.722-0.021-85.677,44.12-74.361-24.387c-5.698,34.498,2.727-22.476,2.727-22.476l3.572-24.52l5.453-30.207l5.111-22.801
			l6.957-24.88l5.982-17.042l9.314-20.111l-2.635-2.931c0,0,5.316-4.12,7.441-5.967c2.127-1.847,16.354-10.662,16.354-10.662
			l10.787-4.013l14.059-2.962l6.291-0.398L156.504,35.196L156.504,35.196z"/>
		<g>
			<defs>
				<polygon id="SVGID_1_" points="55.101,308.451 59.519,299.767 68.437,288.231 83.036,279.55 94.345,273.004 110.504,271.43 
					125.126,273.437 136.661,274.248 131.263,257.438 135.366,243.056 147.011,230.421 162.643,219.604 174.474,217.53 
					185.938,224.122 200.029,237.954 207.629,251.461 210.628,260.423 206.711,269.513 207.354,273.246 221.986,269.893 
					237.303,268.49 255.571,270.352 271.583,276.693 281.53,284.349 290.439,295.733 295.257,305.361 298.724,300.638 
					297.443,286.151 292.569,270.467 286.95,261.418 290.8,244.582 294.647,217.297 295.897,189.073 294.558,164.487 
					290.53,139.618 282.722,113.459 271.739,90.146 258.129,70.392 237.828,51.844 215.77,41.094 193.331,36.72 171.523,44.59 
					148.856,35.257 130.338,44.544 110.551,53.964 100.856,65.923 95.523,87.923 82.856,115.923 79.523,143.257 74.189,165.923 
					68.189,185.923 65.161,206.026 64.856,224.59 61.135,241.892 61.523,260.59 56.301,270.803 54.892,279.951 57.291,292.531 
					55.523,302.59 55.101,308.451 				"/>
			</defs>
			<clipPath id="SVGID_2_">
				<use xlink:href="#SVGID_1_"  style="overflow:visible;"/>
			</clipPath>
			
				<rect x="-3.019" y="-22.326" style="clip-path:url(#SVGID_2_);fill-rule:evenodd;clip-rule:evenodd;fill:#FFFFFF;" width="176.385" height="414.576"/>
		</g>
		<path style="fill-rule:evenodd;clip-rule:evenodd;fill:#F9D740;" d="M66.456,296.57c0,0-13.5-17.5-4.5-32.5s19-28,43.5-34
			s73,2.5,73,2.5l0.5,114.5c0,0-31.5-0.5-53.5-11.5S66.456,296.57,66.456,296.57z"/>
		<path style="fill-rule:evenodd;clip-rule:evenodd;fill:#67559E;" d="M215.456,343.07c9.5-1.5,49.5-1,62-35.5s19.5-44.5,6.5-60.5
			s-25.5-26.5-58-20.5s-49.5,6.5-49.5,6.5l2.5,114L215.456,343.07z"/>
		
			<path style="fill-rule:evenodd;clip-rule:evenodd;fill:none;stroke:#000000;stroke-width:8.5039;stroke-linecap:round;stroke-linejoin:round;stroke-miterlimit:22.9256;" d="
			M173.709,47.559c0.201-2.339,1.278-2.253-2.692,67.969c-1.035,18.301-0.847,85.098-0.847,85.098"/>
		
			<path style="fill:none;stroke:#000000;stroke-width:8.5039;stroke-linecap:round;stroke-linejoin:round;stroke-miterlimit:22.9256;" d="
			M42.786,428.041c0,0,128.184-19.977,248.559,7.961"/>
		
			<path style="fill:none;stroke:#000000;stroke-width:8.5039;stroke-linecap:round;stroke-linejoin:round;stroke-miterlimit:22.9256;" d="
			M261.973,376.291c0,0-0.92,41.194,4.977,53.503"/>
		
			<path style="fill:none;stroke:#000000;stroke-width:8.5039;stroke-linecap:round;stroke-linejoin:round;stroke-miterlimit:22.9256;" d="
			M73.348,385.103c0,0-2.812,24.75-5.438,33.562"/>
		
			<path style="fill:none;stroke:#000000;stroke-width:8.5039;stroke-linecap:round;stroke-linejoin:round;stroke-miterlimit:22.9256;" d="
			M153.63,34.196c34.125,25.125,141.2,57.863,138.825,134.883"/>
		
			<path style="fill:none;stroke:#000000;stroke-width:8.5039;stroke-linecap:round;stroke-linejoin:round;stroke-miterlimit:22.9256;" d="
			M292.456,169.079c-0.853,15.513,2.99,60.869,0.924,147.118"/>
		
			<path style="fill:none;stroke:#000000;stroke-width:8.5039;stroke-linecap:round;stroke-linejoin:round;stroke-miterlimit:22.9256;" d="
			M292.442,464.884c0,0-4.688-91.686,0.938-148.688"/>
		
			<path style="fill:none;stroke:#000000;stroke-width:8.5039;stroke-linecap:round;stroke-linejoin:round;stroke-miterlimit:22.9256;" d="
			M332.754,424.572c0,0-4.875,19.312-37.688,40.875"/>
		
			<path style="fill:none;stroke:#000000;stroke-width:8.5039;stroke-linecap:round;stroke-linejoin:round;stroke-miterlimit:22.9256;" d="
			M304.629,365.508c-0.562,24.75,2.869,70.386,1.34,92.1"/>
		
			<path style="fill:none;stroke:#000000;stroke-width:8.5039;stroke-linecap:round;stroke-linejoin:round;stroke-miterlimit:22.9256;" d="
			M281.659,93.165c0,0,28.719,40.395,18.219,75.895"/>
		
			<path style="fill:none;stroke:#000000;stroke-width:8.5039;stroke-linecap:round;stroke-linejoin:round;stroke-miterlimit:22.9256;" d="
			M147.784,26.04c0,0,20.915-12.481,56.594,8.156"/>
		
			<path style="fill:none;stroke:#000000;stroke-width:8.5039;stroke-linecap:round;stroke-linejoin:round;stroke-miterlimit:22.9256;" d="
			M281.659,93.165c0,0-31.781-41.605-77.281-58.969"/>
		
			<path style="fill:none;stroke:#000000;stroke-width:8.5039;stroke-linecap:round;stroke-linejoin:round;stroke-miterlimit:22.9256;" d="
			M183.716,25.1c0,0,47.265-10.634,95.827,35.867c48.562,46.5,45.803,95.762,49.74,139.824"/>
		
			<path style="fill:none;stroke:#000000;stroke-width:8.5039;stroke-linecap:round;stroke-linejoin:round;stroke-miterlimit:22.9256;" d="
			M332.754,424.572c-6-47.438-2.531-199.03-3.471-223.781"/>
		
			<path style="fill:none;stroke:#000000;stroke-width:8.5039;stroke-linecap:round;stroke-linejoin:round;stroke-miterlimit:22.9256;" d="
			M47.377,424.559c0,0,7.695-34.259,8.006-74.25c0.674-87.067,16.656-235.064,51.379-295.827"/>
		
			<path style="fill:none;stroke:#000000;stroke-width:8.5039;stroke-linecap:round;stroke-linejoin:round;stroke-miterlimit:22.9256;" d="
			M153.63,34.196c0,0-24.503-1.874-56.753,28.501"/>
		
			<path style="fill:none;stroke:#000000;stroke-width:8.5039;stroke-linecap:round;stroke-linejoin:round;stroke-miterlimit:22.9256;" d="
			M96.877,62.697c-7.565,7.972-43.5,45.375-52.125,151.125s-1.5,226.875-0.375,234.375"/>
		
			<path style="fill:none;stroke:#000000;stroke-width:8.5039;stroke-linecap:round;stroke-linejoin:round;stroke-miterlimit:22.9256;" d="
			M4.627,424.197c0,0,15.75,21.375,39.75,24"/>
		
			<path style="fill:none;stroke:#000000;stroke-width:8.5039;stroke-linecap:round;stroke-linejoin:round;stroke-miterlimit:22.9256;" d="
			M14.002,185.322c0,0-12,121.125-9.375,238.875"/>
		
			<path style="fill:none;stroke:#000000;stroke-width:8.5039;stroke-linecap:round;stroke-linejoin:round;stroke-miterlimit:22.9256;" d="
			M83.002,40.197c0,0-65.125,58.862-69,145.125"/>
		
			<path style="fill:none;stroke:#000000;stroke-width:8.5039;stroke-linecap:round;stroke-linejoin:round;stroke-miterlimit:22.9256;" d="
			M147.784,26.04c0,0-27.281-15.843-64.781,14.157"/>
		<g>
			<polygon style="fill-rule:evenodd;clip-rule:evenodd;" points="110.892,221.497 108.265,216.111 106.246,207.336 
				105.188,195.965 105.014,184.089 105.546,170.33 106.502,158.27 108.021,149.561 111.024,144.688 117.597,141.785 
				125.189,144.104 128.426,147.917 129.469,153.917 129.623,162.152 127.198,166.392 118.759,171.851 111.42,175.564 
				111.698,179.013 117.938,183.139 124.861,188.833 129.753,193.785 129.77,201.222 128.518,208.895 126.688,214.812 
				122.976,222.531 119.737,225.516 116.09,226.046 110.892,221.497 			"/>
			<polygon style="fill-rule:evenodd;clip-rule:evenodd;" points="221.902,181.536 221.668,170.836 221.544,160.268 
				222.691,153.209 226.916,148.463 235.773,145.695 242.781,148.143 245.769,157.143 245.054,165.796 236.869,173.306 
				230.243,179.278 230.508,183.731 237.146,189.058 245.009,196.862 247.424,200.902 247.848,207.014 247.396,211.052 
				245.765,215.713 242.684,219.467 239.333,223.133 233.012,221.31 226.292,214.475 222.958,205.168 222.259,192.154 
				221.902,181.536 			"/>
			
				<path style="fill:none;stroke:#000000;stroke-width:8.5039;stroke-linecap:round;stroke-linejoin:round;stroke-miterlimit:22.9256;" d="
				M206.275,94.067c0,0,23.836-5.261,39.675,13.941"/>
			
				<path style="fill:none;stroke:#000000;stroke-width:8.5039;stroke-linecap:round;stroke-linejoin:round;stroke-miterlimit:22.9256;" d="
				M98.967,114.225c0,0,11.689-23.576,32.453-21.809"/>
			
				<path style="fill:none;stroke:#000000;stroke-width:8.5039;stroke-linecap:round;stroke-linejoin:round;stroke-miterlimit:22.9256;" d="
				M126.293,118.725c0,0-2.612,15.514,0.575,27.356"/>
			
				<path style="fill:none;stroke:#000000;stroke-width:8.5039;stroke-linecap:round;stroke-linejoin:round;stroke-miterlimit:22.9256;" d="
				M108.732,118.608c0,0-2.515,10.796,6.203,23.499"/>
			
				<path style="fill:none;stroke:#000000;stroke-width:8.5039;stroke-linecap:round;stroke-linejoin:round;stroke-miterlimit:22.9256;" d="
				M94.334,128.826c0,0-0.74,6.428,15.853,20.146"/>
			
				<path style="fill:none;stroke:#000000;stroke-width:8.5039;stroke-linecap:round;stroke-linejoin:round;stroke-miterlimit:22.9256;" d="
				M129.304,152.462c0.834-11.337-19.996-17.632-22.382,1.843"/>
			
				<path style="fill:none;stroke:#000000;stroke-width:8.5039;stroke-linecap:round;stroke-linejoin:round;stroke-miterlimit:22.9256;" d="
				M111.42,175.564c0,0,16.248-7.452,18.023-11.819"/>
			
				<path style="fill:none;stroke:#000000;stroke-width:8.5039;stroke-linecap:round;stroke-linejoin:round;stroke-miterlimit:22.9256;" d="
				M129.304,152.462c0,0,0.871,6.327,0.139,11.283"/>
			
				<path style="fill:none;stroke:#000000;stroke-width:8.5039;stroke-linecap:round;stroke-linejoin:round;stroke-miterlimit:22.9256;" d="
				M106.922,154.305c0,0-7.14,59.553,6.051,69.36"/>
			
				<path style="fill:none;stroke:#000000;stroke-width:8.5039;stroke-linecap:round;stroke-linejoin:round;stroke-miterlimit:22.9256;" d="
				M129.753,193.785c0,0,2.064,15.067-7.743,30.311"/>
			
				<path style="fill:none;stroke:#000000;stroke-width:8.5039;stroke-linecap:round;stroke-linejoin:round;stroke-miterlimit:22.9256;" d="
				M110.289,178.223c0,0,10.281,5.32,19.464,15.563"/>
			
				<path style="fill:none;stroke:#000000;stroke-width:8.5039;stroke-linecap:round;stroke-linejoin:round;stroke-miterlimit:22.9256;" d="
				M129.055,225.501c0,0-18.774-2.928-35.121,11.092"/>
			
				<path style="fill:none;stroke:#000000;stroke-width:8.5039;stroke-linecap:round;stroke-linejoin:round;stroke-miterlimit:22.9256;" d="
				M214.044,126.853c0,0,6.597,4.996,10.135,17.966"/>
			
				<path style="fill:none;stroke:#000000;stroke-width:8.5039;stroke-linecap:round;stroke-linejoin:round;stroke-miterlimit:22.9256;" d="
				M228.787,117.386c0,0,7.534,11.776,5.089,27.289"/>
			
				<path style="fill:none;stroke:#000000;stroke-width:8.5039;stroke-linecap:round;stroke-linejoin:round;stroke-miterlimit:22.9256;" d="
				M251.578,131.766c0,0-2.166,11.734-9.779,17.132"/>
			
				<path style="fill:none;stroke:#000000;stroke-width:8.5039;stroke-linecap:round;stroke-linejoin:round;stroke-miterlimit:22.9256;" d="
				M219.012,224.538c0,0,23.32-6.198,39.713,5.259"/>
			
				<path style="fill:none;stroke:#000000;stroke-width:8.5039;stroke-linecap:round;stroke-linejoin:round;stroke-miterlimit:22.9256;" d="
				M221.531,157.881c-0.327-10.753,20.763-20.692,24.238-0.739"/>
			
				<path style="fill:none;stroke:#000000;stroke-width:8.5039;stroke-linecap:round;stroke-linejoin:round;stroke-miterlimit:22.9256;" d="
				M246.051,164.876c0,0-15.341,14.194-18.481,16.694"/>
			
				<path style="fill:none;stroke:#000000;stroke-width:8.5039;stroke-linecap:round;stroke-linejoin:round;stroke-miterlimit:22.9256;" d="
				M245.769,157.143c0,0,0.566,4.332,0.282,7.733"/>
			
				<path style="fill:none;stroke:#000000;stroke-width:8.5039;stroke-linecap:round;stroke-linejoin:round;stroke-miterlimit:22.9256;" d="
				M221.531,157.881c0,0,0.046,27.423,1.428,47.286c0.568,8.157,5.042,11.381,10.053,16.142"/>
			
				<path style="fill:none;stroke:#000000;stroke-width:8.5039;stroke-linecap:round;stroke-linejoin:round;stroke-miterlimit:22.9256;" d="
				M227.57,181.57c0,0,17.577,12.382,19.854,19.331"/>
			
				<path style="fill:none;stroke:#000000;stroke-width:8.5039;stroke-linecap:round;stroke-linejoin:round;stroke-miterlimit:22.9256;" d="
				M242.684,219.467c0,0,6.958-4.444,4.74-18.566"/>
		</g>
	</g>
</g>
<g id="n2802">
	<g>
		<path style="fill-rule:evenodd;clip-rule:evenodd;fill:#404041;" d="M130.686,426.711c-1.512-1.778,1.996,7.083,1.996,7.083
			l5.541,6.42l9.604,4.325l15.551,1.187l14.81,1.278l17.104-3.407l11.545-5.618l8.24-8.974l3.053-11.176l9.697,5.462l9.59,7.588
			l9.672,9.83l7.918,9.704l7.922,11.253l7.781,12.622l5.15,9.248l3.326,6.362l-9.121,10.387l-12.508,11.08l-17.723,11.648
			l-15.479,7.372l-20.555,6.505l-18.695,2.816l-21.367-0.653l-15.238-2.247l-19.793-5.4l-12.732-5.5l-12.297-7.38L91.25,508.43
			l-8.379-8.407l3.326-10.709l5.08-13.115l7.498-14.752l8.775-13.346l10.344-12.413L130.686,426.711L130.686,426.711z"/>
		<path style="fill-rule:evenodd;clip-rule:evenodd;fill:#F9D740;" d="M153.561,340.023c0,0,20.932-15.077,39,2.25
			c-0.424,4.209-0.781,8.522-0.781,8.522l-0.641,18.631l-0.131,10.495l0.207,6.897l1.199,12.036l2.195,9.091l3.285,6.339
			l5.418,3.511l4.049-3.223l7.498,1.937l2.412,4.461l-2.195,8.035l-5.391,6.752l-7.992,5.221l-11.695,4.155l-17.615,1.993
			l-11.988-1.628l-12.568-0.959l-12.375-7.535l-4.539-8.02l-0.213-5.328l7.977-6.067l7.621-4.895l6.889-5.296l1.406-11.008
			l0.363-13.103l-0.207-12.925l-0.553-20.098L153.561,340.023L153.561,340.023z"/>
		
			<path style="fill:none;stroke:#000000;stroke-width:8.5039;stroke-linecap:round;stroke-linejoin:round;stroke-miterlimit:22.9256;" d="
			M152.061,409.648c0,0-49.687,21.75-68.25,87.375"/>
		
			<path style="fill:none;stroke:#000000;stroke-width:8.5039;stroke-linecap:round;stroke-linejoin:round;stroke-miterlimit:22.9256;" d="
			M200.248,414.523c0,0,36-8.812,78.938,75.375"/>
		
			<path style="fill:none;stroke:#000000;stroke-width:8.5039;stroke-linecap:round;stroke-linejoin:round;stroke-miterlimit:22.9256;" d="
			M168.373,423.148c0,0,7.312,3.562,12,0.188"/>
		
			<path style="fill:none;stroke:#000000;stroke-width:8.5039;stroke-linecap:round;stroke-linejoin:round;stroke-miterlimit:22.9256;" d="
			M144.193,457.043c26.214,10.147,52.069,2.593,59.993-2.582"/>
		
			<path style="fill:none;stroke:#000000;stroke-width:8.5039;stroke-linecap:round;stroke-linejoin:round;stroke-miterlimit:22.9256;" d="
			M140.436,423.336c0,0,10.1-5.507,13.369-19.161"/>
		
			<path style="fill:none;stroke:#000000;stroke-width:8.5039;stroke-linecap:round;stroke-linejoin:round;stroke-miterlimit:22.9256;" d="
			M153.561,340.023c0,0,3.375,51.813-0.375,67.375"/>
		
			<path style="fill:none;stroke:#000000;stroke-width:8.5039;stroke-linecap:round;stroke-linejoin:round;stroke-miterlimit:22.9256;" d="
			M192.561,342.273c0,0-8.25,77.5,13.125,75.625"/>
		
			<path style="fill:none;stroke:#000000;stroke-width:8.5039;stroke-linecap:round;stroke-linejoin:round;stroke-miterlimit:22.9256;" d="
			M130.686,426.711c1.873,17.25,19.545,20.298,43.5,20.432c13.877,0.077,43.482-6.424,43.125-27.932"/>
		
			<path style="fill:none;stroke:#000000;stroke-width:8.5039;stroke-linecap:round;stroke-linejoin:round;stroke-miterlimit:22.9256;" d="
			M82.871,500.023c16.5,17.626,39.178,36.798,89.988,39.764c34.533,2.017,79.777-15.742,106.326-49.889"/>
	</g>
</g>
<g id="n2803">
	<g>
		<path style="fill-rule:evenodd;clip-rule:evenodd;fill:#E186AE;" d="M159.986,319.63l1.773-24.262l3.276-9.317l6.141-5.953
			l11.694-0.431l7.864,0.398l3.969,3.948c0,0,1.582,6.488,0.649,5.99c-0.934-0.498-4.918,3.325-4.918,3.325l0.976,6.792
			l-0.841,17.108l-8.438,2.681l-9.827,5.163l-6.13-3.373L159.986,319.63L159.986,319.63z"/>
		
			<path style="fill:none;stroke:#000000;stroke-width:8.5039;stroke-linecap:round;stroke-linejoin:round;stroke-miterlimit:22.9256;" d="
			M178.267,293.392c0,0,25.448,0.894,13.998-13.576"/>
		
			<path style="fill:none;stroke:#000000;stroke-width:8.5039;stroke-linecap:round;stroke-linejoin:round;stroke-miterlimit:22.9256;" d="
			M190.434,293.327c0,0,0.979,20.017-0.478,23.919"/>
		
			<path style="fill:none;stroke:#000000;stroke-width:8.5039;stroke-linecap:round;stroke-linejoin:round;stroke-miterlimit:22.9256;" d="
			M159.986,319.63c0,0-6.03-48.649,30.97-40.882"/>
	</g>
</g>
<g id="n2804">
	<g>
		<g>
			<path style="fill-rule:evenodd;clip-rule:evenodd;fill:#4AB57E;" d="M154.795,221.199l-3.482-6.325l1.051-6.594l4.735-7.762
				l5.856-6.243l6.556-5.625l6.819-2.579l7.205,1.021l5.401,2.934l5.715,5.143l4.402,5.322l3.382,5.89l1.338,6.002l-1.106,3.787
				l-4.307,3.352l-5.477,1.33C192.883,220.853,171.035,227.976,154.795,221.199L154.795,221.199z"/>
			
				<path style="fill:none;stroke:#000000;stroke-width:8.5039;stroke-linecap:round;stroke-linejoin:round;stroke-miterlimit:22.9256;" d="
				M154.795,221.199c0,0-14.37-9.521,14.716-32.548"/>
			
				<path style="fill:none;stroke:#000000;stroke-width:8.5039;stroke-linecap:round;stroke-linejoin:round;stroke-miterlimit:22.9256;" d="
				M183.534,187.092c8.483,1.904,34.972,30.644,9.349,33.76"/>
			
				<path style="fill:none;stroke:#000000;stroke-width:8.5039;stroke-linecap:round;stroke-linejoin:round;stroke-miterlimit:22.9256;" d="
				M183.534,187.092c-3.117-1.384-8.657-2.078-14.024,1.558"/>
			
				<path style="fill:none;stroke:#000000;stroke-width:8.5039;stroke-linecap:round;stroke-linejoin:round;stroke-miterlimit:22.9256;" d="
				M187.958,209.408c0,0,1.731,2.251,2.597,2.597"/>
			
				<path style="fill:none;stroke:#000000;stroke-width:8.5039;stroke-linecap:round;stroke-linejoin:round;stroke-miterlimit:22.9256;" d="
				M166.451,211.543c0,0-1.731,3.289-3.116,3.982"/>
		</g>
		<path style="fill-rule:evenodd;clip-rule:evenodd;fill:#E186AE;" d="M297.402,257.161l-3.833-11.053l-7.126-12.38l-11.118-10.963
			l-15.581-7.713l-15.119-2.832l-14.813,0.198l-16.85,2.551l-12.562,2.658l-17.163,3.446l-13.947,1.787l-15.963-0.851l-14.73-3.321
			l-15.204-1.38l-11.633-0.666l-13.418,1.957l-19.682,7.3l-12.686,9.274l-10.412,13.16l-5.632,12.935l-1.861,14.186l1.123,12.767
			l3.822,12.325l6.751,11.816l9.95,10.467l14.443,9.997l13.59,7.223l19.962,8.032l18.62,5.26l18.016,3.323l17.767,1.737
			l19.756-0.013l19.875-2.314l15.485-3.489l13.688-4.591l10.901-4.989l12.205-7.622l9.731-8.578l7.685-9.807l5.794-10.383
			l5.079-11.192l4.509-14.23l1.666-10.597L297.402,257.161z M265.84,291.885c-11,16.333-25.667,37.667-60,38
			c-34.333,0.333-65.667,2-89.333-12.667c-23.667-14.667-43.333-23-39-52.667c0,0,2.667-20,21-21.333
			c18.333-1.333,42.667,6.667,56.667,6s65.333-5.667,81-9.333c15.667-3.667,28.667-2.333,31.667,7.667
			C270.84,257.552,276.84,275.552,265.84,291.885z"/>
		<polygon style="fill-rule:evenodd;clip-rule:evenodd;fill:#FFFFFF;" points="94.964,246.043 96.357,251.48 96.821,257.924 
			100.492,264.647 107.163,269.032 113.067,268.682 121.408,271.813 131.186,270.29 135.129,268.605 144.39,274.426 
			154.653,277.677 165.608,278.136 170.638,274.624 179.802,278.005 191.149,278.607 197.137,276.253 203.929,270.46 
			210.189,272.927 219.288,273.682 225.761,272.071 229.704,268.961 237.002,270.533 244.087,269.092 248.471,265.758 
			252.97,257.409 254.723,248.7 256.246,243.084 246.889,240.466 239.368,240.138 226.254,241.671 213.994,244.113 198.013,246.914 
			180.842,248.439 163.604,248.817 148.583,247.192 136.156,244.139 120.118,241.606 106.841,242.43 94.964,246.043 		"/>
		<polygon style="fill-rule:evenodd;clip-rule:evenodd;fill:#FFFFFF;" points="95.536,305.373 98.712,299.821 104.712,293.006 
			111.708,289.766 118.425,290.677 121.903,292.686 123.415,298.85 130.413,299.136 135.876,302.064 141.366,307.473 
			149.119,304.344 157.859,304.093 165.959,306.481 172.089,309.811 176.96,306.219 185.302,302.701 194.451,302.356 
			200.634,304.197 204.52,306.421 211.484,302.053 218.263,299.177 222.321,293.257 227.783,289.1 235.113,281.251 241.484,278.377 
			250.498,278.72 257.586,282.683 260.866,286.8 265.169,290.963 261.982,297.109 255.882,305.548 247.471,313.595 239.867,318.765 
			229.753,323.639 215.734,327.804 200.047,330.028 187.859,330.499 169.539,329.936 156.427,328.582 143.199,326.099 
			127.81,321.424 111.462,314.473 100.684,308.915 95.536,305.373 		"/>
		
			<path style="fill:none;stroke:#000000;stroke-width:8.5039;stroke-linecap:round;stroke-linejoin:round;stroke-miterlimit:22.9256;" d="
			M96.357,251.48c0,0-1.427,18.247,16.71,17.202"/>
		
			<path style="fill:none;stroke:#000000;stroke-width:8.5039;stroke-linecap:round;stroke-linejoin:round;stroke-miterlimit:22.9256;" d="
			M135.129,268.605c0,0-18.64,10.002-25.461-12.574"/>
		
			<path style="fill:none;stroke:#000000;stroke-width:8.5039;stroke-linecap:round;stroke-linejoin:round;stroke-miterlimit:22.9256;" d="
			M112.119,265.215"/>
		
			<path style="fill:none;stroke:#000000;stroke-width:8.5039;stroke-linecap:round;stroke-linejoin:round;stroke-miterlimit:22.9256;" d="
			M170.821,274.491c0,0-13.951,10.881-35.692-5.887"/>
		
			<path style="fill:none;stroke:#000000;stroke-width:8.5039;stroke-linecap:round;stroke-linejoin:round;stroke-miterlimit:22.9256;" d="
			M203.071,270.032c0,0-7.972,16.768-32.25,4.46"/>
		
			<path style="fill:none;stroke:#000000;stroke-width:8.5039;stroke-linecap:round;stroke-linejoin:round;stroke-miterlimit:22.9256;" d="
			M237.978,253.452c-0.544,6.6-3.175,12.465-14.712,18.836c-4.735,2.614-11.376,2.236-20.196-2.257"/>
		
			<path style="fill:none;stroke:#000000;stroke-width:8.5039;stroke-linecap:round;stroke-linejoin:round;stroke-miterlimit:22.9256;" d="
			M232.738,265.382c0,0,20.79,9.99,23.508-22.298"/>
		
			<path style="fill:none;stroke:#000000;stroke-width:8.5039;stroke-linecap:round;stroke-linejoin:round;stroke-miterlimit:22.9256;" d="
			M135.31,312.665c0,0,13.588-17.838,36.779-2.854"/>
		
			<path style="fill:none;stroke:#000000;stroke-width:8.5039;stroke-linecap:round;stroke-linejoin:round;stroke-miterlimit:22.9256;" d="
			M206.675,309.811c0,0-17.012-15.162-34.586,0"/>
		
			<path style="fill:none;stroke:#000000;stroke-width:8.5039;stroke-linecap:round;stroke-linejoin:round;stroke-miterlimit:22.9256;" d="
			M239.85,306.065c0,0-19.646-17.863-33.174,3.746"/>
		
			<path style="fill:none;stroke:#000000;stroke-width:8.5039;stroke-linecap:round;stroke-linejoin:round;stroke-miterlimit:22.9256;" d="
			M249.633,294.648c0,0-12.972-16.794-26.544,4.482"/>
		
			<path style="fill:none;stroke:#000000;stroke-width:8.5039;stroke-linecap:round;stroke-linejoin:round;stroke-miterlimit:22.9256;" d="
			M260.866,286.8c-4.167-8.206-19.02-15.146-30.991,4.531"/>
		
			<path style="fill:none;stroke:#000000;stroke-width:8.5039;stroke-linecap:round;stroke-linejoin:round;stroke-miterlimit:22.9256;" d="
			M98.712,299.821c0,0,12.301-17.328,24.703-0.972"/>
		
			<path style="fill:none;stroke:#000000;stroke-width:8.5039;stroke-linecap:round;stroke-linejoin:round;stroke-miterlimit:22.9256;" d="
			M116.328,305.923c0,0,11.648-19.665,28.056,0.333"/>
		
			<path style="fill:none;stroke:#000000;stroke-width:8.5039;stroke-linecap:round;stroke-linejoin:round;stroke-miterlimit:22.9256;" d="
			M49.168,264.375c0,0,8.515-50.304,75.914-47.985"/>
		
			<path style="fill:none;stroke:#000000;stroke-width:8.5039;stroke-linecap:round;stroke-linejoin:round;stroke-miterlimit:22.9256;" d="
			M222.736,213.357c4.333-0.483,60.876-12.665,75.189,45.844"/>
		
			<path style="fill:none;stroke:#000000;stroke-width:8.5039;stroke-linecap:round;stroke-linejoin:round;stroke-miterlimit:22.9256;" d="
			M125.081,216.389c16.306,0.892,17.612,6.593,44.209,6.471c15.37-0.07,30.659-6.307,53.446-9.503"/>
		
			<path style="fill:none;stroke:#000000;stroke-width:8.5039;stroke-linecap:round;stroke-linejoin:round;stroke-miterlimit:22.9256;" d="
			M67.104,320.565c0,0-24.459-20.157-17.937-56.19"/>
		
			<path style="fill:none;stroke:#000000;stroke-width:8.5039;stroke-linecap:round;stroke-linejoin:round;stroke-miterlimit:22.9256;" d="
			M297.925,259.201c0,0,5.979,20.692-16.487,57.796"/>
		
			<path style="fill:none;stroke:#000000;stroke-width:8.5039;stroke-linecap:round;stroke-linejoin:round;stroke-miterlimit:22.9256;" d="
			M67.104,320.565c11.052,10.167,48.331,35.279,107.614,37.969c34.318,1.558,85.535-8.222,106.719-41.537"/>
		
			<path style="fill:none;stroke:#000000;stroke-width:8.5039;stroke-linecap:round;stroke-linejoin:round;stroke-miterlimit:22.9256;" d="
			M124.99,241.987c21.741,3.389,22.053,7.52,47.667,6.783c28.277-0.813,37.689-4.235,50.35-6.426"/>
		
			<path style="fill:none;stroke:#000000;stroke-width:8.5039;stroke-linecap:round;stroke-linejoin:round;stroke-miterlimit:22.9256;" d="
			M269.752,256.257c0,0,0.681-26.565-46.744-13.914"/>
		
			<path style="fill:none;stroke:#000000;stroke-width:8.5039;stroke-linecap:round;stroke-linejoin:round;stroke-miterlimit:22.9256;" d="
			M124.99,241.987c0,0-44.57-6.422-47.469,30.503"/>
		
			<path style="fill:none;stroke:#000000;stroke-width:8.5039;stroke-linecap:round;stroke-linejoin:round;stroke-miterlimit:22.9256;" d="
			M77.522,272.49c0,0-2.718,23.011,28.083,39.244"/>
		
			<path style="fill:none;stroke:#000000;stroke-width:8.5039;stroke-linecap:round;stroke-linejoin:round;stroke-miterlimit:22.9256;" d="
			M269.752,256.257c0,0,6.522,31.217-19.024,54.585"/>
		
			<path style="fill:none;stroke:#000000;stroke-width:8.5039;stroke-linecap:round;stroke-linejoin:round;stroke-miterlimit:22.9256;" d="
			M105.604,311.734c21.806,10.215,39.457,18.873,82.255,18.765c21.66-0.054,45.447-3.9,62.869-19.657"/>
	</g>
</g>
<g id="n2805">
	<g>
		<path style="fill-rule:evenodd;clip-rule:evenodd;fill:#67559E;" d="M24.294,19.588l10.474-4.795l11.297-3.745l16.997-3.856
			l22.7-2.579l26.11,0.008l25.527,2.648l20.582,3.766l15.476,1.887l16.471-2.579l18.192-3.037l21.859-2.147l22.008-0.406
			l25.093,2.258l21.797,5.352l16.664,7.543l1.11,7.466l-0.207,7.626l-10.111,2.687l-3.451,8.512l-6.156,11.789l-7.491,10.891
			l-10.397,10.628l-11.345,6.949l-14.219,3.145l-10.508-0.85l-16.474-5.22l-11.528-6.766l-9.683-8.362l-9.961-11.969l-7.14-13.499
			l-5.33-14.098l-6.09-3.576l-9.175-0.45l-9.923,4.659l-1.239,6.49l-3.258,8.368l-5.964,10.399l-6.511,8.552l-8.133,8.301
			l-11.895,8.744l-13.402,6.006l-13.91,2.487L81.48,88.149l-11.42-3.469l-11.41-7.328l-8.122-8.635l-6.963-10.834L38.606,47.23
			l-3.478-9.705L24.294,34.68v-7.546V19.588L24.294,19.588z M205.343,20.392l10.36-2.793l12.837-1.804l17.686-0.77l16.213,1.387
			l14.404,3.615l9.094,5.366l3.679,7.483l0.049,8.366l-3.389,9.254l-6.417,8.893l-8.155,7.728l-10.941,6.639l-12.34,2.123
			l-9.895-1.81l-13.489-7.192l-9.28-9.009l-6.299-9.04l-5.039-10.563l-2.562-8.465l0.275-5.478L205.343,20.392L205.343,20.392z
			 M54.77,25.42l5.125-3.187l8.457-3.082l10.044-2.399l13.313-1.629l11.159-0.246l16.039,1.178l13.164,2.17l6.636,4.059l0.32,7.488
			l-1.657,7.225l-2.759,7.049l-4.471,7.674l-4.862,6.078l-7.01,6.547l-7.026,4.836l-8.234,3.964l-11.914,2.581l-11.135-2.037
			l-11.12-6.993l-7.37-7.668l-5.625-7.99l-4.162-9.55l-0.308-8.544L54.77,25.42L54.77,25.42z"/>
		
			<path style="fill:none;stroke:#000000;stroke-width:8.5039;stroke-linecap:round;stroke-linejoin:round;stroke-miterlimit:22.9256;" d="
			M24.294,19.588c0,0,45.863-27.655,132.713-8.692"/>
		
			<path style="fill:none;stroke:#000000;stroke-width:8.5039;stroke-linecap:round;stroke-linejoin:round;stroke-miterlimit:22.9256;" d="
			M185.897,11.213c0,0,81.433-19.438,129.643,8.692"/>
		
			<path style="fill:none;stroke:#000000;stroke-width:8.5039;stroke-linecap:round;stroke-linejoin:round;stroke-miterlimit:22.9256;" d="
			M157.007,10.897c3.365,0.266,12.916,4.242,28.89,0.316"/>
		
			<line style="fill:none;stroke:#000000;stroke-width:8.5039;stroke-linecap:round;stroke-linejoin:round;stroke-miterlimit:22.9256;" x1="24.294" y1="34.68" x2="24.294" y2="19.588"/>
		
			<path style="fill:none;stroke:#000000;stroke-width:8.5039;stroke-linecap:round;stroke-linejoin:round;stroke-miterlimit:22.9256;" d="
			M316.443,34.996c0,0,0.858-14.094-0.903-15.092"/>
		
			<path style="fill:none;stroke:#000000;stroke-width:8.5039;stroke-linecap:round;stroke-linejoin:round;stroke-miterlimit:22.9256;" d="
			M24.294,34.68c0,0,7.764,1.58,10.834,2.845"/>
		
			<path style="fill:none;stroke:#000000;stroke-width:8.5039;stroke-linecap:round;stroke-linejoin:round;stroke-miterlimit:22.9256;" d="
			M306.332,37.683c0,0,7.945-2.687,10.111-2.687"/>
		
			<path style="fill:none;stroke:#000000;stroke-width:8.5039;stroke-linecap:round;stroke-linejoin:round;stroke-miterlimit:22.9256;" d="
			M157.459,29.465c0,0,13.271-10.983,25.188-0.632"/>
		
			<path style="fill:none;stroke:#000000;stroke-width:8.5039;stroke-linecap:round;stroke-linejoin:round;stroke-miterlimit:22.9256;" d="
			M306.332,37.683c0,0-17.358,52.295-54.528,51.928c-19.375-0.192-54.172-12.265-69.157-60.777"/>
		
			<path style="fill:none;stroke:#000000;stroke-width:8.5039;stroke-linecap:round;stroke-linejoin:round;stroke-miterlimit:22.9256;" d="
			M157.459,29.465c-1.083,17.541-27.573,59.101-66.593,59.414c-22.774,0.183-43.5-12.901-55.738-51.354"/>
		
			<path style="fill:none;stroke:#000000;stroke-width:8.5039;stroke-linecap:round;stroke-linejoin:round;stroke-miterlimit:22.9256;" d="
			M55.892,24.251c0,0,26.723-16.751,78.545-5.531"/>
		
			<path style="fill:none;stroke:#000000;stroke-width:8.5039;stroke-linecap:round;stroke-linejoin:round;stroke-miterlimit:22.9256;" d="
			M52.462,44.321c0,0-4.696-12.484,3.43-20.07"/>
		
			<path style="fill:none;stroke:#000000;stroke-width:8.5039;stroke-linecap:round;stroke-linejoin:round;stroke-miterlimit:22.9256;" d="
			M139.312,27.57c0,0,1.264-7.269-4.875-8.85"/>
		
			<path style="fill:none;stroke:#000000;stroke-width:8.5039;stroke-linecap:round;stroke-linejoin:round;stroke-miterlimit:22.9256;" d="
			M52.462,44.321c2.167,6.321,17.472,32.153,38.631,31.403c18.273-0.649,45.154-19.587,48.219-48.154"/>
		
			<path style="fill:none;stroke:#000000;stroke-width:8.5039;stroke-linecap:round;stroke-linejoin:round;stroke-miterlimit:22.9256;" d="
			M209.551,18.878c0,0,39.543-9.956,69.697,2.054"/>
		
			<path style="fill:none;stroke:#000000;stroke-width:8.5039;stroke-linecap:round;stroke-linejoin:round;stroke-miterlimit:22.9256;" d="
			M201.425,27.728c0,0-0.181-7.585,8.125-8.85"/>
		
			<path style="fill:none;stroke:#000000;stroke-width:8.5039;stroke-linecap:round;stroke-linejoin:round;stroke-miterlimit:22.9256;" d="
			M279.247,20.932c0,0,13.903,3.951,10.111,21.966"/>
		
			<path style="fill:none;stroke:#000000;stroke-width:8.5039;stroke-linecap:round;stroke-linejoin:round;stroke-miterlimit:22.9256;" d="
			M201.425,27.728c4.333,22.914,24.081,49.467,50.775,48.148c14.799-0.73,34.105-19.555,37.158-32.977"/>
	</g>
</g>
</svg>
