<svg xmlns="http://www.w3.org/2000/svg" viewBox="0 0 415.808 586.933"><g id="n2901"><g><g><path fill-rule="evenodd" clip-rule="evenodd" fill="#f8d63e" d="M144.675 546.977l-2.762-13.228-2.491-18.951-1.724-28.354-.232-19.169.85-32.943.902-30.78.414-30.392.159-28.13.013-23.629-.093-26.626-.183-25.125-.431-42.739 2.199-58.838 4.077-43.652 6.245-38.723 13.24-18.106 18.894-13.812 15.949-10.598 18.493-7.773 11.006-2.566-3.844-6.959-14.252-.604-19.338 1.331-19.847 5.203-16.237 9.286-11.5 12.016-10.089 19.415-5.25 17.385-5.426 19.056-4.845 19.821-5 24.229-4.412 26.799-3.354 27.476-2.24 28.526-.749 18.411-.073 22.176.111 24.356-1.726 24.07-2.474 24.574-3.199 27.939-2.439 20.76-3.415 28.903-1.478 27.894 1.776 25.763 5.481 19.422 8.252 14.961 10.419 12.906 12.603 11.047 18.02 7.972z"/><path fill-rule="evenodd" clip-rule="evenodd" fill="#f8d63e" d="M233.273 32.263l-7.917-6.379 9.951-6.681 18.067-7.132 18.407-4.586 22.574-1.862 18.508 2.012 19.152 6.209 15.756 9.122 12.264 10.385 13.217 20.59 7.845 17.963 7.871 21.711 7.362 23.637 6.705 27.471 3.402 24.101 2.672 31.454 1.564 32.998.692 29.622.178 35.632-.459 39.713-1.043 39.803-1.373 34.784-1.52 30.39-1.385 30.794-1.004 25.519-.777 23.292-.486 19.446-7.573-.845-3.222-10.699-4.465-20.387-3.336-22.606-2.324-23.152-1.979-29.948-1.236-29.638-1.01-39.725-.476-28.491-.506-37.888-.883-41.525-1.787-24.879-3.635-36.36-5.82-40.102-5.612-26.724-7.759-24.623-11.719-20.664-12.248-15.994-13.445-13.738-25.69-17.218-16.277-5.834-23.184.612-16.037.42z"/><path fill-rule="evenodd" clip-rule="evenodd" fill="#e186ae" d="M382.677 216.828l5.332-5.823 3.879-14.55 2.045-16.08-1.816-13.54-5.994-8.376-8.692.616.985 11.88 1.412 15.345 1.549 16.53 1.3 13.998z"/><path d="M139.238 240.791l.332 33.739.18 31.495.051 34.877-.168 32.258-.644 40.855-1.445 45.028.677 35.992 1.633 23.908 26.145-14.422 35.516-10.876 38.406-5.408 43.183-.668 37.627 3.021 18.492 2.522 10.506 3.419 14.321 3.848 11.483 3.469 7.561 2.604 4.754 1.679-3.705-27.037-3.195-41.19-1.586-34.909-1.109-45.698-.611-39.41-.551-34.115-.518-24.371-1.268-21.313-2.422-25.78c-.001.001-67.653 68.844-233.645 26.483z" fill-rule="evenodd" clip-rule="evenodd" fill="#68569d"/><path d="M174.305 60.686l17.421-12.205 20.513-11.058 23.23-5.218 26.312 1.314 17.008 5.033 20.359 10.115 15.918 10.982 12.84 8.37 12.248 15.994 10.354 17.475 6.662 19.999 7.537 31.566 3.447 23.021 3.285 23.806 1.248 10.939 4.444 61.545s-101.201 65.64-239.333 12c-.141-13.88 1.389-63.83 1.389-63.83l1.01-23.043.808-21.63 1.227-20.514 2.816-27.451 2.399-18.618 7.039-22.04 10.502-15.076 9.317-11.476z" fill-rule="evenodd" clip-rule="evenodd" fill="#fff"/><path d="M219.717 23.71s68.667-50.47 141.821 11.155m38.251 94.875s-11.941-73.167-38.25-94.875m42.093 534.281c-1.312-14.062 1.818-94.663 4.5-145.5s9.188-227.436-8.344-293.905m-17.064 27.184s26.873.091 5.123 59.903m-5.123-45.652s-.584 8.212-1.74 11.668m-3.791-28.45c0 10.875 18.428 117.513 16.74 135.513M313.717 32.205s62.538 36.126 63.476 122.188M228.036 30.362c13.5-.562 69.749-17.625 119.436 65.062m29.438 169.689s-5.812-127.688-29.438-169.689m49.125 447.938c-18.562-52.125-17.812-150.376-19.688-278.25m-16.687 121.313s.75 74.438 7.125 98.625M154.535 377.425s.375 65.438-.188 85.125m-12.375 55.312s97.079-63.464 245.875-9.73M228.036 30.362s-44.318 16.878-75.828 61.467m6.358-32.498s-18.375 46.876-19.5 170.626m14.625 338.625s-20.624-19.875-15.375-134.25m.75-204.375c1.201 84 .946 166.098-.75 204.375m-12-335.626c7.688-22.875 22.068-84.133 93.401-74.996M103.066 285.269s-5.477-85.304 23.324-187.214" fill="none" stroke="#000" stroke-width="8.504" stroke-linecap="round" stroke-linejoin="round" stroke-miterlimit="22.926"/><path d="M145.372 549.608s-33.321-11.822-49.991-49.517c-8.229-18.607-9.823-48.211-2.909-97.166m10.594-117.656c.938 26.25-7.121 86.454-10.595 117.656m31.125-79.127c1.124 37.501-8.625 178.126.375 197.626" fill="none" stroke="#000" stroke-width="8.504" stroke-linecap="round" stroke-linejoin="round" stroke-miterlimit="22.926"/></g><g><path fill-rule="evenodd" clip-rule="evenodd" d="M175.922 154.429l1.237-13.157 3.227-9.829 7.399-3.919 9.015 2.875 2.436 5.348.08 6.671-1.406 6.399-8.141 5.581-6.157 5.102-.72 4.227 5.128 6.488 4.998 5.959 6.22 7.1-.151 6.959-2.183 9.438-4.023 6.029-6.021 3.697-6.816-.218-2.246-5.937-1.593-12.568-.788-14.122.069-13.494.436-8.629zm129.613-14.165l3.598-7.516 5.455-3.121 6.892 1.2 5.752 4.664.173 11.017-.011 5.546-6.814 5.43-6.086 5.955-2.795 5.244 5.074 3.125 5.47 4.332 6.275 6.852-.165 7.835-1.337 7.672-3.924 5.951-6.561 3.645-6.041-2.575-3.772-8.487-1.382-12.277-.392-8.203-.376-16.501.065-9.001.902-10.787z"/><path d="M286.921 89.571c5.062-1.126 15.272-31.396 50.566 12.619m-169.566-4.619c3.101-.586 22.604-40.053 49.5-9m-63.183 52.702s31.501 2.438 20.625-25.499m19.5-8.064s3.562 13.688-12.75 21m29.437-19.687s5.438 10.876-14.25 21.376m-30.937 83.062s10.688-5.25 12.562-6.938m0 14.625s2.25-6.749 4.688-11.811m7.687-1.689s4.5 1.312 4.876 11.062m3.749-81.749c-.938-10.5-19.125-15.188-21.938 1.688m.938 67.875s-6.236-27.27-.938-67.875m21.188 9.186s.938-4.874.75-10.874m-18.562 23.999s12.938-6.374 17.812-13.125m.563 35.439s-11.873-13.147-18.375-22.313m18.453 24.871c-.296 4.621 3.784 21.729-16.709 24.585m115.068-102.332s-6.374 14.813 12.188 26.438m21.188-17.249s-20.25 17.812 21.563 28.312m-39.751-33.937s-4.874 10.874 5.813 18.937m-19.22 83.531s7.875-7.312 9.562-10.5m8.251 6.187s-3.75 9.188-3.188 11.062m11.062-16.124s7.5 10.313 8.25 13.501m-4.875-35.251c-2.826-4.146-9.562-10.499-17.062-14.438m15.938-16.5s-14.813 10.688-15.938 16.5m15.375-27.562s.939 5.486.563 11.062m-22.313-7.5c-1.125 6-.25 40.069.938 48m20.812-51.562c-.538-15.467-21.29-16.492-21.75 3.562" fill="none" stroke="#000" stroke-width="8.504" stroke-linecap="round" stroke-linejoin="round" stroke-miterlimit="22.926"/><path d="M328.518 182.992c-.448 4.711.503 11.132-1.502 15.508-5.768 12.586-18.823 14.977-20.998-5.945" fill="none" stroke="#000" stroke-width="8.504" stroke-linecap="round" stroke-linejoin="round" stroke-miterlimit="22.926"/></g><path d="M150.981 311.665s-13.5-17.5-4.5-32.5 19-28 43.5-34 73 2.5 73 2.5l.5 114.5s-31.5-.5-53.5-11.5-59-39-59-39z" fill-rule="evenodd" clip-rule="evenodd" fill="#67559e"/><path d="M299.981 358.165c9.5-1.5 49.5-1 62-35.5s19.5-44.5 6.5-60.5-25.5-26.5-58-20.5-49.5 6.5-49.5 6.5l2.5 114 36.5-4z" fill-rule="evenodd" clip-rule="evenodd" fill="#4ab57e"/></g></g><g id="n2902"><g><path fill-rule="evenodd" clip-rule="evenodd" fill="#81cece" d="M213.336 459.03l10.134 9.568 11.616 8.245 24-18.75 25.875 18 9.838-7.789 11.162-12.461 11.108 16.308 9.914 17.141 8.045 16.083 6.008 13.79 4.916 12.941 4.128 16.295-8.449 6.195-11.75 7.578-14.103 6.433-12.446 6.176-20.884 5.602-17.84 2.056-17.131.006-18.136-3.527-14.926-2.838-16.587-7.548-12.8-8.953-10.073-10.423-7.181-13.815 4.234-10.074 6.268-13.505 7.225-13.976 8.571-14.521 10.226-14.38 9.038-9.857z"/><path fill-rule="evenodd" clip-rule="evenodd" fill="#fff" d="M236.211 423.968l-1.062 8.565-1.012 4.957 6.792 8.008 8.1 4.797 7.985 3.524.986 4.87-11.191 8.409-7.722 6.364-4.772 2.833-10.845-7.697-6.971-6.581-5.653-6.771 6.267-13.609 6.315-8.723 3.513-5.203 9.27-3.743zm45.01.967l7.211.384 5.77 3.801 5.339 7.241 4.586 7.497 4.084 7.11-4.843 7.771-5.219 6.228-6 5.435-6.35 5.145-8.4-5.453-7.643-5.645-10.67-6.356-.123-4.282 8.705-1.385 8.991-4.385 6.884-5.953 2.991-3.414-3.83-7.632-1.483-6.107z"/><path d="M237.336 371.468s25.059-14.326 40.688 2.812c-.594 5.734-.803 9.635-.803 9.635l.072 12.024.959 11.623 1.594 10.607 2.117 9.819 4.57 10.686-5.713 6.071-8.656 5.488-7.875 3.02-8.45.48-9.592-4.049-8.335-7.172-3.775-5.022 1.543-9.24 1.94-11.358.617-12.673.025-10.936-.342-11.636-.584-10.179z" fill-rule="evenodd" clip-rule="evenodd" fill="#f8d63e"/><path d="M167.774 535.343s20.625-53.062 45.562-76.312m92.625-3.188s29.25 37.312 45 91.875m-91.687-77.25s3.375 82.875 0 110.625" fill="none" stroke="#000" stroke-width="8.504" stroke-linecap="round" stroke-linejoin="round" stroke-miterlimit="22.926"/><path d="M167.774 535.343c2.625 13.688 30.464 48.536 91.127 47.307 25.398-.515 55.342-6.379 92.061-34.932M233.774 436.53c.75 3.564 13.409 17.086 23.24 17.288 9.83.201 20.635-3.037 31.322-17.476m-53.25 40.501s19.5-16.688 24-18.75m25.875 18s-18.375-15.188-25.875-18m22.135-33.158c9.75.562 10.49-3.217 26.99 26.033m-72-27c-9.025.438-9.817 4.735-13.469 9.962-3.285 4.703-6.174 9.166-14.094 16.852m76.313 25.311s15.188-9.375 23.25-25.125m-99.562-.187s2.625 11.062 26.438 26.061m42.937-102.562s-4.668 28.388 7.322 65.851m-48.01-68.663s3.75 48-3.562 65.062" fill="none" stroke="#000" stroke-width="8.504" stroke-linecap="round" stroke-linejoin="round" stroke-miterlimit="22.926"/></g></g><g id="n2903"><g><path d="M243.511 342.186l1.773-23.948 3.276-9.197 6.141-5.876 11.694-.426 7.864.393 3.969 3.896s1.582 6.404.649 5.913c-.934-.491-4.918 3.282-4.918 3.282l.976 6.704-.841 16.886-8.438 2.646-9.827 5.096-6.13-3.33-6.188-2.039z" fill-rule="evenodd" clip-rule="evenodd" fill="#e186ae"/><path d="M261.792 316.288s25.448.883 13.998-13.4m-1.831 13.336s.979 19.758-.478 23.609m-29.97 2.353s-6.03-48.02 30.97-40.353" fill="none" stroke="#000" stroke-width="8.504" stroke-linecap="round" stroke-linejoin="round" stroke-miterlimit="22.926"/></g></g><g id="n2904"><g><g><path d="M233.224 234.846l-3.524-6.608 1.063-6.89 4.792-8.11 5.926-6.523 6.635-5.877 6.9-2.695 7.291 1.067 5.466 3.066 5.784 5.374 4.455 5.561 3.423 6.154 1.354 6.271-1.119 3.957-4.358 3.502-5.543 1.39s-22.11 7.443-38.545.361z" fill-rule="evenodd" clip-rule="evenodd" fill="#f9d740"/><path d="M233.224 234.846s-14.542-9.948 14.892-34.009m14.192-1.628c8.585 1.99 35.391 32.019 9.461 35.275m-9.461-35.275c-3.154-1.446-8.76-2.171-14.191 1.628m16.643 25.869s1.752 2.352 2.628 2.713m-25.404-3.618s-1.752 3.437-3.154 4.161" fill="none" stroke="#000" stroke-width="8.504" stroke-linecap="round" stroke-linejoin="round" stroke-miterlimit="22.926"/></g><path d="M382.936 276.253l-3.879-11.549-7.212-12.935-11.251-11.455-15.768-8.059-15.3-2.959-14.991.207-17.051 2.666-12.712 2.777-17.368 3.6-14.114 1.867-16.154-.889-14.906-3.47-15.386-1.442-11.772-.696-13.579 2.044-19.918 7.627-12.838 9.69-10.537 13.751-5.699 13.515-1.883 14.822 1.136 13.34 3.867 12.878 6.832 12.346 10.069 10.937 14.616 10.445 13.753 7.547 20.201 8.392 18.843 5.496 18.232 3.472 17.979 1.815 19.992-.014 20.113-2.418 15.67-3.645 13.852-4.797 11.031-5.213 12.351-7.964 9.847-8.963 7.777-10.247 5.863-10.849 5.139-11.694 4.563-14.868 1.686-11.072-1.094-14.036zm-31.94 36.282c-11.132 17.066-25.974 39.357-60.718 39.705-34.744.348-66.453 2.09-90.403-13.235-23.95-15.325-43.852-24.032-39.467-55.03 0 0 2.699-20.897 21.251-22.291 18.553-1.393 43.177 6.966 57.345 6.269 14.168-.697 66.116-5.921 81.97-9.752 15.854-3.831 29.01-2.438 32.046 8.011 3.036 10.449 9.107 29.257-2.024 46.323z" fill-rule="evenodd" clip-rule="evenodd" fill="#e186ae"/><path fill-rule="evenodd" clip-rule="evenodd" fill="#fff" d="M178.074 263.79l1.41 4.901.47 5.809 3.714 6.061 6.752 3.953 5.974-.316 8.441 2.823 9.895-1.373 3.99-1.519 9.372 5.248 10.386 2.93 11.086.414 5.09-3.166 9.274 3.048 11.482.543 6.061-2.123 6.873-5.222 6.335 2.224 9.208.681 6.551-1.452 3.989-2.804 7.386 1.417 7.169-1.299 4.437-3.006 4.553-7.526 1.774-7.851 1.542-5.063-9.47-2.36-7.61-.296-13.272 1.382-12.407 2.201-16.172 2.525-17.376 1.376-17.445.341-15.201-1.465-12.576-2.753-16.23-2.283-13.436.743-12.019 3.257z"/><path fill-rule="evenodd" clip-rule="evenodd" fill="#61f4e5" d="M178.653 329.315l3.214-5.208 6.072-6.392 7.08-3.039 6.797.855 3.52 1.884 1.53 5.781 7.081.268 5.529 2.747 5.556 5.073 7.846-2.934 8.844-.236 8.198 2.24 6.203 3.123 4.929-3.369 8.442-3.299 9.259-.324 6.256 1.727 3.933 2.086 7.047-4.097 6.861-2.698 4.106-5.553 5.527-3.899 7.418-7.362 6.447-2.696 9.122.323 7.173 3.716 3.32 3.862 4.354 3.904-3.225 5.766-6.173 7.915-8.512 7.547-7.695 4.85-10.235 4.571-14.187 3.907-15.875 2.086-12.333.442-18.539-.528-13.27-1.271-13.386-2.328-15.573-4.385-16.544-6.52-10.907-5.213-5.21-3.322z"/><path d="M179.484 268.691s-1.444 16.449 16.91 15.507m22.326-.069s-18.863 9.017-25.766-11.335m61.885 16.641s-14.118 9.809-36.119-5.307m68.755 1.287s-8.067 15.116-32.636 4.02m67.962-18.966c-.55 5.95-3.213 11.237-14.888 16.98-4.792 2.357-11.513 2.016-20.437-2.034m30.022-4.192s21.039 9.006 23.789-20.101m-122.384 75.032s13.751-16.731 37.219-2.677m35.001 0s-17.216-14.222-35 0m68.572-3.514s-19.882-16.755-33.572 3.514m43.472-14.222s-13.127-15.752-26.861 4.204m38.229-11.565c-4.217-7.696-19.248-14.206-31.362 4.25m-132.734 7.963s12.449-16.253 24.998-.912m-7.171 6.635s11.788-18.445 28.392.312M131.73 283.79s8.617-52.562 76.822-50.139m98.824-3.168c4.385-.505 61.605-13.233 76.089 47.901m-174.913-44.732c16.501.932 17.823 6.888 44.739 6.761 15.554-.073 31.026-6.589 54.085-9.93M149.881 342.502s-24.752-21.061-18.151-58.711m251.735-5.407s6.05 21.621-16.685 60.39m-216.899 3.728c11.184 10.623 48.91 36.861 108.902 39.673 34.729 1.628 86.559-8.591 107.997-43.4m-158.32-78.377c22.002 3.541 22.317 7.857 48.237 7.087 28.616-.849 38.14-4.425 50.953-6.715m47.304 14.539s.689-27.757-47.304-14.538m-99.19-.373s-45.103-6.71-48.037 31.872m0 0s-2.75 24.044 28.419 41.005m166.112-57.966s6.6 32.617-19.251 57.034" fill="none" stroke="#000" stroke-width="8.504" stroke-linecap="round" stroke-linejoin="round" stroke-miterlimit="22.926"/><path d="M188.842 333.275c22.067 10.673 39.93 19.72 83.24 19.607 21.92-.056 45.991-4.075 63.621-20.539" fill="none" stroke="#000" stroke-width="8.504" stroke-linecap="round" stroke-linejoin="round" stroke-miterlimit="22.926"/></g></g><g id="n2905"><g><path fill-rule="evenodd" clip-rule="evenodd" fill="#fff" d="M21.846 455.316l-3.631-8.796-4.248-13.418-1.352-11.927 3.102-7.416 5.226-2.093 8.152 5 2.78 6.794 2.354 8.513 1.928 8.618 5.53 11.988 3.732-3.732L47 443.225l2.115-10.762 1.552-10.674 1.63-8.318 4.833-5.85 7.835.109 4.087 5.301.317 7.208-.487 9.279-2.001 12.547-2.59 11.542-2.071 10.09-2.011 8.039-6.872-6.627-8.157-.498-4.475 3.71-3.019-1.898-3.467-6.996-7.21-4.083-5.163-.028z"/><path d="M14.587 457.117l7.259-1.801 8.056 1.101 4.317 3.01 3.196 5.373 4.728 1.598 6.378-2.236 7.158 2.252s3.619 5.236 4.53 5.321c.911.086 5.296 8.949 5.296 8.949l5.972 11.066.939 10.522-2.629 7.488-6.146 6.817-10.92 5.869-.089 8.953-.063 9.947-.008 9.172.138 9.64-.779 7.418-5.163 5.496-7.964 1.525-8.538-1.596-5.042-5.538.026-10.893-.641-13.526-1.167-11.228-2.44-10.425-4.493-6.904-8.613-12.528-3.504-13.472-2.089-11.637 2.33-9.874 3.572-5.41 6.393-4.449z" fill-rule="evenodd" clip-rule="evenodd" fill="#fff"/><path d="M14.714 466.648c.155 4.353 13.37 19.433 21.299 7.151m-10.416-18.655c3.576 0 16.79 6.062 10.416 18.656m-33.736 5.441s-1.71-24.253 23.32-24.097m-11.971 55.967s-10.417-11.505-11.35-31.87m21.377 54.49c-1.064-8.988-1.088-12.593-10.027-22.62m11.738 50.448s-.314-18.938-1.71-27.828m29.067-11.283s-.462 38.023.16 39.889m-2.954-39.022s32.959-7.929 19.433-37.156m-13.68-19.744c-2.643-2.487-18.375-6.755-16.169 11.971m27.673 5.441s-8.131-15.759-11.504-17.412m-33.834-11.099s-10.319-22.326-9.23-34.141m16.479-4.509c6.995 13.992 6.219 31.559 12.593 35.912m3.731-3.731c2.798-8.084 5.13-25.03 5.752-31.56m18.034-2.642c.155-8.551-14.77-13.526-18.034 2.642m9.847 55.704c1.631-20.096 9.587-35.026 8.187-58.345m-40.11 2.02c-3.109-7.151-15.702-7.463-16.479 4.508" fill="none" stroke="#000" stroke-width="8.504" stroke-linecap="round" stroke-linejoin="round" stroke-miterlimit="22.926"/><path d="M25.364 561.559c.285 13.327 8.516 12.983 13.429 13.04 3.462.04 13.877-.419 14.089-12.262m-22.078-59.388s6.685-7.773 18.656-11.349m-9.949-13.214s1.866 8.24 9.95 13.215m-36.535-9.484s6.512-5.364 9.553-5.636" fill="none" stroke="#000" stroke-width="8.504" stroke-linecap="round" stroke-linejoin="round" stroke-miterlimit="22.926"/></g></g></svg>