<?xml version="1.0" encoding="utf-8"?>
<!-- Generator: Adobe Illustrator 19.2.1, SVG Export Plug-In . SVG Version: 6.00 Build 0)  -->
<svg version="1.1" xmlns="http://www.w3.org/2000/svg" xmlns:xlink="http://www.w3.org/1999/xlink" x="0px" y="0px"
	 viewBox="0 0 415.808 586.933" style="enable-background:new 0 0 415.808 586.933;" xml:space="preserve">
<g id="n2901">
	<g>
		<g>
			<polygon style="fill-rule:evenodd;clip-rule:evenodd;fill:#F8D63E;" points="144.675,546.977 141.913,533.749 139.422,514.798 
				137.698,486.444 137.466,467.275 138.316,434.332 139.218,403.552 139.632,373.16 139.791,345.03 139.804,321.401 
				139.711,294.775 139.528,269.65 139.097,226.911 141.296,168.073 145.373,124.421 151.618,85.698 164.858,67.592 183.752,53.78 
				199.701,43.182 218.194,35.409 229.2,32.843 225.356,25.884 211.104,25.28 191.766,26.611 171.919,31.814 155.682,41.1 
				144.182,53.116 134.093,72.531 128.843,89.916 123.417,108.972 118.572,128.793 113.572,153.022 109.16,179.821 105.806,207.297 
				103.566,235.823 102.817,254.234 102.744,276.41 102.855,300.766 101.129,324.836 98.655,349.41 95.456,377.349 93.017,398.109 
				89.602,427.012 88.124,454.906 89.9,480.669 95.381,500.091 103.633,515.052 114.052,527.958 126.655,539.005 144.675,546.977 
							"/>
			<polygon style="fill-rule:evenodd;clip-rule:evenodd;fill:#F8D63E;" points="233.273,32.263 225.356,25.884 235.307,19.203 
				253.374,12.071 271.781,7.485 294.355,5.623 312.863,7.635 332.015,13.844 347.771,22.966 360.035,33.351 373.252,53.941 
				381.097,71.904 388.968,93.615 396.33,117.252 403.035,144.723 406.437,168.824 409.109,200.278 410.673,233.276 
				411.365,262.898 411.543,298.53 411.084,338.243 410.041,378.046 408.668,412.83 407.148,443.22 405.763,474.014 
				404.759,499.533 403.982,522.825 403.496,542.271 395.923,541.426 392.701,530.727 388.236,510.34 384.9,487.734 
				382.576,464.582 380.597,434.634 379.361,404.996 378.351,365.271 377.875,336.78 377.369,298.892 376.486,257.367 
				374.699,232.488 371.064,196.128 365.244,156.026 359.632,129.302 351.873,104.679 340.154,84.015 327.906,68.021 
				314.461,54.283 288.771,37.065 272.494,31.231 249.31,31.843 233.273,32.263 			"/>
			<polygon style="fill-rule:evenodd;clip-rule:evenodd;fill:#E186AE;" points="382.677,216.828 388.009,211.005 391.888,196.455 
				393.933,180.375 392.117,166.835 386.123,158.459 377.431,159.075 378.416,170.955 379.828,186.3 381.377,202.83 
				382.677,216.828 			"/>
			<path style="fill-rule:evenodd;clip-rule:evenodd;fill:#68569D;" d="M139.238,240.791l0.332,33.739l0.18,31.495l0.051,34.877
				l-0.168,32.258l-0.644,40.855l-1.445,45.028l0.677,35.992l1.633,23.908l26.145-14.422l35.516-10.876l38.406-5.408l43.183-0.668
				l37.627,3.021l18.492,2.522l10.506,3.419l14.321,3.848l11.483,3.469l7.561,2.604l4.754,1.679l-3.705-27.037l-3.195-41.19
				l-1.586-34.909l-1.109-45.698l-0.611-39.41l-0.551-34.115l-0.518-24.371l-1.268-21.313l-2.422-25.78
				C372.882,214.309,305.23,283.152,139.238,240.791L139.238,240.791z"/>
			<path style="fill-rule:evenodd;clip-rule:evenodd;fill:#FFFFFF;" d="M174.305,60.686l17.421-12.205l20.513-11.058l23.23-5.218
				l26.312,1.314l17.008,5.033l20.359,10.115l15.918,10.982l12.84,8.37l12.248,15.994l10.354,17.475l6.662,19.999l7.537,31.566
				l3.447,23.021l3.285,23.806l1.248,10.939l4.444,61.545c0,0-101.201,65.64-239.333,12c-0.141-13.88,1.389-63.83,1.389-63.83
				l1.01-23.043l0.808-21.63l1.227-20.514l2.816-27.451l2.399-18.618l7.039-22.04l10.502-15.076L174.305,60.686L174.305,60.686z"/>
			
				<path style="fill:none;stroke:#000000;stroke-width:8.5039;stroke-linecap:round;stroke-linejoin:round;stroke-miterlimit:22.9256;" d="
				M219.717,23.71c0,0,68.667-50.47,141.821,11.155"/>
			
				<path style="fill:none;stroke:#000000;stroke-width:8.5039;stroke-linecap:round;stroke-linejoin:round;stroke-miterlimit:22.9256;" d="
				M399.789,129.74c0,0-11.941-73.167-38.25-94.875"/>
			
				<path style="fill:none;stroke:#000000;stroke-width:8.5039;stroke-linecap:round;stroke-linejoin:round;stroke-miterlimit:22.9256;" d="
				M403.632,569.146c-1.312-14.062,1.818-94.663,4.5-145.5c2.682-50.837,9.188-227.436-8.344-293.905"/>
			
				<path style="fill:none;stroke:#000000;stroke-width:8.5039;stroke-linecap:round;stroke-linejoin:round;stroke-miterlimit:22.9256;" d="
				M382.724,156.925c0,0,26.873,0.091,5.123,59.903"/>
			
				<path style="fill:none;stroke:#000000;stroke-width:8.5039;stroke-linecap:round;stroke-linejoin:round;stroke-miterlimit:22.9256;" d="
				M382.724,171.176c0,0-0.584,8.212-1.74,11.668"/>
			
				<path style="fill:none;stroke:#000000;stroke-width:8.5039;stroke-linecap:round;stroke-linejoin:round;stroke-miterlimit:22.9256;" d="
				M377.193,154.394c0,10.875,18.428,117.513,16.74,135.513"/>
			
				<path style="fill:none;stroke:#000000;stroke-width:8.5039;stroke-linecap:round;stroke-linejoin:round;stroke-miterlimit:22.9256;" d="
				M313.717,32.205c0,0,62.538,36.126,63.476,122.188"/>
			
				<path style="fill:none;stroke:#000000;stroke-width:8.5039;stroke-linecap:round;stroke-linejoin:round;stroke-miterlimit:22.9256;" d="
				M228.036,30.362c13.5-0.562,69.749-17.625,119.436,65.062"/>
			
				<path style="fill:none;stroke:#000000;stroke-width:8.5039;stroke-linecap:round;stroke-linejoin:round;stroke-miterlimit:22.9256;" d="
				M376.91,265.113c0,0-5.812-127.688-29.438-169.689"/>
			
				<path style="fill:none;stroke:#000000;stroke-width:8.5039;stroke-linecap:round;stroke-linejoin:round;stroke-miterlimit:22.9256;" d="
				M396.597,543.362c-18.562-52.125-17.812-150.376-19.688-278.25"/>
			
				<path style="fill:none;stroke:#000000;stroke-width:8.5039;stroke-linecap:round;stroke-linejoin:round;stroke-miterlimit:22.9256;" d="
				M344.097,490.488"/>
			
				<path style="fill:none;stroke:#000000;stroke-width:8.5039;stroke-linecap:round;stroke-linejoin:round;stroke-miterlimit:22.9256;" d="
				M360.222,386.425c0,0,0.75,74.438,7.125,98.625"/>
			
				<path style="fill:none;stroke:#000000;stroke-width:8.5039;stroke-linecap:round;stroke-linejoin:round;stroke-miterlimit:22.9256;" d="
				M154.535,377.425c0,0,0.375,65.438-0.188,85.125"/>
			
				<path style="fill:none;stroke:#000000;stroke-width:8.5039;stroke-linecap:round;stroke-linejoin:round;stroke-miterlimit:22.9256;" d="
				M141.972,517.862c0,0,97.079-63.464,245.875-9.73"/>
			
				<path style="fill:none;stroke:#000000;stroke-width:8.5039;stroke-linecap:round;stroke-linejoin:round;stroke-miterlimit:22.9256;" d="
				M150.879,96.644"/>
			
				<path style="fill:none;stroke:#000000;stroke-width:8.5039;stroke-linecap:round;stroke-linejoin:round;stroke-miterlimit:22.9256;" d="
				M228.036,30.362c0,0-44.318,16.878-75.828,61.467"/>
			
				<path style="fill:none;stroke:#000000;stroke-width:8.5039;stroke-linecap:round;stroke-linejoin:round;stroke-miterlimit:22.9256;" d="
				M158.566,59.331c0,0-18.375,46.876-19.5,170.626"/>
			
				<path style="fill:none;stroke:#000000;stroke-width:8.5039;stroke-linecap:round;stroke-linejoin:round;stroke-miterlimit:22.9256;" d="
				M153.691,568.582c0,0-20.624-19.875-15.375-134.25"/>
			
				<path style="fill:none;stroke:#000000;stroke-width:8.5039;stroke-linecap:round;stroke-linejoin:round;stroke-miterlimit:22.9256;" d="
				M139.066,229.957c1.201,84,0.946,166.098-0.75,204.375"/>
			
				<path style="fill:none;stroke:#000000;stroke-width:8.5039;stroke-linecap:round;stroke-linejoin:round;stroke-miterlimit:22.9256;" d="
				M126.316,98.706c7.688-22.875,22.068-84.133,93.401-74.996"/>
			
				<path style="fill:none;stroke:#000000;stroke-width:8.5039;stroke-linecap:round;stroke-linejoin:round;stroke-miterlimit:22.9256;" d="
				M103.066,285.269c0,0-5.477-85.304,23.324-187.214"/>
			
				<path style="fill:none;stroke:#000000;stroke-width:8.5039;stroke-linecap:round;stroke-linejoin:round;stroke-miterlimit:22.9256;" d="
				M145.372,549.608c0,0-33.321-11.822-49.991-49.517c-8.229-18.607-9.823-48.211-2.909-97.166"/>
			
				<path style="fill:none;stroke:#000000;stroke-width:8.5039;stroke-linecap:round;stroke-linejoin:round;stroke-miterlimit:22.9256;" d="
				M103.066,285.269c0.938,26.25-7.121,86.454-10.595,117.656"/>
			
				<path style="fill:none;stroke:#000000;stroke-width:8.5039;stroke-linecap:round;stroke-linejoin:round;stroke-miterlimit:22.9256;" d="
				M123.596,323.798c1.124,37.501-8.625,178.126,0.375,197.626"/>
		</g>
		<g>
			<polygon style="fill-rule:evenodd;clip-rule:evenodd;" points="175.922,154.429 177.159,141.272 180.386,131.443 
				187.785,127.524 196.8,130.399 199.236,135.747 199.316,142.418 197.91,148.817 189.769,154.398 183.612,159.5 182.892,163.727 
				188.02,170.215 193.018,176.174 199.238,183.274 199.087,190.233 196.904,199.671 192.881,205.7 186.86,209.397 180.044,209.179 
				177.798,203.242 176.205,190.674 175.417,176.552 175.486,163.058 175.922,154.429 			"/>
			<polygon style="fill-rule:evenodd;clip-rule:evenodd;" points="305.535,140.264 309.133,132.748 314.588,129.627 321.48,130.827 
				327.232,135.491 327.405,146.508 327.394,152.054 320.58,157.484 314.494,163.439 311.699,168.683 316.773,171.808 
				322.243,176.14 328.518,182.992 328.353,190.827 327.016,198.499 323.092,204.45 316.531,208.095 310.49,205.52 306.718,197.033 
				305.336,184.756 304.944,176.553 304.568,160.052 304.633,151.051 305.535,140.264 			"/>
			
				<path style="fill:none;stroke:#000000;stroke-width:8.5039;stroke-linecap:round;stroke-linejoin:round;stroke-miterlimit:22.9256;" d="
				M286.921,89.571c5.062-1.126,15.272-31.396,50.566,12.619"/>
			
				<path style="fill:none;stroke:#000000;stroke-width:8.5039;stroke-linecap:round;stroke-linejoin:round;stroke-miterlimit:22.9256;" d="
				M167.921,97.571c3.101-0.586,22.604-40.053,49.5-9"/>
			
				<path style="fill:none;stroke:#000000;stroke-width:8.5039;stroke-linecap:round;stroke-linejoin:round;stroke-miterlimit:22.9256;" d="
				M154.238,141.273c0,0,31.501,2.438,20.625-25.499"/>
			
				<path style="fill:none;stroke:#000000;stroke-width:8.5039;stroke-linecap:round;stroke-linejoin:round;stroke-miterlimit:22.9256;" d="
				M194.363,107.71c0,0,3.562,13.688-12.75,21"/>
			
				<path style="fill:none;stroke:#000000;stroke-width:8.5039;stroke-linecap:round;stroke-linejoin:round;stroke-miterlimit:22.9256;" d="
				M211.05,109.023c0,0,5.438,10.876-14.25,21.376"/>
			
				<path style="fill:none;stroke:#000000;stroke-width:8.5039;stroke-linecap:round;stroke-linejoin:round;stroke-miterlimit:22.9256;" d="
				M165.863,213.461c0,0,10.688-5.25,12.562-6.938"/>
			
				<path style="fill:none;stroke:#000000;stroke-width:8.5039;stroke-linecap:round;stroke-linejoin:round;stroke-miterlimit:22.9256;" d="
				M178.425,221.148c0,0,2.25-6.749,4.688-11.811"/>
			
				<path style="fill:none;stroke:#000000;stroke-width:8.5039;stroke-linecap:round;stroke-linejoin:round;stroke-miterlimit:22.9256;" d="
				M190.8,207.648c0,0,4.5,1.312,4.876,11.062"/>
			
				<path style="fill:none;stroke:#000000;stroke-width:8.5039;stroke-linecap:round;stroke-linejoin:round;stroke-miterlimit:22.9256;" d="
				M199.425,136.961c-0.938-10.5-19.125-15.188-21.938,1.688"/>
			
				<path style="fill:none;stroke:#000000;stroke-width:8.5039;stroke-linecap:round;stroke-linejoin:round;stroke-miterlimit:22.9256;" d="
				M178.425,206.524c0,0-6.236-27.27-0.938-67.875"/>
			
				<path style="fill:none;stroke:#000000;stroke-width:8.5039;stroke-linecap:round;stroke-linejoin:round;stroke-miterlimit:22.9256;" d="
				M198.675,147.835c0,0,0.938-4.874,0.75-10.874"/>
			
				<path style="fill:none;stroke:#000000;stroke-width:8.5039;stroke-linecap:round;stroke-linejoin:round;stroke-miterlimit:22.9256;" d="
				M180.863,160.96c0,0,12.938-6.374,17.812-13.125"/>
			
				<path style="fill:none;stroke:#000000;stroke-width:8.5039;stroke-linecap:round;stroke-linejoin:round;stroke-miterlimit:22.9256;" d="
				M199.238,183.274c0,0-11.873-13.147-18.375-22.313"/>
			
				<path style="fill:none;stroke:#000000;stroke-width:8.5039;stroke-linecap:round;stroke-linejoin:round;stroke-miterlimit:22.9256;" d="
				M199.316,185.832c-0.296,4.621,3.784,21.729-16.709,24.585"/>
			
				<path style="fill:none;stroke:#000000;stroke-width:8.5039;stroke-linecap:round;stroke-linejoin:round;stroke-miterlimit:22.9256;" d="
				M297.675,108.085c0,0-6.374,14.813,12.188,26.438"/>
			
				<path style="fill:none;stroke:#000000;stroke-width:8.5039;stroke-linecap:round;stroke-linejoin:round;stroke-miterlimit:22.9256;" d="
				M331.051,117.274c0,0-20.25,17.812,21.563,28.312"/>
			
				<path style="fill:none;stroke:#000000;stroke-width:8.5039;stroke-linecap:round;stroke-linejoin:round;stroke-miterlimit:22.9256;" d="
				M312.863,111.649c0,0-4.874,10.874,5.813,18.937"/>
			
				<path style="fill:none;stroke:#000000;stroke-width:8.5039;stroke-linecap:round;stroke-linejoin:round;stroke-miterlimit:22.9256;" d="
				M299.456,214.117c0,0,7.875-7.312,9.562-10.5"/>
			
				<path style="fill:none;stroke:#000000;stroke-width:8.5039;stroke-linecap:round;stroke-linejoin:round;stroke-miterlimit:22.9256;" d="
				M317.269,209.804c0,0-3.75,9.188-3.188,11.062"/>
			
				<path style="fill:none;stroke:#000000;stroke-width:8.5039;stroke-linecap:round;stroke-linejoin:round;stroke-miterlimit:22.9256;" d="
				M325.143,204.742c0,0,7.5,10.313,8.25,13.501"/>
			
				<path style="fill:none;stroke:#000000;stroke-width:8.5039;stroke-linecap:round;stroke-linejoin:round;stroke-miterlimit:22.9256;" d="
				M328.518,182.992c-2.826-4.146-9.562-10.499-17.062-14.438"/>
			
				<path style="fill:none;stroke:#000000;stroke-width:8.5039;stroke-linecap:round;stroke-linejoin:round;stroke-miterlimit:22.9256;" d="
				M327.394,152.054c0,0-14.813,10.688-15.938,16.5"/>
			
				<path style="fill:none;stroke:#000000;stroke-width:8.5039;stroke-linecap:round;stroke-linejoin:round;stroke-miterlimit:22.9256;" d="
				M326.831,140.992c0,0,0.939,5.486,0.563,11.062"/>
			
				<path style="fill:none;stroke:#000000;stroke-width:8.5039;stroke-linecap:round;stroke-linejoin:round;stroke-miterlimit:22.9256;" d="
				M305.081,144.554c-1.125,6-0.25,40.069,0.938,48"/>
			
				<path style="fill:none;stroke:#000000;stroke-width:8.5039;stroke-linecap:round;stroke-linejoin:round;stroke-miterlimit:22.9256;" d="
				M326.831,140.992c-0.538-15.467-21.29-16.492-21.75,3.562"/>
			
				<path style="fill:none;stroke:#000000;stroke-width:8.5039;stroke-linecap:round;stroke-linejoin:round;stroke-miterlimit:22.9256;" d="
				M328.518,182.992c-0.448,4.711,0.503,11.132-1.502,15.508c-5.768,12.586-18.823,14.977-20.998-5.945"/>
		</g>
		<path style="fill-rule:evenodd;clip-rule:evenodd;fill:#67559E;" d="M150.981,311.665c0,0-13.5-17.5-4.5-32.5s19-28,43.5-34
			s73,2.5,73,2.5l0.5,114.5c0,0-31.5-0.5-53.5-11.5S150.981,311.665,150.981,311.665z"/>
		<path style="fill-rule:evenodd;clip-rule:evenodd;fill:#4AB57E;" d="M299.981,358.165c9.5-1.5,49.5-1,62-35.5s19.5-44.5,6.5-60.5
			s-25.5-26.5-58-20.5s-49.5,6.5-49.5,6.5l2.5,114L299.981,358.165z"/>
	</g>
</g>
<g id="n2902">
	<g>
		<polygon style="fill-rule:evenodd;clip-rule:evenodd;fill:#81CECE;" points="213.336,459.03 223.47,468.598 235.086,476.843 
			259.086,458.093 284.961,476.093 294.799,468.304 305.961,455.843 317.069,472.151 326.983,489.292 335.028,505.375 
			341.036,519.165 345.952,532.106 350.08,548.401 341.631,554.596 329.881,562.174 315.778,568.607 303.332,574.783 
			282.448,580.385 264.608,582.441 247.477,582.447 229.341,578.92 214.415,576.082 197.828,568.534 185.028,559.581 
			174.955,549.158 167.774,535.343 172.008,525.269 178.276,511.764 185.501,497.788 194.072,483.267 204.298,468.887 
			213.336,459.03 		"/>
		<polygon style="fill-rule:evenodd;clip-rule:evenodd;fill:#FFFFFF;" points="236.211,423.968 235.149,432.533 234.137,437.49 
			240.929,445.498 249.029,450.295 257.014,453.819 258,458.689 246.809,467.098 239.087,473.462 234.315,476.295 223.47,468.598 
			216.499,462.017 210.846,455.246 217.113,441.637 223.428,432.914 226.941,427.711 236.211,423.968 		"/>
		<polygon style="fill-rule:evenodd;clip-rule:evenodd;fill:#FFFFFF;" points="281.221,424.935 288.432,425.319 294.202,429.12 
			299.541,436.361 304.127,443.858 308.211,450.968 303.368,458.739 298.149,464.967 292.149,470.402 285.799,475.547 
			277.399,470.094 269.756,464.449 259.086,458.093 258.963,453.811 267.668,452.426 276.659,448.041 283.543,442.088 
			286.534,438.674 282.704,431.042 281.221,424.935 		"/>
		<path style="fill-rule:evenodd;clip-rule:evenodd;fill:#F8D63E;" d="M237.336,371.468c0,0,25.059-14.326,40.688,2.812
			c-0.594,5.734-0.803,9.635-0.803,9.635l0.072,12.024l0.959,11.623l1.594,10.607l2.117,9.819l4.57,10.686l-5.713,6.071
			l-8.656,5.488l-7.875,3.02l-8.45,0.48l-9.592-4.049l-8.335-7.172l-3.775-5.022l1.543-9.24l1.94-11.358l0.617-12.673l0.025-10.936
			l-0.342-11.636L237.336,371.468L237.336,371.468z"/>
		
			<path style="fill:none;stroke:#000000;stroke-width:8.5039;stroke-linecap:round;stroke-linejoin:round;stroke-miterlimit:22.9256;" d="
			M167.774,535.343c0,0,20.625-53.062,45.562-76.312"/>
		
			<path style="fill:none;stroke:#000000;stroke-width:8.5039;stroke-linecap:round;stroke-linejoin:round;stroke-miterlimit:22.9256;" d="
			M305.961,455.843c0,0,29.25,37.312,45,91.875"/>
		
			<path style="fill:none;stroke:#000000;stroke-width:8.5039;stroke-linecap:round;stroke-linejoin:round;stroke-miterlimit:22.9256;" d="
			M259.274,470.468c0,0,3.375,82.875,0,110.625"/>
		
			<path style="fill:none;stroke:#000000;stroke-width:8.5039;stroke-linecap:round;stroke-linejoin:round;stroke-miterlimit:22.9256;" d="
			M167.774,535.343c2.625,13.688,30.464,48.536,91.127,47.307c25.398-0.515,55.342-6.379,92.061-34.932"/>
		
			<path style="fill:none;stroke:#000000;stroke-width:8.5039;stroke-linecap:round;stroke-linejoin:round;stroke-miterlimit:22.9256;" d="
			M233.774,436.53c0.75,3.564,13.409,17.086,23.24,17.288c9.83,0.201,20.635-3.037,31.322-17.476"/>
		
			<path style="fill:none;stroke:#000000;stroke-width:8.5039;stroke-linecap:round;stroke-linejoin:round;stroke-miterlimit:22.9256;" d="
			M235.086,476.843c0,0,19.5-16.688,24-18.75"/>
		
			<path style="fill:none;stroke:#000000;stroke-width:8.5039;stroke-linecap:round;stroke-linejoin:round;stroke-miterlimit:22.9256;" d="
			M284.961,476.093c0,0-18.375-15.188-25.875-18"/>
		
			<path style="fill:none;stroke:#000000;stroke-width:8.5039;stroke-linecap:round;stroke-linejoin:round;stroke-miterlimit:22.9256;" d="
			M281.221,424.935c9.75,0.562,10.49-3.217,26.99,26.033"/>
		
			<path style="fill:none;stroke:#000000;stroke-width:8.5039;stroke-linecap:round;stroke-linejoin:round;stroke-miterlimit:22.9256;" d="
			M236.211,423.968c-9.025,0.438-9.817,4.735-13.469,9.962c-3.285,4.703-6.174,9.166-14.094,16.852"/>
		
			<path style="fill:none;stroke:#000000;stroke-width:8.5039;stroke-linecap:round;stroke-linejoin:round;stroke-miterlimit:22.9256;" d="
			M284.961,476.093c0,0,15.188-9.375,23.25-25.125"/>
		
			<path style="fill:none;stroke:#000000;stroke-width:8.5039;stroke-linecap:round;stroke-linejoin:round;stroke-miterlimit:22.9256;" d="
			M208.649,450.781c0,0,2.625,11.062,26.438,26.061"/>
		
			<path style="fill:none;stroke:#000000;stroke-width:8.5039;stroke-linecap:round;stroke-linejoin:round;stroke-miterlimit:22.9256;" d="
			M278.024,374.28c0,0-4.668,28.388,7.322,65.851"/>
		
			<path style="fill:none;stroke:#000000;stroke-width:8.5039;stroke-linecap:round;stroke-linejoin:round;stroke-miterlimit:22.9256;" d="
			M237.336,371.468c0,0,3.75,48-3.562,65.062"/>
	</g>
</g>
<g id="n2903">
	<g>
		<path style="fill-rule:evenodd;clip-rule:evenodd;fill:#E186AE;" d="M243.511,342.186l1.773-23.948l3.276-9.197l6.141-5.876
			l11.694-0.426l7.864,0.393l3.969,3.896c0,0,1.582,6.404,0.649,5.913c-0.934-0.491-4.918,3.282-4.918,3.282l0.976,6.704
			l-0.841,16.886l-8.438,2.646l-9.827,5.096l-6.13-3.33L243.511,342.186L243.511,342.186z"/>
		
			<path style="fill:none;stroke:#000000;stroke-width:8.5039;stroke-linecap:round;stroke-linejoin:round;stroke-miterlimit:22.9256;" d="
			M261.792,316.288c0,0,25.448,0.883,13.998-13.4"/>
		
			<path style="fill:none;stroke:#000000;stroke-width:8.5039;stroke-linecap:round;stroke-linejoin:round;stroke-miterlimit:22.9256;" d="
			M273.959,316.224c0,0,0.979,19.758-0.478,23.609"/>
		
			<path style="fill:none;stroke:#000000;stroke-width:8.5039;stroke-linecap:round;stroke-linejoin:round;stroke-miterlimit:22.9256;" d="
			M243.511,342.186c0,0-6.03-48.02,30.97-40.353"/>
	</g>
</g>
<g id="n2904">
	<g>
		<g>
			<path style="fill-rule:evenodd;clip-rule:evenodd;fill:#F9D740;" d="M233.224,234.846l-3.524-6.608l1.063-6.89l4.792-8.11
				l5.926-6.523l6.635-5.877l6.9-2.695l7.291,1.067l5.466,3.066l5.784,5.374l4.455,5.561l3.423,6.154l1.354,6.271l-1.119,3.957
				l-4.358,3.502l-5.543,1.39C271.769,234.485,249.659,241.928,233.224,234.846L233.224,234.846z"/>
			
				<path style="fill:none;stroke:#000000;stroke-width:8.5039;stroke-linecap:round;stroke-linejoin:round;stroke-miterlimit:22.9256;" d="
				M233.224,234.846c0,0-14.542-9.948,14.892-34.009"/>
			
				<path style="fill:none;stroke:#000000;stroke-width:8.5039;stroke-linecap:round;stroke-linejoin:round;stroke-miterlimit:22.9256;" d="
				M262.308,199.209c8.585,1.99,35.391,32.019,9.461,35.275"/>
			
				<path style="fill:none;stroke:#000000;stroke-width:8.5039;stroke-linecap:round;stroke-linejoin:round;stroke-miterlimit:22.9256;" d="
				M262.308,199.209c-3.154-1.446-8.76-2.171-14.191,1.628"/>
			
				<path style="fill:none;stroke:#000000;stroke-width:8.5039;stroke-linecap:round;stroke-linejoin:round;stroke-miterlimit:22.9256;" d="
				M264.76,226.706c0,0,1.752,2.352,2.628,2.713"/>
			
				<path style="fill:none;stroke:#000000;stroke-width:8.5039;stroke-linecap:round;stroke-linejoin:round;stroke-miterlimit:22.9256;" d="
				M241.984,225.801c0,0-1.752,3.437-3.154,4.161"/>
		</g>
		<path style="fill-rule:evenodd;clip-rule:evenodd;fill:#E186AE;" d="M382.936,276.253l-3.879-11.549l-7.212-12.935l-11.251-11.455
			l-15.768-8.059l-15.3-2.959l-14.991,0.207l-17.051,2.666l-12.712,2.777l-17.368,3.6l-14.114,1.867l-16.154-0.889l-14.906-3.47
			l-15.386-1.442l-11.772-0.696l-13.579,2.044l-19.918,7.627l-12.838,9.69L138.2,267.028l-5.699,13.515l-1.883,14.822l1.136,13.34
			l3.867,12.878l6.832,12.346l10.069,10.937l14.616,10.445l13.753,7.547l20.201,8.392l18.843,5.496l18.232,3.472l17.979,1.815
			l19.992-0.014l20.113-2.418l15.67-3.645l13.852-4.797l11.031-5.213l12.351-7.964l9.847-8.963l7.777-10.247l5.863-10.849
			l5.139-11.694l4.563-14.868l1.686-11.072L382.936,276.253z M350.996,312.535c-11.132,17.066-25.974,39.357-60.718,39.705
			c-34.744,0.348-66.453,2.09-90.403-13.235c-23.95-15.325-43.852-24.032-39.467-55.03c0,0,2.699-20.897,21.251-22.291
			c18.553-1.393,43.177,6.966,57.345,6.269c14.168-0.697,66.116-5.921,81.97-9.752c15.854-3.831,29.01-2.438,32.046,8.011
			C356.056,276.661,362.127,295.469,350.996,312.535z"/>
		<polygon style="fill-rule:evenodd;clip-rule:evenodd;fill:#FFFFFF;" points="178.074,263.79 179.484,268.691 179.954,274.5 
			183.668,280.561 190.42,284.514 196.394,284.198 204.835,287.021 214.73,285.648 218.72,284.129 228.092,289.377 238.478,292.307 
			249.564,292.721 254.654,289.555 263.928,292.603 275.41,293.146 281.471,291.023 288.344,285.801 294.679,288.025 
			303.887,288.706 310.438,287.254 314.427,284.45 321.813,285.867 328.982,284.568 333.419,281.562 337.972,274.036 
			339.746,266.185 341.288,261.122 331.818,258.762 324.208,258.466 310.936,259.848 298.529,262.049 282.357,264.574 
			264.981,265.95 247.536,266.291 232.335,264.826 219.759,262.073 203.529,259.79 190.093,260.533 178.074,263.79 		"/>
		<polygon style="fill-rule:evenodd;clip-rule:evenodd;fill:#61F4E5;" points="178.653,329.315 181.867,324.107 187.939,317.715 
			195.019,314.676 201.816,315.531 205.336,317.415 206.866,323.196 213.947,323.464 219.476,326.211 225.032,331.284 
			232.878,328.35 241.722,328.114 249.92,330.354 256.123,333.477 261.052,330.108 269.494,326.809 278.753,326.485 
			285.009,328.212 288.942,330.298 295.989,326.201 302.85,323.503 306.956,317.95 312.483,314.051 319.901,306.689 
			326.348,303.993 335.47,304.316 342.643,308.032 345.963,311.894 350.317,315.798 347.092,321.564 340.919,329.479 
			332.407,337.026 324.712,341.876 314.477,346.447 300.29,350.354 284.415,352.44 272.082,352.882 253.543,352.354 
			240.273,351.083 226.887,348.755 211.314,344.37 194.77,337.85 183.863,332.637 178.653,329.315 		"/>
		
			<path style="fill:none;stroke:#000000;stroke-width:8.5039;stroke-linecap:round;stroke-linejoin:round;stroke-miterlimit:22.9256;" d="
			M179.484,268.691c0,0-1.444,16.449,16.91,15.507"/>
		
			<path style="fill:none;stroke:#000000;stroke-width:8.5039;stroke-linecap:round;stroke-linejoin:round;stroke-miterlimit:22.9256;" d="
			M218.72,284.129c0,0-18.863,9.017-25.766-11.335"/>
		
			<path style="fill:none;stroke:#000000;stroke-width:8.5039;stroke-linecap:round;stroke-linejoin:round;stroke-miterlimit:22.9256;" d="
			M195.435,281.073"/>
		
			<path style="fill:none;stroke:#000000;stroke-width:8.5039;stroke-linecap:round;stroke-linejoin:round;stroke-miterlimit:22.9256;" d="
			M254.839,289.435c0,0-14.118,9.809-36.119-5.307"/>
		
			<path style="fill:none;stroke:#000000;stroke-width:8.5039;stroke-linecap:round;stroke-linejoin:round;stroke-miterlimit:22.9256;" d="
			M287.475,285.415c0,0-8.067,15.116-32.636,4.02"/>
		
			<path style="fill:none;stroke:#000000;stroke-width:8.5039;stroke-linecap:round;stroke-linejoin:round;stroke-miterlimit:22.9256;" d="
			M322.801,270.469c-0.55,5.95-3.213,11.237-14.888,16.98c-4.792,2.357-11.513,2.016-20.437-2.034"/>
		
			<path style="fill:none;stroke:#000000;stroke-width:8.5039;stroke-linecap:round;stroke-linejoin:round;stroke-miterlimit:22.9256;" d="
			M317.498,281.223c0,0,21.039,9.006,23.789-20.101"/>
		
			<path style="fill:none;stroke:#000000;stroke-width:8.5039;stroke-linecap:round;stroke-linejoin:round;stroke-miterlimit:22.9256;" d="
			M218.903,336.154c0,0,13.751-16.731,37.219-2.677"/>
		
			<path style="fill:none;stroke:#000000;stroke-width:8.5039;stroke-linecap:round;stroke-linejoin:round;stroke-miterlimit:22.9256;" d="
			M291.123,333.477c0,0-17.216-14.222-35,0"/>
		
			<path style="fill:none;stroke:#000000;stroke-width:8.5039;stroke-linecap:round;stroke-linejoin:round;stroke-miterlimit:22.9256;" d="
			M324.695,329.963c0,0-19.882-16.755-33.572,3.514"/>
		
			<path style="fill:none;stroke:#000000;stroke-width:8.5039;stroke-linecap:round;stroke-linejoin:round;stroke-miterlimit:22.9256;" d="
			M334.595,319.255c0,0-13.127-15.752-26.861,4.204"/>
		
			<path style="fill:none;stroke:#000000;stroke-width:8.5039;stroke-linecap:round;stroke-linejoin:round;stroke-miterlimit:22.9256;" d="
			M345.963,311.894c-4.217-7.696-19.248-14.206-31.362,4.25"/>
		
			<path style="fill:none;stroke:#000000;stroke-width:8.5039;stroke-linecap:round;stroke-linejoin:round;stroke-miterlimit:22.9256;" d="
			M181.867,324.107c0,0,12.449-16.253,24.998-0.912"/>
		
			<path style="fill:none;stroke:#000000;stroke-width:8.5039;stroke-linecap:round;stroke-linejoin:round;stroke-miterlimit:22.9256;" d="
			M199.694,329.83c0,0,11.788-18.445,28.392,0.312"/>
		
			<path style="fill:none;stroke:#000000;stroke-width:8.5039;stroke-linecap:round;stroke-linejoin:round;stroke-miterlimit:22.9256;" d="
			M131.73,283.79c0,0,8.617-52.562,76.822-50.139"/>
		
			<path style="fill:none;stroke:#000000;stroke-width:8.5039;stroke-linecap:round;stroke-linejoin:round;stroke-miterlimit:22.9256;" d="
			M307.376,230.483c4.385-0.505,61.605-13.233,76.089,47.901"/>
		
			<path style="fill:none;stroke:#000000;stroke-width:8.5039;stroke-linecap:round;stroke-linejoin:round;stroke-miterlimit:22.9256;" d="
			M208.552,233.652c16.501,0.932,17.823,6.888,44.739,6.761c15.554-0.073,31.026-6.589,54.085-9.93"/>
		
			<path style="fill:none;stroke:#000000;stroke-width:8.5039;stroke-linecap:round;stroke-linejoin:round;stroke-miterlimit:22.9256;" d="
			M149.881,342.502c0,0-24.752-21.061-18.151-58.711"/>
		
			<path style="fill:none;stroke:#000000;stroke-width:8.5039;stroke-linecap:round;stroke-linejoin:round;stroke-miterlimit:22.9256;" d="
			M383.465,278.384c0,0,6.05,21.621-16.685,60.39"/>
		
			<path style="fill:none;stroke:#000000;stroke-width:8.5039;stroke-linecap:round;stroke-linejoin:round;stroke-miterlimit:22.9256;" d="
			M149.881,342.502c11.184,10.623,48.91,36.861,108.902,39.673c34.729,1.628,86.559-8.591,107.997-43.4"/>
		
			<path style="fill:none;stroke:#000000;stroke-width:8.5039;stroke-linecap:round;stroke-linejoin:round;stroke-miterlimit:22.9256;" d="
			M208.46,260.398c22.002,3.541,22.317,7.857,48.237,7.087c28.616-0.849,38.14-4.425,50.953-6.715"/>
		
			<path style="fill:none;stroke:#000000;stroke-width:8.5039;stroke-linecap:round;stroke-linejoin:round;stroke-miterlimit:22.9256;" d="
			M354.954,275.309c0,0,0.689-27.757-47.304-14.538"/>
		
			<path style="fill:none;stroke:#000000;stroke-width:8.5039;stroke-linecap:round;stroke-linejoin:round;stroke-miterlimit:22.9256;" d="
			M208.46,260.398c0,0-45.103-6.71-48.037,31.872"/>
		
			<path style="fill:none;stroke:#000000;stroke-width:8.5039;stroke-linecap:round;stroke-linejoin:round;stroke-miterlimit:22.9256;" d="
			M160.423,292.27c0,0-2.75,24.044,28.419,41.005"/>
		
			<path style="fill:none;stroke:#000000;stroke-width:8.5039;stroke-linecap:round;stroke-linejoin:round;stroke-miterlimit:22.9256;" d="
			M354.954,275.309c0,0,6.6,32.617-19.251,57.034"/>
		
			<path style="fill:none;stroke:#000000;stroke-width:8.5039;stroke-linecap:round;stroke-linejoin:round;stroke-miterlimit:22.9256;" d="
			M188.842,333.275c22.067,10.673,39.93,19.72,83.24,19.607c21.92-0.056,45.991-4.075,63.621-20.539"/>
	</g>
</g>
<g id="n2905">
	<g>
		<polygon style="fill-rule:evenodd;clip-rule:evenodd;fill:#FFFFFF;" points="21.846,455.316 18.215,446.52 13.967,433.102 
			12.615,421.175 15.717,413.759 20.943,411.666 29.095,416.666 31.875,423.46 34.229,431.973 36.157,440.591 41.687,452.579 
			45.419,448.847 47,443.225 49.115,432.463 50.667,421.789 52.297,413.471 57.13,407.621 64.965,407.73 69.052,413.031 
			69.369,420.239 68.882,429.518 66.881,442.065 64.291,453.607 62.22,463.697 60.209,471.736 53.337,465.109 45.18,464.611 
			40.705,468.321 37.686,466.423 34.219,459.427 27.009,455.344 21.846,455.316 		"/>
		<path style="fill-rule:evenodd;clip-rule:evenodd;fill:#FFFFFF;" d="M14.587,457.117l7.259-1.801l8.056,1.101l4.317,3.01
			l3.196,5.373l4.728,1.598l6.378-2.236l7.158,2.252c0,0,3.619,5.236,4.53,5.321c0.911,0.086,5.296,8.949,5.296,8.949l5.972,11.066
			l0.939,10.522l-2.629,7.488l-6.146,6.817l-10.92,5.869l-0.089,8.953l-0.063,9.947l-0.008,9.172l0.138,9.64l-0.779,7.418
			l-5.163,5.496l-7.964,1.525l-8.538-1.596l-5.042-5.538l0.026-10.893l-0.641-13.526l-1.167-11.228l-2.44-10.425l-4.493-6.904
			l-8.613-12.528l-3.504-13.472L2.292,476.85l2.33-9.874l3.572-5.41L14.587,457.117L14.587,457.117z"/>
		
			<path style="fill:none;stroke:#000000;stroke-width:8.5039;stroke-linecap:round;stroke-linejoin:round;stroke-miterlimit:22.9256;" d="
			M14.714,466.648c0.155,4.353,13.37,19.433,21.299,7.151"/>
		
			<path style="fill:none;stroke:#000000;stroke-width:8.5039;stroke-linecap:round;stroke-linejoin:round;stroke-miterlimit:22.9256;" d="
			M25.597,455.144c3.576,0,16.79,6.062,10.416,18.656"/>
		
			<path style="fill:none;stroke:#000000;stroke-width:8.5039;stroke-linecap:round;stroke-linejoin:round;stroke-miterlimit:22.9256;" d="
			M2.277,479.241c0,0-1.71-24.253,23.32-24.097"/>
		
			<path style="fill:none;stroke:#000000;stroke-width:8.5039;stroke-linecap:round;stroke-linejoin:round;stroke-miterlimit:22.9256;" d="
			M13.626,511.111c0,0-10.417-11.505-11.35-31.87"/>
		
			<path style="fill:none;stroke:#000000;stroke-width:8.5039;stroke-linecap:round;stroke-linejoin:round;stroke-miterlimit:22.9256;" d="
			M23.653,533.731c-1.064-8.988-1.088-12.593-10.027-22.62"/>
		
			<path style="fill:none;stroke:#000000;stroke-width:8.5039;stroke-linecap:round;stroke-linejoin:round;stroke-miterlimit:22.9256;" d="
			M25.364,561.559c0,0-0.314-18.938-1.71-27.828"/>
		
			<path style="fill:none;stroke:#000000;stroke-width:8.5039;stroke-linecap:round;stroke-linejoin:round;stroke-miterlimit:22.9256;" d="
			M52.721,522.448c0,0-0.462,38.023,0.16,39.889"/>
		
			<path style="fill:none;stroke:#000000;stroke-width:8.5039;stroke-linecap:round;stroke-linejoin:round;stroke-miterlimit:22.9256;" d="
			M49.927,523.315c0,0,32.959-7.929,19.433-37.156"/>
		
			<path style="fill:none;stroke:#000000;stroke-width:8.5039;stroke-linecap:round;stroke-linejoin:round;stroke-miterlimit:22.9256;" d="
			M55.68,466.415c-2.643-2.487-18.375-6.755-16.169,11.971"/>
		
			<path style="fill:none;stroke:#000000;stroke-width:8.5039;stroke-linecap:round;stroke-linejoin:round;stroke-miterlimit:22.9256;" d="
			M67.184,483.827c0,0-8.131-15.759-11.504-17.412"/>
		
			<path style="fill:none;stroke:#000000;stroke-width:8.5039;stroke-linecap:round;stroke-linejoin:round;stroke-miterlimit:22.9256;" d="
			M21.846,455.316c0,0-10.319-22.326-9.23-34.141"/>
		
			<path style="fill:none;stroke:#000000;stroke-width:8.5039;stroke-linecap:round;stroke-linejoin:round;stroke-miterlimit:22.9256;" d="
			M29.095,416.666c6.995,13.992,6.219,31.559,12.593,35.912"/>
		
			<path style="fill:none;stroke:#000000;stroke-width:8.5039;stroke-linecap:round;stroke-linejoin:round;stroke-miterlimit:22.9256;" d="
			M45.419,448.847c2.798-8.084,5.13-25.03,5.752-31.56"/>
		
			<path style="fill:none;stroke:#000000;stroke-width:8.5039;stroke-linecap:round;stroke-linejoin:round;stroke-miterlimit:22.9256;" d="
			M69.205,414.645c0.155-8.551-14.77-13.526-18.034,2.642"/>
		
			<path style="fill:none;stroke:#000000;stroke-width:8.5039;stroke-linecap:round;stroke-linejoin:round;stroke-miterlimit:22.9256;" d="
			M61.018,472.991c1.631-20.096,9.587-35.026,8.187-58.345"/>
		
			<path style="fill:none;stroke:#000000;stroke-width:8.5039;stroke-linecap:round;stroke-linejoin:round;stroke-miterlimit:22.9256;" d="
			M29.095,416.666c-3.109-7.151-15.702-7.463-16.479,4.508"/>
		
			<path style="fill:none;stroke:#000000;stroke-width:8.5039;stroke-linecap:round;stroke-linejoin:round;stroke-miterlimit:22.9256;" d="
			M25.364,561.559c0.285,13.327,8.516,12.983,13.429,13.04c3.462,0.04,13.877-0.419,14.089-12.262"/>
		
			<path style="fill:none;stroke:#000000;stroke-width:8.5039;stroke-linecap:round;stroke-linejoin:round;stroke-miterlimit:22.9256;" d="
			M30.804,502.949c0,0,6.685-7.773,18.656-11.349"/>
		
			<path style="fill:none;stroke:#000000;stroke-width:8.5039;stroke-linecap:round;stroke-linejoin:round;stroke-miterlimit:22.9256;" d="
			M39.511,478.386c0,0,1.866,8.24,9.95,13.215"/>
		
			<path style="fill:none;stroke:#000000;stroke-width:8.5039;stroke-linecap:round;stroke-linejoin:round;stroke-miterlimit:22.9256;" d="
			M12.926,482.117c0,0,6.512-5.364,9.553-5.636"/>
	</g>
</g>
</svg>
