<svg xmlns="http://www.w3.org/2000/svg" viewBox="0 0 354.16 545.833"><g id="n0301"><g><path fill-rule="evenodd" clip-rule="evenodd" fill="#e085ad" d="M108.97 33.904l7.648 2.826-.994 14.767-2.871 22.137-3.352 19.376-4.75 23.345-5.748 25.019-5.599 22.254-5.639 20.804-5.974 20.385-4.823-.086-4.172-13.952-4.377-21.589-1.14-21.491 1.935-19.071 4.899-20.284 7.096-19.692 8.234-18.335 9.783-18.979 9.844-17.434z"/><path fill-rule="evenodd" clip-rule="evenodd" fill="#49b37e" d="M223.212 161.231l7.328-3.054-4.004-8.275-7.691-11.209-11.01-10.46-10.359-6.362L187.48 118l-13.84-2.303-14.715.281-13.029 3.288-11.586 6.422-8.395 8.123-3.297 4.92-4.424-1.314-1.98 6.611-2.27 7.438-2.128 6.859-2.729 8.659-2.5 7.841 8.418-4.962 10.674-5.528 12.947-5.397 11.758-3.594 10.424-2.126 10.263-1.118 12.022-.083 10.885 1.062 10.043 1.933 9.525 2.674 9.666 3.545z"/><path fill-rule="evenodd" clip-rule="evenodd" fill="#f8d63f" d="M109.894 33.128l7.194 3.602-.499 7.384-1.47 14.897-1.615 12.806-3.633 21.193-3.317 16.303-3.927 18.229-4.288 18.077-4.259 16.836-5.141 19.1-5.637 19.507-3.3 10.621-3.405 13.578-.906 17.313.311 16.328-.049 15.533-1.289 15.745-.701 4.552 10.556-4.887 12.447-3.405 15.541-.875 18.155 4.255 14.677 6.503 13.493 6.688 6.115-2.833-4.233-7.765.11-8.384 4.441-9.055 7.289-4.107-1.466-5.011 1.587-12.292-.617-13.255-1.847-16.111-2.997-19.028-3.06-16.508-3.69-17.861-4.398-16.52-13.945 3.612-13.502 5.413-13.145 6.557-8.418 4.962 3.866-12.171 5.277-17.028 6.441-21.864 5.989-21.758 5.796-22.922 4.967-21.818L142.99 39.5l2.516-13.988.562-11.79-4.379-6.291-9.459 2.201-7.433 5.252-8.456 8.441-6.447 9.803z"/><path fill-rule="evenodd" clip-rule="evenodd" fill="#fff" d="M250.472 4.558l-4.506 6.759-1.85 12.557-.341 17.135.929 18.798 1.705 16.643 2.805 18.908 3.865 20.005 3.412 14.822 4.502 17.171 5.606 15.68 6.357 19.634 5.629 15.506 5.283 10.68 7.221-4.346 5.652-7.674 4.368-11.574 2.439-13.233.914-13.282-.363-17.257-1.945-18.979-3.34-19.069-5.092-20.655-6.822-21.001-8-19.403-8.832-17.233-8.075-13.068-7.08-6.99-4.441-.534zm-93.778 149.38l11.764-1.645 9.357-.239 11.633.453 10.607 1.742 11.322 2.828s11.34 4.36 11.834 4.154l7.328-3.054 3.551 10.217 2.488 10.932 2.305 11.684 3.81 10.31 6.807 11.541 9.412 10.659 8.883 7.175 5.105 3.1.055 13.259 1.244 10.369 1.412 8.212 1.916 13.727-11.307-1.634-16.598 2.796s-14.666 7.273-14.902 6.767c-.234-.508-14.877 6.436-14.877 6.436l-15.672 6.632-2.072-4.454 3.328-4.515-1.561-6.605-4.053-7.19-5.543-5.729-9.596-2.819-9.492.875-4.567-4.064 1.57-12.149-.543-12.168-1.238-11.53-1.738-13.853-3.191-17.824-3.26-18.735-2.967-14.369-2.554-11.292z"/><path fill-rule="evenodd" clip-rule="evenodd" d="M104.253 259.276l1.807-10.542 3.191-16.464 4.367-16.758 4.975-9.083 6.816-2.386 6.207 5.018.94 9.451-8.625 4.687-7.475 5.774 8.256 7.062 2.969 4.039-2.567 9.72-1.505 7.986.222 7.232-9.734-3.896-9.844-1.84zm110.658 5.846l8.074-6.266 9.872-5.177-.551-12.105-8.955-3.193-8.295-4.494 7.705-7.476 4.107-5.087 1.553-7.6-4.289-7.086-7.338-1.93-7.455 4.128-1.219 8.945 1.297 9.96 2.658 14.358 1.953 11.37.883 11.653z"/><path fill-rule="evenodd" clip-rule="evenodd" fill="#68569d" d="M190.931 115.919l13.697-.652 14.285 1.297 15.418 4.568 11.787 6.941 14.875 19.283 7.028 20.088 5.465 16.798 5.099 13.934 6.639 14.597 10.336 15.735 5.898 9.771 2.903 13.482-2.241 14.067-5.107 12.045-6.02 10.109-8.037-6.042-5.427-2.579-1.461-11.676-2.676-17.001-1.524-17.453-14-10.712-11.025-14.167-8.533-20.256-4.219-19.702-6.727-16.964-11.615-16.186-13.094-10.192-11.724-9.133zm-117.99 75.772l2.457 8.123 5.785 6.559-3.352 12.099-1.971 11.904-.638 12.198.31 16.328-.043 13.483-.892 12.879-1.104 9.468-12.967 11.622-7.392 13.004-2.959 14.865 1.264 15.97 3.586 12.882 8.134 15.867 8.789 11.881 11.895 11.992 16.287 12.086 14.254 7.954 16.529 7.093 14.774 4.867 13.771 3.536 9.567 1.974.816 14.304-.184 9.509.598 13.333-14.557 3.118-14.277 4.633-14.432 6.888-9.084 6.732-5.212-.626-2.303 9.762-3.262 6.806-9.352-2.935-15.832-4.557-13.894-5.711-13.1-7.56-11.357-9.831-5.859-7.911-4.448-10.743-8.33-1.924-10.402-6.769-7.377-10.739-.983-11.242 4.206-6.537 12.822-7.535 8.578-9.827 5.264-9.818.191-9.225-4.732-8.22-5.432-2.283-8.878-7.896-6.789-13.354-3.666-10.75-3.334-12.667 3.334-10.666 7.227-13.621 12.665-9.013 9.304-10.325 3.289-11.839-2.363-17.179-1.729-18.626 2.471-16.2 7.49-15.857 10.327-11.511 16.502-10.222z"/><path d="M303.325 243.748l5.076-2.407 5.832 6.102 4.918 8.91.451 8.83-3.025 10.071-4.584 8.603-2.891 8.346 1.832 12.893 5.229 9.546 8.461 9.68 12.008 11.258 8.312 12.474 3.604 9.831 1.803 15.095-1.959 14.448-3.502 9.416-8.252 10.351-3.631 4.892-7.838-2.05-6.434 10.202-5.941 8.886-4.807 11.308-1.924 11.674-6.387 7.243 3.074 14.135.891 12.949-1.84 11.154-5.176 9.226-12.299 7.691-16.207.602 8.314-9.509 4.715-9.02-9.16-5.363-10.281 3.597-13.762.668-9.859-4.184-7.426-8.378-2.799-9.167-6.564-1.279-11.201-.593-.338-12.836.023-9.556.117-7.659 13.75-3.792 11.787-4.784 10.236-5.501 10.986-7.52 11.85-8.942 10.461-10.186 9.477-11.266s5.197-8.138 6.318-9.97c1.121-1.832 7.645-11.013 7.645-11.013l3.328-11.379 4.025-13.739.299-16.598-3.365-14.272-5.502-11.944-9.076-11.404 2.398-7.451 6.398-12.773 3.32-13.881-.908-11.665z" fill-rule="evenodd" clip-rule="evenodd" fill="#49b37e"/><path d="M145.587 22.2c-10.232 62.548-30.008 124.499-39 152.625m3.75-143.25c5.25-12.188 39-42.562 35.25-9.375M77.993 207.544c-17.625-53.624-15.188-95.25 32.344-175.969m5.393 114.051s21.889-37.27 67.264-28.645m77.999 30.375s-13.125-40.875-78-30.375m61.875-100.875s-7.5 46.499 16.125 131.25m5.25-128.626s-16.5-30.75-21.375-2.624m44.226 197.384c30.755-11.866 19.149-127.259-22.851-194.76m-149.625 18c-1.5 49.876-27.428 146.433-38.625 179.626m-4.5 78.376c5.25-30.375-1.719-57.22 4.5-78.376m28.594-41.531c24.375-15 68.156-32.842 120.281-11.467m-70.5-29.502s-18.068 6.643-28.943 27.268M270.368 60.356c-.375 84.75 22.587 112.951 21.087 127.576" fill="none" stroke="#000" stroke-width="8.504" stroke-linecap="round" stroke-linejoin="round" stroke-miterlimit="22.926"/><path d="M82.118 138.604a4.252 4.252 0 1 1 0 8.504 4.252 4.252 0 0 1 0-8.504zm211.5 6.75a4.252 4.252 0 1 1 0 8.505 4.252 4.252 0 0 1 0-8.505z" fill-rule="evenodd" clip-rule="evenodd"/><path d="M201.051 181.426s13.875-1.875 27.75 11.625m-119.683-.695s7.125-12 30.375-10.125m43.5-65.25s45 6 54 64.875m34.875 51.375s-30-15.749-34.875-51.375m42.375 94.5s26.25-25.125-7.5-43.125m23.692-4.723c-18.375-21.75-25.566-59.402-34.566-81.152m1.499 43.125c12 29.251 66.75 39.75 28.5 97.501m16.5-47.626c6.834 7.688 21.375 16.125 4.5 43.501m-142.235 25.56c12-62.333-13.333-153.333-13.333-153.333m115.443 77.147s1.875 36.001 7.5 43.125m-27.75-7.125s7.598 10.797 27.75 7.125M92.993 259.482s24.75-4.501 43.875 15.374m73.875-5.625s16.5-18.75 35.625-18m-173.427-59.54s-47.916 17.258-34.416 75.384M27.65 303.45s18.375-10.5 10.875-36.375m-7.934 116.092c-17.5-11.75-47.771-52.737-2.941-79.717m2.941 79.717S53.898 402.45 10.4 428.325m48.375 24c-27.375 34.875-66.75-8.25-48.375-24m28.125-70.5c18.566 18.925 21.233 40.925 1.875 68.25m188.625 37.875c-5.625 12.75 6.375 43.125 41.25 28.125m0 0s6.375.75 10.875 4.5m3-79.875s-12.375 11.625-4.875 43.125m32.718-175.968s-13.969 18.562 17.906 45.188 21.858 71.04-3.475 85.04" fill="none" stroke="#000" stroke-width="8.504" stroke-linecap="round" stroke-linejoin="round" stroke-miterlimit="22.926"/><path d="M333.65 380.419c.664 17.753-8.457 30.225-20.19 47.66-4.472 6.645-10.768 23.907-5.24 35.113a16.586 16.586 0 0 0 1.964 3.086m.591-106.109s4.125 26.625-7.875 52.5-2.65 45.972-1.125 55.5m-93.844-254.157c-.562-10.124 15.562-13.688 20.062-2.25m-13.082 53.36c.375-13.875-6.746-36.434-6.98-51.11m24.375 27.562s.562 6 .375 11.062m-5.813-31.312s2.812-3.938 1.125-9.562m-12.937 22.125s8.062-6.938 11.812-12.562m5.438 20.249s-15.375-4.876-17.25-7.688m-82.5-15.374c3.375-12.938-12.562-23.626-18.937-3m-9.366 43.764s5.24-32.702 9.365-43.764m14.063 24.562s-6.199 20.437-3.85 24.937m-8.525-37.124s9-5.999 17.25-9.375m-4.875 21.562c.75-1.875-8.254-8.111-12.375-12.188" fill="none" stroke="#000" stroke-width="8.504" stroke-linecap="round" stroke-linejoin="round" stroke-miterlimit="22.926"/><path d="M172.554 270.867s18.55 97.216 18.376 99.216c-.174 2 .001 61.334.001 61.334S91.898 382.755 89.66 380.419c-2.237-2.336-24.896-35.807-21.735-59.669 3.162-23.862 7.39-37.265 18.444-43.632 11.055-6.368 86.185-6.251 86.185-6.251z" fill-rule="evenodd" clip-rule="evenodd" fill="#f8d63f"/><path d="M180.461 344.138c2.082-1.333-11.763 9.587-13.733 9.1S66.275 294.732 66.275 294.732s-17.312 22.018-17.85 34.685c-.538 12.667 5.333 43.333 18.667 59.333 13.333 16 46.68 63.333 47.84 65.333 1.16 2-13.031 47.334-13.031 47.334s6.356 14.137 8.273 15.068c1.917.932 44.285-3.168 55.101-3.785s35.777 0 35.777 0-12.841-158.559-13.393-161.559c-.552-2.999-7.198-7.003-7.198-7.003z" fill-rule="evenodd" clip-rule="evenodd" fill="#68569d"/><path d="M190.932 328.083c2.492 1.334 95.421-10 95.421-10l27.318 10.109-9.998 55.508-33.398 33s-16.587 45.783-14.719 47.25c1.868 1.467 33.753 30.254 33.811 32.193.058 1.939-15.248 16.557-15.248 16.557h-52.125l-31.061-5.533-18.256-165.75 18.255-13.334z" fill-rule="evenodd" clip-rule="evenodd" fill="#49b37e"/><path d="M279.275 459.825s8.625 24.375-9 32.25M69.758 502.13c13.103 14.776 49.625-5.018 28.158-48.788" fill="none" stroke="#000" stroke-width="8.504" stroke-linecap="round" stroke-linejoin="round" stroke-miterlimit="22.926"/><path d="M190.932 468.169c-.175 2.581-14.202 44.531 19.811 44.531 34.014 0 40.781 1.594 40.781 1.594 13.977 3.12 62.25 10.875 50.25-46.125" fill="none" stroke="#000" stroke-width="8.504" stroke-linecap="round" stroke-linejoin="round" stroke-miterlimit="22.926"/><path d="M40.4 426.075c-37.127 69.75 61.5 86.625 61.5 86.625s34.888 11.463 95.403-3.212M53.525 308.7s-37.684 26.967-15 49.125" fill="none" stroke="#000" stroke-width="8.504" stroke-linecap="round" stroke-linejoin="round" stroke-miterlimit="22.926"/></g></g><g id="n0302"><g><path fill-rule="evenodd" clip-rule="evenodd" fill="#fff" d="M169.025 422.325l.621 10.198.57 33.546-.012 13.692-.429 8.189 11.171 4.483 13.186 1.258 13.561-1.988 5.623-1.971-2.581-7.526-.822-13.303-.158-33.205.145-11.873-12.778.789-11.623-.124-16.474-2.165z"/><path fill-rule="evenodd" clip-rule="evenodd" fill="#f8d63f" d="M116.734 498.701l11.14-7.104 11.986-5.758 11.499-4.018 11.619-2.791 7.277-1.559-.48 10.479 9.199 4.045 12.291 1.422 9.648-.72 11.356-2.598-1.797-12.171 1.281-6.067 16.109 1.887 9.896 3.723 10 4.946 9 5.533 6.666 2.5 6.851 1.625 10.875 4.5-2.678 6.119-4.074 5.802-6.278 6.608-10.451 8.212-12.029 6.968-18.065 7.015-21.666 3.96-20.449-.392-15.082-2.893-15.238-5.306-15.686-8.175-11.601-8.001-8.696-8.335-2.423-9.456z"/><path d="M169.025 422.325s2.25 48 .75 65.625m40.125-64.125s-.75 49.5 1.125 60.375m-45.375 3s26.625 14.625 52.875 0m-48.27-9.729s-26.73 3.729-46.23 16.479m-2.25 17.625s-11.773-11.826 2.25-17.625m157.125 2.625c-7.5 27-85.875 77.625-159.375 15m56.625-5.25s15.375 6.75 34.875.75" fill="none" stroke="#000" stroke-width="8.504" stroke-linecap="round" stroke-linejoin="round" stroke-miterlimit="22.926"/><path d="M210.011 471.878s8.503.67 16.413 2.872c0 0 31.816 9.335 43 15.7 0 0 7.226 2.375 11.726 6.125m-112.125-74.25c16.664 2.648 25.125 3.375 40.875 1.5" fill="none" stroke="#000" stroke-width="8.504" stroke-linecap="round" stroke-linejoin="round" stroke-miterlimit="22.926"/></g></g><g id="n0303"><g><g><path d="M159.267 300.777l4.558 8.599s10.697.814 21-1.667c10.303-2.48 17.667-7.333 17.667-7.333l-.272-13.682-3.586-10.201-7.57-9.324-12.678-2.862-8.352 1.469-8.447 4.503-4.17 6.64-.355 8.77 1.043 6-.28 4.688 1.419 4.238a.107.107 0 0 0 .023.162z" fill-rule="evenodd" clip-rule="evenodd" fill="#68569d"/><path d="M157.285 278.318c1.875-14.032 30.006-20.609 38.812-6.188m-30.562 24.375s-11.109 1.527-8.25-18.188m41.062 13.126c4.576-1.807 6.562-6.188-2.25-19.313m-23.062 11.063s.75 12.75-7.5 13.312m18.937-15.562s4.5 12.375 13.875 10.5" fill="none" stroke="#000" stroke-width="8.504" stroke-linecap="round" stroke-linejoin="round" stroke-miterlimit="22.926"/></g><path d="M160.159 296.376s.333 13.667 16.667 12c16.333-1.667 20-2.667 22.333-5.333 2.333-2.667 1.01-12.18 1.01-12.18" fill="none" stroke="#000" stroke-width="8.504" stroke-linecap="round" stroke-linejoin="round" stroke-miterlimit="22.926"/></g></g><g id="n0304"><g><path d="M173.564 309.094s8.834-5.777 14.344-2.25l8.918-2.067 13.004-4.858 15.67-6.943 15.221-7.046 15.604-5.391 14.853-.63 13.371 5.517 9.647 8.58 8.387 12.599 6.451 19.343.586 17.419-3.41 13.916-6.969 16.598-9.996 16.324-11.809 14.299-11.531 10.934-19.535 13.938-25.943 11.733-20.973 3.785-18.826-.666-28.576-5.467-29.926-10.182-30.662-17.543-20.037-18.035-12.236-18.605-7.451-19.073-1.752-22.823 4.365-15.064 9.461-13.08 11.658-8.605 16.473-6.307 19.572-1.701 18.154 4.255 18.275 8.069 12.99 6.115 12.628 2.912z" fill-rule="evenodd" clip-rule="evenodd" fill="#e085ad"/><path fill-rule="evenodd" clip-rule="evenodd" fill="#49b37e" d="M113.828 329.329l-.733 7.045 1.121 7.832 5.604 6.666 9.588-.435 5.029 6.029 6.752 2.865 10.719-3.832 4.966-1.072 2.432 8.888 3.873 7.551 5.799 4.84 5.949 1.403 2.121 4.477-6.424 3.674-8.9 8.313-6.473-4.956-5.629-1.174 1.161-5.505-8.278-4.324-8.619 1.099-7.301 6.815-4.716 8.975-3.848 6.856-13.203-9.107-9.42-10.316-5.768-12.188-1.183-12.039 2.843-11.662 5.409-8.884 6.941-5.989 10.188-1.845z"/><path d="M200.677 379.03l1.961-3.861 5.738-5.783 2.633-7.605.531-4.029 7.998.968 7.645-2.661 5.162-7.12 4.967 1.715 6.674-.334 3.838-4.459 1.889-6.16 5.959-3.274 1.84-6.447-1.795-11.449 8.607.803 6.127 4.782 4.234 8.354 1.76 7.395.662 12.949-2.035 12.131-3.773 10.02-3.379 5.996-4.074-4.833-7.928-6.851-7.9-1.721-8.035 4.003-4.334 5.06-.869 7.378-5.418 4.332-3.578 4.299-8.844-1.866-6.195-6.955-6.779-3.649c-.002-.003-3.07-1.561-3.289-1.128z" fill-rule="evenodd" clip-rule="evenodd" fill="#68569d"/><path fill-rule="evenodd" clip-rule="evenodd" fill="#f8d63f" d="M161.312 393.141l9.312-7.881 7.489-4.161 8.81-2.724 11.653.141 9.802 3.803 9.508 8.432-12.73 3.437-6.703 4.632-5.776-1.118-11.254-4.299-10.883 2.352-4.644 3.135-4.584-5.749z"/><path fill-rule="evenodd" clip-rule="evenodd" fill="#81cece" d="M118.021 401.359l3.512-5.921 4.609-9.066 6.471-6.918 8.927-2.024 9.243 4.508-1.161 5.505 8.866 3.652 5.117 4.92 3.318 2.181 7.367-4.043 10.959-.023 11.096 6.558 7.75-5.897 12.844-4.032 8.844 1.866 6.287-6.465 3.578-9.544 6.051-7.839 11.486-.692 8.574 5.754 6.686 6.288-7.09 9.274-9.961 8.858-12.447 7.576-14.889 6.039-18.322 4.381-18.789 1.782-16.145-.43-14.883-2.043-14.111-3.602-11.305-4.355-12.482-6.248z"/><path fill-rule="evenodd" clip-rule="evenodd" fill="#fff" d="M182.751 331.094l-7.834 3.715-14.013 2.439-16.082-1.063-15.604-3.057-15.39-2.799-.733 7.045 1.121 7.832 6.582 6.998 8.61-.767 5.029 6.029 6.752 2.865 10.719-3.832 4.966-1.072 1.954 7.139 4.351 9.3 7.266 5.427 14.437-.743 14.635.864 8.859-7.029 2.899-9.62 8.264-1.047 9.031-3.832 3.775-5.949 8.303 1.548 5.258-2.397 3.806-8.39 6.778-4.405 1.021-5.316-.978-3.728-.817-7.721-10.527 3.795-13.078 5.7-14.826 4.625-13.467 2.085-10.301-.492-10.766-4.147z"/><path d="M253.775 281.3c35.691-11.993 62.195 34.356 55.07 66.606M181.158 309.1c23.437-3.938 53.117-22.743 72.617-27.8m18.32 21.982s18.907 5.818 18.375 23.148m-187.875-12.648s-17.625-1.5-24.75 20.625M209.376 444c43.875-9 88.313-48.188 99.469-96.094M168.501 442.5c16.664 2.648 25.125 3.375 40.875 1.5M54.501 365.25c6.75 16.875 30 61.5 114 77.25m-43.875-152.25c-31.875-10.876-92.736 11.403-70.125 75m122.547-56.15c-17.719-1.781-26.734-10.412-52.422-18.85m56.356 25.675c-.361 7.944.551 13.356 1.77 14.169m-70.674-.786c13.191-.485 47.424 15.411 70.674.786m63.374-8.25s-42.375 22.5-63.375 8.25m94.5 19.5s.75-43.875-31.125-27.75m-120 83.625c52.221 27.271 149.699 11.144 151.125-55.875m-165.173-20.286c-17.25-3.375-49.701 46.911 14.049 76.161m57.281-60.282s1.557 22.616 1.475 30.363m25.9-32.051s8.418 41.949-25.9 32.051m-29.225-27.176c2.92 14.965 6.326 34.477 29.225 27.176m26.657-17.8s15.367 5.438 20.805-8.814m16.313-8.999s1.312 16.876-16.312 9m24.187-22.688s5.25 11.064-7.875 13.688m-119.25 10.5s8.25 16.125 22.5 5.062m-38.813-19.125s-.938 20.062 16.313 14.062m-11.387 42.89s11.387-26.018 33.887-8.151M135.97 397.5s13.125-23.625 30 1.5m30.375 1.688S181.533 385.313 165.97 399m59.813-6.375s-12.562-7.688-29.438 8.062m54.75-14.571s-18.375-16.024-25.312 6.509m6.937-10.876s12.154-27.965 31.125-5.625m-102.533 17.017s28.84-32.691 57.531-2.353" fill="none" stroke="#000" stroke-width="8.504" stroke-linecap="round" stroke-linejoin="round" stroke-miterlimit="22.926"/></g></g></svg>