<?xml version="1.0" encoding="utf-8"?>
<!-- Generator: Adobe Illustrator 19.2.1, SVG Export Plug-In . SVG Version: 6.00 Build 0)  -->
<svg version="1.1" id="_x33_" xmlns="http://www.w3.org/2000/svg" xmlns:xlink="http://www.w3.org/1999/xlink" x="0px" y="0px"
	 viewBox="0 0 37.413 92.153" style="enable-background:new 0 0 37.413 92.153;" xml:space="preserve">
<g id="_x33__2_">
	<g>
		<path style="fill:#FFFFFF;" d="M0,66.917h11.801v4.896c0,7.156,1.758,11.3,6.905,11.3c5.148,0,6.906-4.144,6.906-11.3V61.142
			c0-8.286-2.135-10.922-10.672-10.922h-3.139V39.673h4.018c7.533,0,9.417-2.009,9.417-10.922V18.707
			c0-7.784-2.386-9.667-5.901-9.667c-5.147,0-6.905,4.143-6.905,11.299v3.013H0.627C0.627,6.026,4.394,0,19.334,0
			c14.689,0,17.703,6.905,17.703,24.105c0,15.694-2.009,18.833-11.049,20.464v0.251c7.784,1.255,11.425,3.264,11.425,24.984
			c0,16.321-3.766,22.348-18.707,22.348C3.766,92.153,0,86.126,0,69.805V66.917z"/>
	</g>
</g>
</svg>
