<?xml version="1.0" encoding="utf-8"?>
<!-- Generator: Adobe Illustrator 19.2.1, SVG Export Plug-In . SVG Version: 6.00 Build 0)  -->
<svg version="1.1" xmlns="http://www.w3.org/2000/svg" xmlns:xlink="http://www.w3.org/1999/xlink" x="0px" y="0px"
	 viewBox="0 0 337.006 549.587" style="enable-background:new 0 0 337.006 549.587;" xml:space="preserve">
<g id="n3001">
	<g>
		<g>
			<polygon style="fill-rule:evenodd;clip-rule:evenodd;fill:#4AB57E;" points="149.507,-11.345 144.547,-18.36 145.06,-28.54 
				152.986,-31.871 156.335,-39.312 158.625,-46.834 167.872,-57.737 180.47,-61.795 194.12,-61.245 206.28,-56.057 
				214.995,-46.298 218.796,-40.971 217.759,-32.694 222.921,-24.846 222.237,-15.932 213.6,-8.951 208.767,-4.498 199.955,-5.061 
				189.348,-5.013 172.291,-6.44 159.703,-8.784 149.507,-11.345 			"/>
			<path style="fill-rule:evenodd;clip-rule:evenodd;fill:#67559E;" d="M131.508,19.201l-7.081-6.162l-1.445-7.93l4.645-6.014
				l8.242-4.562l15.631-5.378l8.204,2.06l9.848,1.834l8.24,1.17l11.557,0.768l10.607-0.048c0,0,6.74,0.431,7.776,0.497
				c1.036,0.065,10.422,1.655,10.422,1.655l7.58,2.062l5.711,5.967l3.118,5.898l0.831,6.608l-0.75,4.688l-8.315,2.743l-11.098,2.764
				l-11.791,1.869l-11.079,0.588l-11.226-0.904l-10.248-2.706l-11.015-5.076l-9.763-2.864l-9.698-0.745L131.508,19.201
				L131.508,19.201z"/>
			<path style="fill-rule:evenodd;clip-rule:evenodd;fill:#FFFFFF;" d="M72.829,222.001L69,209.492l-1.365-16.408l1.062-16.053
				l2.409-14.314l1.252-15.812l-1.824-13.287l1.261-13.338l1.061-17.269l5.159-16.847l7.744-20.517l11.447-21.396l14.69-15.376
				c0,0,15.004-8.326,16.027-8.65c1.024-0.325,16.076-1.967,16.076-1.967l17.454,3.994l14.557,5.768l16.35,2.258l15.319-1.125
				l15.066-3.101c0,0,9.437,7.598,9.738,6.663c0.302-0.934,16.171,5.359,16.171,5.359l16.103,9.464l13.861,12.568l9.365,11.796
				l2.703,11.075l3.425,19.517l1.457,19.124l0.436,18.908l0.531,20.619l2.038,12.464l2.996,12.416l1.236,16.172l0.245,11.053
				L303.828,225C303.828,225,161.233,253.217,72.829,222.001L72.829,222.001z"/>
			<g>
				<defs>
					<polygon id="SVGID_1_" points="69.906,319.929 74.323,309.744 83.241,296.213 97.841,286.031 109.149,278.353 125.309,276.506 
						139.93,278.861 151.465,279.813 146.067,260.096 150.171,243.227 161.816,228.407 177.448,215.719 189.278,213.286 
						200.743,221.019 214.834,237.242 222.434,253.085 225.432,263.597 221.516,274.258 222.159,278.637 236.79,274.704 
						252.108,273.058 270.375,275.242 286.388,282.68 296.334,291.66 305.244,305.012 310.062,316.305 313.528,310.766 
						312.247,293.774 307.374,275.377 301.754,264.764 305.605,245.017 309.452,213.014 310.702,179.909 309.363,151.071 
						305.335,121.902 297.526,91.22 286.543,63.875 272.934,40.706 252.632,18.95 230.574,6.342 207.679,29.153 186.247,30.403 
						170.886,26.668 143.999,18.259 125.356,21.437 110.532,34.431 96.501,52.726 83.981,78.295 75.621,103.701 70.042,129.572 
						67.428,150.891 66.38,171.134 66.808,199.747 68.73,229.234 70.593,257.627 71.106,275.771 69.697,286.501 66.309,299.526 
						64.626,313.684 69.906,319.929 					"/>
				</defs>
				<clipPath id="SVGID_2_">
					<use xlink:href="#SVGID_1_"  style="overflow:visible;"/>
				</clipPath>
				
					<rect x="11.785" y="-75.083" style="clip-path:url(#SVGID_2_);fill-rule:evenodd;clip-rule:evenodd;fill:#E186AE;" width="176.385" height="486.264"/>
			</g>
			
				<path style="fill-rule:evenodd;clip-rule:evenodd;fill:none;stroke:#000000;stroke-width:8.5039;stroke-linecap:round;stroke-linejoin:round;stroke-miterlimit:22.9256;" d="
				M188.513,31.059c0.201-2.482,1.278-2.39-2.692,72.113c-1.035,19.417-0.847,90.287-0.847,90.287"/>
			<path style="fill-rule:evenodd;clip-rule:evenodd;fill:#67559E;" d="M131.508,19.201l-6.036-5.252l-10.9-1.049l-11.969,3.287
				L90.667,24.2l-6.974,7.853l-6.12,9.878l-6.826,16.624L60.109,70.448L45.872,91.656l-17.762,27.758l-13.86,27.228L5.22,174.804
				L1.919,213l2.213,32.95l3.695,28.838l3.769,29.929l0.789,23.414l-1.618,26.841l-2.517,21.303l-3.879,26.174l-2.754,23.878
				l0.211,21.324l4.053,19.414l7.004,14.278l9.613,10.413l8.834,6.213l11.569,6.018l8.646,3.67l7.202-1.381l4.288,15.408
				l7.001,15.298l4.608,11.899l6.564,0.146l1.553-11.277l-1.05-12.389l0.213-11.429l7.283,0.021l3.242-7.785l9.564,2.335
				l10.992,4.969l8.951,7.07l8.244,5.016l8.593-0.018l10.17-7.298l7.368-8.083l7.706-4.216l8.599,0.599l6.219,4.489l8.504,7.264
				l8.481,2.989l9.452-1.628l6.319-4.4l9.148-3.381l8.212,4.064l4.549,4.427l7.646,1.274l12.032-1.342l6.793,1.299l10.72,6.917
				l6.736,4.717l7.699,3.497l8.392,2.23l4.182-16.233l9.903-14.196l4.809-20.427l6.706-24.606l3.744-14.484l5.252-8.378
				l-0.311-3.398l1.892-22.331l2.336-23.641l2.899-25.616l3.779-29.719l2.887-21.232l3.772-27.83l2.209-18.398l1.038-11.031
				l3.387,0.022l-0.318-37.333l-0.562-17.811l-1.693-26.484l-3.34-23.331l-3.442-15.728l-5.471-18.531l-5.915-16.438l-6.405-17.143
				l-10.483-25.409l-8.96-13.188l-12.896-12.215l-13.58-7.618l-19.079-4.699l-15.305,0.405l-4.502,8.999l4.318,5.491l12.311,6.38
				l12.821,9.058l10.929,10.557l7.528,9.482l3.309,14.527l3.359,21.226l0.988,15.724l0.311,14.801l0.163,10.874l13.305-4.583
				l2.029,11.616l2.242,15.981l6.957,16.438l-1.633,9.428l-2.522,9.778l-5.204,7.313l-7.595,7.932c0,0-128.578,31.36-231.285-2.331
				c-0.275-0.09-2.017,4.938-2.017,4.938l-8.055,0.043l-6.488-5.632l-2.218-8.568l-3.114-7.405l-4.787-7.636l-4.046-10.138
				l-2.229-11.289l1.685-8.44l7.812-7.354l5.133-8.129l5.628,0.549l5.312,0.311l6.707,2.935l-0.709-11.38l-0.567-14.434
				l0.295-11.458l2.105-14.528l3.68-12.016l4.072-12.281l5.63-14.173l7.279-14.521l9.924-12.294l12.143-11.469L131.508,19.201
				L131.508,19.201z"/>
			<polygon style="fill-rule:evenodd;clip-rule:evenodd;fill:#F9D740;" points="70.915,215.747 67.881,200.4 68.029,187.128 
				69.901,169.874 73.014,159.747 68.378,153.344 62.369,151.721 55.289,153.008 50.04,157.498 45.132,164.611 38.244,171.019 
				40.694,182.508 43.707,191.296 48.123,200.183 52.075,207.704 54.423,214.463 57.001,221.915 62.337,225.606 68.261,225.982 
				72.829,222.001 70.915,215.747 			"/>
			<polygon style="fill-rule:evenodd;clip-rule:evenodd;fill:#61F4E5;" points="296.114,149.055 304.272,146.104 309.418,144.472 
				311.304,154.413 312.569,164.078 313.69,172.068 317.022,183.035 319.143,192.454 319.014,197.934 317.514,206.717 
				312.074,214.145 303.549,220.772 302.995,210.739 302.601,197.275 301.842,188.106 299.939,177.836 297.117,167.394 
				296.291,156.184 296.114,149.055 			"/>
			
				<path style="fill:none;stroke:#000000;stroke-width:8.5039;stroke-linecap:round;stroke-linejoin:round;stroke-miterlimit:22.9256;" d="
				M158.143-44.623c1.075-8.134,10.011-16.871,25.884-17.447c14.156-0.515,29.775,5.549,34.679,25.322"/>
			
				<path style="fill:none;stroke:#000000;stroke-width:8.5039;stroke-linecap:round;stroke-linejoin:round;stroke-miterlimit:22.9256;" d="
				M155.329-36.748c-0.31-7.346,20.478-5.704,38.438-11.812"/>
			
				<path style="fill:none;stroke:#000000;stroke-width:8.5039;stroke-linecap:round;stroke-linejoin:round;stroke-miterlimit:22.9256;" d="
				M150.643-31.873c0,0,42,0.375,50.438-6"/>
			
				<path style="fill:none;stroke:#000000;stroke-width:8.5039;stroke-linecap:round;stroke-linejoin:round;stroke-miterlimit:22.9256;" d="
				M205.955-18.748c0,0-25.707,3.582-46.323-13.209"/>
			
				<path style="fill:none;stroke:#000000;stroke-width:8.5039;stroke-linecap:round;stroke-linejoin:round;stroke-miterlimit:22.9256;" d="
				M152.143-10.873c-8.25,0.938-12.938-20.438-1.5-21"/>
			
				<path style="fill:none;stroke:#000000;stroke-width:8.5039;stroke-linecap:round;stroke-linejoin:round;stroke-miterlimit:22.9256;" d="
				M211.955-34.498c8.625-0.188,21.187,18.938-3.188,30"/>
			
				<path style="fill:none;stroke:#000000;stroke-width:8.5039;stroke-linecap:round;stroke-linejoin:round;stroke-miterlimit:22.9256;" d="
				M127.579,13.689c0,0-6.645-24.533,24.563-24.562"/>
			
				<path style="fill:none;stroke:#000000;stroke-width:8.5039;stroke-linecap:round;stroke-linejoin:round;stroke-miterlimit:22.9256;" d="
				M208.767-4.498c0,0-33.562,0.937-56.625-6.375"/>
			
				<path style="fill:none;stroke:#000000;stroke-width:8.5039;stroke-linecap:round;stroke-linejoin:round;stroke-miterlimit:22.9256;" d="
				M208.767-4.498c0,0,27.188,0.75,26.625,22.125"/>
			
				<path style="fill:none;stroke:#000000;stroke-width:8.5039;stroke-linecap:round;stroke-linejoin:round;stroke-miterlimit:22.9256;" d="
				M206.143,5.064c0,0,8.437,3.188,5.062,18.75"/>
			
				<path style="fill:none;stroke:#000000;stroke-width:8.5039;stroke-linecap:round;stroke-linejoin:round;stroke-miterlimit:22.9256;" d="
				M197.33,30.002c0,0,11.069-23.349-19.539-35.782"/>
			
				<path style="fill:none;stroke:#000000;stroke-width:8.5039;stroke-linecap:round;stroke-linejoin:round;stroke-miterlimit:22.9256;" d="
				M234.643,22.314c0,0-41.625,16.314-68.438,2.25"/>
			
				<path style="fill:none;stroke:#000000;stroke-width:8.5039;stroke-linecap:round;stroke-linejoin:round;stroke-miterlimit:22.9256;" d="
				M97.205,44.252c0,0,27.187-42.188,69-19.688"/>
			
				<path style="fill:none;stroke:#000000;stroke-width:8.5039;stroke-linecap:round;stroke-linejoin:round;stroke-miterlimit:22.9256;" d="
				M70.861,110.533c0,0,10.688-44.062,26.345-66.281"/>
			
				<path style="fill:none;stroke:#000000;stroke-width:8.5039;stroke-linecap:round;stroke-linejoin:round;stroke-miterlimit:22.9256;" d="
				M127.579,13.689c0,0-37.406-11.532-55.969,42.28"/>
			
				<path style="fill:none;stroke:#000000;stroke-width:8.5039;stroke-linecap:round;stroke-linejoin:round;stroke-miterlimit:22.9256;" d="
				M42.267,168.376c0,0,21.75-26.623,28.594-57.843"/>
			
				<path style="fill:none;stroke:#000000;stroke-width:8.5039;stroke-linecap:round;stroke-linejoin:round;stroke-miterlimit:22.9256;" d="
				M72.829,222.001c0,0-10.313-18.188-1.875-58.312"/>
			
				<path style="fill:none;stroke:#000000;stroke-width:8.5039;stroke-linecap:round;stroke-linejoin:round;stroke-miterlimit:22.9256;" d="
				M71.484,108.082c-3,30.375,1.737,42.062-0.529,55.606"/>
			
				<path style="fill:none;stroke:#000000;stroke-width:8.5039;stroke-linecap:round;stroke-linejoin:round;stroke-miterlimit:22.9256;" d="
				M71.578,156.748c0,0-6.874-11.05-20.155-1.398"/>
			
				<path style="fill:none;stroke:#000000;stroke-width:8.5039;stroke-linecap:round;stroke-linejoin:round;stroke-miterlimit:22.9256;" d="
				M55.204,165.376c0,0,4.874,6.75,3,23.25c-1.875,16.5,7.308,14.47,9.841,13.797"/>
			
				<path style="fill:none;stroke:#000000;stroke-width:8.5039;stroke-linecap:round;stroke-linejoin:round;stroke-miterlimit:22.9256;" d="
				M39.454,174.938c0,0,0.937,15.75,11.062,29.062"/>
			
				<path style="fill:none;stroke:#000000;stroke-width:8.5039;stroke-linecap:round;stroke-linejoin:round;stroke-miterlimit:22.9256;" d="
				M70.392,225.563c0,0-12.985,3.949-15.721-9.198c-0.594-2.851-1.155-7.602-4.154-12.364"/>
			
				<path style="fill:none;stroke:#000000;stroke-width:8.5039;stroke-linecap:round;stroke-linejoin:round;stroke-miterlimit:22.9256;" d="
				M264.454,389.251c0,0-17.625,42-17.625,108"/>
			
				<path style="fill:none;stroke:#000000;stroke-width:8.5039;stroke-linecap:round;stroke-linejoin:round;stroke-miterlimit:22.9256;" d="
				M71.611,55.97c-3.376,17.25-57.281,67.405-67.031,122.155"/>
			
				<path style="fill:none;stroke:#000000;stroke-width:8.5039;stroke-linecap:round;stroke-linejoin:round;stroke-miterlimit:22.9256;" d="
				M12.454,313.5c-4.126-46.875-15.75-90.938-7.875-135.375"/>
			
				<path style="fill:none;stroke:#000000;stroke-width:8.5039;stroke-linecap:round;stroke-linejoin:round;stroke-miterlimit:22.9256;" d="
				M60.072,512.235c-27.177-10.811-49.478-26.651-55.598-49.901c-10.739-40.797,9.055-77.718,7.98-148.834"/>
			
				<path style="fill:none;stroke:#000000;stroke-width:8.5039;stroke-linecap:round;stroke-linejoin:round;stroke-miterlimit:22.9256;" d="
				M71.611,55.97c0,0-33.188,98.436-35.813,130.686s-20.249,34.125-6.375,153.375"/>
			
				<path style="fill:none;stroke:#000000;stroke-width:8.5039;stroke-linecap:round;stroke-linejoin:round;stroke-miterlimit:22.9256;" d="
				M77.797,428.906c4.875,33.75,5.25,37.5,3.375,121.875"/>
			
				<path style="fill:none;stroke:#000000;stroke-width:8.5039;stroke-linecap:round;stroke-linejoin:round;stroke-miterlimit:22.9256;" d="
				M87.922,334.781c-2.624,79.875,27.751,123.75,0.375,181.125"/>
			
				<path style="fill:none;stroke:#000000;stroke-width:8.5039;stroke-linecap:round;stroke-linejoin:round;stroke-miterlimit:22.9256;" d="
				M77.797,569.531c-1.729-33.518-13.734-34.377-19.207-64.105c-10.31-55.995-20.936-102.266-29.168-165.395"/>
			
				<path style="fill:none;stroke:#000000;stroke-width:8.5039;stroke-linecap:round;stroke-linejoin:round;stroke-miterlimit:22.9256;" d="
				M216.165,27.625c0,0,53.632,7.906,72.382,47.656"/>
			
				<path style="fill:none;stroke:#000000;stroke-width:8.5039;stroke-linecap:round;stroke-linejoin:round;stroke-miterlimit:22.9256;" d="
				M297.922,172.031c-4.312-18.938,1.875-60.938-9.375-96.75"/>
			
				<path style="fill:none;stroke:#000000;stroke-width:8.5039;stroke-linecap:round;stroke-linejoin:round;stroke-miterlimit:22.9256;" d="
				M303.828,225c-1.875-10.688,0.938-37.5-5.906-52.969"/>
			
				<path style="fill:none;stroke:#000000;stroke-width:8.5039;stroke-linecap:round;stroke-linejoin:round;stroke-miterlimit:22.9256;" d="
				M307.391,219.188c7.125-7.688,13.312-12.375,11.438-31.5"/>
			
				<path style="fill:none;stroke:#000000;stroke-width:8.5039;stroke-linecap:round;stroke-linejoin:round;stroke-miterlimit:22.9256;" d="
				M302.601,197.275c15-1.688,3.789-20.825,9.103-37.9"/>
			
				<path style="fill:none;stroke:#000000;stroke-width:8.5039;stroke-linecap:round;stroke-linejoin:round;stroke-miterlimit:22.9256;" d="
				M310.578,118.312c0,0-2.812,67.501,13.125,72.001"/>
			
				<path style="fill:none;stroke:#000000;stroke-width:8.5039;stroke-linecap:round;stroke-linejoin:round;stroke-miterlimit:22.9256;" d="
				M296.144,150.753c0,0,10.734-7.293,14.553-6.18"/>
			
				<path style="fill:none;stroke:#000000;stroke-width:8.5039;stroke-linecap:round;stroke-linejoin:round;stroke-miterlimit:22.9256;" d="
				M224.516,27.374c65.541-0.549,88.689,31.875,86.062,90.938"/>
			
				<path style="fill:none;stroke:#000000;stroke-width:8.5039;stroke-linecap:round;stroke-linejoin:round;stroke-miterlimit:22.9256;" d="
				M234.643,22.314c0,0,57.625-18.777,86.811,52.31"/>
			
				<path style="fill:none;stroke:#000000;stroke-width:8.5039;stroke-linecap:round;stroke-linejoin:round;stroke-miterlimit:22.9256;" d="
				M347.891,163.313c-5.812-40.312-17.49-60.855-26.438-88.688"/>
			
				<path style="fill:none;stroke:#000000;stroke-width:8.5039;stroke-linecap:round;stroke-linejoin:round;stroke-miterlimit:22.9256;" d="
				M352.016,258.938c0,0,0.666-66.689-4.125-95.625"/>
			
				<path style="fill:none;stroke:#000000;stroke-width:8.5039;stroke-linecap:round;stroke-linejoin:round;stroke-miterlimit:22.9256;" d="
				M323.047,540.843c2.25-145.124,24.924-230.865,28.969-281.905"/>
			
				<path style="fill:none;stroke:#000000;stroke-width:8.5039;stroke-linecap:round;stroke-linejoin:round;stroke-miterlimit:22.9256;" d="
				M321.64,125.062c-0.02,41.023,8.701,73.981-4.629,154.981c-17.624,107.096-56.499,137.511-56.871,226.019"/>
			
				<path style="fill:none;stroke:#000000;stroke-width:8.5039;stroke-linecap:round;stroke-linejoin:round;stroke-miterlimit:22.9256;" d="
				M329.909,421.824c-10.766,40.703-22.281,92.036-36.394,117.237"/>
			
				<path style="fill:none;stroke:#000000;stroke-width:8.5039;stroke-linecap:round;stroke-linejoin:round;stroke-miterlimit:22.9256;" d="
				M257.609,520.78c13.312,3.938,13.125,13.312,35.906,18.281"/>
			
				<path style="fill:none;stroke:#000000;stroke-width:8.5039;stroke-linecap:round;stroke-linejoin:round;stroke-miterlimit:22.9256;" d="
				M233.525,520.364c6.938,3.75,14.146-1.647,24.084,0.416"/>
			
				<path style="fill:none;stroke:#000000;stroke-width:8.5039;stroke-linecap:round;stroke-linejoin:round;stroke-miterlimit:22.9256;" d="
				M205.296,519.655c4.247-1.942,7.044-6.764,13.508-6.852c4.524-0.062,9.671,1.249,14.721,7.562"/>
			
				<path style="fill:none;stroke:#000000;stroke-width:8.5039;stroke-linecap:round;stroke-linejoin:round;stroke-miterlimit:22.9256;" d="
				M178.859,511.03c0,0,12.145,15.452,26.438,8.625"/>
			
				<path style="fill:none;stroke:#000000;stroke-width:8.5039;stroke-linecap:round;stroke-linejoin:round;stroke-miterlimit:22.9256;" d="
				M151.109,515.718c0,0,13.5-19.5,27.75-4.687"/>
			
				<path style="fill:none;stroke:#000000;stroke-width:8.5039;stroke-linecap:round;stroke-linejoin:round;stroke-miterlimit:22.9256;" d="
				M92.452,506.167c28.981,5.263,27.512,18.885,40.846,19.907c7.6,0.582,12.55-3.901,17.811-10.357"/>
		</g>
		<g>
			<polygon style="fill-rule:evenodd;clip-rule:evenodd;" points="121.204,175.633 118.592,171.314 116.599,164.273 
				115.575,155.143 115.436,145.604 116.008,134.552 116.999,124.862 118.543,117.863 121.561,113.94 128.142,111.589 
				135.726,113.43 138.953,116.483 139.978,121.299 140.107,127.912 137.671,131.325 129.216,135.735 121.866,138.738 
				122.134,141.508 128.362,144.804 135.267,149.356 140.145,153.32 140.14,159.293 138.866,165.459 137.019,170.217 
				133.284,176.428 130.036,178.835 126.388,179.272 121.204,175.633 			"/>
			<polygon style="fill-rule:evenodd;clip-rule:evenodd;" points="232.326,143.211 232.123,134.618 232.03,126.13 233.198,120.457 
				237.437,116.633 246.301,114.383 253.302,116.329 256.263,123.549 255.523,130.501 247.316,136.557 240.673,141.373 
				240.925,144.949 247.547,149.208 255.387,155.453 257.79,158.691 258.196,163.599 257.732,166.843 256.088,170.591 
				252.996,173.616 249.634,176.57 243.318,175.124 236.619,169.655 233.313,162.189 232.652,151.738 232.326,143.211 			"/>
			
				<path style="fill:none;stroke:#000000;stroke-width:8.5039;stroke-linecap:round;stroke-linejoin:round;stroke-miterlimit:22.9256;" d="
				M216.97,67.9c0,0,23.85-4.296,39.632,11.081"/>
			
				<path style="fill:none;stroke:#000000;stroke-width:8.5039;stroke-linecap:round;stroke-linejoin:round;stroke-miterlimit:22.9256;" d="
				M109.593,89.508c0,0,11.758-18.97,32.515-17.612"/>
			
				<path style="fill:none;stroke:#000000;stroke-width:8.5039;stroke-linecap:round;stroke-linejoin:round;stroke-miterlimit:22.9256;" d="
				M136.905,93.043c0,0-2.657,12.469,0.495,21.971"/>
			
				<path style="fill:none;stroke:#000000;stroke-width:8.5039;stroke-linecap:round;stroke-linejoin:round;stroke-miterlimit:22.9256;" d="
				M119.345,93c0,0-2.546,8.678,6.134,18.856"/>
			
				<path style="fill:none;stroke:#000000;stroke-width:8.5039;stroke-linecap:round;stroke-linejoin:round;stroke-miterlimit:22.9256;" d="
				M104.918,101.25c0,0-0.759,5.165,15.793,16.134"/>
			
				<path style="fill:none;stroke:#000000;stroke-width:8.5039;stroke-linecap:round;stroke-linejoin:round;stroke-miterlimit:22.9256;" d="
				M139.817,120.131c0.868-9.108-19.944-14.103-22.386,1.546"/>
			
				<path style="fill:none;stroke:#000000;stroke-width:8.5039;stroke-linecap:round;stroke-linejoin:round;stroke-miterlimit:22.9256;" d="
				M121.866,138.738c0,0,16.269-6.033,18.057-9.546"/>
			
				<path style="fill:none;stroke:#000000;stroke-width:8.5039;stroke-linecap:round;stroke-linejoin:round;stroke-miterlimit:22.9256;" d="
				M139.817,120.131c0,0,0.853,5.079,0.105,9.062"/>
			
				<path style="fill:none;stroke:#000000;stroke-width:8.5039;stroke-linecap:round;stroke-linejoin:round;stroke-miterlimit:22.9256;" d="
				M117.431,121.677c0,0-7.314,47.853,5.847,55.691"/>
			
				<path style="fill:none;stroke:#000000;stroke-width:8.5039;stroke-linecap:round;stroke-linejoin:round;stroke-miterlimit:22.9256;" d="
				M140.145,153.32c0,0,2.02,12.096-7.831,24.368"/>
			
				<path style="fill:none;stroke:#000000;stroke-width:8.5039;stroke-linecap:round;stroke-linejoin:round;stroke-miterlimit:22.9256;" d="
				M120.727,140.877c0,0,10.264,4.243,19.417,12.443"/>
			
				<path style="fill:none;stroke:#000000;stroke-width:8.5039;stroke-linecap:round;stroke-linejoin:round;stroke-miterlimit:22.9256;" d="
				M139.354,178.796c0,0-18.764-2.297-35.152,9.012"/>
			
				<path style="fill:none;stroke:#000000;stroke-width:8.5039;stroke-linecap:round;stroke-linejoin:round;stroke-miterlimit:22.9256;" d="
				M133.292,187.223c0,0,2.139-5.631,3.074-8.605"/>
			
				<path style="fill:none;stroke:#000000;stroke-width:8.5039;stroke-linecap:round;stroke-linejoin:round;stroke-miterlimit:22.9256;" d="
				M121.608,188.761c0,0,3.897-6.313,4.78-9.489"/>
			
				<path style="fill:none;stroke:#000000;stroke-width:8.5039;stroke-linecap:round;stroke-linejoin:round;stroke-miterlimit:22.9256;" d="
				M224.629,99.314c0,0,6.582,3.994,10.081,14.401"/>
			
				<path style="fill:none;stroke:#000000;stroke-width:8.5039;stroke-linecap:round;stroke-linejoin:round;stroke-miterlimit:22.9256;" d="
				M239.399,91.667c0,0,7.499,9.436,5.009,21.903"/>
			
				<path style="fill:none;stroke:#000000;stroke-width:8.5039;stroke-linecap:round;stroke-linejoin:round;stroke-miterlimit:22.9256;" d="
				M262.147,103.149c0,0-2.201,9.431-9.829,13.789"/>
			
				<path style="fill:none;stroke:#000000;stroke-width:8.5039;stroke-linecap:round;stroke-linejoin:round;stroke-miterlimit:22.9256;" d="
				M229.31,177.758c0,0,23.338-5.047,39.696,4.107"/>
			
				<path style="fill:none;stroke:#000000;stroke-width:8.5039;stroke-linecap:round;stroke-linejoin:round;stroke-miterlimit:22.9256;" d="
				M252.535,176.855c0,0-0.757,4.813,4.15,8.68"/>
			
				<path style="fill:none;stroke:#000000;stroke-width:8.5039;stroke-linecap:round;stroke-linejoin:round;stroke-miterlimit:22.9256;" d="
				M241.664,176.411c0,0-1.276,4.063,1.804,8.715"/>
			
				<path style="fill:none;stroke:#000000;stroke-width:8.5039;stroke-linecap:round;stroke-linejoin:round;stroke-miterlimit:22.9256;" d="
				M232.024,124.213c-0.296-8.636,20.823-16.68,24.239-0.664"/>
			
				<path style="fill:none;stroke:#000000;stroke-width:8.5039;stroke-linecap:round;stroke-linejoin:round;stroke-miterlimit:22.9256;" d="
				M256.523,129.759c0,0-15.382,11.446-18.53,13.463"/>
			
				<path style="fill:none;stroke:#000000;stroke-width:8.5039;stroke-linecap:round;stroke-linejoin:round;stroke-miterlimit:22.9256;" d="
				M256.263,123.549c0,0,0.554,3.478,0.26,6.211"/>
			
				<path style="fill:none;stroke:#000000;stroke-width:8.5039;stroke-linecap:round;stroke-linejoin:round;stroke-miterlimit:22.9256;" d="
				M232.024,124.213c0,0-0.034,22.026,1.289,37.976c0.544,6.55,5.008,9.126,10.006,12.936"/>
			
				<path style="fill:none;stroke:#000000;stroke-width:8.5039;stroke-linecap:round;stroke-linejoin:round;stroke-miterlimit:22.9256;" d="
				M237.993,143.222c0,0,17.54,9.894,19.797,15.468"/>
			
				<path style="fill:none;stroke:#000000;stroke-width:8.5039;stroke-linecap:round;stroke-linejoin:round;stroke-miterlimit:22.9256;" d="
				M252.996,173.616c0,0,6.97-3.59,4.795-14.926"/>
		</g>
		<path style="fill-rule:evenodd;clip-rule:evenodd;fill:#4AB57E;" d="M76.981,282.964c0,0-13.5-17.5-4.5-32.5s19-28,43.5-34
			s73,2.5,73,2.5l0.5,114.5c0,0-31.5-0.5-53.5-11.5S76.981,282.964,76.981,282.964z"/>
		<path style="fill-rule:evenodd;clip-rule:evenodd;fill:#F9D740;" d="M225.981,329.464c9.5-1.5,49.5-1,62-35.5s19.5-44.5,6.5-60.5
			s-25.5-26.5-58-20.5s-49.5,6.5-49.5,6.5l2.5,114L225.981,329.464z"/>
	</g>
</g>
<g id="n3002">
	<g>
		<polygon style="fill-rule:evenodd;clip-rule:evenodd;fill:#F9D740;" points="134.969,448.163 141.974,455.596 149.902,463.327 
			157.316,468.917 163.469,472.725 168.223,468.864 172.971,457.097 176.699,448.166 180.933,436.292 184.203,425.479 
			185.484,420.365 188.31,422.006 191.478,430.811 196.047,442.852 202.086,454.26 210.531,465.413 216.586,464.678 
			225.322,458.816 230.892,452.206 235.492,442.095 242.219,442.35 247.607,448.319 255.701,457.87 264.275,468.963 
			270.094,477.523 275.969,488.663 270.822,496.983 262.248,506.651 249.801,517.769 234.457,527.888 216.25,535.663 
			199.383,539.283 187.721,539.944 176.316,539.376 163.117,537.763 148.357,534.643 134.236,530.02 123.598,523.802 
			114.473,518.894 105.461,509.006 101.256,500.352 107.127,489.204 113.967,478.31 122.094,466.25 127.904,457.955 
			134.969,448.163 		"/>
		<polygon style="fill-rule:evenodd;clip-rule:evenodd;fill:#61F4E5;" points="170.402,395.213 165.344,394.35 160.476,398.543 
			154.486,407.264 148.508,416.783 143.037,425.38 136.535,433.239 132.531,441.038 137.279,449.614 143.752,457.537 
			152.629,465.531 161.305,471.387 163.469,472.725 169.396,465.957 174.146,454.421 178.328,443.834 182.568,430.885 
			186.898,421.185 180.223,415.052 172.359,409.005 168.81,404.756 170.402,395.213 		"/>
		<polygon style="fill-rule:evenodd;clip-rule:evenodd;fill:#E186AE;" points="190.56,422.756 190.674,428.57 193.924,437.776 
			199.066,448.556 205.488,459.299 210.531,465.413 216.586,464.678 224.437,459.605 230.892,452.206 234.584,444.091 
			236.857,435.838 237.344,431.1 232.156,420.591 225.639,408.592 220.625,399.678 215.406,390.6 209.221,394.324 210.556,400.063 
			211.185,405.693 205.396,412.078 197.992,418.215 190.56,422.756 		"/>
		<path style="fill-rule:evenodd;clip-rule:evenodd;fill:#FFFFFF;" d="M172.185,343.256c0,0,22.902-10.859,35.062,3.375
			l-0.381,9.902l-0.021,10.716l0.5,11.821l1.182,11.149c0,0,1.17,5.908,1.361,6.974c0.191,1.066,1.297,8.5,1.297,8.5l-5.789,6.385
			l-9.402,7.505l-5.434,3.173l-6.963-2.454l-8.248-8.158l-6.539-7.388l1.787-11.273l0.908-10.908l0.578-13.274l0.191-13.496
			l-0.025-7.505L172.185,343.256L172.185,343.256z"/>
		
			<path style="fill:none;stroke:#000000;stroke-width:8.5039;stroke-linecap:round;stroke-linejoin:round;stroke-miterlimit:22.9256;" d="
			M134.969,448.163c0,0-29.062,39.375-34.125,53.25"/>
		
			<path style="fill:none;stroke:#000000;stroke-width:8.5039;stroke-linecap:round;stroke-linejoin:round;stroke-miterlimit:22.9256;" d="
			M239.317,438.286c0,0,29.526,32.377,36.651,50.377"/>
		
			<path style="fill:none;stroke:#000000;stroke-width:8.5039;stroke-linecap:round;stroke-linejoin:round;stroke-miterlimit:22.9256;" d="
			M275.406,490.725c0,0-32.492,51.325-90.781,49.153c-36.977-1.378-72.838-14.149-81.531-35.466"/>
		
			<path style="fill:none;stroke:#000000;stroke-width:8.5039;stroke-linecap:round;stroke-linejoin:round;stroke-miterlimit:22.9256;" d="
			M132.531,441.038c0,0,6.188,17.625,30.938,31.688"/>
		
			<path style="fill:none;stroke:#000000;stroke-width:8.5039;stroke-linecap:round;stroke-linejoin:round;stroke-miterlimit:22.9256;" d="
			M213.719,465.788c0,0,21.938-6,23.625-34.688"/>
		
			<path style="fill:none;stroke:#000000;stroke-width:8.5039;stroke-linecap:round;stroke-linejoin:round;stroke-miterlimit:22.9256;" d="
			M215.406,390.6c0,0,17.062,29.25,21.938,40.5"/>
		
			<path style="fill:none;stroke:#000000;stroke-width:8.5039;stroke-linecap:round;stroke-linejoin:round;stroke-miterlimit:22.9256;" d="
			M165.344,394.35c-5.812,1.874-13.312,18.75-32.812,46.688"/>
		
			<path style="fill:none;stroke:#000000;stroke-width:8.5039;stroke-linecap:round;stroke-linejoin:round;stroke-miterlimit:22.9256;" d="
			M184.656,423.788c0,0-7.312,28.688-19.125,47.438"/>
		
			<path style="fill:none;stroke:#000000;stroke-width:8.5039;stroke-linecap:round;stroke-linejoin:round;stroke-miterlimit:22.9256;" d="
			M190.094,425.85c0,0,5.25,23.25,20.438,39.562"/>
		
			<path style="fill:none;stroke:#000000;stroke-width:8.5039;stroke-linecap:round;stroke-linejoin:round;stroke-miterlimit:22.9256;" d="
			M185.406,445.913c0,0-3.375,72.75-0.188,89.25"/>
		
			<path style="fill:none;stroke:#000000;stroke-width:8.5039;stroke-linecap:round;stroke-linejoin:round;stroke-miterlimit:22.9256;" d="
			M168.81,404.756c0,0,4.125-14.25,3.375-61.5"/>
		
			<path style="fill:none;stroke:#000000;stroke-width:8.5039;stroke-linecap:round;stroke-linejoin:round;stroke-miterlimit:22.9256;" d="
			M207.248,346.631c0,0-2.438,36.938,4.125,56.062"/>
		
			<path style="fill:none;stroke:#000000;stroke-width:8.5039;stroke-linecap:round;stroke-linejoin:round;stroke-miterlimit:22.9256;" d="
			M188.31,422.006c0,0-9.75-4.688-19.5-17.25"/>
		
			<path style="fill:none;stroke:#000000;stroke-width:8.5039;stroke-linecap:round;stroke-linejoin:round;stroke-miterlimit:22.9256;" d="
			M211.185,405.693c0,0-7.5,10.312-20.625,17.062"/>
	</g>
</g>
<g id="n3003">
	<g>
		<path style="fill-rule:evenodd;clip-rule:evenodd;fill:#E186AE;" d="M167.511,306.024l1.773-24.262l3.276-9.317l6.141-5.953
			l11.694-0.431l7.864,0.398l3.969,3.948c0,0,1.582,6.488,0.649,5.99c-0.934-0.498-4.918,3.325-4.918,3.325l0.976,6.792
			l-0.841,17.108l-8.438,2.681l-9.827,5.163l-6.13-3.373L167.511,306.024L167.511,306.024z"/>
		
			<path style="fill:none;stroke:#000000;stroke-width:8.5039;stroke-linecap:round;stroke-linejoin:round;stroke-miterlimit:22.9256;" d="
			M185.792,279.786c0,0,25.448,0.894,13.998-13.576"/>
		
			<path style="fill:none;stroke:#000000;stroke-width:8.5039;stroke-linecap:round;stroke-linejoin:round;stroke-miterlimit:22.9256;" d="
			M197.959,279.721c0,0,0.979,20.017-0.478,23.919"/>
		
			<path style="fill:none;stroke:#000000;stroke-width:8.5039;stroke-linecap:round;stroke-linejoin:round;stroke-miterlimit:22.9256;" d="
			M167.511,306.024c0,0-6.03-48.649,30.97-40.882"/>
	</g>
</g>
<g id="n3004">
	<g>
		<g>
			<path style="fill-rule:evenodd;clip-rule:evenodd;fill:#4AB57E;" d="M167.392,208.384l-3.615-6.566l1.091-6.846l4.916-8.058
				l6.08-6.481l6.807-5.84l7.079-2.677l7.48,1.06l5.607,3.046l5.934,5.34l4.57,5.525l3.511,6.115l1.389,6.231l-1.148,3.932
				l-4.471,3.48l-5.686,1.381C206.934,208.025,184.253,215.42,167.392,208.384L167.392,208.384z"/>
			
				<path style="fill:none;stroke:#000000;stroke-width:8.5039;stroke-linecap:round;stroke-linejoin:round;stroke-miterlimit:22.9256;" d="
				M167.392,208.384c0,0-14.918-9.885,15.278-33.791"/>
			
				<path style="fill:none;stroke:#000000;stroke-width:8.5039;stroke-linecap:round;stroke-linejoin:round;stroke-miterlimit:22.9256;" d="
				M197.229,172.976c8.807,1.977,36.307,31.813,9.706,35.049"/>
			
				<path style="fill:none;stroke:#000000;stroke-width:8.5039;stroke-linecap:round;stroke-linejoin:round;stroke-miterlimit:22.9256;" d="
				M197.229,172.976c-3.236-1.437-8.987-2.157-14.559,1.618"/>
			
				<path style="fill:none;stroke:#000000;stroke-width:8.5039;stroke-linecap:round;stroke-linejoin:round;stroke-miterlimit:22.9256;" d="
				M199.745,200.296c0,0,1.797,2.337,2.696,2.696"/>
			
				<path style="fill:none;stroke:#000000;stroke-width:8.5039;stroke-linecap:round;stroke-linejoin:round;stroke-miterlimit:22.9256;" d="
				M176.379,199.397c0,0-1.797,3.415-3.235,4.134"/>
		</g>
		<path style="fill-rule:evenodd;clip-rule:evenodd;fill:#E186AE;" d="M315.442,244.68l-3.979-11.475l-7.398-12.852l-11.542-11.381
			l-16.176-8.008l-15.696-2.94l-15.378,0.205l-17.493,2.648l-13.041,2.76l-17.818,3.577l-14.479,1.855l-16.572-0.884l-15.292-3.448
			l-15.784-1.432l-12.077-0.692l-13.931,2.031l-20.433,7.578l-13.17,9.628l-10.809,13.662l-5.847,13.428l-1.932,14.727l1.166,13.255
			l3.968,12.795l7.008,12.267l10.329,10.866l14.994,10.378l14.109,7.498l20.723,8.338l19.33,5.461l18.703,3.45l18.445,1.804
			l20.51-0.014l20.633-2.403l16.076-3.622l14.211-4.766l11.317-5.179l12.671-7.913l10.102-8.905l7.978-10.182l6.015-10.78
			l5.272-11.619l4.681-14.773l1.73-11.001L315.442,244.68z M282.675,280.73c-11.42,16.957-26.646,39.104-62.29,39.45
			c-35.644,0.346-68.173,2.076-92.742-13.15c-24.57-15.226-44.987-23.878-40.488-54.677c0,0,2.768-20.763,21.801-22.147
			c19.033-1.384,44.295,6.921,58.829,6.229c14.534-0.692,67.827-5.883,84.091-9.689c16.265-3.807,29.761-2.422,32.875,7.959
			C287.866,245.086,294.095,263.773,282.675,280.73z"/>
		<polygon style="fill-rule:evenodd;clip-rule:evenodd;fill:#FFFFFF;" points="105.278,233.138 106.724,238.782 107.206,245.472 
			111.017,252.452 117.943,257.004 124.072,256.641 132.732,259.891 142.883,258.31 146.976,256.561 156.59,262.604 
			167.245,265.979 178.619,266.456 183.84,262.81 193.355,266.32 205.134,266.945 211.351,264.5 218.402,258.487 224.901,261.047 
			234.347,261.832 241.067,260.159 245.16,256.931 252.737,258.563 260.092,257.067 264.643,253.605 269.314,244.938 
			271.134,235.897 272.716,230.066 263.001,227.348 255.194,227.008 241.579,228.599 228.851,231.134 212.26,234.042 
			194.434,235.626 176.538,236.018 160.944,234.331 148.042,231.161 131.392,228.532 117.608,229.387 105.278,233.138 		"/>
		<polygon style="fill-rule:evenodd;clip-rule:evenodd;fill:#FFFFFF;" points="105.872,294.732 109.17,288.969 115.398,281.893 
			122.661,278.529 129.634,279.476 133.245,281.561 134.815,287.96 142.08,288.257 147.752,291.297 153.452,296.912 161.5,293.664 
			170.574,293.403 178.983,295.882 185.347,299.339 190.404,295.61 199.064,291.958 208.563,291.6 214.981,293.511 219.015,295.82 
			226.245,291.285 233.283,288.299 237.495,282.153 243.166,277.838 250.775,269.69 257.39,266.705 266.748,267.062 
			274.107,271.176 277.512,275.45 281.979,279.772 278.67,286.153 272.337,294.914 263.605,303.268 255.711,308.635 
			245.211,313.695 230.657,318.019 214.372,320.328 201.719,320.817 182.7,320.233 169.087,318.826 155.354,316.249 
			139.378,311.396 122.407,304.179 111.217,298.409 105.872,294.732 		"/>
		
			<path style="fill:none;stroke:#000000;stroke-width:8.5039;stroke-linecap:round;stroke-linejoin:round;stroke-miterlimit:22.9256;" d="
			M106.724,238.782c0,0-1.481,18.943,17.348,17.858"/>
		
			<path style="fill:none;stroke:#000000;stroke-width:8.5039;stroke-linecap:round;stroke-linejoin:round;stroke-miterlimit:22.9256;" d="
			M146.976,256.561c0,0-19.351,10.384-26.433-13.054"/>
		
			<path style="fill:none;stroke:#000000;stroke-width:8.5039;stroke-linecap:round;stroke-linejoin:round;stroke-miterlimit:22.9256;" d="
			M123.088,253.042"/>
		
			<path style="fill:none;stroke:#000000;stroke-width:8.5039;stroke-linecap:round;stroke-linejoin:round;stroke-miterlimit:22.9256;" d="
			M184.03,262.672c0,0-14.483,11.296-37.054-6.111"/>
		
			<path style="fill:none;stroke:#000000;stroke-width:8.5039;stroke-linecap:round;stroke-linejoin:round;stroke-miterlimit:22.9256;" d="
			M217.511,258.042c0,0-8.276,17.408-33.48,4.63"/>
		
			<path style="fill:none;stroke:#000000;stroke-width:8.5039;stroke-linecap:round;stroke-linejoin:round;stroke-miterlimit:22.9256;" d="
			M253.751,240.83c-0.564,6.852-3.296,12.941-15.274,19.555c-4.916,2.714-11.811,2.322-20.966-2.343"/>
		
			<path style="fill:none;stroke:#000000;stroke-width:8.5039;stroke-linecap:round;stroke-linejoin:round;stroke-miterlimit:22.9256;" d="
			M248.311,253.215c0,0,21.584,10.371,24.405-23.149"/>
		
			<path style="fill:none;stroke:#000000;stroke-width:8.5039;stroke-linecap:round;stroke-linejoin:round;stroke-miterlimit:22.9256;" d="
			M147.164,302.302c0,0,14.107-18.519,38.183-2.963"/>
		
			<path style="fill:none;stroke:#000000;stroke-width:8.5039;stroke-linecap:round;stroke-linejoin:round;stroke-miterlimit:22.9256;" d="
			M221.253,299.339c0,0-17.661-15.741-35.906,0"/>
		
			<path style="fill:none;stroke:#000000;stroke-width:8.5039;stroke-linecap:round;stroke-linejoin:round;stroke-miterlimit:22.9256;" d="
			M255.693,295.45c0,0-20.396-18.545-34.44,3.889"/>
		
			<path style="fill:none;stroke:#000000;stroke-width:8.5039;stroke-linecap:round;stroke-linejoin:round;stroke-miterlimit:22.9256;" d="
			M265.85,283.598c0,0-13.467-17.435-27.556,4.653"/>
		
			<path style="fill:none;stroke:#000000;stroke-width:8.5039;stroke-linecap:round;stroke-linejoin:round;stroke-miterlimit:22.9256;" d="
			M277.512,275.45c-4.326-8.519-19.746-15.724-32.173,4.704"/>
		
			<path style="fill:none;stroke:#000000;stroke-width:8.5039;stroke-linecap:round;stroke-linejoin:round;stroke-miterlimit:22.9256;" d="
			M109.17,288.969c0,0,12.771-17.989,25.645-1.009"/>
		
			<path style="fill:none;stroke:#000000;stroke-width:8.5039;stroke-linecap:round;stroke-linejoin:round;stroke-miterlimit:22.9256;" d="
			M127.458,295.303c0,0,12.093-20.415,29.127,0.345"/>
		
			<path style="fill:none;stroke:#000000;stroke-width:8.5039;stroke-linecap:round;stroke-linejoin:round;stroke-miterlimit:22.9256;" d="
			M57.734,252.169c0,0,8.84-52.224,78.811-49.817"/>
		
			<path style="fill:none;stroke:#000000;stroke-width:8.5039;stroke-linecap:round;stroke-linejoin:round;stroke-miterlimit:22.9256;" d="
			M237.926,199.204c4.499-0.502,63.199-13.148,78.058,47.593"/>
		
			<path style="fill:none;stroke:#000000;stroke-width:8.5039;stroke-linecap:round;stroke-linejoin:round;stroke-miterlimit:22.9256;" d="
			M136.545,202.352c16.928,0.926,18.284,6.844,45.896,6.718c15.957-0.072,31.829-6.547,55.485-9.866"/>
		
			<path style="fill:none;stroke:#000000;stroke-width:8.5039;stroke-linecap:round;stroke-linejoin:round;stroke-miterlimit:22.9256;" d="
			M76.355,310.503c0,0-25.392-20.926-18.621-58.334"/>
		
			<path style="fill:none;stroke:#000000;stroke-width:8.5039;stroke-linecap:round;stroke-linejoin:round;stroke-miterlimit:22.9256;" d="
			M315.985,246.798c0,0,6.207,21.482-17.116,60.002"/>
		
			<path style="fill:none;stroke:#000000;stroke-width:8.5039;stroke-linecap:round;stroke-linejoin:round;stroke-miterlimit:22.9256;" d="
			M76.355,310.503c11.474,10.555,50.176,36.625,111.721,39.418c35.628,1.618,88.799-8.536,110.792-43.122"/>
		
			<path style="fill:none;stroke:#000000;stroke-width:8.5039;stroke-linecap:round;stroke-linejoin:round;stroke-miterlimit:22.9256;" d="
			M136.451,228.927c22.571,3.519,22.894,7.807,49.486,7.042c29.356-0.844,39.127-4.396,52.272-6.672"/>
		
			<path style="fill:none;stroke:#000000;stroke-width:8.5039;stroke-linecap:round;stroke-linejoin:round;stroke-miterlimit:22.9256;" d="
			M286.736,243.742c0,0,0.707-27.579-48.528-14.445"/>
		
			<path style="fill:none;stroke:#000000;stroke-width:8.5039;stroke-linecap:round;stroke-linejoin:round;stroke-miterlimit:22.9256;" d="
			M136.451,228.927c0,0-46.271-6.667-49.28,31.667"/>
		
			<path style="fill:none;stroke:#000000;stroke-width:8.5039;stroke-linecap:round;stroke-linejoin:round;stroke-miterlimit:22.9256;" d="
			M87.171,260.594c0,0-2.821,23.889,29.154,40.741"/>
		
			<path style="fill:none;stroke:#000000;stroke-width:8.5039;stroke-linecap:round;stroke-linejoin:round;stroke-miterlimit:22.9256;" d="
			M286.736,243.742c0,0,6.771,32.408-19.75,56.668"/>
		
			<path style="fill:none;stroke:#000000;stroke-width:8.5039;stroke-linecap:round;stroke-linejoin:round;stroke-miterlimit:22.9256;" d="
			M116.325,301.336c22.638,10.605,40.963,19.593,85.394,19.481c22.487-0.056,47.182-4.049,65.268-20.407"/>
	</g>
</g>
</svg>
