<?xml version="1.0" encoding="utf-8"?>
<!-- Generator: Adobe Illustrator 19.2.1, SVG Export Plug-In . SVG Version: 6.00 Build 0)  -->
<svg version="1.1" xmlns="http://www.w3.org/2000/svg" xmlns:xlink="http://www.w3.org/1999/xlink" x="0px" y="0px"
	 viewBox="0 0 359.281 643.321" style="enable-background:new 0 0 359.281 643.321;" xml:space="preserve">
<g id="n3001">
	<g>
		<g>
			<polygon style="fill-rule:evenodd;clip-rule:evenodd;fill:#4AB57E;" points="152.488,58.193 147.528,51.177 148.042,40.997 
				155.967,37.666 159.317,30.226 161.606,22.704 170.854,11.8 183.451,7.743 197.102,8.292 209.261,13.481 217.977,23.24 
				221.777,28.567 220.74,36.843 225.902,44.692 225.218,53.606 216.581,60.586 211.749,65.039 202.937,64.477 192.329,64.525 
				175.273,63.097 162.685,60.753 152.488,58.193 			"/>
			<path style="fill-rule:evenodd;clip-rule:evenodd;fill:#67559E;" d="M134.489,88.739l-7.082-6.162l-1.445-7.93l4.645-6.014
				l8.242-4.562l15.631-5.378l8.204,2.06l9.848,1.834l8.24,1.17l11.557,0.768l10.607-0.048c0,0,6.74,0.431,7.776,0.497
				c1.036,0.065,10.422,1.655,10.422,1.655l7.58,2.062l5.711,5.967l3.118,5.897l0.831,6.608l-0.75,4.688l-8.315,2.743l-11.098,2.764
				l-11.791,1.869l-11.079,0.588l-11.226-0.904l-10.248-2.706l-11.015-5.076l-9.763-2.864l-9.698-0.745L134.489,88.739
				L134.489,88.739z"/>
			<path style="fill-rule:evenodd;clip-rule:evenodd;fill:#F9D740;" d="M75.811,291.538l-3.83-12.509l-1.365-16.408l1.062-16.053
				l2.409-14.314l1.252-15.812l-1.824-13.287l1.261-13.338l1.061-17.269l5.159-16.847l7.744-20.517l11.447-21.395l14.69-15.376
				c0,0,15.004-8.326,16.027-8.65c1.024-0.325,16.076-1.967,16.076-1.967l17.454,3.994l14.557,5.768l16.35,2.258l15.319-1.125
				l15.066-3.101c0,0,9.437,7.598,9.738,6.663c0.302-0.934,16.171,5.359,16.171,5.359l16.103,9.464l13.861,12.568l9.365,11.796
				l2.703,11.075l3.425,19.517l1.457,19.124l0.435,18.908l0.531,20.619l2.038,12.464l2.996,12.416l1.236,16.172l0.245,11.053
				l0.778,11.749C306.81,294.538,164.214,322.754,75.811,291.538L75.811,291.538z"/>
			<path style="fill-rule:evenodd;clip-rule:evenodd;fill:#FFFFFF;" d="M78.271,295c0,0-4.667-10.667-5.667-23.333
				c-1-12.667,4-43,3-53s-6.201-26.57,0.233-46.118S99.271,104,115.937,96s27.667-12.667,41-6.333
				c13.333,6.333,34.557,10.929,34.557,10.929L188.604,241l-0.333,36.667L188.937,309l-103-6.333L78.271,295z"/>
			
				<path style="fill-rule:evenodd;clip-rule:evenodd;fill:none;stroke:#000000;stroke-width:8.5039;stroke-linecap:round;stroke-linejoin:round;stroke-miterlimit:22.9256;" d="
				M191.495,100.596c0.201-2.482,1.278-2.39-2.692,72.113c-1.035,19.417-0.847,90.287-0.847,90.287"/>
			<path style="fill-rule:evenodd;clip-rule:evenodd;fill:#67559E;" d="M134.489,88.739l-6.036-5.252l-10.9-1.049l-11.969,3.287
				l-11.936,8.013l-6.974,7.853l-6.12,9.878l-6.826,16.624L63.09,139.986l-14.236,21.208l-17.762,27.758l-13.86,27.229
				l-9.031,28.161l-3.3,38.196l2.213,32.95l3.695,28.838l3.769,29.929l0.789,23.414l-1.618,26.841l-2.517,21.303l-3.879,26.174
				l-2.754,23.878l0.21,21.324l4.053,19.414l7.004,14.278l9.613,10.413l8.834,6.213l11.569,6.018l8.646,3.67l7.202-1.381
				l4.288,15.408l7.001,15.298l4.608,11.899l6.564,0.146l1.553-11.277l-1.05-12.389l0.213-11.429l7.283,0.021l3.242-7.785
				l9.564,2.335l10.992,4.969l8.951,7.07l8.244,5.016l8.593-0.018l10.17-7.298l7.368-8.083l7.707-4.216l8.599,0.599l6.219,4.489
				l8.504,7.264l8.482,2.989l9.452-1.628l6.319-4.4l9.148-3.381l8.212,4.064l4.549,4.427l7.646,1.274l12.032-1.342l6.793,1.299
				l10.72,6.917l6.736,4.717l7.699,3.497l8.392,2.23l4.182-16.233l9.903-14.196l4.809-20.427l6.706-24.606l3.744-14.484l5.252-8.378
				l-0.311-3.398l1.892-22.331l2.336-23.641l2.899-25.616l3.779-29.719l2.887-21.232l3.772-27.83l2.209-18.398l1.038-11.031
				l3.387,0.022l-0.318-37.333l-0.562-17.81l-1.693-26.484l-3.34-23.331l-3.442-15.728l-5.471-18.531l-5.915-16.438l-6.405-17.143
				l-10.483-25.409l-8.96-13.188l-12.896-12.215l-13.58-7.618l-19.079-4.699l-15.305,0.405l-4.502,8.999l4.318,5.491l12.311,6.38
				l12.821,9.058l10.929,10.557l7.528,9.482l3.309,14.527l3.359,21.226l0.988,15.724l0.311,14.801l0.163,10.874l13.305-4.583
				l2.029,11.616l2.242,15.98l6.957,16.438l-1.633,9.428l-2.522,9.778l-5.204,7.313l-7.595,7.932c0,0-128.578,31.36-231.285-2.331
				c-0.275-0.09-2.017,4.938-2.017,4.938l-8.055,0.043l-6.488-5.632l-2.218-8.568l-3.114-7.405l-4.787-7.636l-4.046-10.138
				l-2.229-11.289l1.685-8.44l7.812-7.354l5.133-8.129l5.628,0.549l5.312,0.311l6.707,2.935l-0.709-11.38l-0.567-14.434
				l0.295-11.458l2.105-14.528l3.68-12.016l4.072-12.281l5.63-14.173l7.279-14.52l9.924-12.294l12.143-11.469L134.489,88.739
				L134.489,88.739z"/>
			<polygon style="fill-rule:evenodd;clip-rule:evenodd;fill:#61F4E5;" points="73.896,285.285 70.862,269.938 71.01,256.665 
				72.882,239.412 75.995,229.285 71.359,222.881 65.35,221.258 58.271,222.545 53.022,227.036 48.113,234.149 41.225,240.556 
				43.675,252.045 46.689,260.833 51.105,269.72 55.056,277.242 57.404,284 59.983,291.453 65.318,295.144 71.242,295.52 
				75.811,291.538 73.896,285.285 			"/>
			<polygon style="fill-rule:evenodd;clip-rule:evenodd;fill:#4AB57E;" points="299.095,218.592 307.253,215.642 312.4,214.009 
				314.285,223.951 315.55,233.616 316.671,241.606 320.003,252.573 322.124,261.992 321.995,267.471 320.495,276.254 
				315.055,283.682 306.53,290.31 305.976,280.277 305.582,266.813 304.823,257.644 302.92,247.373 300.099,236.931 
				299.273,225.721 299.095,218.592 			"/>
			
				<path style="fill:none;stroke:#000000;stroke-width:8.5039;stroke-linecap:round;stroke-linejoin:round;stroke-miterlimit:22.9256;" d="
				M161.124,24.914c1.075-8.134,10.011-16.871,25.884-17.447c14.156-0.515,29.775,5.549,34.679,25.322"/>
			
				<path style="fill:none;stroke:#000000;stroke-width:8.5039;stroke-linecap:round;stroke-linejoin:round;stroke-miterlimit:22.9256;" d="
				M158.311,32.789c-0.31-7.346,20.478-5.704,38.439-11.812"/>
			
				<path style="fill:none;stroke:#000000;stroke-width:8.5039;stroke-linecap:round;stroke-linejoin:round;stroke-miterlimit:22.9256;" d="
				M153.624,37.664c0,0,42,0.375,50.438-6"/>
			
				<path style="fill:none;stroke:#000000;stroke-width:8.5039;stroke-linecap:round;stroke-linejoin:round;stroke-miterlimit:22.9256;" d="
				M208.936,50.789c0,0-25.707,3.582-46.323-13.209"/>
			
				<path style="fill:none;stroke:#000000;stroke-width:8.5039;stroke-linecap:round;stroke-linejoin:round;stroke-miterlimit:22.9256;" d="
				M155.124,58.664c-8.25,0.938-12.938-20.438-1.5-21"/>
			
				<path style="fill:none;stroke:#000000;stroke-width:8.5039;stroke-linecap:round;stroke-linejoin:round;stroke-miterlimit:22.9256;" d="
				M214.937,35.039c8.625-0.188,21.187,18.939-3.188,30"/>
			
				<path style="fill:none;stroke:#000000;stroke-width:8.5039;stroke-linecap:round;stroke-linejoin:round;stroke-miterlimit:22.9256;" d="
				M130.561,83.227c0,0-6.645-24.533,24.564-24.563"/>
			
				<path style="fill:none;stroke:#000000;stroke-width:8.5039;stroke-linecap:round;stroke-linejoin:round;stroke-miterlimit:22.9256;" d="
				M211.749,65.039c0,0-33.562,0.938-56.624-6.375"/>
			
				<path style="fill:none;stroke:#000000;stroke-width:8.5039;stroke-linecap:round;stroke-linejoin:round;stroke-miterlimit:22.9256;" d="
				M211.749,65.039c0,0,27.188,0.75,26.626,22.125"/>
			
				<path style="fill:none;stroke:#000000;stroke-width:8.5039;stroke-linecap:round;stroke-linejoin:round;stroke-miterlimit:22.9256;" d="
				M209.124,74.602c0,0,8.437,3.188,5.062,18.75"/>
			
				<path style="fill:none;stroke:#000000;stroke-width:8.5039;stroke-linecap:round;stroke-linejoin:round;stroke-miterlimit:22.9256;" d="
				M200.311,99.539c0,0,11.069-23.349-19.539-35.782"/>
			
				<path style="fill:none;stroke:#000000;stroke-width:8.5039;stroke-linecap:round;stroke-linejoin:round;stroke-miterlimit:22.9256;" d="
				M237.624,91.852c0,0-41.625,16.313-68.438,2.25"/>
			
				<path style="fill:none;stroke:#000000;stroke-width:8.5039;stroke-linecap:round;stroke-linejoin:round;stroke-miterlimit:22.9256;" d="
				M100.187,113.789c0,0,27.187-42.188,69-19.688"/>
			
				<path style="fill:none;stroke:#000000;stroke-width:8.5039;stroke-linecap:round;stroke-linejoin:round;stroke-miterlimit:22.9256;" d="
				M73.842,180.071c0,0,10.688-44.062,26.345-66.281"/>
			
				<path style="fill:none;stroke:#000000;stroke-width:8.5039;stroke-linecap:round;stroke-linejoin:round;stroke-miterlimit:22.9256;" d="
				M130.561,83.227c0,0-37.406-11.532-55.969,42.28"/>
			
				<path style="fill:none;stroke:#000000;stroke-width:8.5039;stroke-linecap:round;stroke-linejoin:round;stroke-miterlimit:22.9256;" d="
				M45.248,237.913c0,0,21.75-26.623,28.594-57.843"/>
			
				<path style="fill:none;stroke:#000000;stroke-width:8.5039;stroke-linecap:round;stroke-linejoin:round;stroke-miterlimit:22.9256;" d="
				M75.811,291.538c0,0-10.313-18.188-1.875-58.312"/>
			
				<path style="fill:none;stroke:#000000;stroke-width:8.5039;stroke-linecap:round;stroke-linejoin:round;stroke-miterlimit:22.9256;" d="
				M74.465,177.62c-3,30.375,1.737,42.062-0.529,55.606"/>
			
				<path style="fill:none;stroke:#000000;stroke-width:8.5039;stroke-linecap:round;stroke-linejoin:round;stroke-miterlimit:22.9256;" d="
				M74.559,226.286c0,0-6.874-11.05-20.155-1.398"/>
			
				<path style="fill:none;stroke:#000000;stroke-width:8.5039;stroke-linecap:round;stroke-linejoin:round;stroke-miterlimit:22.9256;" d="
				M58.186,234.913c0,0,4.875,6.75,3,23.25c-1.875,16.5,7.308,14.47,9.841,13.797"/>
			
				<path style="fill:none;stroke:#000000;stroke-width:8.5039;stroke-linecap:round;stroke-linejoin:round;stroke-miterlimit:22.9256;" d="
				M42.436,244.476c0,0,0.937,15.75,11.062,29.062"/>
			
				<path style="fill:none;stroke:#000000;stroke-width:8.5039;stroke-linecap:round;stroke-linejoin:round;stroke-miterlimit:22.9256;" d="
				M73.373,295.101c0,0-12.985,3.949-15.721-9.198c-0.594-2.851-1.155-7.603-4.154-12.364"/>
			
				<path style="fill:none;stroke:#000000;stroke-width:8.5039;stroke-linecap:round;stroke-linejoin:round;stroke-miterlimit:22.9256;" d="
				M267.436,458.788c0,0-17.625,42-17.625,108"/>
			
				<path style="fill:none;stroke:#000000;stroke-width:8.5039;stroke-linecap:round;stroke-linejoin:round;stroke-miterlimit:22.9256;" d="
				M74.592,125.507c-3.376,17.25-57.281,67.405-67.031,122.155"/>
			
				<path style="fill:none;stroke:#000000;stroke-width:8.5039;stroke-linecap:round;stroke-linejoin:round;stroke-miterlimit:22.9256;" d="
				M15.436,383.038C11.31,336.163-0.314,292.1,7.561,247.663"/>
			
				<path style="fill:none;stroke:#000000;stroke-width:8.5039;stroke-linecap:round;stroke-linejoin:round;stroke-miterlimit:22.9256;" d="
				M63.053,581.773c-27.177-10.81-49.478-26.651-55.598-49.901c-10.739-40.797,9.055-77.718,7.98-148.834"/>
			
				<path style="fill:none;stroke:#000000;stroke-width:8.5039;stroke-linecap:round;stroke-linejoin:round;stroke-miterlimit:22.9256;" d="
				M74.592,125.507c0,0-33.188,98.437-35.813,130.686s-20.249,34.125-6.375,153.375"/>
			
				<path style="fill:none;stroke:#000000;stroke-width:8.5039;stroke-linecap:round;stroke-linejoin:round;stroke-miterlimit:22.9256;" d="
				M80.778,498.444c4.875,33.75,5.25,37.5,3.375,121.875"/>
			
				<path style="fill:none;stroke:#000000;stroke-width:8.5039;stroke-linecap:round;stroke-linejoin:round;stroke-miterlimit:22.9256;" d="
				M90.903,404.319c-2.624,79.875,27.751,123.75,0.375,181.125"/>
			
				<path style="fill:none;stroke:#000000;stroke-width:8.5039;stroke-linecap:round;stroke-linejoin:round;stroke-miterlimit:22.9256;" d="
				M80.778,639.069c-1.729-33.518-13.734-34.377-19.207-64.104c-10.31-55.995-20.936-102.266-29.168-165.396"/>
			
				<path style="fill:none;stroke:#000000;stroke-width:8.5039;stroke-linecap:round;stroke-linejoin:round;stroke-miterlimit:22.9256;" d="
				M219.147,97.163c0,0,53.632,7.906,72.382,47.656"/>
			
				<path style="fill:none;stroke:#000000;stroke-width:8.5039;stroke-linecap:round;stroke-linejoin:round;stroke-miterlimit:22.9256;" d="
				M300.903,241.569c-4.312-18.938,1.875-60.938-9.375-96.75"/>
			
				<path style="fill:none;stroke:#000000;stroke-width:8.5039;stroke-linecap:round;stroke-linejoin:round;stroke-miterlimit:22.9256;" d="
				M306.81,294.538c-1.875-10.688,0.938-37.5-5.906-52.969"/>
			
				<path style="fill:none;stroke:#000000;stroke-width:8.5039;stroke-linecap:round;stroke-linejoin:round;stroke-miterlimit:22.9256;" d="
				M310.372,288.725c7.125-7.688,13.312-12.375,11.438-31.5"/>
			
				<path style="fill:none;stroke:#000000;stroke-width:8.5039;stroke-linecap:round;stroke-linejoin:round;stroke-miterlimit:22.9256;" d="
				M305.582,266.813c15-1.688,3.789-20.825,9.103-37.9"/>
			
				<path style="fill:none;stroke:#000000;stroke-width:8.5039;stroke-linecap:round;stroke-linejoin:round;stroke-miterlimit:22.9256;" d="
				M313.56,187.849c0,0-2.812,67.501,13.125,72.001"/>
			
				<path style="fill:none;stroke:#000000;stroke-width:8.5039;stroke-linecap:round;stroke-linejoin:round;stroke-miterlimit:22.9256;" d="
				M299.125,220.29c0,0,10.734-7.293,14.553-6.18"/>
			
				<path style="fill:none;stroke:#000000;stroke-width:8.5039;stroke-linecap:round;stroke-linejoin:round;stroke-miterlimit:22.9256;" d="
				M227.497,96.912c65.541-0.549,88.689,31.875,86.062,90.938"/>
			
				<path style="fill:none;stroke:#000000;stroke-width:8.5039;stroke-linecap:round;stroke-linejoin:round;stroke-miterlimit:22.9256;" d="
				M237.624,91.852c0,0,57.625-18.777,86.811,52.31"/>
			
				<path style="fill:none;stroke:#000000;stroke-width:8.5039;stroke-linecap:round;stroke-linejoin:round;stroke-miterlimit:22.9256;" d="
				M350.872,232.85c-5.812-40.312-17.49-60.855-26.438-88.688"/>
			
				<path style="fill:none;stroke:#000000;stroke-width:8.5039;stroke-linecap:round;stroke-linejoin:round;stroke-miterlimit:22.9256;" d="
				M354.997,328.475c0,0,0.666-66.69-4.125-95.625"/>
			
				<path style="fill:none;stroke:#000000;stroke-width:8.5039;stroke-linecap:round;stroke-linejoin:round;stroke-miterlimit:22.9256;" d="
				M326.028,610.38c2.25-145.124,24.924-230.865,28.969-281.905"/>
			
				<path style="fill:none;stroke:#000000;stroke-width:8.5039;stroke-linecap:round;stroke-linejoin:round;stroke-miterlimit:22.9256;" d="
				M324.621,194.599c-0.02,41.023,8.701,73.981-4.629,154.981c-17.624,107.096-56.499,137.511-56.871,226.019"/>
			
				<path style="fill:none;stroke:#000000;stroke-width:8.5039;stroke-linecap:round;stroke-linejoin:round;stroke-miterlimit:22.9256;" d="
				M332.89,491.362c-10.766,40.703-22.281,92.036-36.394,117.237"/>
			
				<path style="fill:none;stroke:#000000;stroke-width:8.5039;stroke-linecap:round;stroke-linejoin:round;stroke-miterlimit:22.9256;" d="
				M260.59,590.318c13.312,3.938,13.125,13.312,35.906,18.281"/>
			
				<path style="fill:none;stroke:#000000;stroke-width:8.5039;stroke-linecap:round;stroke-linejoin:round;stroke-miterlimit:22.9256;" d="
				M236.506,589.902c6.938,3.75,14.146-1.646,24.084,0.416"/>
			
				<path style="fill:none;stroke:#000000;stroke-width:8.5039;stroke-linecap:round;stroke-linejoin:round;stroke-miterlimit:22.9256;" d="
				M208.277,589.193c4.247-1.942,7.044-6.764,13.508-6.853c4.524-0.061,9.671,1.249,14.721,7.562"/>
			
				<path style="fill:none;stroke:#000000;stroke-width:8.5039;stroke-linecap:round;stroke-linejoin:round;stroke-miterlimit:22.9256;" d="
				M181.84,580.568c0,0,12.145,15.452,26.438,8.625"/>
			
				<path style="fill:none;stroke:#000000;stroke-width:8.5039;stroke-linecap:round;stroke-linejoin:round;stroke-miterlimit:22.9256;" d="
				M154.09,585.255c0,0,13.5-19.5,27.75-4.688"/>
			
				<path style="fill:none;stroke:#000000;stroke-width:8.5039;stroke-linecap:round;stroke-linejoin:round;stroke-miterlimit:22.9256;" d="
				M95.433,575.704c28.981,5.263,27.512,18.885,40.846,19.907c7.6,0.582,12.55-3.901,17.81-10.357"/>
		</g>
		<g>
			<polygon style="fill-rule:evenodd;clip-rule:evenodd;" points="124.185,245.171 121.574,240.852 119.58,233.811 118.556,224.68 
				118.417,215.142 118.989,204.089 119.981,194.4 121.524,187.4 124.542,183.478 131.123,181.127 138.708,182.967 141.934,186.02 
				142.959,190.836 143.089,197.45 140.652,200.863 132.197,205.272 124.847,208.276 125.115,211.045 131.343,214.341 
				138.248,218.894 143.126,222.857 143.121,228.83 141.847,234.997 140,239.755 136.265,245.966 133.017,248.373 129.369,248.809 
				124.185,245.171 			"/>
			<polygon style="fill-rule:evenodd;clip-rule:evenodd;" points="235.307,212.748 235.104,204.155 235.011,195.667 
				236.179,189.994 240.418,186.17 249.283,183.921 256.283,185.866 259.244,193.086 258.505,200.039 250.298,206.094 
				243.654,210.91 243.906,214.486 250.528,218.746 258.368,224.991 260.771,228.228 261.177,233.136 260.713,236.381 
				259.069,240.129 255.977,243.153 252.615,246.108 246.3,244.662 239.6,239.192 236.294,231.726 235.633,221.276 235.307,212.748 
							"/>
			
				<path style="fill:none;stroke:#000000;stroke-width:8.5039;stroke-linecap:round;stroke-linejoin:round;stroke-miterlimit:22.9256;" d="
				M219.951,137.438c0,0,23.85-4.296,39.632,11.081"/>
			
				<path style="fill:none;stroke:#000000;stroke-width:8.5039;stroke-linecap:round;stroke-linejoin:round;stroke-miterlimit:22.9256;" d="
				M112.574,159.045c0,0,11.758-18.97,32.515-17.612"/>
			
				<path style="fill:none;stroke:#000000;stroke-width:8.5039;stroke-linecap:round;stroke-linejoin:round;stroke-miterlimit:22.9256;" d="
				M139.886,162.58c0,0-2.657,12.469,0.495,21.971"/>
			
				<path style="fill:none;stroke:#000000;stroke-width:8.5039;stroke-linecap:round;stroke-linejoin:round;stroke-miterlimit:22.9256;" d="
				M122.326,162.538c0,0-2.546,8.678,6.134,18.856"/>
			
				<path style="fill:none;stroke:#000000;stroke-width:8.5039;stroke-linecap:round;stroke-linejoin:round;stroke-miterlimit:22.9256;" d="
				M107.9,170.787c0,0-0.759,5.165,15.793,16.134"/>
			
				<path style="fill:none;stroke:#000000;stroke-width:8.5039;stroke-linecap:round;stroke-linejoin:round;stroke-miterlimit:22.9256;" d="
				M142.799,189.668c0.868-9.108-19.944-14.103-22.386,1.546"/>
			
				<path style="fill:none;stroke:#000000;stroke-width:8.5039;stroke-linecap:round;stroke-linejoin:round;stroke-miterlimit:22.9256;" d="
				M124.847,208.276c0,0,16.269-6.033,18.057-9.546"/>
			
				<path style="fill:none;stroke:#000000;stroke-width:8.5039;stroke-linecap:round;stroke-linejoin:round;stroke-miterlimit:22.9256;" d="
				M142.799,189.668c0,0,0.853,5.079,0.105,9.062"/>
			
				<path style="fill:none;stroke:#000000;stroke-width:8.5039;stroke-linecap:round;stroke-linejoin:round;stroke-miterlimit:22.9256;" d="
				M120.412,191.214c0,0-7.314,47.853,5.847,55.691"/>
			
				<path style="fill:none;stroke:#000000;stroke-width:8.5039;stroke-linecap:round;stroke-linejoin:round;stroke-miterlimit:22.9256;" d="
				M143.126,222.857c0,0,2.02,12.096-7.831,24.368"/>
			
				<path style="fill:none;stroke:#000000;stroke-width:8.5039;stroke-linecap:round;stroke-linejoin:round;stroke-miterlimit:22.9256;" d="
				M123.709,210.415c0,0,10.264,4.243,19.417,12.443"/>
			
				<path style="fill:none;stroke:#000000;stroke-width:8.5039;stroke-linecap:round;stroke-linejoin:round;stroke-miterlimit:22.9256;" d="
				M142.335,248.333c0,0-18.764-2.297-35.152,9.012"/>
			
				<path style="fill:none;stroke:#000000;stroke-width:8.5039;stroke-linecap:round;stroke-linejoin:round;stroke-miterlimit:22.9256;" d="
				M136.273,256.76c0,0,2.139-5.631,3.074-8.605"/>
			
				<path style="fill:none;stroke:#000000;stroke-width:8.5039;stroke-linecap:round;stroke-linejoin:round;stroke-miterlimit:22.9256;" d="
				M124.589,258.298c0,0,3.897-6.313,4.78-9.489"/>
			
				<path style="fill:none;stroke:#000000;stroke-width:8.5039;stroke-linecap:round;stroke-linejoin:round;stroke-miterlimit:22.9256;" d="
				M227.61,168.851c0,0,6.582,3.994,10.081,14.401"/>
			
				<path style="fill:none;stroke:#000000;stroke-width:8.5039;stroke-linecap:round;stroke-linejoin:round;stroke-miterlimit:22.9256;" d="
				M242.38,161.204c0,0,7.499,9.436,5.009,21.903"/>
			
				<path style="fill:none;stroke:#000000;stroke-width:8.5039;stroke-linecap:round;stroke-linejoin:round;stroke-miterlimit:22.9256;" d="
				M265.128,172.687c0,0-2.201,9.431-9.829,13.789"/>
			
				<path style="fill:none;stroke:#000000;stroke-width:8.5039;stroke-linecap:round;stroke-linejoin:round;stroke-miterlimit:22.9256;" d="
				M232.291,247.296c0,0,23.338-5.047,39.696,4.107"/>
			
				<path style="fill:none;stroke:#000000;stroke-width:8.5039;stroke-linecap:round;stroke-linejoin:round;stroke-miterlimit:22.9256;" d="
				M255.516,246.392c0,0-0.757,4.813,4.15,8.68"/>
			
				<path style="fill:none;stroke:#000000;stroke-width:8.5039;stroke-linecap:round;stroke-linejoin:round;stroke-miterlimit:22.9256;" d="
				M244.645,245.948c0,0-1.276,4.063,1.804,8.715"/>
			
				<path style="fill:none;stroke:#000000;stroke-width:8.5039;stroke-linecap:round;stroke-linejoin:round;stroke-miterlimit:22.9256;" d="
				M235.005,193.75c-0.296-8.636,20.823-16.68,24.239-0.664"/>
			
				<path style="fill:none;stroke:#000000;stroke-width:8.5039;stroke-linecap:round;stroke-linejoin:round;stroke-miterlimit:22.9256;" d="
				M259.504,199.297c0,0-15.382,11.446-18.53,13.463"/>
			
				<path style="fill:none;stroke:#000000;stroke-width:8.5039;stroke-linecap:round;stroke-linejoin:round;stroke-miterlimit:22.9256;" d="
				M259.244,193.086c0,0,0.554,3.478,0.26,6.211"/>
			
				<path style="fill:none;stroke:#000000;stroke-width:8.5039;stroke-linecap:round;stroke-linejoin:round;stroke-miterlimit:22.9256;" d="
				M235.005,193.75c0,0-0.034,22.026,1.289,37.976c0.544,6.55,5.008,9.126,10.006,12.936"/>
			
				<path style="fill:none;stroke:#000000;stroke-width:8.5039;stroke-linecap:round;stroke-linejoin:round;stroke-miterlimit:22.9256;" d="
				M240.974,212.759c0,0,17.54,9.894,19.797,15.468"/>
			
				<path style="fill:none;stroke:#000000;stroke-width:8.5039;stroke-linecap:round;stroke-linejoin:round;stroke-miterlimit:22.9256;" d="
				M255.977,243.153c0,0,6.97-3.59,4.795-14.926"/>
		</g>
		<path style="fill-rule:evenodd;clip-rule:evenodd;fill:#F9D740;" d="M79.962,352.502c0,0-13.5-17.5-4.5-32.5s19-28,43.5-34
			s73,2.5,73,2.5l0.5,114.5c0,0-31.5-0.5-53.5-11.5S79.962,352.502,79.962,352.502z"/>
		<path style="fill-rule:evenodd;clip-rule:evenodd;fill:#61F4E5;" d="M228.962,399.002c9.5-1.5,49.5-1,62-35.5s19.5-44.5,6.5-60.5
			s-25.5-26.5-58-20.5s-49.5,6.5-49.5,6.5l2.5,114L228.962,399.002z"/>
	</g>
</g>
<g id="n3002">
	<g>
		<polygon style="fill-rule:evenodd;clip-rule:evenodd;fill:#F9D740;" points="137.95,517.7 144.956,525.133 152.883,532.864 
			160.297,538.454 166.45,542.263 171.204,538.401 175.952,526.635 179.68,517.703 183.915,505.829 187.184,495.017 
			188.465,489.902 191.292,491.543 194.46,500.349 199.028,512.39 205.067,523.798 213.512,534.95 219.567,534.216 228.303,528.354 
			233.874,521.743 238.473,511.632 245.2,511.888 250.588,517.857 258.682,527.407 267.256,538.5 273.075,547.061 278.95,558.2 
			273.803,566.521 265.229,576.189 252.782,587.307 237.438,597.426 219.231,605.2 202.364,608.82 190.702,609.482 179.297,608.913 
			166.098,607.3 151.338,604.181 137.217,599.558 126.579,593.34 117.454,588.432 108.442,578.543 104.237,569.89 110.108,558.741 
			116.948,547.848 125.075,535.787 130.885,527.492 137.95,517.7 		"/>
		<polygon style="fill-rule:evenodd;clip-rule:evenodd;fill:#61F4E5;" points="173.383,464.75 168.325,463.888 163.458,468.08 
			157.467,476.802 151.489,486.32 146.018,494.917 139.516,502.776 135.512,510.575 140.26,519.151 146.733,527.074 155.61,535.068 
			164.286,540.924 166.45,542.263 172.378,535.494 177.128,523.958 181.309,513.371 185.549,500.423 189.879,490.723 
			183.204,484.589 175.34,478.542 171.792,474.293 173.383,464.75 		"/>
		<polygon style="fill-rule:evenodd;clip-rule:evenodd;fill:#E186AE;" points="193.542,492.293 193.655,498.108 196.905,507.314 
			202.047,518.094 208.469,528.836 213.512,534.95 219.567,534.216 227.419,529.143 233.874,521.743 237.565,513.628 
			239.838,505.375 240.325,500.638 235.137,490.128 228.62,478.129 223.606,469.216 218.387,460.138 212.202,463.861 
			213.538,469.601 214.167,475.231 208.378,481.615 200.973,487.752 193.542,492.293 		"/>
		<path style="fill-rule:evenodd;clip-rule:evenodd;fill:#FFFFFF;" d="M175.167,412.793c0,0,22.902-10.859,35.062,3.375
			l-0.381,9.902l-0.021,10.716l0.5,11.821l1.182,11.149c0,0,1.17,5.908,1.361,6.974c0.191,1.066,1.297,8.5,1.297,8.5l-5.789,6.385
			l-9.402,7.505l-5.434,3.173l-6.963-2.454l-8.248-8.158l-6.539-7.388l1.787-11.273l0.908-10.908l0.578-13.274l0.191-13.496
			l-0.025-7.505L175.167,412.793L175.167,412.793z"/>
		
			<path style="fill:none;stroke:#000000;stroke-width:8.5039;stroke-linecap:round;stroke-linejoin:round;stroke-miterlimit:22.9256;" d="
			M137.95,517.7c0,0-29.063,39.375-34.125,53.25"/>
		
			<path style="fill:none;stroke:#000000;stroke-width:8.5039;stroke-linecap:round;stroke-linejoin:round;stroke-miterlimit:22.9256;" d="
			M242.298,507.823c0,0,29.526,32.377,36.651,50.377"/>
		
			<path style="fill:none;stroke:#000000;stroke-width:8.5039;stroke-linecap:round;stroke-linejoin:round;stroke-miterlimit:22.9256;" d="
			M278.387,560.263c0,0-32.492,51.325-90.781,49.153c-36.977-1.378-72.838-14.149-81.531-35.466"/>
		
			<path style="fill:none;stroke:#000000;stroke-width:8.5039;stroke-linecap:round;stroke-linejoin:round;stroke-miterlimit:22.9256;" d="
			M135.512,510.575c0,0,6.188,17.625,30.938,31.688"/>
		
			<path style="fill:none;stroke:#000000;stroke-width:8.5039;stroke-linecap:round;stroke-linejoin:round;stroke-miterlimit:22.9256;" d="
			M216.7,535.325c0,0,21.937-6,23.625-34.688"/>
		
			<path style="fill:none;stroke:#000000;stroke-width:8.5039;stroke-linecap:round;stroke-linejoin:round;stroke-miterlimit:22.9256;" d="
			M218.387,460.138c0,0,17.062,29.25,21.937,40.5"/>
		
			<path style="fill:none;stroke:#000000;stroke-width:8.5039;stroke-linecap:round;stroke-linejoin:round;stroke-miterlimit:22.9256;" d="
			M168.325,463.888c-5.812,1.874-13.312,18.75-32.812,46.688"/>
		
			<path style="fill:none;stroke:#000000;stroke-width:8.5039;stroke-linecap:round;stroke-linejoin:round;stroke-miterlimit:22.9256;" d="
			M187.637,493.325c0,0-7.312,28.688-19.125,47.438"/>
		
			<path style="fill:none;stroke:#000000;stroke-width:8.5039;stroke-linecap:round;stroke-linejoin:round;stroke-miterlimit:22.9256;" d="
			M193.075,495.388c0,0,5.25,23.25,20.438,39.563"/>
		
			<path style="fill:none;stroke:#000000;stroke-width:8.5039;stroke-linecap:round;stroke-linejoin:round;stroke-miterlimit:22.9256;" d="
			M188.387,515.45c0,0-3.375,72.75-0.188,89.25"/>
		
			<path style="fill:none;stroke:#000000;stroke-width:8.5039;stroke-linecap:round;stroke-linejoin:round;stroke-miterlimit:22.9256;" d="
			M171.792,474.293c0,0,4.125-14.25,3.375-61.5"/>
		
			<path style="fill:none;stroke:#000000;stroke-width:8.5039;stroke-linecap:round;stroke-linejoin:round;stroke-miterlimit:22.9256;" d="
			M210.229,416.168c0,0-2.438,36.938,4.125,56.062"/>
		
			<path style="fill:none;stroke:#000000;stroke-width:8.5039;stroke-linecap:round;stroke-linejoin:round;stroke-miterlimit:22.9256;" d="
			M191.292,491.543c0,0-9.75-4.688-19.5-17.25"/>
		
			<path style="fill:none;stroke:#000000;stroke-width:8.5039;stroke-linecap:round;stroke-linejoin:round;stroke-miterlimit:22.9256;" d="
			M214.167,475.231c0,0-7.5,10.312-20.625,17.062"/>
	</g>
</g>
<g id="n3003">
	<g>
		<path style="fill-rule:evenodd;clip-rule:evenodd;fill:#E186AE;" d="M170.492,375.561l1.773-24.262l3.276-9.317l6.141-5.953
			l11.694-0.431l7.864,0.398l3.969,3.948c0,0,1.582,6.488,0.649,5.99c-0.934-0.498-4.918,3.325-4.918,3.325l0.976,6.792
			l-0.841,17.108l-8.438,2.681l-9.827,5.163l-6.13-3.373L170.492,375.561L170.492,375.561z"/>
		
			<path style="fill:none;stroke:#000000;stroke-width:8.5039;stroke-linecap:round;stroke-linejoin:round;stroke-miterlimit:22.9256;" d="
			M188.773,349.323c0,0,25.448,0.894,13.998-13.576"/>
		
			<path style="fill:none;stroke:#000000;stroke-width:8.5039;stroke-linecap:round;stroke-linejoin:round;stroke-miterlimit:22.9256;" d="
			M200.94,349.258c0,0,0.979,20.017-0.478,23.919"/>
		
			<path style="fill:none;stroke:#000000;stroke-width:8.5039;stroke-linecap:round;stroke-linejoin:round;stroke-miterlimit:22.9256;" d="
			M170.492,375.561c0,0-6.03-48.649,30.97-40.882"/>
	</g>
</g>
<g id="n3004">
	<g>
		<g>
			<path style="fill-rule:evenodd;clip-rule:evenodd;fill:#4AB57E;" d="M170.374,277.922l-3.615-6.566l1.091-6.846l4.916-8.058
				l6.08-6.481l6.807-5.84l7.079-2.677l7.48,1.06l5.607,3.046l5.934,5.34l4.57,5.525l3.511,6.115l1.389,6.231l-1.148,3.932
				l-4.471,3.48l-5.686,1.381C209.916,277.562,187.234,284.958,170.374,277.922L170.374,277.922z"/>
			
				<path style="fill:none;stroke:#000000;stroke-width:8.5039;stroke-linecap:round;stroke-linejoin:round;stroke-miterlimit:22.9256;" d="
				M170.374,277.922c0,0-14.918-9.885,15.278-33.791"/>
			
				<path style="fill:none;stroke:#000000;stroke-width:8.5039;stroke-linecap:round;stroke-linejoin:round;stroke-miterlimit:22.9256;" d="
				M200.21,242.513c8.807,1.977,36.307,31.813,9.706,35.049"/>
			
				<path style="fill:none;stroke:#000000;stroke-width:8.5039;stroke-linecap:round;stroke-linejoin:round;stroke-miterlimit:22.9256;" d="
				M200.21,242.513c-3.236-1.437-8.987-2.157-14.559,1.618"/>
			
				<path style="fill:none;stroke:#000000;stroke-width:8.5039;stroke-linecap:round;stroke-linejoin:round;stroke-miterlimit:22.9256;" d="
				M202.726,269.833c0,0,1.797,2.337,2.696,2.696"/>
			
				<path style="fill:none;stroke:#000000;stroke-width:8.5039;stroke-linecap:round;stroke-linejoin:round;stroke-miterlimit:22.9256;" d="
				M179.36,268.935c0,0-1.797,3.415-3.235,4.134"/>
		</g>
		<path style="fill-rule:evenodd;clip-rule:evenodd;fill:#E186AE;" d="M318.423,314.218l-3.979-11.475l-7.398-12.852l-11.542-11.381
			l-16.176-8.008l-15.696-2.94l-15.378,0.206l-17.493,2.648l-13.041,2.76l-17.818,3.577l-14.479,1.855l-16.572-0.884l-15.292-3.448
			l-15.784-1.432l-12.077-0.692l-13.931,2.031l-20.433,7.578l-13.17,9.628l-10.809,13.662l-5.847,13.428l-1.932,14.727l1.166,13.254
			l3.968,12.795l7.008,12.267l10.329,10.866l14.994,10.378l14.109,7.498l20.723,8.338l19.33,5.461l18.703,3.45l18.445,1.804
			l20.51-0.014l20.633-2.403l16.076-3.622l14.211-4.766l11.317-5.179l12.671-7.913l10.102-8.905l7.978-10.182l6.015-10.78
			l5.272-11.619l4.681-14.773l1.73-11.001L318.423,314.218z M285.656,350.267c-11.42,16.957-26.646,39.104-62.29,39.45
			c-35.644,0.346-68.173,2.076-92.742-13.15c-24.57-15.226-44.987-23.878-40.488-54.677c0,0,2.768-20.763,21.801-22.147
			c19.033-1.384,44.295,6.921,58.829,6.229c14.534-0.692,67.827-5.883,84.091-9.689c16.265-3.807,29.761-2.422,32.875,7.959
			C290.847,314.623,297.076,333.31,285.656,350.267z"/>
		<polygon style="fill-rule:evenodd;clip-rule:evenodd;fill:#FFFFFF;" points="108.26,302.675 109.706,308.32 110.188,315.01 
			113.998,321.989 120.925,326.542 127.053,326.178 135.713,329.428 145.864,327.848 149.957,326.098 159.572,332.142 
			170.226,335.517 181.6,335.993 186.821,332.347 196.336,335.857 208.115,336.482 214.332,334.038 221.383,328.024 
			227.882,330.585 237.328,331.369 244.048,329.697 248.141,326.468 255.718,328.1 263.073,326.604 267.625,323.143 
			272.296,314.475 274.116,305.434 275.697,299.604 265.983,296.885 258.175,296.545 244.56,298.136 231.832,300.671 
			215.241,303.579 197.415,305.163 179.519,305.556 163.925,303.869 151.023,300.698 134.373,298.069 120.589,298.924 
			108.26,302.675 		"/>
		<polygon style="fill-rule:evenodd;clip-rule:evenodd;fill:#FFFFFF;" points="108.853,364.27 112.151,358.506 118.379,351.43 
			125.643,348.067 132.616,349.013 136.227,351.098 137.796,357.497 145.061,357.794 150.733,360.834 156.433,366.45 
			164.482,363.201 173.555,362.941 181.964,365.42 188.328,368.876 193.385,365.148 202.045,361.496 211.544,361.137 
			217.962,363.049 221.997,365.358 229.226,360.823 236.264,357.836 240.477,351.691 246.147,347.375 253.757,339.227 
			260.371,336.243 269.729,336.6 277.088,340.713 280.493,344.987 284.96,349.309 281.651,355.69 275.319,364.451 266.586,372.805 
			258.692,378.173 248.192,383.232 233.639,387.556 217.353,389.865 204.7,390.354 185.681,389.77 172.068,388.364 158.335,385.786 
			142.359,380.933 125.388,373.716 114.198,367.947 108.853,364.27 		"/>
		
			<path style="fill:none;stroke:#000000;stroke-width:8.5039;stroke-linecap:round;stroke-linejoin:round;stroke-miterlimit:22.9256;" d="
			M109.706,308.32c0,0-1.481,18.943,17.348,17.858"/>
		
			<path style="fill:none;stroke:#000000;stroke-width:8.5039;stroke-linecap:round;stroke-linejoin:round;stroke-miterlimit:22.9256;" d="
			M149.957,326.098c0,0-19.351,10.384-26.433-13.054"/>
		
			<path style="fill:none;stroke:#000000;stroke-width:8.5039;stroke-linecap:round;stroke-linejoin:round;stroke-miterlimit:22.9256;" d="
			M126.07,322.579"/>
		
			<path style="fill:none;stroke:#000000;stroke-width:8.5039;stroke-linecap:round;stroke-linejoin:round;stroke-miterlimit:22.9256;" d="
			M187.011,332.209c0,0-14.483,11.296-37.054-6.111"/>
		
			<path style="fill:none;stroke:#000000;stroke-width:8.5039;stroke-linecap:round;stroke-linejoin:round;stroke-miterlimit:22.9256;" d="
			M220.492,327.579c0,0-8.276,17.408-33.48,4.63"/>
		
			<path style="fill:none;stroke:#000000;stroke-width:8.5039;stroke-linecap:round;stroke-linejoin:round;stroke-miterlimit:22.9256;" d="
			M256.732,310.368c-0.564,6.852-3.296,12.941-15.274,19.555c-4.916,2.714-11.811,2.322-20.966-2.343"/>
		
			<path style="fill:none;stroke:#000000;stroke-width:8.5039;stroke-linecap:round;stroke-linejoin:round;stroke-miterlimit:22.9256;" d="
			M251.292,322.752c0,0,21.584,10.371,24.405-23.149"/>
		
			<path style="fill:none;stroke:#000000;stroke-width:8.5039;stroke-linecap:round;stroke-linejoin:round;stroke-miterlimit:22.9256;" d="
			M150.145,371.84c0,0,14.107-18.519,38.183-2.963"/>
		
			<path style="fill:none;stroke:#000000;stroke-width:8.5039;stroke-linecap:round;stroke-linejoin:round;stroke-miterlimit:22.9256;" d="
			M224.234,368.876c0,0-17.661-15.741-35.906,0"/>
		
			<path style="fill:none;stroke:#000000;stroke-width:8.5039;stroke-linecap:round;stroke-linejoin:round;stroke-miterlimit:22.9256;" d="
			M258.674,364.988c0,0-20.396-18.545-34.44,3.889"/>
		
			<path style="fill:none;stroke:#000000;stroke-width:8.5039;stroke-linecap:round;stroke-linejoin:round;stroke-miterlimit:22.9256;" d="
			M268.831,353.135c0,0-13.467-17.435-27.556,4.653"/>
		
			<path style="fill:none;stroke:#000000;stroke-width:8.5039;stroke-linecap:round;stroke-linejoin:round;stroke-miterlimit:22.9256;" d="
			M280.493,344.987c-4.326-8.519-19.746-15.724-32.173,4.704"/>
		
			<path style="fill:none;stroke:#000000;stroke-width:8.5039;stroke-linecap:round;stroke-linejoin:round;stroke-miterlimit:22.9256;" d="
			M112.151,358.506c0,0,12.771-17.989,25.645-1.009"/>
		
			<path style="fill:none;stroke:#000000;stroke-width:8.5039;stroke-linecap:round;stroke-linejoin:round;stroke-miterlimit:22.9256;" d="
			M130.439,364.84c0,0,12.093-20.415,29.127,0.345"/>
		
			<path style="fill:none;stroke:#000000;stroke-width:8.5039;stroke-linecap:round;stroke-linejoin:round;stroke-miterlimit:22.9256;" d="
			M60.716,321.707c0,0,8.84-52.224,78.811-49.817"/>
		
			<path style="fill:none;stroke:#000000;stroke-width:8.5039;stroke-linecap:round;stroke-linejoin:round;stroke-miterlimit:22.9256;" d="
			M240.908,268.742c4.499-0.502,63.199-13.148,78.058,47.593"/>
		
			<path style="fill:none;stroke:#000000;stroke-width:8.5039;stroke-linecap:round;stroke-linejoin:round;stroke-miterlimit:22.9256;" d="
			M139.526,271.89c16.928,0.926,18.284,6.844,45.896,6.718c15.957-0.072,31.829-6.547,55.485-9.866"/>
		
			<path style="fill:none;stroke:#000000;stroke-width:8.5039;stroke-linecap:round;stroke-linejoin:round;stroke-miterlimit:22.9256;" d="
			M79.337,380.041c0,0-25.392-20.926-18.621-58.334"/>
		
			<path style="fill:none;stroke:#000000;stroke-width:8.5039;stroke-linecap:round;stroke-linejoin:round;stroke-miterlimit:22.9256;" d="
			M318.966,316.335c0,0,6.207,21.482-17.116,60.002"/>
		
			<path style="fill:none;stroke:#000000;stroke-width:8.5039;stroke-linecap:round;stroke-linejoin:round;stroke-miterlimit:22.9256;" d="
			M79.337,380.041c11.474,10.555,50.176,36.625,111.721,39.418c35.628,1.617,88.799-8.536,110.792-43.122"/>
		
			<path style="fill:none;stroke:#000000;stroke-width:8.5039;stroke-linecap:round;stroke-linejoin:round;stroke-miterlimit:22.9256;" d="
			M139.432,298.464c22.571,3.519,22.894,7.807,49.486,7.042c29.356-0.844,39.127-4.396,52.272-6.672"/>
		
			<path style="fill:none;stroke:#000000;stroke-width:8.5039;stroke-linecap:round;stroke-linejoin:round;stroke-miterlimit:22.9256;" d="
			M289.717,313.279c0,0,0.707-27.579-48.528-14.445"/>
		
			<path style="fill:none;stroke:#000000;stroke-width:8.5039;stroke-linecap:round;stroke-linejoin:round;stroke-miterlimit:22.9256;" d="
			M139.432,298.464c0,0-46.271-6.667-49.28,31.667"/>
		
			<path style="fill:none;stroke:#000000;stroke-width:8.5039;stroke-linecap:round;stroke-linejoin:round;stroke-miterlimit:22.9256;" d="
			M90.152,330.132c0,0-2.821,23.889,29.154,40.741"/>
		
			<path style="fill:none;stroke:#000000;stroke-width:8.5039;stroke-linecap:round;stroke-linejoin:round;stroke-miterlimit:22.9256;" d="
			M289.717,313.279c0,0,6.771,32.408-19.75,56.668"/>
		
			<path style="fill:none;stroke:#000000;stroke-width:8.5039;stroke-linecap:round;stroke-linejoin:round;stroke-miterlimit:22.9256;" d="
			M119.306,370.873c22.638,10.605,40.963,19.593,85.394,19.481c22.487-0.056,47.182-4.049,65.268-20.407"/>
	</g>
</g>
</svg>
