<svg version="1.1" xmlns="http://www.w3.org/2000/svg" xmlns:xlink="http://www.w3.org/1999/xlink" x="0px" y="0px"
	 viewBox="0 0 295.386 581.579" style="enable-background:new 0 0 295.386 581.579;" xml:space="preserve">
<g id="n3101">
	<g>
		<g>
			<path style="fill-rule:evenodd;clip-rule:evenodd;fill:#67559E;" d="M206.132,446.316c1.512-1.778-1.996,7.083-1.996,7.083
				l-5.541,6.42l-9.604,4.325l-15.551,1.187l-14.81,1.278l-17.104-3.407l-11.545-5.618l-8.24-8.974l-3.053-11.176l-9.697,5.462
				l-9.59,7.588l-9.672,9.83l-7.918,9.704l-7.922,11.253l-7.781,12.622l-5.15,9.248l-3.326,6.362l9.121,10.387l12.508,11.08
				l17.723,11.648l15.478,7.372l20.555,6.505l18.695,2.816l21.367-0.653l15.238-2.247l19.793-5.4l12.732-5.5l12.297-7.38
				l12.428-10.096l8.379-8.407l-3.326-10.709l-5.08-13.115l-7.498-14.752l-8.775-13.346l-10.344-12.413L206.132,446.316
				L206.132,446.316z"/>
			<polygon style="fill-rule:evenodd;clip-rule:evenodd;fill:#E186AE;" points="126.753,504.136 120.876,505.27 118.191,504.105 
				115.503,499.83 111.027,499.446 105.632,503.316 105.304,509.743 108.523,518.132 112.206,524.598 118.507,523.957 
				125.781,520.435 132.747,515.161 133.828,508.839 131.126,505.282 126.753,504.136 			"/>
			<path style="fill-rule:evenodd;clip-rule:evenodd;fill:#4AB57E;" d="M183.257,366.628c0,0-20.932-15.077-39,2.25
				c0.424,4.209,0.781,8.521,0.781,8.521l0.641,11.631l0.131,10.495l-0.207,6.897l-1.199,12.036l-2.195,9.091l-3.285,6.339
				l-5.418,3.511l-4.049-3.223l-7.498,1.937l-2.412,4.461l2.195,8.035l5.391,6.752l7.992,5.221l11.695,4.155l17.615,1.993
				l11.988-1.628l12.568-0.959l12.375-7.535l4.539-8.02l0.213-5.328l-7.976-6.067l-7.621-4.895l-6.889-5.296l-1.406-11.008
				l-0.363-13.103l0.207-12.925l0.553-13.098L183.257,366.628L183.257,366.628z"/>
			
				<path style="fill:none;stroke:#000000;stroke-width:8.5039;stroke-linecap:round;stroke-linejoin:round;stroke-miterlimit:22.9256;" d="
				M253.007,516.628c-18.562-65.625-68.25-87.375-68.25-87.375"/>
			
				<path style="fill:none;stroke:#000000;stroke-width:8.5039;stroke-linecap:round;stroke-linejoin:round;stroke-miterlimit:22.9256;" d="
				M57.632,509.503c42.938-84.188,78.938-75.375,78.938-75.375"/>
			
				<path style="fill:none;stroke:#000000;stroke-width:8.5039;stroke-linecap:round;stroke-linejoin:round;stroke-miterlimit:22.9256;" d="
				M156.445,442.941c4.688,3.375,12-0.188,12-0.188"/>
			
				<path style="fill:none;stroke:#000000;stroke-width:8.5039;stroke-linecap:round;stroke-linejoin:round;stroke-miterlimit:22.9256;" d="
				M132.632,474.066c7.924,5.175,33.779,12.729,59.993,2.582"/>
			
				<path style="fill:none;stroke:#000000;stroke-width:8.5039;stroke-linecap:round;stroke-linejoin:round;stroke-miterlimit:22.9256;" d="
				M183.013,423.78c3.27,13.654,13.369,19.161,13.369,19.161"/>
			
				<path style="fill:none;stroke:#000000;stroke-width:8.5039;stroke-linecap:round;stroke-linejoin:round;stroke-miterlimit:22.9256;" d="
				M183.632,427.003c-3.75-15.562-0.375-60.375-0.375-60.375"/>
			
				<path style="fill:none;stroke:#000000;stroke-width:8.5039;stroke-linecap:round;stroke-linejoin:round;stroke-miterlimit:22.9256;" d="
				M131.132,437.503c21.375,1.875,13.125-68.625,13.125-68.625"/>
			
				<path style="fill:none;stroke:#000000;stroke-width:8.5039;stroke-linecap:round;stroke-linejoin:round;stroke-miterlimit:22.9256;" d="
				M119.507,438.816c-0.357,21.508,29.248,28.009,43.125,27.932c23.955-0.134,41.627-3.182,43.5-20.432"/>
			
				<path style="fill:none;stroke:#000000;stroke-width:8.5039;stroke-linecap:round;stroke-linejoin:round;stroke-miterlimit:22.9256;" d="
				M57.632,509.503c26.549,34.146,71.793,51.905,106.326,49.889c50.811-2.966,73.488-22.138,89.988-39.764"/>
			
				<path style="fill:none;stroke:#000000;stroke-width:8.5039;stroke-linecap:round;stroke-linejoin:round;stroke-miterlimit:22.9256;" d="
				M105.632,503.316c4.125-6.75,10.688-3.938,13.5,2.625"/>
			
				<path style="fill:none;stroke:#000000;stroke-width:8.5039;stroke-linecap:round;stroke-linejoin:round;stroke-miterlimit:22.9256;" d="
				M119.132,505.941c13.875-5.812,16.184,3.988,14.625,7.312"/>
			
				<path style="fill:none;stroke:#000000;stroke-width:8.5039;stroke-linecap:round;stroke-linejoin:round;stroke-miterlimit:22.9256;" d="
				M105.632,503.316c-3.562,6.375,7.125,22.125,7.125,22.125"/>
			
				<path style="fill:none;stroke:#000000;stroke-width:8.5039;stroke-linecap:round;stroke-linejoin:round;stroke-miterlimit:22.9256;" d="
				M133.757,513.253c-1.312,5.251-21,12.188-21,12.188"/>
		</g>
	</g>
</g>
<g id="n3102">
	<g>
		<path style="fill-rule:evenodd;clip-rule:evenodd;fill:#E186AE;" d="M261.961,264.253l0.833-14.226l0.475-17.074l-1.57-14.853
			l0.187-13.289l-1.939-10.749l-0.631-10.94l1.147-16.428l-0.668-17.159l-2.787-15.065l-6.143-17.612l-7.169-13.283l-10.625-13.903
			l-14.665-13.465l-15.157-9.937l-14.662-7.131l-16.654-7.25l-8.577-8.17l-5.537-8.783l-4.312,6.15l-11.112,7.569l-12.816,6.053
			l-14.337,7.679l-15.918,9.722L82.725,83.868l-12.189,10.11l-14.085,14.226l-9.936,13.177l-7.442,14.358l-3.753,13.556
			l-0.948,14.263l-0.452,16.723l-0.274,13.599l-0.27,16.935l-2.601,11.365l-1.987,14.192l-0.841,18.029l0.254,7.973
			c0,0,34.884-3.295,80.732-4.846c7.517-0.254,15.19-13.445,22.284-17.276C143.963,233.367,154.802,262.935,163,271
			c8.396,8.26,15.922-13.991,22.581-13.781C212.65,258.073,239.317,260.164,261.961,264.253L261.961,264.253z"/>
		<polygon style="fill-rule:evenodd;clip-rule:evenodd;fill:#61F4E5;" points="277.129,185.244 274.902,196.185 268.39,207.142 
			263.145,215.918 263.056,230.939 262.992,244.957 262.377,257.14 261.961,264.253 269.834,263.02 276.121,256.794 
			278.353,246.569 284.056,234.343 289.884,220.842 290.404,205.027 285.424,193.291 277.129,185.244 		"/>
		<polygon style="fill-rule:evenodd;clip-rule:evenodd;fill:#E186AE;" points="33.703,190.723 24.614,186.811 16.956,186.478 
			9.429,192.456 6.783,202.372 6.572,211.001 8.776,222.033 12.098,234.667 13.597,242.511 17.628,251.932 23.629,258.836 
			28.201,262.373 27.988,249.782 28.787,236.372 30.775,222.18 33.376,210.815 33.703,190.723 		"/>
		<path style="fill-rule:evenodd;clip-rule:evenodd;fill:#F9D740;" d="M159.953,15.065l-0.602,8.417l-1.533,11.454l5.155,8.177
			l8.958,8.776l10.343,4.747l13.643,6.068l14.909,8.535l14.912,11.701l10.515,10.897l11.026,16.38l6.656,15.448l4.464,16.339
			l1.609,13.063l0.171,15.66l-0.866,12.396l0.631,10.94c0,0,3.478,12.976,2.662,15.185c-0.817,2.209,5.781-2.105,5.781-2.105
			l7.626-16.427l4.273-19.312l0.234-12.962l-1.973-15.746l0.445-11.927l0.464-12.824l-1.042-17.18l-2.913-17.014l-4.213-14.265
			l-7.49-16.212l-9.255-13.1l-11.481-10.864l-12.131-7.626l-16.867-6.396l-20.529-3.356l-18.661-0.085L159.953,15.065
			L159.953,15.065z"/>
		<polygon style="fill-rule:evenodd;clip-rule:evenodd;fill:#F9D740;" points="153.068,13.433 141.212,8.466 127.399,6.456 
			116.903,6.549 105.586,7.98 93.55,11.007 79.705,16.493 66.067,24.177 56.287,31.24 46.124,40.12 34.18,52.842 23.181,68.415 
			17.332,80.239 11.746,97.58 9.565,111.84 9.205,124.053 10.763,142.517 12.611,154.084 14.897,166.935 16.468,177.876 
			16.956,186.478 24.614,186.811 33.703,190.723 33.92,180.281 34.372,163.558 35.32,149.295 39.073,135.739 49.241,117.765 
			61.461,103.144 74.611,90.421 87.957,79.948 107.282,67.247 122.41,58.547 135.072,52.065 147.95,44.87 155.663,38.011 
			158.586,29.208 159.734,20.627 159.953,15.065 153.068,13.433 		"/>
		<polygon style="fill-rule:evenodd;clip-rule:evenodd;fill:#F9D740;" points="255.735,337.916 244.313,336.515 234.072,348.736 
			225.12,353.973 214.857,360.916 200.73,372.789 189.976,384.677 183.45,394.084 176.702,407.617 172.462,422.399 171.117,437.848 
			171.905,448.883 174.466,461.556 178.563,465.138 175.605,478.836 175.284,495.072 177.813,507.02 184.17,512.713 
			186.332,523.175 190.879,533.408 198.638,543.266 205.948,546.531 205.499,536.642 208.28,519.375 211.446,510.358 
			217.742,498.373 226.073,487.586 236.117,477.402 247.396,464.601 254.975,454.314 263.41,436.954 267.29,418.554 267.9,400.156 
			266.616,386.214 264,371.899 261.078,360.303 257.076,346.735 255.735,337.916 		"/>
		<polygon style="fill-rule:evenodd;clip-rule:evenodd;fill:#F9D740;" points="219.053,508.266 213.749,505.373 209.863,514.867 
			207.545,522.155 205.787,532.384 205.723,541.587 206.33,548.963 208.58,556.991 212.494,564.147 221.079,571.615 
			234.661,577.178 246.239,575.392 255.214,569.204 259.612,564.29 254.806,561.253 246.072,560.125 239.459,556.345 
			233.853,551.542 226.89,542.756 222.628,534.356 219.38,522.159 218.808,515.214 219.053,508.266 		"/>
		<path style="fill-rule:evenodd;clip-rule:evenodd;fill:#FFFFFF;" d="M37.203,277.082c-2.228-1.485-9.517-8.553-9.214-27.3
			c0.302-18.747,9.957-39.542,7.729-52.168c-2.228-12.626-14.111-40.106,3.713-68.328s63.872-58.673,63.872-58.673l52.217-29.506
			l-6.169,119.372l4.456,92.094L37.203,277.082z"/>
		
			<path style="fill-rule:evenodd;clip-rule:evenodd;fill:none;stroke:#000000;stroke-width:8.5039;stroke-linecap:round;stroke-linejoin:round;stroke-miterlimit:22.9256;" d="
			M151.979,203.507c0,0-0.188-70.87,0.847-90.287c3.971-74.503,2.893-74.595,2.692-72.113"/>
		
			<path style="fill:none;stroke:#000000;stroke-width:8.5039;stroke-linecap:round;stroke-linejoin:round;stroke-miterlimit:22.9256;" d="
			M217.742,498.373c-3.33,36.511,32.29,65.416,41.765,62.045"/>
		
			<path style="fill:none;stroke:#000000;stroke-width:8.5039;stroke-linecap:round;stroke-linejoin:round;stroke-miterlimit:22.9256;" d="
			M212.494,564.147c35.318,36.834,58.716-13.658,59.249-28.67"/>
		
			<path style="fill:none;stroke:#000000;stroke-width:8.5039;stroke-linecap:round;stroke-linejoin:round;stroke-miterlimit:22.9256;" d="
			M212.494,564.147c-12.65-16.992-8.789-54.688,16.061-79.119"/>
		
			<path style="fill:none;stroke:#000000;stroke-width:8.5039;stroke-linecap:round;stroke-linejoin:round;stroke-miterlimit:22.9256;" d="
			M174.466,461.556c-18.971-70.579,48.308-106.422,59.606-112.819"/>
		
			<path style="fill:none;stroke:#000000;stroke-width:8.5039;stroke-linecap:round;stroke-linejoin:round;stroke-miterlimit:22.9256;" d="
			M178.964,510.126c-10.028-24.551-0.576-57.882,20.91-84.859c16.517-20.737,36.442-28.094,47.348-61.888"/>
		
			<path style="fill:none;stroke:#000000;stroke-width:8.5039;stroke-linecap:round;stroke-linejoin:round;stroke-miterlimit:22.9256;" d="
			M200.921,545.371c-30.156-26.17-17.295-75.33,14.06-109.179c36.598-39.512,42.912-59.662,36.823-90.661"/>
		
			<path style="fill:none;stroke:#000000;stroke-width:8.5039;stroke-linecap:round;stroke-linejoin:round;stroke-miterlimit:22.9256;" d="
			M228.555,485.028c11.157-10.798,27.917-28.959,33.509-44.142c14.405-39.104-1.337-80.967-5.595-96.259
			c-2.093-7.516,0.768-13.265,0.768-13.265"/>
		
			<path style="fill:none;stroke:#000000;stroke-width:8.5039;stroke-linecap:round;stroke-linejoin:round;stroke-miterlimit:22.9256;" d="
			M31.556,111.051c21.35-51.821,95.006-70.037,108.438-75.635"/>
		
			<path style="fill:none;stroke:#000000;stroke-width:8.5039;stroke-linecap:round;stroke-linejoin:round;stroke-miterlimit:22.9256;" d="
			M34.692,155.271c3.086-59.487,100.38-103.206,100.38-103.206"/>
		
			<path style="fill:none;stroke:#000000;stroke-width:8.5039;stroke-linecap:round;stroke-linejoin:round;stroke-miterlimit:22.9256;" d="
			M34.692,155.271c-0.466,10.054-0.823,26.284-1.046,38.609c-0.177,9.668,0.4,11.072-0.27,16.935"/>
		
			<path style="fill:none;stroke:#000000;stroke-width:8.5039;stroke-linecap:round;stroke-linejoin:round;stroke-miterlimit:22.9256;" d="
			M33.376,210.815c-7.174,26.097-5.175,51.558-5.175,51.558"/>
		
			<path style="fill:none;stroke:#000000;stroke-width:8.5039;stroke-linecap:round;stroke-linejoin:round;stroke-miterlimit:22.9256;" d="
			M7.518,197.878c4.681-21.161,26.186-7.156,26.186-7.156"/>
		
			<path style="fill:none;stroke:#000000;stroke-width:8.5039;stroke-linecap:round;stroke-linejoin:round;stroke-miterlimit:22.9256;" d="
			M7.518,197.878c-2.663,12.537,0.593,21.993,0.593,21.993"/>
		
			<path style="fill:none;stroke:#000000;stroke-width:8.5039;stroke-linecap:round;stroke-linejoin:round;stroke-miterlimit:22.9256;" d="
			M8.11,219.871c4.216,13.379,5.487,22.64,5.487,22.64"/>
		
			<path style="fill:none;stroke:#000000;stroke-width:8.5039;stroke-linecap:round;stroke-linejoin:round;stroke-miterlimit:22.9256;" d="
			M13.597,242.511c2.625,12.58,14.603,19.862,14.603,19.862"/>
		
			<path style="fill:none;stroke:#000000;stroke-width:8.5039;stroke-linecap:round;stroke-linejoin:round;stroke-miterlimit:22.9256;" d="
			M28.582,238.634c-8.755-0.777-6.31-13.143-6.635-23.421c-0.244-7.661-3.094-14.329-3.094-14.329"/>
		
			<path style="fill:none;stroke:#000000;stroke-width:8.5039;stroke-linecap:round;stroke-linejoin:round;stroke-miterlimit:22.9256;" d="
			M135.072,52.065c29.486-12.481,22.664-22.035,24.662-31.438"/>
		
			<path style="fill:none;stroke:#000000;stroke-width:8.5039;stroke-linecap:round;stroke-linejoin:round;stroke-miterlimit:22.9256;" d="
			M28.555,59.805C82.016-9.61,141.212,8.466,141.212,8.466"/>
		
			<path style="fill:none;stroke:#000000;stroke-width:8.5039;stroke-linecap:round;stroke-linejoin:round;stroke-miterlimit:22.9256;" d="
			M28.555,59.805c-35.362,51.982-11.496,95.702-11.599,126.673"/>
		
			<path style="fill:none;stroke:#000000;stroke-width:8.5039;stroke-linecap:round;stroke-linejoin:round;stroke-miterlimit:22.9256;" d="
			M141.212,8.466c5.984,1.633,12.389,6.422,18.741,6.599c8.409,0.234,8.947-2.281,14.924-3.221"/>
		
			<path style="fill:none;stroke:#000000;stroke-width:8.5039;stroke-linecap:round;stroke-linejoin:round;stroke-miterlimit:22.9256;" d="
			M174.877,11.843c117.614-6.676,104.118,118.923,104.118,118.923"/>
		
			<path style="fill:none;stroke:#000000;stroke-width:8.5039;stroke-linecap:round;stroke-linejoin:round;stroke-miterlimit:22.9256;" d="
			M264.69,219.382c2.146-14.558,16.284-32.655,16.023-55.552c-0.328-28.76-8.15-63.43-58.461-106.394"/>
		
			<path style="fill:none;stroke:#000000;stroke-width:8.5039;stroke-linecap:round;stroke-linejoin:round;stroke-miterlimit:22.9256;" d="
			M182.275,56.635c-25.362-8.47-23.422-25.367-22.541-36.009"/>
		
			<path style="fill:none;stroke:#000000;stroke-width:8.5039;stroke-linecap:round;stroke-linejoin:round;stroke-miterlimit:22.9256;" d="
			M182.275,56.635c89.621,33.421,77.761,115.349,77.761,115.349"/>
		
			<path style="fill:none;stroke:#000000;stroke-width:8.5039;stroke-linecap:round;stroke-linejoin:round;stroke-miterlimit:22.9256;" d="
			M260.036,171.984c-2.629,24.09,2.694,28.823,3.11,43.934c0.695,25.29-1.184,48.335-1.184,48.335"/>
		
			<path style="fill:none;stroke:#000000;stroke-width:8.5039;stroke-linecap:round;stroke-linejoin:round;stroke-miterlimit:22.9256;" d="
			M291.055,214.968c1.302-21.265-13.926-29.724-13.926-29.724"/>
		
			<path style="fill:none;stroke:#000000;stroke-width:8.5039;stroke-linecap:round;stroke-linejoin:round;stroke-miterlimit:22.9256;" d="
			M291.055,214.968c-1.975,10.807-3.023,13.884-9.824,24.978c-3.881,6.33-4.173,13.771-4.173,13.771"/>
		
			<path style="fill:none;stroke:#000000;stroke-width:8.5039;stroke-linecap:round;stroke-linejoin:round;stroke-miterlimit:22.9256;" d="
			M277.058,253.717c-2.347,11.969-15.097,10.536-15.097,10.536"/>
		
			<path style="fill:none;stroke:#000000;stroke-width:8.5039;stroke-linecap:round;stroke-linejoin:round;stroke-miterlimit:22.9256;" d="
			M274.902,196.185c-1.536,12.121-2.802,12.722-1.599,27.841c1.204,15.119-6.037,14.374-6.037,14.374"/>
		<path style="fill-rule:evenodd;clip-rule:evenodd;fill:#67559E;" d="M37,309c0,0-13-23-4-38s26.5-23.5,51-29.5s73,2.5,73,2.5
			l1,105c0,0-54,4-76-7S37,309,37,309z"/>
		<path style="fill-rule:evenodd;clip-rule:evenodd;fill:#4AB57E;" d="M192,348c9.5-1.5,49.5-2.5,62-37s20.961-30.747,7.961-46.747
			C248.961,248.253,238.5,233,206,239s-53,2-53,2l1,113L192,348z"/>
		<g>
			<polygon style="fill-rule:evenodd;clip-rule:evenodd;" points="71.215,178.181 72.452,165.843 75.679,156.627 83.078,152.952 
				92.093,155.648 94.529,160.663 94.609,166.919 93.203,172.918 85.062,178.152 78.905,182.936 78.186,186.899 83.313,192.984 
				88.311,198.571 94.531,205.229 94.38,211.754 92.197,220.605 88.174,226.257 82.153,229.724 75.337,229.52 73.091,223.952 
				71.499,212.168 70.71,198.926 70.779,186.272 71.215,178.181 			"/>
			<polygon style="fill-rule:evenodd;clip-rule:evenodd;" points="193.577,164.593 197.174,157.545 202.629,154.619 
				209.521,155.743 215.273,160.117 215.446,170.448 215.435,175.648 208.622,180.74 202.535,186.324 199.74,191.241 
				204.814,194.172 210.285,198.234 216.56,204.658 216.394,212.006 215.057,219.2 211.133,224.78 204.572,228.198 198.531,225.783 
				194.759,217.825 193.377,206.313 192.985,198.621 192.609,183.148 192.674,174.708 193.577,164.593 			"/>
			
				<path style="fill:none;stroke:#000000;stroke-width:8.5039;stroke-linecap:round;stroke-linejoin:round;stroke-miterlimit:22.9256;" d="
				M174.962,117.058c5.062-1.056,15.272-29.44,50.566,11.833"/>
			
				<path style="fill:none;stroke:#000000;stroke-width:8.5039;stroke-linecap:round;stroke-linejoin:round;stroke-miterlimit:22.9256;" d="
				M63.214,124.865c3.101-0.549,22.604-37.557,49.5-8.439"/>
			
				<path style="fill:none;stroke:#000000;stroke-width:8.5039;stroke-linecap:round;stroke-linejoin:round;stroke-miterlimit:22.9256;" d="
				M49.531,165.844c0,0,31.5,2.286,20.625-23.91"/>
			
				<path style="fill:none;stroke:#000000;stroke-width:8.5039;stroke-linecap:round;stroke-linejoin:round;stroke-miterlimit:22.9256;" d="
				M89.656,134.373c0,0,3.562,12.835-12.75,19.692"/>
			
				<path style="fill:none;stroke:#000000;stroke-width:8.5039;stroke-linecap:round;stroke-linejoin:round;stroke-miterlimit:22.9256;" d="
				M106.343,135.603c0,0,5.438,10.198-14.25,20.044"/>
			
				<path style="fill:none;stroke:#000000;stroke-width:8.5039;stroke-linecap:round;stroke-linejoin:round;stroke-miterlimit:22.9256;" d="
				M94.718,161.801c-0.938-9.846-19.125-14.241-21.938,1.582"/>
			
				<path style="fill:none;stroke:#000000;stroke-width:8.5039;stroke-linecap:round;stroke-linejoin:round;stroke-miterlimit:22.9256;" d="
				M73.718,227.03c0,0-6.236-25.571-0.938-63.646"/>
			
				<path style="fill:none;stroke:#000000;stroke-width:8.5039;stroke-linecap:round;stroke-linejoin:round;stroke-miterlimit:22.9256;" d="
				M93.968,171.998c0,0,0.938-4.57,0.75-10.197"/>
			
				<path style="fill:none;stroke:#000000;stroke-width:8.5039;stroke-linecap:round;stroke-linejoin:round;stroke-miterlimit:22.9256;" d="
				M76.156,184.305c0,0,12.938-5.977,17.812-12.307"/>
			
				<path style="fill:none;stroke:#000000;stroke-width:8.5039;stroke-linecap:round;stroke-linejoin:round;stroke-miterlimit:22.9256;" d="
				M94.531,205.229c0,0-11.874-12.328-18.375-20.923"/>
			
				<path style="fill:none;stroke:#000000;stroke-width:8.5039;stroke-linecap:round;stroke-linejoin:round;stroke-miterlimit:22.9256;" d="
				M94.609,207.628c-0.296,4.333,3.784,20.375-16.71,23.053"/>
			
				<path style="fill:none;stroke:#000000;stroke-width:8.5039;stroke-linecap:round;stroke-linejoin:round;stroke-miterlimit:22.9256;" d="
				M185.716,134.419c0,0-6.375,13.891,12.188,24.791"/>
			
				<path style="fill:none;stroke:#000000;stroke-width:8.5039;stroke-linecap:round;stroke-linejoin:round;stroke-miterlimit:22.9256;" d="
				M219.092,143.035c0,0-20.25,16.703,21.563,26.549"/>
			
				<path style="fill:none;stroke:#000000;stroke-width:8.5039;stroke-linecap:round;stroke-linejoin:round;stroke-miterlimit:22.9256;" d="
				M200.904,137.76c0,0-4.875,10.197,5.813,17.757"/>
			
				<path style="fill:none;stroke:#000000;stroke-width:8.5039;stroke-linecap:round;stroke-linejoin:round;stroke-miterlimit:22.9256;" d="
				M216.56,204.658c-2.826-3.887-9.562-9.845-17.062-13.538"/>
			
				<path style="fill:none;stroke:#000000;stroke-width:8.5039;stroke-linecap:round;stroke-linejoin:round;stroke-miterlimit:22.9256;" d="
				M215.435,175.648c0,0-14.813,10.022-15.938,15.472"/>
			
				<path style="fill:none;stroke:#000000;stroke-width:8.5039;stroke-linecap:round;stroke-linejoin:round;stroke-miterlimit:22.9256;" d="
				M214.872,165.275c0,0,0.939,5.145,0.563,10.373"/>
			
				<path style="fill:none;stroke:#000000;stroke-width:8.5039;stroke-linecap:round;stroke-linejoin:round;stroke-miterlimit:22.9256;" d="
				M193.122,168.616c-1.125,5.626-0.251,37.573,0.938,45.01"/>
			
				<path style="fill:none;stroke:#000000;stroke-width:8.5039;stroke-linecap:round;stroke-linejoin:round;stroke-miterlimit:22.9256;" d="
				M214.872,165.275c-0.538-14.503-21.29-15.465-21.75,3.341"/>
			
				<path style="fill:none;stroke:#000000;stroke-width:8.5039;stroke-linecap:round;stroke-linejoin:round;stroke-miterlimit:22.9256;" d="
				M216.56,204.658c-0.448,4.417,0.503,10.438-1.502,14.542c-5.768,11.802-18.823,14.044-20.998-5.575"/>
		</g>
	</g>
</g>
<g id="n3103">
	<g>
		<path style="fill-rule:evenodd;clip-rule:evenodd;fill:#E186AE;" d="M137.489,329.601l1.773-24.262l3.276-9.317l6.141-5.953
			l11.694-0.431l7.864,0.398l3.969,3.948c0,0,1.582,6.488,0.649,5.99c-0.934-0.498-4.918,3.325-4.918,3.325l0.976,6.792
			l-0.841,17.108l-8.438,2.681l-9.827,5.163l-6.13-3.373L137.489,329.601L137.489,329.601z"/>
		
			<path style="fill:none;stroke:#000000;stroke-width:8.5039;stroke-linecap:round;stroke-linejoin:round;stroke-miterlimit:22.9256;" d="
			M155.769,303.364c0,0,25.448,0.894,13.998-13.576"/>
		
			<path style="fill:none;stroke:#000000;stroke-width:8.5039;stroke-linecap:round;stroke-linejoin:round;stroke-miterlimit:22.9256;" d="
			M167.937,303.299c0,0,0.979,20.017-0.478,23.919"/>
		
			<path style="fill:none;stroke:#000000;stroke-width:8.5039;stroke-linecap:round;stroke-linejoin:round;stroke-miterlimit:22.9256;" d="
			M137.489,329.601c0,0-6.03-48.649,30.97-40.882"/>
	</g>
</g>
<g id="n3104">
	<g>
		<g>
			<path style="fill-rule:evenodd;clip-rule:evenodd;fill:#4AB57E;" d="M130.641,233.362l-3.482-6.325l1.051-6.594l4.735-7.762
				l5.856-6.243l6.556-5.625l6.819-2.579l7.205,1.021l5.401,2.934l5.716,5.143l4.402,5.322l3.382,5.89l1.338,6.002l-1.106,3.787
				l-4.307,3.352l-5.477,1.33C168.729,233.016,146.881,240.14,130.641,233.362L130.641,233.362z"/>
			
				<path style="fill:none;stroke:#000000;stroke-width:8.5039;stroke-linecap:round;stroke-linejoin:round;stroke-miterlimit:22.9256;" d="
				M130.641,233.362c0,0-14.37-9.521,14.716-32.548"/>
			
				<path style="fill:none;stroke:#000000;stroke-width:8.5039;stroke-linecap:round;stroke-linejoin:round;stroke-miterlimit:22.9256;" d="
				M159.38,199.256c8.483,1.904,34.972,30.644,9.349,33.76"/>
			
				<path style="fill:none;stroke:#000000;stroke-width:8.5039;stroke-linecap:round;stroke-linejoin:round;stroke-miterlimit:22.9256;" d="
				M159.38,199.256c-3.117-1.384-8.656-2.078-14.024,1.558"/>
			
				<path style="fill:none;stroke:#000000;stroke-width:8.5039;stroke-linecap:round;stroke-linejoin:round;stroke-miterlimit:22.9256;" d="
				M161.804,225.571c0,0,1.731,2.251,2.597,2.597"/>
			
				<path style="fill:none;stroke:#000000;stroke-width:8.5039;stroke-linecap:round;stroke-linejoin:round;stroke-miterlimit:22.9256;" d="
				M139.297,224.706c0,0-1.731,3.289-3.116,3.982"/>
		</g>
		<path style="fill-rule:evenodd;clip-rule:evenodd;fill:#F9D740;" d="M273.248,268.324l-3.833-11.053l-7.126-12.38l-11.118-10.963
			l-15.581-7.713l-15.119-2.832l-14.813,0.198l-16.85,2.551l-12.562,2.658l-17.163,3.446l-13.947,1.787l-15.963-0.851l-14.73-3.321
			l-15.204-1.38l-11.633-0.666l-13.418,1.957l-19.682,7.3l-12.686,9.274l-10.412,13.16l-5.632,12.935l-1.861,14.186l1.123,12.767
			l3.822,12.325l6.751,11.816l9.95,10.467l14.443,9.997l13.59,7.223l19.962,8.032l18.62,5.26l18.016,3.323l17.767,1.737
			l19.756-0.013l19.875-2.314l15.485-3.489l13.688-4.591l10.901-4.989l12.205-7.622l9.731-8.578l7.685-9.807l5.794-10.383
			l5.079-11.192l4.509-14.23l1.666-10.597L273.248,268.324z M241.686,303.048c-11,16.333-25.667,37.667-60,38
			c-34.333,0.333-65.667,2-89.333-12.667c-23.667-14.667-43.333-23-39-52.667c0,0,2.667-20,21-21.333
			c18.333-1.333,42.667,6.667,56.667,6s65.333-5.667,81-9.333c15.667-3.667,28.667-2.333,31.667,7.667
			C246.686,268.715,252.686,286.715,241.686,303.048z"/>
		<polygon style="fill-rule:evenodd;clip-rule:evenodd;fill:#FFFFFF;" points="70.81,257.206 72.203,262.643 72.667,269.087 
			76.338,275.81 83.009,280.195 88.913,279.845 97.254,282.976 107.032,281.453 110.975,279.768 120.236,285.589 130.499,288.84 
			141.454,289.299 146.484,285.787 155.648,289.168 166.995,289.77 172.983,287.416 179.775,281.623 186.035,284.09 
			195.134,284.845 201.607,283.234 205.55,280.125 212.848,281.696 219.933,280.256 224.317,276.921 228.816,268.572 
			230.569,259.863 232.092,254.247 222.735,251.629 215.214,251.301 202.1,252.834 189.84,255.276 173.859,258.077 156.688,259.602 
			139.45,259.98 124.429,258.355 112.001,255.302 95.964,252.769 82.687,253.593 70.81,257.206 		"/>
		<polygon style="fill-rule:evenodd;clip-rule:evenodd;fill:#61F4E5;" points="71.382,316.536 74.558,310.984 80.558,304.169 
			87.554,300.929 94.271,301.84 97.749,303.849 99.261,310.013 106.259,310.299 111.722,313.227 117.212,318.636 124.965,315.507 
			133.705,315.256 141.805,317.644 147.935,320.974 152.806,317.382 161.148,313.865 170.297,313.519 176.48,315.36 
			180.366,317.585 187.33,313.216 194.109,310.34 198.167,304.42 203.628,300.263 210.959,292.414 217.33,289.54 226.344,289.883 
			233.432,293.846 236.712,297.963 241.015,302.126 237.828,308.272 231.728,316.711 223.317,324.758 215.713,329.928 
			205.599,334.802 191.58,338.967 175.893,341.191 163.705,341.662 145.385,341.099 132.273,339.745 119.045,337.262 
			103.656,332.587 87.308,325.636 76.53,320.078 71.382,316.536 		"/>
		
			<path style="fill:none;stroke:#000000;stroke-width:8.5039;stroke-linecap:round;stroke-linejoin:round;stroke-miterlimit:22.9256;" d="
			M72.203,262.643c0,0-1.427,18.247,16.71,17.202"/>
		
			<path style="fill:none;stroke:#000000;stroke-width:8.5039;stroke-linecap:round;stroke-linejoin:round;stroke-miterlimit:22.9256;" d="
			M110.975,279.768c0,0-18.64,10.002-25.461-12.574"/>
		
			<path style="fill:none;stroke:#000000;stroke-width:8.5039;stroke-linecap:round;stroke-linejoin:round;stroke-miterlimit:22.9256;" d="
			M87.965,276.379"/>
		
			<path style="fill:none;stroke:#000000;stroke-width:8.5039;stroke-linecap:round;stroke-linejoin:round;stroke-miterlimit:22.9256;" d="
			M146.667,285.654c0,0-13.951,10.881-35.692-5.887"/>
		
			<path style="fill:none;stroke:#000000;stroke-width:8.5039;stroke-linecap:round;stroke-linejoin:round;stroke-miterlimit:22.9256;" d="
			M178.917,281.195c0,0-7.972,16.768-32.25,4.46"/>
		
			<path style="fill:none;stroke:#000000;stroke-width:8.5039;stroke-linecap:round;stroke-linejoin:round;stroke-miterlimit:22.9256;" d="
			M213.824,264.616c-0.544,6.6-3.175,12.465-14.712,18.836c-4.735,2.614-11.376,2.236-20.196-2.257"/>
		
			<path style="fill:none;stroke:#000000;stroke-width:8.5039;stroke-linecap:round;stroke-linejoin:round;stroke-miterlimit:22.9256;" d="
			M208.584,276.545c0,0,20.79,9.99,23.508-22.298"/>
		
			<path style="fill:none;stroke:#000000;stroke-width:8.5039;stroke-linecap:round;stroke-linejoin:round;stroke-miterlimit:22.9256;" d="
			M111.156,323.828c0,0,13.588-17.838,36.779-2.854"/>
		
			<path style="fill:none;stroke:#000000;stroke-width:8.5039;stroke-linecap:round;stroke-linejoin:round;stroke-miterlimit:22.9256;" d="
			M182.521,320.974c0,0-17.012-15.162-34.586,0"/>
		
			<path style="fill:none;stroke:#000000;stroke-width:8.5039;stroke-linecap:round;stroke-linejoin:round;stroke-miterlimit:22.9256;" d="
			M215.696,317.228c0,0-19.646-17.863-33.174,3.746"/>
		
			<path style="fill:none;stroke:#000000;stroke-width:8.5039;stroke-linecap:round;stroke-linejoin:round;stroke-miterlimit:22.9256;" d="
			M225.479,305.811c0,0-12.972-16.794-26.544,4.482"/>
		
			<path style="fill:none;stroke:#000000;stroke-width:8.5039;stroke-linecap:round;stroke-linejoin:round;stroke-miterlimit:22.9256;" d="
			M236.712,297.963c-4.167-8.206-19.02-15.146-30.991,4.531"/>
		
			<path style="fill:none;stroke:#000000;stroke-width:8.5039;stroke-linecap:round;stroke-linejoin:round;stroke-miterlimit:22.9256;" d="
			M74.558,310.984c0,0,12.301-17.328,24.703-0.972"/>
		
			<path style="fill:none;stroke:#000000;stroke-width:8.5039;stroke-linecap:round;stroke-linejoin:round;stroke-miterlimit:22.9256;" d="
			M92.174,317.086c0,0,11.648-19.665,28.056,0.333"/>
		
			<path style="fill:none;stroke:#000000;stroke-width:8.5039;stroke-linecap:round;stroke-linejoin:round;stroke-miterlimit:22.9256;" d="
			M25.013,275.538c0,0,8.515-50.304,75.914-47.985"/>
		
			<path style="fill:none;stroke:#000000;stroke-width:8.5039;stroke-linecap:round;stroke-linejoin:round;stroke-miterlimit:22.9256;" d="
			M198.582,224.52c4.333-0.483,60.876-12.665,75.189,45.844"/>
		
			<path style="fill:none;stroke:#000000;stroke-width:8.5039;stroke-linecap:round;stroke-linejoin:round;stroke-miterlimit:22.9256;" d="
			M100.927,227.552c16.306,0.892,17.612,6.593,44.209,6.471c15.37-0.07,30.659-6.307,53.446-9.503"/>
		
			<path style="fill:none;stroke:#000000;stroke-width:8.5039;stroke-linecap:round;stroke-linejoin:round;stroke-miterlimit:22.9256;" d="
			M42.95,331.728c0,0-24.459-20.157-17.937-56.19"/>
		
			<path style="fill:none;stroke:#000000;stroke-width:8.5039;stroke-linecap:round;stroke-linejoin:round;stroke-miterlimit:22.9256;" d="
			M273.771,270.364c0,0,5.979,20.692-16.487,57.796"/>
		
			<path style="fill:none;stroke:#000000;stroke-width:8.5039;stroke-linecap:round;stroke-linejoin:round;stroke-miterlimit:22.9256;" d="
			M42.95,331.728c11.052,10.167,48.331,35.279,107.614,37.969c34.318,1.558,85.535-8.222,106.72-41.537"/>
		
			<path style="fill:none;stroke:#000000;stroke-width:8.5039;stroke-linecap:round;stroke-linejoin:round;stroke-miterlimit:22.9256;" d="
			M100.836,253.15c21.741,3.389,22.053,7.52,47.667,6.783c28.277-0.813,37.689-4.235,50.35-6.426"/>
		
			<path style="fill:none;stroke:#000000;stroke-width:8.5039;stroke-linecap:round;stroke-linejoin:round;stroke-miterlimit:22.9256;" d="
			M245.598,267.42c0,0,0.681-26.565-46.744-13.914"/>
		
			<path style="fill:none;stroke:#000000;stroke-width:8.5039;stroke-linecap:round;stroke-linejoin:round;stroke-miterlimit:22.9256;" d="
			M100.836,253.15c0,0-44.57-6.422-47.469,30.503"/>
		
			<path style="fill:none;stroke:#000000;stroke-width:8.5039;stroke-linecap:round;stroke-linejoin:round;stroke-miterlimit:22.9256;" d="
			M53.368,283.653c0,0-2.718,23.011,28.083,39.244"/>
		
			<path style="fill:none;stroke:#000000;stroke-width:8.5039;stroke-linecap:round;stroke-linejoin:round;stroke-miterlimit:22.9256;" d="
			M245.598,267.42c0,0,6.522,31.217-19.024,54.585"/>
		
			<path style="fill:none;stroke:#000000;stroke-width:8.5039;stroke-linecap:round;stroke-linejoin:round;stroke-miterlimit:22.9256;" d="
			M81.45,322.897c21.806,10.215,39.457,18.873,82.255,18.765c21.66-0.054,45.447-3.9,62.869-19.657"/>
	</g>
</g>
</svg>
