<?xml version="1.0" encoding="utf-8"?>
<!-- Generator: Adobe Illustrator 19.2.1, SVG Export Plug-In . SVG Version: 6.00 Build 0)  -->
<svg version="1.1" xmlns="http://www.w3.org/2000/svg" xmlns:xlink="http://www.w3.org/1999/xlink" x="0px" y="0px"
	 viewBox="0 0 337.006 549.587" style="enable-background:new 0 0 337.006 549.587;" xml:space="preserve">
<g id="n3101">
	<g>
		<g>
			<path style="fill-rule:evenodd;clip-rule:evenodd;fill:#67559E;" d="M227.088,443.778c1.512-1.778-1.996,7.083-1.996,7.083
				l-5.541,6.42l-9.604,4.325l-15.551,1.187l-14.81,1.278l-17.104-3.407l-11.545-5.618l-8.24-8.974l-3.053-11.176l-9.697,5.462
				l-9.59,7.588l-9.672,9.83l-7.918,9.704l-7.922,11.253l-7.781,12.622l-5.15,9.248l-3.326,6.362l9.121,10.387l12.508,11.08
				l17.723,11.648l15.479,7.372l20.555,6.505l18.695,2.816l21.367-0.653l15.238-2.247l19.793-5.4l12.732-5.5l12.297-7.38
				l12.428-10.096l8.379-8.407l-3.326-10.709l-5.08-13.115l-7.498-14.752l-8.775-13.346l-10.344-12.413L227.088,443.778
				L227.088,443.778z"/>
			<polygon style="fill-rule:evenodd;clip-rule:evenodd;fill:#E186AE;" points="147.709,501.599 141.832,502.732 139.147,501.567 
				136.459,497.293 131.983,496.908 126.588,500.778 126.26,507.205 129.479,515.595 133.163,522.061 139.463,521.42 
				146.737,517.898 153.704,512.624 154.784,506.302 152.082,502.744 147.709,501.599 			"/>
			<path style="fill-rule:evenodd;clip-rule:evenodd;fill:#4AB57E;" d="M204.213,364.091c0,0-20.932-15.077-39,2.25
				c0.424,4.209,0.781,8.522,0.781,8.522l0.641,11.631l0.131,10.495l-0.207,6.897l-1.199,12.036l-2.195,9.091l-3.285,6.339
				l-5.418,3.511l-4.049-3.223l-7.498,1.937l-2.412,4.461l2.195,8.035l5.391,6.752l7.992,5.221l11.695,4.155l17.615,1.993
				l11.988-1.628l12.568-0.959l12.375-7.535l4.539-8.02l0.213-5.328l-7.977-6.067l-7.621-4.895l-6.889-5.296l-1.406-11.008
				l-0.363-13.104l0.207-12.925l0.553-13.098L204.213,364.091L204.213,364.091z"/>
			
				<path style="fill:none;stroke:#000000;stroke-width:8.5039;stroke-linecap:round;stroke-linejoin:round;stroke-miterlimit:22.9256;" d="
				M273.963,514.091c-18.563-65.625-68.25-87.375-68.25-87.375"/>
			
				<path style="fill:none;stroke:#000000;stroke-width:8.5039;stroke-linecap:round;stroke-linejoin:round;stroke-miterlimit:22.9256;" d="
				M78.588,506.966c42.938-84.188,78.938-75.375,78.938-75.375"/>
			
				<path style="fill:none;stroke:#000000;stroke-width:8.5039;stroke-linecap:round;stroke-linejoin:round;stroke-miterlimit:22.9256;" d="
				M177.401,440.403c4.688,3.375,12-0.188,12-0.188"/>
			
				<path style="fill:none;stroke:#000000;stroke-width:8.5039;stroke-linecap:round;stroke-linejoin:round;stroke-miterlimit:22.9256;" d="
				M153.588,471.528c7.924,5.175,33.779,12.729,59.993,2.582"/>
			
				<path style="fill:none;stroke:#000000;stroke-width:8.5039;stroke-linecap:round;stroke-linejoin:round;stroke-miterlimit:22.9256;" d="
				M203.969,421.242c3.27,13.654,13.369,19.161,13.369,19.161"/>
			
				<path style="fill:none;stroke:#000000;stroke-width:8.5039;stroke-linecap:round;stroke-linejoin:round;stroke-miterlimit:22.9256;" d="
				M204.588,424.466c-3.75-15.562-0.375-60.375-0.375-60.375"/>
			
				<path style="fill:none;stroke:#000000;stroke-width:8.5039;stroke-linecap:round;stroke-linejoin:round;stroke-miterlimit:22.9256;" d="
				M152.088,434.966c21.375,1.875,13.125-68.625,13.125-68.625"/>
			
				<path style="fill:none;stroke:#000000;stroke-width:8.5039;stroke-linecap:round;stroke-linejoin:round;stroke-miterlimit:22.9256;" d="
				M140.463,436.278c-0.357,21.508,29.248,28.009,43.125,27.932c23.955-0.134,41.627-3.182,43.5-20.432"/>
			
				<path style="fill:none;stroke:#000000;stroke-width:8.5039;stroke-linecap:round;stroke-linejoin:round;stroke-miterlimit:22.9256;" d="
				M78.588,506.966c26.549,34.147,71.793,51.905,106.326,49.889c50.811-2.966,73.488-22.138,89.988-39.764"/>
			
				<path style="fill:none;stroke:#000000;stroke-width:8.5039;stroke-linecap:round;stroke-linejoin:round;stroke-miterlimit:22.9256;" d="
				M126.588,500.778c4.125-6.75,10.688-3.938,13.5,2.625"/>
			
				<path style="fill:none;stroke:#000000;stroke-width:8.5039;stroke-linecap:round;stroke-linejoin:round;stroke-miterlimit:22.9256;" d="
				M140.088,503.403c13.875-5.812,16.184,3.988,14.625,7.312"/>
			
				<path style="fill:none;stroke:#000000;stroke-width:8.5039;stroke-linecap:round;stroke-linejoin:round;stroke-miterlimit:22.9256;" d="
				M126.588,500.778c-3.562,6.375,7.125,22.125,7.125,22.125"/>
			
				<path style="fill:none;stroke:#000000;stroke-width:8.5039;stroke-linecap:round;stroke-linejoin:round;stroke-miterlimit:22.9256;" d="
				M154.713,510.716c-1.312,5.251-21,12.188-21,12.188"/>
		</g>
	</g>
</g>
<g id="n3102">
	<g>
		<path style="fill-rule:evenodd;clip-rule:evenodd;fill:#67559E;" d="M282.917,261.715l0.833-14.226l0.475-17.074l-1.57-14.853
			l0.187-13.289l-1.939-10.749l-0.631-10.94l1.147-16.428l-0.668-17.159l-2.787-15.065l-6.143-17.612l-7.169-13.283l-10.625-13.903
			l-14.665-13.465l-15.157-9.937l-14.662-7.131l-16.654-7.25l-8.577-8.17l-5.537-8.783l-4.312,6.15l-11.112,7.569l-12.816,6.053
			l-14.337,7.679l-15.918,9.722L103.681,81.33L91.492,91.44l-14.085,14.226l-9.936,13.177l-7.442,14.358l-3.753,13.556
			l-0.948,14.263l-0.452,16.723l-0.274,13.599l-0.27,16.935l-2.601,11.365l-1.987,14.192l-0.841,18.029l0.254,7.972
			c0,0,34.884-3.295,80.732-4.846c7.517-0.254,15.19-13.445,22.284-17.276c12.747-6.885,23.586,22.683,31.784,30.749
			c8.396,8.26,15.922-13.991,22.581-13.781C233.606,255.536,260.273,257.626,282.917,261.715L282.917,261.715z"/>
		<g>
			<defs>
				<polygon id="SVGID_1_" points="71.203,303.723 85.803,293.541 97.111,285.864 113.271,284.017 127.892,286.371 139.427,287.323 
					134.029,267.606 138.133,250.737 152.956,275.463 158.956,269.463 172.956,275.463 188.705,228.529 202.796,244.752 
					210.396,260.595 213.394,271.107 209.478,281.768 210.121,286.147 224.752,282.214 240.07,280.568 258.337,282.752 
					274.35,290.19 284.296,299.17 293.205,312.522 298.024,323.816 301.49,318.276 300.209,301.284 295.336,282.887 
					289.716,272.274 293.567,252.527 297.414,220.524 298.664,187.419 297.325,158.581 293.296,129.412 285.488,98.73 
					274.505,71.385 260.896,48.216 240.594,26.46 218.536,13.852 195.641,36.664 174.209,37.913 158.848,34.178 131.961,25.769 
					113.318,28.947 98.494,41.941 84.463,60.236 71.943,85.805 63.583,111.211 58.004,137.082 55.389,158.402 54.342,178.644 
					54.77,207.257 49.837,256.387 52.837,277.387 59.068,283.281 				"/>
			</defs>
			<clipPath id="SVGID_2_">
				<use xlink:href="#SVGID_1_"  style="overflow:visible;"/>
			</clipPath>
			
				<rect x="-0.253" y="-67.573" style="clip-path:url(#SVGID_2_);fill-rule:evenodd;clip-rule:evenodd;fill:#FFFFFF;" width="176.385" height="486.264"/>
		</g>
		
			<path style="fill-rule:evenodd;clip-rule:evenodd;fill:none;stroke:#000000;stroke-width:8.5039;stroke-linecap:round;stroke-linejoin:round;stroke-miterlimit:22.9256;" d="
			M176.475,38.569c0.201-2.482,1.278-2.39-2.692,72.113c-1.035,19.417-0.847,90.287-0.847,90.287"/>
		<polygon style="fill-rule:evenodd;clip-rule:evenodd;fill:#61F4E5;" points="298.085,182.707 295.858,193.647 289.346,204.604 
			284.102,213.38 284.012,228.402 283.948,242.42 283.333,254.602 282.917,261.715 290.79,260.483 297.077,254.256 299.309,244.032 
			305.012,231.805 310.841,218.305 311.36,202.489 306.38,190.754 298.085,182.707 		"/>
		<polygon style="fill-rule:evenodd;clip-rule:evenodd;fill:#E186AE;" points="54.66,188.185 45.57,184.273 37.912,183.941 
			30.385,189.919 27.739,199.834 27.528,208.463 29.733,219.496 33.055,232.13 34.554,239.973 38.584,249.394 44.585,256.299 
			49.157,259.836 48.944,247.244 49.743,233.835 51.731,219.642 54.332,208.278 54.66,188.185 		"/>
		<path style="fill-rule:evenodd;clip-rule:evenodd;fill:#F9D740;" d="M180.909,12.527l-0.602,8.417l-1.533,11.454l5.155,8.177
			l8.958,8.776l10.343,4.747l13.643,6.068l14.909,8.535l14.912,11.701l10.515,10.897l11.026,16.38l6.656,15.448l4.464,16.339
			l1.609,13.063l0.171,15.66l-0.866,12.396l0.631,10.94c0,0,3.478,12.976,2.662,15.185c-0.817,2.209,5.781-2.105,5.781-2.105
			l7.626-16.427l4.273-19.312l0.234-12.962l-1.973-15.746l0.445-11.927l0.464-12.824l-1.042-17.18l-2.913-17.014l-4.213-14.265
			l-7.49-16.212l-9.255-13.1l-11.481-10.864l-12.131-7.626l-16.867-6.396l-20.529-3.356l-18.661-0.085L180.909,12.527
			L180.909,12.527z"/>
		<polygon style="fill-rule:evenodd;clip-rule:evenodd;fill:#F9D740;" points="174.024,10.895 162.168,5.929 148.355,3.918 
			137.86,4.011 126.542,5.442 114.506,8.469 100.661,13.955 87.023,21.64 77.243,28.703 67.08,37.582 55.136,50.304 44.137,65.878 
			38.288,77.701 32.702,95.042 30.521,109.303 30.161,121.516 31.719,139.98 33.567,151.546 35.854,164.397 37.424,175.339 
			37.912,183.941 45.57,184.273 54.66,188.185 54.876,177.743 55.328,161.021 56.276,146.758 60.029,133.201 70.197,115.228 
			82.417,100.606 95.567,87.884 108.913,77.411 128.238,64.71 143.366,56.01 156.028,49.527 168.906,42.333 176.619,35.473 
			179.542,26.671 180.69,18.089 180.909,12.527 174.024,10.895 		"/>
		<polygon style="fill-rule:evenodd;clip-rule:evenodd;fill:#F9D740;" points="276.691,335.379 265.269,333.977 255.028,346.199 
			246.076,351.435 235.813,358.379 221.686,370.252 210.932,382.14 204.406,391.547 197.658,405.079 193.419,419.862 
			192.074,435.31 192.862,446.346 195.422,459.018 199.519,462.6 196.561,476.298 196.24,492.535 198.769,504.482 205.126,510.175 
			207.288,520.637 211.836,530.871 219.594,540.729 226.904,543.994 226.455,534.104 229.236,516.837 232.403,507.821 
			238.698,495.835 247.03,485.049 257.073,474.865 268.353,462.063 275.932,451.777 284.366,434.417 288.246,416.016 
			288.856,397.619 287.572,383.677 284.956,369.362 282.034,357.766 278.032,344.197 276.691,335.379 		"/>
		<polygon style="fill-rule:evenodd;clip-rule:evenodd;fill:#F9D740;" points="240.009,505.729 234.706,502.836 230.819,512.33 
			228.501,519.617 226.743,529.846 226.68,539.05 227.286,546.425 229.536,554.454 233.45,561.609 242.035,569.077 255.617,574.641 
			267.195,572.854 276.17,566.667 280.568,561.752 275.762,558.716 267.028,557.588 260.415,553.808 254.809,549.005 
			247.846,540.219 243.585,531.819 240.336,519.622 239.764,512.676 240.009,505.729 		"/>
		
			<path style="fill:none;stroke:#000000;stroke-width:8.5039;stroke-linecap:round;stroke-linejoin:round;stroke-miterlimit:22.9256;" d="
			M238.698,495.835c-3.33,36.511,32.29,65.416,41.765,62.045"/>
		
			<path style="fill:none;stroke:#000000;stroke-width:8.5039;stroke-linecap:round;stroke-linejoin:round;stroke-miterlimit:22.9256;" d="
			M233.45,561.609c35.318,36.834,58.716-13.658,59.249-28.67"/>
		
			<path style="fill:none;stroke:#000000;stroke-width:8.5039;stroke-linecap:round;stroke-linejoin:round;stroke-miterlimit:22.9256;" d="
			M233.45,561.609c-12.65-16.992-8.789-54.688,16.061-79.119"/>
		
			<path style="fill:none;stroke:#000000;stroke-width:8.5039;stroke-linecap:round;stroke-linejoin:round;stroke-miterlimit:22.9256;" d="
			M195.422,459.018c-18.971-70.579,48.308-106.422,59.606-112.819"/>
		
			<path style="fill:none;stroke:#000000;stroke-width:8.5039;stroke-linecap:round;stroke-linejoin:round;stroke-miterlimit:22.9256;" d="
			M199.92,507.589c-10.028-24.551-0.576-57.882,20.91-84.859c16.517-20.737,36.442-28.094,47.347-61.888"/>
		
			<path style="fill:none;stroke:#000000;stroke-width:8.5039;stroke-linecap:round;stroke-linejoin:round;stroke-miterlimit:22.9256;" d="
			M221.877,542.834c-30.156-26.17-17.295-75.33,14.06-109.179c36.598-39.512,42.912-59.662,36.823-90.661"/>
		
			<path style="fill:none;stroke:#000000;stroke-width:8.5039;stroke-linecap:round;stroke-linejoin:round;stroke-miterlimit:22.9256;" d="
			M249.511,482.49c11.157-10.798,27.917-28.959,33.509-44.142c14.405-39.104-1.337-80.967-5.595-96.259
			c-2.093-7.516,0.768-13.265,0.768-13.265"/>
		
			<path style="fill:none;stroke:#000000;stroke-width:8.5039;stroke-linecap:round;stroke-linejoin:round;stroke-miterlimit:22.9256;" d="
			M52.512,108.514c21.35-51.821,95.006-70.037,108.438-75.635"/>
		
			<path style="fill:none;stroke:#000000;stroke-width:8.5039;stroke-linecap:round;stroke-linejoin:round;stroke-miterlimit:22.9256;" d="
			M55.648,152.733c3.086-59.487,100.38-103.206,100.38-103.206"/>
		
			<path style="fill:none;stroke:#000000;stroke-width:8.5039;stroke-linecap:round;stroke-linejoin:round;stroke-miterlimit:22.9256;" d="
			M55.648,152.733c-0.466,10.054-0.823,26.284-1.046,38.609c-0.177,9.668,0.4,11.072-0.27,16.935"/>
		
			<path style="fill:none;stroke:#000000;stroke-width:8.5039;stroke-linecap:round;stroke-linejoin:round;stroke-miterlimit:22.9256;" d="
			M54.332,208.278c-7.174,26.097-5.175,51.558-5.175,51.558"/>
		
			<path style="fill:none;stroke:#000000;stroke-width:8.5039;stroke-linecap:round;stroke-linejoin:round;stroke-miterlimit:22.9256;" d="
			M28.474,195.341c4.681-21.161,26.186-7.156,26.186-7.156"/>
		
			<path style="fill:none;stroke:#000000;stroke-width:8.5039;stroke-linecap:round;stroke-linejoin:round;stroke-miterlimit:22.9256;" d="
			M28.474,195.341c-2.663,12.537,0.593,21.993,0.593,21.993"/>
		
			<path style="fill:none;stroke:#000000;stroke-width:8.5039;stroke-linecap:round;stroke-linejoin:round;stroke-miterlimit:22.9256;" d="
			M29.067,217.334c4.216,13.379,5.487,22.64,5.487,22.64"/>
		
			<path style="fill:none;stroke:#000000;stroke-width:8.5039;stroke-linecap:round;stroke-linejoin:round;stroke-miterlimit:22.9256;" d="
			M34.554,239.973c2.625,12.58,14.603,19.862,14.603,19.862"/>
		
			<path style="fill:none;stroke:#000000;stroke-width:8.5039;stroke-linecap:round;stroke-linejoin:round;stroke-miterlimit:22.9256;" d="
			M49.539,236.096c-8.755-0.777-6.31-13.143-6.635-23.421c-0.244-7.661-3.094-14.329-3.094-14.329"/>
		
			<path style="fill:none;stroke:#000000;stroke-width:8.5039;stroke-linecap:round;stroke-linejoin:round;stroke-miterlimit:22.9256;" d="
			M156.028,49.527c29.486-12.481,22.664-22.035,24.662-31.438"/>
		
			<path style="fill:none;stroke:#000000;stroke-width:8.5039;stroke-linecap:round;stroke-linejoin:round;stroke-miterlimit:22.9256;" d="
			M49.511,57.268C102.972-12.147,162.168,5.929,162.168,5.929"/>
		
			<path style="fill:none;stroke:#000000;stroke-width:8.5039;stroke-linecap:round;stroke-linejoin:round;stroke-miterlimit:22.9256;" d="
			M49.511,57.268C14.149,109.25,38.015,152.97,37.912,183.941"/>
		
			<path style="fill:none;stroke:#000000;stroke-width:8.5039;stroke-linecap:round;stroke-linejoin:round;stroke-miterlimit:22.9256;" d="
			M162.168,5.929c5.984,1.633,12.389,6.422,18.741,6.599c8.409,0.234,8.947-2.281,14.924-3.221"/>
		
			<path style="fill:none;stroke:#000000;stroke-width:8.5039;stroke-linecap:round;stroke-linejoin:round;stroke-miterlimit:22.9256;" d="
			M195.833,9.306C313.447,2.63,299.951,128.229,299.951,128.229"/>
		
			<path style="fill:none;stroke:#000000;stroke-width:8.5039;stroke-linecap:round;stroke-linejoin:round;stroke-miterlimit:22.9256;" d="
			M285.647,216.844c2.146-14.558,16.284-32.655,16.023-55.552c-0.328-28.76-8.15-63.43-58.461-106.394"/>
		
			<path style="fill:none;stroke:#000000;stroke-width:8.5039;stroke-linecap:round;stroke-linejoin:round;stroke-miterlimit:22.9256;" d="
			M203.231,54.098c-25.362-8.47-23.422-25.367-22.541-36.009"/>
		
			<path style="fill:none;stroke:#000000;stroke-width:8.5039;stroke-linecap:round;stroke-linejoin:round;stroke-miterlimit:22.9256;" d="
			M203.231,54.098c89.621,33.421,77.761,115.349,77.761,115.349"/>
		
			<path style="fill:none;stroke:#000000;stroke-width:8.5039;stroke-linecap:round;stroke-linejoin:round;stroke-miterlimit:22.9256;" d="
			M280.992,169.447c-2.629,24.09,2.694,28.823,3.11,43.934c0.695,25.29-1.184,48.335-1.184,48.335"/>
		
			<path style="fill:none;stroke:#000000;stroke-width:8.5039;stroke-linecap:round;stroke-linejoin:round;stroke-miterlimit:22.9256;" d="
			M312.011,212.431c1.302-21.265-13.926-29.724-13.926-29.724"/>
		
			<path style="fill:none;stroke:#000000;stroke-width:8.5039;stroke-linecap:round;stroke-linejoin:round;stroke-miterlimit:22.9256;" d="
			M312.011,212.431c-1.975,10.807-3.023,13.884-9.824,24.978c-3.881,6.33-4.173,13.771-4.173,13.771"/>
		
			<path style="fill:none;stroke:#000000;stroke-width:8.5039;stroke-linecap:round;stroke-linejoin:round;stroke-miterlimit:22.9256;" d="
			M298.014,251.18c-2.347,11.969-15.097,10.536-15.097,10.536"/>
		
			<path style="fill:none;stroke:#000000;stroke-width:8.5039;stroke-linecap:round;stroke-linejoin:round;stroke-miterlimit:22.9256;" d="
			M295.858,193.647c-1.536,12.121-2.802,12.722-1.599,27.841c1.204,15.119-6.037,14.374-6.037,14.374"/>
		<path style="fill-rule:evenodd;clip-rule:evenodd;fill:#67559E;" d="M57.956,306.463c0,0-13-23-4-38c9-15,26.5-23.5,51-29.5
			s73,2.5,73,2.5l1,105c0,0-54,4-76-7S57.956,306.463,57.956,306.463z"/>
		<path style="fill-rule:evenodd;clip-rule:evenodd;fill:#4AB57E;" d="M212.956,345.463c9.5-1.5,49.5-2.5,62-37
			s20.961-30.747,7.961-46.747s-23.461-31.253-55.961-25.253s-53,2-53,2l1,113L212.956,345.463z"/>
		<g>
			<polygon style="fill-rule:evenodd;clip-rule:evenodd;" points="92.171,175.644 93.408,163.306 96.635,154.089 104.034,150.414 
				113.049,153.11 115.485,158.126 115.565,164.381 114.159,170.381 106.018,175.614 99.861,180.399 99.142,184.362 104.27,190.446 
				109.267,196.034 115.487,202.691 115.336,209.217 113.153,218.067 109.13,223.72 103.109,227.187 96.293,226.983 94.047,221.415 
				92.455,209.631 91.667,196.388 91.735,183.735 92.171,175.644 			"/>
			<polygon style="fill-rule:evenodd;clip-rule:evenodd;" points="214.533,162.055 218.13,155.008 223.585,152.081 230.478,153.206 
				236.229,157.579 236.402,167.91 236.391,173.111 229.578,178.202 223.491,183.786 220.696,188.704 225.77,191.634 
				231.241,195.696 237.516,202.121 237.35,209.469 236.013,216.663 232.089,222.242 225.528,225.66 219.487,223.246 
				215.715,215.287 214.333,203.776 213.941,196.084 213.565,180.611 213.63,172.17 214.533,162.055 			"/>
			
				<path style="fill:none;stroke:#000000;stroke-width:8.5039;stroke-linecap:round;stroke-linejoin:round;stroke-miterlimit:22.9256;" d="
				M195.918,114.52c5.062-1.056,15.272-29.44,50.566,11.833"/>
			
				<path style="fill:none;stroke:#000000;stroke-width:8.5039;stroke-linecap:round;stroke-linejoin:round;stroke-miterlimit:22.9256;" d="
				M84.17,122.327c3.101-0.549,22.604-37.557,49.5-8.439"/>
			
				<path style="fill:none;stroke:#000000;stroke-width:8.5039;stroke-linecap:round;stroke-linejoin:round;stroke-miterlimit:22.9256;" d="
				M70.487,163.307c0,0,31.501,2.286,20.625-23.91"/>
			
				<path style="fill:none;stroke:#000000;stroke-width:8.5039;stroke-linecap:round;stroke-linejoin:round;stroke-miterlimit:22.9256;" d="
				M110.612,131.835c0,0,3.562,12.835-12.75,19.692"/>
			
				<path style="fill:none;stroke:#000000;stroke-width:8.5039;stroke-linecap:round;stroke-linejoin:round;stroke-miterlimit:22.9256;" d="
				M127.299,133.066c0,0,5.438,10.198-14.25,20.044"/>
			
				<path style="fill:none;stroke:#000000;stroke-width:8.5039;stroke-linecap:round;stroke-linejoin:round;stroke-miterlimit:22.9256;" d="
				M115.674,159.264c-0.938-9.846-19.125-14.241-21.938,1.582"/>
			
				<path style="fill:none;stroke:#000000;stroke-width:8.5039;stroke-linecap:round;stroke-linejoin:round;stroke-miterlimit:22.9256;" d="
				M94.674,224.493c0,0-6.236-25.571-0.938-63.646"/>
			
				<path style="fill:none;stroke:#000000;stroke-width:8.5039;stroke-linecap:round;stroke-linejoin:round;stroke-miterlimit:22.9256;" d="
				M114.924,169.46c0,0,0.938-4.57,0.75-10.197"/>
			
				<path style="fill:none;stroke:#000000;stroke-width:8.5039;stroke-linecap:round;stroke-linejoin:round;stroke-miterlimit:22.9256;" d="
				M97.112,181.768c0,0,12.938-5.977,17.812-12.307"/>
			
				<path style="fill:none;stroke:#000000;stroke-width:8.5039;stroke-linecap:round;stroke-linejoin:round;stroke-miterlimit:22.9256;" d="
				M115.487,202.691c0,0-11.873-12.328-18.375-20.923"/>
			
				<path style="fill:none;stroke:#000000;stroke-width:8.5039;stroke-linecap:round;stroke-linejoin:round;stroke-miterlimit:22.9256;" d="
				M115.565,205.09c-0.296,4.333,3.784,20.375-16.71,23.053"/>
			
				<path style="fill:none;stroke:#000000;stroke-width:8.5039;stroke-linecap:round;stroke-linejoin:round;stroke-miterlimit:22.9256;" d="
				M206.672,131.881c0,0-6.374,13.891,12.188,24.791"/>
			
				<path style="fill:none;stroke:#000000;stroke-width:8.5039;stroke-linecap:round;stroke-linejoin:round;stroke-miterlimit:22.9256;" d="
				M240.048,140.497c0,0-20.25,16.703,21.563,26.549"/>
			
				<path style="fill:none;stroke:#000000;stroke-width:8.5039;stroke-linecap:round;stroke-linejoin:round;stroke-miterlimit:22.9256;" d="
				M221.86,135.223c0,0-4.874,10.197,5.813,17.757"/>
			
				<path style="fill:none;stroke:#000000;stroke-width:8.5039;stroke-linecap:round;stroke-linejoin:round;stroke-miterlimit:22.9256;" d="
				M237.516,202.121c-2.826-3.887-9.562-9.845-17.062-13.538"/>
			
				<path style="fill:none;stroke:#000000;stroke-width:8.5039;stroke-linecap:round;stroke-linejoin:round;stroke-miterlimit:22.9256;" d="
				M236.391,173.111c0,0-14.813,10.022-15.938,15.472"/>
			
				<path style="fill:none;stroke:#000000;stroke-width:8.5039;stroke-linecap:round;stroke-linejoin:round;stroke-miterlimit:22.9256;" d="
				M235.828,162.738c0,0,0.939,5.145,0.563,10.373"/>
			
				<path style="fill:none;stroke:#000000;stroke-width:8.5039;stroke-linecap:round;stroke-linejoin:round;stroke-miterlimit:22.9256;" d="
				M214.078,166.078c-1.125,5.626-0.251,37.573,0.938,45.01"/>
			
				<path style="fill:none;stroke:#000000;stroke-width:8.5039;stroke-linecap:round;stroke-linejoin:round;stroke-miterlimit:22.9256;" d="
				M235.828,162.738c-0.538-14.503-21.29-15.465-21.75,3.341"/>
			
				<path style="fill:none;stroke:#000000;stroke-width:8.5039;stroke-linecap:round;stroke-linejoin:round;stroke-miterlimit:22.9256;" d="
				M237.516,202.121c-0.448,4.417,0.503,10.438-1.502,14.542c-5.768,11.802-18.823,14.044-20.998-5.575"/>
		</g>
	</g>
</g>
<g id="n3103">
	<g>
		<path style="fill-rule:evenodd;clip-rule:evenodd;fill:#E186AE;" d="M158.445,327.064l1.773-24.262l3.276-9.317l6.141-5.953
			l11.694-0.431l7.864,0.398l3.969,3.948c0,0,1.582,6.488,0.649,5.99c-0.934-0.498-4.918,3.325-4.918,3.325l0.976,6.792
			l-0.841,17.108l-8.438,2.681l-9.827,5.163l-6.13-3.373L158.445,327.064L158.445,327.064z"/>
		
			<path style="fill:none;stroke:#000000;stroke-width:8.5039;stroke-linecap:round;stroke-linejoin:round;stroke-miterlimit:22.9256;" d="
			M176.726,300.826c0,0,25.448,0.894,13.998-13.576"/>
		
			<path style="fill:none;stroke:#000000;stroke-width:8.5039;stroke-linecap:round;stroke-linejoin:round;stroke-miterlimit:22.9256;" d="
			M188.893,300.761c0,0,0.979,20.017-0.478,23.919"/>
		
			<path style="fill:none;stroke:#000000;stroke-width:8.5039;stroke-linecap:round;stroke-linejoin:round;stroke-miterlimit:22.9256;" d="
			M158.445,327.064c0,0-6.03-48.649,30.97-40.882"/>
	</g>
</g>
<g id="n3104">
	<g>
		<g>
			<path style="fill-rule:evenodd;clip-rule:evenodd;fill:#67559E;" d="M151.597,230.825l-3.482-6.325l1.051-6.594l4.735-7.762
				l5.856-6.243l6.556-5.625l6.819-2.579l7.205,1.021l5.401,2.934l5.715,5.143l4.402,5.322l3.382,5.89l1.338,6.002l-1.106,3.787
				l-4.307,3.352l-5.477,1.33C189.685,230.479,167.838,237.602,151.597,230.825L151.597,230.825z"/>
			
				<path style="fill:none;stroke:#000000;stroke-width:8.5039;stroke-linecap:round;stroke-linejoin:round;stroke-miterlimit:22.9256;" d="
				M151.597,230.825c0,0-14.37-9.521,14.716-32.548"/>
			
				<path style="fill:none;stroke:#000000;stroke-width:8.5039;stroke-linecap:round;stroke-linejoin:round;stroke-miterlimit:22.9256;" d="
				M180.336,196.718c8.483,1.904,34.972,30.644,9.349,33.76"/>
			
				<path style="fill:none;stroke:#000000;stroke-width:8.5039;stroke-linecap:round;stroke-linejoin:round;stroke-miterlimit:22.9256;" d="
				M180.336,196.718c-3.117-1.384-8.657-2.078-14.024,1.558"/>
			
				<path style="fill:none;stroke:#000000;stroke-width:8.5039;stroke-linecap:round;stroke-linejoin:round;stroke-miterlimit:22.9256;" d="
				M182.76,223.034c0,0,1.731,2.251,2.597,2.597"/>
			
				<path style="fill:none;stroke:#000000;stroke-width:8.5039;stroke-linecap:round;stroke-linejoin:round;stroke-miterlimit:22.9256;" d="
				M160.253,222.168c0,0-1.731,3.289-3.116,3.982"/>
		</g>
		<path style="fill-rule:evenodd;clip-rule:evenodd;fill:#E186AE;" d="M294.204,265.787l-3.833-11.053l-7.126-12.38l-11.118-10.963
			l-15.581-7.713l-15.119-2.832l-14.813,0.198l-16.85,2.551l-12.562,2.658l-17.163,3.446l-13.947,1.787l-15.963-0.851l-14.73-3.321
			l-15.204-1.38l-11.633-0.666l-13.418,1.957l-19.682,7.3l-12.686,9.274l-10.412,13.16l-5.632,12.935l-1.861,14.186l1.123,12.767
			l3.822,12.325l6.751,11.816l9.95,10.467l14.443,9.997l13.59,7.223l19.962,8.032l18.62,5.26l18.016,3.323l17.767,1.737
			l19.756-0.013l19.875-2.314l15.485-3.489l13.688-4.591l10.901-4.989l12.205-7.622l9.731-8.578l7.685-9.807l5.794-10.383
			l5.079-11.192l4.509-14.23l1.666-10.597L294.204,265.787z M262.642,300.511c-11,16.333-25.667,37.667-60,38
			c-34.333,0.333-65.667,2-89.333-12.667c-23.667-14.667-43.333-23-39-52.667c0,0,2.667-20,21-21.333
			c18.333-1.333,42.667,6.667,56.667,6s65.333-5.667,81-9.333c15.667-3.667,28.667-2.333,31.667,7.667
			S273.642,284.178,262.642,300.511z"/>
		<polygon style="fill-rule:evenodd;clip-rule:evenodd;fill:#FFFFFF;" points="91.766,254.669 93.159,260.106 93.623,266.55 
			97.294,273.272 103.965,277.658 109.869,277.307 118.21,280.438 127.989,278.916 131.931,277.23 141.192,283.052 151.455,286.303 
			162.41,286.762 167.44,283.25 176.605,286.631 187.951,287.233 193.939,284.878 200.731,279.086 206.991,281.552 216.09,282.308 
			222.563,280.697 226.506,277.587 233.804,279.159 240.889,277.718 245.273,274.384 249.772,266.035 251.525,257.326 
			253.048,251.71 243.691,249.092 236.171,248.764 223.056,250.297 210.796,252.738 194.815,255.539 177.644,257.065 
			160.406,257.443 145.385,255.818 132.958,252.764 116.92,250.232 103.643,251.056 91.766,254.669 		"/>
		<polygon style="fill-rule:evenodd;clip-rule:evenodd;fill:#61F4E5;" points="92.338,313.999 95.514,308.447 101.514,301.631 
			108.51,298.392 115.227,299.303 118.705,301.312 120.217,307.475 127.215,307.761 132.678,310.69 138.168,316.099 145.921,312.97 
			154.661,312.719 162.761,315.107 168.891,318.436 173.762,314.845 182.104,311.327 191.253,310.981 197.436,312.823 
			201.322,315.047 208.286,310.679 215.065,307.802 219.123,301.882 224.585,297.725 231.915,289.877 238.286,287.002 
			247.3,287.346 254.388,291.308 257.668,295.425 261.971,299.588 258.784,305.735 252.684,314.174 244.273,322.22 236.669,327.391 
			226.555,332.265 212.536,336.43 196.849,338.654 184.661,339.125 166.342,338.562 153.229,337.207 140.001,334.725 
			124.612,330.05 108.265,323.098 97.486,317.541 92.338,313.999 		"/>
		
			<path style="fill:none;stroke:#000000;stroke-width:8.5039;stroke-linecap:round;stroke-linejoin:round;stroke-miterlimit:22.9256;" d="
			M93.159,260.106c0,0-1.427,18.247,16.71,17.202"/>
		
			<path style="fill:none;stroke:#000000;stroke-width:8.5039;stroke-linecap:round;stroke-linejoin:round;stroke-miterlimit:22.9256;" d="
			M131.931,277.23c0,0-18.64,10.002-25.461-12.574"/>
		
			<path style="fill:none;stroke:#000000;stroke-width:8.5039;stroke-linecap:round;stroke-linejoin:round;stroke-miterlimit:22.9256;" d="
			M108.921,273.841"/>
		
			<path style="fill:none;stroke:#000000;stroke-width:8.5039;stroke-linecap:round;stroke-linejoin:round;stroke-miterlimit:22.9256;" d="
			M167.623,283.117c0,0-13.951,10.881-35.692-5.887"/>
		
			<path style="fill:none;stroke:#000000;stroke-width:8.5039;stroke-linecap:round;stroke-linejoin:round;stroke-miterlimit:22.9256;" d="
			M199.873,278.657c0,0-7.972,16.768-32.25,4.46"/>
		
			<path style="fill:none;stroke:#000000;stroke-width:8.5039;stroke-linecap:round;stroke-linejoin:round;stroke-miterlimit:22.9256;" d="
			M234.781,262.078c-0.544,6.6-3.175,12.465-14.712,18.836c-4.735,2.614-11.376,2.236-20.196-2.257"/>
		
			<path style="fill:none;stroke:#000000;stroke-width:8.5039;stroke-linecap:round;stroke-linejoin:round;stroke-miterlimit:22.9256;" d="
			M229.541,274.007c0,0,20.79,9.99,23.508-22.298"/>
		
			<path style="fill:none;stroke:#000000;stroke-width:8.5039;stroke-linecap:round;stroke-linejoin:round;stroke-miterlimit:22.9256;" d="
			M132.112,321.29c0,0,13.588-17.838,36.779-2.854"/>
		
			<path style="fill:none;stroke:#000000;stroke-width:8.5039;stroke-linecap:round;stroke-linejoin:round;stroke-miterlimit:22.9256;" d="
			M203.477,318.436c0,0-17.012-15.162-34.586,0"/>
		
			<path style="fill:none;stroke:#000000;stroke-width:8.5039;stroke-linecap:round;stroke-linejoin:round;stroke-miterlimit:22.9256;" d="
			M236.652,314.69c0,0-19.646-17.863-33.174,3.746"/>
		
			<path style="fill:none;stroke:#000000;stroke-width:8.5039;stroke-linecap:round;stroke-linejoin:round;stroke-miterlimit:22.9256;" d="
			M246.435,303.274c0,0-12.972-16.794-26.544,4.482"/>
		
			<path style="fill:none;stroke:#000000;stroke-width:8.5039;stroke-linecap:round;stroke-linejoin:round;stroke-miterlimit:22.9256;" d="
			M257.668,295.425c-4.167-8.206-19.02-15.146-30.991,4.531"/>
		
			<path style="fill:none;stroke:#000000;stroke-width:8.5039;stroke-linecap:round;stroke-linejoin:round;stroke-miterlimit:22.9256;" d="
			M95.514,308.447c0,0,12.301-17.328,24.703-0.972"/>
		
			<path style="fill:none;stroke:#000000;stroke-width:8.5039;stroke-linecap:round;stroke-linejoin:round;stroke-miterlimit:22.9256;" d="
			M113.13,314.548c0,0,11.648-19.665,28.056,0.333"/>
		
			<path style="fill:none;stroke:#000000;stroke-width:8.5039;stroke-linecap:round;stroke-linejoin:round;stroke-miterlimit:22.9256;" d="
			M45.97,273c0,0,8.515-50.304,75.914-47.985"/>
		
			<path style="fill:none;stroke:#000000;stroke-width:8.5039;stroke-linecap:round;stroke-linejoin:round;stroke-miterlimit:22.9256;" d="
			M219.538,221.982c4.333-0.483,60.876-12.665,75.189,45.844"/>
		
			<path style="fill:none;stroke:#000000;stroke-width:8.5039;stroke-linecap:round;stroke-linejoin:round;stroke-miterlimit:22.9256;" d="
			M121.883,225.015c16.306,0.892,17.612,6.593,44.209,6.471c15.37-0.07,30.659-6.307,53.446-9.503"/>
		
			<path style="fill:none;stroke:#000000;stroke-width:8.5039;stroke-linecap:round;stroke-linejoin:round;stroke-miterlimit:22.9256;" d="
			M63.906,329.19c0,0-24.459-20.157-17.937-56.19"/>
		
			<path style="fill:none;stroke:#000000;stroke-width:8.5039;stroke-linecap:round;stroke-linejoin:round;stroke-miterlimit:22.9256;" d="
			M294.727,267.826c0,0,5.979,20.692-16.487,57.796"/>
		
			<path style="fill:none;stroke:#000000;stroke-width:8.5039;stroke-linecap:round;stroke-linejoin:round;stroke-miterlimit:22.9256;" d="
			M63.906,329.19c11.052,10.167,48.331,35.279,107.614,37.969c34.318,1.558,85.535-8.222,106.72-41.537"/>
		
			<path style="fill:none;stroke:#000000;stroke-width:8.5039;stroke-linecap:round;stroke-linejoin:round;stroke-miterlimit:22.9256;" d="
			M121.792,250.613c21.741,3.389,22.053,7.52,47.667,6.783c28.277-0.813,37.689-4.235,50.35-6.426"/>
		
			<path style="fill:none;stroke:#000000;stroke-width:8.5039;stroke-linecap:round;stroke-linejoin:round;stroke-miterlimit:22.9256;" d="
			M266.554,264.883c0,0,0.681-26.565-46.744-13.914"/>
		
			<path style="fill:none;stroke:#000000;stroke-width:8.5039;stroke-linecap:round;stroke-linejoin:round;stroke-miterlimit:22.9256;" d="
			M121.792,250.613c0,0-44.57-6.422-47.469,30.503"/>
		
			<path style="fill:none;stroke:#000000;stroke-width:8.5039;stroke-linecap:round;stroke-linejoin:round;stroke-miterlimit:22.9256;" d="
			M74.324,281.116c0,0-2.718,23.011,28.083,39.244"/>
		
			<path style="fill:none;stroke:#000000;stroke-width:8.5039;stroke-linecap:round;stroke-linejoin:round;stroke-miterlimit:22.9256;" d="
			M266.554,264.883c0,0,6.522,31.217-19.024,54.585"/>
		
			<path style="fill:none;stroke:#000000;stroke-width:8.5039;stroke-linecap:round;stroke-linejoin:round;stroke-miterlimit:22.9256;" d="
			M102.406,320.36c21.806,10.215,39.457,18.873,82.255,18.765c21.66-0.054,45.447-3.9,62.869-19.657"/>
	</g>
</g>
</svg>
