<svg xmlns="http://www.w3.org/2000/svg" viewBox="0 0 318.661 558.382"><g id="n3201"><g><path fill-rule="evenodd" clip-rule="evenodd" fill="#67559e" d="M104.465 450.162l5.725 3.302-5.692 7.024-.161 6.904 14.925 8.488 13.704 2.621 19.709 3.169 15.58.236 18.069-4.04 13.399-3.479 10.849-6.633 9.764-9.549 3.926-5.515-6.385-10.804 8.514.963 23.72 9.187 20.142 9.712 18.726 11.056 13.478 9.691 11.952 10.465-6.016 11.308-7.933 8.355-14.378 10.282-20.124 10.079-24.512 8.806-30.345 7.475-31.557 4.289-30.443.125-25.509-2.802-21.048-4.743-16.512-5.709-21.586-10.879-16.119-11.289-12.915-11.269-6.566-6.444 12.276-10.858 17.1-13.34 15.712-10.62 13.339-7.698 17.192-7.866z"/><path fill-rule="evenodd" clip-rule="evenodd" fill="#61f4e5" d="M164.74 434.063l-3.608 6.89-5.079 9.283-4.899 7.674-4.264 4.561-13.359-2.035-14.609-4.039-13.286-5.56 4.929-10.416 8.149-13.972 8.013-11.537 7.544-7.088 7.495-1.834-.076 7.415-.211 6.6 8.824 6.844 7.517 4.184 6.92 3.03z"/><path d="M168.741 436.799l8.28 10.4 7.662 10.831 6.131 8.903 8.393-2.844 10.169-5.682s10.182-2.566 9.186-3.836c-.995-1.271-3.107 8.409-3.107 8.409l-7.19 6.458-11.454 5.705-15.367 5.164-17.419 1.744-15.896-.833-15.163-2.717-14.251-4.479-10.096-5.064-5.547-7.42 11.2-7.088 8.605 3.095 10.654 2.89 8.612 1.918 4.748.117 6.334-7.604 4.891-8.4 3.661-6.778 1.909-3.611 5.055.722z" fill-rule="evenodd" clip-rule="evenodd" fill="#f9d740"/><path fill-rule="evenodd" clip-rule="evenodd" fill="#e186ae" d="M183.723 407.419l8.664-.072 5.981 2.593 4.596 4.944 4.026 6.114 4.911 8.884 3.93 7.792 4.482 8.333 2.158 5.6-8.525 3.996-8.009 4.83-10.926 5.078-4.197 1.422-9.067-11.278-6.738-10.984-8.655-10.22 11.359-7.207 9.002-7.207-1.648-3.408-1.344-9.21z"/><path d="M141.678 352.648s21.222-13.438 40.993.361c-.017 5.132-.015 9.646-.015 9.646l.068 12.101.178 11.92.32 11.189.501 9.554.944 7.94 2.048 4.677-8.222 5.566-7.81 6.713-5.732 3.943-7.13-5.225-10.434-6.446-5.907-4.582.25-10.307.078-15.442-.023-18.599-.056-14.089-.051-8.92z" fill-rule="evenodd" clip-rule="evenodd" fill="#f9d740"/><path d="M28.846 500.544s36.815-35.575 75.62-50.382m114.821-9.571s58.506 16.614 95.121 52.369m-172.73-140.312s.399 60.676-.199 67.357m41.192-66.996s-.398 60.495 2.587 63.926m-48.157 1.625s22.089 14.808 29.253 15.891m24.277-17.697s-20.497 17.516-24.278 17.697m-24.578-29.979c-7.542 4.024-11.639-.9-35.32 43.523m77.268-40.576c13.93-.542 16.46-3.666 38.748 44.187m-53.73-14.807c3.781 3.25 19.104 25.823 22.089 30.157m29.054-15.169s-23.881 15.891-29.054 15.169m-29.053-27.268s-11.542 23.115-15.92 23.115m-33.233-8.307s26.069 8.126 33.233 8.307m-42.785-1.264c-3.582 12.642 88.355 43.34 121.19-8.849m-117.807-4.695s.013 4.643 6.169 6.501m-9.552 7.043l9.552-7.043m21.691 37.561s26.537 8.842 59.103-1.625M28.846 500.544c25.87 26.184 61.002 53.27 135.292 53.584 52.158.221 139.046-24.38 150.271-61.168" fill="none" stroke="#000" stroke-width="8.504" stroke-linecap="round" stroke-linejoin="round" stroke-miterlimit="22.926"/></g></g><g id="n3202"><g><g><path fill-rule="evenodd" clip-rule="evenodd" fill="#67559e" d="M35.381 191.218l-9.113-2.439-12.139 2.261-7.25 9.086-2.408 10.846.33 8.306 3.578 9.202 5.418 9.645 3.021 6.905 2.909 9.65 5.316 6.377 4.986 1.639 6.852-1.353-1.479-9.792-2.072-9.699-1.853-12.164.56-10.144 1.572-10.964 1.772-17.362z"/><path d="M270.443 291.826l-.18-13.22-1.227-15.277-1.846-12.694-3.172-15.744-.768-22.626-.15-13.053-1.469-21.642-2.244-28.214-1.682-13.255-4.357-17.357-7.281-10.255-4.846-6.612-8.818-5.866-9.522-1.947-11.635-5.54-8.016-8.573-15.063 1.073-18.904-6.794-11.293-11.198-12.201-7.451-12.822 1.623-16.963 3.656-24.39 9.46-13.469 8.451-14.719 13.752-10.705 15.416-7.045 15.451-5.541 19.977-2.775 20.043-.838 19.306.34 19.217.314 18.848-2.332 23.047-1.348 18.679 1.854 14.54 2.811 17.446.74 5.852s29.305-11.409 75.866-11.409c8.569 0 6.695-15.557 11.329-15.934 10.569-.862 29.879-.033 41.25-.448 5.12-.187 5.021 12.451 10.24 12.385 29.701-.381 64.191 1.343 92.877 6.887z" fill-rule="evenodd" clip-rule="evenodd" fill="#fff"/><path fill-rule="evenodd" clip-rule="evenodd" fill="#f9d740" d="M268.443 254.218l7.288-4.912 5.199-7.368 1.576-7.408 1.875-9.938 3.109-8.953 1.102-12.201-.649-9.97-3.793-7.984-10.666-3.61-7.814 2.142-4.418 3.643.178 11.243.59 7.686 3.171 13.171 1.846 10.619.979 9.097.338 9.212.089 5.531z"/><path fill-rule="evenodd" clip-rule="evenodd" fill="#67559e" d="M68.766 81.733l-3.713-10.259-1.194-8.973 1.702-9.3 7.757-9.196 8.989-6.737 14.525-6.172 10.652-.242 10.03 3.527 7.638 5.181 7.309 6.636 11.311 10.382-12.823 1.357-20.002 4.045-16.812 5.052-15.377 7.358-9.992 7.341z"/><path fill-rule="evenodd" clip-rule="evenodd" fill="#4ab57e" d="M34.922 154.863l-14.873-5.747-4.385-17.999-3.002-18.585-1.301-12.975.332-14.687 3.411-15.395 6.617-12.204 9.318-8.627 12.592-5.177 6.31 4.267 8.907-11.546 10.718-11.26 13.053-6.375 12.949-3.586 2.356-4.48 13.715-3.166 15.607-2.299 12.235-.779 13.041.219 13.082 1.381 17.291 3.788 14.466 5.125 11.846 5.792 10.412 6.645 5.512 4.461 10.912 3.986 14.178 6.987 12.338 8.457 9.22 9.294 4.967 7.847 2.776 7.843.845 7.741-1.424 10.095-1.212 7.854-.42 9.838 1.091 11.361.137 9.226-1.615 10.549-2.781 10.091-4.022 10.507-9.019 13.409-1.082-13.348-1.051-12.719-1.164-12.063-2.098-14.668-4.357-14.52-7.282-8.579-2.379-4.574-11.285-5.865-13.191-2.802-10.338-4.741-5.643-5.892-10.47 1.195-14.043-3.14-9.453-2.841-11.791-6.746-8.02-6.973-9.34-7.073-12.963-11.828-10.021-6.362-12.973-2.225-12.59 3.207-11.755 6.455-7.237 5.818-4.095 4.805-2.536 8.974 1.108 11.24 3.533 9.762-8.725 8.11-9.16 11.036-6.154 10.958-4.42 12.61-3.398 14.453-1.807 16.46z"/><path d="M35.381 191.218S5.563 177.168 4.252 214.48m32.629 46.863s-15.75 8.438-20.062-16.312M4.252 214.479c.188 11.814 8.733 19.198 12.567 30.551" fill="none" stroke="#000" stroke-width="8.504" stroke-linecap="round" stroke-linejoin="round" stroke-miterlimit="22.926"/><path d="M19.598 201.422c2.719 6.54 3.578 12.604 3.033 21.483-.545 8.879.188 12.374 4.313 15.938m8.437-47.625c-1.125 19.688-2.674 17.268-3.875 34.686-.707 10.244 4.131 22.122 5.375 35.439M143.772 56.58C21.897 66.142 34.188 154.83 35.381 191.218m-7.315-6.17c-1.5-19.688-9.186-76.144 12.939-97.894m-.187-11.812s-53.085 12.373-13.085 94.706M51.398 43.701c-14.518-1.319-55.092 6.112-40.037 78.014m52.707-39.248c-7.313.751-42-44.812 27-66.938m134.063 16.125S182.4-18.952 85.68 17.38m46.359-11.881s35.36 4.882 55.404 32.717m-73.71-2.502s-26 4.667-30.353 23.502M66.693 76.467s-7.125-16.115 1.219-27.464m75.86 7.577c-14.252-9.562-45.038-50.866-75.859-7.577m162.486-3.622c1 10.913-27.552 61.062-86.628 11.199" fill="none" stroke="#000" stroke-width="8.504" stroke-linecap="round" stroke-linejoin="round" stroke-miterlimit="22.926"/><path d="M202.068 52.842c-2.063 10.875-26.942 16.638-58.004-17.837-15.922-17.667-34.949-21.464-48.496-20.038m103.508 62.478c5.113 4.828 23.867 15.648 38.654 12.395 13.371-2.941 23.685-9.453 24.15-23.873m13.042 17.081c.938 4.875-16.738 26.185-44.518 7.355m-5.273-58.749s65.625 18.938 53.813 62.25m-17.575 86.006s12.371-18.479 16.32-41.06c3.375-19.294-3.344-20.854 1.254-44.946m-37.254 2.364c13.125 7.875 15.914 39.751 19.68 83.642m1.824 31.745s-2.523-2.926-1.824-31.745m7.074 74.308s.938-20.625-5.25-42.562m-1.941-23.997c.029-3.191 22.566-14.066 26.691 5.809m-3.562 31.124s6.188-9.374 3.562-31.124m-5.437 41.062s.75 12.561-14.062 19.688m15.937-29.626c-1.875 2.625-1.857 4.816-1.875 9.939" fill="none" stroke="#000" stroke-width="8.504" stroke-linecap="round" stroke-linejoin="round" stroke-miterlimit="22.926"/><path d="M276.225 195.717s-2.289 5.48-2.547 13.316c-.332 10.058 4.584 22.243-6.334 23.718" fill="none" stroke="#000" stroke-width="8.504" stroke-linecap="round" stroke-linejoin="round" stroke-miterlimit="22.926"/></g><path d="M44.28 320.931s-13.5-17.5-4.5-32.5 19-28 43.5-34 73 2.5 73 2.5l.5 114.5s-31.5-.5-53.5-11.5-59-39-59-39z" fill-rule="evenodd" clip-rule="evenodd" fill="#e186ae"/><path d="M193.28 367.431c9.5-1.5 49.5-1 62-35.5s19.5-44.5 6.5-60.5-25.5-26.5-58-20.5-49.5 6.5-49.5 6.5l2.5 114 36.5-4z" fill-rule="evenodd" clip-rule="evenodd" fill="#61f4e5"/><g><path fill-rule="evenodd" clip-rule="evenodd" d="M88.511 211.479L85.9 207.16l-1.993-7.042-1.025-9.13-.138-9.538.572-11.053.991-9.689 1.544-7 3.018-3.922 6.581-2.351 7.584 1.84 3.227 3.053 1.024 4.816.13 6.614-2.437 3.413-8.454 4.409-7.35 3.004.268 2.769 6.228 3.296 6.905 4.553 4.877 3.963-.005 5.973-1.274 6.167-1.847 4.758-3.734 6.211-3.248 2.407-3.648.436-5.185-3.638zm111.123-32.423l-.203-8.593-.093-8.488 1.167-5.673 4.239-3.824 8.865-2.249 7.001 1.945 2.961 7.22-.74 6.953-8.207 6.055-6.644 4.816.252 3.576 6.622 4.26 7.84 6.245 2.404 3.237.406 4.908-.464 3.245-1.644 3.748-3.093 3.024-3.361 2.955-6.316-1.446-6.699-5.47-3.306-7.466-.661-10.45-.326-8.528z"/><path d="M184.277 103.746s23.85-4.296 39.632 11.081M76.901 125.353s11.758-18.97 32.515-17.612m-5.203 21.147s-2.657 12.469.495 21.971m-18.055-22.013s-2.546 8.678 6.134 18.856m-20.561-10.607s-.759 5.165 15.793 16.134m19.106 2.747c.868-9.108-19.944-14.103-22.386 1.546m4.435 17.062s16.269-6.033 18.057-9.546m-.106-9.062s.853 5.079.105 9.062m-22.491-7.516s-7.314 47.853 5.847 55.691m16.866-24.048s2.02 12.096-7.831 24.368m-11.586-36.81s10.264 4.243 19.417 12.443m-.791 25.475s-18.764-2.297-35.152 9.012m29.09-.585s2.139-5.631 3.074-8.605m-14.757 10.143s3.897-6.313 4.78-9.489m98.241-79.958s6.582 3.994 10.081 14.401m4.689-22.048s7.499 9.436 5.009 21.903m17.738-10.42s-2.201 9.431-9.829 13.789m-23.007 60.82s23.338-5.047 39.696 4.107m-16.471-5.011s-.757 4.813 4.15 8.68m-15.022-9.124s-1.276 4.063 1.804 8.715m-11.443-60.913c-.296-8.636 20.823-16.68 24.239-.664m.259 6.211s-15.382 11.446-18.53 13.463m18.271-19.674s.554 3.478.26 6.211m-24.499-5.547s-.034 22.026 1.289 37.976c.544 6.55 5.008 9.126 10.006 12.936m-5.326-31.903s17.54 9.894 19.797 15.468m-4.795 14.926s6.97-3.59 4.795-14.926" fill="none" stroke="#000" stroke-width="8.504" stroke-linecap="round" stroke-linejoin="round" stroke-miterlimit="22.926"/></g></g></g><g id="n3203"><g><path d="M136.81 340.45l1.773-23.948 3.276-9.197 6.141-5.876 11.694-.426 7.864.393 3.969 3.896s1.582 6.404.649 5.913c-.934-.491-4.918 3.282-4.918 3.282l.976 6.704-.841 16.886-8.438 2.646-9.827 5.096-6.13-3.33-6.188-2.039z" fill-rule="evenodd" clip-rule="evenodd" fill="#e186ae"/><path d="M155.091 314.552s25.448.883 13.998-13.4m-1.83 13.336s.979 19.758-.478 23.609m-29.971 2.353s-6.03-48.02 30.97-40.353" fill="none" stroke="#000" stroke-width="8.504" stroke-linecap="round" stroke-linejoin="round" stroke-miterlimit="22.926"/></g></g><g id="n3204"><g><path d="M7.036 171.351l2.812-4.875 12.916-3.613 17.664-3.173 15.435-1.802 20.1-1.358 20.068-.467 18.557.228 22.84 1.024 8.602 5.44 8.471 3.048 9.219-3.142 8.691-6.123 14.572-2.004 19.688-1.562 29.053-.642 17.26.429 26.467 1.737 15.291 1.576 6.857.841 3.562 5.062-1.084 5.52-2.479 4.98-7.875 3.188-2.113 14.066-2.631 13.204-2.986 11.561-3.527 10.176-3.283 6.748-4.219 4.855-10.117 4.097-8.826 1.482-18.617.99-15.023-.207-16.27-.762-16.637-1.149-3.521-3.715-4.021-1.548-2.838-5.372-5.922-7.773-4.051-12.538-3.369-7.343-3.459-10.014-3.072-5.762-5.934 1.377-2.375 6.043-1.498 5.25-1.436 6.712-.777 5.031-2.77 11.389-5 7-4 6.5-3 4.5-1.543.946-10.363 2.85-17.914 2.914-14.979 1.509-20.685.501-15.344-1.68-10.373-3.841-6.572-8.29-6.439-15.104-3.613-12.186-3.166-15.206-1.277-8.774-7.074-1.947-4.242-5.363-1.811-5.439zm173.25 3l8.137-1.319 13.629-1.745 12.307-1.137 14.617-.77 18.17.104 19.125 1.879 11.328 2.426-.887 6.49-1.147 8.242-1.77 9.019-3.572 12.186-4.559 9.475-5.289 6.039-6.965 2.736-10.574.283-24.004.083-12.602-.555-9.07-1.874-6.672-6.783-5.404-9.855-4.035-14.26-1.471-12.299.708-8.365zm-143.062 6.375l11.111-2.903 17.779-2.926 15.875-1.293 17.441-.141 15.139.917 11.289 1.304 7.178 1.104.896 6.494.264 7.248-2.32 10.156-4.531 11.609-4.209 9.492-2.729 6.311-9.342 3.079-10.963 1.605-19.613 1.073-10.326.232-9.193-1.303-6.047-1.907-4.844-5.261-4.512-8.043-3.477-9.175-3.23-12.301-1.49-7.942-.146-7.429z" fill-rule="evenodd" clip-rule="evenodd" fill="#e186ae"/><path d="M9.849 166.476s37.5-15 130.125-9m32.437-.938s50.439-9.75 129.188.375m-161.625.563s15.375 19.5 32.438-.938M11.911 181.663s-4.5-5.812-4.875-10.312m298.125-9.375s-.935 8.25-3.562 10.5M20.161 184.101s-4.5-.75-8.25-2.438m281.813-6s4.5-2.625 7.875-3.188M37.411 239.976s-12.375-16.875-17.25-55.875m17.25 55.875c11.062 17.625 85.137 4.482 93.477 1.434 12.457-4.554 16.312-30.335 16.312-30.335s1.586-13.661 6.086-23.036m125.25 44.437c-5.625 9.75-28.541 10.314-89.063 8.25-6.957-.237-22.164-32.057-22.164-32.057-.977-6.369-6.711-20.631-6.711-20.631m-7.312 0s3.562-1.125 7.312 0m133.126-12.375s-4.688 40.312-15.188 56.812m-98.25-58.124s59.063-11.062 97.313-.562m-80.438 52.124c-2.377-1.925-16.875-11.625-17.812-48.375m74.062 50.438s-52.125 1.875-56.25-2.062m79.875-48.938s-3.746 49.738-23.625 51m-216.187-47.25s39.188-13.5 95.812-3.938m-96.375 6.375s5.812 52.5 28.125 51m57.75-11.062c-3.375 7.5-8.625 10.5-57.75 11.062m68.25-57.375c1.816 13.809 3.75 15.188-10.5 46.312" fill="none" stroke="#000" stroke-width="8.504" stroke-linecap="round" stroke-linejoin="round" stroke-miterlimit="22.926"/></g></g><g id="n3205"><g><g><path d="M133.96 244.472l-3.457-6.245 1.043-6.511 4.701-7.664 5.814-6.164 6.509-5.554 6.769-2.546 7.152 1.008 5.362 2.897 5.674 5.078 4.37 5.255 3.358 5.815 1.328 5.926-1.098 3.739-4.275 3.309-5.438 1.313c-.001.002-21.69 7.035-37.812.344z" fill-rule="evenodd" clip-rule="evenodd" fill="#67559e"/><path d="M133.96 244.472s-14.265-9.401 14.609-32.136m13.921-1.539c8.422 1.88 34.718 30.256 9.281 33.333m-9.281-33.333c-3.094-1.367-8.594-2.051-13.922 1.538m16.329 24.445s1.719 2.222 2.578 2.564m-24.922-3.419s-1.719 3.248-3.094 3.932" fill="none" stroke="#000" stroke-width="8.504" stroke-linecap="round" stroke-linejoin="round" stroke-miterlimit="22.926"/></g><path d="M275.531 278.991l-3.805-10.913-7.075-12.223-11.037-10.824-15.468-7.616-15.009-2.796-14.706.195-16.727 2.519-12.47 2.624-17.038 3.402-13.846 1.764-15.847-.84-14.623-3.279-15.093-1.362-11.549-.658-13.321 1.932-19.539 7.207-12.594 9.157-10.336 12.994-5.591 12.771-1.847 14.006 1.115 12.606 3.794 12.169 6.702 11.666 9.877 10.334 14.338 9.87 13.492 7.131 19.817 7.93 18.484 5.194 17.885 3.281 17.638 1.715 19.612-.013 19.73-2.285 15.373-3.444 13.589-4.532 10.822-4.926 12.116-7.526 9.66-8.469 7.629-9.683 5.752-10.252 5.042-11.05 4.476-14.049 1.654-10.463-1.076-13.264zm-31.333 34.285c-10.92 16.127-25.48 37.19-59.564 37.519-34.084.329-65.19 1.975-88.684-12.506-23.495-14.481-43.019-22.709-38.717-52 0 0 2.647-19.747 20.847-21.063 18.2-1.316 42.357 6.582 56.255 5.924 13.898-.658 64.859-5.595 80.412-9.215 15.553-3.62 28.458-2.304 31.437 7.57 2.978 9.872 8.934 27.644-1.986 43.771z" fill-rule="evenodd" clip-rule="evenodd" fill="#f9d740"/><path fill-rule="evenodd" clip-rule="evenodd" fill="#fff" d="M74.564 268.014l1.382 5.368.461 6.363 3.644 6.637 6.623 4.33 5.861-.346 8.281 3.091 9.707-1.503 3.914-1.664 9.193 5.748 10.189 3.21 10.876.453 4.993-3.468 9.098 3.338 11.264.595 5.944-2.325 6.743-5.719 6.215 2.435 9.032.746 6.427-1.591 3.913-3.07 7.246 1.552 7.033-1.422 4.352-3.293 4.467-8.243 1.74-8.598 1.512-5.545-9.289-2.585-7.466-.324-13.019 1.513-12.171 2.411-15.865 2.766-17.046 1.506-17.113.373-14.912-1.604-12.337-3.015-15.922-2.501-13.18.814-11.79 3.567zm.567 58.579l3.153-5.481 5.957-6.73 6.945-3.198 6.668.899 3.453 1.984 1.501 6.085 6.947.283 5.424 2.891 5.45 5.341 7.696-3.09 8.677-.248 8.041 2.358 6.085 3.288 4.836-3.547 8.281-3.473 9.083-.341 6.138 1.818 3.858 2.196 6.913-4.313 6.73-2.84 4.028-5.845 5.422-4.104 7.277-7.75 6.325-2.838 8.948.34 7.037 3.912 3.257 4.065 4.271 4.11-3.164 6.069-6.055 8.332-8.351 7.945-7.548 5.105-10.041 4.812-13.917 4.112-15.573 2.196-12.099.465-18.187-.556-13.017-1.337-13.132-2.451-15.277-4.616-16.229-6.863-10.7-5.488-5.111-3.497z"/><path d="M75.946 273.382s-1.416 18.016 16.589 16.984m21.902-.076s-18.504 9.876-25.276-12.415m60.708 18.227s-13.849 10.744-35.433-5.812m67.449 1.409s-7.914 16.556-32.015 4.403m66.669-20.772c-.54 6.517-3.152 12.307-14.605 18.597-4.701 2.581-11.294 2.208-20.049-2.228m29.452-4.591s20.639 9.864 23.337-22.015m-120.057 68.699s13.49-17.612 36.512-2.818m34.334.001s-16.888-14.97-34.335 0m67.269-3.699s-19.504-17.637-32.933 3.699m42.645-14.971s-12.878-16.581-26.351 4.425m37.503-12.174c-4.137-8.102-18.882-14.954-30.766 4.474m-130.211 8.383s12.212-17.109 24.523-.96m-7.035 6.984s11.564-19.416 27.852.328M29.1 286.114s8.453-49.668 75.362-47.378m96.945-2.995c4.302-.477 60.434-12.505 74.643 45.264m-171.588-42.27c16.188.881 17.484 6.509 43.888 6.389 15.258-.069 30.436-6.227 53.057-9.383M46.906 341.592S22.625 321.69 29.1 286.113m246.95-5.108s5.935 20.43-16.367 57.065m-212.777 3.522c10.972 10.038 47.98 34.832 106.832 37.488 34.069 1.538 84.914-8.118 105.944-41.011m-155.31-74.06c21.583 3.346 21.893 7.425 47.321 6.697 28.072-.803 37.415-4.181 49.985-6.345m46.403 13.738s.676-26.229-46.404-13.738m-97.305-.352s-44.246-6.34-47.124 30.117m0 0s-2.698 22.72 27.879 38.747m162.954-54.774s6.475 30.822-18.885 53.894" fill="none" stroke="#000" stroke-width="8.504" stroke-linecap="round" stroke-linejoin="round" stroke-miterlimit="22.926"/><path d="M85.127 332.873c21.647 10.086 39.171 18.634 81.657 18.528 21.503-.053 45.117-3.851 62.412-19.408" fill="none" stroke="#000" stroke-width="8.504" stroke-linecap="round" stroke-linejoin="round" stroke-miterlimit="22.926"/></g></g></svg>