<?xml version="1.0" encoding="utf-8"?>
<!-- Generator: Adobe Illustrator 19.2.1, SVG Export Plug-In . SVG Version: 6.00 Build 0)  -->
<svg version="1.1" xmlns="http://www.w3.org/2000/svg" xmlns:xlink="http://www.w3.org/1999/xlink" x="0px" y="0px"
	 viewBox="0 0 318.661 558.382" style="enable-background:new 0 0 318.661 558.382;" xml:space="preserve">
<g id="n3201">
	<g>
		<polygon style="fill-rule:evenodd;clip-rule:evenodd;fill:#67559E;" points="104.465,450.162 110.19,453.464 104.498,460.488 
			104.337,467.392 119.262,475.88 132.966,478.501 152.675,481.67 168.255,481.906 186.324,477.866 199.723,474.387 
			210.572,467.754 220.336,458.205 224.262,452.69 217.877,441.886 226.391,442.849 250.111,452.036 270.253,461.748 
			288.979,472.804 302.457,482.495 314.409,492.96 308.393,504.268 300.46,512.623 286.082,522.905 265.958,532.984 241.446,541.79 
			211.101,549.265 179.544,553.554 149.101,553.679 123.592,550.877 102.544,546.134 86.032,540.425 64.446,529.546 48.327,518.257 
			35.412,506.988 28.846,500.544 41.122,489.686 58.222,476.346 73.934,465.726 87.273,458.028 104.465,450.162 		"/>
		<polygon style="fill-rule:evenodd;clip-rule:evenodd;fill:#61F4E5;" points="164.74,434.063 161.132,440.953 156.053,450.236 
			151.154,457.91 146.89,462.471 133.531,460.436 118.922,456.397 105.636,450.837 110.565,440.421 118.714,426.449 
			126.727,414.912 134.271,407.824 141.766,405.99 141.69,413.405 141.479,420.005 150.303,426.849 157.82,431.033 164.74,434.063 
					"/>
		<path style="fill-rule:evenodd;clip-rule:evenodd;fill:#F9D740;" d="M168.741,436.799l8.28,10.4l7.662,10.831l6.131,8.903
			l8.393-2.844l10.169-5.682c0,0,10.182-2.566,9.186-3.836c-0.995-1.271-3.107,8.409-3.107,8.409l-7.19,6.458l-11.454,5.705
			l-15.367,5.164l-17.419,1.744l-15.896-0.833l-15.163-2.717l-14.251-4.479l-10.096-5.064l-5.547-7.42l11.2-7.088l8.605,3.095
			l10.654,2.89l8.612,1.918l4.748,0.117l6.334-7.604l4.891-8.4l3.661-6.778l1.909-3.611L168.741,436.799L168.741,436.799z"/>
		<polygon style="fill-rule:evenodd;clip-rule:evenodd;fill:#E186AE;" points="183.723,407.419 192.387,407.347 198.368,409.94 
			202.964,414.884 206.99,420.998 211.901,429.882 215.831,437.674 220.313,446.007 222.471,451.607 213.946,455.603 
			205.937,460.433 195.011,465.511 190.814,466.933 181.747,455.655 175.009,444.671 166.354,434.451 177.713,427.244 
			186.715,420.037 185.067,416.629 183.723,407.419 		"/>
		<path style="fill-rule:evenodd;clip-rule:evenodd;fill:#F9D740;" d="M141.678,352.648c0,0,21.222-13.438,40.993,0.361
			c-0.017,5.132-0.015,9.646-0.015,9.646l0.068,12.101l0.178,11.92l0.32,11.189l0.501,9.554l0.944,7.94l2.048,4.677l-8.222,5.566
			l-7.81,6.713l-5.732,3.943l-7.13-5.225l-10.434-6.446l-5.907-4.582l0.25-10.307l0.078-15.442l-0.023-18.599l-0.056-14.089
			L141.678,352.648L141.678,352.648z"/>
		
			<path style="fill:none;stroke:#000000;stroke-width:8.5039;stroke-linecap:round;stroke-linejoin:round;stroke-miterlimit:22.9256;" d="
			M28.846,500.544c0,0,36.815-35.575,75.62-50.382"/>
		
			<path style="fill:none;stroke:#000000;stroke-width:8.5039;stroke-linecap:round;stroke-linejoin:round;stroke-miterlimit:22.9256;" d="
			M219.287,440.591c0,0,58.506,16.614,95.121,52.369"/>
		
			<path style="fill:none;stroke:#000000;stroke-width:8.5039;stroke-linecap:round;stroke-linejoin:round;stroke-miterlimit:22.9256;" d="
			M141.678,352.648c0,0,0.399,60.676-0.199,67.357"/>
		
			<path style="fill:none;stroke:#000000;stroke-width:8.5039;stroke-linecap:round;stroke-linejoin:round;stroke-miterlimit:22.9256;" d="
			M182.671,353.009c0,0-0.398,60.495,2.587,63.926"/>
		
			<path style="fill:none;stroke:#000000;stroke-width:8.5039;stroke-linecap:round;stroke-linejoin:round;stroke-miterlimit:22.9256;" d="
			M137.101,418.56c0,0,22.089,14.808,29.253,15.891"/>
		
			<path style="fill:none;stroke:#000000;stroke-width:8.5039;stroke-linecap:round;stroke-linejoin:round;stroke-miterlimit:22.9256;" d="
			M190.631,416.754c0,0-20.497,17.516-24.278,17.697"/>
		
			<path style="fill:none;stroke:#000000;stroke-width:8.5039;stroke-linecap:round;stroke-linejoin:round;stroke-miterlimit:22.9256;" d="
			M141.775,404.472c-7.542,4.024-11.639-0.9-35.32,43.523"/>
		
			<path style="fill:none;stroke:#000000;stroke-width:8.5039;stroke-linecap:round;stroke-linejoin:round;stroke-miterlimit:22.9256;" d="
			M183.723,407.419c13.93-0.542,16.46-3.666,38.748,44.187"/>
		
			<path style="fill:none;stroke:#000000;stroke-width:8.5039;stroke-linecap:round;stroke-linejoin:round;stroke-miterlimit:22.9256;" d="
			M168.741,436.799c3.781,3.25,19.104,25.823,22.089,30.157"/>
		
			<path style="fill:none;stroke:#000000;stroke-width:8.5039;stroke-linecap:round;stroke-linejoin:round;stroke-miterlimit:22.9256;" d="
			M219.884,451.787c0,0-23.881,15.891-29.054,15.169"/>
		
			<path style="fill:none;stroke:#000000;stroke-width:8.5039;stroke-linecap:round;stroke-linejoin:round;stroke-miterlimit:22.9256;" d="
			M161.777,439.688c0,0-11.542,23.115-15.92,23.115"/>
		
			<path style="fill:none;stroke:#000000;stroke-width:8.5039;stroke-linecap:round;stroke-linejoin:round;stroke-miterlimit:22.9256;" d="
			M112.624,454.496c0,0,26.069,8.126,33.233,8.307"/>
		
			<path style="fill:none;stroke:#000000;stroke-width:8.5039;stroke-linecap:round;stroke-linejoin:round;stroke-miterlimit:22.9256;" d="
			M103.072,461.539c-3.582,12.642,88.355,43.34,121.19-8.849"/>
		
			<path style="fill:none;stroke:#000000;stroke-width:8.5039;stroke-linecap:round;stroke-linejoin:round;stroke-miterlimit:22.9256;" d="
			M106.455,447.995c0,0,0.013,4.643,6.169,6.501"/>
		
			<line style="fill:none;stroke:#000000;stroke-width:8.5039;stroke-linecap:round;stroke-linejoin:round;stroke-miterlimit:22.9256;" x1="103.072" y1="461.539" x2="112.624" y2="454.496"/>
		
			<path style="fill:none;stroke:#000000;stroke-width:8.5039;stroke-linecap:round;stroke-linejoin:round;stroke-miterlimit:22.9256;" d="
			M134.315,492.057c0,0,26.537,8.842,59.103-1.625"/>
		
			<path style="fill:none;stroke:#000000;stroke-width:8.5039;stroke-linecap:round;stroke-linejoin:round;stroke-miterlimit:22.9256;" d="
			M28.846,500.544c25.87,26.184,61.002,53.27,135.292,53.584c52.158,0.221,139.046-24.38,150.271-61.168"/>
	</g>
</g>
<g id="n3202">
	<g>
		<g>
			<polygon style="fill-rule:evenodd;clip-rule:evenodd;fill:#67559E;" points="35.381,191.218 26.268,188.779 14.129,191.04 
				6.879,200.126 4.471,210.972 4.801,219.278 8.379,228.48 13.797,238.125 16.818,245.03 19.727,254.68 25.043,261.057 
				30.029,262.696 36.881,261.343 35.402,251.551 33.33,241.852 31.477,229.688 32.037,219.544 33.609,208.58 35.381,191.218 			"/>
			<path style="fill-rule:evenodd;clip-rule:evenodd;fill:#FFFFFF;" d="M270.443,291.826l-0.18-13.22l-1.227-15.277l-1.846-12.694
				l-3.172-15.744l-0.768-22.626l-0.15-13.053l-1.469-21.642l-2.244-28.214l-1.682-13.255l-4.357-17.357l-7.281-10.255l-4.846-6.612
				l-8.818-5.866l-9.522-1.947l-11.635-5.54l-8.016-8.573l-15.063,1.073l-18.904-6.794l-11.293-11.198l-12.201-7.451l-12.822,1.623
				l-16.963,3.656L91.594,70.32l-13.469,8.451L63.406,92.523l-10.705,15.416l-7.045,15.451l-5.541,19.977l-2.775,20.043
				l-0.838,19.306l0.34,19.217l0.314,18.848l-2.332,23.047l-1.348,18.679l1.854,14.54l2.811,17.446l0.74,5.852
				c0,0,29.305-11.409,75.866-11.409c8.569,0,6.695-15.557,11.329-15.934c10.569-0.862,29.879-0.033,41.25-0.448
				c5.12-0.187,5.021,12.451,10.24,12.385C207.267,284.558,241.757,286.282,270.443,291.826L270.443,291.826z"/>
			<polygon style="fill-rule:evenodd;clip-rule:evenodd;fill:#F9D740;" points="268.443,254.218 275.731,249.306 280.93,241.938 
				282.506,234.53 284.381,224.592 287.49,215.639 288.592,203.438 287.943,193.468 284.15,185.484 273.484,181.874 265.67,184.016 
				261.252,187.659 261.43,198.902 262.02,206.588 265.191,219.759 267.037,230.378 268.016,239.475 268.354,248.687 
				268.443,254.218 			"/>
			<polygon style="fill-rule:evenodd;clip-rule:evenodd;fill:#67559E;" points="68.766,81.733 65.053,71.474 63.859,62.501 
				65.561,53.201 73.318,44.005 82.307,37.268 96.832,31.096 107.484,30.854 117.514,34.381 125.152,39.562 132.461,46.198 
				143.772,56.58 130.949,57.937 110.947,61.982 94.135,67.034 78.758,74.392 68.766,81.733 			"/>
			<polygon style="fill-rule:evenodd;clip-rule:evenodd;fill:#4AB57E;" points="34.922,154.863 20.049,149.116 15.664,131.117 
				12.662,112.532 11.361,99.557 11.693,84.87 15.104,69.475 21.721,57.271 31.039,48.644 43.631,43.467 49.941,47.734 
				58.848,36.188 69.566,24.928 82.619,18.553 95.568,14.967 97.924,10.487 111.639,7.321 127.246,5.022 139.481,4.243 
				152.522,4.462 165.604,5.843 182.895,9.631 197.361,14.756 209.207,20.548 219.619,27.193 225.131,31.654 236.043,35.64 
				250.221,42.627 262.559,51.084 271.779,60.378 276.746,68.225 279.522,76.068 280.367,83.809 278.943,93.904 277.731,101.758 
				277.311,111.596 278.402,122.957 278.539,132.183 276.924,142.732 274.143,152.823 270.121,163.33 261.102,176.739 
				260.02,163.391 258.969,150.672 257.805,138.609 255.707,123.941 251.35,109.421 244.068,100.842 241.689,96.268 230.404,90.403 
				217.213,87.601 206.875,82.86 201.232,76.968 190.762,78.163 176.719,75.023 167.266,72.182 155.475,65.436 147.455,58.463 
				138.115,51.39 125.152,39.562 115.131,33.2 102.158,30.975 89.568,34.182 77.813,40.637 70.576,46.455 66.481,51.26 
				63.945,60.234 65.053,71.474 68.586,81.236 59.861,89.346 50.701,100.382 44.547,111.34 40.127,123.95 36.729,138.403 
				34.922,154.863 			"/>
			
				<path style="fill:none;stroke:#000000;stroke-width:8.5039;stroke-linecap:round;stroke-linejoin:round;stroke-miterlimit:22.9256;" d="
				M35.381,191.218c0,0-29.818-14.05-31.129,23.262"/>
			
				<path style="fill:none;stroke:#000000;stroke-width:8.5039;stroke-linecap:round;stroke-linejoin:round;stroke-miterlimit:22.9256;" d="
				M36.881,261.343c0,0-15.75,8.438-20.062-16.312"/>
			
				<path style="fill:none;stroke:#000000;stroke-width:8.5039;stroke-linecap:round;stroke-linejoin:round;stroke-miterlimit:22.9256;" d="
				M4.252,214.479c0.188,11.814,8.733,19.198,12.567,30.551"/>
			
				<path style="fill:none;stroke:#000000;stroke-width:8.5039;stroke-linecap:round;stroke-linejoin:round;stroke-miterlimit:22.9256;" d="
				M19.598,201.422c2.719,6.54,3.578,12.604,3.033,21.483c-0.545,8.879,0.188,12.374,4.313,15.938"/>
			
				<path style="fill:none;stroke:#000000;stroke-width:8.5039;stroke-linecap:round;stroke-linejoin:round;stroke-miterlimit:22.9256;" d="
				M35.381,191.218c-1.125,19.688-2.674,17.268-3.875,34.686c-0.707,10.244,4.131,22.122,5.375,35.439"/>
			
				<path style="fill:none;stroke:#000000;stroke-width:8.5039;stroke-linecap:round;stroke-linejoin:round;stroke-miterlimit:22.9256;" d="
				M143.772,56.58C21.897,66.142,34.188,154.83,35.381,191.218"/>
			
				<path style="fill:none;stroke:#000000;stroke-width:8.5039;stroke-linecap:round;stroke-linejoin:round;stroke-miterlimit:22.9256;" d="
				M28.066,185.048c-1.5-19.688-9.186-76.144,12.939-97.894"/>
			
				<path style="fill:none;stroke:#000000;stroke-width:8.5039;stroke-linecap:round;stroke-linejoin:round;stroke-miterlimit:22.9256;" d="
				M40.818,75.342c0,0-53.085,12.373-13.085,94.706"/>
			
				<path style="fill:none;stroke:#000000;stroke-width:8.5039;stroke-linecap:round;stroke-linejoin:round;stroke-miterlimit:22.9256;" d="
				M51.398,43.701c-14.518-1.319-55.092,6.112-40.037,78.014"/>
			
				<path style="fill:none;stroke:#000000;stroke-width:8.5039;stroke-linecap:round;stroke-linejoin:round;stroke-miterlimit:22.9256;" d="
				M64.068,82.467c-7.313,0.751-42-44.812,27-66.938"/>
			
				<path style="fill:none;stroke:#000000;stroke-width:8.5039;stroke-linecap:round;stroke-linejoin:round;stroke-miterlimit:22.9256;" d="
				M225.131,31.654c0,0-42.731-50.606-139.451-14.274"/>
			
				<path style="fill:none;stroke:#000000;stroke-width:8.5039;stroke-linecap:round;stroke-linejoin:round;stroke-miterlimit:22.9256;" d="
				M132.039,5.499c0,0,35.36,4.882,55.404,32.717"/>
			
				<path style="fill:none;stroke:#000000;stroke-width:8.5039;stroke-linecap:round;stroke-linejoin:round;stroke-miterlimit:22.9256;" d="
				M113.733,35.714c0,0-26,4.667-30.353,23.502"/>
			
				<path style="fill:none;stroke:#000000;stroke-width:8.5039;stroke-linecap:round;stroke-linejoin:round;stroke-miterlimit:22.9256;" d="
				M66.693,76.467c0,0-7.125-16.115,1.219-27.464"/>
			
				<path style="fill:none;stroke:#000000;stroke-width:8.5039;stroke-linecap:round;stroke-linejoin:round;stroke-miterlimit:22.9256;" d="
				M143.772,56.58c-14.252-9.562-45.038-50.866-75.859-7.577"/>
			
				<path style="fill:none;stroke:#000000;stroke-width:8.5039;stroke-linecap:round;stroke-linejoin:round;stroke-miterlimit:22.9256;" d="
				M230.399,45.381c1,10.913-27.552,61.062-86.628,11.199"/>
			
				<path style="fill:none;stroke:#000000;stroke-width:8.5039;stroke-linecap:round;stroke-linejoin:round;stroke-miterlimit:22.9256;" d="
				M202.068,52.842c-2.063,10.875-26.942,16.638-58.004-17.837c-15.922-17.667-34.949-21.464-48.496-20.038"/>
			
				<path style="fill:none;stroke:#000000;stroke-width:8.5039;stroke-linecap:round;stroke-linejoin:round;stroke-miterlimit:22.9256;" d="
				M199.076,77.445c5.113,4.828,23.867,15.648,38.654,12.395c13.371-2.941,23.685-9.453,24.15-23.873"/>
			
				<path style="fill:none;stroke:#000000;stroke-width:8.5039;stroke-linecap:round;stroke-linejoin:round;stroke-miterlimit:22.9256;" d="
				M274.922,83.048c0.938,4.875-16.738,26.185-44.518,7.355"/>
			
				<path style="fill:none;stroke:#000000;stroke-width:8.5039;stroke-linecap:round;stroke-linejoin:round;stroke-miterlimit:22.9256;" d="
				M225.131,31.654c0,0,65.625,18.938,53.813,62.25"/>
			
				<path style="fill:none;stroke:#000000;stroke-width:8.5039;stroke-linecap:round;stroke-linejoin:round;stroke-miterlimit:22.9256;" d="
				M261.369,179.91c0,0,12.371-18.479,16.32-41.06c3.375-19.294-3.344-20.854,1.254-44.946"/>
			
				<path style="fill:none;stroke:#000000;stroke-width:8.5039;stroke-linecap:round;stroke-linejoin:round;stroke-miterlimit:22.9256;" d="
				M241.689,96.268c13.125,7.875,15.914,39.751,19.68,83.642"/>
			
				<path style="fill:none;stroke:#000000;stroke-width:8.5039;stroke-linecap:round;stroke-linejoin:round;stroke-miterlimit:22.9256;" d="
				M263.193,211.655c0,0-2.523-2.926-1.824-31.745"/>
			
				<path style="fill:none;stroke:#000000;stroke-width:8.5039;stroke-linecap:round;stroke-linejoin:round;stroke-miterlimit:22.9256;" d="
				M268.443,254.218c0,0,0.938-20.625-5.25-42.562"/>
			
				<path style="fill:none;stroke:#000000;stroke-width:8.5039;stroke-linecap:round;stroke-linejoin:round;stroke-miterlimit:22.9256;" d="
				M261.252,187.659c0.029-3.191,22.566-14.066,26.691,5.809"/>
			
				<path style="fill:none;stroke:#000000;stroke-width:8.5039;stroke-linecap:round;stroke-linejoin:round;stroke-miterlimit:22.9256;" d="
				M284.381,224.592c0,0,6.188-9.374,3.562-31.124"/>
			
				<path style="fill:none;stroke:#000000;stroke-width:8.5039;stroke-linecap:round;stroke-linejoin:round;stroke-miterlimit:22.9256;" d="
				M282.506,234.53c0,0,0.75,12.561-14.062,19.688"/>
			
				<path style="fill:none;stroke:#000000;stroke-width:8.5039;stroke-linecap:round;stroke-linejoin:round;stroke-miterlimit:22.9256;" d="
				M284.381,224.592c-1.875,2.625-1.857,4.816-1.875,9.939"/>
			
				<path style="fill:none;stroke:#000000;stroke-width:8.5039;stroke-linecap:round;stroke-linejoin:round;stroke-miterlimit:22.9256;" d="
				M276.225,195.717c0,0-2.289,5.48-2.547,13.316c-0.332,10.058,4.584,22.243-6.334,23.718"/>
		</g>
		<path style="fill-rule:evenodd;clip-rule:evenodd;fill:#E186AE;" d="M44.28,320.931c0,0-13.5-17.5-4.5-32.5s19-28,43.5-34
			c24.5-6,73,2.5,73,2.5l0.5,114.5c0,0-31.5-0.5-53.5-11.5S44.28,320.931,44.28,320.931z"/>
		<path style="fill-rule:evenodd;clip-rule:evenodd;fill:#61F4E5;" d="M193.28,367.431c9.5-1.5,49.5-1,62-35.5s19.5-44.5,6.5-60.5
			s-25.5-26.5-58-20.5c-32.5,6-49.5,6.5-49.5,6.5l2.5,114L193.28,367.431z"/>
		<g>
			<polygon style="fill-rule:evenodd;clip-rule:evenodd;" points="88.511,211.479 85.9,207.16 83.907,200.118 82.882,190.988 
				82.744,181.45 83.316,170.397 84.307,160.708 85.851,153.708 88.869,149.786 95.45,147.435 103.034,149.275 106.261,152.328 
				107.285,157.144 107.415,163.758 104.978,167.171 96.524,171.58 89.174,174.584 89.442,177.353 95.67,180.649 102.575,185.202 
				107.452,189.165 107.447,195.138 106.173,201.305 104.326,206.063 100.592,212.274 97.344,214.681 93.696,215.117 
				88.511,211.479 			"/>
			<polygon style="fill-rule:evenodd;clip-rule:evenodd;" points="199.634,179.056 199.431,170.463 199.338,161.975 
				200.505,156.302 204.744,152.478 213.609,150.229 220.61,152.174 223.571,159.394 222.831,166.347 214.624,172.402 
				207.98,177.218 208.232,180.794 214.854,185.054 222.694,191.299 225.098,194.536 225.504,199.444 225.04,202.689 
				223.396,206.437 220.303,209.461 216.942,212.416 210.626,210.97 203.927,205.5 200.621,198.034 199.96,187.584 199.634,179.056 
							"/>
			
				<path style="fill:none;stroke:#000000;stroke-width:8.5039;stroke-linecap:round;stroke-linejoin:round;stroke-miterlimit:22.9256;" d="
				M184.277,103.746c0,0,23.85-4.296,39.632,11.081"/>
			
				<path style="fill:none;stroke:#000000;stroke-width:8.5039;stroke-linecap:round;stroke-linejoin:round;stroke-miterlimit:22.9256;" d="
				M76.901,125.353c0,0,11.758-18.97,32.515-17.612"/>
			
				<path style="fill:none;stroke:#000000;stroke-width:8.5039;stroke-linecap:round;stroke-linejoin:round;stroke-miterlimit:22.9256;" d="
				M104.213,128.888c0,0-2.657,12.469,0.495,21.971"/>
			
				<path style="fill:none;stroke:#000000;stroke-width:8.5039;stroke-linecap:round;stroke-linejoin:round;stroke-miterlimit:22.9256;" d="
				M86.653,128.846c0,0-2.546,8.678,6.134,18.856"/>
			
				<path style="fill:none;stroke:#000000;stroke-width:8.5039;stroke-linecap:round;stroke-linejoin:round;stroke-miterlimit:22.9256;" d="
				M72.226,137.095c0,0-0.759,5.165,15.793,16.134"/>
			
				<path style="fill:none;stroke:#000000;stroke-width:8.5039;stroke-linecap:round;stroke-linejoin:round;stroke-miterlimit:22.9256;" d="
				M107.125,155.976c0.868-9.108-19.944-14.103-22.386,1.546"/>
			
				<path style="fill:none;stroke:#000000;stroke-width:8.5039;stroke-linecap:round;stroke-linejoin:round;stroke-miterlimit:22.9256;" d="
				M89.174,174.584c0,0,16.269-6.033,18.057-9.546"/>
			
				<path style="fill:none;stroke:#000000;stroke-width:8.5039;stroke-linecap:round;stroke-linejoin:round;stroke-miterlimit:22.9256;" d="
				M107.125,155.976c0,0,0.853,5.079,0.105,9.062"/>
			
				<path style="fill:none;stroke:#000000;stroke-width:8.5039;stroke-linecap:round;stroke-linejoin:round;stroke-miterlimit:22.9256;" d="
				M84.739,157.522c0,0-7.314,47.853,5.847,55.691"/>
			
				<path style="fill:none;stroke:#000000;stroke-width:8.5039;stroke-linecap:round;stroke-linejoin:round;stroke-miterlimit:22.9256;" d="
				M107.452,189.165c0,0,2.02,12.096-7.831,24.368"/>
			
				<path style="fill:none;stroke:#000000;stroke-width:8.5039;stroke-linecap:round;stroke-linejoin:round;stroke-miterlimit:22.9256;" d="
				M88.035,176.723c0,0,10.264,4.243,19.417,12.443"/>
			
				<path style="fill:none;stroke:#000000;stroke-width:8.5039;stroke-linecap:round;stroke-linejoin:round;stroke-miterlimit:22.9256;" d="
				M106.661,214.641c0,0-18.764-2.297-35.152,9.012"/>
			
				<path style="fill:none;stroke:#000000;stroke-width:8.5039;stroke-linecap:round;stroke-linejoin:round;stroke-miterlimit:22.9256;" d="
				M100.599,223.068c0,0,2.139-5.631,3.074-8.605"/>
			
				<path style="fill:none;stroke:#000000;stroke-width:8.5039;stroke-linecap:round;stroke-linejoin:round;stroke-miterlimit:22.9256;" d="
				M88.916,224.606c0,0,3.897-6.313,4.78-9.489"/>
			
				<path style="fill:none;stroke:#000000;stroke-width:8.5039;stroke-linecap:round;stroke-linejoin:round;stroke-miterlimit:22.9256;" d="
				M191.937,135.159c0,0,6.582,3.994,10.081,14.401"/>
			
				<path style="fill:none;stroke:#000000;stroke-width:8.5039;stroke-linecap:round;stroke-linejoin:round;stroke-miterlimit:22.9256;" d="
				M206.707,127.512c0,0,7.499,9.436,5.009,21.903"/>
			
				<path style="fill:none;stroke:#000000;stroke-width:8.5039;stroke-linecap:round;stroke-linejoin:round;stroke-miterlimit:22.9256;" d="
				M229.454,138.995c0,0-2.201,9.431-9.829,13.789"/>
			
				<path style="fill:none;stroke:#000000;stroke-width:8.5039;stroke-linecap:round;stroke-linejoin:round;stroke-miterlimit:22.9256;" d="
				M196.618,213.604c0,0,23.338-5.047,39.696,4.107"/>
			
				<path style="fill:none;stroke:#000000;stroke-width:8.5039;stroke-linecap:round;stroke-linejoin:round;stroke-miterlimit:22.9256;" d="
				M219.843,212.7c0,0-0.757,4.813,4.15,8.68"/>
			
				<path style="fill:none;stroke:#000000;stroke-width:8.5039;stroke-linecap:round;stroke-linejoin:round;stroke-miterlimit:22.9256;" d="
				M208.971,212.256c0,0-1.276,4.063,1.804,8.715"/>
			
				<path style="fill:none;stroke:#000000;stroke-width:8.5039;stroke-linecap:round;stroke-linejoin:round;stroke-miterlimit:22.9256;" d="
				M199.332,160.058c-0.296-8.636,20.823-16.68,24.239-0.664"/>
			
				<path style="fill:none;stroke:#000000;stroke-width:8.5039;stroke-linecap:round;stroke-linejoin:round;stroke-miterlimit:22.9256;" d="
				M223.83,165.605c0,0-15.382,11.446-18.53,13.463"/>
			
				<path style="fill:none;stroke:#000000;stroke-width:8.5039;stroke-linecap:round;stroke-linejoin:round;stroke-miterlimit:22.9256;" d="
				M223.571,159.394c0,0,0.554,3.478,0.26,6.211"/>
			
				<path style="fill:none;stroke:#000000;stroke-width:8.5039;stroke-linecap:round;stroke-linejoin:round;stroke-miterlimit:22.9256;" d="
				M199.332,160.058c0,0-0.034,22.026,1.289,37.976c0.544,6.55,5.008,9.126,10.006,12.936"/>
			
				<path style="fill:none;stroke:#000000;stroke-width:8.5039;stroke-linecap:round;stroke-linejoin:round;stroke-miterlimit:22.9256;" d="
				M205.301,179.067c0,0,17.54,9.894,19.797,15.468"/>
			
				<path style="fill:none;stroke:#000000;stroke-width:8.5039;stroke-linecap:round;stroke-linejoin:round;stroke-miterlimit:22.9256;" d="
				M220.303,209.461c0,0,6.97-3.59,4.795-14.926"/>
		</g>
	</g>
</g>
<g id="n3203">
	<g>
		<path style="fill-rule:evenodd;clip-rule:evenodd;fill:#E186AE;" d="M136.81,340.45l1.773-23.948l3.276-9.197l6.141-5.876
			l11.694-0.426l7.864,0.393l3.969,3.896c0,0,1.582,6.404,0.649,5.913c-0.934-0.491-4.918,3.282-4.918,3.282l0.976,6.704
			l-0.841,16.886l-8.438,2.646l-9.827,5.096l-6.13-3.33L136.81,340.45L136.81,340.45z"/>
		
			<path style="fill:none;stroke:#000000;stroke-width:8.5039;stroke-linecap:round;stroke-linejoin:round;stroke-miterlimit:22.9256;" d="
			M155.091,314.552c0,0,25.448,0.883,13.998-13.4"/>
		
			<path style="fill:none;stroke:#000000;stroke-width:8.5039;stroke-linecap:round;stroke-linejoin:round;stroke-miterlimit:22.9256;" d="
			M167.259,314.488c0,0,0.979,19.758-0.478,23.609"/>
		
			<path style="fill:none;stroke:#000000;stroke-width:8.5039;stroke-linecap:round;stroke-linejoin:round;stroke-miterlimit:22.9256;" d="
			M136.81,340.45c0,0-6.03-48.02,30.97-40.353"/>
	</g>
</g>
<g id="n3204">
	<g>
		<path style="fill-rule:evenodd;clip-rule:evenodd;fill:#E186AE;" d="M7.036,171.351l2.812-4.875l12.916-3.613l17.664-3.173
			l15.435-1.802l20.1-1.358l20.068-0.467l18.557,0.228l22.84,1.024l8.602,5.44l8.471,3.048l9.219-3.142l8.691-6.123l14.572-2.004
			l19.688-1.562l29.053-0.642l17.26,0.429l26.467,1.737l15.291,1.576l6.857,0.841l3.562,5.062l-1.084,5.52l-2.479,4.98l-7.875,3.188
			l-2.113,14.066l-2.631,13.204l-2.986,11.561l-3.527,10.176l-3.283,6.748l-4.219,4.855l-10.117,4.097l-8.826,1.482l-18.617,0.99
			l-15.023-0.207l-16.27-0.762l-16.637-1.149l-3.521-3.715l-4.021-1.548l-2.838-5.372l-5.922-7.773l-4.051-12.538l-3.369-7.343
			l-3.459-10.014l-3.072-5.762l-5.934,1.377l-2.375,6.043l-1.498,5.25l-1.436,6.712l-0.777,5.031l-2.77,11.389l-5,7l-4,6.5l-3,4.5
			l-1.543,0.946l-10.363,2.85l-17.914,2.914l-14.979,1.509l-20.685,0.501l-15.344-1.68L41.23,243.66l-6.572-8.29l-6.439-15.104
			l-3.613-12.186l-3.166-15.206l-1.277-8.774l-7.074-1.947l-4.242-5.363L7.036,171.351L7.036,171.351z M180.286,174.351l8.137-1.319
			l13.629-1.745l12.307-1.137l14.617-0.77l18.17,0.104l19.125,1.879l11.328,2.426l-0.887,6.49l-1.147,8.242l-1.77,9.019
			l-3.572,12.186l-4.559,9.475l-5.289,6.039l-6.965,2.736l-10.574,0.283l-24.004,0.083l-12.602-0.555l-9.07-1.874l-6.672-6.783
			l-5.404-9.855l-4.035-14.26l-1.471-12.299L180.286,174.351L180.286,174.351z M37.224,180.726l11.111-2.903l17.779-2.926
			l15.875-1.293l17.441-0.141l15.139,0.917l11.289,1.304l7.178,1.104l0.896,6.494l0.264,7.248l-2.32,10.156l-4.531,11.609
			l-4.209,9.492l-2.729,6.311l-9.342,3.079l-10.963,1.605l-19.613,1.073l-10.326,0.232l-9.193-1.303l-6.047-1.907l-4.844-5.261
			l-4.512-8.043l-3.477-9.175l-3.23-12.301l-1.49-7.942L37.224,180.726L37.224,180.726z"/>
		
			<path style="fill:none;stroke:#000000;stroke-width:8.5039;stroke-linecap:round;stroke-linejoin:round;stroke-miterlimit:22.9256;" d="
			M9.849,166.476c0,0,37.5-15,130.125-9"/>
		
			<path style="fill:none;stroke:#000000;stroke-width:8.5039;stroke-linecap:round;stroke-linejoin:round;stroke-miterlimit:22.9256;" d="
			M172.411,156.538c0,0,50.439-9.75,129.188,0.375"/>
		
			<path style="fill:none;stroke:#000000;stroke-width:8.5039;stroke-linecap:round;stroke-linejoin:round;stroke-miterlimit:22.9256;" d="
			M139.974,157.476c0,0,15.375,19.5,32.438-0.938"/>
		
			<path style="fill:none;stroke:#000000;stroke-width:8.5039;stroke-linecap:round;stroke-linejoin:round;stroke-miterlimit:22.9256;" d="
			M11.911,181.663c0,0-4.5-5.812-4.875-10.312"/>
		
			<path style="fill:none;stroke:#000000;stroke-width:8.5039;stroke-linecap:round;stroke-linejoin:round;stroke-miterlimit:22.9256;" d="
			M305.161,161.976c0,0-0.935,8.25-3.562,10.5"/>
		
			<path style="fill:none;stroke:#000000;stroke-width:8.5039;stroke-linecap:round;stroke-linejoin:round;stroke-miterlimit:22.9256;" d="
			M20.161,184.101c0,0-4.5-0.75-8.25-2.438"/>
		
			<path style="fill:none;stroke:#000000;stroke-width:8.5039;stroke-linecap:round;stroke-linejoin:round;stroke-miterlimit:22.9256;" d="
			M293.724,175.663c0,0,4.5-2.625,7.875-3.188"/>
		
			<path style="fill:none;stroke:#000000;stroke-width:8.5039;stroke-linecap:round;stroke-linejoin:round;stroke-miterlimit:22.9256;" d="
			M37.411,239.976c0,0-12.375-16.875-17.25-55.875"/>
		
			<path style="fill:none;stroke:#000000;stroke-width:8.5039;stroke-linecap:round;stroke-linejoin:round;stroke-miterlimit:22.9256;" d="
			M37.411,239.976c11.062,17.625,85.137,4.482,93.477,1.434c12.457-4.554,16.312-30.335,16.312-30.335s1.586-13.661,6.086-23.036"/>
		
			<path style="fill:none;stroke:#000000;stroke-width:8.5039;stroke-linecap:round;stroke-linejoin:round;stroke-miterlimit:22.9256;" d="
			M278.536,232.476c-5.625,9.75-28.541,10.314-89.063,8.25c-6.957-0.237-22.164-32.057-22.164-32.057
			c-0.977-6.369-6.711-20.631-6.711-20.631"/>
		
			<path style="fill:none;stroke:#000000;stroke-width:8.5039;stroke-linecap:round;stroke-linejoin:round;stroke-miterlimit:22.9256;" d="
			M153.286,188.038c0,0,3.562-1.125,7.312,0"/>
		
			<path style="fill:none;stroke:#000000;stroke-width:8.5039;stroke-linecap:round;stroke-linejoin:round;stroke-miterlimit:22.9256;" d="
			M293.724,175.663c0,0-4.688,40.312-15.188,56.812"/>
		
			<path style="fill:none;stroke:#000000;stroke-width:8.5039;stroke-linecap:round;stroke-linejoin:round;stroke-miterlimit:22.9256;" d="
			M180.286,174.351c0,0,59.063-11.062,97.313-0.562"/>
		
			<path style="fill:none;stroke:#000000;stroke-width:8.5039;stroke-linecap:round;stroke-linejoin:round;stroke-miterlimit:22.9256;" d="
			M197.161,225.913c-2.377-1.925-16.875-11.625-17.812-48.375"/>
		
			<path style="fill:none;stroke:#000000;stroke-width:8.5039;stroke-linecap:round;stroke-linejoin:round;stroke-miterlimit:22.9256;" d="
			M253.411,227.976c0,0-52.125,1.875-56.25-2.062"/>
		
			<path style="fill:none;stroke:#000000;stroke-width:8.5039;stroke-linecap:round;stroke-linejoin:round;stroke-miterlimit:22.9256;" d="
			M277.036,176.976c0,0-3.746,49.738-23.625,51"/>
		
			<path style="fill:none;stroke:#000000;stroke-width:8.5039;stroke-linecap:round;stroke-linejoin:round;stroke-miterlimit:22.9256;" d="
			M37.224,180.726c0,0,39.188-13.5,95.812-3.938"/>
		
			<path style="fill:none;stroke:#000000;stroke-width:8.5039;stroke-linecap:round;stroke-linejoin:round;stroke-miterlimit:22.9256;" d="
			M36.661,183.163c0,0,5.812,52.5,28.125,51"/>
		
			<path style="fill:none;stroke:#000000;stroke-width:8.5039;stroke-linecap:round;stroke-linejoin:round;stroke-miterlimit:22.9256;" d="
			M122.536,223.101c-3.375,7.5-8.625,10.5-57.75,11.062"/>
		
			<path style="fill:none;stroke:#000000;stroke-width:8.5039;stroke-linecap:round;stroke-linejoin:round;stroke-miterlimit:22.9256;" d="
			M133.036,176.788c1.816,13.809,3.75,15.188-10.5,46.312"/>
	</g>
</g>
<g id="n3205">
	<g>
		<g>
			<path style="fill-rule:evenodd;clip-rule:evenodd;fill:#67559E;" d="M133.96,244.472l-3.457-6.245l1.043-6.511l4.701-7.664
				l5.814-6.164l6.509-5.554l6.769-2.546l7.152,1.008l5.362,2.897l5.674,5.078l4.37,5.255l3.358,5.815l1.328,5.926l-1.098,3.739
				l-4.275,3.309l-5.438,1.313C171.771,244.13,150.082,251.163,133.96,244.472L133.96,244.472z"/>
			
				<path style="fill:none;stroke:#000000;stroke-width:8.5039;stroke-linecap:round;stroke-linejoin:round;stroke-miterlimit:22.9256;" d="
				M133.96,244.472c0,0-14.265-9.401,14.609-32.136"/>
			
				<path style="fill:none;stroke:#000000;stroke-width:8.5039;stroke-linecap:round;stroke-linejoin:round;stroke-miterlimit:22.9256;" d="
				M162.49,210.797c8.422,1.88,34.718,30.256,9.281,33.333"/>
			
				<path style="fill:none;stroke:#000000;stroke-width:8.5039;stroke-linecap:round;stroke-linejoin:round;stroke-miterlimit:22.9256;" d="
				M162.49,210.797c-3.094-1.367-8.594-2.051-13.922,1.538"/>
			
				<path style="fill:none;stroke:#000000;stroke-width:8.5039;stroke-linecap:round;stroke-linejoin:round;stroke-miterlimit:22.9256;" d="
				M164.897,236.78c0,0,1.719,2.222,2.578,2.564"/>
			
				<path style="fill:none;stroke:#000000;stroke-width:8.5039;stroke-linecap:round;stroke-linejoin:round;stroke-miterlimit:22.9256;" d="
				M142.553,235.925c0,0-1.719,3.248-3.094,3.932"/>
		</g>
		<path style="fill-rule:evenodd;clip-rule:evenodd;fill:#F9D740;" d="M275.531,278.991l-3.805-10.913l-7.075-12.223l-11.037-10.824
			l-15.468-7.616l-15.009-2.796l-14.706,0.195l-16.727,2.519l-12.47,2.624l-17.038,3.402l-13.846,1.764l-15.847-0.84l-14.623-3.279
			l-15.093-1.362l-11.549-0.658l-13.321,1.932l-19.539,7.207l-12.594,9.157l-10.336,12.994l-5.591,12.771l-1.847,14.006
			l1.115,12.606l3.794,12.169l6.702,11.666l9.877,10.334l14.338,9.87l13.492,7.131l19.817,7.93l18.484,5.194l17.885,3.281
			l17.638,1.715l19.612-0.013l19.73-2.285l15.373-3.444l13.589-4.532l10.822-4.926l12.116-7.526l9.66-8.469l7.629-9.683
			l5.752-10.252l5.042-11.05l4.476-14.049l1.654-10.463L275.531,278.991z M244.198,313.276c-10.92,16.127-25.48,37.19-59.564,37.519
			c-34.084,0.329-65.19,1.975-88.684-12.506c-23.495-14.481-43.019-22.709-38.717-52c0,0,2.647-19.747,20.847-21.063
			c18.2-1.316,42.357,6.582,56.255,5.924c13.898-0.658,64.859-5.595,80.412-9.215c15.553-3.62,28.458-2.304,31.437,7.57
			C249.162,279.377,255.118,297.149,244.198,313.276z"/>
		<polygon style="fill-rule:evenodd;clip-rule:evenodd;fill:#FFFFFF;" points="74.564,268.014 75.946,273.382 76.407,279.745 
			80.051,286.382 86.674,290.712 92.535,290.366 100.816,293.457 110.523,291.954 114.437,290.29 123.63,296.038 133.819,299.248 
			144.695,299.701 149.688,296.233 158.786,299.571 170.05,300.166 175.994,297.841 182.737,292.122 188.952,294.557 
			197.984,295.303 204.411,293.712 208.324,290.642 215.57,292.194 222.603,290.772 226.955,287.479 231.422,279.236 
			233.162,270.638 234.674,265.093 225.385,262.508 217.919,262.184 204.9,263.697 192.729,266.108 176.864,268.874 159.818,270.38 
			142.705,270.753 127.793,269.149 115.456,266.134 99.534,263.633 86.354,264.447 74.564,268.014 		"/>
		<polygon style="fill-rule:evenodd;clip-rule:evenodd;fill:#FFFFFF;" points="75.131,326.593 78.284,321.112 84.241,314.382 
			91.186,311.184 97.854,312.083 101.307,314.067 102.808,320.152 109.755,320.435 115.179,323.326 120.629,328.667 
			128.325,325.577 137.002,325.329 145.043,327.687 151.128,330.975 155.964,327.428 164.245,323.955 173.328,323.614 
			179.466,325.432 183.324,327.628 190.237,323.315 196.967,320.475 200.995,314.63 206.417,310.526 213.694,302.776 
			220.019,299.938 228.967,300.278 236.004,304.19 239.261,308.255 243.532,312.365 240.368,318.434 234.313,326.766 
			225.962,334.711 218.414,339.816 208.373,344.628 194.456,348.74 178.883,350.936 166.784,351.401 148.597,350.845 
			135.58,349.508 122.448,347.057 107.171,342.441 90.942,335.578 80.242,330.09 75.131,326.593 		"/>
		
			<path style="fill:none;stroke:#000000;stroke-width:8.5039;stroke-linecap:round;stroke-linejoin:round;stroke-miterlimit:22.9256;" d="
			M75.946,273.382c0,0-1.416,18.016,16.589,16.984"/>
		
			<path style="fill:none;stroke:#000000;stroke-width:8.5039;stroke-linecap:round;stroke-linejoin:round;stroke-miterlimit:22.9256;" d="
			M114.437,290.29c0,0-18.504,9.876-25.276-12.415"/>
		
			<path style="fill:none;stroke:#000000;stroke-width:8.5039;stroke-linecap:round;stroke-linejoin:round;stroke-miterlimit:22.9256;" d="
			M91.594,286.944"/>
		
			<path style="fill:none;stroke:#000000;stroke-width:8.5039;stroke-linecap:round;stroke-linejoin:round;stroke-miterlimit:22.9256;" d="
			M149.869,296.102c0,0-13.849,10.744-35.433-5.812"/>
		
			<path style="fill:none;stroke:#000000;stroke-width:8.5039;stroke-linecap:round;stroke-linejoin:round;stroke-miterlimit:22.9256;" d="
			M181.885,291.699c0,0-7.914,16.556-32.015,4.403"/>
		
			<path style="fill:none;stroke:#000000;stroke-width:8.5039;stroke-linecap:round;stroke-linejoin:round;stroke-miterlimit:22.9256;" d="
			M216.539,275.33c-0.54,6.517-3.152,12.307-14.605,18.597c-4.701,2.581-11.294,2.208-20.049-2.228"/>
		
			<path style="fill:none;stroke:#000000;stroke-width:8.5039;stroke-linecap:round;stroke-linejoin:round;stroke-miterlimit:22.9256;" d="
			M211.337,287.108c0,0,20.639,9.864,23.337-22.015"/>
		
			<path style="fill:none;stroke:#000000;stroke-width:8.5039;stroke-linecap:round;stroke-linejoin:round;stroke-miterlimit:22.9256;" d="
			M114.617,333.792c0,0,13.49-17.612,36.512-2.818"/>
		
			<path style="fill:none;stroke:#000000;stroke-width:8.5039;stroke-linecap:round;stroke-linejoin:round;stroke-miterlimit:22.9256;" d="
			M185.463,330.975c0,0-16.888-14.97-34.335,0"/>
		
			<path style="fill:none;stroke:#000000;stroke-width:8.5039;stroke-linecap:round;stroke-linejoin:round;stroke-miterlimit:22.9256;" d="
			M218.397,327.276c0,0-19.504-17.637-32.933,3.699"/>
		
			<path style="fill:none;stroke:#000000;stroke-width:8.5039;stroke-linecap:round;stroke-linejoin:round;stroke-miterlimit:22.9256;" d="
			M228.109,316.004c0,0-12.878-16.581-26.351,4.425"/>
		
			<path style="fill:none;stroke:#000000;stroke-width:8.5039;stroke-linecap:round;stroke-linejoin:round;stroke-miterlimit:22.9256;" d="
			M239.261,308.255c-4.137-8.102-18.882-14.954-30.766,4.474"/>
		
			<path style="fill:none;stroke:#000000;stroke-width:8.5039;stroke-linecap:round;stroke-linejoin:round;stroke-miterlimit:22.9256;" d="
			M78.284,321.112c0,0,12.212-17.109,24.523-0.96"/>
		
			<path style="fill:none;stroke:#000000;stroke-width:8.5039;stroke-linecap:round;stroke-linejoin:round;stroke-miterlimit:22.9256;" d="
			M95.772,327.136c0,0,11.564-19.416,27.852,0.328"/>
		
			<path style="fill:none;stroke:#000000;stroke-width:8.5039;stroke-linecap:round;stroke-linejoin:round;stroke-miterlimit:22.9256;" d="
			M29.1,286.114c0,0,8.453-49.668,75.362-47.378"/>
		
			<path style="fill:none;stroke:#000000;stroke-width:8.5039;stroke-linecap:round;stroke-linejoin:round;stroke-miterlimit:22.9256;" d="
			M201.407,235.741c4.302-0.477,60.434-12.505,74.643,45.264"/>
		
			<path style="fill:none;stroke:#000000;stroke-width:8.5039;stroke-linecap:round;stroke-linejoin:round;stroke-miterlimit:22.9256;" d="
			M104.462,238.735c16.188,0.881,17.484,6.509,43.888,6.389c15.258-0.069,30.436-6.227,53.057-9.383"/>
		
			<path style="fill:none;stroke:#000000;stroke-width:8.5039;stroke-linecap:round;stroke-linejoin:round;stroke-miterlimit:22.9256;" d="
			M46.906,341.592c0,0-24.281-19.902-17.806-55.479"/>
		
			<path style="fill:none;stroke:#000000;stroke-width:8.5039;stroke-linecap:round;stroke-linejoin:round;stroke-miterlimit:22.9256;" d="
			M276.05,281.005c0,0,5.935,20.43-16.367,57.065"/>
		
			<path style="fill:none;stroke:#000000;stroke-width:8.5039;stroke-linecap:round;stroke-linejoin:round;stroke-miterlimit:22.9256;" d="
			M46.906,341.592c10.972,10.038,47.98,34.832,106.832,37.488c34.069,1.538,84.914-8.118,105.944-41.011"/>
		
			<path style="fill:none;stroke:#000000;stroke-width:8.5039;stroke-linecap:round;stroke-linejoin:round;stroke-miterlimit:22.9256;" d="
			M104.372,264.009c21.583,3.346,21.893,7.425,47.321,6.697c28.072-0.803,37.415-4.181,49.985-6.345"/>
		
			<path style="fill:none;stroke:#000000;stroke-width:8.5039;stroke-linecap:round;stroke-linejoin:round;stroke-miterlimit:22.9256;" d="
			M248.081,278.099c0,0,0.676-26.229-46.404-13.738"/>
		
			<path style="fill:none;stroke:#000000;stroke-width:8.5039;stroke-linecap:round;stroke-linejoin:round;stroke-miterlimit:22.9256;" d="
			M104.372,264.009c0,0-44.246-6.34-47.124,30.117"/>
		
			<path style="fill:none;stroke:#000000;stroke-width:8.5039;stroke-linecap:round;stroke-linejoin:round;stroke-miterlimit:22.9256;" d="
			M57.248,294.126c0,0-2.698,22.72,27.879,38.747"/>
		
			<path style="fill:none;stroke:#000000;stroke-width:8.5039;stroke-linecap:round;stroke-linejoin:round;stroke-miterlimit:22.9256;" d="
			M248.081,278.099c0,0,6.475,30.822-18.885,53.894"/>
		
			<path style="fill:none;stroke:#000000;stroke-width:8.5039;stroke-linecap:round;stroke-linejoin:round;stroke-miterlimit:22.9256;" d="
			M85.127,332.873c21.647,10.086,39.171,18.634,81.657,18.528c21.503-0.053,45.117-3.851,62.412-19.408"/>
	</g>
</g>
</svg>
