<?xml version="1.0" encoding="utf-8"?>
<!-- Generator: Adobe Illustrator 19.2.1, SVG Export Plug-In . SVG Version: 6.00 Build 0)  -->
<svg version="1.1" xmlns="http://www.w3.org/2000/svg" xmlns:xlink="http://www.w3.org/1999/xlink" x="0px" y="0px"
	 viewBox="0 0 423.302 541.231" style="enable-background:new 0 0 423.302 541.231;" xml:space="preserve">
<g id="n3301">
	<g>
		<path style="fill-rule:evenodd;clip-rule:evenodd;fill:#67559E;" d="M318.967,268.541l0.833-14.226l0.475-17.074l-1.57-14.853
			l0.187-13.289l-1.939-10.749l-0.631-10.94l1.147-16.428l-0.668-17.159l-2.787-15.065l-6.143-17.612l-7.169-13.283l-10.625-13.903
			l-14.665-13.465l-15.157-9.937l-14.662-7.131l-16.654-7.25l-8.577-8.17l-5.537-8.783l-4.312,6.15l-11.112,7.569l-12.816,6.053
			l-14.337,7.679l-15.918,9.722L139.73,88.156l-12.189,10.11l-14.085,14.226l-9.936,13.177l-7.442,14.358l-3.753,13.556
			l-0.948,14.263l-0.452,16.723l-0.274,13.599l-0.27,16.935l-2.601,11.365l-1.987,14.192l-0.841,18.029l0.254,7.973
			c0,0,34.884-3.295,80.732-4.846c7.517-0.254,15.19-13.445,22.284-17.276c12.747-6.885,23.586,22.683,31.784,30.749
			c8.396,8.26,15.922-13.991,22.581-13.781C269.656,262.361,296.323,264.452,318.967,268.541L318.967,268.541z"/>
		<g>
			<defs>
				<polygon id="SVGID_1_" points="107.253,310.549 121.852,300.367 133.161,292.689 149.321,290.842 163.942,293.197 
					175.477,294.149 170.079,274.432 174.182,257.563 189.006,282.288 195.006,276.288 209.006,282.288 224.754,235.355 
					238.846,251.578 246.445,267.421 249.444,277.933 245.527,288.594 246.17,292.973 260.802,289.04 276.12,287.394 
					294.387,289.578 310.4,297.016 320.346,305.996 329.255,319.348 334.073,330.641 337.54,325.102 336.259,308.11 
					331.386,289.713 325.766,279.1 329.616,259.353 333.464,227.35 334.713,194.245 333.375,165.407 329.346,136.238 
					321.538,105.556 310.555,78.211 296.945,55.042 276.644,33.286 254.586,20.678 231.691,43.489 210.259,44.739 194.898,41.004 
					168.011,32.595 149.367,35.773 134.544,48.767 120.513,67.062 107.993,92.631 99.633,118.037 94.054,143.908 91.439,165.227 
					90.392,185.47 90.82,214.083 85.887,263.213 88.887,284.213 95.118,290.107 				"/>
			</defs>
			<clipPath id="SVGID_2_">
				<use xlink:href="#SVGID_1_"  style="overflow:visible;"/>
			</clipPath>
			
				<rect x="35.797" y="-60.747" style="clip-path:url(#SVGID_2_);fill-rule:evenodd;clip-rule:evenodd;fill:#FFFFFF;" width="176.385" height="486.264"/>
		</g>
		
			<path style="fill-rule:evenodd;clip-rule:evenodd;fill:none;stroke:#000000;stroke-width:8.5039;stroke-linecap:round;stroke-linejoin:round;stroke-miterlimit:22.9256;" d="
			M212.525,45.395c0.201-2.482,1.278-2.39-2.692,72.113c-1.035,19.417-0.847,90.287-0.847,90.287"/>
		<path style="fill-rule:evenodd;clip-rule:evenodd;fill:#67559E;" d="M94.006,313.288c0,0-13-23-4-38s26.5-23.5,51-29.5
			s73,2.5,73,2.5l1,105c0,0-54,4-76-7S94.006,313.288,94.006,313.288z"/>
		<path style="fill-rule:evenodd;clip-rule:evenodd;fill:#4AB57E;" d="M249.006,352.288c9.5-1.5,49.5-2.5,62-37
			s20.961-30.747,7.961-46.747s-23.461-31.253-55.961-25.253s-53,2-53,2l1,113L249.006,352.288z"/>
		<g>
			<polygon style="fill-rule:evenodd;clip-rule:evenodd;fill:#67559E;" points="30.755,398.017 30.502,390.831 38.399,379.045 
				42.976,367.865 45.103,349.605 40.457,333.38 29.79,314.396 20.878,293.504 18.026,275.752 19.003,255.912 25.322,237.331 
				34.735,221.898 46.514,206.842 58.675,189.5 61.814,177.456 68.854,178.474 66.701,190.597 63.111,204.922 58.926,217.759 
				53.945,230.313 47.055,245.288 43.352,261.323 43.783,276.731 47.465,293.311 52.285,307.163 58.551,320.018 56.519,333.355 
				57.055,347.357 59.666,359.592 64.906,372.266 59.922,381.495 52.058,390.67 42.349,396.408 30.755,398.017 			"/>
			<path style="fill-rule:evenodd;clip-rule:evenodd;fill:#67559E;" d="M180.966,395.898l-13.793-3.775l-17.18,0.767l-11.903,9.309
				l-10.37,12.725l-21.22-8.707l-11-8.2l-5.385-20.818l3.726-31.023l4.023-27.323l6.706-36.073l3.181-31.871
				c0,0,43.749-44.717,220.997-13.785c5.446,8.754,10.194,16.835,10.194,16.835l9.519,20.74l3.293,13.037v18.456l-1.962,20.316
				l-5.974,16.91l-6.897,12.572l-8.762,11.308l-7.031,9.42l-2.604,8.476l3.561,13.412l-15.583-2.862l-13.474-0.589l-14.511,2.861
				l-9.016,2.655l-7.716-5.061l-7.859-8.058l-9.386,0.211l-8.829,4.991l-14.774,7.021l-13.527,1.085l-15.749-4.315L180.966,395.898z
				"/>
			<path style="fill-rule:evenodd;clip-rule:evenodd;fill:#F9D740;" d="M85.627,396.269l5.608-1.465l-1.238-11.552l1.735-20.044
				l2.588-21.688l5.775-23.499l2.141-21.981l3.713-22.711l2.013-25.058l-0.528-24.338l-2.49-22.962l-3.569-23.177l-1.323-22.892
				l0.715-18.013l3.592-21.991l6.602-19.327l9.921-16.765l11.273-11.727l14.005-8.692l18.895-4.999l16.798,0.586l8.587,1.981
				l6.47-0.656l6.589,4.934l11.537-4.252l16.643-2.586l17.364,1.972l15.056,6.526l12.414,9.959l9.034,10.903l5.948,9.519
				l5.939,12.073l4.101,10.389l-2.851,5.545l2.578,17.794l0.566,10.833l0.574,14.188l1.114,14.309l2.982,17.768l4.452,12.378
				l8.205,14.208l9.593,15.366l10.194,16.835l7.658,15.71l4.759,15.88l1.469,17.1l-1.644,17.524l-4.77,17.043l-7.603,15.737
				l-7.344,10.584l-8.668,10.34l-3.872,8.728l0.406,10.201l2.75,5.8l6.201-0.478l8.885-2.986l8.213,3.964l12.473,4.738l13.739,2.372
				l13.859-2.692l10.44-6.464l8.072-9.587l4.197-9.129l0.86-10.721l-3.702-11.312l-8.044-11.886l-3.575-4.323l6.829-3.554
				l11.343-10.571l4.932-10.123l2.229-13.953l-1.331-14.327l-4.897-15.322l-11.486-15.714l-4.539-12.802l-7.149-10.657
				l-10.662-11.842l0.226-13.082l-0.751-14.905l-2.19-13.466l-4.626-13.901l-6.685-12.076l-7.8-12.055l-6.584-12.559l-4.259-12.681
				l-2.956-16.026l-2.862-17.366l-5.746-19.305l-6.902-12.997l-12.745-14.111l-16.598-9.745l-17.351-4.689l-20.163-1.02
				l-10.323,0.88l-2.279-4.428l-11.693-4.459l-22.385-5.482l-19.347-2.152L177.72,5.654l-19.317,2.334l-18.12,4.552l-15.784,6.015
				l-14.389,7.33L98.914,32.94L87.689,41.33l-11.4,11.719l-7.478,11.449l-5.629,12.618L58.548,94.37l-1.58,11.537l-0.348,19.306
				l1.217,13.876l1.679,12.714l1.549,11.635l0.749,14.019l5.963,7.079l-2.871,13.225l-5.033,17.097l-4.816,12.837l-5.055,11.264
				l-4.628,11.306l-2.021,11.06l0.431,15.408c0,0,1.404,6.323,1.841,8.29c0.437,1.967,4.25,15.217,4.25,15.217l5.543,13.353
				l2.459,9.179l-1.358,10.586l0.536,14.002l2.611,12.235l4.067,10.376l6.331,10.529l7.714,8.959L85.627,396.269L85.627,396.269z"/>
			<path style="fill-rule:evenodd;clip-rule:evenodd;fill:#FFFFFF;" d="M108.056,241.896l-0.33-13.112l-1.537-16.33l-2.232-17.886
				l-2.583-16.773l-1.2-16.953l0.175-18.242l2.401-20.253l6.655-22.223l6.516-12.935l10.597-14.246l12.639-10.21l18.519-8.167
				l18.166-0.802l14.598,2.191l6.47-0.656l6.589,4.934l11.537-4.252l16.643-2.586l17.364,1.972l15.056,6.526l12.414,9.959
				l9.034,10.903l5.948,9.519l5.939,12.073l4.101,10.389l-2.851,5.545l1.289,8.896l1.48,12.555l0.693,16.119l1.024,15.117
				l1.836,13.319l2.834,12.62l7.211,15.746l6.762,11.435l6.934,11.035c-41.861-6.731-65.902,9.273-106.777,12.273
				s-66.438-20.975-114.219,1.513C108.056,241.896,108.056,241.896,108.056,241.896L108.056,241.896z"/>
			<g>
				<defs>
					<polygon id="SVGID_3_" points="103.837,299.216 108.255,290.533 117.173,278.996 131.772,270.315 143.081,263.77 
						159.24,262.195 173.861,264.203 185.396,265.014 189.006,269.288 196.006,269.288 209.006,262.288 216.006,264.288 
						220.006,258.288 229.006,261.288 248.765,228.72 256.365,242.227 259.364,251.189 255.447,260.278 256.09,264.011 
						270.722,260.659 286.039,259.255 304.307,261.117 320.319,267.458 330.266,275.115 339.175,286.498 343.993,296.127 
						347.46,291.404 346.178,276.917 341.305,261.232 335.686,252.184 339.536,235.348 343.383,208.063 344.633,179.839 
						343.294,155.252 339.266,130.384 331.458,104.225 320.475,80.911 306.865,61.158 286.564,42.61 264.506,31.86 242.067,27.485 
						219.513,27.46 201.034,61.488 173.17,56.551 155.837,61.217 140.503,63.217 130.433,71.406 117.913,93.205 109.552,114.866 
						103.973,136.923 101.359,155.099 100.312,172.357 100.739,196.752 102.661,221.892 104.524,246.099 105.037,261.568 
						103.628,270.716 100.24,281.821 98.558,293.892 103.837,299.216 					"/>
				</defs>
				<clipPath id="SVGID_4_">
					<use xlink:href="#SVGID_3_"  style="overflow:visible;"/>
				</clipPath>
			</g>
			
				<path style="fill:none;stroke:#000000;stroke-width:8.5039;stroke-linecap:round;stroke-linejoin:round;stroke-miterlimit:22.9256;" d="
				M205.333,53.396c24.938-18.375,92.146-28.495,101.333,41.63"/>
			
				<path style="fill:none;stroke:#000000;stroke-width:8.5039;stroke-linecap:round;stroke-linejoin:round;stroke-miterlimit:22.9256;" d="
				M202.56,37.241c0,0-29.893-38.215-96.56,5.119"/>
			
				<path style="fill:none;stroke:#000000;stroke-width:8.5039;stroke-linecap:round;stroke-linejoin:round;stroke-miterlimit:22.9256;" d="
				M201.034,61.488c0,0,74.966-33.795,96.374,52.873"/>
			
				<path style="fill:none;stroke:#000000;stroke-width:8.5039;stroke-linecap:round;stroke-linejoin:round;stroke-miterlimit:22.9256;" d="
				M190.534,46.487c12.75-18.562,141.655-59.253,152.905,56.247"/>
			
				<path style="fill:none;stroke:#000000;stroke-width:8.5039;stroke-linecap:round;stroke-linejoin:round;stroke-miterlimit:22.9256;" d="
				M343.347,100.487c0,0,2.336,34.93-12.536,64.673c-20.381,40.76,0.411,68.866,23.599,57.016"/>
			
				<path style="fill:none;stroke:#000000;stroke-width:8.5039;stroke-linecap:round;stroke-linejoin:round;stroke-miterlimit:22.9256;" d="
				M343.439,102.734c5.263,32.479,15.087,39.174,25.424,57.631c9.71,17.339,11.111,34.137,10.225,57.32"/>
			
				<path style="fill:none;stroke:#000000;stroke-width:8.5039;stroke-linecap:round;stroke-linejoin:round;stroke-miterlimit:22.9256;" d="
				M256.768,21.514c0,0-96.768-49.821-169.078,19.816"/>
			
				<path style="fill:none;stroke:#000000;stroke-width:8.5039;stroke-linecap:round;stroke-linejoin:round;stroke-miterlimit:22.9256;" d="
				M61.814,177.456c0.75-13.312-4.983-35.265-5.368-57.201c-0.424-24.214,5.637-57.774,31.243-78.925"/>
			
				<path style="fill:none;stroke:#000000;stroke-width:8.5039;stroke-linecap:round;stroke-linejoin:round;stroke-miterlimit:22.9256;" d="
				M18.127,261.831c4.312-41.438,43.989-61.199,43.688-84.375"/>
			
				<path style="fill:none;stroke:#000000;stroke-width:8.5039;stroke-linecap:round;stroke-linejoin:round;stroke-miterlimit:22.9256;" d="
				M30.502,390.831c7.875-9,18.824-29.286,13.205-48.918c-6.603-23.07-28.525-35.773-25.58-80.082"/>
			
				<path style="fill:none;stroke:#000000;stroke-width:8.5039;stroke-linecap:round;stroke-linejoin:round;stroke-miterlimit:22.9256;" d="
				M4.252,385.394c2.625,5.25,40.404,32.059,60.654-13.128"/>
			
				<path style="fill:none;stroke:#000000;stroke-width:8.5039;stroke-linecap:round;stroke-linejoin:round;stroke-miterlimit:22.9256;" d="
				M57.877,322.769c0,0-11.062,43.876,27.75,73.5"/>
			
				<path style="fill:none;stroke:#000000;stroke-width:8.5039;stroke-linecap:round;stroke-linejoin:round;stroke-miterlimit:22.9256;" d="
				M91.439,193.394c-4.688,59.25-28.743,107.688-33.562,129.375"/>
			
				<path style="fill:none;stroke:#000000;stroke-width:8.5039;stroke-linecap:round;stroke-linejoin:round;stroke-miterlimit:22.9256;" d="
				M68.189,110.144c1.125,22.125,11.437,67.126-18.188,128.813"/>
			
				<path style="fill:none;stroke:#000000;stroke-width:8.5039;stroke-linecap:round;stroke-linejoin:round;stroke-miterlimit:22.9256;" d="
				M57.877,322.769c-3.75-15.188-25.688-50.999-7.875-83.812"/>
			
				<path style="fill:none;stroke:#000000;stroke-width:8.5039;stroke-linecap:round;stroke-linejoin:round;stroke-miterlimit:22.9256;" d="
				M94.626,338.331c-2.896,30.924-5.391,33.767-4.435,49.809c0.838,14.076,9.519,25.053,26.561,33.817"/>
			
				<path style="fill:none;stroke:#000000;stroke-width:8.5039;stroke-linecap:round;stroke-linejoin:round;stroke-miterlimit:22.9256;" d="
				M102.126,184.206c14.062,74.062-0.375,104.25-7.5,154.125"/>
			
				<path style="fill:none;stroke:#000000;stroke-width:8.5039;stroke-linecap:round;stroke-linejoin:round;stroke-miterlimit:22.9256;" d="
				M201.034,61.488c-54.367-21.795-112.219,19.781-98.907,122.719"/>
			
				<path style="fill:none;stroke:#000000;stroke-width:8.5039;stroke-linecap:round;stroke-linejoin:round;stroke-miterlimit:22.9256;" d="
				M353.658,244.112c25.12,35.806,29.097,72.586,20.061,97.875c-9.912,27.743-32.329,34.941-41.326,45.991
				c-2.634,3.235-5.635,7.521-3.297,13.634"/>
			
				<path style="fill:none;stroke:#000000;stroke-width:8.5039;stroke-linecap:round;stroke-linejoin:round;stroke-miterlimit:22.9256;" d="
				M340.068,138.084c0,0,1.932,32.275,18.583,60.054c7.895,13.171,24.743,21.996,38.132,45.599"/>
			
				<path style="fill:none;stroke:#000000;stroke-width:8.5039;stroke-linecap:round;stroke-linejoin:round;stroke-miterlimit:22.9256;" d="
				M378.108,312.922c3-26.626,35.493-35.649,18.675-69.186"/>
			
				<path style="fill:none;stroke:#000000;stroke-width:8.5039;stroke-linecap:round;stroke-linejoin:round;stroke-miterlimit:22.9256;" d="
				M333.97,396.738c6.026-1.836,18.133,6.878,31.791,9.027c11.661,1.834,25.609-1.713,35.413-14.328
				c27.524-35.419-24.453-56.366-23.066-78.515"/>
			
				<path style="fill:none;stroke:#000000;stroke-width:8.5039;stroke-linecap:round;stroke-linejoin:round;stroke-miterlimit:22.9256;" d="
				M401.322,256.538c14.812,9.938,31.461,60.511-0.789,80.011"/>
			
				<path style="fill:none;stroke:#000000;stroke-width:8.5039;stroke-linecap:round;stroke-linejoin:round;stroke-miterlimit:22.9256;" d="
				M297.408,114.361c0,0,3.916,15.819,4.345,31.888c0.68,25.452,2.163,47.513,9.196,61.302"/>
			
				<path style="fill:none;stroke:#000000;stroke-width:8.5039;stroke-linecap:round;stroke-linejoin:round;stroke-miterlimit:22.9256;" d="
				M352.158,290.423c-3.938-29.625-23.356-50.058-41.209-82.873"/>
			
				<path style="fill:none;stroke:#000000;stroke-width:8.5039;stroke-linecap:round;stroke-linejoin:round;stroke-miterlimit:22.9256;" d="
				M328.158,367.299c0,0,29.438-29.062,24-76.876"/>
			
				<path style="fill:none;stroke:#000000;stroke-width:8.5039;stroke-linecap:round;stroke-linejoin:round;stroke-miterlimit:22.9256;" d="
				M355.908,422.987c-9.046-4.988-57.936-24.563-27.75-55.688"/>
			
				<path style="fill:none;stroke:#000000;stroke-width:8.5039;stroke-linecap:round;stroke-linejoin:round;stroke-miterlimit:22.9256;" d="
				M90.688,370.998c-0.703,10.311,4.219,36.238,37.032,43.926"/>
			
				<path style="fill:none;stroke:#000000;stroke-width:8.5039;stroke-linecap:round;stroke-linejoin:round;stroke-miterlimit:22.9256;" d="
				M177.97,395.799c-10.875-1.876-10.608-6.417-22.197-4.646c-8.138,1.244-17.222,7.659-25.615,22.459"/>
			
				<path style="fill:none;stroke:#000000;stroke-width:8.5039;stroke-linecap:round;stroke-linejoin:round;stroke-miterlimit:22.9256;" d="
				M207.408,400.862c-9.376-2.098-9.725-2.857-15.749-4.315c-3.484-0.844-8.741-0.473-13.688-0.747"/>
			
				<path style="fill:none;stroke:#000000;stroke-width:8.5039;stroke-linecap:round;stroke-linejoin:round;stroke-miterlimit:22.9256;" d="
				M237.783,391.299c0,0-15.656,12.094-30.375,9.562"/>
			
				<path style="fill:none;stroke:#000000;stroke-width:8.5039;stroke-linecap:round;stroke-linejoin:round;stroke-miterlimit:22.9256;" d="
				M261.783,395.612c0,0-6.187-16.5-24-4.312"/>
			
				<path style="fill:none;stroke:#000000;stroke-width:8.5039;stroke-linecap:round;stroke-linejoin:round;stroke-miterlimit:22.9256;" d="
				M281.845,396.924c-3.375,0.188-15.75,9.188-20.062-1.312"/>
			
				<path style="fill:none;stroke:#000000;stroke-width:8.5039;stroke-linecap:round;stroke-linejoin:round;stroke-miterlimit:22.9256;" d="
				M322.083,398.607c0,0-24.456-6.623-40.238-1.683"/>
		</g>
		<g>
			<polygon style="fill-rule:evenodd;clip-rule:evenodd;" points="146.06,198.854 143.683,194.674 141.866,187.861 140.927,179.028 
				140.793,169.801 141.303,159.109 142.195,149.737 143.592,142.968 146.331,139.176 152.309,136.907 159.202,138.694 
				162.137,141.65 163.072,146.31 163.196,152.708 160.985,156.007 153.306,160.265 146.63,163.164 146.876,165.844 
				152.538,169.038 158.817,173.447 163.252,177.286 163.253,183.064 162.101,189.028 160.426,193.629 157.038,199.634 
				154.089,201.96 150.774,202.379 146.06,198.854 			"/>
			<polygon style="fill-rule:evenodd;clip-rule:evenodd;" points="247.008,167.588 246.816,159.275 246.724,151.064 247.78,145.577 
				251.629,141.881 259.682,139.713 266.045,141.601 268.742,148.588 268.076,155.313 260.624,161.164 254.591,165.817 
				254.823,169.276 260.844,173.402 267.974,179.45 270.161,182.584 270.534,187.332 270.115,190.471 268.624,194.095 
				265.817,197.018 262.765,199.873 257.025,198.469 250.932,193.172 247.921,185.947 247.312,175.837 247.008,167.588 			"/>
			
				<path style="fill:none;stroke:#000000;stroke-width:8.5039;stroke-linecap:round;stroke-linejoin:round;stroke-miterlimit:22.9256;" d="
				M232.988,94.722c0,0,21.669-4.134,36.023,10.754"/>
			
				<path style="fill:none;stroke:#000000;stroke-width:8.5039;stroke-linecap:round;stroke-linejoin:round;stroke-miterlimit:22.9256;" d="
				M135.434,115.53c0,0,10.668-18.341,29.531-17.009"/>
			
				<path style="fill:none;stroke:#000000;stroke-width:8.5039;stroke-linecap:round;stroke-linejoin:round;stroke-miterlimit:22.9256;" d="
				M160.256,118.973c0,0-2.404,12.059,0.469,21.254"/>
			
				<path style="fill:none;stroke:#000000;stroke-width:8.5039;stroke-linecap:round;stroke-linejoin:round;stroke-miterlimit:22.9256;" d="
				M144.299,118.917c0,0-2.306,8.393,5.591,18.246"/>
			
				<path style="fill:none;stroke:#000000;stroke-width:8.5039;stroke-linecap:round;stroke-linejoin:round;stroke-miterlimit:22.9256;" d="
				M131.197,126.884c0,0-0.685,4.996,14.365,15.622"/>
			
				<path style="fill:none;stroke:#000000;stroke-width:8.5039;stroke-linecap:round;stroke-linejoin:round;stroke-miterlimit:22.9256;" d="
				M162.926,145.18c0.78-8.81-18.135-13.66-20.341,1.476"/>
			
				<path style="fill:none;stroke:#000000;stroke-width:8.5039;stroke-linecap:round;stroke-linejoin:round;stroke-miterlimit:22.9256;" d="
				M146.63,163.164c0,0,14.779-5.822,16.4-9.218"/>
			
				<path style="fill:none;stroke:#000000;stroke-width:8.5039;stroke-linecap:round;stroke-linejoin:round;stroke-miterlimit:22.9256;" d="
				M162.926,145.18c0,0,0.779,4.914,0.104,8.766"/>
			
				<path style="fill:none;stroke:#000000;stroke-width:8.5039;stroke-linecap:round;stroke-linejoin:round;stroke-miterlimit:22.9256;" d="
				M142.585,146.656c0,0-6.604,46.285,5.362,53.879"/>
			
				<path style="fill:none;stroke:#000000;stroke-width:8.5039;stroke-linecap:round;stroke-linejoin:round;stroke-miterlimit:22.9256;" d="
				M163.252,177.286c0,0,1.846,11.703-7.095,23.566"/>
			
				<path style="fill:none;stroke:#000000;stroke-width:8.5039;stroke-linecap:round;stroke-linejoin:round;stroke-miterlimit:22.9256;" d="
				M145.597,165.233c0,0,9.331,4.113,17.655,12.053"/>
			
				<path style="fill:none;stroke:#000000;stroke-width:8.5039;stroke-linecap:round;stroke-linejoin:round;stroke-miterlimit:22.9256;" d="
				M162.556,201.93c0,0-17.053-2.238-31.935,8.687"/>
			
				<path style="fill:none;stroke:#000000;stroke-width:8.5039;stroke-linecap:round;stroke-linejoin:round;stroke-miterlimit:22.9256;" d="
				M157.055,210.076c0,0,1.939-5.445,2.785-8.321"/>
			
				<path style="fill:none;stroke:#000000;stroke-width:8.5039;stroke-linecap:round;stroke-linejoin:round;stroke-miterlimit:22.9256;" d="
				M146.439,211.554c0,0,3.536-6.103,4.335-9.175"/>
			
				<path style="fill:none;stroke:#000000;stroke-width:8.5039;stroke-linecap:round;stroke-linejoin:round;stroke-miterlimit:22.9256;" d="
				M239.975,125.117c0,0,5.984,3.869,9.174,13.939"/>
			
				<path style="fill:none;stroke:#000000;stroke-width:8.5039;stroke-linecap:round;stroke-linejoin:round;stroke-miterlimit:22.9256;" d="
				M253.39,117.732c0,0,6.822,9.135,4.571,21.193"/>
			
				<path style="fill:none;stroke:#000000;stroke-width:8.5039;stroke-linecap:round;stroke-linejoin:round;stroke-miterlimit:22.9256;" d="
				M274.071,128.86c0,0-1.992,9.121-8.919,13.33"/>
			
				<path style="fill:none;stroke:#000000;stroke-width:8.5039;stroke-linecap:round;stroke-linejoin:round;stroke-miterlimit:22.9256;" d="
				M244.298,201.005c0,0,21.202-4.861,36.075,4.008"/>
			
				<path style="fill:none;stroke:#000000;stroke-width:8.5039;stroke-linecap:round;stroke-linejoin:round;stroke-miterlimit:22.9256;" d="
				M265.401,200.151c0,0-0.684,4.655,3.779,8.401"/>
			
				<path style="fill:none;stroke:#000000;stroke-width:8.5039;stroke-linecap:round;stroke-linejoin:round;stroke-miterlimit:22.9256;" d="
				M255.522,199.712c0,0-1.156,3.929,1.647,8.432"/>
			
				<path style="fill:none;stroke:#000000;stroke-width:8.5039;stroke-linecap:round;stroke-linejoin:round;stroke-miterlimit:22.9256;" d="
				M246.717,149.209c-0.276-8.354,18.907-16.117,22.025-0.622"/>
			
				<path style="fill:none;stroke:#000000;stroke-width:8.5039;stroke-linecap:round;stroke-linejoin:round;stroke-miterlimit:22.9256;" d="
				M268.984,154.596c0,0-13.968,11.059-16.826,13.007"/>
			
				<path style="fill:none;stroke:#000000;stroke-width:8.5039;stroke-linecap:round;stroke-linejoin:round;stroke-miterlimit:22.9256;" d="
				M268.742,148.588c0,0,0.506,3.365,0.242,6.008"/>
			
				<path style="fill:none;stroke:#000000;stroke-width:8.5039;stroke-linecap:round;stroke-linejoin:round;stroke-miterlimit:22.9256;" d="
				M246.717,149.209c0,0-0.012,21.307,1.204,36.737c0.5,6.336,4.559,8.833,9.103,12.522"/>
			
				<path style="fill:none;stroke:#000000;stroke-width:8.5039;stroke-linecap:round;stroke-linejoin:round;stroke-miterlimit:22.9256;" d="
				M252.158,167.603c0,0,15.947,9.586,18.003,14.981"/>
			
				<path style="fill:none;stroke:#000000;stroke-width:8.5039;stroke-linecap:round;stroke-linejoin:round;stroke-miterlimit:22.9256;" d="
				M265.817,197.018c0,0,6.331-3.467,4.344-14.434"/>
		</g>
		<path style="fill-rule:evenodd;clip-rule:evenodd;fill:#61F4E5;" d="M103.837,299.216c0,0-9.831-33.928,8.169-45.928s43-20,64-15
			s34,7,34,7l5,108c0,0-40,4-62-9S103.837,299.216,103.837,299.216z"/>
		<path style="fill-rule:evenodd;clip-rule:evenodd;fill:#4AB57E;" d="M241.006,240.288c3,0,27-11,49-6s41,9,36,39s-1,45-27,61
			s-84,19-84,19l-5-108L241.006,240.288z"/>
	</g>
</g>
<g id="n3302">
	<g>
		<g>
			<path style="fill-rule:evenodd;clip-rule:evenodd;fill:#4AB57E;" d="M264.13,423.748c1.512-1.778-1.996,7.083-1.996,7.083
				l-5.541,6.42l-9.604,4.325l-15.551,1.187l-14.81,1.278l-17.104-3.407l-11.545-5.618l-8.24-8.974l-3.053-11.176l-9.697,5.462
				l-9.59,7.588l-9.672,9.83l-7.918,9.704l-7.922,11.253l-7.781,12.622l-5.15,9.248l-3.326,6.362l9.121,10.387l12.508,11.08
				l17.723,11.649l15.479,7.372l20.555,6.505l18.695,2.816l21.367-0.653l15.238-2.247l19.793-5.4l12.732-5.5l12.297-7.38
				l12.428-10.096l8.379-8.407l-3.326-10.709l-5.08-13.115l-7.498-14.752l-8.775-13.346l-10.344-12.413L264.13,423.748
				L264.13,423.748z"/>
			<path style="fill-rule:evenodd;clip-rule:evenodd;fill:#F9D740;" d="M241.255,344.061c0,0-20.932-15.077-39,2.25
				c0.424,4.209,0.781,8.522,0.781,8.522l0.641,11.631l0.131,10.495l-0.207,6.897l-1.199,12.036l-2.195,9.091l-3.285,6.339
				l-5.418,3.511l-4.049-3.223l-7.498,1.937l-2.412,4.461l2.195,8.035l5.391,6.752l7.992,5.221l11.695,4.155l17.615,1.993
				l11.988-1.628l12.568-0.959l12.375-7.535l4.539-8.02l0.213-5.328l-7.977-6.067l-7.621-4.895l-6.889-5.296l-1.406-11.008
				l-0.363-13.104l0.207-12.925l0.553-13.098L241.255,344.061L241.255,344.061z"/>
			
				<path style="fill:none;stroke:#000000;stroke-width:8.5039;stroke-linecap:round;stroke-linejoin:round;stroke-miterlimit:22.9256;" d="
				M311.005,494.061c-18.562-65.625-68.25-87.375-68.25-87.375"/>
			
				<path style="fill:none;stroke:#000000;stroke-width:8.5039;stroke-linecap:round;stroke-linejoin:round;stroke-miterlimit:22.9256;" d="
				M115.63,486.936c42.938-84.188,78.938-75.375,78.938-75.375"/>
			
				<path style="fill:none;stroke:#000000;stroke-width:8.5039;stroke-linecap:round;stroke-linejoin:round;stroke-miterlimit:22.9256;" d="
				M214.442,420.373c4.688,3.375,12-0.188,12-0.188"/>
			
				<path style="fill:none;stroke:#000000;stroke-width:8.5039;stroke-linecap:round;stroke-linejoin:round;stroke-miterlimit:22.9256;" d="
				M190.63,451.498c7.924,5.175,33.779,12.73,59.993,2.582"/>
			
				<path style="fill:none;stroke:#000000;stroke-width:8.5039;stroke-linecap:round;stroke-linejoin:round;stroke-miterlimit:22.9256;" d="
				M241.011,401.212c3.27,13.654,13.369,19.161,13.369,19.161"/>
			
				<path style="fill:none;stroke:#000000;stroke-width:8.5039;stroke-linecap:round;stroke-linejoin:round;stroke-miterlimit:22.9256;" d="
				M241.63,404.436c-3.75-15.562-0.375-60.375-0.375-60.375"/>
			
				<path style="fill:none;stroke:#000000;stroke-width:8.5039;stroke-linecap:round;stroke-linejoin:round;stroke-miterlimit:22.9256;" d="
				M189.13,414.936c21.375,1.875,13.125-68.625,13.125-68.625"/>
			
				<path style="fill:none;stroke:#000000;stroke-width:8.5039;stroke-linecap:round;stroke-linejoin:round;stroke-miterlimit:22.9256;" d="
				M177.505,416.248c-0.357,21.508,29.248,28.009,43.125,27.932c23.955-0.134,41.627-3.182,43.5-20.432"/>
			
				<path style="fill:none;stroke:#000000;stroke-width:8.5039;stroke-linecap:round;stroke-linejoin:round;stroke-miterlimit:22.9256;" d="
				M115.63,486.936c26.549,34.147,71.793,51.905,106.326,49.889c50.811-2.966,73.488-22.138,89.988-39.764"/>
		</g>
	</g>
</g>
<g id="n3303">
	<g>
		<path style="fill-rule:evenodd;clip-rule:evenodd;fill:#E186AE;" d="M194.494,324.889l1.773-24.262l3.276-9.317l6.141-5.953
			l11.694-0.431l7.864,0.398l3.969,3.948c0,0,1.582,6.488,0.649,5.99c-0.934-0.498-4.918,3.325-4.918,3.325l0.976,6.792
			l-0.841,17.108l-8.438,2.681l-9.827,5.163l-6.13-3.373L194.494,324.889L194.494,324.889z"/>
		
			<path style="fill:none;stroke:#000000;stroke-width:8.5039;stroke-linecap:round;stroke-linejoin:round;stroke-miterlimit:22.9256;" d="
			M212.775,298.652c0,0,25.448,0.894,13.998-13.576"/>
		
			<path style="fill:none;stroke:#000000;stroke-width:8.5039;stroke-linecap:round;stroke-linejoin:round;stroke-miterlimit:22.9256;" d="
			M224.943,298.587c0,0,0.979,20.017-0.478,23.919"/>
		
			<path style="fill:none;stroke:#000000;stroke-width:8.5039;stroke-linecap:round;stroke-linejoin:round;stroke-miterlimit:22.9256;" d="
			M194.494,324.889c0,0-6.03-48.649,30.97-40.882"/>
	</g>
</g>
<g id="n3304">
	<g>
		<g>
			<path style="fill-rule:evenodd;clip-rule:evenodd;fill:#F9D740;" d="M188.169,228.099l-3.482-6.325l1.051-6.594l4.735-7.762
				l5.856-6.243l6.556-5.625l6.819-2.579l7.205,1.021l5.401,2.934l5.715,5.143l4.402,5.322l3.382,5.89l1.338,6.002l-1.106,3.787
				l-4.307,3.352l-5.477,1.33C226.257,227.753,204.41,234.876,188.169,228.099L188.169,228.099z"/>
			
				<path style="fill:none;stroke:#000000;stroke-width:8.5039;stroke-linecap:round;stroke-linejoin:round;stroke-miterlimit:22.9256;" d="
				M188.169,228.099c0,0-14.37-9.521,14.716-32.548"/>
			
				<path style="fill:none;stroke:#000000;stroke-width:8.5039;stroke-linecap:round;stroke-linejoin:round;stroke-miterlimit:22.9256;" d="
				M216.908,193.992c8.483,1.904,34.972,30.644,9.349,33.76"/>
			
				<path style="fill:none;stroke:#000000;stroke-width:8.5039;stroke-linecap:round;stroke-linejoin:round;stroke-miterlimit:22.9256;" d="
				M216.908,193.992c-3.117-1.384-8.657-2.078-14.024,1.558"/>
			
				<path style="fill:none;stroke:#000000;stroke-width:8.5039;stroke-linecap:round;stroke-linejoin:round;stroke-miterlimit:22.9256;" d="
				M219.332,220.308c0,0,1.731,2.251,2.597,2.597"/>
			
				<path style="fill:none;stroke:#000000;stroke-width:8.5039;stroke-linecap:round;stroke-linejoin:round;stroke-miterlimit:22.9256;" d="
				M196.825,219.442c0,0-1.731,3.289-3.116,3.982"/>
		</g>
		<path style="fill-rule:evenodd;clip-rule:evenodd;fill:#E186AE;" d="M338.613,266.551l-3.833-11.053l-7.126-12.38l-11.118-10.963
			l-15.581-7.713l-15.119-2.832l-14.813,0.198l-16.85,2.551l-12.562,2.658l-17.163,3.446l-13.947,1.787l-15.963-0.851l-14.73-3.321
			l-15.204-1.38l-11.633-0.666l-13.418,1.957l-19.682,7.3l-12.686,9.274l-10.412,13.16l-5.632,12.935l-1.861,14.186l1.123,12.767
			l3.822,12.325l6.751,11.816l9.95,10.467l14.443,9.997l13.59,7.223l19.962,8.032l18.62,5.26l18.016,3.323l17.767,1.737
			l19.756-0.013l19.875-2.314l15.485-3.489l13.688-4.591l10.901-4.989l12.205-7.622l9.731-8.578l7.685-9.807l5.794-10.383
			l5.079-11.192l4.509-14.23l1.666-10.597L338.613,266.551z M307.051,301.275c-11,16.333-25.667,37.667-60,38
			c-34.333,0.333-65.667,2-89.333-12.667c-23.667-14.667-43.333-23-39-52.667c0,0,2.667-20,21-21.333
			c18.333-1.333,42.667,6.667,56.667,6s65.333-5.667,81-9.333c15.667-3.667,28.667-2.333,31.667,7.667
			C312.051,266.942,318.051,284.942,307.051,301.275z"/>
		<polygon style="fill-rule:evenodd;clip-rule:evenodd;fill:#FFFFFF;" points="136.175,254.749 137.568,259.557 138.032,265.255 
			141.703,271.199 148.374,275.077 154.278,274.767 162.619,277.535 172.397,276.189 176.34,274.699 185.601,279.846 
			195.864,282.721 206.819,283.126 211.849,280.021 221.013,283.011 232.36,283.543 238.348,281.461 245.14,276.339 251.4,278.52 
			260.499,279.188 266.972,277.764 270.915,275.014 278.213,276.404 285.298,275.13 289.682,272.182 294.181,264.8 295.934,257.099 
			297.457,252.133 288.1,249.818 280.579,249.528 267.465,250.883 255.205,253.042 239.224,255.519 222.053,256.868 
			204.815,257.202 189.794,255.766 177.366,253.065 161.328,250.826 148.051,251.555 136.175,254.749 		"/>
		<polygon style="fill-rule:evenodd;clip-rule:evenodd;fill:#FFFFFF;" points="136.747,314.763 139.923,309.211 145.923,302.396 
			152.919,299.156 159.636,300.067 163.114,302.076 164.626,308.239 171.624,308.526 177.087,311.454 182.577,316.863 
			190.33,313.734 199.07,313.483 207.17,315.871 213.3,319.201 218.171,315.609 226.513,312.091 235.662,311.746 241.845,313.587 
			245.731,315.811 252.695,311.443 259.474,308.566 263.532,302.646 268.993,298.49 276.324,290.641 282.695,287.767 
			291.709,288.11 298.797,292.073 302.077,296.189 306.38,300.353 303.193,306.499 297.093,314.938 288.681,322.985 
			281.078,328.155 270.964,333.029 256.945,337.194 241.258,339.418 229.07,339.889 210.75,339.326 197.638,337.971 184.41,335.489 
			169.021,330.814 152.673,323.863 141.895,318.305 136.747,314.763 		"/>
		
			<path style="fill:none;stroke:#000000;stroke-width:8.5039;stroke-linecap:round;stroke-linejoin:round;stroke-miterlimit:22.9256;" d="
			M137.568,259.557c0,0-1.427,16.134,16.71,15.21"/>
		
			<path style="fill:none;stroke:#000000;stroke-width:8.5039;stroke-linecap:round;stroke-linejoin:round;stroke-miterlimit:22.9256;" d="
			M176.34,274.699c0,0-18.64,8.844-25.461-11.118"/>
		
			<path style="fill:none;stroke:#000000;stroke-width:8.5039;stroke-linecap:round;stroke-linejoin:round;stroke-miterlimit:22.9256;" d="
			M153.33,271.702"/>
		
			<path style="fill:none;stroke:#000000;stroke-width:8.5039;stroke-linecap:round;stroke-linejoin:round;stroke-miterlimit:22.9256;" d="
			M212.032,279.904c0,0-13.951,9.621-35.692-5.205"/>
		
			<path style="fill:none;stroke:#000000;stroke-width:8.5039;stroke-linecap:round;stroke-linejoin:round;stroke-miterlimit:22.9256;" d="
			M244.281,275.96c0,0-7.972,14.826-32.25,3.943"/>
		
			<path style="fill:none;stroke:#000000;stroke-width:8.5039;stroke-linecap:round;stroke-linejoin:round;stroke-miterlimit:22.9256;" d="
			M279.189,261.301c-0.544,5.836-3.175,11.022-14.712,16.655c-4.735,2.312-11.376,1.977-20.196-1.995"/>
		
			<path style="fill:none;stroke:#000000;stroke-width:8.5039;stroke-linecap:round;stroke-linejoin:round;stroke-miterlimit:22.9256;" d="
			M273.949,274.772c0,0,20.79,9.99,23.508-22.298"/>
		
			<path style="fill:none;stroke:#000000;stroke-width:8.5039;stroke-linecap:round;stroke-linejoin:round;stroke-miterlimit:22.9256;" d="
			M176.521,322.055c0,0,13.588-17.838,36.779-2.854"/>
		
			<path style="fill:none;stroke:#000000;stroke-width:8.5039;stroke-linecap:round;stroke-linejoin:round;stroke-miterlimit:22.9256;" d="
			M247.886,319.201c0,0-17.012-15.162-34.586,0"/>
		
			<path style="fill:none;stroke:#000000;stroke-width:8.5039;stroke-linecap:round;stroke-linejoin:round;stroke-miterlimit:22.9256;" d="
			M281.061,315.455c0,0-19.646-17.863-33.174,3.746"/>
		
			<path style="fill:none;stroke:#000000;stroke-width:8.5039;stroke-linecap:round;stroke-linejoin:round;stroke-miterlimit:22.9256;" d="
			M290.844,304.038c0,0-12.972-16.794-26.544,4.482"/>
		
			<path style="fill:none;stroke:#000000;stroke-width:8.5039;stroke-linecap:round;stroke-linejoin:round;stroke-miterlimit:22.9256;" d="
			M302.077,296.189c-4.167-8.206-19.02-15.146-30.991,4.531"/>
		
			<path style="fill:none;stroke:#000000;stroke-width:8.5039;stroke-linecap:round;stroke-linejoin:round;stroke-miterlimit:22.9256;" d="
			M139.923,309.211c0,0,12.301-17.328,24.703-0.972"/>
		
			<path style="fill:none;stroke:#000000;stroke-width:8.5039;stroke-linecap:round;stroke-linejoin:round;stroke-miterlimit:22.9256;" d="
			M157.539,315.312c0,0,11.648-19.665,28.056,0.333"/>
		
			<path style="fill:none;stroke:#000000;stroke-width:8.5039;stroke-linecap:round;stroke-linejoin:round;stroke-miterlimit:22.9256;" d="
			M90.378,273.764c0,0,8.515-50.304,75.914-47.985"/>
		
			<path style="fill:none;stroke:#000000;stroke-width:8.5039;stroke-linecap:round;stroke-linejoin:round;stroke-miterlimit:22.9256;" d="
			M263.947,222.747c4.333-0.483,60.876-12.665,75.189,45.844"/>
		
			<path style="fill:none;stroke:#000000;stroke-width:8.5039;stroke-linecap:round;stroke-linejoin:round;stroke-miterlimit:22.9256;" d="
			M166.292,225.779c16.306,0.892,17.612,6.593,44.209,6.471c15.37-0.07,30.659-6.307,53.446-9.503"/>
		
			<path style="fill:none;stroke:#000000;stroke-width:8.5039;stroke-linecap:round;stroke-linejoin:round;stroke-miterlimit:22.9256;" d="
			M108.315,329.954c0,0-24.459-20.157-17.937-56.19"/>
		
			<path style="fill:none;stroke:#000000;stroke-width:8.5039;stroke-linecap:round;stroke-linejoin:round;stroke-miterlimit:22.9256;" d="
			M339.136,268.591c0,0,5.979,20.692-16.487,57.796"/>
		
			<path style="fill:none;stroke:#000000;stroke-width:8.5039;stroke-linecap:round;stroke-linejoin:round;stroke-miterlimit:22.9256;" d="
			M108.315,329.954c11.052,10.167,48.331,35.279,107.614,37.969c34.318,1.558,85.535-8.222,106.719-41.537"/>
		
			<path style="fill:none;stroke:#000000;stroke-width:8.5039;stroke-linecap:round;stroke-linejoin:round;stroke-miterlimit:22.9256;" d="
			M166.201,251.377c21.741,3.389,22.053,7.52,47.667,6.783c28.277-0.813,37.689-4.235,50.35-6.426"/>
		
			<path style="fill:none;stroke:#000000;stroke-width:8.5039;stroke-linecap:round;stroke-linejoin:round;stroke-miterlimit:22.9256;" d="
			M310.963,265.647c0,0,0.681-26.565-46.744-13.914"/>
		
			<path style="fill:none;stroke:#000000;stroke-width:8.5039;stroke-linecap:round;stroke-linejoin:round;stroke-miterlimit:22.9256;" d="
			M166.201,251.377c0,0-44.57-6.422-47.469,30.503"/>
		
			<path style="fill:none;stroke:#000000;stroke-width:8.5039;stroke-linecap:round;stroke-linejoin:round;stroke-miterlimit:22.9256;" d="
			M118.733,281.88c0,0-2.718,23.011,28.083,39.244"/>
		
			<path style="fill:none;stroke:#000000;stroke-width:8.5039;stroke-linecap:round;stroke-linejoin:round;stroke-miterlimit:22.9256;" d="
			M310.963,265.647c0,0,6.522,31.217-19.024,54.585"/>
		
			<path style="fill:none;stroke:#000000;stroke-width:8.5039;stroke-linecap:round;stroke-linejoin:round;stroke-miterlimit:22.9256;" d="
			M146.815,321.124c21.806,10.215,39.457,18.873,82.255,18.765c21.66-0.054,45.447-3.9,62.869-19.657"/>
	</g>
</g>
</svg>
