<?xml version="1.0" encoding="utf-8"?>
<!-- Generator: Adobe Illustrator 19.2.1, SVG Export Plug-In . SVG Version: 6.00 Build 0)  -->
<svg version="1.1" xmlns="http://www.w3.org/2000/svg" xmlns:xlink="http://www.w3.org/1999/xlink" x="0px" y="0px"
	 viewBox="0 0 331.938 557.398" style="enable-background:new 0 0 331.938 557.398;" xml:space="preserve">
<g id="n3401">
	<g>
		<g>
			<polygon style="fill:#E186AE;" points="271.133,531.605 273.896,518.752 276.387,500.337 278.11,472.786 278.343,454.16 
				277.492,422.151 276.59,392.242 276.176,362.711 276.018,335.377 276.004,312.418 276.098,286.546 276.28,262.133 
				276.711,220.605 274.513,163.433 270.436,121.017 264.191,83.392 248.52,71.088 232.057,52.377 216.108,42.079 197.614,34.527 
				186.609,32.033 190.452,25.271 204.704,24.685 224.042,25.977 243.89,31.033 260.126,40.056 271.626,51.732 281.715,70.597 
				286.965,87.49 292.392,106.006 297.236,125.266 302.236,148.808 306.649,174.848 310.002,201.546 312.242,229.264 
				312.991,247.153 313.065,268.702 312.953,292.367 314.68,315.756 317.153,339.634 320.353,366.781 322.791,386.954 
				326.206,415.038 327.685,442.142 325.908,467.175 320.428,486.047 312.175,500.584 301.756,513.125 289.153,523.859 			"/>
			<polygon style="fill:#E186AE;" points="182.535,31.47 190.452,25.271 180.501,18.78 162.435,11.85 144.027,7.393 121.453,5.584 
				102.945,7.539 83.793,13.572 68.037,22.436 55.774,32.527 42.557,52.533 34.711,69.987 26.84,91.084 19.479,114.051 
				12.774,140.744 9.371,164.163 6.699,194.725 5.135,226.789 4.443,255.572 4.266,290.194 4.725,328.783 5.768,367.459 
				7.141,401.258 8.66,430.787 10.045,460.708 11.049,485.505 11.826,508.137 12.313,527.032 19.885,526.211 23.108,515.815 
				27.572,496.006 30.908,474.04 33.233,451.544 35.211,422.444 36.447,393.646 37.457,355.045 37.934,327.361 38.44,290.546 
				39.322,250.198 41.109,226.024 44.744,190.693 50.565,151.727 56.176,125.76 63.936,101.834 75.654,81.756 87.902,66.215 
				101.348,52.866 127.037,36.135 143.315,30.466 166.498,31.061 			"/>
			<path style="fill:#F9D740;" d="M276.57,234.091l-0.332,32.784l-0.18,30.603l-0.051,33.889l0.168,31.344l0.643,39.698
				l1.445,43.753l-0.677,34.973l-1.633,23.231l-26.146-14.013l-35.516-10.568l-38.406-5.255l-43.183-0.649l-37.627,2.935
				l-18.492,2.45l-10.506,3.323l-14.321,3.739l-11.483,3.371l-7.561,2.53l-4.754,1.632l3.705-26.271l3.195-40.023l1.586-33.92
				l1.109-44.404l0.611-38.294l0.551-33.149l0.518-23.681l1.268-20.709l2.422-25.05C42.926,208.359,110.578,275.253,276.57,234.091
				L276.57,234.091z"/>
			<path style="fill:#81CECE;" d="M241.503,59.087l-17.421-11.859l-20.513-10.744l-23.23-5.07l-23.656-6.729L136.5,29.889
				l-18.913,11.202l-16.845,16.99l-12.84,8.133L75.654,81.756L65.3,98.736l-6.662,19.433l-7.537,30.672l-3.447,22.369l-3.285,23.131
				l-1.248,10.629l-3.799,45.228c0,0,98.825,64.055,236.958,11.934c0.141-13.487,0.341-47.723,0.341-47.723l-1.01-22.39
				l-0.808-21.017l-1.227-19.933l-2.816-26.674l-2.399-18.091l-7.039-21.416L250.82,70.24L241.503,59.087L241.503,59.087z"/>
			<path style="fill:#FFFFFF;" d="M164.695,27.851l0.404,243.2l82.87,28.951l29.523-28.375c0,0-4.332-129.141-6.732-147.232
				s-2.507-47.787-42.748-71.28S164.695,27.851,164.695,27.851z"/>
			
				<path style="fill:none;stroke:#000000;stroke-width:8.5039;stroke-linecap:round;stroke-linejoin:round;stroke-miterlimit:22.9256;" d="
				M166.498,31.061c-2.645-2.727-4.156-7.767-0.186,77.572c1.035,22.241,0.847,103.418,0.847,103.418"/>
			
				<path style="fill:none;stroke:#000000;stroke-width:8.5039;stroke-linecap:round;stroke-linejoin:round;stroke-miterlimit:22.9256;" d="
				M196.091,23.159c0,0-68.667-49.04-141.821,10.839"/>
			
				<path style="fill:none;stroke:#000000;stroke-width:8.5039;stroke-linecap:round;stroke-linejoin:round;stroke-miterlimit:22.9256;" d="
				M16.02,126.186c0,0,11.941-71.095,38.25-92.188"/>
			
				<path style="fill:none;stroke:#000000;stroke-width:8.5039;stroke-linecap:round;stroke-linejoin:round;stroke-miterlimit:22.9256;" d="
				M12.176,553.146c1.313-13.664-1.818-91.982-4.5-141.379s-9.188-220.994,8.344-285.581"/>
			
				<path style="fill:none;stroke:#000000;stroke-width:8.5039;stroke-linecap:round;stroke-linejoin:round;stroke-miterlimit:22.9256;" d="
				M38.615,150.141c0,10.567-18.428,114.184-16.74,131.674"/>
			
				<path style="fill:none;stroke:#000000;stroke-width:8.5039;stroke-linecap:round;stroke-linejoin:round;stroke-miterlimit:22.9256;" d="
				M102.091,31.413c0,0-62.538,35.103-63.476,118.728"/>
			
				<path style="fill:none;stroke:#000000;stroke-width:8.5039;stroke-linecap:round;stroke-linejoin:round;stroke-miterlimit:22.9256;" d="
				M187.773,29.622c-13.932-1.735-70.045-17.941-119.437,63.22"/>
			
				<path style="fill:none;stroke:#000000;stroke-width:8.5039;stroke-linecap:round;stroke-linejoin:round;stroke-miterlimit:22.9256;" d="
				M38.899,257.724c0,0,5.812-124.071,29.437-164.882"/>
			
				<path style="fill:none;stroke:#000000;stroke-width:8.5039;stroke-linecap:round;stroke-linejoin:round;stroke-miterlimit:22.9256;" d="
				M19.211,528.093c18.562-50.649,17.812-146.117,19.688-270.369"/>
			
				<path style="fill:none;stroke:#000000;stroke-width:8.5039;stroke-linecap:round;stroke-linejoin:round;stroke-miterlimit:22.9256;" d="
				M71.711,476.715"/>
			
				<path style="fill:none;stroke:#000000;stroke-width:8.5039;stroke-linecap:round;stroke-linejoin:round;stroke-miterlimit:22.9256;" d="
				M55.586,375.6c0,0-0.75,72.329-7.125,95.832"/>
			
				<path style="fill:none;stroke:#000000;stroke-width:8.5039;stroke-linecap:round;stroke-linejoin:round;stroke-miterlimit:22.9256;" d="
				M261.274,366.855c0,0-0.375,63.584,0.188,82.714"/>
			
				<path style="fill:none;stroke:#000000;stroke-width:8.5039;stroke-linecap:round;stroke-linejoin:round;stroke-miterlimit:22.9256;" d="
				M273.836,503.315c0,0-97.079-61.666-245.875-9.455"/>
			
				<path style="fill:none;stroke:#000000;stroke-width:8.5039;stroke-linecap:round;stroke-linejoin:round;stroke-miterlimit:22.9256;" d="
				M264.93,94.027"/>
			
				<path style="fill:none;stroke:#000000;stroke-width:8.5039;stroke-linecap:round;stroke-linejoin:round;stroke-miterlimit:22.9256;" d="
				M187.773,29.622c0,0,44.318,16.4,75.828,59.726"/>
			
				<path style="fill:none;stroke:#000000;stroke-width:8.5039;stroke-linecap:round;stroke-linejoin:round;stroke-miterlimit:22.9256;" d="
				M257.242,57.771c0,0,18.375,45.548,19.5,165.793"/>
			
				<path style="fill:none;stroke:#000000;stroke-width:8.5039;stroke-linecap:round;stroke-linejoin:round;stroke-miterlimit:22.9256;" d="
				M262.117,552.598c0,0,20.624-19.312,15.375-130.447"/>
			
				<path style="fill:none;stroke:#000000;stroke-width:8.5039;stroke-linecap:round;stroke-linejoin:round;stroke-miterlimit:22.9256;" d="
				M276.742,223.564c-1.201,81.621-0.946,161.393,0.75,198.586"/>
			
				<path style="fill:none;stroke:#000000;stroke-width:8.5039;stroke-linecap:round;stroke-linejoin:round;stroke-miterlimit:22.9256;" d="
				M289.492,96.031c-7.688-22.227-22.068-81.75-93.401-72.872"/>
			
				<path style="fill:none;stroke:#000000;stroke-width:8.5039;stroke-linecap:round;stroke-linejoin:round;stroke-miterlimit:22.9256;" d="
				M312.742,277.309c0,0,5.477-82.888-23.324-181.911"/>
			
				<path style="fill:none;stroke:#000000;stroke-width:8.5039;stroke-linecap:round;stroke-linejoin:round;stroke-miterlimit:22.9256;" d="
				M270.437,534.161c0,0,33.321-11.487,49.991-48.114c8.229-18.08,9.823-46.845,2.909-94.414"/>
			
				<path style="fill:none;stroke:#000000;stroke-width:8.5039;stroke-linecap:round;stroke-linejoin:round;stroke-miterlimit:22.9256;" d="
				M312.742,277.309c-0.938,25.507,7.121,84.005,10.595,114.324"/>
			
				<path style="fill:none;stroke:#000000;stroke-width:8.5039;stroke-linecap:round;stroke-linejoin:round;stroke-miterlimit:22.9256;" d="
				M292.212,314.747c-1.124,36.439,8.625,173.081-0.375,192.028"/>
			<path style="fill:#67559E;" d="M54.695,296.546c0,0-13.5-17.5-4.5-32.5s19-28,43.5-34s73,2.5,73,2.5l0.5,114.5
				c0,0-31.5-0.5-53.5-11.5S54.695,296.546,54.695,296.546z"/>
			<path style="fill:#4AB57E;" d="M203.695,343.046c9.5-1.5,49.5-1,62-35.5s19.5-44.5,6.5-60.5s-25.5-26.5-58-20.5
				s-49.5,6.5-49.5,6.5l2.5,114L203.695,343.046z"/>
			<g>
				<polygon points="84.51,153.088 85.747,141.206 88.974,132.33 96.373,128.79 105.388,131.387 107.824,136.217 107.904,142.242 
					106.498,148.02 98.357,153.06 92.2,157.668 91.481,161.485 96.609,167.345 101.606,172.726 107.826,179.138 107.675,185.422 
					105.492,193.946 101.469,199.39 95.448,202.729 88.632,202.533 86.386,197.171 84.794,185.821 84.006,173.067 84.074,160.881 
									"/>
				<polygon points="214.124,140.296 217.721,133.509 223.176,130.69 230.068,131.773 235.82,135.985 235.993,145.935 
					235.982,150.944 229.169,155.847 223.082,161.225 220.287,165.961 225.361,168.783 230.832,172.695 237.107,178.883 
					236.941,185.959 235.604,192.888 231.68,198.262 225.119,201.554 219.078,199.228 215.306,191.563 213.924,180.477 
					213.532,173.068 213.156,158.166 213.221,150.038 				"/>
				
					<path style="fill:none;stroke:#000000;stroke-width:8.5039;stroke-linecap:round;stroke-linejoin:round;stroke-miterlimit:22.9256;" d="
					M195.509,94.515c5.062-1.017,15.272-28.354,50.566,11.396"/>
				
					<path style="fill:none;stroke:#000000;stroke-width:8.5039;stroke-linecap:round;stroke-linejoin:round;stroke-miterlimit:22.9256;" d="
					M76.509,101.74c3.101-0.529,22.604-36.171,49.5-8.128"/>
				
					<path style="fill:none;stroke:#000000;stroke-width:8.5039;stroke-linecap:round;stroke-linejoin:round;stroke-miterlimit:22.9256;" d="
					M62.826,141.207c0,0,31.5,2.201,20.625-23.028"/>
				
					<path style="fill:none;stroke:#000000;stroke-width:8.5039;stroke-linecap:round;stroke-linejoin:round;stroke-miterlimit:22.9256;" d="
					M102.951,110.897c0,0,3.562,12.361-12.75,18.965"/>
				
					<path style="fill:none;stroke:#000000;stroke-width:8.5039;stroke-linecap:round;stroke-linejoin:round;stroke-miterlimit:22.9256;" d="
					M119.638,112.082c0,0,5.438,9.822-14.25,19.305"/>
				
					<path style="fill:none;stroke:#000000;stroke-width:8.5039;stroke-linecap:round;stroke-linejoin:round;stroke-miterlimit:22.9256;" d="
					M74.451,206.4c0,0,10.688-4.741,12.562-6.265"/>
				
					<path style="fill:none;stroke:#000000;stroke-width:8.5039;stroke-linecap:round;stroke-linejoin:round;stroke-miterlimit:22.9256;" d="
					M87.013,213.342c0,0,2.25-6.095,4.688-10.667"/>
				
					<path style="fill:none;stroke:#000000;stroke-width:8.5039;stroke-linecap:round;stroke-linejoin:round;stroke-miterlimit:22.9256;" d="
					M99.388,201.15c0,0,4.5,1.185,4.875,9.99"/>
				
					<path style="fill:none;stroke:#000000;stroke-width:8.5039;stroke-linecap:round;stroke-linejoin:round;stroke-miterlimit:22.9256;" d="
					M108.013,137.313c-0.938-9.482-19.125-13.716-21.938,1.524"/>
				
					<path style="fill:none;stroke:#000000;stroke-width:8.5039;stroke-linecap:round;stroke-linejoin:round;stroke-miterlimit:22.9256;" d="
					M87.013,200.135c0,0-6.236-24.627-0.938-61.297"/>
				
					<path style="fill:none;stroke:#000000;stroke-width:8.5039;stroke-linecap:round;stroke-linejoin:round;stroke-miterlimit:22.9256;" d="
					M107.263,147.134c0,0,0.938-4.402,0.75-9.82"/>
				
					<path style="fill:none;stroke:#000000;stroke-width:8.5039;stroke-linecap:round;stroke-linejoin:round;stroke-miterlimit:22.9256;" d="
					M89.451,158.987c0,0,12.938-5.756,17.812-11.853"/>
				
					<path style="fill:none;stroke:#000000;stroke-width:8.5039;stroke-linecap:round;stroke-linejoin:round;stroke-miterlimit:22.9256;" d="
					M107.826,179.138c0,0-11.874-11.873-18.375-20.151"/>
				
					<path style="fill:none;stroke:#000000;stroke-width:8.5039;stroke-linecap:round;stroke-linejoin:round;stroke-miterlimit:22.9256;" d="
					M107.904,181.448c-0.296,4.173,3.784,19.623-16.71,22.203"/>
				
					<path style="fill:none;stroke:#000000;stroke-width:8.5039;stroke-linecap:round;stroke-linejoin:round;stroke-miterlimit:22.9256;" d="
					M206.263,111.236c0,0-6.374,13.378,12.188,23.876"/>
				
					<path style="fill:none;stroke:#000000;stroke-width:8.5039;stroke-linecap:round;stroke-linejoin:round;stroke-miterlimit:22.9256;" d="
					M239.639,119.534c0,0-20.25,16.086,21.563,25.569"/>
				
					<path style="fill:none;stroke:#000000;stroke-width:8.5039;stroke-linecap:round;stroke-linejoin:round;stroke-miterlimit:22.9256;" d="
					M221.451,114.454c0,0-4.874,9.82,5.813,17.101"/>
				
					<path style="fill:none;stroke:#000000;stroke-width:8.5039;stroke-linecap:round;stroke-linejoin:round;stroke-miterlimit:22.9256;" d="
					M208.045,206.992c0,0,7.875-6.603,9.562-9.482"/>
				
					<path style="fill:none;stroke:#000000;stroke-width:8.5039;stroke-linecap:round;stroke-linejoin:round;stroke-miterlimit:22.9256;" d="
					M225.857,203.097c0,0-3.75,8.297-3.188,9.99"/>
				
					<path style="fill:none;stroke:#000000;stroke-width:8.5039;stroke-linecap:round;stroke-linejoin:round;stroke-miterlimit:22.9256;" d="
					M233.732,198.525c0,0,7.5,9.314,8.25,12.193"/>
				
					<path style="fill:none;stroke:#000000;stroke-width:8.5039;stroke-linecap:round;stroke-linejoin:round;stroke-miterlimit:22.9256;" d="
					M237.107,178.883c-2.826-3.744-9.562-9.482-17.062-13.038"/>
				
					<path style="fill:none;stroke:#000000;stroke-width:8.5039;stroke-linecap:round;stroke-linejoin:round;stroke-miterlimit:22.9256;" d="
					M235.982,150.944c0,0-14.813,9.652-15.938,14.901"/>
				
					<path style="fill:none;stroke:#000000;stroke-width:8.5039;stroke-linecap:round;stroke-linejoin:round;stroke-miterlimit:22.9256;" d="
					M235.419,140.953c0,0,0.939,4.955,0.563,9.99"/>
				
					<path style="fill:none;stroke:#000000;stroke-width:8.5039;stroke-linecap:round;stroke-linejoin:round;stroke-miterlimit:22.9256;" d="
					M213.669,144.17c-1.125,5.419-0.251,36.186,0.938,43.348"/>
				
					<path style="fill:none;stroke:#000000;stroke-width:8.5039;stroke-linecap:round;stroke-linejoin:round;stroke-miterlimit:22.9256;" d="
					M235.419,140.953c-0.538-13.968-21.29-14.894-21.75,3.217"/>
				
					<path style="fill:none;stroke:#000000;stroke-width:8.5039;stroke-linecap:round;stroke-linejoin:round;stroke-miterlimit:22.9256;" d="
					M237.107,178.883c-0.448,4.254,0.503,10.053-1.502,14.005c-5.768,11.366-18.823,13.526-20.998-5.369"/>
			</g>
		</g>
	</g>
</g>
<g id="n3402">
	<g>
		<path style="fill:#67559E;" d="M215.442,439.288c1.512-1.778-1.996,7.083-1.996,7.083l-5.541,6.42l-9.604,4.325l-15.551,1.187
			l-14.81,1.278l-17.104-3.407l-11.545-5.618l-8.24-8.974l-3.053-11.176l-9.697,5.462l-9.59,7.588l-9.672,9.83l-7.918,9.704
			L83.2,474.243l-7.781,12.622l-5.15,9.248l-3.326,6.362l9.121,10.387l12.508,11.08l17.723,11.648l15.479,7.372l20.555,6.505
			l18.695,2.816l21.367-0.653l15.238-2.247l19.793-5.4l12.732-5.5l12.297-7.38l12.428-10.096l8.379-8.407l-3.326-10.709
			l-5.08-13.115l-7.498-14.752l-8.775-13.346l-10.344-12.413L215.442,439.288L215.442,439.288z"/>
		<path style="fill:#61F4E5;" d="M192.567,359.6c0,0-20.932-15.077-39,2.25c0.424,4.209,0.781,8.521,0.781,8.521l0.641,11.631
			l0.131,10.495l-0.207,6.897l-1.199,12.036l-2.195,9.091l-3.285,6.339l-5.418,3.511l-4.049-3.223l-7.498,1.937l-2.412,4.461
			l2.195,8.035l5.391,6.752l7.992,5.221l11.695,4.155l17.615,1.993l11.988-1.628l12.568-0.959l12.375-7.535l4.539-8.02l0.213-5.328
			l-7.977-6.067l-7.621-4.895l-6.889-5.296l-1.406-11.008l-0.363-13.103l0.207-12.925l0.553-13.098L192.567,359.6L192.567,359.6z"/>
		
			<path style="fill:none;stroke:#000000;stroke-width:8.5039;stroke-linecap:round;stroke-linejoin:round;stroke-miterlimit:22.9256;" d="
			M194.067,422.225c0,0,49.688,21.75,68.25,87.375"/>
		
			<path style="fill:none;stroke:#000000;stroke-width:8.5039;stroke-linecap:round;stroke-linejoin:round;stroke-miterlimit:22.9256;" d="
			M145.879,427.1c0,0-36-8.812-78.938,75.375"/>
		
			<path style="fill:none;stroke:#000000;stroke-width:8.5039;stroke-linecap:round;stroke-linejoin:round;stroke-miterlimit:22.9256;" d="
			M177.754,435.725c0,0-7.312,3.562-12,0.188"/>
		
			<path style="fill:none;stroke:#000000;stroke-width:8.5039;stroke-linecap:round;stroke-linejoin:round;stroke-miterlimit:22.9256;" d="
			M201.935,469.62c-26.214,10.147-52.069,2.593-59.993-2.582"/>
		
			<path style="fill:none;stroke:#000000;stroke-width:8.5039;stroke-linecap:round;stroke-linejoin:round;stroke-miterlimit:22.9256;" d="
			M205.692,435.913c0,0-10.1-5.507-13.369-19.161"/>
		
			<path style="fill:none;stroke:#000000;stroke-width:8.5039;stroke-linecap:round;stroke-linejoin:round;stroke-miterlimit:22.9256;" d="
			M192.567,359.6c0,0-3.375,44.812,0.375,60.375"/>
		
			<path style="fill:none;stroke:#000000;stroke-width:8.5039;stroke-linecap:round;stroke-linejoin:round;stroke-miterlimit:22.9256;" d="
			M153.567,361.85c0,0,8.25,70.5-13.125,68.625"/>
		
			<path style="fill:none;stroke:#000000;stroke-width:8.5039;stroke-linecap:round;stroke-linejoin:round;stroke-miterlimit:22.9256;" d="
			M215.442,439.288c-1.873,17.25-19.545,20.298-43.5,20.432c-13.877,0.077-43.482-6.424-43.125-27.932"/>
		
			<path style="fill:none;stroke:#000000;stroke-width:8.5039;stroke-linecap:round;stroke-linejoin:round;stroke-miterlimit:22.9256;" d="
			M263.256,512.6c-16.5,17.626-39.178,36.798-89.988,39.764c-34.533,2.017-79.777-15.742-106.326-49.889"/>
	</g>
</g>
<g id="n3403">
	<g id="Layer_4">
		<g>
			<path style="fill:#F9D740;" d="M146.306,332.488l2.167-26.52l4.004-10.185l7.505-6.507l14.29-0.471l9.611,0.435l4.85,4.315
				c0,0,1.933,7.092,0.793,6.548c-1.142-0.544-6.01,3.635-6.01,3.635l1.192,7.424l-1.027,18.7l-10.312,2.93l-12.009,5.643
				l-7.491-3.687L146.306,332.488L146.306,332.488z"/>
			
				<path style="fill:none;stroke:#000000;stroke-width:8.5039;stroke-linecap:round;stroke-linejoin:round;stroke-miterlimit:22.9256;" d="
				M168.647,303.808c0,0,31.099,0.977,17.106-14.839"/>
			
				<path style="fill:none;stroke:#000000;stroke-width:8.5039;stroke-linecap:round;stroke-linejoin:round;stroke-miterlimit:22.9256;" d="
				M183.516,303.737c0,0,1.196,21.88-0.585,26.145"/>
			
				<path style="fill:none;stroke:#000000;stroke-width:8.5039;stroke-linecap:round;stroke-linejoin:round;stroke-miterlimit:22.9256;" d="
				M146.306,332.488c0,0-7.369-53.178,37.847-44.687"/>
		</g>
	</g>
</g>
<g id="n3404_1_">
	<g id="n3404">
		<g>
			<g>
				<path style="fill:#67559E;" d="M141.989,231.288l-3.477-6.281l1.049-6.549l4.728-7.708l5.847-6.199l6.546-5.586l6.809-2.561
					l7.194,1.014l5.393,2.914l5.707,5.108l4.396,5.285l3.377,5.849l1.336,5.96l-1.104,3.761l-4.3,3.328l-5.469,1.321
					C180.02,230.944,158.205,238.019,141.989,231.288L141.989,231.288z"/>
				
					<path style="fill:none;stroke:#000000;stroke-width:8.5039;stroke-linecap:round;stroke-linejoin:round;stroke-miterlimit:22.9256;" d="
					M141.989,231.288c0,0-14.348-9.455,14.694-32.323"/>
				
					<path style="fill:none;stroke:#000000;stroke-width:8.5039;stroke-linecap:round;stroke-linejoin:round;stroke-miterlimit:22.9256;" d="
					M170.685,197.418c8.471,1.891,34.919,30.431,9.335,33.526"/>
				
					<path style="fill:none;stroke:#000000;stroke-width:8.5039;stroke-linecap:round;stroke-linejoin:round;stroke-miterlimit:22.9256;" d="
					M170.685,197.418c-3.112-1.375-8.643-2.063-14.002,1.547"/>
				
					<path style="fill:none;stroke:#000000;stroke-width:8.5039;stroke-linecap:round;stroke-linejoin:round;stroke-miterlimit:22.9256;" d="
					M173.105,223.551c0,0,1.729,2.235,2.593,2.579"/>
				
					<path style="fill:none;stroke:#000000;stroke-width:8.5039;stroke-linecap:round;stroke-linejoin:round;stroke-miterlimit:22.9256;" d="
					M150.632,222.692c0,0-1.729,3.267-3.112,3.954"/>
			</g>
			<path style="fill:#F9D740;" d="M284.381,269.025l-3.827-10.976l-7.116-12.294l-11.101-10.887l-15.558-7.66l-15.096-2.812
				l-14.791,0.197l-16.824,2.533l-12.543,2.64l-17.137,3.422l-13.926,1.774l-15.938-0.845l-14.708-3.298l-15.181-1.37l-11.616-0.662
				l-13.398,1.943l-19.653,7.249l-12.667,9.21l-10.396,13.069l-5.623,12.845l-1.858,14.087l1.121,12.679l3.816,12.24l6.741,11.734
				l9.935,10.394l14.421,9.927l13.57,7.173l19.932,7.976l18.592,5.224l17.989,3.3l17.74,1.725l19.726-0.013l19.845-2.298
				l15.462-3.464l13.668-4.559l10.884-4.954l12.187-7.569l9.716-8.519l7.673-9.739l5.785-10.311l5.071-11.114l4.502-14.131
				l1.664-10.523L284.381,269.025z M252.866,303.509c-10.983,16.22-25.628,37.405-59.909,37.736s-65.567,1.986-89.198-12.579
				s-43.268-22.841-38.941-52.301c0,0,2.663-19.861,20.968-21.185c18.306-1.324,42.602,6.62,56.581,5.958s65.235-5.627,80.878-9.269
				c15.643-3.641,28.623-2.317,31.619,7.613C257.858,269.413,263.849,287.288,252.866,303.509z"/>
			<polygon style="fill:#FFFFFF;" points="82.248,257.068 83.639,261.623 84.103,267.021 87.768,272.654 94.429,276.328 
				100.324,276.034 108.653,278.657 118.416,277.381 122.353,275.969 131.6,280.847 141.847,283.57 152.786,283.955 
				157.808,281.012 166.959,283.845 178.288,284.349 184.267,282.377 191.049,277.524 197.3,279.59 206.384,280.223 
				212.848,278.874 216.785,276.268 224.072,277.585 231.146,276.378 235.523,273.585 240.016,266.59 241.766,259.294 
				243.287,254.588 233.944,252.395 226.435,252.12 213.34,253.405 201.099,255.45 185.141,257.797 167.997,259.075 
				150.785,259.392 135.787,258.03 123.378,255.472 107.364,253.35 94.107,254.04 			"/>
			<polygon style="fill:#FFFFFF;" points="82.819,316.903 85.991,311.39 91.981,304.621 98.967,301.404 105.674,302.309 
				109.147,304.304 110.656,310.425 117.644,310.709 123.099,313.617 128.581,318.988 136.322,315.881 145.049,315.632 
				153.137,318.003 159.257,321.31 164.121,317.743 172.45,314.25 181.586,313.907 187.759,315.735 191.639,317.944 
				198.592,313.606 205.361,310.749 209.413,304.87 214.866,300.742 222.185,292.948 228.547,290.094 237.547,290.435 
				244.625,294.37 247.9,298.458 252.197,302.592 249.014,308.697 242.923,317.077 234.525,325.068 226.932,330.202 
				216.834,335.042 202.836,339.178 187.173,341.387 175.003,341.855 156.711,341.296 143.618,339.95 130.41,337.485 
				115.045,332.842 98.722,325.939 87.96,320.42 			"/>
			
				<path style="fill:none;stroke:#000000;stroke-width:8.5039;stroke-linecap:round;stroke-linejoin:round;stroke-miterlimit:22.9256;" d="
				M83.639,261.623c0,0-1.425,15.287,16.685,14.411"/>
			
				<path style="fill:none;stroke:#000000;stroke-width:8.5039;stroke-linecap:round;stroke-linejoin:round;stroke-miterlimit:22.9256;" d="
				M122.353,275.969c0,0-18.611,8.38-25.423-10.534"/>
			
				<path style="fill:none;stroke:#000000;stroke-width:8.5039;stroke-linecap:round;stroke-linejoin:round;stroke-miterlimit:22.9256;" d="
				M99.378,273.13"/>
			
				<path style="fill:none;stroke:#000000;stroke-width:8.5039;stroke-linecap:round;stroke-linejoin:round;stroke-miterlimit:22.9256;" d="
				M157.991,280.901c0,0-13.93,9.116-35.638-4.932"/>
			
				<path style="fill:none;stroke:#000000;stroke-width:8.5039;stroke-linecap:round;stroke-linejoin:round;stroke-miterlimit:22.9256;" d="
				M190.192,277.165c0,0-7.96,14.048-32.201,3.736"/>
			
				<path style="fill:none;stroke:#000000;stroke-width:8.5039;stroke-linecap:round;stroke-linejoin:round;stroke-miterlimit:22.9256;" d="
				M225.047,263.275c-0.543,5.53-3.171,10.443-14.69,15.781c-4.728,2.19-11.359,1.874-20.165-1.891"/>
			
				<path style="fill:none;stroke:#000000;stroke-width:8.5039;stroke-linecap:round;stroke-linejoin:round;stroke-miterlimit:22.9256;" d="
				M219.815,273.269c0,0,20.759,8.37,23.472-18.681"/>
			
				<path style="fill:none;stroke:#000000;stroke-width:8.5039;stroke-linecap:round;stroke-linejoin:round;stroke-miterlimit:22.9256;" d="
				M122.534,324.144c0,0,13.568-17.714,36.724-2.834"/>
			
				<path style="fill:none;stroke:#000000;stroke-width:8.5039;stroke-linecap:round;stroke-linejoin:round;stroke-miterlimit:22.9256;" d="
				M193.791,321.31c0,0-16.986-15.057-34.534,0"/>
			
				<path style="fill:none;stroke:#000000;stroke-width:8.5039;stroke-linecap:round;stroke-linejoin:round;stroke-miterlimit:22.9256;" d="
				M226.915,317.59c0,0-19.617-17.739-33.124,3.72"/>
			
				<path style="fill:none;stroke:#000000;stroke-width:8.5039;stroke-linecap:round;stroke-linejoin:round;stroke-miterlimit:22.9256;" d="
				M236.684,306.252c0,0-12.953-16.677-26.503,4.451"/>
			
				<path style="fill:none;stroke:#000000;stroke-width:8.5039;stroke-linecap:round;stroke-linejoin:round;stroke-miterlimit:22.9256;" d="
				M247.9,298.458c-4.161-8.149-18.991-15.041-30.944,4.5"/>
			
				<path style="fill:none;stroke:#000000;stroke-width:8.5039;stroke-linecap:round;stroke-linejoin:round;stroke-miterlimit:22.9256;" d="
				M85.991,311.39c0,0,12.283-17.208,24.665-0.965"/>
			
				<path style="fill:none;stroke:#000000;stroke-width:8.5039;stroke-linecap:round;stroke-linejoin:round;stroke-miterlimit:22.9256;" d="
				M103.58,317.449c0,0,11.631-19.528,28.014,0.33"/>
			
				<path style="fill:none;stroke:#000000;stroke-width:8.5039;stroke-linecap:round;stroke-linejoin:round;stroke-miterlimit:22.9256;" d="
				M36.521,276.189c0,0,8.502-49.956,75.799-47.653"/>
			
				<path style="fill:none;stroke:#000000;stroke-width:8.5039;stroke-linecap:round;stroke-linejoin:round;stroke-miterlimit:22.9256;" d="
				M209.827,225.525c4.327-0.48,60.784-12.577,75.075,45.526"/>
			
				<path style="fill:none;stroke:#000000;stroke-width:8.5039;stroke-linecap:round;stroke-linejoin:round;stroke-miterlimit:22.9256;" d="
				M112.32,228.536c16.281,0.886,17.585,6.547,44.142,6.426c15.347-0.069,30.612-6.263,53.365-9.438"/>
			
				<path style="fill:none;stroke:#000000;stroke-width:8.5039;stroke-linecap:round;stroke-linejoin:round;stroke-miterlimit:22.9256;" d="
				M54.431,331.989c0,0-24.422-20.017-17.91-55.8"/>
			
				<path style="fill:none;stroke:#000000;stroke-width:8.5039;stroke-linecap:round;stroke-linejoin:round;stroke-miterlimit:22.9256;" d="
				M284.903,271.051c0,0,5.97,20.549-16.462,57.396"/>
			
				<path style="fill:none;stroke:#000000;stroke-width:8.5039;stroke-linecap:round;stroke-linejoin:round;stroke-miterlimit:22.9256;" d="
				M54.431,331.989c11.035,10.096,48.258,35.034,107.451,37.706c34.266,1.547,85.406-8.165,106.558-41.249"/>
			
				<path style="fill:none;stroke:#000000;stroke-width:8.5039;stroke-linecap:round;stroke-linejoin:round;stroke-miterlimit:22.9256;" d="
				M112.23,253.956c21.708,3.366,22.019,7.468,47.595,6.736c28.234-0.807,37.632-4.205,50.274-6.382"/>
			
				<path style="fill:none;stroke:#000000;stroke-width:8.5039;stroke-linecap:round;stroke-linejoin:round;stroke-miterlimit:22.9256;" d="
				M256.772,268.128c0,0,0.68-26.381-46.673-13.817"/>
			
				<path style="fill:none;stroke:#000000;stroke-width:8.5039;stroke-linecap:round;stroke-linejoin:round;stroke-miterlimit:22.9256;" d="
				M112.23,253.956c0,0-44.502-6.377-47.397,30.292"/>
			
				<path style="fill:none;stroke:#000000;stroke-width:8.5039;stroke-linecap:round;stroke-linejoin:round;stroke-miterlimit:22.9256;" d="
				M64.833,284.248c0,0-2.714,22.852,28.04,38.972"/>
			
				<path style="fill:none;stroke:#000000;stroke-width:8.5039;stroke-linecap:round;stroke-linejoin:round;stroke-miterlimit:22.9256;" d="
				M256.772,268.128c0,0,6.513,31-18.995,54.206"/>
			
				<path style="fill:none;stroke:#000000;stroke-width:8.5039;stroke-linecap:round;stroke-linejoin:round;stroke-miterlimit:22.9256;" d="
				M92.873,323.22c21.773,10.144,39.398,18.742,82.13,18.635c21.628-0.054,45.379-3.873,62.774-19.521"/>
		</g>
	</g>
</g>
</svg>
