<svg xmlns="http://www.w3.org/2000/svg" xmlns:xlink="http://www.w3.org/1999/xlink" viewBox="0 0 337.006 513.333"><g id="n3501"><g><path fill-rule="evenodd" clip-rule="evenodd" fill="#f9d740" d="M121.977 417.681l7.006 7.433 7.927 7.731 7.414 5.59 6.153 3.809 4.754-3.861 4.748-11.767 3.728-8.932 4.235-11.874 3.269-10.812 1.281-5.114 2.827 1.64 3.168 8.806 4.568 12.041 6.039 11.408 8.445 11.152 6.055-.734 8.736-5.862 5.571-6.611 4.599-10.111 6.727.256 5.388 5.969 8.094 9.55 8.574 11.093 5.819 8.561 5.875 11.139-5.147 8.321-8.574 9.668-12.447 11.118-15.344 10.119-18.207 7.774-16.867 3.621-11.662.661-11.405-.569-13.199-1.613-14.76-3.119-14.121-4.623-10.638-6.218-9.125-4.908-9.012-9.889-4.205-8.653 5.871-11.149 6.84-10.893 8.127-12.061 5.81-8.295 7.065-9.792z"/><path fill-rule="evenodd" clip-rule="evenodd" fill="#61f4e5" d="M157.41 364.731l-5.058-.862-4.867 4.192-5.991 8.722-5.978 9.519-5.471 8.596-6.502 7.86-4.004 7.798 4.748 8.577 6.473 7.922 8.877 7.995 8.676 5.855 2.164 1.339 5.928-6.769 4.75-11.536 4.181-10.587 4.24-12.948 4.33-9.7-6.675-6.134-7.864-6.047-3.548-4.249 1.591-9.543z"/><path fill-rule="evenodd" clip-rule="evenodd" fill="#e186ae" d="M177.569 392.274l.113 5.815 3.25 9.206 5.142 10.78 6.422 10.742 5.043 6.114 6.055-.734 7.852-5.073 6.455-7.4 3.691-8.115 2.273-8.253.487-4.737-5.188-10.51-6.517-11.999-5.014-8.913-5.219-9.078-6.185 3.724 1.336 5.739.629 5.63-5.789 6.384-7.405 6.137-7.431 4.541z"/><path d="M159.194 312.774s22.902-10.859 35.062 3.375l-.381 9.902-.021 10.716.5 11.821 1.182 11.149s1.17 5.908 1.361 6.974c.191 1.066 1.297 8.5 1.297 8.5l-5.789 6.385-9.402 7.505-5.434 3.173-6.963-2.454-8.248-8.158-6.539-7.388 1.787-11.273.908-10.908.578-13.274.191-13.496-.025-7.505-.064-5.044z" fill-rule="evenodd" clip-rule="evenodd" fill="#fff"/><path d="M121.977 417.681s-29.062 39.375-34.125 53.25m138.473-63.127s29.526 32.377 36.651 50.377m-.562 2.063s-32.492 51.325-90.781 49.153c-36.977-1.378-72.838-14.149-81.531-35.466m29.437-63.375s6.188 17.625 30.938 31.688m50.25-6.938s21.938-6 23.625-34.688m-21.938-40.499s17.062 29.25 21.938 40.5m-72-36.75c-5.812 1.874-13.312 18.75-32.813 46.688m52.125-17.251s-7.312 28.688-19.125 47.438m24.563-45.375s5.25 23.25 20.437 39.562m-25.125-19.5s-3.375 72.75-.188 89.25m-16.407-130.407s4.125-14.25 3.375-61.5m35.062 3.375s-2.438 36.938 4.125 56.062m-23.062 19.313s-9.75-4.688-19.5-17.25m42.375.938s-7.5 10.312-20.625 17.062" fill="none" stroke="#000" stroke-width="8.504" stroke-linecap="round" stroke-linejoin="round" stroke-miterlimit="22.926"/></g></g><g id="n3502"><g><path fill-rule="evenodd" clip-rule="evenodd" fill="#68569d" d="M43.336 336.194l-1.276-16.39-1.258-25.537L39.8 259.98l-.273 15.874.812-41.175 2.043-39.106 3.78-38.203 5.445-30.194 7.951-27.806 8.162-19.463 9.625-16.299 12.678-14.467 5.885 2.421 6.303-11.26-1.881-1.977 10.783-7.543 13.98-7.21 15.534-4.646 12.584-.723 5.252-2.041 10.822 6.47 11.465 11.146 15.569 8.223 20.438 12.176 23.512 15.716 18.971 13.955 12.556 15.013 7.783 14.407 3.569 7.477 5.828 2.804 2.186 11.03.504 7.74-.481 6.219 1.783 13.398.77 18.395.1 15.969-.262 23.128-.516 24.153-.65 25.472-1.348 17.363-1.033-34.567-.375 16.642-.02 25.832.36 20.09.5 16.317.906 20.594 5.352-1.15 8.175-5.447 11.075-8.932 8.087-8.47 6.485-9.785-.951-6.816-1.53-19.1-.841-25.493-.239 32.844.151-37.057.474-34.687.606-37.722-.512-27.909-1.769-21.767-1.629-14.281-2.791-15.217-7.62-23.236-10.421-18.879-15.582-18.947-17.883-15.655-16.604-10.639-22.068-9.612-26.404-6.017-17.393-1.039-11.389.757-11.082 1.129-9.422-.044-8.933.615-13.285-3.47-13.272.126-14.262 3.356-12.474 5.547-11.488 7.276-5.481 7.1-8.773 9.722-8.625 10.716L48.126 64.71l-8.178 13.505-10.794 15.702-6.289 17.029-5.965 18.221-3.469 11.614-1.97 6.954 1.5 5.44-1.418 14.302-1.403 15.797-1.445 18.149-1.072 14.981-.918 14.248-1.141 20.333-.807 17.333-.752 20.5-.47-37.015-.278 19.411-.037 16.987.112 12.92.254 13.315 5.742 5.809 8.129 6.282 11.529 6.101 14.35 3.566z"/><path fill-rule="evenodd" clip-rule="evenodd" fill="#67559e" d="M41.431 307.036l6.78.94 2.216-11.789 2.057-15.679 1.338-16.759.564 34.905.629-23.812 1.235-24.47 1.732-23.698 2.711-27.699 3.426-27.029 3.976-25.028 4.379-22.488 5.389-22.605 5.084-17.518 8.652-23.453 4.309-9.292-5.885-2.421-6.34 7.233-8.906 11.04-8.799 16.125-6.42 15.831-4.656 16.289-4.223 16.668-2.578 14.288-3.293 21.548-1.818 19.334-1.096 15.313-.906 16.286-.809 20.4-.541 24.462-.133 23.116.206-32.196.339 16.323.473 15.623.406 10.534.502 9.678z"/><path d="M61.796 189.525l-1.703 14.938-1.564 16.624-1.793 21.858-1.103 19.663-.744 15.663-.502 20.384-.564-34.905-1.338 16.759-1.512 12.106-2.762 15.362-6.719.273.252 9.672 17.801-2.44 30.059-2.931 30.377-1.77 33.828-.62 26.994.56 29.748 1.78 27.588 2.846 20.332 2.912 13.648 2.381 18.125 1.934-.531-22.139-.059-31.942.893 28.296 1.863-27.734.58-22.743.586-26.881.246-19.731-.033-11.381s-29.401-19.843-87.438-16.45c-10.86.635-45.267 4.069-56.814 3.828-31.344-.658-57.136 25.23-87.741 13.828z" fill-rule="evenodd" clip-rule="evenodd" fill="#67559e"/><path d="M155.463 18.281l10.822 7.137 14.465 8.36 12.641 7.02 23.367 13.379 18.258 11.646 15.807 12.243 10.209 9.208 10.766 11.587 4.826 8.214 6.525 13.67 2.266 10.72 1.656 11.348 1.344 10.352-.201 7.243.494 8.204 1.494 14.264.555 19.465.033 5.828s-39.041 22.092-85.857 24.986c-12.095.747-16.604 9.242-22.805 9.731-11.638.917-16.119-6.126-28.645-6.876-5.712-.342-4.978-2.107-20.323-2.12-24.722-.021-85.677 44.12-74.361-24.387-5.698 34.498 2.727-22.476 2.727-22.476l3.572-24.52 5.453-30.207 5.111-22.801 6.957-24.88 5.982-17.042 9.314-20.111-2.635-2.931s5.316-4.12 7.441-5.967c2.127-1.847 16.354-10.662 16.354-10.662l10.787-4.013 14.059-2.962 6.291-.398 5.251-2.252z" fill-rule="evenodd" clip-rule="evenodd" fill="#fff"/><g><defs><path id="bw" d="M81.994 262.635l11.309-6.545 16.159-1.575 14.622 2.008 11.535.81-5.398-16.809 4.103-14.383 11.645-12.634 15.632-10.818 11.831-2.074 11.464 6.593 14.092 13.831 7.599 13.507 2.999 8.962-3.917 9.09.643 3.733 14.632-3.353 15.317-1.403 18.268 1.862 16.012 6.341 9.947 7.657 8.909 11.383 4.818 9.628 3.467-4.723-1.281-14.486-4.873-15.685-5.62-9.049 3.85-16.835 3.847-27.286 1.25-28.223-1.339-24.587-4.028-24.869-7.808-26.159-10.983-23.313-13.61-19.754-20.301-18.548-22.058-10.75-22.439-4.374-21.808 7.87-22.667-9.333-18.518 9.287-19.787 9.42-9.695 11.96-8.215 11.845-15.571 26.861-5.018 29.374-7.295 31.843-5.894 26.29-.351 16.256-3.62 15.677 6.243 17.822.388 18.698z"/></defs><clipPath id="bx"><use xlink:href="#bw" overflow="visible"/></clipPath><path clip-path="url(#bx)" fill-rule="evenodd" clip-rule="evenodd" fill="#e186ae" d="M-4.061-39.241h176.385v414.576H-4.061z"/></g><path d="M65.414 263.533s-13.5-15.708-4.5-29.171c9-13.464 19-25.132 43.5-30.518 24.5-5.385 73 2.244 73 2.244l.5 101.875s-31.5.449-53.5-9.425c-22-9.872-59-35.005-59-35.005z" fill-rule="evenodd" clip-rule="evenodd" fill="#4ab57e"/><path d="M214.414 305.271c9.5-1.346 49.5-.898 62-31.864s19.5-39.942 6.5-54.304-25.5-23.786-58-18.4-49.5 5.834-49.5 5.834l2.5 101.426 36.5-2.692z" fill-rule="evenodd" clip-rule="evenodd" fill="#61f4e5"/><path d="M172.615 31.52c-.7 3.033 1.33-19.314-2.64 58.225-1.035 20.209-.847 93.966-.847 93.966" fill-rule="evenodd" clip-rule="evenodd" fill="none" stroke="#000" stroke-width="8.504" stroke-linecap="round" stroke-linejoin="round" stroke-miterlimit="22.926"/><path d="M41.744 317.92s128.184-18.111 248.559 7.218m-29.372-54.135s-.92 37.347 4.977 48.507M72.306 278.993s-2.812 22.439-5.438 30.428m85.72-292.14c34.125 25.125 141.2 57.863 138.825 134.883m.001 0c-.853 15.513 2.99 60.869.924 147.118m-.938 52.042s-4.069-25.23 1.556-76.908m38.757 40.36s-4.875 17.509-37.688 37.058m19.531-103.971c4.006 20.154 5.025 63.712-.687 88.331M280.617 76.25s28.719 40.395 18.219 75.895M146.742 9.125s20.915-12.48 56.594 8.156m77.281 58.969s-31.781-41.606-77.281-58.969" fill="none" stroke="#000" stroke-width="8.504" stroke-linecap="round" stroke-linejoin="round" stroke-miterlimit="22.926"/><path d="M182.674 8.185s48.758-12.146 95.827 35.867c49.613 50.608 49.863 103.947 49.909 132.794m3.303 137.93c-6-43.008-2.531-125.137-3.471-147.576M46.336 314.764s7.695-31.06 8.006-67.316c.674-78.937 13.146-152.057 47.869-207.146m50.377-23.021s-24.503-1.874-56.753 28.501" fill="none" stroke="#000" stroke-width="8.504" stroke-linecap="round" stroke-linejoin="round" stroke-miterlimit="22.926"/><path d="M102.211 40.302c-7.565 7.227-49.875 42.838-58.5 138.712s-1.5 150.381-.375 157.181m-39.75-21.759s15.75 19.379 39.75 21.759m-30.375-183.02s-12 54.507-9.375 161.261M81.961 23.282s-56.046 43.01-70.114 135.763M146.742 9.125S119.461-6.718 81.961 23.282" fill="none" stroke="#000" stroke-width="8.504" stroke-linecap="round" stroke-linejoin="round" stroke-miterlimit="22.926"/><g><path fill-rule="evenodd" clip-rule="evenodd" d="M108.477 177.244l-2.616-4.686-2.002-7.637-1.036-9.901-.151-10.342.558-11.983.98-10.505 1.534-7.587 3.013-4.249 6.579-2.541 7.587 2.005 3.23 3.314 1.031 5.224.138 7.17-2.433 3.698-8.449 4.77-7.346 3.248.271 3.003 6.232 3.581 6.911 4.945 4.883 4.304.002 6.476-1.266 6.684-1.841 5.157-3.727 6.729-3.245 2.606-3.647.469-5.19-3.952zm111.085-35.014l-.214-9.318-.104-9.203 1.161-6.15 4.234-4.14 8.862-2.428 7.003 2.118 2.97 7.832-.731 7.537-8.199 6.556-6.638 5.213.256 3.878 6.628 4.626 7.848 6.782 2.407 3.512.412 5.323-.459 3.517-1.64 4.062-3.089 3.275-3.358 3.2-6.317-1.576-6.706-5.939-3.316-8.099-.674-11.332-.336-9.246z"/><path d="M204.11 60.554s23.845-4.627 39.647 12.065M96.759 83.848s11.735-20.554 32.494-19.055m-5.177 22.922s-2.642 13.516.522 23.822m-18.083-23.89s-2.536 9.406 6.158 20.452M92.099 96.573s-.753 5.599 15.814 17.514m19.109 3.002c.856-9.874-19.962-15.316-22.385 1.648m4.457 18.505s16.262-6.521 18.045-10.327m-.117-9.826s.859 5.508.117 9.826m-22.502-8.178s-7.254 51.876 5.917 60.391m16.837-26.053s2.035 13.117-7.801 26.412m-11.632-39.928s10.27 4.613 19.433 13.515m-.759 27.622s-18.768-2.514-35.141 9.727m29.089-.598s2.132-6.102 3.063-9.326m-14.744 10.979s3.889-6.84 4.768-10.283m98.142-86.571s6.587 4.338 10.1 15.627m4.661-23.9s7.511 10.241 5.037 23.755m17.725-11.276s-2.189 10.223-9.811 14.938m-22.932 65.916s23.332-5.442 39.702 4.503m-16.478-5.453s-.751 5.217 4.161 9.417m-15.033-9.913s-1.271 4.403 1.815 9.452m-11.521-66.059c-.307-9.364 20.802-18.059 24.239-.69m.268 6.734s-15.368 12.391-18.513 14.574m18.245-21.308s.558 3.772.268 6.734m-24.507-6.044s-.006 23.882 1.337 41.177c.552 7.102 5.02 9.901 10.022 14.038m-5.365-34.597s17.553 10.75 19.817 16.797m-4.777 16.176s6.966-3.884 4.776-16.177" fill="none" stroke="#000" stroke-width="8.504" stroke-linecap="round" stroke-linejoin="round" stroke-miterlimit="22.926"/></g></g></g><g id="n3503"><g><path d="M158.944 302.715l1.773-24.262 3.276-9.317 6.141-5.953 11.694-.431 7.864.398 3.969 3.948s1.582 6.488.649 5.99c-.934-.498-4.918 3.325-4.918 3.325l.976 6.792-.841 17.108-8.438 2.681-9.827 5.163-6.13-3.373-6.188-2.069z" fill-rule="evenodd" clip-rule="evenodd" fill="#e186ae"/><path d="M177.225 276.477s25.448.894 13.998-13.576m-1.83 13.512s.979 20.017-.478 23.919m-29.971 2.383s-6.03-48.649 30.97-40.882" fill="none" stroke="#000" stroke-width="8.504" stroke-linecap="round" stroke-linejoin="round" stroke-miterlimit="22.926"/></g></g><g id="n3504"><g><g><path d="M153.753 205.284l-3.482-6.325 1.051-6.594 4.735-7.762 5.856-6.243 6.556-5.625 6.819-2.579 7.205 1.021 5.401 2.934 5.715 5.143 4.402 5.322 3.382 5.89 1.338 6.002-1.106 3.787-4.307 3.352-5.477 1.33c0 .001-21.847 7.125-38.088.347z" fill-rule="evenodd" clip-rule="evenodd" fill="#67559e"/><path d="M153.753 205.284s-14.37-9.521 14.716-32.548m14.023-1.558c8.483 1.904 34.972 30.644 9.349 33.76m-9.349-33.76c-3.117-1.384-8.656-2.078-14.024 1.558m16.448 24.758s1.731 2.251 2.597 2.597m-25.104-3.463s-1.731 3.289-3.116 3.982" fill="none" stroke="#000" stroke-width="8.504" stroke-linecap="round" stroke-linejoin="round" stroke-miterlimit="22.926"/></g><path d="M296.36 240.246l-3.833-11.053-7.126-12.38-11.118-10.963-15.581-7.713-15.119-2.832-14.813.198-16.85 2.551-12.562 2.658-17.163 3.446-13.947 1.787-15.963-.851-14.73-3.321-15.204-1.38-11.633-.666-13.418 1.957-19.682 7.3-12.686 9.274-10.412 13.16-5.632 12.935-1.861 14.186 1.123 12.767 3.822 12.325 6.751 11.816 9.95 10.467 14.443 9.997 13.59 7.223 19.962 8.032 18.62 5.26 18.016 3.323 17.767 1.737 19.756-.013 19.875-2.314 15.485-3.489 13.688-4.591 10.901-4.989 12.205-7.622 9.731-8.578 7.685-9.807 5.794-10.383 5.079-11.192 4.509-14.23 1.666-10.597-1.085-13.435zm-31.562 34.724c-11 16.333-25.667 37.667-60 38-34.333.333-65.667 2-89.333-12.667-23.667-14.667-43.333-23-39-52.667 0 0 2.667-20 21-21.333 18.333-1.333 42.667 6.667 56.667 6s65.333-5.667 81-9.333c15.667-3.667 28.667-2.333 31.667 7.667s8.999 28-2.001 44.333z" fill-rule="evenodd" clip-rule="evenodd" fill="#f9d740"/><path fill-rule="evenodd" clip-rule="evenodd" fill="#fff" d="M93.922 229.128l1.393 5.437.464 6.444 3.671 6.723 6.671 4.385 5.904-.35 8.342 3.131 9.778-1.523 3.942-1.685 9.261 5.821 10.263 3.251 10.955.459 5.03-3.512 9.165 3.381 11.346.602 5.988-2.354 6.792-5.793 6.26 2.467 9.099.755 6.473-1.611 3.943-3.109 7.298 1.572 7.085-1.441 4.384-3.335 4.499-8.348 1.753-8.709 1.523-5.617-9.357-2.618-7.52-.328-13.115 1.533-12.26 2.442-15.981 2.801-17.171 1.525-17.238.379-15.021-1.625-12.427-3.054-16.038-2.533-13.277.824-11.877 3.613zm.572 59.331l3.176-5.552 6-6.816 6.996-3.24 6.717.912 3.478 2.008 1.512 6.164 6.998.286 5.463 2.928 5.49 5.409 7.753-3.129 8.74-.251 8.1 2.388 6.13 3.33 4.871-3.592 8.342-3.517 9.15-.346 6.182 1.841 3.886 2.225 6.964-4.369 6.779-2.876 4.058-5.92 5.462-4.157 7.33-7.849 6.371-2.874 9.014.344 7.088 3.962 3.28 4.117 4.304 4.163-3.188 6.147-6.1 8.438-8.411 8.047-7.604 5.17-10.114 4.874-14.019 4.165-15.687 2.224-12.188.471-18.319-.563-13.113-1.354-13.228-2.483-15.389-4.675-16.347-6.951L99.642 292l-5.148-3.541z"/><path d="M95.315 234.565s-1.427 18.247 16.71 17.202m22.062-.077s-18.64 10.002-25.461-12.574m61.153 18.46s-13.951 10.881-35.692-5.887m67.942 1.428s-7.972 16.768-32.25 4.46m67.158-21.039c-.544 6.6-3.175 12.465-14.712 18.836-4.735 2.614-11.376 2.236-20.196-2.257m29.668-4.65s20.79 9.99 23.508-22.298M134.268 295.75s13.588-17.838 36.779-2.854m34.586 0s-17.012-15.162-34.586 0m67.761-3.746s-19.646-17.863-33.174 3.746m42.957-15.162s-12.972-16.794-26.544 4.482m37.777-12.331c-4.167-8.206-19.02-15.146-30.991 4.531M97.67 282.907s12.301-17.328 24.703-.972m-7.087 7.073s11.648-19.665 28.056.333M48.126 247.46s8.515-50.304 75.914-47.985m97.654-3.033c4.333-.483 60.876-12.665 75.189 45.844m-172.844-42.812c16.306.892 17.612 6.593 44.209 6.471 15.37-.07 30.659-6.307 53.446-9.503M66.062 303.65s-24.459-20.157-17.937-56.19m248.758-5.174c.561 11.395-.083 38.383-16.487 57.796M66.062 303.65c11.052 10.167 48.331 35.279 107.614 37.969 34.318 1.558 85.535-8.222 106.72-41.537m-156.447-75.01c21.741 3.389 22.053 7.52 47.667 6.783 28.277-.813 37.689-4.235 50.35-6.426m46.744 13.914s.681-26.565-46.744-13.914m-98.017-.357s-44.57-6.422-47.469 30.503m0 0s-2.718 23.011 28.083 39.244m164.147-55.476s6.522 31.217-19.024 54.585" fill="none" stroke="#000" stroke-width="8.504" stroke-linecap="round" stroke-linejoin="round" stroke-miterlimit="22.926"/><path d="M104.563 294.819c21.806 10.215 39.457 18.873 82.255 18.765 21.66-.054 45.447-3.9 62.869-19.657" fill="none" stroke="#000" stroke-width="8.504" stroke-linecap="round" stroke-linejoin="round" stroke-miterlimit="22.926"/></g></g></svg>