<svg version="1.1" xmlns="http://www.w3.org/2000/svg" xmlns:xlink="http://www.w3.org/1999/xlink" x="0px" y="0px"
	 viewBox="0 0 337.006 513.333" style="enable-background:new 0 0 337.006 513.333;" xml:space="preserve">
<g id="n3501">
	<g>
		<polygon style="fill-rule:evenodd;clip-rule:evenodd;fill:#F9D740;" points="121.977,417.681 128.983,425.114 136.91,432.845 
			144.324,438.435 150.477,442.244 155.231,438.383 159.979,426.616 163.707,417.684 167.942,405.81 171.211,394.998 
			172.492,389.884 175.319,391.524 178.487,400.33 183.055,412.371 189.094,423.779 197.539,434.931 203.594,434.197 
			212.33,428.335 217.901,421.724 222.5,411.613 229.227,411.869 234.615,417.838 242.709,427.388 251.283,438.481 257.102,447.042 
			262.977,458.181 257.83,466.502 249.256,476.17 236.809,487.288 221.465,497.407 203.258,505.181 186.391,508.802 
			174.729,509.463 163.324,508.894 150.125,507.281 135.365,504.162 121.244,499.539 110.606,493.321 101.481,488.413 
			92.469,478.524 88.264,469.871 94.135,458.722 100.975,447.829 109.102,435.768 114.912,427.473 121.977,417.681 		"/>
		<polygon style="fill-rule:evenodd;clip-rule:evenodd;fill:#61F4E5;" points="157.41,364.731 152.352,363.869 147.485,368.061 
			141.494,376.783 135.516,386.302 130.045,394.898 123.543,402.758 119.539,410.556 124.287,419.133 130.76,427.055 
			139.637,435.05 148.313,440.905 150.477,442.244 156.405,435.475 161.155,423.939 165.336,413.352 169.576,400.404 
			173.906,390.704 167.231,384.57 159.367,378.523 155.819,374.274 157.41,364.731 		"/>
		<polygon style="fill-rule:evenodd;clip-rule:evenodd;fill:#E186AE;" points="177.569,392.274 177.682,398.089 180.932,407.295 
			186.074,418.075 192.496,428.817 197.539,434.931 203.594,434.197 211.446,429.124 217.901,421.724 221.592,413.609 
			223.865,405.356 224.352,400.619 219.164,390.109 212.647,378.11 207.633,369.197 202.414,360.119 196.229,363.843 
			197.565,369.582 198.194,375.212 192.405,381.596 185,387.733 177.569,392.274 		"/>
		<path style="fill-rule:evenodd;clip-rule:evenodd;fill:#FFFFFF;" d="M159.194,312.774c0,0,22.902-10.859,35.062,3.375
			l-0.381,9.902l-0.021,10.716l0.5,11.821l1.182,11.149c0,0,1.17,5.908,1.361,6.974c0.191,1.066,1.297,8.5,1.297,8.5l-5.789,6.385
			l-9.402,7.505l-5.434,3.173l-6.963-2.454l-8.248-8.158l-6.539-7.388l1.787-11.273l0.908-10.908l0.578-13.274l0.191-13.496
			l-0.025-7.505L159.194,312.774L159.194,312.774z"/>
		
			<path style="fill:none;stroke:#000000;stroke-width:8.5039;stroke-linecap:round;stroke-linejoin:round;stroke-miterlimit:22.9256;" d="
			M121.977,417.681c0,0-29.062,39.375-34.125,53.25"/>
		
			<path style="fill:none;stroke:#000000;stroke-width:8.5039;stroke-linecap:round;stroke-linejoin:round;stroke-miterlimit:22.9256;" d="
			M226.325,407.804c0,0,29.526,32.377,36.651,50.377"/>
		
			<path style="fill:none;stroke:#000000;stroke-width:8.5039;stroke-linecap:round;stroke-linejoin:round;stroke-miterlimit:22.9256;" d="
			M262.414,460.244c0,0-32.492,51.325-90.781,49.153c-36.977-1.378-72.838-14.149-81.531-35.466"/>
		
			<path style="fill:none;stroke:#000000;stroke-width:8.5039;stroke-linecap:round;stroke-linejoin:round;stroke-miterlimit:22.9256;" d="
			M119.539,410.556c0,0,6.188,17.625,30.938,31.688"/>
		
			<path style="fill:none;stroke:#000000;stroke-width:8.5039;stroke-linecap:round;stroke-linejoin:round;stroke-miterlimit:22.9256;" d="
			M200.727,435.306c0,0,21.938-6,23.625-34.688"/>
		
			<path style="fill:none;stroke:#000000;stroke-width:8.5039;stroke-linecap:round;stroke-linejoin:round;stroke-miterlimit:22.9256;" d="
			M202.414,360.119c0,0,17.062,29.25,21.938,40.5"/>
		
			<path style="fill:none;stroke:#000000;stroke-width:8.5039;stroke-linecap:round;stroke-linejoin:round;stroke-miterlimit:22.9256;" d="
			M152.352,363.869c-5.812,1.874-13.312,18.75-32.813,46.688"/>
		
			<path style="fill:none;stroke:#000000;stroke-width:8.5039;stroke-linecap:round;stroke-linejoin:round;stroke-miterlimit:22.9256;" d="
			M171.664,393.306c0,0-7.312,28.688-19.125,47.438"/>
		
			<path style="fill:none;stroke:#000000;stroke-width:8.5039;stroke-linecap:round;stroke-linejoin:round;stroke-miterlimit:22.9256;" d="
			M177.102,395.369c0,0,5.25,23.25,20.437,39.562"/>
		
			<path style="fill:none;stroke:#000000;stroke-width:8.5039;stroke-linecap:round;stroke-linejoin:round;stroke-miterlimit:22.9256;" d="
			M172.414,415.431c0,0-3.375,72.75-0.188,89.25"/>
		
			<path style="fill:none;stroke:#000000;stroke-width:8.5039;stroke-linecap:round;stroke-linejoin:round;stroke-miterlimit:22.9256;" d="
			M155.819,374.274c0,0,4.125-14.25,3.375-61.5"/>
		
			<path style="fill:none;stroke:#000000;stroke-width:8.5039;stroke-linecap:round;stroke-linejoin:round;stroke-miterlimit:22.9256;" d="
			M194.256,316.149c0,0-2.438,36.938,4.125,56.062"/>
		
			<path style="fill:none;stroke:#000000;stroke-width:8.5039;stroke-linecap:round;stroke-linejoin:round;stroke-miterlimit:22.9256;" d="
			M175.319,391.524c0,0-9.75-4.688-19.5-17.25"/>
		
			<path style="fill:none;stroke:#000000;stroke-width:8.5039;stroke-linecap:round;stroke-linejoin:round;stroke-miterlimit:22.9256;" d="
			M198.194,375.212c0,0-7.5,10.312-20.625,17.062"/>
	</g>
</g>
<g id="n3502">
	<g>
		<polygon style="fill-rule:evenodd;clip-rule:evenodd;fill:#68569D;" points="43.336,336.194 42.06,319.804 40.802,294.267 
			39.8,259.98 39.527,275.854 40.339,234.679 42.382,195.573 46.162,157.37 51.607,127.176 59.558,99.37 67.72,79.907 
			77.345,63.608 90.023,49.141 95.908,51.562 102.211,40.302 100.33,38.325 111.113,30.782 125.093,23.572 140.627,18.926 
			153.211,18.203 158.463,16.162 169.285,22.632 180.75,33.778 196.319,42.001 216.757,54.177 240.269,69.893 259.24,83.848 
			271.796,98.861 279.579,113.268 283.148,120.745 288.976,123.549 291.162,134.579 291.666,142.319 291.185,148.538 
			292.968,161.936 293.738,180.331 293.838,196.3 293.576,219.428 293.06,243.581 292.41,269.053 291.062,286.416 290.029,251.849 
			289.654,268.491 289.634,294.323 289.994,314.413 290.494,330.73 291.4,351.324 296.752,350.174 304.927,344.727 316.002,335.795 
			324.089,327.325 330.574,317.54 329.623,310.724 328.093,291.624 327.252,266.131 327.013,298.975 327.164,261.918 
			327.638,227.231 328.244,189.509 327.732,161.6 325.963,139.833 324.334,125.552 321.543,110.335 313.923,87.099 303.502,68.22 
			287.92,49.273 270.037,33.618 253.433,22.979 231.365,13.367 204.961,7.35 187.568,6.311 176.179,7.068 165.097,8.197 
			155.675,8.153 146.742,8.768 133.457,5.298 120.185,5.424 105.923,8.78 93.449,14.327 81.961,21.603 76.48,28.703 67.707,38.425 
			59.082,49.141 48.126,64.71 39.948,78.215 29.154,93.917 22.865,110.946 16.9,129.167 13.431,140.781 11.461,147.735 
			12.961,153.175 11.543,167.477 10.14,183.274 8.695,201.423 7.623,216.404 6.705,230.652 5.564,250.985 4.757,268.318 
			4.005,288.818 3.535,251.803 3.257,271.214 3.22,288.201 3.332,301.121 3.586,314.436 9.328,320.245 17.457,326.527 
			28.986,332.628 43.336,336.194 		"/>
		<polygon style="fill-rule:evenodd;clip-rule:evenodd;fill:#67559E;" points="41.431,307.036 48.211,307.976 50.427,296.187 
			52.484,280.508 53.822,263.749 54.386,298.654 55.015,274.842 56.25,250.372 57.982,226.674 60.693,198.975 64.119,171.946 
			68.095,146.918 72.474,124.43 77.863,101.825 82.947,84.307 91.599,60.854 95.908,51.562 90.023,49.141 83.683,56.374 
			74.777,67.414 65.978,83.539 59.558,99.37 54.902,115.659 50.679,132.327 48.101,146.615 44.808,168.163 42.99,187.497 
			41.894,202.81 40.988,219.096 40.179,239.496 39.638,263.958 39.505,287.074 39.711,254.878 40.05,271.201 40.523,286.824 
			40.929,297.358 41.431,307.036 		"/>
		<path style="fill-rule:evenodd;clip-rule:evenodd;fill:#67559E;" d="M61.796,189.525l-1.703,14.938l-1.564,16.624l-1.793,21.858
			l-1.103,19.663l-0.744,15.663l-0.502,20.384l-0.564-34.905l-1.338,16.759l-1.512,12.106l-2.762,15.362l-6.719,0.273l0.252,9.672
			l17.801-2.44l30.059-2.931l30.377-1.77l33.828-0.62l26.994,0.56l29.748,1.78l27.588,2.846l20.332,2.912l13.648,2.381l18.125,1.934
			l-0.531-22.139l-0.059-31.942l0.893,28.296l1.863-27.734l0.58-22.743l0.586-26.881l0.246-19.731l-0.033-11.381
			c0,0-29.401-19.843-87.438-16.45c-10.86,0.635-45.267,4.069-56.814,3.828C118.193,175.039,92.401,200.927,61.796,189.525
			L61.796,189.525z"/>
		<path style="fill-rule:evenodd;clip-rule:evenodd;fill:#FFFFFF;" d="M155.463,18.281l10.822,7.137l14.465,8.36l12.641,7.02
			l23.367,13.379l18.258,11.646l15.807,12.243l10.209,9.208l10.766,11.587l4.826,8.214l6.525,13.67l2.266,10.72l1.656,11.348
			l1.344,10.352l-0.201,7.243l0.494,8.204l1.494,14.264l0.555,19.465l0.033,5.828c0,0-39.041,22.092-85.857,24.986
			c-12.095,0.747-16.604,9.242-22.805,9.731c-11.638,0.917-16.119-6.126-28.645-6.876c-5.712-0.342-4.978-2.107-20.323-2.12
			c-24.722-0.021-85.677,44.12-74.361-24.387c-5.698,34.498,2.727-22.476,2.727-22.476l3.572-24.52l5.453-30.207l5.111-22.801
			l6.957-24.88l5.982-17.042l9.314-20.111l-2.635-2.931c0,0,5.316-4.12,7.441-5.967c2.127-1.847,16.354-10.662,16.354-10.662
			l10.787-4.013l14.059-2.962l6.291-0.398L155.463,18.281L155.463,18.281z"/>
		<g>
			<defs>
				<polygon id="SVGID_1_" points="81.994,262.635 93.303,256.09 109.462,254.515 124.084,256.523 135.619,257.333 130.221,240.524 
					134.324,226.141 145.969,213.507 161.601,202.689 173.432,200.615 184.896,207.208 198.988,221.039 206.587,234.546 
					209.586,243.508 205.669,252.598 206.312,256.331 220.944,252.978 236.261,251.575 254.529,253.437 270.541,259.778 
					280.488,267.435 289.397,278.818 294.215,288.446 297.682,283.723 296.401,269.237 291.528,253.552 285.908,244.503 
					289.758,227.668 293.605,200.382 294.855,172.159 293.516,147.572 289.488,122.703 281.68,96.544 270.697,73.231 
					257.087,53.477 236.786,34.929 214.728,24.179 192.289,19.805 170.481,27.675 147.814,18.342 129.296,27.629 109.509,37.049 
					99.814,49.009 91.599,60.854 76.028,87.715 71.01,117.089 63.715,148.932 57.821,175.222 57.47,191.478 53.85,207.155 
					60.093,224.977 60.481,243.675 				"/>
			</defs>
			<clipPath id="SVGID_2_">
				<use xlink:href="#SVGID_1_"  style="overflow:visible;"/>
			</clipPath>
			
				<rect x="-4.061" y="-39.241" style="clip-path:url(#SVGID_2_);fill-rule:evenodd;clip-rule:evenodd;fill:#E186AE;" width="176.385" height="414.576"/>
		</g>
		<path style="fill-rule:evenodd;clip-rule:evenodd;fill:#4AB57E;" d="M65.414,263.533c0,0-13.5-15.708-4.5-29.171
			c9-13.464,19-25.132,43.5-30.518c24.5-5.385,73,2.244,73,2.244l0.5,101.875c0,0-31.5,0.449-53.5-9.425
			C102.414,288.666,65.414,263.533,65.414,263.533z"/>
		<path style="fill-rule:evenodd;clip-rule:evenodd;fill:#61F4E5;" d="M214.414,305.271c9.5-1.346,49.5-0.898,62-31.864
			s19.5-39.942,6.5-54.304s-25.5-23.786-58-18.4s-49.5,5.834-49.5,5.834l2.5,101.426L214.414,305.271z"/>
		
			<path style="fill-rule:evenodd;clip-rule:evenodd;fill:none;stroke:#000000;stroke-width:8.5039;stroke-linecap:round;stroke-linejoin:round;stroke-miterlimit:22.9256;" d="
			M172.615,31.52c-0.7,3.033,1.33-19.314-2.64,58.225c-1.035,20.209-0.847,93.966-0.847,93.966"/>
		
			<path style="fill:none;stroke:#000000;stroke-width:8.5039;stroke-linecap:round;stroke-linejoin:round;stroke-miterlimit:22.9256;" d="
			M41.744,317.92c0,0,128.184-18.111,248.559,7.218"/>
		
			<path style="fill:none;stroke:#000000;stroke-width:8.5039;stroke-linecap:round;stroke-linejoin:round;stroke-miterlimit:22.9256;" d="
			M260.931,271.003c0,0-0.92,37.347,4.977,48.507"/>
		
			<path style="fill:none;stroke:#000000;stroke-width:8.5039;stroke-linecap:round;stroke-linejoin:round;stroke-miterlimit:22.9256;" d="
			M72.306,278.993c0,0-2.812,22.439-5.438,30.428"/>
		
			<path style="fill:none;stroke:#000000;stroke-width:8.5039;stroke-linecap:round;stroke-linejoin:round;stroke-miterlimit:22.9256;" d="
			M152.588,17.281c34.125,25.125,141.2,57.863,138.825,134.883"/>
		
			<path style="fill:none;stroke:#000000;stroke-width:8.5039;stroke-linecap:round;stroke-linejoin:round;stroke-miterlimit:22.9256;" d="
			M291.414,152.164c-0.853,15.513,2.99,60.869,0.924,147.118"/>
		
			<path style="fill:none;stroke:#000000;stroke-width:8.5039;stroke-linecap:round;stroke-linejoin:round;stroke-miterlimit:22.9256;" d="
			M291.4,351.324c0,0-4.069-25.23,1.556-76.908"/>
		
			<path style="fill:none;stroke:#000000;stroke-width:8.5039;stroke-linecap:round;stroke-linejoin:round;stroke-miterlimit:22.9256;" d="
			M331.713,314.776c0,0-4.875,17.509-37.688,37.058"/>
		
			<path style="fill:none;stroke:#000000;stroke-width:8.5039;stroke-linecap:round;stroke-linejoin:round;stroke-miterlimit:22.9256;" d="
			M313.556,247.863c4.006,20.154,5.025,63.712-0.687,88.331"/>
		
			<path style="fill:none;stroke:#000000;stroke-width:8.5039;stroke-linecap:round;stroke-linejoin:round;stroke-miterlimit:22.9256;" d="
			M280.617,76.25c0,0,28.719,40.395,18.219,75.895"/>
		
			<path style="fill:none;stroke:#000000;stroke-width:8.5039;stroke-linecap:round;stroke-linejoin:round;stroke-miterlimit:22.9256;" d="
			M146.742,9.125c0,0,20.915-12.48,56.594,8.156"/>
		
			<path style="fill:none;stroke:#000000;stroke-width:8.5039;stroke-linecap:round;stroke-linejoin:round;stroke-miterlimit:22.9256;" d="
			M280.617,76.25c0,0-31.781-41.606-77.281-58.969"/>
		
			<path style="fill:none;stroke:#000000;stroke-width:8.5039;stroke-linecap:round;stroke-linejoin:round;stroke-miterlimit:22.9256;" d="
			M182.674,8.185c0,0,48.758-12.146,95.827,35.867c49.613,50.608,49.863,103.947,49.909,132.794"/>
		
			<path style="fill:none;stroke:#000000;stroke-width:8.5039;stroke-linecap:round;stroke-linejoin:round;stroke-miterlimit:22.9256;" d="
			M331.713,314.776c-6-43.008-2.531-125.137-3.471-147.576"/>
		
			<path style="fill:none;stroke:#000000;stroke-width:8.5039;stroke-linecap:round;stroke-linejoin:round;stroke-miterlimit:22.9256;" d="
			M46.336,314.764c0,0,7.695-31.06,8.006-67.316c0.674-78.937,13.146-152.057,47.869-207.146"/>
		
			<path style="fill:none;stroke:#000000;stroke-width:8.5039;stroke-linecap:round;stroke-linejoin:round;stroke-miterlimit:22.9256;" d="
			M152.588,17.281c0,0-24.503-1.874-56.753,28.501"/>
		
			<path style="fill:none;stroke:#000000;stroke-width:8.5039;stroke-linecap:round;stroke-linejoin:round;stroke-miterlimit:22.9256;" d="
			M102.211,40.302c-7.565,7.227-49.875,42.838-58.5,138.712s-1.5,150.381-0.375,157.181"/>
		
			<path style="fill:none;stroke:#000000;stroke-width:8.5039;stroke-linecap:round;stroke-linejoin:round;stroke-miterlimit:22.9256;" d="
			M3.586,314.436c0,0,15.75,19.379,39.75,21.759"/>
		
			<path style="fill:none;stroke:#000000;stroke-width:8.5039;stroke-linecap:round;stroke-linejoin:round;stroke-miterlimit:22.9256;" d="
			M12.961,153.175c0,0-12,54.507-9.375,161.261"/>
		
			<path style="fill:none;stroke:#000000;stroke-width:8.5039;stroke-linecap:round;stroke-linejoin:round;stroke-miterlimit:22.9256;" d="
			M81.961,23.282c0,0-56.046,43.01-70.114,135.763"/>
		
			<path style="fill:none;stroke:#000000;stroke-width:8.5039;stroke-linecap:round;stroke-linejoin:round;stroke-miterlimit:22.9256;" d="
			M146.742,9.125c0,0-27.281-15.843-64.781,14.157"/>
		<g>
			<polygon style="fill-rule:evenodd;clip-rule:evenodd;" points="108.477,177.244 105.861,172.558 103.859,164.921 102.823,155.02 
				102.672,144.678 103.23,132.695 104.21,122.19 105.744,114.603 108.757,110.354 115.336,107.813 122.923,109.818 
				126.153,113.132 127.184,118.356 127.322,125.526 124.889,129.224 116.44,133.994 109.094,137.242 109.365,140.245 
				115.597,143.826 122.508,148.771 127.391,153.075 127.393,159.551 126.127,166.235 124.286,171.392 120.559,178.121 
				117.314,180.727 113.667,181.196 108.477,177.244 			"/>
			<polygon style="fill-rule:evenodd;clip-rule:evenodd;" points="219.562,142.23 219.348,132.912 219.244,123.709 220.405,117.559 
				224.639,113.419 233.501,110.991 240.504,113.109 243.474,120.941 242.743,128.478 234.544,135.034 227.906,140.247 
				228.162,144.125 234.79,148.751 242.638,155.533 245.045,159.045 245.457,164.368 244.998,167.885 243.358,171.947 
				240.269,175.222 236.911,178.422 230.594,176.846 223.888,170.907 220.572,162.808 219.898,151.476 219.562,142.23 			"/>
			
				<path style="fill:none;stroke:#000000;stroke-width:8.5039;stroke-linecap:round;stroke-linejoin:round;stroke-miterlimit:22.9256;" d="
				M204.11,60.554c0,0,23.845-4.627,39.647,12.065"/>
			
				<path style="fill:none;stroke:#000000;stroke-width:8.5039;stroke-linecap:round;stroke-linejoin:round;stroke-miterlimit:22.9256;" d="
				M96.759,83.848c0,0,11.735-20.554,32.494-19.055"/>
			
				<path style="fill:none;stroke:#000000;stroke-width:8.5039;stroke-linecap:round;stroke-linejoin:round;stroke-miterlimit:22.9256;" d="
				M124.076,87.715c0,0-2.642,13.516,0.522,23.822"/>
			
				<path style="fill:none;stroke:#000000;stroke-width:8.5039;stroke-linecap:round;stroke-linejoin:round;stroke-miterlimit:22.9256;" d="
				M106.515,87.647c0,0-2.536,9.406,6.158,20.452"/>
			
				<path style="fill:none;stroke:#000000;stroke-width:8.5039;stroke-linecap:round;stroke-linejoin:round;stroke-miterlimit:22.9256;" d="
				M92.099,96.573c0,0-0.753,5.599,15.814,17.514"/>
			
				<path style="fill:none;stroke:#000000;stroke-width:8.5039;stroke-linecap:round;stroke-linejoin:round;stroke-miterlimit:22.9256;" d="
				M127.022,117.089c0.856-9.874-19.962-15.316-22.385,1.648"/>
			
				<path style="fill:none;stroke:#000000;stroke-width:8.5039;stroke-linecap:round;stroke-linejoin:round;stroke-miterlimit:22.9256;" d="
				M109.094,137.242c0,0,16.262-6.521,18.045-10.327"/>
			
				<path style="fill:none;stroke:#000000;stroke-width:8.5039;stroke-linecap:round;stroke-linejoin:round;stroke-miterlimit:22.9256;" d="
				M127.022,117.089c0,0,0.859,5.508,0.117,9.826"/>
			
				<path style="fill:none;stroke:#000000;stroke-width:8.5039;stroke-linecap:round;stroke-linejoin:round;stroke-miterlimit:22.9256;" d="
				M104.637,118.737c0,0-7.254,51.876,5.917,60.391"/>
			
				<path style="fill:none;stroke:#000000;stroke-width:8.5039;stroke-linecap:round;stroke-linejoin:round;stroke-miterlimit:22.9256;" d="
				M127.391,153.075c0,0,2.035,13.117-7.801,26.412"/>
			
				<path style="fill:none;stroke:#000000;stroke-width:8.5039;stroke-linecap:round;stroke-linejoin:round;stroke-miterlimit:22.9256;" d="
				M107.958,139.559c0,0,10.27,4.613,19.433,13.515"/>
			
				<path style="fill:none;stroke:#000000;stroke-width:8.5039;stroke-linecap:round;stroke-linejoin:round;stroke-miterlimit:22.9256;" d="
				M126.632,180.696c0,0-18.768-2.514-35.141,9.727"/>
			
				<path style="fill:none;stroke:#000000;stroke-width:8.5039;stroke-linecap:round;stroke-linejoin:round;stroke-miterlimit:22.9256;" d="
				M120.58,189.825c0,0,2.132-6.102,3.063-9.326"/>
			
				<path style="fill:none;stroke:#000000;stroke-width:8.5039;stroke-linecap:round;stroke-linejoin:round;stroke-miterlimit:22.9256;" d="
				M108.899,191.478c0,0,3.889-6.84,4.768-10.283"/>
			
				<path style="fill:none;stroke:#000000;stroke-width:8.5039;stroke-linecap:round;stroke-linejoin:round;stroke-miterlimit:22.9256;" d="
				M211.809,94.624c0,0,6.587,4.338,10.1,15.627"/>
			
				<path style="fill:none;stroke:#000000;stroke-width:8.5039;stroke-linecap:round;stroke-linejoin:round;stroke-miterlimit:22.9256;" d="
				M226.57,86.351c0,0,7.511,10.241,5.037,23.755"/>
			
				<path style="fill:none;stroke:#000000;stroke-width:8.5039;stroke-linecap:round;stroke-linejoin:round;stroke-miterlimit:22.9256;" d="
				M249.332,98.83c0,0-2.189,10.223-9.811,14.938"/>
			
				<path style="fill:none;stroke:#000000;stroke-width:8.5039;stroke-linecap:round;stroke-linejoin:round;stroke-miterlimit:22.9256;" d="
				M216.589,179.684c0,0,23.332-5.442,39.702,4.503"/>
			
				<path style="fill:none;stroke:#000000;stroke-width:8.5039;stroke-linecap:round;stroke-linejoin:round;stroke-miterlimit:22.9256;" d="
				M239.813,178.734c0,0-0.751,5.217,4.161,9.417"/>
			
				<path style="fill:none;stroke:#000000;stroke-width:8.5039;stroke-linecap:round;stroke-linejoin:round;stroke-miterlimit:22.9256;" d="
				M228.941,178.238c0,0-1.271,4.403,1.815,9.452"/>
			
				<path style="fill:none;stroke:#000000;stroke-width:8.5039;stroke-linecap:round;stroke-linejoin:round;stroke-miterlimit:22.9256;" d="
				M219.235,121.631c-0.307-9.364,20.802-18.059,24.239-0.69"/>
			
				<path style="fill:none;stroke:#000000;stroke-width:8.5039;stroke-linecap:round;stroke-linejoin:round;stroke-miterlimit:22.9256;" d="
				M243.742,127.675c0,0-15.368,12.391-18.513,14.574"/>
			
				<path style="fill:none;stroke:#000000;stroke-width:8.5039;stroke-linecap:round;stroke-linejoin:round;stroke-miterlimit:22.9256;" d="
				M243.474,120.941c0,0,0.558,3.772,0.268,6.734"/>
			
				<path style="fill:none;stroke:#000000;stroke-width:8.5039;stroke-linecap:round;stroke-linejoin:round;stroke-miterlimit:22.9256;" d="
				M219.235,121.631c0,0-0.006,23.882,1.337,41.177c0.552,7.102,5.02,9.901,10.022,14.038"/>
			
				<path style="fill:none;stroke:#000000;stroke-width:8.5039;stroke-linecap:round;stroke-linejoin:round;stroke-miterlimit:22.9256;" d="
				M225.229,142.249c0,0,17.553,10.75,19.817,16.797"/>
			
				<path style="fill:none;stroke:#000000;stroke-width:8.5039;stroke-linecap:round;stroke-linejoin:round;stroke-miterlimit:22.9256;" d="
				M240.269,175.222c0,0,6.966-3.884,4.776-16.177"/>
		</g>
	</g>
</g>
<g id="n3503">
	<g>
		<path style="fill-rule:evenodd;clip-rule:evenodd;fill:#E186AE;" d="M158.944,302.715l1.773-24.262l3.276-9.317l6.141-5.953
			l11.694-0.431l7.864,0.398l3.969,3.948c0,0,1.582,6.488,0.649,5.99c-0.934-0.498-4.918,3.325-4.918,3.325l0.976,6.792
			l-0.841,17.108l-8.438,2.681l-9.827,5.163l-6.13-3.373L158.944,302.715L158.944,302.715z"/>
		
			<path style="fill:none;stroke:#000000;stroke-width:8.5039;stroke-linecap:round;stroke-linejoin:round;stroke-miterlimit:22.9256;" d="
			M177.225,276.477c0,0,25.448,0.894,13.998-13.576"/>
		
			<path style="fill:none;stroke:#000000;stroke-width:8.5039;stroke-linecap:round;stroke-linejoin:round;stroke-miterlimit:22.9256;" d="
			M189.393,276.413c0,0,0.979,20.017-0.478,23.919"/>
		
			<path style="fill:none;stroke:#000000;stroke-width:8.5039;stroke-linecap:round;stroke-linejoin:round;stroke-miterlimit:22.9256;" d="
			M158.944,302.715c0,0-6.03-48.649,30.97-40.882"/>
	</g>
</g>
<g id="n3504">
	<g>
		<g>
			<path style="fill-rule:evenodd;clip-rule:evenodd;fill:#67559E;" d="M153.753,205.284l-3.482-6.325l1.051-6.594l4.735-7.762
				l5.856-6.243l6.556-5.625l6.819-2.579l7.205,1.021l5.401,2.934l5.715,5.143l4.402,5.322l3.382,5.89l1.338,6.002l-1.106,3.787
				l-4.307,3.352l-5.477,1.33C191.841,204.938,169.994,212.062,153.753,205.284L153.753,205.284z"/>
			
				<path style="fill:none;stroke:#000000;stroke-width:8.5039;stroke-linecap:round;stroke-linejoin:round;stroke-miterlimit:22.9256;" d="
				M153.753,205.284c0,0-14.37-9.521,14.716-32.548"/>
			
				<path style="fill:none;stroke:#000000;stroke-width:8.5039;stroke-linecap:round;stroke-linejoin:round;stroke-miterlimit:22.9256;" d="
				M182.492,171.178c8.483,1.904,34.972,30.644,9.349,33.76"/>
			
				<path style="fill:none;stroke:#000000;stroke-width:8.5039;stroke-linecap:round;stroke-linejoin:round;stroke-miterlimit:22.9256;" d="
				M182.492,171.178c-3.117-1.384-8.656-2.078-14.024,1.558"/>
			
				<path style="fill:none;stroke:#000000;stroke-width:8.5039;stroke-linecap:round;stroke-linejoin:round;stroke-miterlimit:22.9256;" d="
				M184.916,197.494c0,0,1.731,2.251,2.597,2.597"/>
			
				<path style="fill:none;stroke:#000000;stroke-width:8.5039;stroke-linecap:round;stroke-linejoin:round;stroke-miterlimit:22.9256;" d="
				M162.409,196.628c0,0-1.731,3.289-3.116,3.982"/>
		</g>
		<path style="fill-rule:evenodd;clip-rule:evenodd;fill:#F9D740;" d="M296.36,240.246l-3.833-11.053l-7.126-12.38l-11.118-10.963
			l-15.581-7.713l-15.119-2.832l-14.813,0.198l-16.85,2.551l-12.562,2.658l-17.163,3.446l-13.947,1.787l-15.963-0.851l-14.73-3.321
			l-15.204-1.38l-11.633-0.666L97.3,201.684l-19.682,7.3l-12.686,9.274l-10.412,13.16l-5.632,12.935l-1.861,14.186l1.123,12.767
			l3.822,12.325l6.751,11.816l9.95,10.467l14.443,9.997l13.59,7.223l19.962,8.032l18.62,5.26l18.016,3.323l17.767,1.737
			l19.756-0.013l19.875-2.314l15.485-3.489l13.688-4.591l10.901-4.989l12.205-7.622l9.731-8.578l7.685-9.807l5.794-10.383
			l5.079-11.192l4.509-14.23l1.666-10.597L296.36,240.246z M264.798,274.97c-11,16.333-25.667,37.667-60,38
			c-34.333,0.333-65.667,2-89.333-12.667c-23.667-14.667-43.333-23-39-52.667c0,0,2.667-20,21-21.333
			c18.333-1.333,42.667,6.667,56.667,6s65.333-5.667,81-9.333c15.667-3.667,28.667-2.333,31.667,7.667
			S275.798,258.637,264.798,274.97z"/>
		<polygon style="fill-rule:evenodd;clip-rule:evenodd;fill:#FFFFFF;" points="93.922,229.128 95.315,234.565 95.779,241.009 
			99.45,247.732 106.121,252.117 112.025,251.767 120.367,254.898 130.145,253.375 134.087,251.69 143.348,257.511 153.611,260.762 
			164.566,261.221 169.596,257.709 178.761,261.09 190.107,261.692 196.095,259.338 202.887,253.545 209.147,256.012 
			218.246,256.767 224.719,255.156 228.662,252.047 235.96,253.619 243.045,252.178 247.429,248.843 251.928,240.495 
			253.681,231.786 255.204,226.169 245.847,223.551 238.327,223.223 225.212,224.756 212.952,227.198 196.971,229.999 
			179.8,231.524 162.562,231.903 147.541,230.278 135.114,227.224 119.076,224.691 105.799,225.515 93.922,229.128 		"/>
		<polygon style="fill-rule:evenodd;clip-rule:evenodd;fill:#FFFFFF;" points="94.494,288.459 97.67,282.907 103.67,276.091 
			110.666,272.851 117.383,273.763 120.861,275.771 122.373,281.935 129.371,282.221 134.834,285.149 140.324,290.558 
			148.077,287.429 156.817,287.178 164.917,289.566 171.047,292.896 175.918,289.304 184.26,285.787 193.41,285.441 
			199.592,287.282 203.478,289.507 210.442,285.138 217.221,282.262 221.279,276.342 226.741,272.185 234.071,264.336 
			240.442,261.462 249.456,261.806 256.544,265.768 259.824,269.885 264.128,274.048 260.94,280.195 254.84,288.633 246.429,296.68 
			238.825,301.85 228.711,306.724 214.692,310.889 199.005,313.113 186.817,313.584 168.498,313.021 155.385,311.667 
			142.157,309.184 126.768,304.509 110.421,297.558 99.642,292 94.494,288.459 		"/>
		
			<path style="fill:none;stroke:#000000;stroke-width:8.5039;stroke-linecap:round;stroke-linejoin:round;stroke-miterlimit:22.9256;" d="
			M95.315,234.565c0,0-1.427,18.247,16.71,17.202"/>
		
			<path style="fill:none;stroke:#000000;stroke-width:8.5039;stroke-linecap:round;stroke-linejoin:round;stroke-miterlimit:22.9256;" d="
			M134.087,251.69c0,0-18.64,10.002-25.461-12.574"/>
		
			<path style="fill:none;stroke:#000000;stroke-width:8.5039;stroke-linecap:round;stroke-linejoin:round;stroke-miterlimit:22.9256;" d="
			M111.077,248.301"/>
		
			<path style="fill:none;stroke:#000000;stroke-width:8.5039;stroke-linecap:round;stroke-linejoin:round;stroke-miterlimit:22.9256;" d="
			M169.779,257.576c0,0-13.951,10.881-35.692-5.887"/>
		
			<path style="fill:none;stroke:#000000;stroke-width:8.5039;stroke-linecap:round;stroke-linejoin:round;stroke-miterlimit:22.9256;" d="
			M202.029,253.117c0,0-7.972,16.768-32.25,4.46"/>
		
			<path style="fill:none;stroke:#000000;stroke-width:8.5039;stroke-linecap:round;stroke-linejoin:round;stroke-miterlimit:22.9256;" d="
			M236.937,236.538c-0.544,6.6-3.175,12.465-14.712,18.836c-4.735,2.614-11.376,2.236-20.196-2.257"/>
		
			<path style="fill:none;stroke:#000000;stroke-width:8.5039;stroke-linecap:round;stroke-linejoin:round;stroke-miterlimit:22.9256;" d="
			M231.697,248.467c0,0,20.79,9.99,23.508-22.298"/>
		
			<path style="fill:none;stroke:#000000;stroke-width:8.5039;stroke-linecap:round;stroke-linejoin:round;stroke-miterlimit:22.9256;" d="
			M134.268,295.75c0,0,13.588-17.838,36.779-2.854"/>
		
			<path style="fill:none;stroke:#000000;stroke-width:8.5039;stroke-linecap:round;stroke-linejoin:round;stroke-miterlimit:22.9256;" d="
			M205.633,292.896c0,0-17.012-15.162-34.586,0"/>
		
			<path style="fill:none;stroke:#000000;stroke-width:8.5039;stroke-linecap:round;stroke-linejoin:round;stroke-miterlimit:22.9256;" d="
			M238.808,289.15c0,0-19.646-17.863-33.174,3.746"/>
		
			<path style="fill:none;stroke:#000000;stroke-width:8.5039;stroke-linecap:round;stroke-linejoin:round;stroke-miterlimit:22.9256;" d="
			M248.591,277.734c0,0-12.972-16.794-26.544,4.482"/>
		
			<path style="fill:none;stroke:#000000;stroke-width:8.5039;stroke-linecap:round;stroke-linejoin:round;stroke-miterlimit:22.9256;" d="
			M259.824,269.885c-4.167-8.206-19.02-15.146-30.991,4.531"/>
		
			<path style="fill:none;stroke:#000000;stroke-width:8.5039;stroke-linecap:round;stroke-linejoin:round;stroke-miterlimit:22.9256;" d="
			M97.67,282.907c0,0,12.301-17.328,24.703-0.972"/>
		
			<path style="fill:none;stroke:#000000;stroke-width:8.5039;stroke-linecap:round;stroke-linejoin:round;stroke-miterlimit:22.9256;" d="
			M115.286,289.008c0,0,11.648-19.665,28.056,0.333"/>
		
			<path style="fill:none;stroke:#000000;stroke-width:8.5039;stroke-linecap:round;stroke-linejoin:round;stroke-miterlimit:22.9256;" d="
			M48.126,247.46c0,0,8.515-50.304,75.914-47.985"/>
		
			<path style="fill:none;stroke:#000000;stroke-width:8.5039;stroke-linecap:round;stroke-linejoin:round;stroke-miterlimit:22.9256;" d="
			M221.694,196.442c4.333-0.483,60.876-12.665,75.189,45.844"/>
		
			<path style="fill:none;stroke:#000000;stroke-width:8.5039;stroke-linecap:round;stroke-linejoin:round;stroke-miterlimit:22.9256;" d="
			M124.039,199.474c16.306,0.892,17.612,6.593,44.209,6.471c15.37-0.07,30.659-6.307,53.446-9.503"/>
		
			<path style="fill:none;stroke:#000000;stroke-width:8.5039;stroke-linecap:round;stroke-linejoin:round;stroke-miterlimit:22.9256;" d="
			M66.062,303.65c0,0-24.459-20.157-17.937-56.19"/>
		
			<path style="fill:none;stroke:#000000;stroke-width:8.5039;stroke-linecap:round;stroke-linejoin:round;stroke-miterlimit:22.9256;" d="
			M296.883,242.286c0.561,11.395-0.083,38.383-16.487,57.796"/>
		
			<path style="fill:none;stroke:#000000;stroke-width:8.5039;stroke-linecap:round;stroke-linejoin:round;stroke-miterlimit:22.9256;" d="
			M66.062,303.65c11.052,10.167,48.331,35.279,107.614,37.969c34.318,1.558,85.535-8.222,106.72-41.537"/>
		
			<path style="fill:none;stroke:#000000;stroke-width:8.5039;stroke-linecap:round;stroke-linejoin:round;stroke-miterlimit:22.9256;" d="
			M123.949,225.072c21.741,3.389,22.053,7.52,47.667,6.783c28.277-0.813,37.689-4.235,50.35-6.426"/>
		
			<path style="fill:none;stroke:#000000;stroke-width:8.5039;stroke-linecap:round;stroke-linejoin:round;stroke-miterlimit:22.9256;" d="
			M268.71,239.343c0,0,0.681-26.565-46.744-13.914"/>
		
			<path style="fill:none;stroke:#000000;stroke-width:8.5039;stroke-linecap:round;stroke-linejoin:round;stroke-miterlimit:22.9256;" d="
			M123.949,225.072c0,0-44.57-6.422-47.469,30.503"/>
		
			<path style="fill:none;stroke:#000000;stroke-width:8.5039;stroke-linecap:round;stroke-linejoin:round;stroke-miterlimit:22.9256;" d="
			M76.48,255.575c0,0-2.718,23.011,28.083,39.244"/>
		
			<path style="fill:none;stroke:#000000;stroke-width:8.5039;stroke-linecap:round;stroke-linejoin:round;stroke-miterlimit:22.9256;" d="
			M268.71,239.343c0,0,6.522,31.217-19.024,54.585"/>
		
			<path style="fill:none;stroke:#000000;stroke-width:8.5039;stroke-linecap:round;stroke-linejoin:round;stroke-miterlimit:22.9256;" d="
			M104.563,294.819c21.806,10.215,39.457,18.873,82.255,18.765c21.66-0.054,45.447-3.9,62.869-19.657"/>
	</g>
</g>
</svg>
