<svg version="1.1" xmlns="http://www.w3.org/2000/svg" xmlns:xlink="http://www.w3.org/1999/xlink" x="0px" y="0px"
	 viewBox="0 0 336 533.333" style="enable-background:new 0 0 336 533.333;" xml:space="preserve">
<g id="n3601">
	<g>
		<polygon style="fill-rule:evenodd;clip-rule:evenodd;fill:#F9D740;" points="41.38,350.487 48.16,351.39 50.376,340.073 
			52.433,325.021 53.771,308.932 54.335,289.345 54.964,266.485 56.199,242.994 57.931,220.243 60.642,193.652 64.068,167.703 
			68.045,143.676 72.423,122.087 77.812,100.386 82.896,83.569 91.548,61.053 95.857,52.133 89.972,49.809 83.632,56.753 
			74.726,67.351 65.927,82.832 59.507,98.029 54.851,113.667 50.629,129.669 48.05,143.385 44.757,164.071 42.939,182.633 
			41.843,197.333 40.937,212.968 40.129,232.553 39.587,256.037 39.455,278.228 39.66,300.415 40,316.085 40.472,331.083 
			40.879,341.196 41.38,350.487 		"/>
		<path style="fill-rule:evenodd;clip-rule:evenodd;fill:#E186AE;" d="M61.746,184.579l-1.703,14.341l-1.564,15.959l-1.793,20.984
			l-1.104,18.877l-0.744,15.037l-0.502,19.569l-0.564,19.587l-1.338,16.089l-1.512,11.622L48.16,351.39l-6.719,0.262l0.252,9.285
			l17.801-2.342l30.059-2.814l30.377-1.699l33.828-0.595l26.994,0.537l29.748,1.709l27.588,2.732l20.332,2.796l13.648,2.286
			l18.125,1.856l-0.531-21.253l-0.059-30.665l0.892-25.931l1.863-26.625l0.58-21.834l0.586-25.807l0.246-18.942l-0.033-10.925
			c0,0-29.401-19.049-87.438-15.792c-10.86,0.609-45.267,3.906-56.814,3.675C118.142,170.673,92.35,195.526,61.746,184.579
			L61.746,184.579z"/>
		<path style="fill-rule:evenodd;clip-rule:evenodd;fill:#FFFFFF;" d="M155.412,18.702L155.412,18.702l6.947,49.256l101.718,2.519
			l24.579,98.555l1.494,14.264l0.555,19.465l0.033,5.828c0,0-39.041,22.092-85.857,24.986c-12.095,0.747-16.604,9.242-22.805,9.731
			c-11.638,0.918-16.119-6.126-28.645-6.876c-5.712-0.342-4.978-2.107-20.323-2.12c-24.722-0.021-85.677,44.12-74.361-24.387
			c-5.698,34.498,2.727-22.475,2.727-22.475l3.572-24.52l5.453-30.207l5.111-22.801l6.957-24.88l5.982-17.042l9.314-20.111
			l-2.635-2.931c0,0,5.316-4.12,7.441-5.967c2.127-1.847,16.353-10.662,16.353-10.662l10.787-4.013l14.059-2.962l6.291-0.398
			L155.412,18.702L155.412,18.702z"/>
		<g>
			<defs>
				<polygon id="SVGID_1_" points="54.008,291.957 58.426,283.273 67.344,271.737 81.943,263.056 93.252,256.51 109.412,254.936 
					124.033,256.943 135.568,257.754 130.17,240.944 134.273,226.562 145.919,213.927 161.55,203.11 173.381,201.036 
					184.845,207.629 198.937,221.46 206.536,234.967 209.535,243.929 205.618,253.019 206.261,256.752 220.893,253.399 
					236.211,251.996 254.478,253.858 270.491,260.199 280.437,267.856 289.346,279.239 294.164,288.867 297.631,284.144 
					296.35,269.658 291.477,253.973 285.857,244.924 289.707,228.089 293.555,200.803 294.804,172.579 293.466,147.993 
					289.437,123.124 281.629,96.965 270.646,73.652 257.036,53.898 236.735,35.35 214.677,24.6 192.239,20.226 170.43,28.096 
					147.763,18.763 129.245,28.05 109.458,37.47 99.763,49.429 88.548,67.997 81.763,99.429 73.068,126.148 67.793,147.702 
					67.097,169.429 64.068,189.532 63.763,208.096 60.042,225.398 60.43,244.096 55.209,254.309 53.799,263.457 56.199,276.037 
					54.43,286.096 54.008,291.957 				"/>
			</defs>
			<clipPath id="SVGID_2_">
				<use xlink:href="#SVGID_1_"  style="overflow:visible;"/>
			</clipPath>
			<path style="clip-path:url(#SVGID_2_);fill-rule:evenodd;clip-rule:evenodd;fill:#4AB57E;" d="M56.539,231.853
				c0,0,3.149-27.71,6.927-54.789c3.779-27.08,13.855-97.613,29.599-122.174S115.737,25.92,134,20.252s17.004-8.187,20.782,3.779
				s20.152,44.083,20.152,44.083l-5.038,91.945l0.63,48.492l-64.866,6.298L56.539,231.853z"/>
		</g>
		<path style="fill-rule:evenodd;clip-rule:evenodd;fill:#E186AE;" d="M65.363,280.076c0,0-13.5-17.5-4.5-32.5c9-15,19-28,43.5-34
			s73,2.5,73,2.5l0.5,114.5c0,0-31.5-0.5-53.5-11.5S65.363,280.076,65.363,280.076z"/>
		<path style="fill-rule:evenodd;clip-rule:evenodd;fill:#68569D;" d="M214.363,326.576c9.5-1.5,49.5-1,62-35.5s19.5-44.5,6.5-60.5
			s-25.5-26.5-58-20.5s-49.5,6.5-49.5,6.5l2.5,114L214.363,326.576z"/>
		
			<path style="fill-rule:evenodd;clip-rule:evenodd;fill:none;stroke:#000000;stroke-width:8.5039;stroke-linecap:round;stroke-linejoin:round;stroke-miterlimit:22.9256;" d="
			M172.185,68.266c0.201-2.583-3.304,44.555-3.108,50.08c0.715,20.222,0,65.786,0,65.786"/>
		
			<path style="fill:none;stroke:#000000;stroke-width:8.5039;stroke-linecap:round;stroke-linejoin:round;stroke-miterlimit:22.9256;" d="
			M41.693,360.937c0,0,128.184-17.387,248.559,6.929"/>
		
			<path style="fill:none;stroke:#000000;stroke-width:8.5039;stroke-linecap:round;stroke-linejoin:round;stroke-miterlimit:22.9256;" d="
			M260.88,315.895c0,0-0.92,35.854,4.977,46.567"/>
		
			<path style="fill:none;stroke:#000000;stroke-width:8.5039;stroke-linecap:round;stroke-linejoin:round;stroke-miterlimit:22.9256;" d="
			M72.255,323.565c0,0-2.812,21.542-5.438,29.212"/>
		<g>
			<polygon style="fill-rule:evenodd;clip-rule:evenodd;" points="111.931,168.314 109.394,164.762 107.466,158.967 
				106.487,151.449 106.373,143.593 106.956,134.487 107.945,126.504 109.467,120.736 112.419,117.498 118.844,115.546 
				126.239,117.045 129.379,119.553 130.368,123.517 130.479,128.964 128.095,131.781 119.838,135.432 112.661,137.923 
				112.916,140.203 118.984,142.904 125.71,146.638 130.458,149.892 130.44,154.812 129.183,159.894 127.371,163.817 
				123.714,168.941 120.54,170.931 116.981,171.299 111.931,168.314 			"/>
			<polygon style="fill-rule:evenodd;clip-rule:evenodd;" points="220.402,141.357 220.223,134.28 220.151,127.288 221.303,122.613 
				225.447,119.454 234.099,117.581 240.924,119.168 243.796,125.108 243.059,130.836 235.039,135.843 228.548,139.824 
				228.785,142.769 235.235,146.263 242.869,151.389 245.206,154.05 245.591,158.092 245.131,160.765 243.519,163.856 
				240.495,166.355 237.21,168.796 231.052,167.619 224.529,163.129 221.321,156.986 220.7,148.38 220.402,141.357 			"/>
			
				<path style="fill:none;stroke:#000000;stroke-width:8.5039;stroke-linecap:round;stroke-linejoin:round;stroke-miterlimit:22.9256;" d="
				M100.8,97.4c0,0,11.513-15.652,31.758-14.58"/>
			
				<path style="fill:none;stroke:#000000;stroke-width:8.5039;stroke-linecap:round;stroke-linejoin:round;stroke-miterlimit:22.9256;" d="
				M127.434,100.25c0,0-2.62,10.276,0.433,18.096"/>
			
				<path style="fill:none;stroke:#000000;stroke-width:8.5039;stroke-linecap:round;stroke-linejoin:round;stroke-miterlimit:22.9256;" d="
				M110.305,100.255c0,0-2.504,7.154,5.941,15.517"/>
			
				<path style="fill:none;stroke:#000000;stroke-width:8.5039;stroke-linecap:round;stroke-linejoin:round;stroke-miterlimit:22.9256;" d="
				M96.214,107.082c0,0-0.752,4.256,15.369,13.254"/>
			
				<path style="fill:none;stroke:#000000;stroke-width:8.5039;stroke-linecap:round;stroke-linejoin:round;stroke-miterlimit:22.9256;" d="
				M130.214,122.555c0.867-7.504-19.423-11.571-21.841,1.324"/>
			
				<path style="fill:none;stroke:#000000;stroke-width:8.5039;stroke-linecap:round;stroke-linejoin:round;stroke-miterlimit:22.9256;" d="
				M112.661,137.923c0,0,15.884-5.006,17.635-7.903"/>
			
				<path style="fill:none;stroke:#000000;stroke-width:8.5039;stroke-linecap:round;stroke-linejoin:round;stroke-miterlimit:22.9256;" d="
				M130.214,122.555c0,0,0.82,4.182,0.082,7.464"/>
			
				<path style="fill:none;stroke:#000000;stroke-width:8.5039;stroke-linecap:round;stroke-linejoin:round;stroke-miterlimit:22.9256;" d="
				M108.373,123.88c0,0-7.243,39.432,5.578,45.859"/>
			
				<path style="fill:none;stroke:#000000;stroke-width:8.5039;stroke-linecap:round;stroke-linejoin:round;stroke-miterlimit:22.9256;" d="
				M130.458,149.892c0,0,1.943,9.958-7.694,20.089"/>
			
				<path style="fill:none;stroke:#000000;stroke-width:8.5039;stroke-linecap:round;stroke-linejoin:round;stroke-miterlimit:22.9256;" d="
				M111.545,139.687c0,0,10.003,3.471,18.913,10.205"/>
			
				<path style="fill:none;stroke:#000000;stroke-width:8.5039;stroke-linecap:round;stroke-linejoin:round;stroke-miterlimit:22.9256;" d="
				M129.629,170.878c0,0-18.299-1.85-34.31,7.502"/>
			
				<path style="fill:none;stroke:#000000;stroke-width:8.5039;stroke-linecap:round;stroke-linejoin:round;stroke-miterlimit:22.9256;" d="
				M123.697,177.832c0,0,2.099-4.643,3.018-7.095"/>
			
				<path style="fill:none;stroke:#000000;stroke-width:8.5039;stroke-linecap:round;stroke-linejoin:round;stroke-miterlimit:22.9256;" d="
				M112.297,179.126c0,0,3.816-5.209,4.684-7.827"/>
			
				<path style="fill:none;stroke:#000000;stroke-width:8.5039;stroke-linecap:round;stroke-linejoin:round;stroke-miterlimit:22.9256;" d="
				M212.992,105.217c0,0,6.411,3.275,9.802,11.839"/>
			
				<path style="fill:none;stroke:#000000;stroke-width:8.5039;stroke-linecap:round;stroke-linejoin:round;stroke-miterlimit:22.9256;" d="
				M227.417,98.885c0,0,7.294,7.756,4.837,18.03"/>
			
				<path style="fill:none;stroke:#000000;stroke-width:8.5039;stroke-linecap:round;stroke-linejoin:round;stroke-miterlimit:22.9256;" d="
				M249.581,108.292c0,0-2.168,7.773-9.619,11.38"/>
			
				<path style="fill:none;stroke:#000000;stroke-width:8.5039;stroke-linecap:round;stroke-linejoin:round;stroke-miterlimit:22.9256;" d="
				M217.381,169.82c0,0,22.776-4.209,38.713,3.293"/>
			
				<path style="fill:none;stroke:#000000;stroke-width:8.5039;stroke-linecap:round;stroke-linejoin:round;stroke-miterlimit:22.9256;" d="
				M240.039,169.023c0,0-0.75,3.966,4.029,7.141"/>
			
				<path style="fill:none;stroke:#000000;stroke-width:8.5039;stroke-linecap:round;stroke-linejoin:round;stroke-miterlimit:22.9256;" d="
				M229.435,168.682c0,0-1.254,3.349,1.74,7.175"/>
			
				<path style="fill:none;stroke:#000000;stroke-width:8.5039;stroke-linecap:round;stroke-linejoin:round;stroke-miterlimit:22.9256;" d="
				M220.15,125.71c-0.269-7.113,20.35-13.786,23.646-0.602"/>
			
				<path style="fill:none;stroke:#000000;stroke-width:8.5039;stroke-linecap:round;stroke-linejoin:round;stroke-miterlimit:22.9256;" d="
				M244.035,130.223c0,0-15.031,9.462-18.105,11.131"/>
			
				<path style="fill:none;stroke:#000000;stroke-width:8.5039;stroke-linecap:round;stroke-linejoin:round;stroke-miterlimit:22.9256;" d="
				M243.796,125.108c0,0,0.532,2.863,0.239,5.115"/>
			
				<path style="fill:none;stroke:#000000;stroke-width:8.5039;stroke-linecap:round;stroke-linejoin:round;stroke-miterlimit:22.9256;" d="
				M220.15,125.71c0,0-0.083,18.142,1.172,31.277c0.515,5.394,4.865,7.506,9.731,10.632"/>
			
				<path style="fill:none;stroke:#000000;stroke-width:8.5039;stroke-linecap:round;stroke-linejoin:round;stroke-miterlimit:22.9256;" d="
				M225.93,141.354c0,0,17.087,8.11,19.276,12.696"/>
			
				<path style="fill:none;stroke:#000000;stroke-width:8.5039;stroke-linecap:round;stroke-linejoin:round;stroke-miterlimit:22.9256;" d="
				M240.495,166.355c0,0,6.807-2.973,4.711-12.305"/>
		</g>
		<g>
			<path style="fill-rule:evenodd;clip-rule:evenodd;fill:#F9D740;" d="M43.285,378.48l-1.275-15.735l-1.258-24.516l-1.002-32.916
				l-0.273-37.857l0.812-39.528l2.043-37.542l3.779-36.676l5.445-28.986l7.951-26.695l8.162-18.685l9.625-15.647l12.678-13.888
				l5.885,2.324l6.303-10.81l-1.881-1.897l10.783-7.242l13.98-6.922l15.533-4.46c0,0,3.293,0.523,12.584-0.694
				c-2.191,42.376,135.496,129.753,135.496,129.753l2.478-4.629l1.783,12.862l0.77,17.66l0.1,15.331l-0.262,22.203l-0.516,23.188
				l-0.65,24.453l-1.348,16.669l-1.033,19.91l-0.375,15.976l-0.02,24.799l0.359,19.287l0.5,15.665l0.906,19.77l5.352-1.103
				l8.176-5.23l11.074-8.574l8.088-8.132l6.484-9.394l-0.951-6.543l-1.529-18.336l-0.842-24.474l-0.238-21.564l0.15-35.576
				l0.475-33.3l0.605-36.214l-0.512-26.793l-1.77-20.897l-1.629-13.71l-2.791-14.608l-7.619-22.306l-10.422-18.125l-15.582-18.189
				l-17.883-15.029l-16.604-10.213l-22.068-9.228L204.91,9.689l-17.393-0.998l-11.389,0.727l-11.082,1.085l-9.422-0.043l-8.934,0.59
				l-13.285-3.331L120.134,7.84l-14.262,3.221l-12.475,5.325L81.91,23.372l-7.469,3.57l-7.334,4.845l-9.076,9.185L47.281,56.1
				l-9.684,17.706l-8.494,18.988l-6.289,16.348l-5.965,17.492l-3.469,11.15l-1.971,6.676l1.5,5.222l-1.418,13.73l-1.402,15.165
				l-1.445,17.423l-1.072,14.382l-0.918,13.678l-1.141,19.52l-0.807,16.64l-0.752,19.68l-0.471,17.561l-0.277,18.635L3.17,332.405
				l0.111,12.404l0.254,12.783l5.742,5.577l8.129,6.03l11.529,5.857L43.285,378.48L43.285,378.48z"/>
			
				<path style="fill:none;stroke:#000000;stroke-width:8.5039;stroke-linecap:round;stroke-linejoin:round;stroke-miterlimit:22.9256;" d="
				M152.538,18.149c14.909,90.221,138.787,90.795,136.412,157.83"/>
			
				<path style="fill:none;stroke:#000000;stroke-width:8.5039;stroke-linecap:round;stroke-linejoin:round;stroke-miterlimit:22.9256;" d="
				M303.537,306.511c-0.562,21.542,2.869,61.261,1.34,80.16"/>
			
				<path style="fill:none;stroke:#000000;stroke-width:8.5039;stroke-linecap:round;stroke-linejoin:round;stroke-miterlimit:22.9256;" d="
				M146.691,11.05c0,0,20.915-10.863,56.594,7.099"/>
			
				<path style="fill:none;stroke:#000000;stroke-width:8.5039;stroke-linecap:round;stroke-linejoin:round;stroke-miterlimit:22.9256;" d="
				M294.804,172.579c0,0,18.013-128.272-91.52-154.431"/>
			
				<path style="fill:none;stroke:#000000;stroke-width:8.5039;stroke-linecap:round;stroke-linejoin:round;stroke-miterlimit:22.9256;" d="
				M158.529,15.392c0,0,23.751,1.761,47.053,36.007c22.899,33.654,77.469,81.718,85.78,101.186"/>
		</g>
		
			<path style="fill:none;stroke:#000000;stroke-width:8.5039;stroke-linecap:round;stroke-linejoin:round;stroke-miterlimit:22.9256;" d="
			M95.785,42.955c-7.565,6.938-43.5,39.493-52.125,131.534s-1.5,197.464-0.375,203.991"/>
		
			<path style="fill:none;stroke:#000000;stroke-width:8.5039;stroke-linecap:round;stroke-linejoin:round;stroke-miterlimit:22.9256;" d="
			M3.535,357.591c0,0,15.75,18.604,39.75,20.889"/>
		
			<path style="fill:none;stroke:#000000;stroke-width:8.5039;stroke-linecap:round;stroke-linejoin:round;stroke-miterlimit:22.9256;" d="
			M12.91,149.683c0,0-12,105.423-9.375,207.908"/>
		
			<path style="fill:none;stroke:#000000;stroke-width:8.5039;stroke-linecap:round;stroke-linejoin:round;stroke-miterlimit:22.9256;" d="
			M81.91,22.746c0,0-65.125,55.79-69,137.551"/>
		
			<path style="fill:none;stroke:#000000;stroke-width:8.5039;stroke-linecap:round;stroke-linejoin:round;stroke-miterlimit:22.9256;" d="
			M146.691,9.328c0,0-27.281-15.016-64.781,13.418"/>
		
			<path style="fill:none;stroke:#000000;stroke-width:8.5039;stroke-linecap:round;stroke-linejoin:round;stroke-miterlimit:22.9256;" d="
			M152.538,17.702c0,0-24.503-1.874-56.753,28.501"/>
		
			<path style="fill:none;stroke:#000000;stroke-width:8.5039;stroke-linecap:round;stroke-linejoin:round;stroke-miterlimit:22.9256;" d="
			M46.285,357.907c0,0,7.695-29.818,8.006-64.624c0.674-75.78,16.656-204.591,51.379-257.477"/>
		
			<path style="fill:none;stroke:#000000;stroke-width:8.5039;stroke-linecap:round;stroke-linejoin:round;stroke-miterlimit:22.9256;" d="
			M291.349,393.004c0,0-4.688-79.801,0.938-129.412"/>
		
			<path style="fill:none;stroke:#000000;stroke-width:8.5039;stroke-linecap:round;stroke-linejoin:round;stroke-miterlimit:22.9256;" d="
			M291.363,152.585c-0.854,15.513,2.99,60.869,0.924,147.118"/>
		
			<path style="fill:none;stroke:#000000;stroke-width:8.5039;stroke-linecap:round;stroke-linejoin:round;stroke-miterlimit:22.9256;" d="
			M331.662,357.918c0,0-4.875,16.809-37.688,35.576"/>
		
			<path style="fill:none;stroke:#000000;stroke-width:8.5039;stroke-linecap:round;stroke-linejoin:round;stroke-miterlimit:22.9256;" d="
			M331.662,357.918c-6-41.288-2.531-173.229-3.471-194.771"/>
		
			<path style="fill:none;stroke:#000000;stroke-width:8.5039;stroke-linecap:round;stroke-linejoin:round;stroke-miterlimit:22.9256;" d="
			M182.624,8.497c0,0,47.265-9.53,95.827,32.141c48.562,41.669,45.803,85.813,49.74,125.298"/>
	</g>
</g>
<g id="n3602">
	<g>
		<path style="fill-rule:evenodd;clip-rule:evenodd;fill:#68569D;" d="M132.099,415.487c-1.512-1.778,1.996,7.083,1.996,7.083
			l5.541,6.42l9.604,4.325l15.551,1.187l14.81,1.278l17.104-3.407l11.545-5.618l8.24-8.974l3.053-11.176l9.697,5.462l9.59,7.588
			l9.672,9.83l7.918,9.704l7.922,11.253l7.781,12.622l5.15,9.248l3.326,6.362l-9.121,10.387l-12.508,11.08l-17.723,11.648
			l-15.479,7.372l-20.555,6.505l-18.695,2.816l-21.367-0.653l-15.238-2.247l-19.793-5.4l-12.732-5.5l-12.297-7.38l-12.428-10.096
			l-8.379-8.407l3.326-10.709l5.08-13.115l7.498-14.752l8.775-13.346l10.344-12.413L132.099,415.487L132.099,415.487z"/>
		<path style="fill-rule:evenodd;clip-rule:evenodd;fill:#FFFFFF;" d="M154.974,328.799c0,0,20.932-15.077,39,2.25
			c-0.424,4.209-0.781,8.521-0.781,8.521l-0.641,18.631l-0.131,10.495l0.207,6.897l1.199,12.036l2.195,9.091l3.285,6.339
			l5.418,3.511l4.049-3.223l7.498,1.937l2.412,4.461l-2.195,8.035l-5.391,6.752l-7.992,5.221l-11.695,4.155l-17.615,1.993
			l-11.988-1.628l-12.568-0.959l-12.375-7.535l-4.539-8.02l-0.213-5.328l7.977-6.067l7.621-4.895l6.889-5.296l1.406-11.008
			l0.363-13.103l-0.207-12.925l-0.553-20.098L154.974,328.799L154.974,328.799z"/>
		
			<path style="fill:none;stroke:#000000;stroke-width:8.5039;stroke-linecap:round;stroke-linejoin:round;stroke-miterlimit:22.9256;" d="
			M153.474,398.425c0,0-49.687,21.75-68.25,87.375"/>
		
			<path style="fill:none;stroke:#000000;stroke-width:8.5039;stroke-linecap:round;stroke-linejoin:round;stroke-miterlimit:22.9256;" d="
			M201.661,403.3c0,0,36-8.812,78.938,75.375"/>
		
			<path style="fill:none;stroke:#000000;stroke-width:8.5039;stroke-linecap:round;stroke-linejoin:round;stroke-miterlimit:22.9256;" d="
			M169.786,411.925c0,0,7.312,3.562,12,0.188"/>
		
			<path style="fill:none;stroke:#000000;stroke-width:8.5039;stroke-linecap:round;stroke-linejoin:round;stroke-miterlimit:22.9256;" d="
			M145.606,445.819c26.214,10.147,52.069,2.593,59.993-2.582"/>
		
			<path style="fill:none;stroke:#000000;stroke-width:8.5039;stroke-linecap:round;stroke-linejoin:round;stroke-miterlimit:22.9256;" d="
			M141.849,412.112c0,0,10.1-5.507,13.369-19.161"/>
		
			<path style="fill:none;stroke:#000000;stroke-width:8.5039;stroke-linecap:round;stroke-linejoin:round;stroke-miterlimit:22.9256;" d="
			M154.974,328.799c0,0,3.375,51.813-0.375,67.375"/>
		
			<path style="fill:none;stroke:#000000;stroke-width:8.5039;stroke-linecap:round;stroke-linejoin:round;stroke-miterlimit:22.9256;" d="
			M193.974,331.049c0,0-8.25,77.5,13.125,75.625"/>
		
			<path style="fill:none;stroke:#000000;stroke-width:8.5039;stroke-linecap:round;stroke-linejoin:round;stroke-miterlimit:22.9256;" d="
			M132.099,415.487c1.873,17.25,19.545,20.298,43.5,20.432c13.877,0.077,43.482-6.424,43.125-27.932"/>
		
			<path style="fill:none;stroke:#000000;stroke-width:8.5039;stroke-linecap:round;stroke-linejoin:round;stroke-miterlimit:22.9256;" d="
			M84.284,488.8c16.5,17.626,39.178,36.798,89.988,39.764c34.533,2.017,79.777-15.742,106.326-49.889"/>
	</g>
</g>
<g id="n3603">
	<g>
		<path style="fill-rule:evenodd;clip-rule:evenodd;fill:#F9D740;" d="M158.894,303.136l1.773-24.262l3.276-9.317l6.141-5.953
			l11.694-0.431l7.864,0.398l3.969,3.948c0,0,1.582,6.488,0.649,5.99c-0.934-0.498-4.918,3.325-4.918,3.325l0.976,6.792
			l-0.841,17.108l-8.438,2.681l-9.827,5.163l-6.13-3.373L158.894,303.136L158.894,303.136z"/>
		
			<path style="fill:none;stroke:#000000;stroke-width:8.5039;stroke-linecap:round;stroke-linejoin:round;stroke-miterlimit:22.9256;" d="
			M177.175,276.898c0,0,25.448,0.894,13.998-13.576"/>
		
			<path style="fill:none;stroke:#000000;stroke-width:8.5039;stroke-linecap:round;stroke-linejoin:round;stroke-miterlimit:22.9256;" d="
			M189.342,276.833c0,0,0.979,20.017-0.478,23.919"/>
		
			<path style="fill:none;stroke:#000000;stroke-width:8.5039;stroke-linecap:round;stroke-linejoin:round;stroke-miterlimit:22.9256;" d="
			M158.894,303.136c0,0-6.03-48.649,30.97-40.882"/>
	</g>
</g>
<g id="n3604">
	<g>
		<g>
			<path style="fill-rule:evenodd;clip-rule:evenodd;fill:#E186AE;" d="M153.702,205.705l-3.482-6.325l1.051-6.594l4.735-7.762
				l5.856-6.243l6.556-5.625l6.819-2.579l7.205,1.021l5.401,2.934l5.715,5.143l4.402,5.322l3.382,5.89l1.338,6.002l-1.106,3.787
				l-4.307,3.352l-5.477,1.33C191.791,205.359,169.943,212.483,153.702,205.705L153.702,205.705z"/>
			
				<path style="fill:none;stroke:#000000;stroke-width:8.5039;stroke-linecap:round;stroke-linejoin:round;stroke-miterlimit:22.9256;" d="
				M153.702,205.705c0,0-14.37-9.521,14.716-32.548"/>
			
				<path style="fill:none;stroke:#000000;stroke-width:8.5039;stroke-linecap:round;stroke-linejoin:round;stroke-miterlimit:22.9256;" d="
				M182.441,171.599c8.483,1.904,34.972,30.644,9.349,33.76"/>
			
				<path style="fill:none;stroke:#000000;stroke-width:8.5039;stroke-linecap:round;stroke-linejoin:round;stroke-miterlimit:22.9256;" d="
				M182.441,171.599c-3.117-1.384-8.657-2.078-14.024,1.558"/>
			
				<path style="fill:none;stroke:#000000;stroke-width:8.5039;stroke-linecap:round;stroke-linejoin:round;stroke-miterlimit:22.9256;" d="
				M184.865,197.914c0,0,1.731,2.251,2.597,2.597"/>
			
				<path style="fill:none;stroke:#000000;stroke-width:8.5039;stroke-linecap:round;stroke-linejoin:round;stroke-miterlimit:22.9256;" d="
				M162.358,197.049c0,0-1.731,3.289-3.116,3.982"/>
		</g>
		<path style="fill-rule:evenodd;clip-rule:evenodd;fill:#F9D740;" d="M296.309,240.667l-3.833-11.053l-7.126-12.38l-11.118-10.963
			l-15.581-7.713l-15.119-2.832l-14.813,0.198l-16.85,2.551l-12.562,2.658l-17.163,3.446l-13.947,1.787l-15.963-0.851l-14.73-3.321
			l-15.204-1.38l-11.633-0.666l-13.418,1.957l-19.682,7.3l-12.686,9.274l-10.412,13.16l-5.632,12.935l-1.861,14.186l1.123,12.767
			l3.822,12.325l6.751,11.816l9.95,10.467l14.443,9.997l13.59,7.223l19.962,8.032l18.62,5.26l18.016,3.323l17.767,1.737
			l19.756-0.013l19.875-2.314l15.485-3.489l13.688-4.591l10.901-4.989l12.205-7.622l9.731-8.578l7.685-9.807l5.794-10.383
			l5.079-11.192l4.509-14.23l1.666-10.597L296.309,240.667z M264.747,275.391c-11,16.333-25.667,37.667-60,38
			c-34.333,0.333-65.667,2-89.333-12.667c-23.667-14.667-43.333-23-39-52.667c0,0,2.667-20,21-21.333
			c18.333-1.333,42.667,6.667,56.667,6s65.333-5.667,81-9.333c15.667-3.667,28.667-2.333,31.667,7.667
			S275.747,259.058,264.747,275.391z"/>
		<polygon style="fill-rule:evenodd;clip-rule:evenodd;fill:#FFFFFF;" points="93.871,229.549 95.264,234.986 95.728,241.43 
			99.399,248.153 106.071,252.538 111.974,252.188 120.316,255.319 130.094,253.796 134.036,252.111 143.297,257.932 
			153.56,261.183 164.516,261.642 169.545,258.13 178.71,261.511 190.056,262.113 196.044,259.759 202.837,253.966 209.097,256.433 
			218.195,257.188 224.669,255.577 228.611,252.468 235.909,254.04 242.994,252.599 247.378,249.264 251.877,240.916 
			253.631,232.206 255.154,226.59 245.797,223.972 238.276,223.644 225.161,225.177 212.901,227.619 196.92,230.42 179.75,231.945 
			162.511,232.323 147.491,230.699 135.063,227.645 119.025,225.112 105.748,225.936 93.871,229.549 		"/>
		<polygon style="fill-rule:evenodd;clip-rule:evenodd;fill:#61F4E5;" points="94.443,288.88 97.619,283.328 103.619,276.512 
			110.615,273.272 117.332,274.184 120.81,276.192 122.322,282.356 129.32,282.642 134.784,285.57 140.274,290.979 148.026,287.85 
			156.766,287.599 164.867,289.987 170.996,293.317 175.867,289.725 184.209,286.208 193.359,285.862 199.541,287.703 
			203.427,289.928 210.391,285.559 217.17,282.683 221.228,276.763 226.69,272.606 234.02,264.757 240.391,261.883 249.405,262.227 
			256.494,266.189 259.774,270.306 264.077,274.469 260.889,280.616 254.789,289.054 246.378,297.101 238.774,302.271 
			228.66,307.145 214.641,311.31 198.954,313.534 186.766,314.005 168.447,313.442 155.334,312.088 142.106,309.605 126.717,304.93 
			110.37,297.979 99.592,292.421 94.443,288.88 		"/>
		
			<path style="fill:none;stroke:#000000;stroke-width:8.5039;stroke-linecap:round;stroke-linejoin:round;stroke-miterlimit:22.9256;" d="
			M95.264,234.986c0,0-1.427,18.247,16.71,17.202"/>
		
			<path style="fill:none;stroke:#000000;stroke-width:8.5039;stroke-linecap:round;stroke-linejoin:round;stroke-miterlimit:22.9256;" d="
			M134.036,252.111c0,0-18.64,10.002-25.461-12.574"/>
		
			<path style="fill:none;stroke:#000000;stroke-width:8.5039;stroke-linecap:round;stroke-linejoin:round;stroke-miterlimit:22.9256;" d="
			M111.027,248.722"/>
		
			<path style="fill:none;stroke:#000000;stroke-width:8.5039;stroke-linecap:round;stroke-linejoin:round;stroke-miterlimit:22.9256;" d="
			M169.728,257.997c0,0-13.951,10.881-35.692-5.887"/>
		
			<path style="fill:none;stroke:#000000;stroke-width:8.5039;stroke-linecap:round;stroke-linejoin:round;stroke-miterlimit:22.9256;" d="
			M201.978,253.538c0,0-7.972,16.768-32.25,4.46"/>
		
			<path style="fill:none;stroke:#000000;stroke-width:8.5039;stroke-linecap:round;stroke-linejoin:round;stroke-miterlimit:22.9256;" d="
			M236.886,236.959c-0.544,6.6-3.175,12.465-14.712,18.836c-4.735,2.614-11.376,2.236-20.196-2.257"/>
		
			<path style="fill:none;stroke:#000000;stroke-width:8.5039;stroke-linecap:round;stroke-linejoin:round;stroke-miterlimit:22.9256;" d="
			M231.646,248.888c0,0,20.79,9.99,23.508-22.298"/>
		
			<path style="fill:none;stroke:#000000;stroke-width:8.5039;stroke-linecap:round;stroke-linejoin:round;stroke-miterlimit:22.9256;" d="
			M134.217,296.171c0,0,13.588-17.838,36.779-2.854"/>
		
			<path style="fill:none;stroke:#000000;stroke-width:8.5039;stroke-linecap:round;stroke-linejoin:round;stroke-miterlimit:22.9256;" d="
			M205.583,293.317c0,0-17.012-15.162-34.586,0"/>
		
			<path style="fill:none;stroke:#000000;stroke-width:8.5039;stroke-linecap:round;stroke-linejoin:round;stroke-miterlimit:22.9256;" d="
			M238.757,289.571c0,0-19.646-17.863-33.174,3.746"/>
		
			<path style="fill:none;stroke:#000000;stroke-width:8.5039;stroke-linecap:round;stroke-linejoin:round;stroke-miterlimit:22.9256;" d="
			M248.541,278.154c0,0-12.972-16.794-26.544,4.482"/>
		
			<path style="fill:none;stroke:#000000;stroke-width:8.5039;stroke-linecap:round;stroke-linejoin:round;stroke-miterlimit:22.9256;" d="
			M259.774,270.306c-4.167-8.206-19.02-15.146-30.991,4.531"/>
		
			<path style="fill:none;stroke:#000000;stroke-width:8.5039;stroke-linecap:round;stroke-linejoin:round;stroke-miterlimit:22.9256;" d="
			M97.619,283.328c0,0,12.301-17.328,24.703-0.972"/>
		
			<path style="fill:none;stroke:#000000;stroke-width:8.5039;stroke-linecap:round;stroke-linejoin:round;stroke-miterlimit:22.9256;" d="
			M115.235,289.429c0,0,11.648-19.665,28.056,0.333"/>
		
			<path style="fill:none;stroke:#000000;stroke-width:8.5039;stroke-linecap:round;stroke-linejoin:round;stroke-miterlimit:22.9256;" d="
			M48.075,247.881c0,0,8.515-50.304,75.914-47.985"/>
		
			<path style="fill:none;stroke:#000000;stroke-width:8.5039;stroke-linecap:round;stroke-linejoin:round;stroke-miterlimit:22.9256;" d="
			M221.643,196.863c4.333-0.483,60.876-12.665,75.189,45.844"/>
		
			<path style="fill:none;stroke:#000000;stroke-width:8.5039;stroke-linecap:round;stroke-linejoin:round;stroke-miterlimit:22.9256;" d="
			M123.988,199.895c16.306,0.892,17.612,6.593,44.209,6.471c15.37-0.07,30.659-6.307,53.446-9.503"/>
		
			<path style="fill:none;stroke:#000000;stroke-width:8.5039;stroke-linecap:round;stroke-linejoin:round;stroke-miterlimit:22.9256;" d="
			M66.011,304.071c0,0-24.459-20.157-17.937-56.19"/>
		
			<path style="fill:none;stroke:#000000;stroke-width:8.5039;stroke-linecap:round;stroke-linejoin:round;stroke-miterlimit:22.9256;" d="
			M296.832,242.707c0,0,5.979,20.692-16.487,57.796"/>
		
			<path style="fill:none;stroke:#000000;stroke-width:8.5039;stroke-linecap:round;stroke-linejoin:round;stroke-miterlimit:22.9256;" d="
			M66.011,304.071c11.052,10.167,48.331,35.279,107.614,37.969c34.318,1.558,85.535-8.222,106.72-41.537"/>
		
			<path style="fill:none;stroke:#000000;stroke-width:8.5039;stroke-linecap:round;stroke-linejoin:round;stroke-miterlimit:22.9256;" d="
			M123.898,225.493c21.741,3.389,22.053,7.52,47.667,6.783c28.277-0.813,37.689-4.235,50.35-6.426"/>
		
			<path style="fill:none;stroke:#000000;stroke-width:8.5039;stroke-linecap:round;stroke-linejoin:round;stroke-miterlimit:22.9256;" d="
			M268.659,239.764c0,0,0.681-26.565-46.744-13.914"/>
		
			<path style="fill:none;stroke:#000000;stroke-width:8.5039;stroke-linecap:round;stroke-linejoin:round;stroke-miterlimit:22.9256;" d="
			M123.898,225.493c0,0-44.57-6.422-47.469,30.503"/>
		
			<path style="fill:none;stroke:#000000;stroke-width:8.5039;stroke-linecap:round;stroke-linejoin:round;stroke-miterlimit:22.9256;" d="
			M76.429,255.996c0,0-2.718,23.011,28.083,39.244"/>
		
			<path style="fill:none;stroke:#000000;stroke-width:8.5039;stroke-linecap:round;stroke-linejoin:round;stroke-miterlimit:22.9256;" d="
			M268.659,239.764c0,0,6.522,31.217-19.024,54.585"/>
		
			<path style="fill:none;stroke:#000000;stroke-width:8.5039;stroke-linecap:round;stroke-linejoin:round;stroke-miterlimit:22.9256;" d="
			M104.512,295.24c21.806,10.215,39.457,18.873,82.255,18.765c21.66-0.054,45.447-3.9,62.869-19.657"/>
	</g>
</g>
</svg>
