<svg xmlns="http://www.w3.org/2000/svg" viewBox="0 0 328.743 509.183"><g id="n0401"><g><g><path d="M40.372 437.81c-2.667-2-15.077-26.37-16.205-56.852-1.128-30.481 1.128-60.242 0-64.695-1.128-4.453 87.577 49.547 87.577 49.547l159.367-24 5.381 9.439s-5.31 71.44-5.381 75.668c-.071 4.228-2.191 36.227-22.465 38.893-20.273 2.667-169.103 19.333-199.688 0-30.586-19.333-8.586-28-8.586-28z" fill="#49b37e"/><path d="M21.865 333.918s-1.715 57.761 12.454 88.255m242.172-73.255s1.586 68.708-3.713 77.342" fill="none" stroke="#000" stroke-width="8.504" stroke-linecap="round" stroke-linejoin="round" stroke-miterlimit="22.926"/></g><g><path fill-rule="evenodd" clip-rule="evenodd" fill="#3f3558" d="M276.489 378.155l6.961.928 3.701 5.136-.477 6.689-3.945 7.072-7.922 5.25.658-10.108.534-8.162.49-6.805z"/><path fill-rule="evenodd" clip-rule="evenodd" fill="#fff" d="M156.114 438.918l13.65 21.351 12.975 21.774 27.498-12.122 24.771-10.885 24.918-12.795 25.945-11.965 17.243-11.858-6.201-16.331-6.852-21.268-4.709 9.2-17.889 12.689-29.099 10.47-22.86 6.993-26.988 7.178-17.919 4.426-14.483 3.143z"/><path fill-rule="evenodd" clip-rule="evenodd" fill="#f8d63f" d="M129.864 480.168l10.952-12.523 7.856-13.465 7.442-15.262-19.307-4.55-29.655-7.477-29.51-8.512-25.691-9.207-17.631-9-4.964-13.32-2.847-9.429-5.77.745-4.388 11.303-3.097 13.288-3.638 11.796-4.252 9.363 18.143 10.289 18.953 10.468 19.877 10.297 22.755 10.404 20.384 7.712 24.388 7.08z"/><path fill-rule="evenodd" clip-rule="evenodd" fill="#3f3558" d="M14.436 429.062l-1.565 9.465-2.078 7.531 5.758 11.226 12.749 9.582 19.35 12.677 18.179 8.158 18.819 6.642 20.506 5.43 19.795 3.489 18.284 1.592 12.635.077 15.056-1.237 20.024-3.702 22.552-6.456 19.424-7.286 21.213-9.819 16.344-9.226 15.666-11.406 6.582-7.845 1.174-5.808-.885-12.773-12.687 7.417-18.813 9.545-20.898 9.73-20.678 9.151-20.706 9.058-17.497 7.769-7.597-12.835-9.239-15.255-9.789-15.035-6.22 12.915-6.33 11.441-7.865 11.384-5.835 5.51-24.388-7.08-26.357-10.272-24.708-11.839-19.753-10.556-20.222-11.359z"/><path d="M23.122 377.423c-1.256 35.804 83.867 50.244 132.993 61.494m128.249-43.124c-5.25 12-83.913 34.074-128.249 43.125m26.624 43.125s-20.625-35.25-26.624-43.125m-26.251 41.25s9.375-4.125 26.25-41.25M21.865 375.484c-6 8.25-6.376 29.684-16.501 48.434m124.5 56.25c-44.625-10.875-78.695-30.166-124.5-56.25m297.75-1.5c-16.125 16.125-91.875 46.5-120.375 59.625m98.24-104.62s11.26 5.244 3.385 18.369m18.75 26.626s-9.664-16.577-15.963-38.198" fill="none" stroke="#000" stroke-width="8.504" stroke-linecap="round" stroke-linejoin="round" stroke-miterlimit="22.926"/><path d="M12.115 451.105c11.318 21.958 81.444 53.759 144.753 53.826 72.746.077 132.183-42.244 137.247-57.951m-.097-17.607c-1.354 9.742 2.469 10.272.098 17.607M12.834 428.168c3.375 12.376-5.184 13.562-.72 22.938m144.754 53.825s-.455-33.974.33-52.889" fill="none" stroke="#000" stroke-width="8.504" stroke-linecap="round" stroke-linejoin="round" stroke-miterlimit="22.926"/></g></g></g><g id="n0402"><g><path fill-rule="evenodd" clip-rule="evenodd" fill="#49b37e" d="M118.524 60.749l7.245-24.074 11.792-15.891 17.767-12.267 24.038-4.225 6.394 2.65 1.481 6.725-3.968 14.575-4.636 12.164-5.871 26.751-15.151-4.115-19.751-2.309-19.34.016z"/><path d="M169.616 25.292s-6.375 12.25-12 37.75m21.75-58.75c4.229.92 8.438 1.312 7.875 9.375m-14.475 53.49c3-16.875 13.537-42.241 14.475-53.49m-68.717 47.082s13.31-58.238 60.841-56.457" fill="none" stroke="#000" stroke-width="8.504" stroke-linecap="round" stroke-linejoin="round" stroke-miterlimit="22.926"/></g></g><g id="n0403"><g><path d="M113.223 266.181c-1.242 16.184 8.322-10.764 2.848 0-5.474 10.765-7.412 5.092 2.444 13.384 9.856 8.291 28.599 13.499 25.56 30.805-3.038 17.307-11.508 45.437-34.273 42.148-22.765-3.288-76.882-12.454-76.882-12.454s-18.511-52.458-11.055-79.059c1.243-4.433 92.6-11.007 91.358 5.176z" fill-rule="evenodd" clip-rule="evenodd" fill="#e085ad"/><path d="M276.292 345.708s-138.187 19.718-164.054 8.163c-25.867-11.557 82.461-25.643-44.624-89.188-2.21-1.105 196.876-2.202 196.876-2.202s10.287 11.906 8.287 27.773c-2 15.868 3.935 25.756 3.935 25.756l-.42 29.698" fill-rule="evenodd" clip-rule="evenodd" fill="#3f3558"/><g><path d="M181.602 325.557l-3.524-9.246 6.438-1.347 3.555-3.351-3.278-3.962-7.659-4.328-6.499-.404s-10.013-8.942-36.524 2.658c-4.739 3.149-7.291 8.219-7.291 8.219l-3.24 5.759-4.708 21.165 11.25 1.007 8 1.75 6.283-2.757 7.801-2.09 7.939 1.847 9.423.243 6.539-1.493 7.765-.75-2.27-12.92z" fill-rule="evenodd" clip-rule="evenodd" fill="#f8d63f"/><path d="M172.624 301.293c44.636 19.126-21.574 15.562-21.574 15.562m27.028-.544s5.794 9.246 5.794 22.166" fill="none" stroke="#000" stroke-width="8.504" stroke-linecap="round" stroke-linejoin="round" stroke-miterlimit="22.926"/><path d="M118.872 340.72s0-26.243 17.777-35.162c0 0 11.855-9.648 35.976-4.266" fill="none" stroke="#000" stroke-width="8.504" stroke-linecap="round" stroke-linejoin="round" stroke-miterlimit="22.926"/></g><g><path fill-rule="evenodd" clip-rule="evenodd" fill="#f8d63f" d="M12.865 187.667l6.391.781 5.829-17.775 8.872-19.569 10.285-18.569 11.676-16.253 15.343-9.146 25.226-6.302 31.856-2.39 24.525.177 29.568 1.579 25.675 8.804 18.616 15.254 9.199 11.958 7.436 12.965 3.546 7.601 5.583.135.133-18.409-3.459-18.403-8.161-17.962-15.156-15.768-17.842-11.132-27.272-12.448-27.709-7.29-28.281-2.044-25.309 2.904-23.188 7.25-16.811 9.709-9.88 15.498-2.941 13.345 1.067 6.209-13.276 5.77-13.692 13.773-7.561 16.371-2.756 18.724 2.468 24.653z"/><path fill-rule="evenodd" clip-rule="evenodd" fill="#e085ad" d="M16.608 256.948l11.154-8.419 12.017-5.8 16.723-12.209 14.536-14.012 14.838-21.21 7.15-19.832.725-24.009-6.728-18.868-13.689-8.669-19.501 3.293-9.591 5.322-13.159 24.393-9.381 24.063-5.214 21.453-.788 23.712.947 14.011-.039 16.781z"/><path fill-rule="evenodd" clip-rule="evenodd" d="M49.052 210.544l8.075-1.321 6.582.364 2.217-14.045-6.74-8.924-7.567-8.228 8.684-6.885 6.936-3.339 1.125-10.124-4.043-5.207-4.215-.401-7.649 5.165-1.126 8.687-1.853 32.051-.426 12.207z"/><path d="M248.372 242.09c.947-.183-10.966-4.027-10.966-4.027l-11.796-12.062-10.761-18.974-5.16-21.07 1.045-13.978 6.644-13.885 11.414-6.432 18.105 5.097 6.012 15.79L259 194.073l3.134 14.559 2.705 15.703 2.182 16.072-18.649 1.683z" fill-rule="evenodd" clip-rule="evenodd" fill="#fff"/><path fill-rule="evenodd" clip-rule="evenodd" d="M232.798 216.564l6.233.188 4.245.453.025-12.663-8.429-7.641 1.057-5.764 6.997-7.596.592-9.173-1.801-6.128-6.426-1.144-3.802 5.945-.12 14.262.665 16.484.764 12.777z"/><path d="M302.096 275.35l-12.215-22.79-15.639-10.98-29.034 2.161-29.523 7.529-29.989 4.893-29.357.816-29.839-2.199-26.204-4.413-25.344-4.896-24.553-1.645-18.794 2.996-14.997 10.126-7.039 10.257-4.405 13.449-.53 17.004 4.968 18.256 12.263 18.004 6.676 6.073-.481-4.762.481 4.762 10.48 9.014 13.804 7.157 33.839 11.715 22.866 6.427 23.143 5.874 24.315 5.729 23.51-5.258 32.25-8.379 33.832-10.348 27.072-10.674 2.838-2.331h3.881-3.881l10.002-8.207 9.533-11.987 6.797-15.728 2.26-19.581-2.986-18.064zm-47.187 50.056c-20.913 10.406-38.679 25.792-104.608 23.599-65.929-2.193-108.596-34.213-108.596-34.213s-14.791-16.726-6.062-34.02c8.729-17.294 21.731-14.825 34.729-9.224s54.589 15.622 86.596 14.36c32.007-1.262 83.186-8.993 92.795-14.712 9.609-5.719 18.62 5.832 19.95 13.116 1.329 7.285 6.109 30.688-14.804 41.094z" fill-rule="evenodd" clip-rule="evenodd" fill="#49b37e"/><path fill-rule="evenodd" clip-rule="evenodd" fill="#3f3558" d="M44.242 133.005l7.49-11.83 10.668-9.203 18.374-7.497 15.713-3.171 15.928-1.195 24.137-1.135 24.002.528 21.882 1.169 15.946 4.057 13.471 7.812 10.96 8.981 12.03 13.757 8.105 13.55 3.949 8.402-14.91-5.325-12.283 4.348-6.838 11.741-3.299 15.563 2.798 16.968 5.579 13.68 8.971 13.6 8.158 8.343 13.299 6.412-17.925 5.416-21.021 5.22-27.347 3.711-24.715.514-26.439-1.844-25.573-3.888-25.861-4.982-22.073-2.477-17.639-1.031 11.883-8.318 13.96-12.194 11.341-12.899 9.948-16.085 6.115-17.767 1.379-17.321-3.274-17.539-6.839-11.196L72 124.206l-11.857 1.177-8.102 3.152-7.799 4.47z"/><path fill-rule="evenodd" clip-rule="evenodd" fill="#fff" d="M58.988 269.537l-.639 7.523 1.335 8.872 7.156 5.203 7.611 3.305 8.499.271 7.469-2.351 4.999 5.654 8.334 3.526 8.461-2.611 4.331-1.9 7.972 5.572 9.594 2.977 9.872-2.15 6.319-3.636 5.817 3.899 7.956 1.637 7.555-3.16 4.547-5.189 6.799 3.808 9.367 2.943 8.856-1.829 5.215-6.291 8.285 5.694 7.66.93 7.812-7.109 7.608-1.799 6.939-4.692 1.289-7.838-1.193-8.978-10.998 3.023-12.052 3.453-15.729 3.59-15.184 2.519-13.373 1.473-10.144.664-15.381.272-21.021-1.046-19.859-2.501-18.244-3.656-12.869-3.448-20.971-6.624z"/><path d="M51.737 321.139l3.827-6.772 6.637-8.36 8.619-3.721 8.274 6.77 2.143 4.436 7.404 3.451 4.096 5.162 10.143-1.454 8.709 8.065 11.067-3.292 10.596 3.743 6.078 4.629 11.322-5.529 10.847 1.067 6.306 5.455 9.351-6.265 12.551 2.403s3.582 4.085 2.906 3.564c-.678-.523 9.998-7.695 9.998-7.695l11.252 1.496 6.43-9.611 5.945-2.014 5.23-7.637 6.582-2.676 5.223-5.652 7.455-.592 5.732 7.003 6.197 10.909-8.534 7.444-14.567 8.053-16.57 6.027-15.98 4.017-19.199 3.202-19.864 1.815-17.046.41-18.75-.925-21.131-2.886-21.916-5.415-17.248-6.579-11.457-6.052-8.658-5.994z" fill-rule="evenodd" clip-rule="evenodd" fill="#fff"/><path d="M21.865 333.918c-27.75-28.125-22.125-77.626 12.75-88.126m241.876 103.126c-19.404 13.988-64.379 34.955-126.004 31.703-40.798-2.153-97.103-15.335-128.621-46.703m242.625-93.376c34.125-3.75 65.25 72.001 12 108.376M34.615 245.792c40.5-8.25 63.891 10.874 126.375 11.251 62.482.376 71.916-16.623 103.5-16.501m-170.01 5.25c-7.108-21.476 10.635-58.125 88.261-37.5m-62.036-101.815c8.626 6.75 26.581 48.852 9.938 94.51m-82.528-74.82c12-22.125 47.25-35.625 168.75-22.875m-130.16-3s12.41-18.375 50.285-25.5m-72.442 31.685s-2.176-22.685 31.567-32.81m-23.625-8.25s70.5-39 157.125 23.625m22.876 67.875s6-43.125-22.875-67.875M46.615 106.477s1.114-32.483 25.875-41.06m-25.875 45.06c-17.84-1.327-45.661 23.576-32.91 84.326m32.91-49.571s12.814-13.416 29.531-2.66m133.543 4.186c6.637-11.654 19.879-11.642 28.75-6m-52.323-40.283c40.125 9 69.651 45.768 80.904 139.933m-250.412 16.54c3-31.875-15.441-55.15 31.507-130.781m-5.104 8.451c3.498-5.842 45.765-30.143 51.136 19.955m-59.532 91.219s65.062-34.688 59.531-91.219m-55.125 60.375s13.124-9 28.5-4.5m181.798 31.459c-16.322 4.316-55.025-49.741-33.297-82.085m30.886-3.04c-.956-2.157-19.823-12.449-30.886 3.04M107.178 389.418s54 18.058 108 .75m-31.875-157.501s1.875 9 11.625 9.375m-79.125-10.875s3.75 11.625-6 12m73.5-10.5s15.75-1.125 11.625 9.375m-79.125-10.875s-13.126 7.875-6 12m115.498-26.25s18.375-1.875 27 3m-20.812-46.876c-.188-6.375 10.5-10.875 12-.188m-10.691 43.711s-2.205-31.715-1.31-43.523m11.438 10.5s.75-4.312.562-10.688m-11.872 21.963s11.023-8.998 11.311-11.275m.374 21.001s.646 10.122-.025 12.663m-11.66-22.389s7.561 4.288 11.686 9.726M52.239 159.166c0-8.062 16.125-9.562 16.125-1.125m-19.312 52.503s1.147-40.296 3.199-51.743m14.988 9.365s.937-5.437 1.125-10.125M51.619 178.39s7.745-7.787 15.62-10.224m-1.313 27.376s-7.614-11.052-14.307-17.151m12.09 31.196s1.842-4.858 2.217-14.046m-.282 75.656s78.188 33.75 173.063 2.062m24.563 44.063c12-13.124 14.625-55.875-24.562-44.062m-173.064-2.063c-18.375-8.25-53.25 13.689-16.688 47.626" fill="none" stroke="#000" stroke-width="8.504" stroke-linecap="round" stroke-linejoin="round" stroke-miterlimit="22.926"/><path d="M263.27 317.322c-15.918 18.694-56.998 29.687-99.572 31.468-47.11 1.971-91.736-9.774-114.741-29.967m101.344-19.031s14.626 14.25 25.876-2.812m29.624-1.876s-12.43 19.688-29.625 1.875m55.193-10.575s-5.13 23.723-25.567 8.7m25.079-1.406s18.423-.28 15.235-17.53m-8.065 30.186s10.594-15.188 23.422 8.438m-35.234 1.875s6.56-20.625 22.406.655m-34.781 10.97s6.175-22.733 22.602-5.693m-120.853-26.557s15.937 18.75 34.687 3.75m-60.937-8.625s11.626 19.688 26.25 4.875m-43.67-11.729s1.507 20.124 18.75 9.189m-32.416-21.954s-5.006 23.114 14.307 20.761m-19.313 24.859s16.78-29.003 28.029-4.627m-10.928 9.472s10.929-19.449 22.367-2.707m-6.7 8.409s13.262-20.237 26.2 2.075m26.062 4.877s-10.552-17.054-26.062-4.876m55.875 5.438s-10.876-17.064-29.813-.562m53.25-.188s-8.062-15.75-23.438.75m45.751-6.937s-12.492-11.123-22.312 6.188" fill="none" stroke="#000" stroke-width="8.504" stroke-linecap="round" stroke-linejoin="round" stroke-miterlimit="22.926"/></g></g></g><g id="n0404"><g stroke="#000" stroke-width="8.504" stroke-linecap="round" stroke-linejoin="round" stroke-miterlimit="22.926"><path d="M314.553 82.105c5.488 0 9.938 4.449 9.938 9.938 0 5.488-4.449 9.937-9.938 9.937-5.488 0-9.938-4.449-9.938-9.937.001-5.489 4.45-9.938 9.938-9.938zm-26.156 74.25c9.785 0 17.719 7.933 17.719 17.718 0 9.786-7.934 17.719-17.719 17.719s-17.719-7.933-17.719-17.719c0-9.785 7.934-17.718 17.719-17.718z" fill="none"/><path d="M296.928 200.23a7.688 7.688 0 1 1 0 15.375 7.688 7.688 0 0 1 0-15.375z" fill="#fff"/></g></g></svg>