<?xml version="1.0" encoding="utf-8"?>
<!-- Generator: Adobe Illustrator 19.2.1, SVG Export Plug-In . SVG Version: 6.00 Build 0)  -->
<svg version="1.1" id="_x35_" xmlns="http://www.w3.org/2000/svg" xmlns:xlink="http://www.w3.org/1999/xlink" x="0px" y="0px"
	 viewBox="0 0 118.56 91.242" style="enable-background:new 0 0 118.56 91.242;" xml:space="preserve">
<g>
	<path style="fill:#F8D53E;" d="M24.19,31.709c-4.513,0-8.022,1.128-11.28,5.766h-0.251V9.777h23.312V0H0.878v54.518h11.781v-3.635
		c0-6.14,2.757-9.398,6.893-9.398c3.886,0,6.767,2.256,6.767,8.647v19.3c0,5.266,0,12.785-7.395,12.785
		c-5.014,0-7.144-3.01-7.144-8.148v-8.02H0v9.776c0,9.398,6.14,15.418,18.548,15.418c14.288,0,19.551-7.022,19.551-18.175V47.249
		C38.099,35.719,30.831,31.709,24.19,31.709z"/>
	<polygon style="fill:#F8D53E;" points="55.07,68.604 66.103,68.604 66.103,8.77 78.378,8.77 78.378,0 42.795,0 42.795,8.77 
		55.07,8.77 	"/>
	<polygon style="fill:#F8D53E;" points="107.529,0 107.529,28.549 94.886,28.549 94.886,0 83.854,0 83.854,68.604 94.886,68.604 
		94.886,36.658 107.529,36.658 107.529,68.604 118.56,68.604 118.56,0 	"/>
	<rect x="45.148" y="76.921" style="fill:#F8D53E;" width="73.412" height="10.649"/>
</g>
</svg>
