<svg xmlns="http://www.w3.org/2000/svg" viewBox="0 0 422.747 467.413"><g id="n0501"><g><path fill-rule="evenodd" clip-rule="evenodd" fill="#68569d" d="M156.631 358.392l-9.28 3.6-6.09 8.887 1.732 13.212-14.648 9.123-14.015 8.094-12.069 10.071 11.119 13.341 16.038 13.45 18.404 10.534 21.458 7.946 21.635 4.576 22.56 1.895 25.447-1.646 21.674-5.815 20.507-10.839 15.185-12.661 10.552-11.86 9.547-13.421-9.076-8.682-10.82-5.539-14.767-8.336 2.038-2.568-6.463-11.428-8.023-12.001-3.889-5.071-7.058 10.897-14.122 11.29-15.62 7.454-5.575 1.859-6.221 8.133-3.898 9.858-7.882 11.634-6.046-6.505-2.69-9.787-5.514-9.583-9.993-2.123-11.304-5.674-9.325-8.031-3.164-5.711-.344-8.573z"/><path fill-rule="evenodd" clip-rule="evenodd" fill="#49b37e" d="M154.499 290.646l16.017 3.172 17.447 2.275 18.072.982 21.018-.975 17.148-3 13.763-4.403.402 18.455.798 40.237 2.205 12.068-10.101 10.338-11.194 7.619-11.487 5.481-7.673 3.187-4.123 6.805-3.898 9.858-7.882 11.634-6.046-6.505-2.69-9.787-5.514-9.583-13.633-3.555-12.326-8.258-7.791-7.687-.483-12.781-.773-12.398-.623-42.032-.633-11.147z"/><path d="M154.499 290.646s2.512 71.233 2.512 78.358m100.953-80.307s-.073 64.565 3.677 71.315m-38.629 24.742s33-9 42.375-31.5m18.375 28.5s-7.5-15-18.375-28.5M151.79 360.27s-9.722 8.359-13.097 18.484m26.193 48.375s-23.943-12-26.193-48.375m106.819 44.25s22.124-20.625 38.25-41.25m-93.001 6.75s-18.751-.376-33.751-19.5m48.001 45.375c9-5.625 10.551-27.047 18-29.625m-32.25 3.75c8.999 7.875 3.75 20.625 14.25 25.875m.375 48.375s2.25-43.126-.375-48.375" fill="none" stroke="#000" stroke-width="8.504" stroke-linecap="round" stroke-linejoin="round" stroke-miterlimit="22.926"/><path d="M102.261 411.379c17.25 24.75 50.34 47.784 103.126 51.375 50.295 3.422 84.574-14.722 111-55.875m-177.694-22.125c-8.625 12.75-25.182 13.125-36.432 26.625m179.463-27.057c12.376 9.75 25.288 9.433 34.663 22.558m-125.626-18.376c-16.875 14.625-12.375 33.375-25.875 38.625m58.126-42.375c18.375 19.125 9.374 34.125 22.5 38.25" fill="none" stroke="#000" stroke-width="8.504" stroke-linecap="round" stroke-linejoin="round" stroke-miterlimit="22.926"/><path d="M190.385 420.815a4.251 4.251 0 0 1 4.252 4.252 4.252 4.252 0 1 1-4.252-4.252z" fill-rule="evenodd" clip-rule="evenodd"/></g></g><g id="n0502"><g><path d="M91.626 205.785s2.711 60.823 9.511 71.531c6.8 10.708 33.173 31.669 50.653 36.189 17.48 4.52 42.848 5.792 42.848 5.792l-.878-86.655-102.134-26.857z" fill="#e085ad"/><path d="M295.762 207.754s5.159 48.284 0 59.943c-5.159 11.659-35.008 45.954-72.75 45.807-37.742-.147-28.374 5.792-28.374 5.792l-.878-86.655 102.002-24.887z" fill="#68569d"/><g><path fill-rule="evenodd" clip-rule="evenodd" fill="#f8d53f" d="M210.77 289.862l.539-9.257-.671-12.207.322-8.874-5.117-5.685-8.505.639-5.585 7.828-.532 8.97.795 6.275-.795 9.356 13.813 2.955z"/><path d="M191.008 284.063c2.032-9.16-3.987-21.848 6.33-29.585 0 0 12.311-3.241 14.453 4.878 3.95 14.965-9.598 10.749-9.598 10.749m7.756-.882s2.041 15.135 1.571 17.684" fill="none" stroke="#000" stroke-width="8.504" stroke-linecap="round" stroke-linejoin="round" stroke-miterlimit="22.926"/></g><g><path fill-rule="evenodd" clip-rule="evenodd" fill="#68569d" d="M94.733 78.653l25.297-10.682 26.294-4.95 25.829.556 26.629 3.462 28.933 1.33 20.985-1.255 17.261-1.282 20.007 2.076 19.771 7.189 15.266 8.793 8.48 6.013 10.798-9.386.402-7.211 2.722-9.071-1.154-10.365-6.427-5.982-9.852-2.038-8.536-8.757-11.08-4.461-17.461-12.378-23.111-7.158-20.437-1.198-8.303 2.255-9.981-7.431-15.341-2.194-13.41 5.124-5.518 5.626-11.885-5.28-17.281.269-8.724 3.897-6.621 5.173-23.041-2.652-19.229 5.599-13.988 8.604-8.017 8.363-5.298 13.685 3.425 15.18 12.596 10.537z"/><path d="M298.97 224.004l-16.302-12.122-26.063-3.345-23.477 3.856-22.051 2.854-3.308-.558-7-.5-5.5-3.5-7.5-9.5-10.916-7.121 3.006-4.04-.665-18.507-2.184-24.261-4.13-24.353-5.368-19.289-10.094-15.534L138.876 79l-18.43.961-14.462 5.067-6.75-1.5-10.501-9.633-9.708-7.843-17.623-8.634-17.677-4.028-20.665 2.28 3.046 4.981 7.35 6.695 7.209 9.066 7.175 11.192 4.747 11.156-1.6 3.703-9.797 2.788-6.788 9.293 1.316 11.205 4.461 9.985 7.488 11.354-2.525 3.948 4.406 7.572 6.557 8.917-7.305 2.268 4.684 9.101 6.303 6.829 4.056 8.054.889 10.499 6.15 11.907 8.113 10.589 8.445 9.907 6.917 11.847.436 17.76 5.379 13.621 12.472 13.853 17.307 11.443 18.781 7.823 16.371 3.727 22.195 3.53 27.684 1.018 29.769-3.322 22.857-7.953 20.711-14.892 13.58-17.544 5.547-14.73.861-19.079-9.337-19.777zm-12.61 49.836c-8.492 9.874-32.992 27.753-66.492 30.189-33.5 2.435-86.205-10.315-104.511-33.751 0 0-8.261-38.03 22.5-37.047 30.761.983 44.016 7.505 62.627 7.024 18.612-.48 71.987-15.783 80.435-8.287 8.449 7.496 13.934 31.998 5.441 41.872z" fill-rule="evenodd" clip-rule="evenodd" fill="#f8d63f"/><path fill-rule="evenodd" clip-rule="evenodd" d="M105.468 186.597l9.854-2.408 14.122-.793 9.08.162-.667-13.03-8.906-5.344-8.906-5.344 7.734-7.117 10.078-8.175-1.687-5.333-4.169-8.466-13.607-2.803-7.596 4.217-4.628 8.552-.851 12.392.319 10.549-.465 11.26.295 11.681z"/><path fill-rule="evenodd" clip-rule="evenodd" fill="#fff" d="M62.594 203.429l1.274-9.397-4.078-8.307-7.563-8.599-3.807-8.661 6.667-2.164-6.493-9.202-4.487-8.134 3.344-2.206-7.269-11.023-5.083-12.101-.217-11.091 6.31-7.292 11.728-2.975-3.869-11.83-6.254-10.985-6.928-9.082-9.762-9.728-3.046-4.981-11.259 7.78L6.03 77.435 4.422 94.379l.062 15.718 3.106 22.316 5.838 18.427 7.956 15.604 9.841 13.391 11.057 10.888 8.365 6.244 11.947 6.462zm71.092 30.152l1.402 9.699 5.269 6.722 8.563 1.151 4.779-1.103 6.977 2.837 8.681-3.609 6.667 3.954 9.402 2.325 8.426-2.316 2.505-2.088 7.232 5.14 10.631.888 7.896-3.548 3.116-2.48 7.111 4.114 7.197-.757 5.192-5.045 7.075 1.784 5.356-3.125 6.649 2.946 6.47-5.389 1.358-6.764.126-9.584-9.843.85-13.273 4.46-15.423 3.438-14.13 1.694-14.713.597-16.258-.489-15.125-1.406-16.641-2.562-11.975-2.317-10.699-.017z"/><path fill-rule="evenodd" clip-rule="evenodd" fill="#81cece" d="M134.454 287.246l3.258-6.745 5.644-7.689 7.483-3.762 6.138 1.958 6.693 5.645 7.95 1.204 8.05 6.108 8.602-4.037 9.951.947 8.447 6.84 6.953-4.273 10.917-3.006 11.143 1.396 7.052-4.312 9.569-1.859 7.069 4.241 4.498 8.067-19.187 8.258-26.121 5.357-27.718-.17-23.546-3.153-17.696-4.557-15.149-6.458z"/><path fill-rule="evenodd" clip-rule="evenodd" fill="#e085ad" d="M398.47 56.387l10.255 6.631 7.524 15.369 2.227 18.395-1.428 21.398-5.032 22.315-9.029 22.007-13.644 19.626-13.688 12.429-15.156 9.024-17.414 4.451 6.95-9.145 12.075-11.484-9.751-7.125 8.625-8.156 7.8-8.881-6.676-6.223 9.552-11.201 7.161-9.724 7.288-12.44-5.815-11.517-10.31-7.795 4.794-14.589 9.465-15.439 14.227-17.926z"/><path fill-rule="evenodd" clip-rule="evenodd" fill="#fff" d="M94.733 78.653l15.62-7.402 16.08-5.004 17.141-2.968 25.643-.04 20.327 2.77 20.906 1.963 26.047.044 20.833-1.543 22.53.24 15.993 4.789 20.293 9.299 14.747 7.878 19.897-16.807 20.561-12.318 15.218-4.172 11.901 1.005-2.817 5.2-8.564 8.934-7.425 10.601-6.096 11.158-3.584 12.061 10.31 7.795 5.815 11.517-7.288 12.44-8.334 11.193-8.379 9.732 6.676 6.223-6.702 7.632-9.723 9.405 9.751 7.125-7.05 6.092-12.86 15.847-11.226 18.538-8.331 13.053-13.867 11.771-1.484-13.9-8.322-14.8-14.793-11.462-19.362-4.206-21.991 2.057-14.913 2.675-10.519 2.972-1.065-6.793-.291-8.862-2.973-8.908-11.43-5.222-11.871.909-9.902 2.865-.437-12.156-.878-15.7-2.182-19.78-4.003-21.358-5.87-19.918-11.895-15.436L138.876 79l-19.446 1.209-13.445 4.819-6.75-1.5-4.502-4.875z"/><path fill-rule="evenodd" clip-rule="evenodd" d="M260.018 185.03l12.481-1.615 11.459-.097 7.494 1.113.932-7.855-.214-5.861-10.031-7.031-9.05-7.822 8.828-7.108 7.815-6.351-2.687-8.897-7.634-6.857-11.5 1.122-6.973 6.746-1.956 8.261.109 9.998.257 11.133.337 11.358.333 9.763z"/><path d="M102.368 89.903c35.74-16.339 59.318-4.07 65.764 15.473 7.369 22.342 11.24 52.244 11.728 84.653m27.096-2.591c13.99-49.708 29.904-122.661 82.404-104.285m-192 31.125s17.341-18.838 40.498-12.001m119.812 0s23.25-15.063 40.69 4.501M102.368 89.903C71.243 53.528 11.86 41.904 6.234 76.028m58.5 128.251c-25.125-9.375-70.5-48-58.5-128.25m88.126 172.5c-8.438-19.125-21.003-27.002-30.753-50.251" fill="none" stroke="#000" stroke-width="8.504" stroke-linecap="round" stroke-linejoin="round" stroke-miterlimit="22.926"/><path d="M94.733 78.653s34.501-21.749 80.626-14.625c46.126 7.125 62.612 3.521 75.001 3 12.387-.521 37.875-8.25 79.125 22.875m-10.617 12.374s42.127-48.887 73.252-47.012 26.615 48.513 25.49 59.013m-76.125 96c33.749-8.25 67.875-34.125 76.125-96m-55.5 73.125c-26.25 19.875-31.522 52.717-53.272 67.531m-91.446-38.894c31.705-7.207 66.719-18.512 86.969 15.613m-56.626-43.875s46.874-13.5 57 5.625m-212.626-.75s23.625-15.75 52.875-6.375m3.751 126.751s71.297 21.18 118.876-3m-171.19-37.875c-8.625-21 7.312-77.625 62.625-55.875m-10.311 96.75c-12.746-3.571-44.438-18.187-52.313-40.875m207.938-40.5c7.125 11.438 11.895 51.558-36.75 78.375M393.498 63.836c-5.959 3.581-22.685 26.879-23.514 40.505m16.125 19.312s-2.25-12.938-16.125-19.312m-8.062 52.875s16.499-17.438 24.188-33.563m-16.501 40.313l-7.687-6.75m.188 30.187l-9.751-7.125m17.25-16.312s-11.061 10.5-17.25 16.312m-193.5-145.875C147.046-11.534 38.5 39.632 94.733 78.653m53.552-59.316s18.824-20.372 44.512-4.06m24.747 47.108c20.25 9 37.689-25.919 19.502-48.232m-44.25 1.125c3.562-7.312 26.812-20.062 44.25-1.125m22.527 52.05s16.473-2.737 17.223-16.8m-39.75-35.25c14.062-8.437 81.562 4.312 75.562 39.562m-6.25-21.083c7.875 1.5 33.625 12.271 13.375 35.333m6.241-22.115c8.438 0 27.697 4.49 11.385 34.303M148.545 234.278s63.75 15.75 111-3.375M26.107 63.836c7.5 4.125 27.75 28.503 26.812 38.441m-2.812 43.876s-36-40.876 2.812-43.876m3.188 65.25s-6.75-7.687-12-18.562m4.313 19.5c4.5 16.875 17.625 15.938 15.187 29.812m51.75 72.001c-5.625-6.75-5.25-43.688 33.188-36m134.062 39.562c10.875-10.5 9.188-53.814-23.062-42.938m-144.188 39.376c10.688 17.25 38.117 29.573 85.471 31.771 28.984 1.346 61.952-7.875 81.779-28.209m-148.153 9.602s13.529-25.164 29.466-7.914m-7.5 6.562s16.909-14.061 23.25 1.875m27 3.75s-10.5-15.562-27-3.75m61.687 1.313s-13.5-13.125-34.688 2.438m54.376-5.626s-8.538-14.955-25.362-.259m-101.997-48.25s-1.266 20.196 15.234 17.571m20.437-1.874s-11.004 10.889-20.171-5.314m47.171 7.189s-9.001 11.062-27-1.875m55.875 1.875s-14.625 14.625-28.875 0m48.375-1.688s-6.934 12.672-19.5 1.688m32.438-8.063s-.507 14.686-12.938 6.375m27.034-20.132c2.584 27.849-14.603 18.791-14.603 18.791m1.819-105.346c-.75-17.438 27.188-26.813 30.75-.375m-26.055 42.028s-4.694-27.215-4.694-41.653m13.124 13.875c6.595-5.309 11.438-9.188 17.625-14.25m2.438 28.312s-16.688-9.188-20.062-14.062m19.344 27.778s1.655-9.215.718-13.715m-186-30.001c2.438-15 26.547-18.376 29.548 0m-26.85 43.716s-4.573-27.778-2.698-43.715m13.875 19.124s4.688 6 17.812 10.688m.644 14.047s.294-9.359-.643-14.047" fill="none" stroke="#000" stroke-width="8.504" stroke-linecap="round" stroke-linejoin="round" stroke-miterlimit="22.926"/></g></g></g><g id="n0503"><g><path fill-rule="evenodd" clip-rule="evenodd" fill="#e085ad" d="M211.077 215.247l5.25-6-.414-12.626-5.503-7.457-12.604-3.075-11.239 2.033-9.713 5.947-3.523 8.668 2.75 9.909 7.283 4.897 10.119 2.799 9.041-.98 8.553-4.115z"/><path d="M176.578 213.559c6.188 7.126 23.25 10.126 34.499 1.688m5.25-6c3.188-19.5-8.8-23.854-20.489-23.077-9.447.627-30.574 7.308-19.26 27.39m9.789-5.256s-.039-3.557-1.539-5.995m20.437-.937s-2.249 4.312-1.874 7.312" fill="none" stroke="#000" stroke-width="8.504" stroke-linecap="round" stroke-linejoin="round" stroke-miterlimit="22.926"/></g></g></svg>