<svg xmlns="http://www.w3.org/2000/svg" xmlns:xlink="http://www.w3.org/1999/xlink" viewBox="0 0 355.036 556.787"><g id="n0601"><g><g><path fill-rule="evenodd" clip-rule="evenodd" fill="#e085ad" d="M40.333 113.294l-7.668-16.08-11.364-20.002-7.162-21.166-2.188-20.26 1.321-15.394L21.45 9.137l13.511-4.73 9.742 8.812 3.283 15.475 1.865 15.221 2.865 15.143 3.771 14.233 4.377 12.624-8.335 11.031-8.685 11.076-3.511 5.272z"/><path fill-rule="evenodd" clip-rule="evenodd" fill="#f8d63f" d="M199.469 88.147l8.778-9.764 11.258-7.739 11.12-2.506 11.372 3.762 7.722 7.247-.447 12.523-1.973 12.619-2.83 8.608-11.449-8.729-15.653-6.723-11.924-4.4-5.974-4.898z"/><path fill-rule="evenodd" clip-rule="evenodd" fill="#e085ad" d="M265.2 117.45l11.144 1.822 7.053-11.821 6.625-15.267 5.09-18.429 2.121-20.248-1.764-21.235-5.725-14.957-11.146-10.958-12.073-.867-8.205 8.072-4.367 11.464-1.609 8.371 6.986 8.158.418 13.129 1.993 13.152 2.357 11.604 1.726 11.309.174 12.671-.798 14.03z"/><path fill-rule="evenodd" clip-rule="evenodd" fill="#68569d" d="M194.406 89.46l5.063-1.313 6.833-7.6 7.067-6.304-7.176-9.426-14.22-13.511-15.834-9.922-17.259-6.034-19.711-1.682-18.326 2.903-19.979 7.682-16.08 11.906-13.21 15.506-10.71 14.25-12.677 16.569-12.245 17.887-10.413 19.619-8.303 20.141-6.299 20.61-4.632 22.868-2.225 22.003.399 24.535 4.782 1.842 6.571-13.567 11.918-14.418 12.598-8.175 10.768-3.719-1.45-6.776 8.013-5.724 5.747-4.595-2.527-14.89-4.295-14.739-5.007-17.149-1.257-11.12 3.255-13.318 7.767-9.378 12.151-4.347 13.091.948 8.937-9.203 11.595-8.62 17.876-8.562 16.833-3.901 18.308-.324 16.64 2.902 17.623 6.146z"/><path fill-rule="evenodd" clip-rule="evenodd" fill="#f8d63f" d="M123.08 218.966l2.514-6.319-6.002-12.814-3.528-14.31 3.581-13.505 11.573-6.901 11.061-.415 5.267-13.875 3.197-17.819-.031-19.085-3.398-18.243-5.479-14.944-16.833 3.901-15.772 7.284-11.855 8.528-10.781 10.573-13.091-.948-14.706 6.532-6.946 11.425-1.257 14.491 3.497 14.289 4.486 15.143 2.882 10.381 1.957 12.68-13.76 10.319 1.45 6.776 11.911-1.81 19.843.554 18.126 2.974 12.823 2.895 9.271 2.243z"/><path fill-rule="evenodd" clip-rule="evenodd" d="M77.572 191.133l17.97.05-.425-10.799-2.557-7.109-11.416-5.345-9.192-2.287 8.224-8.615 8.855-7.942-2.775-9.989-9-4.337-6.848 5.128-1.902 8.853.981 7.868 5.377 19.647 2.708 14.877z"/><path fill-rule="evenodd" clip-rule="evenodd" fill="#fff" d="M141.835 80.736l5.479 14.944 3.398 18.243.031 19.085-3.515 17.755-4.949 13.939 8.892 5.057 5.36 5.576 6.439-1.637 7.713-7.882 9.115-4.928 12.803-.905 11.555 6.623 5.832 9.045.342 13.783-2.987 7.868-3.749 6.345 1.433 5.41 11.409-2.667 14.753-2.27 15.18-.664 13.204 1.154 8.229 1.74 3.667-6.266-7.446-5.916 4.226-9.37 5.685-11.203 5.252-10.874 6.357-13.94 1.619-10.936-2.428-10.047-8.39-8.526-11.144-1.822.566-9.947.145-10.418-1.197-14.318-2.973-14.931-1.993-13.152-.418-13.129 1.264-13.033-7.446.69-1.566 13.463-.451 10.106-.389 12.703-1.023 13.663-.447 12.523-1.973 12.619-2.83 8.608-9.879-7.531-12.035-6.125-11.149-3.996-11.937-7.098-9.806-.641-12.88-4.192-16.64-2.902-18.308.324z"/><path fill-rule="evenodd" clip-rule="evenodd" d="M233.788 185.4l3.831-11.32 4.32-11.99 4.967-12.066 8.601-9.015 8.925-1.741 4.995 7.002-.17 7.634-.976 5.12-10.593.234-7.795-.093 3.233 8.992 4.843 9.992-5.813 10.688-10.072-1.434-8.296-2.003z"/><path fill-rule="evenodd" clip-rule="evenodd" fill="#f8d63f" d="M284.621 148.991l4.848 2.906 6.09 10.714 4.726 14.159 2.377 13.379 4.227 15.764 7.339 14.966 8.409 16.188 7.523 18.33 4.457 17.86 1.586 18.106-.866 16.093.895 12.792 5.36 15.174 6.711 15.552 4.06 13.066.024 15.638-5.258 12.025-7.41 8.819-7.039-1.642 1.899-10.888.684-12.641-1.294-16.111-3.055-14.529-4.77-14.772-4.8-11.542-5.916-3.932 4.932-12.269 1.275-14.968-1.727-18.009-3.05-13.768-6.962-15.174-9.126-13.97-14.713-11.628-18.255-8.329 3.667-6.266-7.446-5.916 4.226-9.37 5.533-11.275 5.404-10.802 5.435-13.73z"/><path fill-rule="evenodd" clip-rule="evenodd" fill="#68569d" d="M26.75 328.678l13.931 13.788L57.275 355.3l18.927 11.374 18.248 8.457 18.313 6.475 23.987 6.636-1.387 21.345-1.842 20.094-3.196 23.914-3.453 19.178-4.686 19.033-7.834 20.037-15.81-3.758-20.73-14.853-9.977-14.552-2.616-8.408-12.752-2.232-17.175-14.643-8.117-16.819.169-19.555 2.919-14.817 2.085-18.848-.329-20.314-3.202-19.874-2.067-14.492z"/><path fill-rule="evenodd" clip-rule="evenodd" fill="#f8d63f" d="M203.876 389.742l16.755-4.147 17.559-6.331 18.907-9.374 18.434-12.057 14.793-12.461 14.25-15.097 11.176-15.596 5.594 3.718 4.8 11.542 5.872 19.16 2.599 18.196-.036 20.697-4.138 18.923-7.911 18.185-13.243 19.492-15.055 16.385 1.237 15.67-7.113 16.406-12.665 10.433-13.824 6.376-15.963 2.285-12.17-3.979-5.806-6.608-9.985 7.452-4.578-12.603-4.068-14.966-2.746-14.615-1.625-14.197-1.283-19.831-.224-14.783.011-14.845.446-13.43z"/><path d="M104.219 493.523s-32.625-12-13.5-81.75m119.695 73.781c-4.875-43.501 43.805-52.406 59.18-87.281m68.063 4.614c32.25-31.5-5.399-75.18-2.814-91.615m-45.374-159.375c16.727 25.034 8.31 37.371 20.901 61.718 12.038 23.277 31.107 51.256 24.474 97.656M86.594 111.022s35.685-52.875 104.685-22.875m8.19 0c7.875 10.5 25.875 6.374 45 24.749m-45-24.749s26.625-38.25 50.25-9m-27 5.625s11.069-.322 24.375 15.75M83.117 78.139s39.541-53.367 100.255-9.867m77.999-38.384c-5.812 37.125 9.206 55.333 3.956 85.333M32.969 28.522c5.905 39.75 15.75 58.875 10.875 79.5" fill="none" stroke="#000" stroke-width="8.504" stroke-linecap="round" stroke-linejoin="round" stroke-miterlimit="22.926"/><path d="M213.369 74.243c-8.49-13.177-48.28-61.937-112.505-29.989-19.766 9.833-30.085 30.208-57.02 63.769m-31.5-83.251c.75-15 30-37.125 35.25-.75m-7.261 89.272c-3-16.875-32.114-37.146-27.989-88.521m48.52 61.142C52.239 63.79 48.93 41.671 47.594 24.022m196.875 88.875c7.875-16.5 5.25-56.249 7.875-79.499m43.125-1.126c-4.875-27.376-36.375-46.125-43.125 1.125m24 85.875s28.125-37.876 19.125-87.001M95.594 121.897c-4.5-10.124-14.932-14.445-28.078-10.61-9.264 2.702-18.967 14.402-16.922 31.235m12.822 52.493c.75-10.5-12.714-44.607-12.822-52.493" fill="none" stroke="#000" stroke-width="8.504" stroke-linecap="round" stroke-linejoin="round" stroke-miterlimit="22.926"/><path d="M239.594 134.272c9-14.625 23.621-20.079 36.75-15 8.039 3.109 15.301 17.221 7.5 33.749m-19.821 41.147c3.707-9.395 17.998-36.528 19.82-41.146m-26.155-35.606s-.844 23.605-3.094 26.605m11.625-2.249s13.875-6 25.125-22.125m-22.5 29.625s18.065 7.876 33.815-2.249m-222.44-44.136s-1.227 27.32 2.898 31.82m-28.888-21.413c3 9 12.098 16.913 17.724 21.413m-28.109 4.282c4.265 4.038 18.579 3.625 26.625 5.034m176.437 6.001c3.75-10.258 28.687-22.12 21.375 9m-21.187-.188c7.074.882 12.381 1.263 21.187.188m-10.312 19.125s-3.937-10.126-10.875-19.313m5.062 30.001s5.062-7.313 5.812-10.688m-24.18 7.251s8.244-25.251 13.118-35.376m-157.875-.938c.75-17.625-22.148-21.584-20.438 2.625m8.979 39.422c0-9.562-8.98-34.547-8.979-39.422m3.359 13.932s12.767-13.933 17.079-16.558m5.25 26.626s-.221-5.51-22.329-10.068m23.586 26.063s.133-12.074-1.257-15.995" fill="none" stroke="#000" stroke-width="8.504" stroke-linecap="round" stroke-linejoin="round" stroke-miterlimit="22.926"/><path d="M136.75 388.242s7.242 18.695-10.758-31.162-70.796-114.37-75.398-138.114c-4.602-23.744-.938-36.645-.938-36.645s-49.665 42.9-41.665 79.567 5.954 52.001 24.977 81.334c19.024 29.333 85.207 58.039 103.782 45.02z" fill-rule="evenodd" clip-rule="evenodd" fill="#68569d"/><path d="M45.156 214.165s-16.282 17.651-1.29 60.783c14.993 43.132 34.88 80.239 66.326 98.391 31.445 18.151 61.334 15.648 60.667 18.528-.667 2.88 47.013-64.497 47.173-66.809.16-2.312-12.886-44.979-15.029-47.645-2.143-2.667-16.097-20.602-16.097-20.602l-25.903-15.398-6.726-58.901-12.553-24.956-26.471 10.348s-1.261 28.365-.595 30.169c.667 1.804-65.002 7.262-65.002 7.262l-4.5 8.83z" fill-rule="evenodd" clip-rule="evenodd" fill="#f8d63f"/><path d="M268.281 200.084s-7.325 40.005-12.141 51.904-3.462 5.481-22.352 41.899c-18.891 36.418-43.129 55.331-55.796 108.999-12.667 53.668-8.338 66.333-6.836 82.667 1.502 16.334 22.809 28.436 25.502 31.909 2.693 3.474 50.204-12.306 50.436-11.94.231.365 61.111-170.968 61.111-170.968s19.121-25.334 17.787-38.667c-1.334-13.333-8.668-65.845-23.334-76.922-14.666-11.077-34.377-18.881-34.377-18.881z" fill-rule="evenodd" clip-rule="evenodd" fill="#f8d63f"/><path d="M105.746 505.523c3.387-.968 2.842 12.366 30.319 11.699 27.478-.667 48.778-5.379 48.778-5.379s-6.845-57.103-6.445-59.195c.399-2.093 19.107-82.76 21.07-86.093 1.962-3.333-22.776-11.507-27.317-15.42-4.541-3.913-26.336-19.247-30.316-19.247-3.98 0-88.19-22.018-91.241-17.209-3.051 4.809 59.597 67.643 63.39 76.093 3.794 8.45 2.777 99.719 2.777 102.751-.001 3.032-11.015 12-11.015 12z" fill-rule="evenodd" clip-rule="evenodd" fill="#68569d"/><path d="M299.594 376.147c-22.5 73.5-80.149 75.826-75.375 129.376m70.632-36.711c9 36.375-65.951 65.49-70.167 21.288m32.16 6.798c19.875-28.125 113.814-76.344 62.48-183.044m-256.73 59.293c16.875 24 .013 80.434 2.625 97.125 2.611 16.691 23.138 38.361 46.5 41.626m98.345-26.344c-4.875-43.5 43.805-52.406 59.18-87.281" fill="none" stroke="#000" stroke-width="8.504" stroke-linecap="round" stroke-linejoin="round" stroke-miterlimit="22.926"/><path d="M194.658 402.887c-4.714.51-17.813 20.32-16.666 39.636 1.147 19.315 3.89 44.242 5.084 54.375 1.194 10.133 8.099 22.349 23.338 20.349s24.667-11.724 24.667-11.724" fill="none" stroke="#000" stroke-width="8.504" stroke-linecap="round" stroke-linejoin="round" stroke-miterlimit="22.926"/><path d="M111.719 468.812s-6.731 21.012 5.104 36.711c11.835 15.699 24.813 11.994 49.703 9.336 24.89-2.658 20.498-3.016 20.498-3.016m34.945-321.577s24.938-12.118 49.5 9.818m-221.813 5.25s25.687-23.062 53.812-11.062m40.501-106.875c5.25 9 8.226 59.626-3.774 90.751m-96.351-70.126c-48.375 70.5-38.33 148.598-38.33 148.598l12.31 62.934c-5.873 34.959 5.77 53.218 2.02 71.218" fill="none" stroke="#000" stroke-width="8.504" stroke-linecap="round" stroke-linejoin="round" stroke-miterlimit="22.926"/><path d="M23.5 324.867c10.876 31.5 11.719 57.656 3.844 92.156-7.875 34.499 25.166 52.963 33.375 54.374" fill="none" stroke="#000" stroke-width="8.504" stroke-linecap="round" stroke-linejoin="round" stroke-miterlimit="22.926"/></g><g><path d="M84.761 236.485c2.044-.017 11.397 3.131 36.246 9.942 24.849 6.811 32.138 10.954 36.655 4.357 4.518-6.597 5.901-14.299 5.901-14.299s1.616 21.212 18.656 18.913c17.04-2.3 61.308-21.841 76.781-17.844 15.474 3.997 35.465 13.686 32.395 41.094-3.07 27.407-15.406 45.636-32.238 58.021-16.832 12.386-81.727 26.45-136.28 11.168-54.552-15.282-65.92-24.893-78.986-52.338-13.067-27.445-11.694-58.584 40.87-59.014z" fill-rule="evenodd" clip-rule="evenodd" fill="#68569d"/><g><defs><path id="bM" d="M75.577 221.551c2.281-.021 12.722 3.994 40.46 12.682s35.875 13.972 40.918 5.558c5.043-8.415 6.587-18.239 6.587-18.239s1.804 27.058 20.826 24.124c19.021-2.934 68.437-27.86 85.709-22.761 17.273 5.098 39.589 17.458 36.161 52.418-3.428 34.961-17.197 58.212-35.986 74.011-18.789 15.799-91.23 33.74-152.127 14.246-60.895-19.494-73.586-31.754-88.171-66.762-14.585-35.007-13.053-74.728 45.623-75.277z"/></defs><clipPath id="bN"><use xlink:href="#bM" overflow="visible"/></clipPath><path clip-path="url(#bN)" fill-rule="evenodd" clip-rule="evenodd" fill="#49b37e" d="M-27.608 129.063h191.15v327.284h-191.15z"/></g></g></g></g><g id="n0602"><g><path fill-rule="evenodd" clip-rule="evenodd" fill="#81cece" d="M203.876 389.742l-.56 16.835.206 22.88 1.404 23.174 2.48 19.847 3.78 17.931 6.757 18.603 8.057 11.98-14.166 15.429-21.17 12.563-25.168 3.382-27.948-7.993-16.289-11.061-10.008-14.945 8.273-17.399 5.323-18.324 4.05-19.742 2.856-18.613 2.341-20.088 1.629-18.769 1.027-17.19 18.945 2.204 19.887 1.319 28.294-2.023z"/><path d="M203.876 389.742s-6.375 101.25 22.124 131.25m-114.749-2.625c.75 16.5 67.5 66.375 114.749 2.625m-89.25-132.75s-3.749 97.875-25.499 130.125" fill="none" stroke="#000" stroke-width="8.504" stroke-linecap="round" stroke-linejoin="round" stroke-miterlimit="22.926"/></g></g><g id="n0603"><g><path fill-rule="evenodd" clip-rule="evenodd" fill="#f8d63f" d="M148.022 341.407l-1.897-6.541 1.12-28.15 4.738-9.195 7.79-5.377 12.984-1.194 9.89 2.737 3.791 5.866-4.838 7.184-1.592 8.457-.356 27.566-11.508 7.003-6.963-6.91-6.216-2.051-6.943.605z"/><path d="M159.997 309.842s24.003 4.148 26.44-10.289m-40.013 40.173s-1.498-44.06 15.886-48.369c5.93-1.469 24.208-.807 24.128 8.195m-4.838 7.185s-2.921 31.541-1.947 36.023" fill="none" stroke="#000" stroke-width="8.504" stroke-linecap="round" stroke-linejoin="round" stroke-miterlimit="22.926"/></g></g><g id="n0604"><g><path fill-rule="evenodd" clip-rule="evenodd" fill="#fff" d="M91.364 240.126l-1.907 13.639 1.052 11.142 5.263 6.101 8.271 1.14 5.184 7.985 8.771 3.285 12.94-2.552 7.511 6.222 8.766 3.424 11.306-.893 10.292-6.316 6.805 3.689 9.292 1.947 8.946-2.932 5.144-5.703 8.877 2.66 8.748-1.686 6.067-7.508 8.488-.05 5.903-6.357 2.406-8.82.575-10.06-1.769-7.722-15.227 4.488-17.39 6.675-17.608 4.386-12.593-1.202-7.607-8.682-5.691-1.239-4.517 6.597-11.807 2.453-16.311-3.038-14.453-4.343-11.423-3.632-12.304-3.098z"/><path fill-rule="evenodd" clip-rule="evenodd" fill="#e085ad" d="M80.336 333.116l1.536-16.307 1.089-12.63 5.134-8.183 10.162-4.378 9.102 1.457 5.427 6.623.323 6.57 5.437 4.745 2.46 7.778 10.081 3.32 7.538 5.818 9.397-4.522 13.159 1.446 6.963 6.909 9.229-6.332 11.332-.127 8.42 4.314 10.678-7.346 4.679-7.857 8.293-4.86 1.18-6.286 6.234-4.796 8.346-2.322 11.055 5.768 5.103 8.222 3.668 9.98 1.693 6.531 1.102 11.017-19.751 9.161-23.508 4.794-23.27 2.696-19.367.68-24.515-1.538-25.869-4.625-21.285-6.007-21.255-9.713z"/><path d="M319.691 267.695l-5.404-18.378-8.781-16.08-12.333-13.179-14.232-8.757-15.253-4.821-17.318-2.023-15.18.663-14.754 2.27-11.408 2.667-1.434-5.411 5.242-10.279 2.34-10.896-4.104-11.343-10.443-9.819-14.275-1.158-11.671 5.665-7.712 7.881-7.099.95-11.83-9.389-12.824-.142-11.573 6.901-3.581 13.504 3.528 14.311 6.002 12.813-2.514 6.319-28.508-6.19-29.38-2.604-24.854 5.657-16.728 12.189-11.074 17.189-7.023 18.767.351 26.268 9.106 22.895 18.52 22.651L57.275 356.3l28.43 16.051 28.879 10.801 32.015 7.075 31.441 2.754 32.182-3.655 25.976-8.232 20.9-10.204 18.434-12.057 16.369-13.788 13.917-15.121 12.193-18.347 3.601-21.45-1.921-22.432zm-32.717 29.026c-3.145 9.81-8.692 51.821-79.171 57.077-70.479 5.256-70.768 1.205-145.3-30.49 0 0-31.984-31.475-22.984-65.688s62.17-17.494 66.866-13.566c4.696 3.928 35.163 16.737 45.479 8.935 10.316-7.802 9.376-16.248 14.418-11.591 5.043 4.657 11.996 18.322 25.696 14.424 13.7-3.898 47.859-21.899 79.359-13.471 31.5 8.428 18.781 44.559 15.637 54.37z" fill-rule="evenodd" clip-rule="evenodd" fill="#f8d63f"/><path d="M150.991 405.609s19.375 2.752 36.999.877M23.5 325.867c18.75 22.875 64.004 61.405 145.869 66.822 62.549 4.14 122.9-36.537 147.007-78.072m-174.375-90.751c-36.909-5.047-111.517-41.257-135.304 36.553-8.545 27.955 7.319 55.344 16.804 65.447m292.875-11.249c13.124-18.375 11.811-147.563-127.688-99.563m-27.114-39.5c9.152-12.505 26.571-19.695 38.723-11.158 9.379 6.589 18.36 22.004.694 43.824m-41.682-33.032c-4.099-4.086-14.59-14.79-31.075-8.014-7.131 2.933-26.576 20.371.373 50.379m15.362-7.656c1.342-2.367-2.852-20.017-7.801-20.321m44.551 16.196c-4.5-1.875.835-22.71 6.98-23.355m-51.531 7.16c-3.75 1.874 1.051 20.696 7.801 20.321m43.73-27.481c3.749 1.5-.23 23.729-6.98 23.355m-16.875 22.5s3.375 26.249-14.625 26.25m0 0c-34.125-2.251-55.875-23.251-91.875-13.125m106.5-13.125s.749 29.25 18.375 28.125m70.125-18c-34.125 3.75-48.375 19.125-70.125 18m108 16.875s4.125-36-37.875-34.875m-21 110.626c12.934-3.314 56.437-12.751 58.875-75.75M57.344 241.397c-39.375 16.125-10.838 63.848-.375 76.5" fill="none" stroke="#000" stroke-width="8.504" stroke-linecap="round" stroke-linejoin="round" stroke-miterlimit="22.926"/><path d="M231.344 349.023c-16.021 2.775-47.012 8.812-82.599 4.438-38.203-4.696-78.467-19.483-91.776-35.564m46.312-64.908c-1.5 4.125-.657 35.954 27.656 27.877m-42.18-37.125s-7.007 27.767 12.93 27.759m29.251 9.366s17.25 20.812 37.875 2.438m30.187-3s-8.625 17.25-30.187 3m57.932-28.782s2.63 39.656-27.745 25.781m44.324-36.562s5.25 33.325-17.75 32.016m-123.886 56.484s12.75-27.186 36.937-4.311m30 4.686s-9.187-18.749-30-4.686m58.5 1.687s-16.687-13.501-28.5 2.999m61.688.937c-2.438-16.5-28.313-14.249-33.188-3.936" fill="none" stroke="#000" stroke-width="8.504" stroke-linecap="round" stroke-linejoin="round" stroke-miterlimit="22.926"/><path d="M86.875 325.867c4.35-12.861 6.043-18.204 11.21-20.623 7.689-3.6 22.599.743 22.921 13.548" fill="none" stroke="#000" stroke-width="8.504" stroke-linecap="round" stroke-linejoin="round" stroke-miterlimit="22.926"/><path d="M113.109 306.268c2.625-18.375-21.584-18.903-28.894-5.541-2.729 4.987-1.234 10.727-3.878 32.389m127.466-10.845c.75-10.501 30.76-29.03 37.885 10.533m-25.125-26.564c4.125-5.438 31.781-22.991 38.437 24.877" fill="none" stroke="#000" stroke-width="8.504" stroke-linecap="round" stroke-linejoin="round" stroke-miterlimit="22.926"/></g></g></svg>