<svg xmlns="http://www.w3.org/2000/svg" viewBox="0 0 448.962 453.394"><g id="n0701"><g><path fill-rule="evenodd" clip-rule="evenodd" fill="#f8d63f" d="M214.964 310.311l1.665 69.866 16.5 10.875 16.5-13.5-2.637-11.928-1.661-12.935.241-42.488-13.812.926-10.491-.268-6.305-.548z"/><path fill-rule="evenodd" clip-rule="evenodd" fill="#fff" d="M217.19 366.291l-.561 13.886 16.5 10.875-17.25 12.375-25.5-16.125 5.967-8.183 8.769-8.447 12.075-4.381zm15.939 24.761s10.137 7.529 8.922 6.562c-1.215-.969 8.328 7.313 8.328 7.313l7.214-7.629 7.526-9.015 4.385-5.856-5.208-8.145-6.049-5.751-11.256-2.908 2.638 11.929-6.871 7.97-9.629 5.53z"/><path fill-rule="evenodd" clip-rule="evenodd" fill="#81cece" d="M191.548 389.624l11.165 6.42 13.166 7.383 17.25-12.375 17.25 13.875 9.563-11.25 6.529-7.143 14.551 8.908 11.15 7.842 8.082 3.893-10.971 14-15.284 12.932-19.807 10.265-22.434 4.726-21.595-3.187-18.555-9.213-14.073-12.701-10.781-15.697 10.875-9.412 13.919-9.266z"/><path d="M249.629 377.552s-5.864-55.702-4.058-67.352m-30.607.111s4.29 66.491 1.665 69.866m-26.25 7.125s11.264-23.435 26.811-21.012m33.189-.666s13.484-5.696 23.984 14.554m-62.655-2.626s17.671 13.875 21.421 13.5m18.188-14.265s-12.188 14.266-18.188 14.266m-3.992 48.486s-1.754-22.236 1.996-36.111" fill="none" stroke="#000" stroke-width="8.504" stroke-linecap="round" stroke-linejoin="round" stroke-miterlimit="22.926"/><path d="M166.754 408.302c4.559 8.853 21.987 36.957 57.817 40.591 23.439 2.378 57.041-12.354 75.684-41.716m-109.876-19.875s17.249 13.125 25.499 16.125m34.501 1.5s9.75-9.375 19.125-22.5m-76.845 6.575s-14.28 7.676-25.905 19.301m99.717-21.769c14.062 5.625 22.505 10.321 33.783 20.644m-67.125-16.126s8.25 5.25 17.25 13.875m-34.5-1.5s10.692-9.252 17.251-12.375" fill="none" stroke="#000" stroke-width="8.504" stroke-linecap="round" stroke-linejoin="round" stroke-miterlimit="22.926"/></g></g><g id="n0702"><g><path fill-rule="evenodd" clip-rule="evenodd" fill="#49b37e" d="M98.99 76.787l-12.798-9.752-15.998-11.939-20.007-11.154-19.625-6.118L13.984 43.2l-8.16 14.133-1.493 16.179 2.076 20.285 5.37 19.619 9.75 19.738 13.935 17.58 13.954 11.806 15.15 6.597 3.697-20.849 5.748-20.15 7.987-20.282 7.904-15.859 9.088-15.21z"/><path fill-rule="evenodd" clip-rule="evenodd" fill="#f8d63f" d="M84.755 65.846l15.118-16.631 26.139-20.649 29.071-15.178 27.74-8.207 29.258-2.176 28.109 4.528 23.478 9.262 16.243 9.664 13.064 15.434-33.274-10.187-23.058-1.425-26.411 1.936-28.284 6.369-24.015 9.653-21.785 13.372-21.03 19.278-15.304 22.258L87.04 134.49l-7.463 30.803-4.123 33.236-.605 34.334 2.701 32.113 5.727 30.633 8.816 29.368 4.068 10.482-20.135-1.068-19.748-8.036-14.118-9.645-3.506-24.001-2.663-26.641-1.156-23.476.228-26.414 1.84-23.559 3.319-20.838 3.524-13.514 13.79 9.192 7.105 1.26 3.291-18.983 5.504-19.579 8.562-22.301 9.705-19.089 7.287-11.98-14.235-10.941z"/><path fill-rule="evenodd" clip-rule="evenodd" fill="#68569d" d="M339.086 83.949l28.122-17.063 25.931-11.995 22.522-6.307 17.722 3.502 7.803 12.01 3.517 19.416-3.12 19.064-7.2 17.962-12.42 18.737-15.787 15.898-14.045 10.075-16.748 7.252-3.835-20.885-7.175-22.868-10.06-21.395-8.362-13.717-6.865-9.686z"/><path fill-rule="evenodd" clip-rule="evenodd" fill="#e085ad" d="M307.661 66.959h7.5l13.336 3.344 9.426 6.875 3.316 5.465-2.006 1.502 10.898 16.349 10.649 20.612 8.202 22.33 5.315 23.153 2.797 25.761.074 27.198-1.74 28.508-2.633 28.54-2.601 26.964-2.533 31.899-9.205 10.811-7.67 2.69-3.75-3 1.463-10.481 2.266-17.089 1.874-15.312 1.686-15.277 2.149-23.679 1.414-23.617.443-24.719-.979-25.065-3.294-27.783-6.437-28.176-7.296-20.202-14.09-23.725-9.938-10.96-11.255-9.065 2.619-3.851z"/><path fill-rule="evenodd" clip-rule="evenodd" fill="#49b37e" d="M301.004 322.802l15.034-1.207 15.549 1.839 17.753 5.846 2.014-15.563 2.267-19.305 2.151-21.736 1.624-23.954.774-16.539.112-13.673-6.41.125-5.526 13.241-8.029 12.802-13.416 13.516 2.917 13.047-1.116 13.4-5.577 13.998-8.667 12.439-11.454 11.724z"/><path fill-rule="evenodd" clip-rule="evenodd" fill="#fff" d="M287.786 40.709l5.189 1.184 6.809 8.148 5.945 11.117 1.932 5.801-.983 4.992 11.864 10.399 11.355 13.492 10.811 19.581 6.913 19.339 5.546 24.267 3.681 25.582.993 18.643.295 15.259-6.264.122-5.526 13.241-8.714 13.688-12.731 12.63 3.04 16.004-2.774 15.589-9.573 16.79-13.802 15.419-18.063 11.101-23.703 8.475-24.964 3.469-23.075-1.097-23.289-5.313-20.908-8.113-20.988-11.883-18.407-19.154-10.091-20.736-.311-18.111 2.261-7.956-10.662-13.15-12.267-12.478-9.273-10.795-6.048-9.327-6.695-.119 1.386-21.833 3.217-21.502 5.629-22.796 6.702-20.995 11.386-23.26 15.796-20.171 20.053-17.042 21.651-12.525 24.972-9.341 25.152-5.272 25.39-1.791 23.058 1.425 15.24 3.026 12.845 5.977z"/><path fill-rule="evenodd" clip-rule="evenodd" fill="#f8d63f" d="M211.739 250.965l6.117 5.215 7.539 1.65 7.359-1.028 2.827-5.655 6.084 1.24 3.677-5.854-1.845-9.227-3.991-5.983-6.213-2.431-7.988 4.405-6.08-3.844-8.694 4.477-5.391 7.854.987 8.488 5.612.693z"/><path fill-rule="evenodd" clip-rule="evenodd" d="M277.469 214.963l15.447-5.746 14.323-.529 13.791 3.658 1.349-17.043-12.968-7.284-17.782-9.966 6.318-12.329 10.981-11.997 8.576-7.549-2.927-6.759-13.409-5.647-13.917.871-11.289 7.319-5.315 11.989-.616 13.76 1.143 14.77 2.647 16.329 3.648 16.153zm-111.243-6.305l-11.335-1.725-13.097 1.735-10.516 4.202-7.475-12.592-5.262-16.573-2.429-21.071 2.501-17.148 7.757-12.152 13.525-5.527 14.357 2.924 8.932 7.248 1.695 5.199-12.105 8.89-10.823 10.511-6.322 7.599 10.047 7.32 11.703 5.804 13.125 5.626-2.005 9.912-2.273 9.818z"/><path fill-rule="evenodd" clip-rule="evenodd" fill="#e085ad" d="M88.619 313.404l12.538-1.289 15.016-.468 13.086.261 8.995.394-7.378-9.28-7.55-11.939-.95-12.193v-13.525l-1.515-11.216-9.371-12.68-11.001-11.118-10.846-12.245-7.639-11.178-7.016-.318-.335 14.71.618 16.558 1.464 17.409 2.621 19.348 3.069 16.417 2.699 10.711 3.495 11.641z"/><path fill-rule="evenodd" clip-rule="evenodd" fill="#81cece" d="M176.129 259.114l7.5 5.657 8.805 5.86 9.369 4.563 9.684.599 10.767-6.991 8.897 4.572 9.81-1.032 9.604-5.954 8.854-5.677 11.374-5.381 7.813-2.308 1.9 7.757-1.4 9.442-6.039 4.899-5.157 1.464-5.833 6.308-8.719 1.56-4.198-.931-8.443 6.08-8.175.02-4.57-2.161-7.692 4.931-10.171-1.671-6.137-3.636-7.522 1.876-7.862-3.392-4.491-4.484-7.541-1.105-4.723-7.512 4.296-13.353z"/><path fill-rule="evenodd" clip-rule="evenodd" fill="#f8d63f" d="M213.17 305.43l4.089-4.5 3.021-8.539-10.171-1.671-6.137-3.636-7.522 1.876-6.914 3.872 5.223 8.622 6.011 1.866 12.4 2.11z"/><path fill-rule="evenodd" clip-rule="evenodd" fill="#49b37e" d="M226.754 310.802l7.62-4.043 7.721-.595.755-4.839-5.987-4.704-7.546-1.605-8.938 3.42-5.165 4.744 6.403 4.05 5.137 3.572z"/><path fill-rule="evenodd" clip-rule="evenodd" fill="#fff" d="M162.629 311.177l5.444-6.85 5.604-7.791 5.559-5.145 7.435-.489 5.476 6.241 4.054 4.758 7.334 3.731 7.755-.053 8.862 1.027 6.602 4.196 8.715-4.344 8.017-.005 4.643 2.099 7.315-6.297 7.226-1.082 7.021-5.698 7.921-1.2 6.742 3.497 4.368 3.298 6.923 5.493-7.41 5.542-10.125 5.633-15.211 5.689-14.813 3.315-13.476 1.531-17.688-.001-17.402-2.527-14.557-4.107-12.297-5.008-10.037-5.453z"/><path fill-rule="evenodd" clip-rule="evenodd" fill="#e085ad" d="M237.545 290.214l-.682 6.407 10.274 10.323 6.819-3.939 8.714-1.832 5.586-4.851 8.267-2.248 7.831 3.698 5.962 4.405 5.329 4.386 8.688-9.682 5.798-11.5 1.489-10.644-3.534-11.268-9.722-8.812-10.906-2.518-10.194 1.188 3.578 10.73-1.736 6.164-6.039 4.899-5.877 2.816-7.199 5.887-7.687.478-7.366 2.26-7.393 3.653z"/><path fill-rule="evenodd" clip-rule="evenodd" fill="#f8d63f" d="M162.629 311.177l5.444-6.85 5.604-7.791 5.559-5.145 6.287-.925 3.065-4.898-4.491-4.484-6.325-.927-4.828-5.925-1.034-8.522 4.03-6.71-11.944-4.869-13.93 1.4-7.295 8.832-2.226 12.092 2.828 11.726 5.231 9.392 6.685 7.733 7.34 5.871z"/><path d="M95.8 74.335c-3.65-3.239-30.765-27.626-61.514-36.251m-30 33s-2.25-36.75 30-33m26.357 132.094S5.036 142.71 4.286 71.085m59.25 115.124s-2.625-65.625 51.75-131.625m-27.751 8.25c26.251-34.125 111.233-91.263 194.108-34.638M35.036 52.709s39.049 27.718 33.049 48.344c-6 20.625-27.05 17.656-12.05 43.906" fill="none" stroke="#000" stroke-width="8.504" stroke-linecap="round" stroke-linejoin="round" stroke-miterlimit="22.926"/><path d="M288.976 45.53c-12.375-12.75-118.005-31.528-176.543 38.476-37.413 44.74-54.369 159.375-16.272 251.453M42.16 316.71s26.625 23.249 54 18.749M43.746 158.267s-19.211 52.692-1.585 158.442M281.643 28.196s19.268 14.013 26.018 38.763m0-2.763s25.315-3.667 35.25 18.138" fill="none" stroke="#000" stroke-width="8.504" stroke-linecap="round" stroke-linejoin="round" stroke-miterlimit="22.926"/><path d="M269.786 57.209s53.681 3.046 75.942 71.44c18.71 57.482 13.533 130.45.415 222.884m21.518-16.074c6.629-103.212 29.25-176.625-30.375-253.875m10.107 269.949s13.518-2.574 20.268-16.074m-24.75-253.125s35.25-27 72.75-33.75m28.5 42.375c2.25-10.5-1.5-49.125-28.5-42.375M375.383 172.5c13.125-1.874 60.715-30.166 68.777-81.541m-59.017 54.076c3.188-5.251 6.977-21.22-7.975-31.595-17.972-12.47 10.975-47.981 42.898-43.763M88.209 313.465c18.804-2.774 38.721-1.685 50.045-1.162m162.75 10.499s22.046-5.419 48.336 6.478m-48.336-6.478s22.046-5.419 48.336 6.478m-61.461-92.727c17.625-10.5 72.578 33.037 13.125 86.25m23.897-64.609s26.778-18.618 32.445-49.673m-279.203-6.656c21.486 38 29.408 35.623 45.552 52.266m41.559-17.203c-15-11.062-69.454 15.212-27 75.375" fill="none" stroke="#000" stroke-width="8.504" stroke-linecap="round" stroke-linejoin="round" stroke-miterlimit="22.926"/><path d="M301.004 322.802c-11.312 8.274-41.238 26.413-86.04 21.509-22.034-2.412-52.975-12.846-76.71-32.009m-38.625-193.5c10.125-6.75 47.591-20.349 80.048 2.728 26.304 18.701 33.953 68.898 32.077 111.273m22.5-3.75c-.661-27.6-7.882-63.752 15.611-91.784 20.156-24.049 58.92-41.06 92.625-17.585M118.379 221.928s33.75-33.75 70.124 0m77.251 1.875s28.875-31.5 67.875-4.5m-168.75-76.125c.375-13.5-40.058-30.197-48 8.624m14.399 61.068c-9.375-10.5-17.791-38.56-14.4-61.068m53.626 37.126s-2.546 15.315-5.21 19.471m-29.665-38.221s11.625-16.125 29.25-27m5.625 45.75s-30.375-12-34.875-18.75m181.875-24c2.25-13.5-43.561-24.095-47.25 10.5" fill="none" stroke="#000" stroke-width="8.504" stroke-linecap="round" stroke-linejoin="round" stroke-miterlimit="22.926"/><path d="M277.469 214.963c-2.279-9.409-8.893-35.432-7.215-58.285m52.125 38.625s1.051 10.086-1.35 17.043m-29.4-34.293s18.75 10.499 30.75 17.25m-4.875-49.125s-23.626 18.75-25.875 31.875m35.625-58.876s-5.527 13.929-15.154 18.387m-12.408-29.1s-.358 21.729-6.273 25.034m-19.178-13.102s7.057 12.038 7.16 16.848m-19.397-5.316c2.243 3.988 7.527 10.415 11.982 12.84m-173.233-14.341s4.219 10.243 17.86 15.059m-7.734-23.309s6.187 11.29 12.281 14.645m6.469-22.145s1.913 10.925 8.269 13.337m11.606-11.087s-1.332 6.326 2.709 12.913m62.541 124.338s6 6 18.001 2.625m-7.126-22.875s1.501-6.375 8.626-4.875m-22.501 3.75s9.375-8.25 13.875 1.125m8.625-4.875c11.906 2.25 16.781 29.155 0 21.375m-19.125-3.375c-6 11.625-18.749-.75-3.375-14.25m-47.849 74.141c4.261-4.477 14.071-24.29 31.724-5.892m27.756-43.348s-.227 8.391.898 12.141m23.096-1.043s-13.125 10.875-25.125 0m-23.625 5.25s14.626 7.124 23.626-5.25m25.124 0s36.9-30.496 58.125-9m-4.5 41.625c5.064-6.491 18.441-24.568 4.5-41.625m-121.861 47.142s12.735-11.517 21.361.483m21.75 3.375s-8.626-9.375-21.751-3.375m43.126 1.125s-9-7.125-21.375 2.25m45-6.375s-13.875-9.75-23.625 4.125m44.846-3.122c-3.999-10.413-17.262-18.199-30.305-4.257m-100.041 10.004s25.381 17.016 61.495 17.391c22.616.234 56.568-5.307 76.881-27.141m-160.126-21.75c-1.52-6.676 1.124-33.75 27.749-24.187m-5.999 55.687c-8.545-5.55-19.184-16.922-21.749-31.5m57.749-5.625c-17.812-9.188-16.781-13.407-30-18.562m3.204 4.518s-6.54 19.534 12.264 21.076m19.875 6s-9.188 7.125-19.875-6m43.875 6.376s-7.125 11.812-24-.376m45.188-3.563s-8.625 12.001-21.188 3.938m39.938-10.875s-4.688 11.438-18.75 6.938m31.346-27.657s7.088 23.025-12.597 20.719M213.17 305.43s17.991-25.472 34.959 3.123" fill="none" stroke="#000" stroke-width="8.504" stroke-linecap="round" stroke-linejoin="round" stroke-miterlimit="22.926"/></g></g><g id="n0703"><g fill="none" stroke="#000" stroke-width="8.504" stroke-linecap="round" stroke-linejoin="round" stroke-miterlimit="22.926"><path d="M131.081 80.734s36.44-15.585 59.488 10.317m62.825 6.86s20.785-23.991 52.32-9.918"/></g></g></svg>