<svg xmlns="http://www.w3.org/2000/svg" xmlns:xlink="http://www.w3.org/1999/xlink" viewBox="0 0 391.004 525.75"><g id="n0801"><g><path fill-rule="evenodd" clip-rule="evenodd" fill="#49b37e" d="M53.002 382.735l6.375-.75 9.576 11.039 14.796 14.029 16.666 12.221 19.332 10.406 20.325 7.58 20.447 5.543 12.221 5.78-16.691 6.839-14.346 13.37-10.328 11.851-8.416 5.658-12.807-14.277-16.563-13.443-16.898-16.676-15.53-15.584-12.757-15.377-9.277-14.334 9.124-7.342 4.751-6.533z"/><path d="M40.325 398.713l-8.82 5.918-10.982 5.088-7.646 2.641 3.151 11.988 8.482 14.707 12.446 14.859 16.736 15.451 17.969 13.381 20.648 12.496 22.223 10.611 25.042 8.725 22.979 4.992 23.096 1.918 10.236-.207-1.831-16.58 1.161-13.684-2.688-10.674-2.273-8.359-6.999-3.852-7.192-9.613s-3.328-8.807-3.965-9.674c-.636-.869-12.115 4.068-12.115 4.068l-10.895 8.312-10.461 11.096-9.097 10.408-5.651 5.004-13.725-15.711-17.102-15.371-15.128-13.531-16.763-16.799-11.36-13.512-9.476-14.096z" fill-rule="evenodd" clip-rule="evenodd" fill="#49b37e"/><path fill-rule="evenodd" clip-rule="evenodd" fill="#68569d" d="M338.371 395.088l6.692 6.823 9.361 4.31 3.219 3.475-8.331 11.553-14.478 11.781-17.196 11.426-15.765 9.492-19.568 11.305-17.823 10.402-14.926 9.32-8.304 5.76-7.272-9.203-4.488-14.811-5.709-10.664-9.236-7.916 8.33-6.156 14.289-2.93 18.563-4.648 20.08-6.11 18.31-6.804 18.061-8.371 13.783-8.174 12.408-9.86z"/><path fill-rule="evenodd" clip-rule="evenodd" fill="#81cece" d="M214.547 448.141l9.236 7.916 5.819 13.432 4.378 12.043 7.272 9.203 13.32-8.998 14.221-8.641 15.043-8.728 18.037-10.42 18.778-11.494 20.521-14.194 12.995-12.095 3.71-4.93 12.049 3.437 9.326 2.188-8.703 16.793-15.492 18.654-20.978 18.305-21.278 14.383-26.078 13.73-26.979 10.565-27.922 7.451-23.455 3.611-12.482.93-1.831-16.58-.215-15.553-2.449-12.984-1.137-4.18 8.935-9.438 8.05-7.89 7.309-6.516z"/><path fill-rule="evenodd" clip-rule="evenodd" fill="#fff" d="M41.82 258.354l13.297 8.684 9.153 15.59 13.404 14.919 16.281 13.002 18.785 11.161 17.762 7.57 23.852 8.367 25.961 5.527 24.251 2.543 22.747.104 24.732-2.598 24.527-5.871 24.547-10.228 24.819-17.301 16.335-18.684 2.168 19.158-.062 56.153-1.902 19.846-4.106 8.792-15.973 11.975-22.095 11.565-21.754 8.65-25.661 7.84-30.011 6.867-15.639 12.672-16.985 17.328-10.595-8.658-6.28-12.342-6.749-5.291-16.333-5.662-23.067-7.561-23.203-10.974-20.277-14.444-14.796-14.029-9.576-11.039-6.375.75-6.132-12.664-5.147-14.994.347-58.217-.007-20.33-.243-18.176z"/><path d="M343.57 289.202s3.807 93.533-3.693 104.408m-327 18.75c2.756 38.201 91.755 111.182 178.121 109.096 91.787-2.219 173.406-62.043 188.254-104.596m-156.375 25.125s83.25-14.25 117-48.375m-98.625 97.125c32.625-24 99.75-53.25 116.625-79.5m-137.276 42.096c11.25 10.125 10.901 35.904 20.651 37.404m-50.999-18.75s20.249-22.5 32.624-30m-26.992 79.297c-4.125-13.875.742-26.422-4.132-44.047m-18.375-26.25c.375-14.25-60.375-2.25-114.001-69m-20.25 14.625c23.045 41.438 72 70.125 84.75 91.125m41.626-37.125c-16.876 4.5-36.001 35.25-41.626 37.125m-111-75.375s23.281-6.855 26.642-15.053m13.483-14.572c-.75 8.25-12.75 7.5-13.875 13.875m135.751 60s4.125 7.125 10.5 13.875" fill="none" stroke="#000" stroke-width="8.504" stroke-linecap="round" stroke-linejoin="round" stroke-miterlimit="22.926"/><path d="M183.503 479.358a4.25 4.25 0 0 1 4.251 4.252 4.25 4.25 0 0 1-4.251 4.252 4.252 4.252 0 1 1 0-8.504z" fill-rule="evenodd" clip-rule="evenodd"/><path d="M40.627 266.485c6.375 45.75-8.25 84 11.625 112.125m287.625 15c4.875 15.375 17.506 8.59 18 17.625m21.375 5.625s-12.375-2.625-21.375-5.625" fill="none" stroke="#000" stroke-width="8.504" stroke-linecap="round" stroke-linejoin="round" stroke-miterlimit="22.926"/></g></g><g id="n0802"><g><path d="M94.315 313.767s-17.494-30.727 3.278-51.358c20.771-20.631 32.106-7.203 45.058-2.299 12.951 4.904 46.417 14.47 52.852 8.81 6.435-5.66 8.083-13.591 8.083-13.591s3.254 17.119 33.635 10.402c30.381-6.717 57.048-33.693 78.048-12.372s12.882 53.508 2.107 71.082c-10.774 17.573-48.265 50.42-115.686 40.33-67.422-10.09-87.995-29.918-107.375-51.004z" fill-rule="evenodd" clip-rule="evenodd" fill="#49b37e"/><g><defs><path id="bU" d="M53.002 164.398h150.583v234.314H53.002z"/></defs><clipPath id="bV"><use xlink:href="#bU" overflow="visible"/></clipPath><path d="M94.315 313.767s-17.494-30.727 3.278-51.358c20.771-20.631 32.106-7.203 45.058-2.299 12.951 4.904 46.417 14.47 52.852 8.81 6.435-5.66 8.083-13.591 8.083-13.591s3.254 17.119 33.635 10.402c30.381-6.717 57.048-33.693 78.048-12.372s12.882 53.508 2.107 71.082c-10.774 17.573-48.265 50.42-115.686 40.33-67.422-10.09-87.995-29.918-107.375-51.004z" clip-path="url(#bV)" fill-rule="evenodd" clip-rule="evenodd" fill="#e085ad"/></g></g></g><g id="n0803"><g><path fill-rule="evenodd" clip-rule="evenodd" fill="#f8d63f" d="M184.352 321.014l3.871-11.586 7.759-9.859 8.14-4.748 14.621-5.83 12.63 4.937-2.018 10.25-4.128 7.631-4.264 3.576 2.121 10.02 3.268 24.109-9.25 5.75-9.425 2h-10.575l-12.75-1.75v-34.5z"/><path d="M221.852 317.014s4.576 26.635 3.076 33.385m-23.521-30.756s35.001 1.857 28.874-21.375c-1.93-8.254-18.531-5.496-25.855-3.625-7.324 1.871-19.074 9.371-20.074 26.371v34.5" fill="none" stroke="#000" stroke-width="8.504" stroke-linecap="round" stroke-linejoin="round" stroke-miterlimit="22.926"/></g></g><g id="n0804"><g><path fill-rule="evenodd" clip-rule="evenodd" fill="#68569d" d="M69.127 82.734l-17.79-15.93-4.579-23.317 11.074-18.996 26.474-9.472 21.468 9.857 7.228 21.858 7.875 1.875.002 7.829L92.287 68.17l-23.16 14.564z"/><path d="M356.377 253.359l-9.709-16.344s-20.925-13.384-20.531-14.411c.396-1.027-19.834-5.958-19.834-5.958l-20.289-.734-18.764 5.151-16.486 7.259-13.773 4.845-4.172-5.128-10.874 2.295-11.411-.145-3.5 6.202-6.375 2.062-10.768-8.331-6.095 3.846-9.663-1.499-9.08-5.731-5.552 3.933-17.158-7.805-22.026-4.684-27.249 3.954-21.858 14.376-12.916 18.373-6.188 22.661 3.012 26.492 12.515 19.879 24.095 22.074 26.269 15.314 25.012 9.949 27.584 7.197 26.152 3.715 27.789.764 25.648-2.404 26.391-6.174 24.547-10.229 20.478-13.555 16.136-16.305 12.049-19.051 6.582-18.4 2.849-22.076-2.837-21.377zm-39.001 71.082c-10.774 17.573-48.265 50.42-115.686 40.33-67.421-10.09-87.995-29.918-107.375-51.004 0 0-17.494-30.727 3.278-51.358 20.771-20.631 32.106-7.203 45.058-2.299 12.951 4.904 46.417 14.47 52.852 8.81 6.435-5.66 8.083-13.591 8.083-13.591s3.254 17.119 33.635 10.402c30.381-6.717 57.048-33.693 78.048-12.372s12.881 53.509 2.107 71.082z" fill-rule="evenodd" clip-rule="evenodd" fill="#49b37e"/><path fill-rule="evenodd" clip-rule="evenodd" fill="#f8d63f" d="M225.381 26.862l-4.385 12.941-10.268 13.278-17.861 6.897-23.164-5.328-8.953-4.844-16.945 1.65-22.926 4.982-.002-7.829 16.012-10.993 21.173-10.782 25.251-7.264 24.112.331 17.956 6.961z"/><path fill-rule="evenodd" clip-rule="evenodd" fill="#49b37e" d="M295.199 72.455l-1.583-18.335 10.322-16.407 21.118-6.792 21.258 6.36 12.188 20.074.682 20.318-12.182 14.707-17.086 6.666-15.908-13.589-18.809-13.002z"/><path fill-rule="evenodd" clip-rule="evenodd" fill="#e085ad" d="M176.048 194.672l-1.392-5.135 6.939-24.053 6.12-28.968 3.199-30.275-1.284-25.075-4.246-21.564 20.352-3.171 11.557-10.414 8.088-19.155 11.973 9.517 6.632 11.572 18.778 7.526L285.772 66.9l25.598 16.733 25.696 22.556 26.821 36.456 12.801 29.13 6.195 23.485 3.137 22.763.732 15.086-7.412.755 6.014 18.837-.867 14.628-13.133 19.691-16.426 14.914 4.148-22.781-1.314-20.369-7.041-16.868-16.829-15.154-26.451-10.161-30.509 1.234-23.147 9.151-19.736 6.88-1.324-6.268 7.834-8.848-.674-10.07-7.211-11.522-15.967-6.722-19.623-.987-21.036 5.223z"/><path fill-rule="evenodd" clip-rule="evenodd" fill="#fff" d="M159.612 49.1l11.511 5.876 14.261 4.626 2.994 15.204 1.894 18.897.332 18.606-2.417 19.74-3.559 20.544-4.857 19.213-6.036 24.105-8.555 10.183-2.651 12.59 1.975 7.213-5.003 4.775-12.743-6.13-16.566-5.039-17.004-1.428-17.422 3.098-17.336 9.051-12.403 12.19-8.761 14.702-5.094 17.582-.361 15.568.813 12.668-21.607-15.16-16.52-13.375-6.12-8.664L13 252.138l3.459-12.637-3.061-4.577-8.028.238 1.542-12.506 3.46-14.834 1.38-5.088-7.464 2.276 3.832-20.897 5.615-18.383 7.039-17.441 8.251-16.224 10.856-17.019 13.77-16.858L72.8 80.768l18.263-11.932 22.641-9.454 23.037-6.391 22.871-3.891z"/><path fill-rule="evenodd" clip-rule="evenodd" fill="#404041" d="M86.696 201.231l-9.3-7.523-8.572-12.396-3.389-14.597 4.374-13.117 12.735-12.64 15.729-13.29 14.758-15.741 8.953-13.91 8.3-14.132 11.765-7.378 12.196 3.041 5.211 13.511.42 15.484-2.593 17.745-3.939 17.295-5.493 17.776-6.873 16.183-7.992 12.512-7.984 6.68-2.42 7.093-14.727-3.581-11.734-.488-9.425 1.473zm181.646 2.833l-9.131-11.617-11.422-20.196-7.629-21.696-3.486-24.884 2.387-21.273 8.718-13.64 14.604-6.677 11.868 8.591 9.302 15.977 9.51 15.851 14.265 15.694 16.09 13.532 10.863 14.279 3.357 16.527-5.724 20.431-19.543-6.171-22.336-.066-21.693 5.338z"/><path fill-rule="evenodd" clip-rule="evenodd" fill="#68569d" d="M184.908 234.141l2.98-5.199 12.77 9.512 6.375-2.062 4.332-7.676 8.697 2.198 13.374-4.12 7.123-8.044-.674-10.07-5.963-10.431-12.749-6.73-17.239-2.323-16.552 1.682-17.152 7.508-6.706 12.675.544 14.044 8.422 7.109 12.418 1.927z"/><path fill-rule="evenodd" clip-rule="evenodd" d="M121.574 177.971l7.458-17.705-6.72-8.131-4.717-9.494 9.121-6.573 8.504-3.177 2.076-9.348-1.31-7.852-10.111.292-6.456 5.874-4.551 12.816-4.804 17.738-3.061 12.497-2.488 10.742 9.126.251 7.933 2.07zm145.492 3.927l8.733-2.566 8.301-1.595.08-10.251-2.046-7.515-7.145-5.901-12.847-7.905 9.782-7.365 7.108-4.971-.975-10.725-3.09-8.169-8.242-2.151-6.068 6.045-.062 10.071.703 9.185 1.97 17.366 1.472 10.902 2.326 15.545z"/><path fill-rule="evenodd" clip-rule="evenodd" fill="#81cece" d="M112.701 253.131l17.038.031 18.68 7.081 19.967 6.674 20.929 2.849 8.993-2.633 7.721-10.279 7.408 9.045 9.997 2.1 14.927-1.69 17.59-4.836 17.09-6.69 15.071-6.325 2.101-.516 1.568 7.951 1.861 11.344-2.027 8.144-9.129 3.418-5.886 11.877-8.764 8.702-9.248.845-6.595-7.693-2.211-5.887-7.802 6.754-10.607.531-9.189-3.16-4.277-2.25-6.935 4.861-11.193 1.049-10.268-2.67-8.354-3.99-4.466 6.408-9.699 4.916-10.866-1.757-6.752-9.098-1.379-5.051-7.713.832-6.058-3.853-2.97-4.963-1.328-4.391-6.519 1.957-7.744-5.428-2.653-6.254-.309-7.955z"/><path fill-rule="evenodd" clip-rule="evenodd" fill="#fff" d="M106.103 327.024l5.553-9.615 8.059-9.686 9.02-4.138 6.26 3.828 3.436 7.117 6.128 2 5.488 7.779 11.172 3.289 7.86-7.558 9.75-2.075 9.72 7.852 5.892 11.631 2.091 5.07 10.765-5.664 11.685 2.852 5.674 3.937 8.242-6.635 9.275-1.09 4.233 1.35 2.864-10.109 4.431-9.241 5.779-4.119 9.271 5.938 3.633 3.543 7.533-4.494 5.579-2.237 4.322-7.263 4.143-2.262 2.975-9.154 6.763-3.53 9.121 4.85 10.12 7.404-5.4 12.485-8.927 13.109-11.285 11.014-14.219 8.699-17.847 7.014-17.723 3.99-20.932 1.867-24.753-.992-24.907-4.082-23.414-6.668-19.22-7.893-15.211-8.422-12.999-9.691z"/><path d="M295.252 71.109c-11.809-37.854 31.27-46.413 47.686-36.303 18.578 11.441 30.148 53.17-10.936 64.428m-16.875-53.25s-16.125 15.374-2.25 34.875M113.002 46.734C111.235 8.087 72.993 9.046 55.245 26.85c-12.39 12.428-15.562 39.797 13.882 55.884m19.5-51.75s18.375 13.5 5.25 34.125m27-16.5s78.751-64.5 123.375-4.124m-96.75 1.499c22.126-7.126 44.251 3.75 55.501-2.251m33.749 1.501c17.355 7.163 147.75 44.625 150 187.874M222.502 36.234s-15.412 47.439-69.581 8.344M4.252 206.109c0-14.25 24.811-149.491 156.498-156.303m13.378 141.303s28.316-81.502 11.625-124.876M11.752 202.734s-6.749 23.625-6.375 32.625m3 30.376c.942-10.161 19.501-36-3-30.375m51 71.625c-7.125-10.5-40.125-24-48-41.25m33.75-5.625c1.528-17.242 24-88.5 98.25-48.375m-26.249 167.25c16.499 15 86.25 63 170.249 13.5m-228-85.5c43.5 84.75 238.125 112.5 292.125 10.875m7.875-64.501s10.125 28.5-7.875 64.5m28.125-99.75c4.125 44.25 29.276 33.818-23.424 88.911m-99.576-96.411s68.25-39.749 107.25 21.751m-96.375-49.501s25.125-10.501 45.375-3.375m-222.749.75s21.374-10.876 39.749.375m33-85.875c3.188 16.5-12 90.75-34.875 102m.375-105.75c4.875-10.875 26.813-28.687 34.5 3.75m-90.068 58.864c13.312-17.25 40.287-27.645 55.568-62.613M82.908 197.578c-5.25-.75-26.543-25.091-13.1-43.98m89.693 77.074C83.188 188.297 35.565 262.36 56.377 306.985" fill="none" stroke="#000" stroke-width="8.504" stroke-linecap="round" stroke-linejoin="round" stroke-miterlimit="22.926"/><path d="M232.252 234.234c19.951-3.85 29.457-13.585 50.598-17.789 29.247-5.817 66.554 12.278 73.527 36.914m-150.718-14.905s4.935-1.69 16.186-21.188m-40.688 3.998s16.397 19.5 21.282 18.033m-36.281-35.531c6.938-17.25 60.188-21 71.062-1.312m-52.312 31.687s-33.188 2.063-18.75-30.375m53.904 27.148s32.721 1.165 17.158-28.46" fill="none" stroke="#000" stroke-width="8.504" stroke-linecap="round" stroke-linejoin="round" stroke-miterlimit="22.926"/><path d="M248.002 243.671a4.25 4.25 0 0 1 4.251 4.252 4.251 4.251 0 1 1-4.251-4.252zm6.562-9.563a4.252 4.252 0 1 1-.001 8.503 4.252 4.252 0 0 1 .001-8.503zm25.874-3.375a4.252 4.252 0 1 1 0 8.504 4.252 4.252 0 0 1 0-8.504zm-138.562-.187a4.251 4.251 0 0 1 4.252 4.252c0 2.349-1.903 4.252-4.252 4.252s-4.252-1.903-4.252-4.252a4.251 4.251 0 0 1 4.252-4.252zm-20.063 4.5a4.251 4.251 0 0 1 4.252 4.252 4.251 4.251 0 0 1-4.252 4.252 4.251 4.251 0 1 1 0-8.504z" fill-rule="evenodd" clip-rule="evenodd"/><path d="M191.938 269.672c11.438-1.312 12.069-9.916 11.507-22.479m10.994 19.292c-4.34-2.447-9.377-6.188-11.439-22.312m-66.749 10.874s-35.812-15-48.562 24.188m126.75-12.75c6.562 3.375 30 2.25 66.562-15.375m-144.75 3.937c8.456 3.611 34.125 15.94 55.688 14.625m-77.438 63.938c42.375 30.188 134.219 48.162 185.063 7.875m-18.562-90.375c45.499-21.233 65.47 48.863 18.562 90.375m-211.876-62.25c-1.601 5.557-7.125 30.562 26.812 54.375m122.626-220.313c-.495-12.574 20.626-44.625 37.125-20.625m43.125 56.25c-28.501-23.625-26.243-28.983-43.125-56.25m57.663 112.291c5.25-9.75 14.711-35.416-14.538-56.041m-49.034 55.142c-19.907-22.218-34.591-57.017-31.216-90.767m-116.906 7.219c1.5-3.938 15.375-10.125 17.25-2.25m-2.25 14.625s2.625-7.125 2.25-14.625m-32.955 57.384s10.83-48.571 15.705-55.133m-2.625 22.124s5.062 12.938 11.437 17.625m-7.458 17.705s5.208-10.205 7.458-17.705m-11.437-17.625s7.312-7.5 17.625-9.75m125.437-14.062c.749-8.812 14.812-7.5 16.875-.188m-10.466 63.257s-8.097-50.319-6.409-63.069m18.375 15s-.376-6.188-1.5-15.188m-13.687 27.938c-1.634.188 11.161-10.919 15.188-12.75m3.749 26.812c-5.812-6.188-15.862-11.641-18.938-14.062m20.256 31.158s.932-13.534-1.317-17.096M181.157 287.768s20.25 15.166 36.75.75m31.875-1.875s-7.125 16.125-31.875 1.875m62.531-22.033c5.352 16.568-18.282 53.242-30.656 20.158m45.797-33.481s4.237 27.171-13.093 25.637m-101.329 8.969c-7.777 11.654-40.78 24.711-32.846-24.16m-3.959 20.41s-18.633 2.748-15.427-21.609m-2.86 11.674s-16.664-1.318-11.564-20.951m38.156 88.636s24.375-54.75 43.875.75m28.124 1.125s-15.75-14.625-28.124-1.125m49.874-5.25s-11.625-6.375-21.75 6.375m-88.405-7.969s4.46-19.654 24.121-6.967m-10.325-4.398s-12.423-24.865-31.747 4.398m20.131-14.177s-11.079-24.01-32.328 3.721m171.803 19.017s-19.125-52.875-31.5 0m50.25-15.375s-14.756-9.521-25.002 2.176m11.973-5.819s8.53-22.232 23.904-4.982m10.501-10.125s-21.893-19.99-24.071 3.881" fill="none" stroke="#000" stroke-width="8.504" stroke-linecap="round" stroke-linejoin="round" stroke-miterlimit="22.926"/></g></g><g id="n0805"><g fill="none" stroke="#000" stroke-width="8.504" stroke-linecap="round" stroke-linejoin="round" stroke-miterlimit="22.926"><path d="M153.502 5.109s-6.374-4.875-30.75 8.625m109.875-5.25s24 4.5 36.375 14.625"/></g></g></svg>