<svg xmlns="http://www.w3.org/2000/svg" viewBox="0 0 315.77 529.708"><g id="n0901"><g><path fill-rule="evenodd" clip-rule="evenodd" fill="#e085ad" d="M68.418 119.377l-4.125-7.125-4.264-13.456-2.256-17.62 1.336-15.838 4.25-13.321 5.575-10.589 3.261-.29 3.348 2.301 1.613 5.58 4.811 8.04-6.237 4.943 2.637 6.199 1.529 6.992.879 7.557.37 6.696.085 7.854-.185 7.157-.318 5.552-4.977 4.604-7.332 4.764z"/><path fill-rule="evenodd" clip-rule="evenodd" fill="#fff" d="M99.504 103.744l-2.024-7.43.34-7.612-1.3-8.258-3.452-8.214-4.853-7.198-6.248-7.973-5.6 6.442 2 4.7 1.529 6.992 1.077 10.43.232 9.241-.111 7.698-.375 9.315 7.801-3.74 10.984-4.393z"/><path fill-rule="evenodd" clip-rule="evenodd" fill="#49b87d" d="M144.717 80.638l-11.522.162-16.211 2.833-10.008 2.924-9.156 2.145-.34 7.612 2.577 7.232 9.033-2.949 10.068-2.652 10.108-1.883 12.675-.353 3.75-6.775 3.049-2.424-4.023-5.872z"/><path d="M159.168 4.252l-3.797 10.611-3.945 11.32-1.916 8.601 2.533 9.969-5.127 6.222-1.057 7.398 2.371 8.547-3.322 5.618s-.699 9.177-.541 8.077c.158-1.101 2.85 7.108 2.85 7.108l-5.275 7.987-.789 11.242.766 9.051-4.5 10.5 9.443-.438 9.418-1.662 11.818-3.823 6.883-5.646 3.57-8.432-.338-8.585-2.567-11.203-2.416-10.274-1.916-5.457 2.602-6.247-1.135-6.573-4.848-5.401 3.766-7.526-2.84-9.405-1.885-9.138-2.73-9.097-2.939-8.118-2.137-5.226z" fill-rule="evenodd" clip-rule="evenodd" fill="#fff"/><path fill-rule="evenodd" clip-rule="evenodd" fill="#4ab47f" d="M178.381 102.209l8.012.088 10.244 4.432 11.857 6.415 10.035 6.821 9.832 8.762 7.647 9.93 4.881 11.607 3.031 13.702 1.24 12.406.18 14.954-.779 13.463-1.573 13.862-2.242 13.516-3.113 14.635-3.572 16.128-1.018 16.573-6.006 72.049 23.705-16.924 3.815 7.174 1.595 6.513 8.102-8.707 6.299 7.603-.205 10.522-5.227 12.228 6.604 4.797 7.886-7.896 8.842-8.813 5.176-11.413 1.84-14.698.298-14.97-1.115-15.63-5.67-16.202-9.634-12.786-10.188-9.475-9.654-7.954-5.61-7.828-.394-10.439 4.715-10.941 5.48-10.253 3.073-12.861.369-18.158-3.741-22.391-5.949-18.076-7.664-14.976-9.293-9.418-11.912-10.171-8.361-5.247 2.424-7.76-10.141-1.72-12.973.493-5.861.952-3.563-7.125-4.753-3.026-6.04-2.825-3.898.572 1.516 8.592 1.451 9.894z"/><path fill-rule="evenodd" clip-rule="evenodd" fill="#f9d740" d="M239.09 60.132l6.89 4.682-2.197 9.113-1.371 11.091-.058 12.738 1.173 10.306 2.299 10.042-3.562 3.323-7.729-6.932-10.135-7.71-5.232-3.158 4.875-6.75.455-8.907 2.777-9.754 5.477-9.612 6.338-8.472z"/><path d="M249.785 128.998l5.945-2.496 4.936-4.403 4.971-10.629 1.672-8.898.467-12.88-.938-11.396-2.896-14.803-4.318-12.492-5.018-8.5-3.594-2.871-2.969 3.245-2.172 6.432-3.527 6.26-3.254 4.564 6.891 4.682-2.197 9.112-1.107 8.966s-.297 9.424-.293 8.495.363 11.048.363 11.048l1.27 8.264 2.338 9.154 3.43 9.146z" fill-rule="evenodd" clip-rule="evenodd" fill="#e085ad"/><path fill-rule="evenodd" clip-rule="evenodd" fill="#67559e" d="M141.941 95.709l-.523 7.475.281 9.302-.943 5.08-3.692 9.569 12.049-1.468 13.076-3.176 10.473-5.656 3.885-4.308 6.433 1.975-1.935 7.905-7.291 10.906-10.484 7.443-19.905 5.845-15.467.964-15.371-.51-14.224 1.122-13.411 3.766-13.081 8.094-8.249 9.983-5.402 13.857-.783 13.835 5.588 12.563 10.34 12.103 6.631 9.9 2.656 12.989 4.828 9.428-1.791 13.22-1.69 9.2-1.177 5.857 181.492 56.636-.13 17.035-42.795 43.714.063 17.25.048 16.122v77.3l-19.905.331-53.821-24.064-19.478 3.389-10.697 2.987-9.369 2.658-7.524-2.526-11.718-.611-10.541 1.347-11.512-3.062-10.164-6.784-11.738-9.821-4.805-11.078.375-5.644-6.998-4.293-7.098-8.005-2.045-4.037 5.319-3.693 4.316-5.885 1.381-7.61-1.008-13.313.061-10.493 3.644-12.048-7.666-.427-9.383-11.835-8.33-14.066-5.689-14.352-2.676-14.66.801-13.727 3.685-11.654 5.844-9.993 7.115-8.245 8.147-8.462 3.045-7.68-2.559-12.076-6.889-14.04-3.072-15.547 1.106-15.774 3.754-12.825 6.582-13.334 5.921-8.604 4.67-2.152-.632-12.361 1.261-13.65 4.235-11.792 6.935-9.693 10.389-9.636 11.041-7.576 13.764-6.873 14.058-5.405 15.586-4.39 12.192-2.146 10.591-.09z"/><path fill-rule="evenodd" clip-rule="evenodd" fill="#4ab47f" d="M76.285 156.559l2.635 5.532-2.135 8.498-.609 11.932.836 9.811 2.293 12.726 2.656 12.005 3.49 12.923-5.515 2.292-4.586-6.848-8.385-10.472-6.033-7.534-3.555-9.712 1.078-15.116 3.984-10.576 7.467-10.183 6.379-5.278z"/><path d="M135.633 147.083l.861 7.897.504 14.978-.166 14.42-1.223 14.571-2.387 13.05-2.303 13.43.619 5.865-8.414 2.145-9.322 6.886-5.357 8.778-2.27 11.789.68 8.483 10.981 36.935-19.44 1.354-22.56 5.312 6.926-30.005 1.717-8.798 2.045-12.869 1.182-10.733-.205-9.456-2.43-12.637-4.498-17.69-3.252-16.303-.961-15.555 1.494-12.592.498-10.35 6.541-4.047 10.992-3.317 16.643-1.571 10.75.409c-.001.002 12.384-.102 12.355-.379z" fill-rule="evenodd" clip-rule="evenodd" fill="#f9d740"/><path fill-rule="evenodd" clip-rule="evenodd" d="M96.25 228.124l12.949-.658.242-12.693-.341-9.149-8.174-6.825-5.688-6.157 6.754-7.275 7.77-6.833.121-10.471-1.795-4.191-4.883-2.746-5.947 1.985-2.684 7.923v8.674l1.676 48.416z"/><path d="M108.516 279.294l-1.281-7.655-1.059-10.747 2.27-11.789s4.248-7.535 5.357-8.778c1.111-1.243 9.322-6.886 9.322-6.886l7.545-3.015 1.4-11.71 2.346-13.24 2.129-15.859.484-14.499-.324-15.559-.65-12.193 13.029-1.769 12.148-4.242 12.522-8.041 7.291-10.906 1.935-7.905-6.215-3.785s1.027-8.514 2.004-8.503c.977.01 6.648-.274 6.648-.274l11.219 4.789 9.568 5.057 10.377 6.726 11.779 10.215 8.996 12.335 5.047 16.053 2.135 13.054.875 16.008-.537 14.566-2.068 19.168-3.016 16.842-3.947 18.114-2.371 11.497-.432 13.14-11.488-.962-14.809 1.211-11.334 2.715-12.48 5.899-9.715 3.447-10.143 2.529-11.695-3.266-9.094-4.939-12.553-5.762-11.482-1.833-9.733.752z" fill-rule="evenodd" clip-rule="evenodd" fill="#fff"/><path fill-rule="evenodd" clip-rule="evenodd" d="M216.135 230.751l7.615 1.092 4.047-12.745 2.232-11.449-2.097-7.408-7.539-6.532-3.192-5.192 8.893-6.218 6.267-4.694.836-9.232-1.785-6.763-4.123-1.551-5.715 4.633-1.97 7.194-1.11 7.053-2.885 26.193-.414 13.662.94 11.957z"/><path d="M177.363 83.437l7.988 2.539 4.754 3.026 3.563 7.125 8.611-1.243 12.27-.045 8.094 1.563-2.424 7.76 9.248 6.478 11.129 9.045 9.189 9.312 5.883 11.327-7.916 4.177-7.022 5.25-4.723-11.095-6.84-9.065-8.605-8.029-10.682-7.565-10.051-5.684-11.348-5.199-3.064-1.175-6.598.274-1.383-6.43-1.266-7.765c.002.001 1.434-4.505 1.193-4.581z" fill-rule="evenodd" clip-rule="evenodd" fill="#5ff2e5"/><path fill-rule="evenodd" clip-rule="evenodd" fill="#e085ad" d="M261.703 219.191l5.674 3.469-.967 11.331 1.082 10.301 7.346 10.492 11.918 8.392 11.471 10.553 8.306 12.82 3.977 12.114 1.007 10.14-1.322 8.801-6.928 11.504-7.654-.3.154-11.84-1.535-16.829-3.908-12.578-9.193-12.844-7.735-8.181-11.908-9.912-6.785-8.406-1.201-11.564 4.715-10.941 3.486-6.522z"/><path d="M192.535 399.823l12.439-2.764 12.844-4.717 14.838-8.835 11.984-10.943 8.693-10.972 6.365-10.802 4.555-11.183 5.234 1.159 1.025 8.441.062 6.938-2.842 7.7-5.521 9.596-8.252 7.884s-7.93 5.929-6.998 6.509c.933.581-3.701 11.145-3.701 11.145l-2.875 11.354-.643 16.223 1.543 12.945 2.545 12.49 3.098 11.901 1.979 7.122 1.629 9.684.016 8.295-4.312 12.279-9.15 7.217-11.488 2.703-9.381-.059-6.664-.959 5.205-5.825 2.531-3.408-2.4-6.934-7.566-9.781-8.047-10.902-3.756-14.745-1.652-16.409-.547-13.828-.359-13.502-.431-15.017z" fill-rule="evenodd" clip-rule="evenodd" fill="#67559e"/><path d="M264.975 368.645l7.172 5.549-2.902 6.031 2.641 7.473 7.15 7.791 5.053 7.644 3.588 9.166.98 10.031-1.514 8.417-3.369 7.81-8.32 11.135-8.959 7.689-9.254 4.169-10.65 1.284-2.758-10.842-2.953-15.047-1.287-14.05 1.305-15.386 5.193-15.575 6.541-9.306 8.033-7.707c-.001 0 5.009-5.734 4.31-6.276z" fill-rule="evenodd" clip-rule="evenodd" fill="#5ff2e5"/><path d="M97.48 96.314c3.562-28.312-19.125-35.062-21.938-52.875m-10.04 75.938S44.169 76.439 68.23 43.251m7.313.188c-.188-2.25-3.75-3.75-7.312-.188m12.496 66.758s2.879-35.444-4.996-48.007m69.562 20.812s-4.5-12.188 6-18.188 16.125-11.438 16.125-11.438 9.187-6.562.75-18.375" fill="none" stroke="#000" stroke-width="8.504" stroke-linecap="round" stroke-linejoin="round" stroke-miterlimit="22.926"/><path d="M146.23 61.814s-2.625-12.188 5.813-17.062c8.437-4.875 14.062-8.625 16.125-9.938m-14.654 9.083c-7.312-7.312-4.203-11.667 5.654-39.645m9 30.562c.562-5.25-5.25-21.938-9-30.562m10.312 49.312c-1.158-1.168 13.152 10.749-3.937 22.875-5.781 4.102-7.932 4.796-12.75 7.688-4.818 2.892-11.438 5.251-11.625 17.812-.188 12.562.75 14.062.75 14.062" fill="none" stroke="#000" stroke-width="8.504" stroke-linecap="round" stroke-linejoin="round" stroke-miterlimit="22.926"/><path d="M137.418 126.502s-.188-9.938 11.062-14.625 15.938-7.5 20.063-10.5 10.687-11.438 4.687-24.938m24.939 15.653s-13.323-7.365-23.161-10.478m-77.033 8.329s24.605-10.919 46.742-9.305m51.524 15.071s15.052-3.52 27.802 1.168m24-54.001c-4.313 19.313-25.125 26.625-24 54m30.562-54.374c13.313 16.125 19.826 76.569-.049 88.007m-6.513-87.633c.375-2.438 3.146-5.701 6.562-.375" fill="none" stroke="#000" stroke-width="8.504" stroke-linecap="round" stroke-linejoin="round" stroke-miterlimit="22.926"/><path d="M175.418 89.844c7.111 15.005 2.506 26.705-9.307 31.669-6.619 2.78-18.377 4.68-26.699 5.41-13.844 1.214-24.172 2.671-34.807 8.204" fill="none" stroke="#000" stroke-width="8.504" stroke-linecap="round" stroke-linejoin="round" stroke-miterlimit="22.926"/><path d="M141.941 95.709c-13.312-2.25-52.148 8.105-73.523 23.668-21.375 15.562-24.344 28.047-25.807 36.876-1.463 8.829-1.568 35.499 8.182 49.749M245.98 64.814s-12.799 37.444 8.576 73.444m-35.388-34.631s35.062 16.5 43.875 57.188m0-.001s8.062 25.875 2.25 50.063M182.98 101.471s49.688 16.969 57.75 48.281m-35.062-17.063s16.096-9.796 26.143-.023m7.982 104.087s12-51.75.937-87.001m8.063-5.813c-6.188 3.188-11.438 8.625-16.688 19.312m.938 116.252c-.563-14.625.949-14.926 6.75-42.75m-65.625-4.875s47.812-24.751 44.437 46.688m-72.187-45.001c-5.957-3.404-22.887-4.902-32.615 6.759-5.275 6.325-13.967 19.985-2.633 44.652" fill="none" stroke="#000" stroke-width="8.504" stroke-linecap="round" stroke-linejoin="round" stroke-miterlimit="22.926"/><path d="M182.98 114.502s-.988 36.669-63.416 32.775c-58.57-3.653-64.834 38.663-61.834 52.538m24.563 47.813c3.75-21.375-22.307-33.348-24.562-47.813" fill="none" stroke="#000" stroke-width="8.504" stroke-linecap="round" stroke-linejoin="round" stroke-miterlimit="22.926"/><path d="M46.668 248.565c-1.855 9.088 1.664 18.2 10.838 21.088 8.775 2.762 21.578-.761 24.787-22.026m53.762-100.263c3.938 60.938-5.309 61.524-5.395 84.035" fill="none" stroke="#000" stroke-width="8.504" stroke-linecap="round" stroke-linejoin="round" stroke-miterlimit="22.926"/><path d="M86.904 151.155s-16.518 8.253-8.643 48.754 16.908 45.734.908 99.068m38.28-71.131s-15.996-1.721-31.998 2.14m22.248-65.702s8.812-9.375 11.062-10.312m-18.679-6.072s1.242 12.633 1.242 14.696m-16.687-3.562s8.812 6.75 10.125 8.062m15.187 2.438c.32-10.168-15.188-12.938-15.375 1.5m.375 21.937s10.125-11.625 14.812-14.438m.188-8.999l-.187 9m-15.188-7.5s-.209 47.056 1.676 57.09m12.762-23.34s-11.609-7.597-13.773-12.142m13.96 34.824s.658-15.379-.188-22.683m111.001-35.249c1.875-12.001 14.25-13.312 13.125-.188m-23.063 60.938s17.812.562 29.719 6.469m-19.781-67.219s-7.398 40.515-3.877 61.218m14.189-24.843s-3.584 22.057-6.574 25.935m-6.549-43.327s10.498-8.108 14.623-9.046m1.313-10.125s-.043 6.9-1.312 10.125m-12.188-36.938s.654 12.565 6.514 17.814m-20.764-7.689s4.566 8.337 16.188 12.034m-4.583 25.576s9.957 9.641 13.332 15.641M38.887 180.221s-35.25 39.938-8.438 81.376m-4.687 24.562s12.938-10.312 4.688-24.562m5.155 132.38s-63.436-61.798-9.844-107.817m18.657-4.032c0 14.626 12.187 40.688-6.938 52.5m-6.375 27.375s-10.687-16.125 6.375-27.375m-1.875 63.375s8.25-13.312-4.5-36m-6.703 79.813c19.434-4.173 6.703-34.063 11.203-43.813m99.469-156.843c-4.5.187-14.813 9.376-11.813 12.188m11.813-12.188c-4.117 3.294-7.875 15.938-11.813 12.188m72.001-10.688c2.625-2.251 13.312 12.75 9 15.937m0 .001c-4.688 2.438-6.75-12.75-9-15.937M96.543 492.879c6.209.775 8.254 3.534 11.627 3.451 8.691-.214 14.578-7.033 21.738-8.248 0 0 18.104-5.637 37.183 6.462 19.078 12.099 31.854 16.496 42.466 15.631 0 0 56.721 13.033 37.033-47.342M59.043 486.504s6.861 6.162 16.67 7.795c7.027 1.169 13.281-2.268 20.83-1.42m-71.916-51.178s.9 7.257 15.713 17.382m32.25-44.437s-3.375 20.438 6.938 36.75m-.001 0s12.975 16.247-5.691 38.247m-33.496-30.56c-1.086 4.737.826 10.542 4.633 15.79 3.424 4.721 6.932 5.922 14.07 11.631m-3.703-66.233c-.842 5.272-2.395 12.556-6.055 19.406-2.969 5.552-7.26 11.137-8.945 19.406m11.437-87.562c-8.625 22.688 6.188 34.875 3.562 48.75m191.321-29.586c-8.438 18.188-10.383 34.273-.07 72.148m-7.875 1.688s22.5.375 34.5-12.562m10.125-50.251c1.797 3.671 15.75 25.125-10.125 50.25m-3.938-112.125c7.688 33-15.607 35.891-22.617 50.852m9.492-139.352c-10.125-14.438 6.281-28.223 9.141-40.455m26.484 79.643c-10.125-22.125-30.938-32.25-35.625-39.188m39 85.5s2.812-33.188-3.375-46.312m-11.437 75.75c9.938-8.812 13.125-13.125 14.812-29.438m-11.812 64.875c-7.459-14.432-26.062-16.875-3-35.438m-15.047-155.392s-1.264 17.985 2.543 30.099c1.783 5.68 9.312 15.435 15.785 20.012m27.389 54.238s6.549-31.737-27.389-54.238m13.548 73.321c10.667-6.667 11.815-9.598 13.841-19.083" fill="none" stroke="#000" stroke-width="8.504" stroke-linecap="round" stroke-linejoin="round" stroke-miterlimit="22.926"/></g></g><g id="n0902"><g><path fill-rule="evenodd" clip-rule="evenodd" fill="#f9d740" d="M139.873 371.024l9.723 1.452 11.488.679 15.049-.507 16.402-1.825.358 41.187.32 12.751.316 10.113-9.049-3.683-7.687 7.313-9.375-8.813-10.082 6.931-6.422-7.605-10.939 7.004-.016-10.685-.041-11.251-.045-43.061z"/><path fill-rule="evenodd" clip-rule="evenodd" fill="#fff" d="M122.418 500.191l4.914-8.183 5.537-9.997 4.893-14.016 1.32-11.486.688-12.044.205-8.444 10.939-7.004 6.941 8.362 9.563-7.688 9.375 8.813 7.687-7.313 9.219 7.686.727 11.058 1.457 11.479 3.777 13.247 7.666 9.566 6.047 7.444 4.107 7.02-6.257 9.775-11.461 9.388-11.719 5.204-12.865 2.258-15.883-1.062-16.533-6.244-11.512-7.745-8.832-10.074z"/><path d="M139.873 371.024c.039 59.653 2.42 102.542-16.705 126.542m69.367-126.743c1.061 31.428.482 81.424 5.129 98.787 3.068 11.459 12.092 13.498 19.816 29.081m-95.062 1.5c1.688 5.438 22.025 24.62 46.478 25.24 19.199.487 35.783-6.442 48.397-24.49m-74.063-65.437l8.438-7.125 6.187 9 9.563-7.688 9.375 8.813 7.687-7.313 9.219 7.686m-25.39 70.925s.826 13.078.588 15.63" fill="none" stroke="#000" stroke-width="8.504" stroke-linecap="round" stroke-linejoin="round" stroke-miterlimit="22.926"/></g></g><g id="n0903"><g><path fill-rule="evenodd" clip-rule="evenodd" fill="#e085ad" d="M161.447 292.255l-8.935-2.861-10.227-5.255-12.553-5.762-16.349-1.458-14.563 2.732-15.185 7.137-11.285 11.573-5.375 13.457-3.241 15.526 2.911 17.822 7.662 15.899 12.197 13.444 14.064 9.172 16.487 7.639 16.748 5.396 16.799 2.864 20.253.246 15.557-1.321 18.563-3.445 16.298-6.404 12.581-8.242 10.787-9.849 8.693-10.972 8.643-16.393 4.431-14.254.231-14.96-6.213-14.892-9.713-12.822-11.963-6.391-15.977-3.298-16.027 1.169-18.525 5.129-12.617 6.086-14.157 3.288z"/><path d="M120.338 310.663l-10.434-3.082-10.369 3.002-5.807 11.584.547 12.197 7.154 11.763 9.072 7.399s8.039 2.025 7.551 3.012c-.486.985 4.15-6.592 4.15-6.592l9.621-3.827 9.113 4.188 4.217 2.353 7.012-7.168 6.945-4.284-1.492-5.392-8.156-.23-8.024-.623-4.949-4.477-6.611-.12-7.033-4.243-2.684-7.241.177-8.219z" fill-rule="evenodd" clip-rule="evenodd" fill="#4ab47f"/><path fill-rule="evenodd" clip-rule="evenodd" fill="#67559e" d="M172.814 337.235l6.51-4.7 10.268 1.261 9.398-2.961 6.715-2.238 6.418-1.998 2.553-6.617-.58-6.548-1.635-5.869 9.002-2.113 8.851 3.827 3.729 5.488 1.219 11.061-1.623 8.254-3.157 7.973-4.814 6.345-9.553 6.505-2.541-5.027-5.799-4.168-6.92 1.505-6.906 5.383-6.248-.755-4.642-6.933-6.061-4.182-4.184-3.493z"/><path fill-rule="evenodd" clip-rule="evenodd" fill="#60f3e6" d="M120.338 310.663l-.176 8.218 2.684 7.241 7.033 4.243 7.6-.064 3.96 4.661 8.02 2.122 8.49-1.361 11.342 2.389 10.033-5.577 10.268 1.261 9.398-2.961 8.223-2.708 7.047-5.333.064-8.114-1.681-7.158-10.389 4.863-13.596 4.683-14.656 2.498-15.732.174-12.815-1.575-13.988-3.406-11.129-4.096z"/><path fill-rule="evenodd" clip-rule="evenodd" fill="#e085ad" d="M148.943 351.739l1.584-4.912 7.243-4.961 8.957-3.646 7.277 1.379 9.055 5.311 4.642 6.933-7.992 1.2-6.727 2.585-9.757-2.98-7.768-1.53-6.514.621z"/><path d="M118.066 356.507l4.137-6.561 7.822-3.818 8.043 2.012 5.98 3.903s8.289-.973 8.221-.794c-.07.18 8.791.974 8.791.974l8.117 3.566s5.94-.829 7.168-1.454c1.228-.624 11.355-2.492 11.355-2.492l6.248.755 6.906-5.383 8.561-1.174 6.699 8.864-7.777 4.68-14.879 3.836-13.74 2.679-17.318 1.062-12.219-.728-14.201-2.418-8.969-2.605-8.945-4.904z" fill-rule="evenodd" clip-rule="evenodd" fill="#fff"/><path d="M149.699 288.285c-12.059-6.069-24.043-17.988-53.572-7.745-16.002 5.55-31.328 18.357-32.49 48.808m112.687-41.25s31.781-17.235 58.385-9.643c18.684 5.332 32.879 26.705 32.553 41.893m-117.563-32.063c7.875 3.749 15 6.938 26.625-.188m-88.687 87.376c5.137 4.443 36.566 25.617 77.234 24.657 30.059-.71 55.938-5.176 77.641-27.282m24.75-52.5c-.188 13.124-6.15 33.105-24.75 52.5m-178.875-43.5c.467 12.314 4.894 30.141 24 46.125m30.937-65.625s46.312 23.25 90.375-.75" fill="none" stroke="#000" stroke-width="8.504" stroke-linecap="round" stroke-linejoin="round" stroke-miterlimit="22.926"/><path d="M235.012 327.848s2.154-11.708-3.928-17.823c-5.215-5.243-10.225-6.528-22.135-.927m-90.375.75c-5.291-2.88-25.5-7.688-25.312 19.125m33.75 32.437s-32.062-9.75-33.75-32.438m117.937 28.313c12.617-5.844 20.625-10.688 23.812-29.438M127.012 361.41s39.75 15.375 84.187-4.125m-73.72-31.475s3.107 13.078 20.471 9.913m21.374-3.188s-7.5 10.312-21.375 3.188m44.379-12.906s-.793 14.791-23.004 9.718m33.137-24.97s9.596 25.134-10.926 20.458m-64.056 2.278s-20.44 4.989-17.141-19.638m26.924 39.31s22.125-25.312 40.687.562" fill="none" stroke="#000" stroke-width="8.504" stroke-linecap="round" stroke-linejoin="round" stroke-miterlimit="22.926"/><path d="M117.676 357.578s2.15-7.104 7.785-10.138c4.619-2.486 12.137-2.053 18.051 5.72m27.375 3.563c-5.271-2.604-11.775-11.035-27.375-3.562m50.437-.563s-13.113-6.91-23.062 4.125" fill="none" stroke="#000" stroke-width="8.504" stroke-linecap="round" stroke-linejoin="round" stroke-miterlimit="22.926"/><path d="M218.776 353.094s-3.968-4.977-9.36-7.053c-2.957-1.138-10.387.326-15.467 6.557" fill="none" stroke="#000" stroke-width="8.504" stroke-linecap="round" stroke-linejoin="round" stroke-miterlimit="22.926"/></g></g></svg>