<svg id="Layer_1" data-name="Layer 1" xmlns="http://www.w3.org/2000/svg" xmlns:xlink="http://www.w3.org/1999/xlink" viewBox="0 0 429.96 164.06"><defs><clipPath id="clip-path" transform="translate(9.73 26.38)"><path id="SVGID" d="M189.56,30.33s-3,11.33,3.33,14.33a75,75,0,0,0,14.33,4.67l1.67,65s-26-4-41.33-15-12-15-12-15l3.33-25.67-67-2-30-4.33s-4,7-14.67,11S25.9,71,19.9,69.67s-7-6-3.33-9.33,24-7.33,24-7.33-25.33,7.67-29,2.67C9.47,52.81,9.12,44.3,17.23,44c9-.33,20-1,20-1s-26.33,5.33-29-4.33c-2.18-7.9,5-8,14-7.67s20.67,0.67,20.67.67S27.56,20.67,28.56,14s5-8,11.33-4.67S61.56,30.67,61.56,30.67s26.33,4,45.67,4.33,61.33,1,67.67,0S189.56,30.33,189.56,30.33Z" style="fill:none"/></clipPath></defs><title>Untitled-3</title><polygon points="203.96 34.38 204.63 62.38 195.29 75.72 250.63 78.38 241.96 64.38 242.63 32.38 203.96 34.38" style="fill:#fdd900;stroke:#231f20;stroke-miterlimit:10;stroke-width:8px"/><path d="M189.56,30.33s-3,11.33,3.33,14.33a75,75,0,0,0,14.33,4.67l1.67,65s-26-4-41.33-15-12-15-12-15l3.33-25.67-67-2-30-4.33s-4,7-14.67,11S25.9,71,19.9,69.67s-7-6-3.33-9.33,24-7.33,24-7.33-25.33,7.67-29,2.67C9.47,52.81,9.12,44.3,17.23,44c9-.33,20-1,20-1s-26.33,5.33-29-4.33c-2.18-7.9,5-8,14-7.67s20.67,0.67,20.67.67S27.56,20.67,28.56,14s5-8,11.33-4.67S61.56,30.67,61.56,30.67s26.33,4,45.67,4.33,61.33,1,67.67,0S189.56,30.33,189.56,30.33Z" transform="translate(9.73 26.38)" style="fill:#76cbcb;stroke:#231f20;stroke-linejoin:round;stroke-width:8px"/><g style="clip-path:url(#clip-path)"><rect x="141.25" y="15.28" width="10.22" height="108.88" transform="translate(38.06 -15.03) rotate(17.81)" style="fill:#35b67e"/><rect x="163.52" y="22.43" width="10.22" height="108.88" transform="translate(41.32 -21.5) rotate(17.81)" style="fill:#35b67e"/><rect x="186.56" y="29.83" width="10.22" height="108.88" transform="translate(44.69 -28.2) rotate(17.81)" style="fill:#35b67e"/><rect x="96.44" y="0.88" width="10.22" height="108.88" transform="translate(31.51 -2.02) rotate(17.81)" style="fill:#35b67e"/><rect x="118.71" y="8.04" width="10.22" height="108.88" transform="translate(34.77 -8.49) rotate(17.81)" style="fill:#35b67e"/><rect x="51.48" y="-13.04" width="10.22" height="108.88" transform="translate(25.1 11.06) rotate(17.81)" style="fill:#35b67e"/><rect x="73.76" y="-5.88" width="10.22" height="108.88" transform="translate(28.36 4.59) rotate(17.81)" style="fill:#35b67e"/><rect x="6.68" y="-27.43" width="10.22" height="108.88" transform="translate(18.55 24.07) rotate(17.81)" style="fill:#35b67e"/><rect x="28.95" y="-20.28" width="10.22" height="108.88" transform="translate(21.81 17.6) rotate(17.81)" style="fill:#35b67e"/></g><path d="M189.56,30.33s-3,11.33,3.33,14.33a75,75,0,0,0,14.33,4.67l1.67,65s-26-4-41.33-15-12-15-12-15l3.33-25.67-67-2-30-4.33s-4,7-14.67,11S25.9,71,19.9,69.67s-7-6-3.33-9.33,24-7.33,24-7.33-25.33,7.67-29,2.67C9.47,52.81,9.12,44.3,17.23,44c9-.33,20-1,20-1s-26.33,5.33-29-4.33c-2.18-7.9,5-8,14-7.67s20.67,0.67,20.67.67S27.56,20.67,28.56,14s5-8,11.33-4.67S61.56,30.67,61.56,30.67s26.33,4,45.67,4.33,61.33,1,67.67,0S189.56,30.33,189.56,30.33Z" transform="translate(9.73 26.38)" style="fill:none;stroke:#231f20;stroke-linejoin:round;stroke-width:8px"/><path d="M234.5,32.33s3,11.33-3.33,14.33S208.23,50,208.23,50l0.67,64.33s32.27-2,47.61-13,12-15,12-15l-3.33-25.67,67-2,30-4.33s4,7,14.67,11,21.33,7.67,27.33,6.33,7-6,3.33-9.33-24-7.33-24-7.33,25.33,7.67,29,2.67c2.1-2.86,2.44-11.37-5.67-11.67-9-.33-20-1-20-1s26.33,5.33,29-4.33c2.18-7.9-5-8-14-7.67s-20.67.67-20.67,0.67S396.5,22.67,395.5,16s-5-8-11.33-4.67S362.5,32.67,362.5,32.67s-26.33,4-45.67,4.33-61.33,1-67.67,0S234.5,32.33,234.5,32.33Z" transform="translate(9.73 26.38)" style="fill:#e484af;stroke:#231f20;stroke-linejoin:round;stroke-width:8px"/><path d="M378.9,66.67c6-13.33,7.21-10.67,7.94-21.67" transform="translate(9.73 26.38)" style="fill:none;stroke:#231f20;stroke-linecap:round;stroke-linejoin:round;stroke-width:8px"/><path d="M47.23,63.33s-7.67-6-10-20.33" transform="translate(9.73 26.38)" style="fill:none;stroke:#231f20;stroke-linecap:round;stroke-linejoin:round;stroke-width:8px"/></svg>