<svg id="Layer_1" data-name="Layer 1" xmlns="http://www.w3.org/2000/svg" viewBox="0 0 318.31 308.29"><title>Untitled-1</title><path d="M286.73,201.88c1.16-.52,10-1.75,18-16.81,8.26-15.41,4.78-41.47-8-50.36S273.95,132,271.13,133c-1.41,7.18-2.5,15.57-3.72,31.17,11.55,9.16,13.78,31.73,13.5,34.53S286.73,201.88,286.73,201.88Z" transform="translate(-1.35 -3.78)" style="fill:#fff"/><path d="M278.59,186.55c4.78-2.14-.71,16.57,5.54,22.82,15.67-2.83,29.84-25,31.34-40.49s-7.88-39.82-19.28-27.81c-7.19,7.58-8,14.9-7,21.76,0.66,4.64,7.62,15.2-10.58,23.71" transform="translate(-1.35 -3.78)" style="fill:#35b67e"/><path d="M281.59,208.51s22.25,0,30.65-30.31c9.86-35.59-14.61-55.93-38.32-46.66" transform="translate(-1.35 -3.78)" style="fill:none;stroke:#231f20;stroke-linecap:round;stroke-linejoin:round;stroke-width:8px"/><path d="M298.37,139.31s-9.73,1.84-11.66,19.13c-0.8,7.19,11.66,14.14-2.58,25.5" transform="translate(-1.35 -3.78)" style="fill:none;stroke:#231f20;stroke-linecap:round;stroke-linejoin:round;stroke-width:8px"/><path d="M272.79,131.1s35.21-14,41.69,25.55C320.3,195.7,286.8,212.2,281,209.37c0,0,2,54.35-65.26,84.88s-116.82-.88-118-1.56-50.43-23.92-56.75-80.15" transform="translate(-1.35 -3.78)" style="fill:none;stroke:#231f20;stroke-linecap:round;stroke-linejoin:round;stroke-width:9px"/><path d="M52.75,168.45s-10.93-49.86-.64-81.59S78.47,37.7,112,17.72c25.77-15.34,75.51-9.88,94.8-2.11s28.56,16.21,35,26.57,25.08,28.49,28.3,62.17-2.25,69.29-2.25,69.29L53.4,171Z" transform="translate(-1.35 -3.78)" style="fill:#fdd900"/><polygon points="65.36 46.33 83.47 70.75 87.24 74.25 89.24 95 90.16 134.88 63.51 149.77 51.49 156.38 48.94 93.44 56.33 63.88 65.36 46.33" style="fill:#fff"/><path d="M69.2,143.77s29.75-27.58,61.21-5.75c-2.83,4.43-3.54,4.17-5.74,7.78-10.13-2.28-20.79-6.44-53.36,2.19-8.41-1.17-1.28-4.22-2.11-4.22" transform="translate(-1.35 -3.78)" style="fill:#76cbcb"/><path d="M157.45,149s33-5.18,41.44-5.83,19.43-5.18,38.21,3.24,32.4,11.17,39.2,41.2c7.54,33.27-1,50.11-11.35,64.36s-27.2,36.91-53.1,45.33-40.8,13-67.35,7.77-75.12-27.2-84.83-46.62-29.79-45.33-13.6-77.71,26.87-35.62,39.66-36.26S157.45,149,157.45,149Z" transform="translate(-1.35 -3.78)" style="fill:#e483af"/><path d="M61.61,224c-0.68-1.5-8.09-27.2,6.15-35.94s47.92-6.15,56.66-4.21,24.93,11.66,46.63,8.74,57-14.89,67.67-9.39,22,21,18.78,34-21,41.43-36.83,49.53c-20.62,10.53-39.76,20.65-75.25,14C114.89,275,74.73,253,61.61,224Z" transform="translate(-1.35 -3.78)" style="fill:#2f2854"/><path d="M253.28,224s-24,62.17-77.71,56.34-68-3.24-87.42-24-22.66-25.26-22.66-25.26,1.29-11,18.13-7.12,14.09,20.71,19.9,17.52c13.35-7.32,22.68,8.82,22.68,8.82s14.26-10.32,22.41,7.33c4.78,10.33-.89-14.89,27.6.65,10.36-11,27.85-8.42,27.85-8.42l23.47-21.53s3.08-14.73,10.85-11.49S253.28,224,253.28,224Z" transform="translate(-1.35 -3.78)" style="fill:#76cbcb"/><path d="M206.85,205.53c-13.14,16.27-35.16,11.08-37.1,7.85s-16.19,7.77-23.31,3.24-9.71-7.77-9.71-7.77-7.12,5.18-13.6,3.24S109,199.94,109,199.94,94,205.61,90.1,203.34s-12.3,1-16.84-2.91-4-16.54-4-16.54-1.76-11.66,32.54-9.81c34.83,1.88,74.79,9.35,74.79,9.35s49.54-8.26,58.6-7.61,12.3,1.94,10.36,10.36-9.71,15.54-14.25,14.89-5.24,9.41-13.58,7.73" transform="translate(-1.35 -3.78)" style="fill:#fff"/><path d="M238.54,61.85l-7.92,1.73L210.21,81.88,228,99.2l-2.37,25.42s19.37,7.87,29.25,27c2,3.87,14.08,10.26,14.08,10.26s1-50.19.49-66.91c-0.54-17.73-19.26-52.3-19.26-52.3Z" transform="translate(-1.35 -3.78)" style="fill:#6851a1"/><path d="M34.28,199.88c-1.16-.52-10-1.75-18-16.81-8.26-15.41-4.78-41.47,8-50.36S47.06,130,49.88,131c1.41,7.18,2.5,15.57,3.72,31.17C42,171.37,39.82,193.94,40.1,196.74S34.28,199.88,34.28,199.88Z" transform="translate(-1.35 -3.78)" style="fill:#fff"/><path d="M42.41,184.55c-4.78-2.14.71,16.57-5.54,22.82-15.67-2.83-29.84-25-31.34-40.49s7.88-39.82,19.28-27.81c7.19,7.58,8,14.9,7,21.76-0.66,4.64-7.62,15.2,10.58,23.71" transform="translate(-1.35 -3.78)" style="fill:#35b67e"/><path d="M146.13,180.9c6,1.36,19.25,1.24,33.34.76s46.06-15.31,65.08.12c12.35,10,22,36.66-3.89,66.54-22.34,25.74-44.68,34-74.79,34-24.46,0-59.25-6.8-85.48-34S54.9,193.2,76,180.32C96.88,167.58,128.24,176.85,146.13,180.9Z" transform="translate(-1.35 -3.78)" style="fill:none;stroke:#231f20;stroke-miterlimit:10;stroke-width:8px"/><path d="M249.89,222.09s-6-7.77-13.11-5.34c-7.42,2.52-9.23,11.66-9.23,11.66" transform="translate(-1.35 -3.78)" style="fill:none;stroke:#231f20;stroke-linecap:round;stroke-miterlimit:10;stroke-width:8px"/><path d="M241.3,237.17s-9.24-11.94-17.76-8.27c-10.41,4.48-8.14,11.15-8.14,11.15" transform="translate(-1.35 -3.78)" style="fill:none;stroke:#231f20;stroke-linecap:round;stroke-miterlimit:10;stroke-width:8px"/><path d="M229,247.34s-4.42-10.17-15.7-5.88c-8.32,3.17-8.58,13.16-8.58,13.16s-6.31-10.68-16.51-6.8a19.53,19.53,0,0,0-12.14,13.11s-6.8-11.66-16.51-10.2-9.71,7.29-9.71,7.29-5.34-12.14-14.57-10.2-10.72,5.88-10.72,5.88S119.9,242,112.61,241.47s-14.28,3.45-15.74,7.82" transform="translate(-1.35 -3.78)" style="fill:none;stroke:#231f20;stroke-linecap:round;stroke-linejoin:round;stroke-width:8px"/><path d="M81.84,245.55" transform="translate(-1.35 -3.78)" style="fill:none;stroke:#231f20;stroke-miterlimit:10;stroke-width:7px"/><path d="M101.75,243.08" transform="translate(-1.35 -3.78)" style="fill:none;stroke:#231f20;stroke-miterlimit:10;stroke-width:7px"/><path d="M68.94,233.39s0.76-10.81,10-11.78S93,230,94.47,233.39" transform="translate(-1.35 -3.78)" style="fill:none;stroke:#231f20;stroke-miterlimit:10;stroke-width:8px"/><path d="M83.16,187.93s1.44,14.91,10.18,17.34,15.87-3.93,15.87-3.93,6.31,11.66,14.08,12.14,13.11-5.34,13.11-5.34,3.4,9.23,15.54,9.23,17-7.77,17-7.77,10.66,6.71,18.43,6.46c16.09-.52,10.71-10.5,19.64-9.13,6.31,1,9.69,4.88,17.78-.25,6.64-4.21,7.29-20.88,7.29-20.88" transform="translate(-1.35 -3.78)" style="fill:none;stroke:#231f20;stroke-linecap:round;stroke-linejoin:round;stroke-width:8px"/><path d="M228.52,202.17s8.74,1.13,12.14-3.4A24.21,24.21,0,0,0,245,185.66" transform="translate(-1.35 -3.78)" style="fill:none;stroke:#231f20;stroke-linecap:round;stroke-linejoin:round;stroke-width:8px"/><path d="M129.44,147.41s-21.37-8.74-43.71-2.91-36.78,16.92-42.61,37.32-4.18,57.87,26.26,85.72C92,288.24,121,305.09,165.22,305.09s78.08-24.75,97.13-49.86c20.36-26.83,20.22-56.48,9.12-81.23-8-17.86-37.13-32.9-55.58-32.42s-33.51,5.83-49.05,6.31S148.86,151.78,129.44,147.41Z" transform="translate(-1.35 -3.78)" style="fill:none;stroke:#231f20;stroke-linecap:round;stroke-linejoin:round;stroke-width:8px"/><path d="M265.39,163.44C264.47,167.47,309.77,9.66,165,8.1c-28-.3-139.9,2.62-110.08,153" transform="translate(-1.35 -3.78)" style="fill:none;stroke:#231f20;stroke-linecap:round;stroke-linejoin:round;stroke-width:8px"/><path d="M39.42,206.51s-22.25,0-30.65-30.31c-9.86-35.59,14.61-55.93,38.32-46.66" transform="translate(-1.35 -3.78)" style="fill:none;stroke:#231f20;stroke-linecap:round;stroke-linejoin:round;stroke-width:8px"/><path d="M22.64,137.31s9.73,1.84,11.66,19.13c0.8,7.19-11.66,14.14,2.58,25.5" transform="translate(-1.35 -3.78)" style="fill:none;stroke:#231f20;stroke-linecap:round;stroke-linejoin:round;stroke-width:8px"/><path d="M204.39,17.54c8.74-8.74,29.82-4.33,35.94,4.69,10.35,15.25-.65,30.44-0.65,30.44" transform="translate(-1.35 -3.78)" style="fill:#fdd900"/><path d="M116.55,20.55c-8.74-8.74-30.82-2.33-36.91,2.91C53.71,45.82,83.16,77,83.16,77" transform="translate(-1.35 -3.78)" style="fill:#fdd900"/><path d="M202.61,125.49s2.12-25.32,3.17-41.15,1.69-35.3,11.11-37.85c11-3,18,1.54,18.51,10.91a104.39,104.39,0,0,1-.41,17l-21.3,10.92,18.12,18c0,8.18-3.82,24.08-3.82,24.08Z" transform="translate(-1.35 -3.78)" style="fill:#231f20"/><path d="M90.91,129.1s-3.21-23.64-4.53-41.48-3.22-35,5.38-39.07c10.82-5.17,17.9-1.11,19.81,8.08a105,105,0,0,1,2.09,16.89L94.31,87.44l20.47,15.18c2.92,2.92,1.78,25.41,1.78,25.41Z" transform="translate(-1.35 -3.78)" style="fill:#231f20"/><path d="M188.54,29.54s15.85-24.62,39.19-14.31c13.35,5.9,24.48,17.51,10.81,46.63" transform="translate(-1.35 -3.78)" style="fill:none;stroke:#231f20;stroke-linecap:round;stroke-miterlimit:10;stroke-width:8px"/><path d="M127,165.36s-9.71-24.28,7.29-33,36.43-8.4,43.71-4,13.44,5.18,15.87,14.89,3.61,22.92,0,23.47C174.21,169.67,127,165.36,127,165.36Z" transform="translate(-1.35 -3.78)" style="fill:#35b67e"/><path d="M126.46,32c-2.34-6.19-12.26-20.87-36.25-15.12-17.67,4.24-38.45,28.62-8.5,57.62" transform="translate(-1.35 -3.78)" style="fill:none;stroke:#231f20;stroke-linecap:round;stroke-miterlimit:10;stroke-width:8px"/><path d="M173.82,163.92s-2.39-3.76,1.51-7.66c3.1-3.1,8.76-1.61,10.27,1.34s1,8.56-3.31,9.63S174.92,166.84,173.82,163.92Z" transform="translate(-1.35 -3.78)" style="fill:none;stroke:#231f20;stroke-linecap:round;stroke-miterlimit:10;stroke-width:8px"/><path d="M135.59,162.91s-1.87-3.37,2-7.21a6.53,6.53,0,0,1,10.11,1.4c1.67,3.3,1.68,9-2.81,10.11A7.62,7.62,0,0,1,135.59,162.91Z" transform="translate(-1.35 -3.78)" style="fill:none;stroke:#231f20;stroke-linecap:round;stroke-miterlimit:10;stroke-width:8px"/><path d="M133,119.7s21.35-9.52,49.19-2.4" transform="translate(-1.35 -3.78)" style="fill:none;stroke:#231f20;stroke-linecap:round;stroke-miterlimit:10;stroke-width:8px"/><path d="M129.94,165.84s-20.56-37.25,31.89-37.37c46.3-.11,29.34,38.21,29.34,38.21" transform="translate(-1.35 -3.78)" style="fill:none;stroke:#231f20;stroke-linecap:round;stroke-miterlimit:10;stroke-width:8px"/><path d="M150.88,168.29s12.7,4.1,22.67.7" transform="translate(-1.35 -3.78)" style="fill:none;stroke:#231f20;stroke-linecap:round;stroke-miterlimit:10;stroke-width:8px"/><path d="M69.23,187.63c-2,12.74,7.62,18.74,15.53,14.08" transform="translate(-1.35 -3.78)" style="fill:none;stroke:#231f20;stroke-linecap:round;stroke-linejoin:round;stroke-width:8px"/><path d="M105.22,240.74S97,219.37,81.7,239.08" transform="translate(-1.35 -3.78)" style="fill:none;stroke:#231f20;stroke-linecap:round;stroke-miterlimit:10;stroke-width:8px"/><path d="M62.71,150.16s26.84-33,63.26-14.68" transform="translate(-1.35 -3.78)" style="fill:none;stroke:#231f20;stroke-linecap:round;stroke-miterlimit:10;stroke-width:8px"/><path d="M196.21,129.83s40.56-10.12,54,18.17" transform="translate(-1.35 -3.78)" style="fill:none;stroke:#231f20;stroke-linecap:round;stroke-miterlimit:10;stroke-width:8px"/><path d="M94.8,215.87a27.11,27.11,0,0,0,0,9.33A2.51,2.51,0,0,0,99,226.3c1.51-1.86,3.6-2.93,4.89-5l-4.57-.6c0.92,3,2.76,5.73,6.25,5.16,3-.48,5-3,7.82-3.92l-2.82-1.15a2.44,2.44,0,0,1,.16,1.74c-0.26,3.21,4.75,3.19,5,0a6.55,6.55,0,0,0-.84-4.26,2.53,2.53,0,0,0-2.82-1.15,19.25,19.25,0,0,0-4.59,2.37c-1.92,1.22-2.57,2.32-3.33-.12a2.53,2.53,0,0,0-4.57-.6c-1,1.65-2.89,2.5-4.11,4l4.18,1.1a19.76,19.76,0,0,1,0-6.67c0.54-3.15-4.28-4.5-4.82-1.33h0Z" transform="translate(-1.35 -3.78)" style="fill:#2f2854"/><path d="M100.8,217.87c-0.62,4.38-1.2,9.62,3.75,11.58a2.52,2.52,0,0,0,3.08-1.75,2.56,2.56,0,0,0-1.75-3.08c-1.24-.49-0.39-4.47-0.25-5.42a2.59,2.59,0,0,0-1.75-3.08,2.52,2.52,0,0,0-3.08,1.75h0Z" transform="translate(-1.35 -3.78)" style="fill:#2f2854"/><path d="M48.22,129.1S13,115.1,6.53,154.65C0.71,193.7,34.21,210.2,40,207.37c0,0-2,54.35,65.26,84.88s116.82-.88,118-1.56,50.43-23.92,56.75-80.15" transform="translate(-1.35 -3.78)" style="fill:none;stroke:#231f20;stroke-linecap:round;stroke-linejoin:round;stroke-width:9px"/><path d="M49,128.47C47,79.23,65.88,54.2,65.88,51.37c0-21.66,16.66-44.5,46.7-34,0,0,30.82-17.47,91.85-4" transform="translate(-1.35 -3.78)" style="fill:none;stroke:#231f20;stroke-linecap:round;stroke-linejoin:round;stroke-width:9px"/><path d="M78.21,66.37" transform="translate(-1.35 -3.78)" style="fill:none;stroke:#231f20;stroke-linecap:round;stroke-miterlimit:10;stroke-width:8px"/></svg>