<svg id="Layer_1" data-name="Layer 1" xmlns="http://www.w3.org/2000/svg" viewBox="0 0 50.32 39.8"><title>Untitled-2</title><path d="M14,40.53l-0.21-14S-1,15.91,6.15,8.61c5-5.09,12-5.5,21-4.53S45.32,7,46.62,12.82,44.21,34,44.21,34s-3.5,1.75-8.25,6.75C23.21,31,14,40.53,14,40.53Z" transform="translate(-0.94 -0.98)" style="fill:#e483af"/><path d="M14.24,36.29l-0.49-9.71S4,18.81,5,12.5,17,3.27,32,6c16.45,3,14.25,8.9,14.73,17.16s0.49,13.6.49,13.6" transform="translate(-0.94 -0.98)" style="fill:none;stroke:#231f20;stroke-linecap:round;stroke-miterlimit:10;stroke-width:8px"/><path d="M33.67,23.67a21.63,21.63,0,0,1-23.31-1" transform="translate(-0.94 -0.98)" style="fill:none;stroke:#231f20;stroke-linecap:round;stroke-miterlimit:10;stroke-width:8px"/></svg>