<svg id="Layer_1" data-name="Layer 1" xmlns="http://www.w3.org/2000/svg" viewBox="0 0 384.22 507.47"><title>animals</title><polygon points="81.74 93.31 71.21 82.83 58.51 61.97 52.02 42.08 50.47 20.94 53.1 10.42 58.21 4.83 66.61 7.02 72.82 16.66 80.89 27.98 91.06 37.65 98.59 45.88 103.11 55.87 104.3 66.88 94.03 78.01 87.11 86.35 81.74 93.31 81.74 93.31" style="fill:#68569d;fill-rule:evenodd"/><polygon points="260.77 90.69 256.54 86.57 256.92 71.94 261.71 56.21 268.36 45.07 277.13 34.77 290.07 22.44 299.46 12.5 309.57 6.28 316.5 13.6 319.04 23.33 319.5 35.15 318.18 46.33 314.58 58.83 308.15 71.96 300.19 83.12 290.92 92.53 283.93 84.84 275.14 83.52 266.84 86.45 260.77 90.69 260.77 90.69" style="fill:#f8d63f;fill-rule:evenodd"/><polygon points="74.85 122.19 89.32 122.78 108.7 124.85 129.38 128.91 150.64 134.87 168.88 140.4 181.01 135.28 198.24 127.85 213.91 117.61 228.43 103.77 240.96 85.9 248.91 68.51 251.61 60.25 259.12 62.73 262.77 54.05 252.99 44.85 236.81 34.42 216.24 26.74 193.32 23.83 167.71 27.17 144.63 36.2 121.45 51.39 105.6 65.56 92.42 79.95 78.97 97.07 87.09 98.79 79.99 109.26 74.85 122.19 74.85 122.19" style="fill:#e085ad;fill-rule:evenodd"/><polygon points="173.34 137.44 176.71 142.23 189.59 143.96 204.55 143.01 222.13 138.07 240.39 131.73 257.02 126.84 273.74 123.17 287.27 121.11 295.35 119.94 294.81 107.42 292 94.98 286.58 86.67 276.95 83.35 265.93 86.97 260.77 90.69 256.54 86.57 256.51 75.3 259.31 64.08 251.2 61.62 247.87 71.27 241.43 84.88 233.67 97.21 222.89 109.68 209.82 120.66 192.24 130.84 173.34 137.44 173.34 137.44" style="fill:#fff;fill-rule:evenodd"/><polygon points="260.12 126.07 261.82 115.24 265.33 107.35 272.23 103.67 278.86 106.43 280.38 111.55 280.51 122.14 268.67 124.28 260.12 126.07 260.12 126.07" style="fill-rule:evenodd"/><polygon points="52.16 178.27 60.6 163.01 65.9 150.86 69.87 140.28 83.72 140.37 98.55 141.25 113.67 143.09 127.94 145.86 125.9 149.96 107.96 154.62 106.65 163.31 107.52 178.32 110.81 193.19 115.03 205.47 120.33 216.86 110.23 218.83 94.79 220.31 78.25 214.45 66.44 204.63 58.11 191.03 52.16 178.27 52.16 178.27" style="fill:#e085ad;fill-rule:evenodd"/><path d="M139.72,209.94c1.09,1.07-9,3.75-9,3.75l-10.37,3.17L115,205.47l-4.52-13.61-3.14-16-0.72-12.57,0.36-8.46,11.81-3.32,13.82-4.5,12,3.68,11.79,4.76,7.62,3.85-0.52,8-2.72,11.42-6.49,6.63L147.7,194l-3.84,7-4.14,9h0Z" style="fill:#81cece;fill-rule:evenodd"/><polygon points="122.68 150.85 122.45 160.5 122.24 172.31 122.22 182.07 125.66 187.77 131.92 187.45 137.75 182.66 138.11 175.33 137.57 168.04 130.34 162.06 122.68 150.85 122.68 150.85" style="fill-rule:evenodd"/><polygon points="224.1 155.57 225.9 164.42 230.25 173.14 236.84 180.13 246.19 186.98 251.9 196.24 257.43 205.67 265.38 210.31 275.46 212.3 284.1 212.94 281.15 201.53 282.03 189.69 286.25 173.97 290.1 160.39 293.04 147.73 294.64 137.47 280.61 138.98 264.06 142.01 245.45 147.1 233.05 151.59 224.1 155.57 224.1 155.57" style="fill:#fff;fill-rule:evenodd"/><polygon points="259.81 150.04 265.63 155.75 271.44 161.47 270.22 168.84 266.94 179.29 258.95 178.72 254.4 173.99 253.77 166.09 255.52 155.86 259.81 150.04 259.81 150.04" style="fill-rule:evenodd"/><path d="M284.1,212.94l-3-12.7L282.77,186l4.79-16.46,4-15.46s1.9-16.51,3.08-16.59,10.92-.5,10.92-0.5l4.87,9.47L316,157.53l5.39,11.18,8.21,17.51-4.46,7.93-7.52,9.93-8.91,6.64-13.28,2.51-11.32-.29h0Z" style="fill:#49b37e;fill-rule:evenodd"/><path d="M160.86,178.73c0.67,1.31,2.49-9.61,2.49-9.61l0.75-9.8-12.27-5.89L136,148l-24.16-5.14-24.35-2.31-24.3,0-19.51,1.58,1.18,11.7,3.4,13.79,4.22,11.58L58.11,191l9.11,14.55,11,8.87,13.64,4.42,16.3,0.21,12.14-2.21,13.12-4,6.27-3L144,227,130,232.21l-17.14,3.89-16.89,1-19-3.29-15.58-8.15L50.06,214.18l-9.64-16.7-8.69-19.54L25.28,159.6l-4.73-17.42-2.7-14,11.69-2.08,15-2.05,19.29-1.52H84.57l19,1.77,21.13,3.52,19.48,5.06,18.15,5.68,14.43,3.67,16.23,1.83,14.27-1.8,18.56-5.46,19.06-6.38,18.47-5,24-4.35,27.18-1.58L337.56,121l18.73,3.46,14.06,4.44-3.12,16L363,160.39l-5.84,16-5.55,12.14-9.85,17-9.1,11.91-11.92,8.93L304.29,232l-17.79,2L273,233.78l-19.59-3.52,2.82-7.18,0.43-8.89-1.24-7.7,11.58,4.3,11.44,1.74,15.42,0.71,14.87-2.51,10.06-7.89,8.6-12.64,7.07-14.35,6-16,3.73-12.35,1.82-7-15.79-2.46-19.11-1.16-21.11.91-21.58,3.23-22.93,6-14.05,5.16-7.3,3.31,1.81,8.86,4.35,8.72,2.71,5.68L220.64,178l-5.55.81-6.77-8.23-8.83-3.7-7.94.26L183,170.48,178,177.25l-9.6.42-7.49,1.06h0Z" style="fill:#68569d;fill-rule:evenodd"/><polygon points="117.03 241.84 112.88 236.1 99.29 237.18 84.81 235.2 72.51 231.51 58.91 223.7 48.39 211.29 45.82 217.69 45.8 235.48 49.43 255.62 58.3 274.3 68.8 289.37 80.68 306.78 86.89 326.2 88.19 349.35 85.62 369.76 80.42 390.36 77.53 399.25 81.87 398.64 90.17 388.36 97.04 377.16 101.94 364.59 104.57 351.03 105.6 331.56 99.08 322.06 92.64 307.18 90.07 289.51 92.15 272.25 99.69 256.8 108.05 247.99 117.03 241.84 117.03 241.84" style="fill:#e085ad;fill-rule:evenodd"/><polygon points="105.6 331.56 112.61 339.37 122.82 348.26 133.91 355.85 147.59 363.18 157.37 367.37 171.15 372.05 182.94 375.05 209.25 381.12 210.95 408.22 210.12 426.19 208.6 440.79 206.25 473.12 173.25 474.62 160.25 482.12 145.83 482.25 136.69 492.26 131.19 500.64 118.18 485.01 112.8 477.93 108.5 468.68 106.26 457.37 96.25 453.64 86.61 445.98 78.09 432.66 74.83 418.95 75.17 406.39 82.23 398.22 90.17 388.36 97.04 377.16 101.94 364.59 104.57 351.03 105.08 341.29 105.6 331.56 105.6 331.56" style="fill:#68569d;fill-rule:evenodd"/><polygon points="222.97 378.96 232.13 378.46 244.79 376.74 260.15 372.71 273.78 366.83 288.79 356.72 300.25 344.99 305.77 347.47 301.41 356.87 296.29 367.43 290 380.22 284.25 392.55 279.38 407.04 278.7 423.16 283.04 439.9 283.66 453.64 285.92 465.1 286.7 473.62 284.85 473 279.3 478.68 276.25 479.62 271.75 480.12 256.25 479.12 244.77 479.81 232.97 475.72 202.75 473.12 201.13 428.03 200.07 416.25 199.57 401.05 199.75 381.12 222.97 378.96 222.97 378.96" style="fill:#e085ad;fill-rule:evenodd"/><polyline points="182.94 375.05 164.26 369.71 143.03 360.74 128.37 352.05 114.32 341.02 105.6 331.56 94.74 313.24 91.35 298.34 90.56 280.1 94.97 264.69 103.87 252.4 115.48 242.74 131.8 235.53 146 229.69 146 229.69 140.79 218.64 142.39 204.68 149.55 191.26 161.1 178.77 175.69 177.1 184.1 169.85 195.53 167.02 208.33 170.59 215.1 178.82 227.8 177.96 240.9 182.32 249.81 192.1 256.07 203.96 256.62 214.18 256.19 223.07 253.37 230.25 265.19 233.07 281.69 238.07 292.33 243.04 307.31 254.17 316.26 266.47 322.32 282.1 321.93 301.87 314.51 320.27 303.06 341.3 290.09 355.61 273.78 366.83 256.49 373.89 240.53 377.46 222.97 378.96" style="fill:#f8d63f;fill-rule:evenodd"/><polygon points="139.14 255.95 138.59 266.17 139.38 273.61 144.54 281.91 152 282.97 156.57 281.17 166.42 286.56 175.92 286.26 180.5 284.47 184.61 289.1 191.75 292.74 201.73 291.94 211.06 286.35 219.66 290.1 230.26 291.69 239.8 287.69 243.12 283.57 251.13 283.92 257.47 280.33 260.58 271.9 260.49 263.59 259.41 256.71 246.44 259.11 234.63 261.59 213.41 264.41 196.06 264.45 178.32 261.18 160.55 255.81 147.76 254.94 139.14 255.95 139.14 255.95" style="fill:#fff;fill-rule:evenodd"/><path d="M137.48,334.9l4-6.74,4.18-9,5.23-4.65,9.22-.5,6.68,3.41,3.89,5.87,6-1.11,8.71,2.53,7.23,6.58,6.37-4.41L208,325l8.73,1.4s9.47,6.92,8.6,6.05,6.87-6.78,6.87-6.78l7.74-2.26,2.84-6.32,6.23-2.18L248,309l9.08-6.29,6.74,0.64,8.3,7.8,3.87,7,7.67,8.61-6.15,8.92-12.13,7.05-21,7.45L225,353.16l-24.39.2-23.39-3.11-18.73-5.18L146.46,340l-9-5.1h0Z" style="fill:#fff;fill-rule:evenodd"/><polygon points="124.11 323.34 130.25 318.22 132.58 310.6 138.87 304.21 146.74 302.46 153.93 305.77 159.15 313.79 150.91 314.56 145.68 319.21 141.5 328.16 137.19 334.71 130.11 329.38 124.11 323.34 124.11 323.34" style="fill:#81cece;fill-rule:evenodd"/><polygon points="215.36 288.22 224.96 290.9 233.61 290.29 242.18 284.74 249.71 284.11 257.47 280.33 260.4 273.24 260.49 263.59 260.17 256.67 271.23 257.71 282.88 263.35 289.78 270.92 294.65 282.73 295.57 295.01 293.65 306.24 289.44 317.12 283.66 326.81 277.63 321.97 272.12 311.19 266.21 304.76 263.83 308.31 259.37 308.31 249.01 314.89 242.78 317.08 241.96 323.53 233.05 325.18 225.93 331.63 219.68 327.89 211.77 324.9 183.37 326.16 190.37 293.83 210.37 286.83 213.71 288.16 215.36 288.22 215.36 288.22" style="fill:#49b37e;fill-rule:evenodd"/><polyline points="203.25 292.12 184.61 289.1 180.5 284.47 172.89 286.36 163.96 285.83 156.57 281.17 150.58 283.14 143.29 279.9 139.38 273.61 138.72 263.88 139.14 255.95 128.17 259.96 118.15 269.62 114.25 279.74 113.5 294.31 115.16 305.57 117.99 313.93 124.11 323.34 124.11 323.34 130.25 318.22 133.76 308.81 140.45 302.35 146.74 302.46 152.89 304.95 159.06 312.1 163.47 315.77 170.7 323.35 177.75 322.26 201.75 326.62" style="fill:#68569d;fill-rule:evenodd"/><polygon points="283.23 238.69 283.32 233.97 296.2 233.33 309.42 230.25 324.35 223.64 337.82 211.05 342.21 219.56 346.05 234.13 349.44 251.74 351.29 269.66 351.22 287.67 348.92 305 343.69 322.73 337.26 336.07 326.34 351.24 313.18 364.47 302.86 376.36 294.18 390.42 286.84 387 290 380.22 295.49 369.04 301.41 356.87 308.58 341.06 314.43 326.36 316.46 315.43 320.63 298.81 322.32 282.1 316.26 266.47 307.31 254.17 296.44 245.49 283.23 238.69 283.23 238.69" style="fill:#49b37e;fill-rule:evenodd"/><path d="M260.29,50.78c-13.5-15-105.85-69.34-178.87,48.28" style="fill:none;stroke:#000;stroke-linecap:round;stroke-linejoin:round;stroke-width:8.50394px"/><path d="M153.5,16.82c1.45-.77,27.44-14.07,55.12-7.87" style="fill:none;stroke:#000;stroke-linecap:round;stroke-linejoin:round;stroke-width:8.50394px"/><path d="M64,24.32S93.62,57.57,89.11,83.88" style="fill:none;stroke:#000;stroke-linecap:round;stroke-linejoin:round;stroke-width:8.50394px"/><path d="M71.9,14.69c10,22.83,35.4,25.21,31.46,53.15" style="fill:none;stroke:#000;stroke-linecap:round;stroke-linejoin:round;stroke-width:8.50394px"/><path d="M50.47,20.94c1.13-15.75,12.05-25,21.43-6.25" style="fill:none;stroke:#000;stroke-linecap:round;stroke-linejoin:round;stroke-width:8.50394px"/><path d="M81.74,93.31S48.22,62.19,50.47,20.94" style="fill:none;stroke:#000;stroke-linecap:round;stroke-linejoin:round;stroke-width:8.50394px"/><path d="M167.13,139.79s66-11.6,85.1-81.72" style="fill:none;stroke:#000;stroke-linecap:round;stroke-linejoin:round;stroke-width:8.50394px"/><path d="M253,101.19c3.75-13.13,43.12-40.5,42.37,18.75" style="fill:none;stroke:#000;stroke-linecap:round;stroke-linejoin:round;stroke-width:8.50394px"/><path d="M275.14,83.51C274,55.76,294,57.53,301.46,24.91" style="fill:none;stroke:#000;stroke-linecap:round;stroke-linejoin:round;stroke-width:8.50394px"/><path d="M290.92,92.53s35.93-28.46,27.3-74.59" style="fill:none;stroke:#000;stroke-linecap:round;stroke-linejoin:round;stroke-width:8.50394px"/><path d="M256.54,86.57c-3.15-34.33,21.94-52.88,34.31-64.88" style="fill:none;stroke:#000;stroke-linecap:round;stroke-linejoin:round;stroke-width:8.50394px"/><path d="M318.22,17.94c-6.75-20.62-18-6.72-27.37,3.75" style="fill:none;stroke:#000;stroke-linecap:round;stroke-linejoin:round;stroke-width:8.50394px"/><path d="M74.85,122.19s8.74-25.12,38.46-46.25" style="fill:none;stroke:#000;stroke-linecap:round;stroke-linejoin:round;stroke-width:8.50394px"/><path d="M17.85,128.19C75.47,117,114.6,123,154.35,136.07s49.5,8.25,76.88-1.12" style="fill:none;stroke:#000;stroke-linecap:round;stroke-linejoin:round;stroke-width:8.50394px"/><path d="M370.35,128.94s-56.25-24.75-139.12,6" style="fill:none;stroke:#000;stroke-linecap:round;stroke-linejoin:round;stroke-width:8.50394px"/><path d="M126.91,128.06s63.06-24.61,86.68-67" style="fill:none;stroke:#000;stroke-linecap:round;stroke-linejoin:round;stroke-width:8.50394px"/><path d="M101.09,123.43s19.89-18.49,63-39.86" style="fill:none;stroke:#000;stroke-linecap:round;stroke-linejoin:round;stroke-width:8.50394px"/><path d="M43.72,142.07s70.87-10.12,120.37,17.25" style="fill:none;stroke:#000;stroke-linecap:round;stroke-linejoin:round;stroke-width:8.50394px"/><path d="M139.72,209.94s-54.37,27.38-76.87-10.5" style="fill:none;stroke:#000;stroke-linecap:round;stroke-linejoin:round;stroke-width:8.50394px"/><path d="M43.72,142.07S43,166.44,62.85,199.44" style="fill:none;stroke:#000;stroke-linecap:round;stroke-linejoin:round;stroke-width:8.50394px"/><path d="M224.1,155.57s54.75-28.5,121.87-15" style="fill:none;stroke:#000;stroke-linecap:round;stroke-linejoin:round;stroke-width:8.50394px"/><path d="M321.22,199.82s14.25-16.87,24.75-59.25" style="fill:none;stroke:#000;stroke-linecap:round;stroke-linejoin:round;stroke-width:8.50394px"/><path d="M284.1,212.94c14.9,0.29,25.13,2.63,37.13-13.12" style="fill:none;stroke:#000;stroke-linecap:round;stroke-linejoin:round;stroke-width:8.50394px"/><path d="M253.72,200.57c3.78,4.68,3.8,11.25,30.37,12.38" style="fill:none;stroke:#000;stroke-linecap:round;stroke-linejoin:round;stroke-width:8.50394px"/><path d="M177.22,176.38c2.63-7.31,26.63-18.75,37.88,2.44" style="fill:none;stroke:#000;stroke-linecap:round;stroke-linejoin:round;stroke-width:8.50394px"/><path d="M253.72,200.57c-2.34-4.87-8.25-27.75-38.62-21.75" style="fill:none;stroke:#000;stroke-linecap:round;stroke-linejoin:round;stroke-width:8.50394px"/><path d="M224.1,155.57s0.77,18.09,15.29,25.55" style="fill:none;stroke:#000;stroke-linecap:round;stroke-linejoin:round;stroke-width:8.50394px"/><path d="M241.16,238.44s23.81-3.19,12.56-37.88" style="fill:none;stroke:#000;stroke-linecap:round;stroke-linejoin:round;stroke-width:8.50394px"/><path d="M193.35,181.82s-24.75-13.69-40.69,5.44-19.69,43.13,10.5,52.5" style="fill:none;stroke:#000;stroke-linecap:round;stroke-linejoin:round;stroke-width:8.50394px"/><path d="M164.1,159.32s-0.12,17.84-5.3,22.34" style="fill:none;stroke:#000;stroke-linecap:round;stroke-linejoin:round;stroke-width:8.50394px"/><path d="M17.85,128.19s5,38.53,28,79.59" style="fill:none;stroke:#000;stroke-linecap:round;stroke-linejoin:round;stroke-width:8.50394px"/><path d="M144,227s-68.09,32.71-98.09-19.23" style="fill:none;stroke:#000;stroke-linecap:round;stroke-linejoin:round;stroke-width:8.50394px"/><path d="M334.63,215.1c11.91-14.34,29.06-43.88,35.72-86.16" style="fill:none;stroke:#000;stroke-linecap:round;stroke-linejoin:round;stroke-width:8.50394px"/><path d="M252.79,231.11s58.78,13.24,81.84-16" style="fill:none;stroke:#000;stroke-linecap:round;stroke-linejoin:round;stroke-width:8.50394px"/><path d="M109.35,142.46c-10.31,9.56-34,22.21-31.1,72" style="fill:none;stroke:#000;stroke-linecap:round;stroke-linejoin:round;stroke-width:8.50394px"/><path d="M52.52,179.14S63.3,159.6,69.87,140.28" style="fill:none;stroke:#000;stroke-linecap:round;stroke-linejoin:round;stroke-width:8.50394px"/><path d="M94.23,157.35s31.68-6.92,39.8-9.94" style="fill:none;stroke:#000;stroke-linecap:round;stroke-linejoin:round;stroke-width:8.50394px"/><path d="M108,154.62c-4.5,16.69,2.54,44,12.37,62.24" style="fill:none;stroke:#000;stroke-linecap:round;stroke-linejoin:round;stroke-width:8.50394px"/><path d="M4.25,157.54s3,24,20.25,51.37" style="fill:none;stroke:#000;stroke-linecap:round;stroke-linejoin:round;stroke-width:8.50394px"/><path d="M359.6,205.33s13.54-12.12,20.37-47.39" style="fill:none;stroke:#000;stroke-linecap:round;stroke-linejoin:round;stroke-width:8.50394px"/><path d="M305.56,137s20.9,39.91,23.48,50.3" style="fill:none;stroke:#000;stroke-linecap:round;stroke-linejoin:round;stroke-width:8.50394px"/><path d="M339,209.38c12.56,38.07,27.2,105.37-19.79,149.16-52.53,48.94-19.76,73.35-16.87,76.5" style="fill:none;stroke:#000;stroke-linecap:round;stroke-linejoin:round;stroke-width:8.50394px"/><path d="M294.64,137.47C292.21,159,282.68,183,282,189.69" style="fill:none;stroke:#000;stroke-linecap:round;stroke-linejoin:round;stroke-width:8.50394px"/><path d="M284.1,212.94s-5.06-7.5-2.06-23.25" style="fill:none;stroke:#000;stroke-linecap:round;stroke-linejoin:round;stroke-width:8.50394px"/><path d="M148.41,232.07S83.52,236.7,90.6,297.13c5.25,44.81,59.52,76.69,114.73,81.27,46.3,3.84,99.42-8.53,111.67-64.87,16.61-76.4-46.39-81-64.21-82.43" style="fill:none;stroke:#000;stroke-linecap:round;stroke-linejoin:round;stroke-width:8.50394px"/><path d="M327.22,252.88c1.88,61.88-29.39,107.75-43.87,141.75-17,39.94,9.55,55.59,2,96.84" style="fill:none;stroke:#000;stroke-linecap:round;stroke-linejoin:round;stroke-width:8.50394px"/><path d="M113.64,407.08c1.88,16.5-26.7,67.31,24.39,96.13" style="fill:none;stroke:#000;stroke-linecap:round;stroke-linejoin:round;stroke-width:8.50394px"/><path d="M62.1,440.38c-2.62-40.88,47.61-41.44,42.74-109.78" style="fill:none;stroke:#000;stroke-linecap:round;stroke-linejoin:round;stroke-width:8.50394px"/><path d="M71.47,261.13c3.75,9,19,19.76,18.6,28.38" style="fill:none;stroke:#000;stroke-linecap:round;stroke-linejoin:round;stroke-width:8.50394px"/><path d="M75.71,405.35s-7.43,38.11,31.19,52" style="fill:none;stroke:#000;stroke-linecap:round;stroke-linejoin:round;stroke-width:8.50394px"/><path d="M45.88,207.79c0.37,29.79-5.71,46.71,26.72,86.34s5.14,102.65,2.57,112.26" style="fill:none;stroke:#000;stroke-linecap:round;stroke-linejoin:round;stroke-width:8.50394px"/><path d="M78.53,234.34a45.56,45.56,0,0,0,15.7,32" style="fill:none;stroke:#000;stroke-linecap:round;stroke-linejoin:round;stroke-width:8.50394px"/><path d="M251.28,257.94c-55.87,13.88-72.21,2.91-86.25-1.12s-61.64-6.94-49.87,48.75c11.25,53.27,134.76,63.2,165.32,25.44s12-82.68-29.2-73.07" style="fill:none;stroke:#000;stroke-linecap:round;stroke-linejoin:round;stroke-width:8.50394px"/><path d="M260.12,126.07s0.91-11.75,3.91-17,13.5-9,15.75-.37-0.56,13.54-.56,13.54" style="fill:none;stroke:#000;stroke-linecap:round;stroke-linejoin:round;stroke-width:8.50394px"/><path d="M154.44,278.85s9.94,13.69,26.06,5.63" style="fill:none;stroke:#000;stroke-linecap:round;stroke-linejoin:round;stroke-width:8.50394px"/><path d="M152.59,255s-4.71,17,1.85,23.89" style="fill:none;stroke:#000;stroke-linecap:round;stroke-linejoin:round;stroke-width:8.50394px"/><path d="M180.5,284.47s10.69,18.19,30.56,1.88" style="fill:none;stroke:#000;stroke-linecap:round;stroke-linejoin:round;stroke-width:8.50394px"/><path d="M247.63,265.54s0.56,40.5-36.56,20.81" style="fill:none;stroke:#000;stroke-linecap:round;stroke-linejoin:round;stroke-width:8.50394px"/><path d="M243.12,283.57c3.79,0.7,22.82,5.12,16.29-26.85" style="fill:none;stroke:#000;stroke-linecap:round;stroke-linejoin:round;stroke-width:8.50394px"/><path d="M139.14,255.95c-0.39,5.63-3.82,29.65,12.87,27" style="fill:none;stroke:#000;stroke-linecap:round;stroke-linejoin:round;stroke-width:8.50394px"/><path d="M160.25,330.6s16.31-19.31,32.44.75" style="fill:none;stroke:#000;stroke-linecap:round;stroke-linejoin:round;stroke-width:8.50394px"/><path d="M225.31,332.47c-3.52-4-17.25-14.81-32.62-1.12" style="fill:none;stroke:#000;stroke-linecap:round;stroke-linejoin:round;stroke-width:8.50394px"/><path d="M255.69,331s-16.69-18-30.37,1.5" style="fill:none;stroke:#000;stroke-linecap:round;stroke-linejoin:round;stroke-width:8.50394px"/><path d="M268.91,326.79s-13.69-24.33-27.37-6.94" style="fill:none;stroke:#000;stroke-linecap:round;stroke-linejoin:round;stroke-width:8.50394px"/><path d="M251.94,312s17-19.29,30.65,9.32" style="fill:none;stroke:#000;stroke-linecap:round;stroke-linejoin:round;stroke-width:8.50394px"/><path d="M141.63,330.6s10.37-27.85,30.1-11.14" style="fill:none;stroke:#000;stroke-linecap:round;stroke-linejoin:round;stroke-width:8.50394px"/><path d="M127.94,324.62c0-20.31,21-32.35,32.2-10.56" style="fill:none;stroke:#000;stroke-linecap:round;stroke-linejoin:round;stroke-width:8.50394px"/><path d="M257.6,143.58c-0.37,12.56-13.16,38.52,9.34,35.71" style="fill:none;stroke:#000;stroke-linecap:round;stroke-linejoin:round;stroke-width:8.50394px"/><path d="M268.38,141.09c0.25,1.2-8.56,8.94-8.56,8.94l11.62,11.44" style="fill:none;stroke:#000;stroke-linecap:round;stroke-linejoin:round;stroke-width:8.50394px"/><path d="M266.94,179.29a65.64,65.64,0,0,0,4.5-17.81" style="fill:none;stroke:#000;stroke-linecap:round;stroke-linejoin:round;stroke-width:8.50394px"/><path d="M122.68,150.85s-0.87,31.81-.3,33.5" style="fill:none;stroke:#000;stroke-linecap:round;stroke-linejoin:round;stroke-width:8.50394px"/><path d="M137.75,182.66c-0.56,3.19-12,9.75-15.37,1.69" style="fill:none;stroke:#000;stroke-linecap:round;stroke-linejoin:round;stroke-width:8.50394px"/><line x1="124.63" y1="157.35" x2="137.57" y2="168.04" style="fill:none;stroke:#000;stroke-linecap:round;stroke-linejoin:round;stroke-width:8.50394px"/><path d="M137.75,182.66s0.94-11.06-.19-14.62" style="fill:none;stroke:#000;stroke-linecap:round;stroke-linejoin:round;stroke-width:8.50394px"/><line x1="124.63" y1="157.35" x2="130.26" y2="146.42" style="fill:none;stroke:#000;stroke-linecap:round;stroke-linejoin:round;stroke-width:8.50394px"/><path d="M164.66,196.07c2.53,1.88-8.62,19.69-11.62,17.53" style="fill:none;stroke:#000;stroke-linecap:round;stroke-linejoin:round;stroke-width:8.50394px"/><path d="M164.66,196.07C161.19,193.63,149,210.6,153,213.6" style="fill:none;stroke:#000;stroke-linecap:round;stroke-linejoin:round;stroke-width:8.50394px"/><path d="M232.35,194.38c-3.09,1.22,5.44,23.63,9.66,21.56" style="fill:none;stroke:#000;stroke-linecap:round;stroke-linejoin:round;stroke-width:8.50394px"/><path d="M232.35,194.38c2.53-1.5,13.22,19.88,9.66,21.56" style="fill:none;stroke:#000;stroke-linecap:round;stroke-linejoin:round;stroke-width:8.50394px"/></svg>