<svg id="Layer_1" data-name="Layer 1" xmlns="http://www.w3.org/2000/svg" viewBox="0 0 162.33 137.71"><title>2neck</title><path d="M179.87,455.18l7.94,4.1,10,2.16h12.54l10.9-2.51,7.87-3.54,2.56-6.26,8.24,3.38,11.8,4.09,11.48,5.3,9.47,7.26,6.15,8.89,3.82,5.3-11.13,8.22L256.77,499,238,504.76l-19.21,2.7H197l-22.44-2.78-18.76-4.17-16-4.73L129.42,491l6.77-9.81L146.75,471l12-8.62s10.27-5.55,11.13-6,7.41-3.92,7.41-3.92l2.61,2.7h0Z" transform="translate(-124.53 -375.47)" style="fill:#fff;fill-rule:evenodd"/><polygon points="61.49 2.36 61.86 17.66 61.81 30.97 61.28 45.82 60.11 62.1 57.99 76.69 55.44 84.08 63.27 88.36 76.23 90.79 92.53 89.25 105.5 83.88 102.73 68.57 101.35 55.3 100.79 41.1 100.86 26.29 101.49 6.86 61.49 2.36" style="fill:#f8d63f;fill-rule:evenodd"/><path d="M226.28,383.63s-4.13,37,3.75,71.17" transform="translate(-124.53 -375.47)" style="fill:none;stroke:#000;stroke-linecap:round;stroke-linejoin:round;stroke-width:8.50394px"/><path d="M186.26,379.72s1.78,63.45-6.85,76.2" transform="translate(-124.53 -375.47)" style="fill:none;stroke:#000;stroke-linecap:round;stroke-linejoin:round;stroke-width:8.50394px"/><path d="M227.62,457.36s-19.34,16.56-47.84,2.69" transform="translate(-124.53 -375.47)" style="fill:none;stroke:#000;stroke-linecap:round;stroke-linejoin:round;stroke-width:8.50394px"/><path d="M188,476.86c4,0.59,17.36,4.34,36-1.12" transform="translate(-124.53 -375.47)" style="fill:none;stroke:#000;stroke-linecap:round;stroke-linejoin:round;stroke-width:8.50394px"/><path d="M228.06,444.82c2,10,42.92,13.79,54.54,38.54" transform="translate(-124.53 -375.47)" style="fill:none;stroke:#000;stroke-linecap:round;stroke-linejoin:round;stroke-width:8.50394px"/><path d="M182.52,447.62c-3.11,8.31-35.74,12.44-53.74,44.31" transform="translate(-124.53 -375.47)" style="fill:none;stroke:#000;stroke-linecap:round;stroke-linejoin:round;stroke-width:8.50394px"/><path d="M282.61,483.35s-37.95,51.32-153.82,8.57" transform="translate(-124.53 -375.47)" style="fill:none;stroke:#000;stroke-linecap:round;stroke-linejoin:round;stroke-width:8.50394px"/></svg>