<svg id="Layer_1" data-name="Layer 1" xmlns="http://www.w3.org/2000/svg" viewBox="0 0 39.59 47.66"><title>2tongue</title><polygon points="4.31 42.83 4.99 31.32 7.3 20.14 11.28 10.43 19.54 9.33 28.88 3.74 33 7.49 35.34 15.61 32.46 22.23 27.94 25.41 29.37 33.56 29.58 42.29 22.06 42.46 11.76 47.66 4.31 42.83 4.31 42.83" style="fill:#e085ad;fill-rule:evenodd"/><path d="M199.51,311.35s24.94-2.62,15-20.81c0,0-2.83-4-11.33-3.12s-13.33,13.33-13.33,13.33" transform="translate(-181.51 -283.05)" style="fill:none;stroke:#000;stroke-linecap:round;stroke-linejoin:round;stroke-width:8.50394px"/><path d="M210.52,307.89s1.08,13.63.56,17.45" transform="translate(-181.51 -283.05)" style="fill:none;stroke:#000;stroke-linecap:round;stroke-linejoin:round;stroke-width:8.50394px"/><path d="M185.82,325.88s-1.13-16.31,6.53-30.13" transform="translate(-181.51 -283.05)" style="fill:none;stroke:#000;stroke-linecap:round;stroke-linejoin:round;stroke-width:8.50394px"/></svg>